<?xml version="1.0" encoding="UTF-8" standalone="no"?>
<svg
   width="32"
   height="32"
   version="1.1"
   id="svg12"
   sodipodi:docname="apport.svg"
   inkscape:version="1.1.1 (3bf5ae0d25, 2021-09-20)"
   xmlns:inkscape="http://www.inkscape.org/namespaces/inkscape"
   xmlns:sodipodi="http://sodipodi.sourceforge.net/DTD/sodipodi-0.dtd"
   xmlns="http://www.w3.org/2000/svg"
   xmlns:svg="http://www.w3.org/2000/svg"
   xmlns:rdf="http://www.w3.org/1999/02/22-rdf-syntax-ns#"
   xmlns:cc="http://creativecommons.org/ns#"
   xmlns:dc="http://purl.org/dc/elements/1.1/">
  <metadata
     id="metadata18">
    <rdf:RDF>
      <cc:Work
         rdf:about="">
        <dc:format>image/svg+xml</dc:format>
        <dc:type
           rdf:resource="http://purl.org/dc/dcmitype/StillImage" />
      </cc:Work>
    </rdf:RDF>
  </metadata>
  <defs
     id="defs16" />
  <sodipodi:namedview
     pagecolor="#ffffff"
     bordercolor="#666666"
     borderopacity="1"
     objecttolerance="10"
     gridtolerance="10"
     guidetolerance="10"
     inkscape:pageopacity="0"
     inkscape:pageshadow="2"
     inkscape:window-width="1920"
     inkscape:window-height="1006"
     id="namedview14"
     showgrid="false"
     inkscape:zoom="9.8125"
     inkscape:cx="39.541401"
     inkscape:cy="16.407643"
     inkscape:window-x="0"
     inkscape:window-y="0"
     inkscape:window-maximized="1"
     inkscape:current-layer="svg12"
     inkscape:document-rotation="0"
     inkscape:pagecheckerboard="0">
    <inkscape:grid
       type="xygrid"
       id="grid844"
       originx="0"
       originy="1e-06" />
  </sodipodi:namedview>
  <g
     id="apport"
     transform="translate(32.000001)" />
  <g
     id="g874"
     transform="translate(32.000001,10.000001)"
     style="fill:#d6dbf1;fill-opacity:1">
    <path
       style="opacity:0.00100002;fill:#d6dbf1;fill-opacity:1"
       d="M -32.000001,-10.000001 V 22 H 0 v -32.000001 z"
       id="path7" />
    <path
       style="fill:#d6dbf1;fill-opacity:1;stroke-width:0.0244892"
       inkscape:connector-curvature="0"
       id="path4"
       d="m -16.183994,-1.9057972 h -0.580395 c -0.479988,0 -0.871814,0.3893763 -0.871814,0.8718143 v 5.4659825 c 0,0.4799877 0.389378,0.8718144 0.871814,0.8718144 h 0.580395 c 0.479988,0 0.871814,-0.3893786 0.871814,-0.8718144 v -5.4659825 c -0.0025,-0.482438 -0.391826,-0.8718143 -0.871814,-0.8718143 z m 3.773779,-4.0652031 h -8.130403 c -3.208082,0 -5.806382,2.6007508 -5.806382,5.80638203 V 8.1861887 c 0,3.2080813 2.600749,5.5884283 5.806382,5.5884283 h 1.160786 c 0.830184,1.442413 2.199127,3.857046 2.324023,4.065202 0.146935,0.249789 0.433457,0.254687 0.580392,0 0.166527,-0.286522 1.508533,-2.654626 2.324024,-4.065202 h 1.741178 c 3.2080815,0 5.8063844,-2.380347 5.8063844,-5.5884283 v -8.35080697 c 0,-3.20563123 -2.5983029,-5.80638203 -5.8063844,-5.80638203 z m 4.6455973,13.598836 c 0,2.8187043 -2.3974913,4.9835463 -5.2259893,4.9835463 h -1.741181 c -0.717531,1.239152 -1.596694,3.232571 -1.741179,3.484808 -0.129793,0.222853 -0.450601,0.220403 -0.580394,0 -0.107753,-0.183668 -1.008954,-2.216269 -1.741179,-3.484808 h -1.746078 c -2.830948,0 -4.645595,-2.164842 -4.645595,-4.9835463 V 0.29333029 c 0,-2.81870519 2.294635,-5.10109499 5.123133,-5.10109499 h 7.172878 c 2.830948,0 5.123134,2.2848404 5.123134,5.10109499 V 7.6278357 Z M -16.183994,6.8049996 h -0.580395 c -0.479988,0 -0.871814,0.3893781 -0.871814,0.8718147 v 0.5803933 c 0,0.4799879 0.389378,0.8718146 0.871814,0.8718146 h 0.580395 c 0.479988,0 0.871814,-0.3893783 0.871814,-0.8718146 V 7.6768143 c -0.0025,-0.4824366 -0.391826,-0.8718147 -0.871814,-0.8718147 z" />
  </g>
  <g
     id="22-22-apport"
     style="fill:#d6dbf1;fill-opacity:1">
    <path
       style="opacity:0.00100002;fill:#d6dbf1;fill-opacity:1;stroke-width:0.6875"
       d="m 32.000001,10 v 22 h 22 V 10 Z"
       id="path7-3" />
    <path
       style="fill:#d6dbf1;fill-opacity:1;stroke-width:0.0163268"
       inkscape:connector-curvature="0"
       id="path4-6"
       d="m 43.200332,15.693144 h -0.386931 c -0.319992,0 -0.581204,0.259575 -0.581204,0.581194 v 3.643993 c 0,0.319988 0.259593,0.581218 0.581204,0.581218 h 0.386931 c 0.319993,0 0.581222,-0.259593 0.581222,-0.581218 v -3.643993 c -0.0023,-0.321619 -0.261229,-0.581194 -0.581222,-0.581194 z m 2.515854,-2.710143 h -5.420262 c -2.13872,0 -3.870923,1.73384 -3.870923,3.870923 v 5.567206 c 0,2.13872 1.73384,3.725614 3.870923,3.725614 h 0.77385 c 0.553458,0.961609 1.466084,2.571364 1.549359,2.710135 0.09796,0.166526 0.288973,0.169791 0.386915,0 0.111033,-0.191015 1.005702,-1.769752 1.549359,-2.710135 h 1.160779 c 2.138721,0 3.870932,-1.586894 3.870932,-3.725614 v -5.567206 c 0,-2.137083 -1.732211,-3.870923 -3.870932,-3.870923 z m 3.097061,9.065888 c 0,1.879143 -1.598316,3.322362 -3.483992,3.322362 h -1.160784 c -0.47835,0.826105 -1.064462,2.15505 -1.160786,2.323208 -0.08655,0.148568 -0.300392,0.146935 -0.386924,0 -0.07179,-0.122444 -0.67264,-1.477512 -1.160796,-2.323208 h -1.164041 c -1.887309,0 -3.097072,-1.443219 -3.097072,-3.322362 v -4.889662 c 0,-1.879148 1.529755,-3.40074 3.415428,-3.40074 h 4.781918 c 1.887292,0 3.415427,1.52323 3.415427,3.40074 v 4.889662 z m -5.612915,-0.548548 h -0.386931 c -0.319992,0 -0.581204,0.259577 -0.581204,0.581197 v 0.386935 c 0,0.319994 0.259593,0.581206 0.581204,0.581206 h 0.386931 c 0.319993,0 0.581222,-0.259576 0.581222,-0.581206 v -0.386935 c -0.0023,-0.32162 -0.261229,-0.581197 -0.581222,-0.581197 z" />
  </g>
</svg>
