<?xml version="1.0" encoding="UTF-8" standalone="no"?>
<svg
   width="32"
   height="32"
   id="svg3613"
   version="1.1"
   sodipodi:docname="bookmarks.svg"
   inkscape:version="1.1.1 (3bf5ae0d25, 2021-09-20)"
   xmlns:inkscape="http://www.inkscape.org/namespaces/inkscape"
   xmlns:sodipodi="http://sodipodi.sourceforge.net/DTD/sodipodi-0.dtd"
   xmlns="http://www.w3.org/2000/svg"
   xmlns:svg="http://www.w3.org/2000/svg"
   xmlns:rdf="http://www.w3.org/1999/02/22-rdf-syntax-ns#"
   xmlns:cc="http://creativecommons.org/ns#"
   xmlns:dc="http://purl.org/dc/elements/1.1/">
  <sodipodi:namedview
     pagecolor="#ffffff"
     bordercolor="#666666"
     borderopacity="1"
     objecttolerance="10"
     gridtolerance="10"
     guidetolerance="10"
     inkscape:pageopacity="0"
     inkscape:pageshadow="2"
     inkscape:window-width="1920"
     inkscape:window-height="1006"
     id="namedview12"
     showgrid="false"
     inkscape:zoom="7.288912"
     inkscape:cx="16.737752"
     inkscape:cy="7.9572918"
     inkscape:window-x="0"
     inkscape:window-y="0"
     inkscape:window-maximized="1"
     inkscape:current-layer="svg3613"
     inkscape:snap-bbox="true"
     inkscape:bbox-nodes="true"
     inkscape:snap-nodes="false"
     inkscape:snap-global="true"
     inkscape:snap-smooth-nodes="true"
     inkscape:snap-intersection-paths="true"
     inkscape:lockguides="true"
     showguides="true"
     inkscape:document-rotation="0"
     inkscape:pagecheckerboard="0">
    <inkscape:grid
       type="xygrid"
       id="grid965"
       originx="-22"
       originy="8.4493255e-08" />
  </sodipodi:namedview>
  <metadata
     id="metadata13">
    <rdf:RDF>
      <cc:Work
         rdf:about="">
        <dc:format>image/svg+xml</dc:format>
        <dc:type
           rdf:resource="http://purl.org/dc/dcmitype/StillImage" />
      </cc:Work>
    </rdf:RDF>
  </metadata>
  <defs
     id="defs3615">
    <style
       type="text/css"
       id="current-color-scheme" />
    <linearGradient
       id="linearGradient860">
      <stop
         style="stop-color:#f22c42;stop-opacity:1"
         offset="0"
         id="stop858" />
      <stop
         style="stop-color:#f76363;stop-opacity:1"
         offset="1"
         id="stop856" />
    </linearGradient>
    <filter
       style="color-interpolation-filters:sRGB"
       id="a"
       x="-0.035999998"
       y="-0.035999998"
       width="1.072"
       height="1.072">
      <feGaussianBlur
         stdDeviation="0.43506"
         id="feGaussianBlur3" />
    </filter>
  </defs>
  <g
     id="bookmarks"
     transform="translate(38.723,0.86800998)">
    <path
       style="color:#000000;overflow:visible;opacity:0.3;fill:#3b5a87;fill-opacity:1;stroke-width:1.07143"
       inkscape:connector-curvature="0"
       d="m -22.723,0.132 c -8.276786,0 -15,6.7232143 -15,15 0,8.276786 6.723214,15 15,15 8.276786,0 15,-6.723214 15,-15 0,-8.2767857 -6.723214,-15 -15,-15 z"
       overflow="visible"
       id="path12" />
    <rect
       x="-38.723"
       y="-0.86800998"
       width="32"
       height="32"
       rx="0"
       ry="0"
       style="opacity:0;stroke-width:2;paint-order:fill markers stroke"
       id="rect8" />
    <path
       style="color:#000000;overflow:visible;opacity:0.5;fill:none"
       inkscape:connector-curvature="0"
       d="m -22.723,0.63198 c -8,0 -14.5,6.5 -14.5,14.5 0,8 6.5,14.5 14.5,14.5 8,0 14.5,-6.5 14.5,-14.5 0,-8 -6.5,-14.5 -14.5,-14.5 z"
       overflow="visible"
       id="path14" />
    <path
       style="fill:#d6dbf1;fill-opacity:1;stroke-width:0.981982"
       inkscape:connector-curvature="0"
       d="m -26.861343,8.132 c -2.676674,0 -4.861657,2.2334 -4.861657,5 0,1.4396 0.58595,2.753 1.526759,3.6667 l 7.473241,7.3333 7.473241,-7.3333 c 0.940963,-0.91356 1.526759,-2.227 1.526759,-3.6667 0,-2.7666 -2.184983,-5 -4.861657,-5 -1.763106,0 -3.29054,0.96155 -4.138439,2.4167 -0.847832,-1.4551 -2.375237,-2.4167 -4.13844,-2.4167 z"
       id="path16" />
  </g>
  <g
     id="22-22-bookmarks"
     transform="translate(-22,10)">
    <rect
       style="opacity:0.01;fill:#000000;fill-opacity:0.00392157;stroke:none"
       id="rect3028"
       width="22"
       height="22"
       x="2.2758499e-16"
       y="4.520874e-08" />
    <path
       style="color:#000000;overflow:visible;opacity:0.3;fill:#3b5a87;fill-opacity:1;stroke-width:0.785716"
       inkscape:connector-curvature="0"
       d="M 11,0 C 4.930358,0 0,4.9303572 0,11 0,17.069643 4.930358,22 11,22 17.069643,22 22,17.069643 22,11 22,4.9303572 17.069643,0 11,0 Z"
       overflow="visible"
       id="path12-6" />
    <path
       style="color:#000000;overflow:visible;opacity:0.5;fill:none;stroke-width:0.733334"
       inkscape:connector-curvature="0"
       d="m 11,0.366652 c -5.866666,0 -10.633333,4.7666662 -10.633333,10.633334 0,5.866666 4.766667,10.633332 10.633333,10.633332 5.866666,0 10.633334,-4.766666 10.633334,-10.633332 C 21.633334,5.1333182 16.866666,0.366652 11,0.366652 Z"
       overflow="visible"
       id="path14-2" />
    <path
       style="fill:#d6dbf1;fill-opacity:1;stroke-width:0.72012"
       inkscape:connector-curvature="0"
       d="M 7.965216,5.8666664 C 6.002321,5.8666664 4.4,7.5044937 4.4,9.533334 4.4,10.58904 4.829697,11.5522 5.519623,12.222246 L 11,17.6 16.480377,12.222246 C 17.170416,11.552302 17.6,10.589114 17.6,9.533334 c 0,-2.0288402 -1.602321,-3.6666676 -3.565215,-3.6666676 -1.292945,0 -2.413063,0.7051373 -3.034855,1.7722473 C 10.378187,6.57184 9.25809,5.8666664 7.965074,5.8666664 Z"
       id="path16-9" />
  </g>
</svg>
