<?xml version="1.0" encoding="UTF-8" standalone="no"?>
<svg
   width="32"
   height="32"
   version="1.1"
   id="svg12"
   sodipodi:docname="choqok.svg"
   inkscape:version="1.1.1 (3bf5ae0d25, 2021-09-20)"
   xmlns:inkscape="http://www.inkscape.org/namespaces/inkscape"
   xmlns:sodipodi="http://sodipodi.sourceforge.net/DTD/sodipodi-0.dtd"
   xmlns="http://www.w3.org/2000/svg"
   xmlns:svg="http://www.w3.org/2000/svg"
   xmlns:rdf="http://www.w3.org/1999/02/22-rdf-syntax-ns#"
   xmlns:cc="http://creativecommons.org/ns#"
   xmlns:dc="http://purl.org/dc/elements/1.1/">
  <g
     id="22-22-choqok"
     transform="translate(32,10)">
    <rect
       style="opacity:0.00100002"
       width="22"
       height="22"
       x="0"
       y="0"
       id="rect2" />
    <path
       fill="none"
       stroke-width="0.694382"
       stroke-linecap="round"
       stroke-linejoin="round"
       stroke-miterlimit="10"
       d="m 19.074759,4.457626 v 9.293012 c 0,0.613278 -0.497166,1.110432 -1.110441,1.110432 h -7.706676 l -4.1186,3.791783 V 14.86107 H 4.057628 c -0.613271,0 -1.110437,-0.497154 -1.110437,-1.110432 V 4.457626 c 0,-0.613276 0.497166,-1.110435 1.110437,-1.110435 h 13.90669 c 0.613275,0 1.110441,0.497159 1.110441,1.110435 z"
       id="path2-3"
       style="stroke:#d6dbf1;stroke-opacity:1" />
    <path
       inkscape:connector-curvature="0"
       style="fill:#489ab1;fill-opacity:1;fill-rule:evenodd;stroke-width:0.296294"
       id="path4411-1-6-6"
       d="m 8.470304,11.55634 c 2.335667,2.22666 4.49856,2.144767 5.551556,0.874266 1.052997,-1.270492 0.2651,-2.355746 0.2651,-2.355746 z" />
    <path
       inkscape:connector-curvature="0"
       style="color:#000000;fill:#eff0f1;fill-opacity:1;stroke:#d6dbf1;stroke-width:0.888854;stroke-linecap:round;stroke-linejoin:round;stroke-opacity:1"
       id="path4170-2-7"
       d="m 6.248081,5.926706 c -0.500878,0 -0.961697,0.01673 -1.333334,0.2963 v 3.701101 c 0.371637,0.279593 0.832456,0.447047 1.333334,0.447047 1.2273,0 2.527784,-0.550481 2.527784,-1.777781 0,-1.2273 -1.300484,-2.666667 -2.527784,-2.666667 z" />
    <path
       inkscape:connector-curvature="0"
       style="color:#000000;fill:#eff0f1;fill-opacity:1;stroke:#d6dbf1;stroke-width:0.888854;stroke-linecap:round;stroke-linejoin:round;stroke-opacity:1"
       id="path4170-8-9-5"
       d="m 14.099934,5.037819 c -0.631851,0.77232 -1.034641,1.708207 -0.735374,2.619741 0.418625,1.275113 1.86283,1.434367 3.048451,1.045106 0.124825,-0.041 0.241832,-0.09463 0.353593,-0.155673 V 5.037819 Z" />
    <circle
       cx="6.8406572"
       cy="8.1489267"
       style="color:#000000;fill:#1f252f;fill-opacity:1;stroke-width:0.888854;stroke-linecap:round;stroke-linejoin:round"
       r="1.0370369"
       id="path4267-1-3" />
    <circle
       cx="14.544379"
       cy="6.9637251"
       style="color:#000000;fill:#1f252f;fill-opacity:1;stroke-width:0.888854;stroke-linecap:round;stroke-linejoin:round"
       r="1.0370369"
       id="path4267-9-2-5" />
    <path
       inkscape:connector-curvature="0"
       style="fill:#eff0f1;fill-opacity:1;fill-rule:evenodd;stroke-width:0.296294"
       id="path4411-7-6"
       d="m 8.766603,11.558314 c 1.774863,1.82876 4.113401,1.736433 4.91357,0.692966 0.800169,-1.043453 0.201448,-1.93478 0.201448,-1.93478 z" />
    <path
       inkscape:connector-curvature="0"
       style="fill:#489ab1;fill-opacity:1;fill-rule:evenodd;stroke-width:0.296294"
       id="path4284-9-2"
       d="m 8.470304,11.55634 c 0,0 0.424202,-1.27968 2.64618,-1.8568 2.22198,-0.577107 3.279096,0.37532 3.279096,0.37532 0.29588,0.861666 -2.567074,2.200487 -2.567074,2.200487 0,0 -3.169984,0.170627 -3.358202,-0.719007 z" />
  </g>
  <metadata
     id="metadata18">
    <rdf:RDF>
      <cc:Work
         rdf:about="">
        <dc:format>image/svg+xml</dc:format>
        <dc:type
           rdf:resource="http://purl.org/dc/dcmitype/StillImage" />
      </cc:Work>
    </rdf:RDF>
  </metadata>
  <defs
     id="defs16" />
  <sodipodi:namedview
     pagecolor="#ffffff"
     bordercolor="#000000"
     borderopacity="1"
     objecttolerance="10"
     gridtolerance="10"
     guidetolerance="10"
     inkscape:pageopacity="0"
     inkscape:pageshadow="2"
     inkscape:window-width="1920"
     inkscape:window-height="1006"
     id="namedview14"
     showgrid="false"
     inkscape:zoom="9.8125003"
     inkscape:cx="31.694267"
     inkscape:cy="18.038216"
     inkscape:window-x="0"
     inkscape:window-y="0"
     inkscape:window-maximized="1"
     inkscape:current-layer="svg12"
     inkscape:document-rotation="0"
     inkscape:lockguides="false"
     inkscape:showpageshadow="false"
     inkscape:pagecheckerboard="0">
    <inkscape:grid
       type="xygrid"
       id="grid941"
       originx="0"
       originy="0" />
  </sodipodi:namedview>
  <g
     id="choqok">
    <rect
       style="opacity:0.00100002"
       width="32"
       height="32"
       x="0"
       y="0"
       id="rect7" />
    <path
       fill="none"
       stroke-width="1.04158"
       stroke-linecap="round"
       stroke-linejoin="round"
       stroke-miterlimit="10"
       d="M 28.112129,6.1864432 V 20.125958 c 0,0.919917 -0.74574,1.665648 -1.665654,1.665648 H 14.886457 l -6.177896,5.687673 v -5.687673 h -3.12212 c -0.919911,0 -1.665651,-0.745731 -1.665651,-1.665648 V 6.1864432 C 3.92079,5.2665285 4.66653,4.52079 5.586441,4.52079 h 20.860034 c 0.919914,0 1.665654,0.7457385 1.665654,1.6656532 z"
       id="path2"
       style="stroke:#d6dbf1;stroke-opacity:1" />
    <path
       inkscape:connector-curvature="0"
       style="fill:#489ab1;fill-opacity:1;fill-rule:evenodd;stroke-width:0.444444"
       id="path4411-1-6"
       d="m 12.205451,16.834512 c 3.5035,3.33999 6.74784,3.21715 8.32734,1.3114 1.57949,-1.90574 0.39764,-3.53362 0.39764,-3.53362 z" />
    <path
       inkscape:connector-curvature="0"
       style="color:#000000;fill:#eff0f1;fill-opacity:1;stroke:#d6dbf1;stroke-width:1.33333;stroke-linecap:round;stroke-linejoin:round;stroke-opacity:1"
       id="path4170-2"
       d="m 8.872121,8.3900619 c -0.75132,0 -1.44254,0.0251 -2,0.44445 v 5.5516501 c 0.55746,0.41939 1.24868,0.67057 2,0.67057 1.84094,0 3.79167,-0.82572 3.79167,-2.66667 0,-1.84095 -1.95073,-4.0000001 -3.79167,-4.0000001 z" />
    <path
       inkscape:connector-curvature="0"
       style="color:#000000;fill:#eff0f1;fill-opacity:1;stroke:#d6dbf1;stroke-width:1.33333;stroke-linecap:round;stroke-linejoin:round;stroke-opacity:1"
       id="path4170-8-9"
       d="m 20.649901,7.0567319 c -0.94777,1.15848 -1.55197,2.56231 -1.10307,3.9296101 0.62795,1.91267 2.79425,2.15155 4.57268,1.56766 0.18723,-0.0615 0.36275,-0.14194 0.53039,-0.23351 V 7.0567319 Z" />
    <circle
       cx="9.761014"
       cy="11.723392"
       style="color:#000000;fill:#1f252f;fill-opacity:1;stroke-width:1.33333;stroke-linecap:round;stroke-linejoin:round"
       r="1.5555556"
       id="path4267-1" />
    <circle
       cx="21.316557"
       cy="9.945591"
       style="color:#000000;fill:#1f252f;fill-opacity:1;stroke-width:1.33333;stroke-linecap:round;stroke-linejoin:round"
       r="1.5555556"
       id="path4267-9-2" />
    <path
       inkscape:connector-curvature="0"
       style="fill:#eff0f1;fill-opacity:1;fill-rule:evenodd;stroke-width:0.444444"
       id="path4411-7"
       d="m 12.649901,16.837472 c 2.66229,2.74314 6.1701,2.60465 7.37035,1.03945 1.20025,-1.56518 0.30217,-2.90217 0.30217,-2.90217 z" />
    <path
       inkscape:connector-curvature="0"
       style="fill:#489ab1;fill-opacity:1;fill-rule:evenodd;stroke-width:0.444444"
       id="path4284-9"
       d="m 12.205451,16.834512 c 0,0 0.63631,-1.91952 3.96927,-2.7852 3.33297,-0.86566 4.91864,0.56298 4.91864,0.56298 0.44383,1.2925 -3.85061,3.30073 -3.85061,3.30073 0,0 -4.75497,0.25594 -5.0373,-1.07851 z" />
  </g>
</svg>
