<?xml version="1.0" encoding="UTF-8" standalone="no"?>
<svg
   id="svg3869"
   version="1.1"
   viewBox="0 0 22 22"
   sodipodi:docname="distribute.svg"
   inkscape:version="1.1.1 (3bf5ae0d25, 2021-09-20)"
   xmlns:inkscape="http://www.inkscape.org/namespaces/inkscape"
   xmlns:sodipodi="http://sodipodi.sourceforge.net/DTD/sodipodi-0.dtd"
   xmlns="http://www.w3.org/2000/svg"
   xmlns:svg="http://www.w3.org/2000/svg">
  <defs
     id="defs12" />
  <sodipodi:namedview
     id="namedview10"
     pagecolor="#ffffff"
     bordercolor="#666666"
     borderopacity="1.0"
     inkscape:pageshadow="2"
     inkscape:pageopacity="0.0"
     inkscape:pagecheckerboard="0"
     showgrid="false"
     inkscape:zoom="14.136364"
     inkscape:cx="-3.1832797"
     inkscape:cy="12.025723"
     inkscape:window-width="1920"
     inkscape:window-height="1006"
     inkscape:window-x="0"
     inkscape:window-y="0"
     inkscape:window-maximized="1"
     inkscape:current-layer="svg3869" />
  <style
     type="text/css"
     id="current-color-scheme" />
  <g
     id="distribute-horizontal-x"
     transform="translate(-326,-534.3622)">
    <path
       id="rect4178"
       d="m 326,534.36218 h 22 v 22 h -22 z"
       fill="none" />
    <path
       id="rect4109"
       d="m 329,541.3622 v 8 h 5 v -8 z m 11,0 v 8 h 5 v -8 z m -10,1 h 3 v 6 h -3 z m 11,0 h 3 v 6 h -3 z m -6,1 v 4 h 1 v -1 h 2 v 1 h 1 v -4 h -1 v 1 h -2 v -1 z"
       class="ColorScheme-Text"
       style="fill:#d6dbf1;fill-opacity:1" />
  </g>
  <g
     id="16-16-distribute-horizontal-x"
     transform="matrix(0.72727273,0,0,0.72727273,-253.09091,-382.62706)">
    <path
       id="rect4178-6"
       d="m 326,534.36218 h 22 v 22 h -22 z"
       fill="none" />
    <path
       id="path4"
       d="m 327.375,539.86221 v 11 h 5.5 v -11 z m 13.75,0 v 11 h 5.5 v -11 z m -12.375,1.375 h 2.75 v 8.25 h -2.75 z m 13.75,0 h 2.75 v 8.25 h -2.75 z m -8.25,1.375 v 5.5 h 1.375 v -1.375 h 2.75 v 1.375 h 1.375 v -5.5 h -1.375 v 1.375 h -2.75 v -1.375 z"
       class="ColorScheme-Text"
       style="fill:#d6dbf1;fill-opacity:1" />
  </g>
</svg>
