<?xml version="1.0" encoding="UTF-8" standalone="no"?>
<svg
   width="32"
   height="32"
   version="1.1"
   id="svg12"
   sodipodi:docname="keyboard.svg"
   inkscape:version="1.1.1 (3bf5ae0d25, 2021-09-20)"
   xmlns:inkscape="http://www.inkscape.org/namespaces/inkscape"
   xmlns:sodipodi="http://sodipodi.sourceforge.net/DTD/sodipodi-0.dtd"
   xmlns="http://www.w3.org/2000/svg"
   xmlns:svg="http://www.w3.org/2000/svg"
   xmlns:rdf="http://www.w3.org/1999/02/22-rdf-syntax-ns#"
   xmlns:cc="http://creativecommons.org/ns#"
   xmlns:dc="http://purl.org/dc/elements/1.1/">
  <g
     id="22-22-keyboard-layout"
     transform="translate(32,10)"
     style="fill:#d6dbf1;fill-opacity:1">
    <rect
       style="opacity:0.00100002;fill:#d6dbf1;fill-opacity:1"
       width="22"
       height="22"
       x="0"
       y="0"
       id="rect2" />
    <path
       d="M 15.384184,9.742674 H 14.40289 c -0.113284,0 -0.204697,0.09297 -0.204697,0.207346 v 0.995644 c 0,0.114488 0.09141,0.207458 0.204697,0.207458 h 0.981294 c 0.112838,0 0.204359,-0.09297 0.204359,-0.207458 V 9.95002 c 0,-0.114376 -0.09152,-0.207346 -0.204359,-0.207346 z M 15.179824,10.7382 H 14.60726 v -0.580704 h 0.572564 z"
       id="path64-2-9"
       style="fill:#d6dbf1;fill-opacity:1;stroke-width:0.0287806" />
    <path
       d="M 15.384184,11.698937 H 14.40289 c -0.113284,0 -0.204697,0.09297 -0.204697,0.207343 v 0.99564 c 0,0.114485 0.09141,0.207463 0.204697,0.207463 h 0.981294 c 0.112838,0 0.204359,-0.09298 0.204359,-0.207463 v -0.99564 c 0,-0.114604 -0.09152,-0.207343 -0.204359,-0.207343 z m -0.20436,0.995638 H 14.60726 v -0.580698 h 0.572564 z"
       id="path66-7-2"
       style="fill:#d6dbf1;fill-opacity:1;stroke-width:0.0287806" />
    <path
       d="M 15.384184,13.654323 H 14.40289 c -0.113284,0 -0.204697,0.09297 -0.204697,0.207463 v 0.994939 c 0,0.114493 0.09141,0.207351 0.204697,0.207351 h 0.981294 c 0.112838,0 0.204359,-0.09274 0.204359,-0.207351 v -0.994939 c 0,-0.114491 -0.09152,-0.207463 -0.204359,-0.207463 z m -0.20436,0.995178 H 14.60726 V 14.06935 h 0.572564 z"
       id="path68-0-2"
       style="fill:#d6dbf1;fill-opacity:1;stroke-width:0.0287806" />
    <path
       d="m 17.316827,9.742674 h -0.981609 c -0.113283,0 -0.204695,0.09297 -0.204695,0.207346 v 0.995644 c 0,0.114488 0.09141,0.207458 0.204695,0.207458 h 0.981609 c 0.112838,0 0.204696,-0.09297 0.204696,-0.207458 V 9.95002 C 17.521638,9.835644 17.429553,9.742674 17.316827,9.742674 Z M 17.11258,10.7382 h -0.573022 v -0.580704 h 0.572908 z"
       id="path70-9-8"
       style="fill:#d6dbf1;fill-opacity:1;stroke-width:0.0287806" />
    <path
       d="m 17.316827,11.698937 h -0.981609 c -0.113283,0 -0.204695,0.09297 -0.204695,0.207343 v 0.99564 c 0,0.114485 0.09141,0.207463 0.204695,0.207463 h 0.981609 c 0.112838,0 0.204696,-0.09298 0.204696,-0.207463 v -0.99564 c 1.15e-4,-0.114604 -0.09197,-0.207343 -0.204696,-0.207343 z m -0.204247,0.995638 h -0.573022 v -0.580698 h 0.572908 z"
       id="path72-3-9"
       style="fill:#d6dbf1;fill-opacity:1;stroke-width:0.0287806" />
    <path
       d="m 17.316827,13.654323 h -0.981609 c -0.113283,0 -0.204695,0.09297 -0.204695,0.207463 v 0.994939 c 0,0.114493 0.09141,0.207351 0.204695,0.207351 h 0.981609 c 0.112838,0 0.204696,-0.09274 0.204696,-0.207351 v -0.994939 c 1.15e-4,-0.114491 -0.09197,-0.207463 -0.204696,-0.207463 z M 17.11258,14.649501 H 16.539558 V 14.06935 h 0.572908 z"
       id="path74-6-7"
       style="fill:#d6dbf1;fill-opacity:1;stroke-width:0.0287806" />
    <path
       d="m 13.424396,9.742674 h -0.981608 c -0.112839,0 -0.20436,0.09297 -0.20436,0.207346 v 0.995644 c 0,0.114488 0.09141,0.207458 0.20436,0.207458 h 0.981608 c 0.112838,0 0.204359,-0.09297 0.204359,-0.207458 V 9.95002 c 0,-0.114376 -0.09141,-0.207346 -0.204359,-0.207346 z M 13.2197,10.7382 H 12.647478 V 10.157496 H 13.2197 Z"
       id="path76-0-3"
       style="fill:#d6dbf1;fill-opacity:1;stroke-width:0.0287806" />
    <path
       d="m 13.424396,11.698937 h -0.981608 c -0.112839,0 -0.20436,0.09297 -0.20436,0.207343 v 0.99564 c 0,0.114485 0.09141,0.207463 0.20436,0.207463 h 0.981608 c 0.112838,0 0.204359,-0.09298 0.204359,-0.207463 v -0.99564 c 0,-0.114604 -0.09141,-0.207343 -0.204359,-0.207343 z M 13.2197,12.694575 H 12.647478 V 12.113877 H 13.2197 Z"
       id="path78-6-6"
       style="fill:#d6dbf1;fill-opacity:1;stroke-width:0.0287806" />
    <path
       d="m 13.424396,13.654323 h -0.981608 c -0.112839,0 -0.20436,0.09297 -0.20436,0.207463 v 0.994939 c 0,0.114493 0.09141,0.207351 0.20436,0.207351 h 0.981608 c 0.112838,0 0.204359,-0.09274 0.204359,-0.207351 v -0.994939 c 0,-0.114491 -0.09141,-0.207463 -0.204359,-0.207463 z M 13.2197,14.649501 H 12.647478 V 14.06935 H 13.2197 Z"
       id="path80-2-1"
       style="fill:#d6dbf1;fill-opacity:1;stroke-width:0.0287806" />
    <path
       d="m 11.472323,9.742674 h -0.980837 c -0.112839,0 -0.204359,0.09297 -0.204359,0.207346 v 0.995644 c 0,0.114488 0.09141,0.207458 0.204359,0.207458 h 0.980837 c 0.112838,0 0.204696,-0.09297 0.204696,-0.207458 V 9.95002 c 0,-0.114376 -0.09174,-0.207346 -0.204696,-0.207346 z M 11.267964,10.7382 H 10.69617 v -0.580704 h 0.571794 z"
       id="path82-6-2"
       style="fill:#d6dbf1;fill-opacity:1;stroke-width:0.0287806" />
    <path
       d="m 11.472323,11.698937 h -0.980837 c -0.112839,0 -0.204359,0.09297 -0.204359,0.207343 v 0.99564 c 0,0.114485 0.09141,0.207463 0.204359,0.207463 h 0.980837 c 0.112838,0 0.204696,-0.09298 0.204696,-0.207463 v -0.99564 c 0,-0.114604 -0.09174,-0.207343 -0.204696,-0.207343 z m -0.204359,0.995638 H 10.69617 v -0.580698 h 0.571794 z"
       id="path84-3-1-9"
       style="fill:#d6dbf1;fill-opacity:1;stroke-width:0.0287806" />
    <path
       d="m 8.570785,11.15334 h 0.981952 c 0.112838,0 0.204358,-0.09298 0.204358,-0.207463 V 9.950238 c 0,-0.114487 -0.09141,-0.207345 -0.204358,-0.207345 H 8.570785 c -0.112838,0 -0.204359,0.09297 -0.204359,0.207345 v 0.995639 c 0,0.114487 0.09163,0.207463 0.204359,0.207463 z m 0.204696,-0.995756 h 0.572908 v 0.580704 H 8.775481 Z"
       id="path86-6-8-3"
       style="fill:#d6dbf1;fill-opacity:1;stroke-width:0.0287806" />
    <path
       d="m 8.570785,13.109307 h 0.981952 c 0.112838,0 0.204358,-0.09297 0.204358,-0.207457 v -0.995644 c 0,-0.114487 -0.09141,-0.207344 -0.204358,-0.207344 H 8.570785 c -0.112838,0 -0.204359,0.09297 -0.204359,0.207344 v 0.995644 c 0,0.114487 0.09163,0.207457 0.204359,0.207457 z M 8.775481,12.11367 h 0.572908 v 0.580699 H 8.775481 Z"
       id="path88-7-7-1"
       style="fill:#d6dbf1;fill-opacity:1;stroke-width:0.0287806" />
    <path
       d="m 6.628141,11.15334 h 0.980494 c 0.112838,0 0.204696,-0.09298 0.204696,-0.207463 V 9.950238 c 0,-0.114487 -0.09185,-0.207345 -0.204696,-0.207345 H 6.628141 c -0.113284,0 -0.204696,0.09297 -0.204696,0.207345 v 0.995639 c 0,0.114487 0.09163,0.207463 0.204696,0.207463 z M 6.8325,10.157584 h 0.571792 v 0.580704 H 6.8325 Z"
       id="path90-5-9-9"
       style="fill:#d6dbf1;fill-opacity:1;stroke-width:0.0287806" />
    <path
       d="m 6.628141,13.109307 h 0.980494 c 0.112838,0 0.204696,-0.09297 0.204696,-0.207457 v -0.995644 c 0,-0.114487 -0.09185,-0.207344 -0.204696,-0.207344 H 6.628141 c -0.113284,0 -0.204696,0.09297 -0.204696,0.207344 v 0.995644 c 0,0.114487 0.09163,0.207457 0.204696,0.207457 z M 6.8325,12.11367 h 0.571792 v 0.580699 L 6.8325,12.694487 Z"
       id="path92-3-2-4"
       style="fill:#d6dbf1;fill-opacity:1;stroke-width:0.0287806" />
    <path
       d="M 11.472323,13.654323 H 6.628427 c -0.113284,0 -0.204697,0.09297 -0.204697,0.207463 v 0.994939 c 0,0.114493 0.09141,0.207351 0.204697,0.207351 h 4.843896 c 0.112838,0 0.204696,-0.09274 0.204696,-0.207351 v -0.994939 c 0,-0.114491 -0.09174,-0.207463 -0.204696,-0.207463 z m -0.204359,0.995178 H 6.832655 V 14.06935 h 4.435309 z"
       id="path94-5-0-7"
       style="fill:#d6dbf1;fill-opacity:1;stroke-width:0.0287806" />
    <path
       d="M 5.665248,9.742674 H 4.683183 c -0.112839,0 -0.20436,0.09297 -0.20436,0.207346 v 0.995644 c 0,0.114488 0.09141,0.207458 0.20436,0.207458 h 0.981951 c 0.112838,0 0.204359,-0.09297 0.204359,-0.207458 V 9.95002 C 5.869607,9.835644 5.778083,9.742674 5.665245,9.742674 Z M 5.460551,10.7382 H 4.887644 v -0.580704 h 0.572907 z"
       id="path96-6-2-8"
       style="fill:#d6dbf1;fill-opacity:1;stroke-width:0.0287806" />
    <path
       d="M 5.665248,11.698937 H 4.683183 c -0.112839,0 -0.20436,0.09297 -0.20436,0.207343 v 0.99564 c 0,0.114485 0.09141,0.207463 0.20436,0.207463 h 0.981951 c 0.112838,0 0.204359,-0.09298 0.204359,-0.207463 V 11.90628 C 5.869607,11.791676 5.778083,11.698937 5.665245,11.698937 Z M 5.460551,12.694575 H 4.887644 v -0.580698 h 0.572907 z"
       id="path98-2-3-4"
       style="fill:#d6dbf1;fill-opacity:1;stroke-width:0.0287806" />
    <path
       d="M 5.665248,13.654323 H 4.683183 c -0.112839,0 -0.20436,0.09297 -0.20436,0.207463 v 0.994939 c 0,0.114493 0.09141,0.207351 0.20436,0.207351 h 0.981951 c 0.112838,0 0.204359,-0.09274 0.204359,-0.207351 V 13.861786 C 5.869607,13.747295 5.778083,13.654323 5.665245,13.654323 Z M 5.460551,14.649501 H 4.887644 V 14.06935 h 0.572907 z"
       id="path100-9-7-5"
       style="fill:#d6dbf1;fill-opacity:1;stroke-width:0.0287806" />
    <path
       d="m 18.12543,8.2296746 h -3.354127 v -0.08414 c 0,-0.254685 -0.205811,-0.457614 -0.466646,-0.481616 -0.02355,-0.08935 -0.303468,-1.108645 -1.091898,-1.470792 -0.42993,-0.197948 -0.915777,-0.161934 -1.441682,0.108605 0,2.3e-4 -0.0011,0 -0.0011,2.3e-4 -0.0096,0.005 -0.988208,0.497708 -1.754751,0.201008 C 9.670127,6.3695636 9.422118,6.0985826 9.25794,5.6750337 9.2028,5.5330307 9.045098,5.4634997 8.904013,5.5192137 c -0.139959,0.0562 -0.208714,0.216635 -0.153911,0.3588679 0.221659,0.569049 0.582507,0.953724 1.073468,1.142974 0.244095,0.09388 0.497333,0.129659 0.741542,0.129659 0.750371,0 1.41491,-0.336229 1.450826,-0.355129 0.370871,-0.190474 0.697455,-0.224671 0.970122,-0.09909 0.42713,0.19535 0.659282,0.723164 0.749257,0.976712 -0.237064,0.04427 -0.418988,0.234181 -0.418988,0.47245 v 0.08414 L 3.87569,8.2299166 C 3.392529,8.2299166 3,8.6283036 3,9.1182106 v 6.5717874 c 0,0.488858 0.392529,0.886927 0.87569,0.886927 h 14.249391 c 0.482811,2e-6 0.874911,-0.398034 0.874911,-0.886925 V 9.1182126 c 1.14e-4,-0.489883 -0.391986,-0.888413 -0.874804,-0.888413 z m -4.400452,-0.08414 c 0,-0.04096 0.04855,-0.07599 0.105584,-0.07599 h 0.427131 c 0.05658,0 0.105138,0.03497 0.105138,0.07599 v 0.08414 h -0.637624 v -0.08414 z m 4.730464,7.5444114 c 0,0.184248 -0.148108,0.33385 -0.330041,0.33385 H 3.876009 c -0.181927,0 -0.330355,-0.149707 -0.330355,-0.33385 L 3.545543,9.1178646 c 0,-0.184816 0.148442,-0.335186 0.330355,-0.335186 h 14.249391 c 0.181927,0 0.330041,0.150389 0.330041,0.335186 z"
       id="path102-1-5-0"
       style="fill:#d6dbf1;fill-opacity:1;stroke-width:0.0287806" />
  </g>
  <g
     id="keyboard-layout"
     style="fill:#d6dbf1;fill-opacity:1">
    <rect
       style="opacity:0.00100002;fill:#d6dbf1;fill-opacity:1"
       width="32"
       height="32"
       x="0"
       y="0"
       id="rect7" />
    <path
       d="m 23.124312,13.894341 h -1.594603 c -0.184087,0 -0.332632,0.151076 -0.332632,0.336936 v 1.617921 c 0,0.186042 0.14854,0.337118 0.332632,0.337118 h 1.594603 c 0.183362,0 0.332083,-0.151076 0.332083,-0.337118 v -1.617921 c 0,-0.18586 -0.148721,-0.336936 -0.332083,-0.336936 z m -0.332085,1.617728 h -0.930416 v -0.943644 h 0.930416 z"
       id="path64"
       style="fill:#d6dbf1;fill-opacity:1;stroke-width:0.0467684" />
    <path
       d="m 23.124312,17.073266 h -1.594603 c -0.184087,0 -0.332632,0.151076 -0.332632,0.336933 v 1.617914 c 0,0.186039 0.14854,0.337128 0.332632,0.337128 h 1.594603 c 0.183362,0 0.332083,-0.151089 0.332083,-0.337128 v -1.617914 c 0,-0.186232 -0.148721,-0.336933 -0.332083,-0.336933 z m -0.332085,1.617912 h -0.930416 v -0.943635 h 0.930416 z"
       id="path66"
       style="fill:#d6dbf1;fill-opacity:1;stroke-width:0.0467684" />
    <path
       d="m 23.124312,20.250769 h -1.594603 c -0.184087,0 -0.332632,0.151079 -0.332632,0.337127 v 1.616775 c 0,0.186052 0.14854,0.336946 0.332632,0.336946 h 1.594603 c 0.183362,0 0.332083,-0.150711 0.332083,-0.336946 v -1.616775 c 0,-0.186048 -0.148721,-0.337127 -0.332083,-0.337127 z m -0.332085,1.617163 h -0.930416 v -0.942745 h 0.930416 z"
       id="path68"
       style="fill:#d6dbf1;fill-opacity:1;stroke-width:0.0467684" />
    <path
       d="m 26.264857,13.894341 h -1.595114 c -0.184085,0 -0.33263,0.151076 -0.33263,0.336936 v 1.617921 c 0,0.186042 0.14854,0.337118 0.33263,0.337118 h 1.595114 c 0.183362,0 0.332631,-0.151076 0.332631,-0.337118 v -1.617921 c 1.86e-4,-0.18586 -0.14945,-0.336936 -0.332631,-0.336936 z m -0.331902,1.617728 h -0.93116 v -0.943644 h 0.930975 z"
       id="path70"
       style="fill:#d6dbf1;fill-opacity:1;stroke-width:0.0467684" />
    <path
       d="m 26.264857,17.073266 h -1.595114 c -0.184085,0 -0.33263,0.151076 -0.33263,0.336933 v 1.617914 c 0,0.186039 0.14854,0.337128 0.33263,0.337128 h 1.595114 c 0.183362,0 0.332631,-0.151089 0.332631,-0.337128 v -1.617914 c 1.86e-4,-0.186232 -0.14945,-0.336933 -0.332631,-0.336933 z m -0.331902,1.617912 h -0.93116 v -0.943635 h 0.930975 z"
       id="path72"
       style="fill:#d6dbf1;fill-opacity:1;stroke-width:0.0467684" />
    <path
       d="m 26.264857,20.250769 h -1.595114 c -0.184085,0 -0.33263,0.151079 -0.33263,0.337127 v 1.616775 c 0,0.186052 0.14854,0.336946 0.33263,0.336946 h 1.595114 c 0.183362,0 0.332631,-0.150711 0.332631,-0.336946 v -1.616775 c 1.86e-4,-0.186048 -0.14945,-0.337127 -0.332631,-0.337127 z m -0.331902,1.617163 h -0.93116 v -0.942745 h 0.930975 z"
       id="path74"
       style="fill:#d6dbf1;fill-opacity:1;stroke-width:0.0467684" />
    <path
       d="m 19.939656,13.894341 h -1.595113 c -0.183363,0 -0.332084,0.151076 -0.332084,0.336936 v 1.617921 c 0,0.186042 0.14854,0.337118 0.332084,0.337118 h 1.595113 c 0.183363,0 0.332084,-0.151076 0.332084,-0.337118 v -1.617921 c 0,-0.18586 -0.14854,-0.336936 -0.332084,-0.336936 z m -0.332631,1.617728 h -0.929861 v -0.943644 h 0.929861 z"
       id="path76"
       style="fill:#d6dbf1;fill-opacity:1;stroke-width:0.0467684" />
    <path
       d="m 19.939656,17.073266 h -1.595113 c -0.183363,0 -0.332084,0.151076 -0.332084,0.336933 v 1.617914 c 0,0.186039 0.14854,0.337128 0.332084,0.337128 h 1.595113 c 0.183363,0 0.332084,-0.151089 0.332084,-0.337128 v -1.617914 c 0,-0.186232 -0.14854,-0.336933 -0.332084,-0.336933 z m -0.332631,1.617912 h -0.929861 v -0.943635 h 0.929861 z"
       id="path78"
       style="fill:#d6dbf1;fill-opacity:1;stroke-width:0.0467684" />
    <path
       d="m 19.939656,20.250769 h -1.595113 c -0.183363,0 -0.332084,0.151079 -0.332084,0.337127 v 1.616775 c 0,0.186052 0.14854,0.336946 0.332084,0.336946 h 1.595113 c 0.183363,0 0.332084,-0.150711 0.332084,-0.336946 v -1.616775 c 0,-0.186048 -0.14854,-0.337127 -0.332084,-0.337127 z m -0.332631,1.617163 h -0.929861 v -0.942745 h 0.929861 z"
       id="path80"
       style="fill:#d6dbf1;fill-opacity:1;stroke-width:0.0467684" />
    <path
       d="m 16.767538,13.894341 h -1.59386 c -0.183363,0 -0.332084,0.151076 -0.332084,0.336936 v 1.617921 c 0,0.186042 0.14854,0.337118 0.332084,0.337118 h 1.59386 c 0.183362,0 0.332631,-0.151076 0.332631,-0.337118 v -1.617921 c 0,-0.18586 -0.149083,-0.336936 -0.332631,-0.336936 z m -0.332084,1.617728 H 15.50629 v -0.943644 h 0.929164 z"
       id="path82"
       style="fill:#d6dbf1;fill-opacity:1;stroke-width:0.0467684" />
    <path
       d="m 16.767538,17.073266 h -1.59386 c -0.183363,0 -0.332084,0.151076 -0.332084,0.336933 v 1.617914 c 0,0.186039 0.14854,0.337128 0.332084,0.337128 h 1.59386 c 0.183362,0 0.332631,-0.151089 0.332631,-0.337128 v -1.617914 c 0,-0.186232 -0.149083,-0.336933 -0.332631,-0.336933 z m -0.332084,1.617912 H 15.50629 v -0.943635 h 0.929164 z"
       id="path84-3"
       style="fill:#d6dbf1;fill-opacity:1;stroke-width:0.0467684" />
    <path
       d="m 12.052539,16.186671 h 1.595671 c 0.183362,0 0.332083,-0.151086 0.332083,-0.337128 v -1.617911 c 0,-0.186042 -0.14854,-0.336936 -0.332083,-0.336936 h -1.595671 c -0.183362,0 -0.332083,0.151076 -0.332083,0.336936 v 1.617911 c 0,0.186042 0.148902,0.337128 0.332083,0.337128 z m 0.332631,-1.618103 h 0.930975 v 0.943644 H 12.38517 Z"
       id="path86-6"
       style="fill:#d6dbf1;fill-opacity:1;stroke-width:0.0467684" />
    <path
       d="m 12.052539,19.365118 h 1.595671 c 0.183362,0 0.332083,-0.151076 0.332083,-0.337118 v -1.617921 c 0,-0.186042 -0.14854,-0.336935 -0.332083,-0.336935 h -1.595671 c -0.183362,0 -0.332083,0.151076 -0.332083,0.336935 V 19.028 c 0,0.186042 0.148902,0.337118 0.332083,0.337118 z m 0.332631,-1.617911 h 0.930975 v 0.943636 H 12.38517 Z"
       id="path88-7"
       style="fill:#d6dbf1;fill-opacity:1;stroke-width:0.0467684" />
    <path
       d="m 8.895742,16.186671 h 1.593303 c 0.183362,0 0.332631,-0.151086 0.332631,-0.337128 v -1.617911 c 0,-0.186042 -0.149264,-0.336936 -0.332631,-0.336936 H 8.895742 c -0.184087,0 -0.332631,0.151076 -0.332631,0.336936 v 1.617911 c 0,0.186042 0.148902,0.337128 0.332631,0.337128 z m 0.332084,-1.618103 h 0.929162 v 0.943644 H 9.227826 Z"
       id="path90-5"
       style="fill:#d6dbf1;fill-opacity:1;stroke-width:0.0467684" />
    <path
       d="m 8.895742,19.365118 h 1.593303 c 0.183362,0 0.332631,-0.151076 0.332631,-0.337118 v -1.617921 c 0,-0.186042 -0.149264,-0.336935 -0.332631,-0.336935 H 8.895742 c -0.184087,0 -0.332631,0.151076 -0.332631,0.336935 V 19.028 c 0,0.186042 0.148902,0.337118 0.332631,0.337118 z m 0.332084,-1.617911 h 0.929162 v 0.943636 l -0.929162,1.92e-4 z"
       id="path92-3"
       style="fill:#d6dbf1;fill-opacity:1;stroke-width:0.0467684" />
    <path
       d="M 16.767538,20.250769 H 8.896207 c -0.184087,0 -0.332632,0.151079 -0.332632,0.337127 v 1.616775 c 0,0.186052 0.14854,0.336946 0.332632,0.336946 h 7.871331 c 0.183362,0 0.332631,-0.150711 0.332631,-0.336946 v -1.616775 c 0,-0.186048 -0.149083,-0.337127 -0.332631,-0.337127 z m -0.332084,1.617163 H 9.228077 v -0.942745 h 7.207377 z"
       id="path94-5"
       style="fill:#d6dbf1;fill-opacity:1;stroke-width:0.0467684" />
    <path
       d="M 7.331041,13.894341 H 5.735185 c -0.183363,0 -0.332084,0.151076 -0.332084,0.336936 v 1.617921 c 0,0.186042 0.14854,0.337118 0.332084,0.337118 h 1.59567 c 0.183363,0 0.332084,-0.151076 0.332084,-0.337118 v -1.617921 c 1.85e-4,-0.18586 -0.14854,-0.336936 -0.331903,-0.336936 z M 6.998409,15.512069 H 6.067435 v -0.943644 h 0.930974 z"
       id="path96-6"
       style="fill:#d6dbf1;fill-opacity:1;stroke-width:0.0467684" />
    <path
       d="M 7.331041,17.073266 H 5.735185 c -0.183363,0 -0.332084,0.151076 -0.332084,0.336933 v 1.617914 c 0,0.186039 0.14854,0.337128 0.332084,0.337128 h 1.59567 c 0.183363,0 0.332084,-0.151089 0.332084,-0.337128 V 17.410199 C 7.663124,17.223967 7.514399,17.073266 7.331036,17.073266 Z M 6.998409,18.691178 H 6.067435 v -0.943635 h 0.930974 z"
       id="path98-2"
       style="fill:#d6dbf1;fill-opacity:1;stroke-width:0.0467684" />
    <path
       d="M 7.331041,20.250769 H 5.735185 c -0.183363,0 -0.332084,0.151079 -0.332084,0.337127 v 1.616775 c 0,0.186052 0.14854,0.336946 0.332084,0.336946 h 1.59567 c 0.183363,0 0.332084,-0.150711 0.332084,-0.336946 V 20.587896 C 7.663124,20.401848 7.514399,20.250769 7.331036,20.250769 Z M 6.998409,21.867932 H 6.067435 v -0.942745 h 0.930974 z"
       id="path100-9"
       style="fill:#d6dbf1;fill-opacity:1;stroke-width:0.0467684" />
    <path
       d="m 27.578836,11.435715 h -5.450455 v -0.136721 c 0,-0.413862 -0.334443,-0.743623 -0.7583,-0.782626 C 21.331811,10.371177 20.876945,8.71482 19.595747,8.126331 18.89711,7.804666 18.107609,7.86319 17.253013,8.302814 c 0,3.75e-4 -0.0018,0 -0.0018,3.75e-4 -0.0156,0.0081 -1.605838,0.808774 -2.851471,0.326637 -0.560785,-0.216784 -0.9638,-0.657129 -1.230589,-1.345396 -0.0896,-0.230755 -0.345869,-0.343743 -0.575132,-0.253208 -0.227434,0.09132 -0.33916,0.352032 -0.250106,0.583162 0.360197,0.924704 0.946575,1.549801 1.744387,1.857332 0.396654,0.152548 0.808166,0.210696 1.205005,0.210696 1.219353,0 2.299229,-0.546372 2.357592,-0.577085 0.602666,-0.30952 1.133364,-0.36509 1.576448,-0.16102 0.694087,0.317444 1.071334,1.175142 1.217543,1.587158 -0.385229,0.07194 -0.680855,0.380543 -0.680855,0.767731 v 0.136722 L 4.422996,11.436111 C 3.63786,11.436111 3,12.08349 3,12.879589 V 23.558743 C 3,24.353138 3.63786,25 4.422996,25 H 27.578257 C 28.362837,25 29,24.353191 29,23.558743 V 12.879589 c 1.86e-4,-0.796059 -0.636977,-1.443671 -1.421557,-1.443671 z m -7.150733,-0.136721 c 0,-0.06656 0.0789,-0.123479 0.171574,-0.123479 h 0.694087 c 0.09195,0 0.17085,0.05683 0.17085,0.123479 v 0.136721 h -1.036139 v -0.136721 z m 7.687003,12.259669 c 0,0.299403 -0.240676,0.542506 -0.536317,0.542506 H 4.423528 c -0.295631,0 -0.536827,-0.243275 -0.536827,-0.542506 L 3.88652,12.879031 c 0,-0.300326 0.241219,-0.544678 0.536827,-0.544678 h 23.155261 c 0.295631,0 0.536317,0.244382 0.536317,0.544678 z"
       id="path102-1"
       style="fill:#d6dbf1;fill-opacity:1;stroke-width:0.0467684" />
  </g>
  <metadata
     id="metadata18">
    <rdf:RDF>
      <cc:Work
         rdf:about="">
        <dc:format>image/svg+xml</dc:format>
        <dc:type
           rdf:resource="http://purl.org/dc/dcmitype/StillImage" />
      </cc:Work>
    </rdf:RDF>
  </metadata>
  <defs
     id="defs16">
    <linearGradient
       id="oomox"
       x1="0"
       x2="0"
       y1="0"
       y2="1">
      <stop
         offset="0%"
         style="stop-color:#303b3d; stop-opacity:1"
         id="stop18" />
      <stop
         offset="100%"
         style="stop-color:#bc985d; stop-opacity:1"
         id="stop20" />
    </linearGradient>
  </defs>
  <sodipodi:namedview
     pagecolor="#ffffff"
     bordercolor="#000000"
     borderopacity="1"
     objecttolerance="10"
     gridtolerance="10"
     guidetolerance="10"
     inkscape:pageopacity="0"
     inkscape:pageshadow="2"
     inkscape:window-width="1920"
     inkscape:window-height="1006"
     id="namedview14"
     showgrid="false"
     inkscape:zoom="9.8125003"
     inkscape:cx="22.420381"
     inkscape:cy="17.32484"
     inkscape:window-x="0"
     inkscape:window-y="0"
     inkscape:window-maximized="1"
     inkscape:current-layer="svg12"
     inkscape:document-rotation="0"
     inkscape:lockguides="false"
     inkscape:showpageshadow="false"
     inkscape:pagecheckerboard="0">
    <inkscape:grid
       type="xygrid"
       id="grid950"
       originx="0"
       originy="0" />
  </sodipodi:namedview>
</svg>
