<?xml version="1.0" encoding="UTF-8" standalone="no"?>
<svg
   id="svg4153"
   version="1.1"
   inkscape:version="1.1.1 (3bf5ae0d25, 2021-09-20)"
   width="32.000004"
   height="32"
   sodipodi:docname="klipper.svg"
   viewBox="0 0 32.000004 32"
   xmlns:inkscape="http://www.inkscape.org/namespaces/inkscape"
   xmlns:sodipodi="http://sodipodi.sourceforge.net/DTD/sodipodi-0.dtd"
   xmlns="http://www.w3.org/2000/svg"
   xmlns:svg="http://www.w3.org/2000/svg"
   xmlns:rdf="http://www.w3.org/1999/02/22-rdf-syntax-ns#"
   xmlns:cc="http://creativecommons.org/ns#"
   xmlns:dc="http://purl.org/dc/elements/1.1/">
  <g
     id="22-22-klipper"
     transform="translate(31.999853,10)">
    <rect
       style="fill:none;fill-opacity:1;stroke:none;stroke-width:0.1;stroke-linecap:square;stroke-linejoin:miter;stroke-miterlimit:4;stroke-dasharray:none;stroke-dashoffset:0;stroke-opacity:1"
       id="rect4148"
       width="22"
       height="22"
       x="1.3415527e-07"
       y="0" />
    <path
       d="m 6.188542,9.841247 h 4.223503 c 0.08555,0 0.154915,-0.132566 0.154915,-0.296069 0,-0.163503 -0.06936,-0.296069 -0.154915,-0.296069 H 6.188542 c -0.08554,0 -0.154899,0.132566 -0.154899,0.296069 0,0.163503 0.06935,0.296069 0.154899,0.296069 z"
       id="path4-3-3"
       style="fill:#d6dbf1;fill-opacity:1;stroke-width:0.214157" />
    <path
       d="m 6.157134,6.782543 h 2.953002 c 0.06817,0 0.123491,-0.132566 0.123491,-0.296069 0,-0.163503 -0.05525,-0.296069 -0.123491,-0.296069 H 6.157134 c -0.06827,0 -0.123491,0.132566 -0.123491,0.296069 0,0.163503 0.05525,0.296069 0.123491,0.296069 z"
       id="path6-6-6"
       style="fill:#d6dbf1;fill-opacity:1;stroke-width:0.191213" />
    <path
       d="m 6.280731,13.107836 h 5.372475 c 0.136458,0 0.247087,-0.132566 0.247087,-0.296069 0,-0.163503 -0.110628,-0.296069 -0.247087,-0.296069 H 6.280731 c -0.136458,0 -0.247088,0.132566 -0.247088,0.296069 0,0.163503 0.110628,0.296069 0.247088,0.296069 z"
       id="path8-7"
       style="fill:#d6dbf1;fill-opacity:1;stroke-width:0.270472" />
    <path
       d="M 13.00429,15.78619 H 6.261987 c -0.126642,0 -0.22932,0.132567 -0.22932,0.296069 0,0.163503 0.102678,0.296069 0.22932,0.296069 h 6.742303 c 0.126641,0 0.229337,-0.132566 0.229337,-0.296069 0,-0.163502 -0.102696,-0.296069 -0.229337,-0.296069 z"
       id="path10-7-5"
       style="fill:#d6dbf1;fill-opacity:1;stroke-width:0.260569" />
    <path
       d="m 14.602311,5.717999 c -0.754708,0 -1.368684,0.548741 -1.368684,1.223176 v 1.003491 0.784987 5.188488 c 0,0.02338 0.0055,0.0453 0.01609,0.06535 3.57e-4,7.34e-4 1.93e-4,0.0016 5.95e-4,0.0024 l 1.187993,2.296848 c 0.02953,0.05717 0.09361,0.09376 0.164012,0.09376 0.07041,0 0.134463,-0.03659 0.164011,-0.09376 l 0.610772,-1.18093 c 4.9e-4,-8.66e-4 0.0012,-0.0015 0.0016,-0.0024 3.96e-4,-7.33e-4 2.53e-4,-0.0015 6.28e-4,-0.0023 l 0.574715,-1.111205 c 3.97e-4,-7.33e-4 2.11e-4,-0.0016 5.97e-4,-0.0024 0.01003,-0.02005 0.01609,-0.04197 0.01609,-0.06535 V 8.729663 7.944676 6.941185 c 0,-0.674435 -0.613979,-1.223177 -1.368595,-1.223177 z m 1.007208,8.03865 H 14.783003 V 8.891145 h 0.826516 z m -0.486778,1.067184 c -0.334456,-0.09938 -0.709778,-0.09878 -1.040869,7.9e-5 l -0.384975,-0.744279 h 1.810759 z M 13.595009,13.756649 V 8.891145 h 0.82661 v 4.865504 z m 2.01451,-5.188488 h -2.01451 V 8.106158 h 2.01451 z m -1.007208,7.261942 -0.367097,-0.709721 c 0.234973,-0.06277 0.496307,-0.06312 0.734143,3.9e-5 z m 1.007208,-8.046929 h -2.01451 V 6.941175 c 0,-0.496383 0.451902,-0.900192 1.007302,-0.900192 0.5554,0 1.007208,0.403809 1.007208,0.900192 z"
       id="path12-5-3"
       style="fill:#d6dbf1;fill-opacity:1;stroke-width:0.170823" />
    <path
       d="M 16.870072,3 H 5.196614 C 4.373485,3 3.7,3.6 3.7,4.333332 V 17.666665 C 3.7,18.4 4.373485,19 5.196614,19 h 11.673458 c 0.82313,0 1.496595,-0.6 1.496595,-1.333335 V 4.333332 C 18.366667,3.6 17.693202,3 16.870072,3 Z m 0.748304,14.666665 c 0,0.366663 -0.336755,0.666663 -0.748304,0.666663 H 5.196614 c -0.411582,0 -0.748305,-0.3 -0.748305,-0.666663 V 4.333332 c 0,-0.366665 0.336723,-0.666665 0.748305,-0.666665 h 11.673458 c 0.411549,0 0.748304,0.3 0.748304,0.666665 z"
       id="path2-3-5"
       style="fill:#d6dbf1;fill-opacity:1;stroke-width:0.353151" />
  </g>
  <metadata
     id="metadata4159">
    <rdf:RDF>
      <cc:Work
         rdf:about="">
        <dc:format>image/svg+xml</dc:format>
        <dc:type
           rdf:resource="http://purl.org/dc/dcmitype/StillImage" />
      </cc:Work>
    </rdf:RDF>
  </metadata>
  <defs
     id="defs4157">
    <style
       type="text/css"
       id="current-color-scheme" />
    <linearGradient
       id="oomox"
       x1="33"
       x2="33"
       y1="81"
       y2="95"
       gradientUnits="userSpaceOnUse">
      <stop
         offset="0%"
         style="stop-color:#303b3d; stop-opacity:1"
         id="stop18" />
      <stop
         offset="100%"
         style="stop-color:#bc985d; stop-opacity:1"
         id="stop20" />
    </linearGradient>
  </defs>
  <sodipodi:namedview
     pagecolor="#ffffff"
     bordercolor="#000000"
     borderopacity="1"
     objecttolerance="10"
     gridtolerance="10000"
     guidetolerance="10"
     inkscape:pageopacity="0"
     inkscape:pageshadow="2"
     inkscape:window-width="1920"
     inkscape:window-height="1006"
     id="namedview4155"
     inkscape:document-units="px"
     showgrid="false"
     inkscape:showpageshadow="false"
     borderlayer="false"
     inkscape:zoom="8.0000004"
     inkscape:cx="35.374998"
     inkscape:cy="25.999999"
     inkscape:window-x="0"
     inkscape:window-y="0"
     inkscape:window-maximized="1"
     inkscape:current-layer="svg4153"
     fit-margin-top="0"
     fit-margin-left="0"
     fit-margin-right="0"
     fit-margin-bottom="0"
     inkscape:snap-bbox="true"
     inkscape:bbox-nodes="true"
     inkscape:document-rotation="0"
     showguides="false"
     inkscape:lockguides="true"
     inkscape:pagecheckerboard="0">
    <inkscape:grid
       type="xygrid"
       id="grid4140"
       originx="5.0000002"
       originy="5.000002" />
    <sodipodi:guide
       position="2.0000001,29.999999"
       orientation="28,0"
       id="guide4186"
       inkscape:locked="true" />
    <sodipodi:guide
       position="2.0000001,1.999999"
       orientation="0,28.000004"
       id="guide4188"
       inkscape:locked="true" />
    <sodipodi:guide
       position="30.000004,1.999999"
       orientation="-28,0"
       id="guide4190"
       inkscape:locked="true" />
    <sodipodi:guide
       position="30.000004,29.999999"
       orientation="0,-28.000004"
       id="guide4192"
       inkscape:locked="true" />
    <sodipodi:guide
       position="1.3415527e-07,31.999999"
       orientation="32,0"
       id="guide4194"
       inkscape:locked="true" />
    <sodipodi:guide
       position="1.3415527e-07,-1e-06"
       orientation="0,32.000004"
       id="guide4196"
       inkscape:locked="true" />
    <sodipodi:guide
       position="32.000004,-1e-06"
       orientation="-32,0"
       id="guide4198"
       inkscape:locked="true" />
    <sodipodi:guide
       position="32.000004,31.999999"
       orientation="0,-32.000004"
       id="guide4200"
       inkscape:locked="true" />
  </sodipodi:namedview>
  <inkscape:clipboard
     style="opacity:0.01000001;fill:#00000f;fill-opacity:0;stroke-width:1;stroke-linecap:butt;stroke-linejoin:miter;stroke-miterlimit:4;stroke-dasharray:none;stroke-dashoffset:0;stroke-opacity:1;stroke:none"
     min="0,0"
     max="22,22" />
  <g
     id="klipper">
    <rect
       y="0"
       x="0"
       height="32"
       width="32.000004"
       id="rect4230"
       style="fill:none;fill-opacity:1;stroke:none" />
    <path
       d="m 8.7328131,14.261873 h 6.3352549 c 0.128318,0 0.232372,-0.198849 0.232372,-0.444104 0,-0.245254 -0.104043,-0.444103 -0.232372,-0.444103 H 8.7328131 c -0.128315,0 -0.232348,0.198849 -0.232348,0.444103 0,0.245255 0.104026,0.444104 0.232348,0.444104 z"
       id="path4-3"
       style="fill:#d6dbf1;fill-opacity:1;stroke-width:0.321235" />
    <path
       d="m 8.6857011,9.673816 h 4.4295029 c 0.102251,0 0.185236,-0.198849 0.185236,-0.444103 0,-0.245255 -0.08287,-0.444104 -0.185236,-0.444104 H 8.6857011 c -0.102412,0 -0.185236,0.198849 -0.185236,0.444104 0,0.245254 0.08287,0.444103 0.185236,0.444103 z"
       id="path6-6"
       style="fill:#d6dbf1;fill-opacity:1;stroke-width:0.28682" />
    <path
       d="m 8.8710951,19.161756 h 8.0587139 c 0.204687,0 0.370631,-0.198849 0.370631,-0.444103 0,-0.245255 -0.165943,-0.444104 -0.370631,-0.444104 H 8.8710951 c -0.204686,0 -0.37063,0.198849 -0.37063,0.444104 0,0.245254 0.165941,0.444103 0.37063,0.444103 z"
       id="path8"
       style="fill:#d6dbf1;fill-opacity:1;stroke-width:0.405708" />
    <path
       d="M 18.956435,23.179287 H 8.8429801 c -0.189962,0 -0.34398,0.19885 -0.34398,0.444104 0,0.245254 0.154018,0.444103 0.34398,0.444103 H 18.956435 c 0.189962,0 0.344005,-0.198849 0.344005,-0.444103 0,-0.245254 -0.154043,-0.444104 -0.344005,-0.444104 z"
       id="path10-7"
       style="fill:#d6dbf1;fill-opacity:1;stroke-width:0.390854" />
    <path
       d="m 21.353467,8.077 c -1.132063,0 -2.053027,0.823112 -2.053027,1.834765 v 1.505236 1.177481 7.782731 c 0,0.03507 0.0082,0.06795 0.02414,0.09802 5.35e-4,0.0011 2.9e-4,0.0024 8.93e-4,0.0036 l 1.781989,3.445272 c 0.04429,0.08575 0.140409,0.140635 0.246018,0.140635 0.105612,0 0.201694,-0.05488 0.246017,-0.140635 l 0.916157,-1.771395 c 7.36e-4,-0.0013 0.0018,-0.0023 0.0024,-0.0036 5.95e-4,-0.0011 3.8e-4,-0.0023 9.43e-4,-0.0034 l 0.862072,-1.666807 c 5.95e-4,-0.0011 3.16e-4,-0.0024 8.95e-4,-0.0036 0.01505,-0.03007 0.02414,-0.06295 0.02414,-0.09802 V 12.594546 11.417065 9.911829 c 0,-1.011653 -0.920969,-1.834765 -2.052892,-1.834765 z m 1.510811,12.057975 H 21.624504 V 12.83672 h 1.239774 z m -0.730167,1.600777 c -0.501684,-0.149063 -1.064667,-0.148176 -1.561303,1.18e-4 l -0.577463,-1.116419 h 2.716139 z M 19.842514,20.134975 V 12.83672 h 1.239915 v 7.298255 z m 3.021764,-7.782731 h -3.021764 v -0.693005 h 3.021764 z m -1.510811,10.892913 -0.550646,-1.064582 c 0.352459,-0.09415 0.744461,-0.09468 1.101215,5.9e-5 z M 22.864278,11.174763 H 19.842514 V 9.911765 c 0,-0.744575 0.677852,-1.350289 1.510953,-1.350289 0.833099,0 1.510811,0.605714 1.510811,1.350289 z"
       id="path12-5"
       style="fill:#d6dbf1;fill-opacity:1;stroke-width:0.256235" />
    <path
       d="M 24.755108,4.000002 H 7.2449211 c -1.234694,0 -2.244921,0.9 -2.244921,1.999998 v 19.999999 c 0,1.100003 1.010227,2.000003 2.244921,2.000003 H 24.755108 c 1.234695,0 2.244892,-0.9 2.244892,-2.000003 V 6 C 27,4.900002 25.989803,4.000002 24.755108,4.000002 Z m 1.122456,21.999997 c 0,0.549995 -0.505133,0.999995 -1.122456,0.999995 H 7.2449211 c -0.617373,0 -1.122457,-0.45 -1.122457,-0.999995 V 6 c 0,-0.549998 0.505084,-0.999998 1.122457,-0.999998 H 24.755108 c 0.617323,0 1.122456,0.45 1.122456,0.999998 z"
       id="path2-3"
       style="fill:#d6dbf1;fill-opacity:1;stroke-width:0.529727" />
  </g>
</svg>
