<?xml version="1.0" encoding="UTF-8" standalone="no"?>
<svg
   width="32"
   height="32"
   version="1.1"
   id="svg12"
   sodipodi:docname="kteatime.svg"
   inkscape:version="1.1.1 (3bf5ae0d25, 2021-09-20)"
   xmlns:inkscape="http://www.inkscape.org/namespaces/inkscape"
   xmlns:sodipodi="http://sodipodi.sourceforge.net/DTD/sodipodi-0.dtd"
   xmlns="http://www.w3.org/2000/svg"
   xmlns:svg="http://www.w3.org/2000/svg"
   xmlns:rdf="http://www.w3.org/1999/02/22-rdf-syntax-ns#"
   xmlns:cc="http://creativecommons.org/ns#"
   xmlns:dc="http://purl.org/dc/elements/1.1/">
  <g
     id="22-22-kteatime"
     transform="translate(32,10)"
     style="fill:#d6dbf1;fill-opacity:1">
    <rect
       style="opacity:0.00100002;fill:#d6dbf1;fill-opacity:1"
       width="22"
       height="22"
       x="0"
       y="0"
       id="rect2" />
    <path
       d="m 14.96485,10.850067 h -0.584805 -0.05656 V 9.3785447 H 5.4 V 17.566243 C 5.4,18.3586 6.041398,19 6.833756,19 h 6.055879 c 0.792361,0 1.433754,-0.6414 1.433754,-1.433757 v -0.0754 h 0.05654 0.5848 c 0.924452,0 1.679042,-0.75456 1.679042,-1.679045 v -3.263862 c 0,-0.943283 -0.754556,-1.697843 -1.679042,-1.697843 z m -6.414324,0.943283 0.905516,1.018679 v 1.509287 H 7.644866 v -1.509287 z m 5.206923,5.79176 c 0,0.471642 -0.396247,0.867887 -0.867888,0.867887 H 6.833683 c -0.47164,0 -0.867892,-0.396245 -0.867892,-0.867887 l 1.33e-4,-7.62173 h 2.301615 v 1.301765 l -1.18857,1.33953 v 2.301476 h 2.943009 V 12.60454 L 8.833407,11.26501 V 9.963246 h 4.923936 z m 0.566002,-5.074864 h 0.471642 c 0.150942,0 0.264112,0.113173 0.264112,0.264112 v 2.811018 c 0,0.150942 -0.11317,0.264112 -0.264112,0.264112 h -0.471642 z m 1.754438,3.320425 c 0,0.622568 -0.509404,1.113039 -1.113039,1.113039 h -0.584805 -0.05655 v -0.528236 h 0.47164 c 0.452812,0 0.830126,-0.37728 0.830126,-0.830125 v -2.811018 c 0,-0.452809 -0.377281,-0.830123 -0.830126,-0.830123 h -0.47165 v -0.528239 h 0.05654 0.584806 c 0.622566,0 1.113039,0.509407 1.113039,1.113041 z"
       id="path70-3"
       style="fill:#d6dbf1;fill-opacity:1;stroke-width:0.0336889" />
    <path
       d="m 8.307978,7.4525101 c 0,0 -0.964171,-0.255262 -0.283619,-0.9359667 C 8.705041,5.8358421 9.285185,5.0775797 9.271749,4.5878871 9.258459,4.0495351 9.055603,3.6566257 8.658135,3.3161399 8.261737,2.9759229 7.656049,3.0003867 7.656049,3.0003867 c 0,0 0.935148,0.028363 1.049132,0.8221132 0.113184,0.794287 -0.397064,1.0209193 -0.8225,1.3612707 -0.425026,0.3402182 -0.907586,0.8504762 -0.793862,1.3897688 0.09382,0.448154 0.311574,0.5671174 0.652458,0.7653847 0.340344,0.1984033 0.566701,0.113586 0.566701,0.113586 z"
       id="path2-36-5"
       style="fill:#d6dbf1;fill-opacity:1;stroke-width:0.13442" />
    <path
       d="m 8.998093,8.5209288 c 0,0 -0.237384,-0.2820154 0.1492,-0.743208 C 9.533749,7.3159888 9.853119,6.8120468 9.818711,6.5075861 9.780031,6.1728794 9.62031,5.9539108 9.365724,5.7489188 c 0,0 0.08885,0.083879 0.12608,0.399632 0.03707,0.3122573 -0.260229,0.5712833 -0.50675,0.806384 -0.245445,0.235638 -0.517905,0.5798893 -0.417365,0.9096213 0.08401,0.2742173 0.430404,0.6563727 0.430404,0.6563727 z"
       id="path4-3-7-6"
       style="fill:#d6dbf1;fill-opacity:1;stroke-width:0.13442" />
    <path
       d="m 11.551565,8.5209288 c 0,0 -0.964172,-0.2552627 -0.283614,-0.935968 0.680682,-0.6807014 1.260826,-1.4389634 1.24739,-1.928656 -0.01329,-0.5383521 -0.216146,-0.9312614 -0.613614,-1.2717473 -0.396403,-0.340217 -1.002085,-0.3157531 -1.002085,-0.3157531 0,0 0.935142,0.028363 1.049131,0.8221133 0.113179,0.7942871 -0.397068,1.0209191 -0.822505,1.3612704 -0.425021,0.3402187 -0.907582,0.8504767 -0.793863,1.3897687 0.09382,0.4481546 0.31158,0.5671173 0.652459,0.7653853 0.340345,0.1984027 0.566701,0.1135867 0.566701,0.1135867 z"
       id="path2-3-5-2"
       style="fill:#d6dbf1;fill-opacity:1;stroke-width:0.13442" />
  </g>
  <metadata
     id="metadata18">
    <rdf:RDF>
      <cc:Work
         rdf:about="">
        <dc:format>image/svg+xml</dc:format>
        <dc:type
           rdf:resource="http://purl.org/dc/dcmitype/StillImage" />
      </cc:Work>
    </rdf:RDF>
  </metadata>
  <defs
     id="defs16" />
  <sodipodi:namedview
     pagecolor="#ffffff"
     bordercolor="#666666"
     borderopacity="1"
     objecttolerance="10"
     gridtolerance="10"
     guidetolerance="10"
     inkscape:pageopacity="0"
     inkscape:pageshadow="2"
     inkscape:window-width="1920"
     inkscape:window-height="1006"
     id="namedview14"
     showgrid="false"
     inkscape:zoom="8"
     inkscape:cx="29.75"
     inkscape:cy="20.625"
     inkscape:window-x="0"
     inkscape:window-y="0"
     inkscape:window-maximized="1"
     inkscape:current-layer="svg12"
     inkscape:document-rotation="0"
     inkscape:lockguides="false"
     inkscape:pagecheckerboard="0">
    <inkscape:grid
       type="xygrid"
       id="grid864"
       originx="0"
       originy="0" />
  </sodipodi:namedview>
  <g
     id="kteatime"
     style="fill:#d6dbf1;fill-opacity:1">
    <rect
       style="opacity:0.00100002;fill:#d6dbf1;fill-opacity:1"
       width="32"
       height="32"
       x="0"
       y="0"
       id="rect7" />
    <path
       d="m 21.847275,15.7751 h -0.877208 -0.08484 V 13.567817 H 7.5 V 25.849365 C 7.5,27.0379 8.462097,28 9.650634,28 h 9.083818 c 1.188542,0 2.150632,-0.9621 2.150632,-2.150635 v -0.113106 h 0.08481 0.877199 c 1.386678,0 2.518564,-1.131839 2.518564,-2.518567 v -4.895793 c 0,-1.414925 -1.131835,-2.546764 -2.518564,-2.546764 z m -9.621486,1.414925 1.358274,1.528018 v 2.26393 h -2.716764 v -2.26393 z m 7.810384,8.68764 c 0,0.707463 -0.59437,1.301829 -1.301832,1.301829 H 9.650524 c -0.70746,0 -1.301837,-0.594366 -1.301837,-1.301829 L 8.348886,14.44507 h 3.452423 v 1.952647 l -1.782856,2.009295 v 3.452214 h 4.414514 V 18.40681 L 12.65011,16.397515 v -1.952647 h 7.385905 z m 0.849003,-7.612297 h 0.707463 c 0.226413,0 0.396168,0.16976 0.396168,0.396169 v 4.216527 c 0,0.226413 -0.169755,0.396167 -0.396168,0.396167 h -0.707463 z m 2.631658,4.980638 c 0,0.933852 -0.764106,1.669559 -1.669559,1.669559 h -0.877208 -0.08483 V 24.12321 h 0.70746 c 0.679217,0 1.245188,-0.56592 1.245188,-1.245187 v -4.216527 c 0,-0.679214 -0.565921,-1.245184 -1.245188,-1.245184 h -0.707469 v -0.792359 h 0.08481 0.877208 c 0.93385,0 1.669559,0.764111 1.669559,1.669562 z"
       id="path70"
       style="fill:#d6dbf1;fill-opacity:1;stroke-width:0.0505334" />
    <path
       d="m 11.861967,10.678765 c 0,0 -1.446257,-0.382893 -0.425429,-1.40395 1.021024,-1.0210522 1.89124,-2.1584454 1.871086,-2.8929844 -0.01994,-0.8075279 -0.324219,-1.396892 -0.920422,-1.9076207 -0.594596,-0.5103256 -1.503128,-0.4736298 -1.503128,-0.4736298 0,0 1.402721,0.042544 1.573698,1.2331698 0.169775,1.1914305 -0.595596,1.5313789 -1.23375,2.0419061 -0.637539,0.510327 -1.36138,1.2757146 -1.190793,2.084653 0.140724,0.672231 0.46736,0.850676 0.978686,1.148077 0.510517,0.297605 0.850052,0.170379 0.850052,0.170379 z"
       id="path2-36"
       style="fill:#d6dbf1;fill-opacity:1;stroke-width:0.20163" />
    <path
       d="m 12.897139,12.281393 c 0,0 -0.356075,-0.423023 0.2238,-1.114812 0.579684,-0.692598 1.058739,-1.448511 1.007127,-1.905202 -0.05802,-0.5020598 -0.297601,-0.8305125 -0.67948,-1.1380006 0,0 0.133281,0.1258179 0.18912,0.5994478 0.05561,0.4683858 -0.390344,0.8569248 -0.760125,1.2095758 -0.368168,0.353457 -0.776858,0.869834 -0.626047,1.364432 0.126008,0.411326 0.645605,0.984559 0.645605,0.984559 z"
       id="path4-3-7"
       style="fill:#d6dbf1;fill-opacity:1;stroke-width:0.20163" />
    <path
       d="m 16.727347,12.281393 c 0,0 -1.446257,-0.382894 -0.425421,-1.403952 C 17.32295,9.856389 18.193166,8.7189962 18.173011,7.984457 18.153071,7.1769291 17.848793,6.5875651 17.25259,6.0768363 16.657986,5.5665108 15.749463,5.6032066 15.749463,5.6032066 c 0,0 1.402713,0.042544 1.573696,1.2331699 0.169769,1.1914305 -0.595602,1.5313787 -1.233757,2.0419055 -0.637531,0.510328 -1.361373,1.275715 -1.190794,2.084653 0.140733,0.672232 0.467369,0.850676 0.978688,1.148078 0.510517,0.297604 0.850051,0.17038 0.850051,0.17038 z"
       id="path2-3-5"
       style="fill:#d6dbf1;fill-opacity:1;stroke-width:0.20163" />
  </g>
</svg>
