<?xml version="1.0" encoding="UTF-8" standalone="no"?>
<svg
   width="64"
   version="1.1"
   height="64"
   id="svg17"
   sodipodi:docname="folder-desktop.svg"
   inkscape:version="1.1.1 (3bf5ae0d25, 2021-09-20)"
   xmlns:inkscape="http://www.inkscape.org/namespaces/inkscape"
   xmlns:sodipodi="http://sodipodi.sourceforge.net/DTD/sodipodi-0.dtd"
   xmlns:xlink="http://www.w3.org/1999/xlink"
   xmlns="http://www.w3.org/2000/svg"
   xmlns:svg="http://www.w3.org/2000/svg"
   xmlns:rdf="http://www.w3.org/1999/02/22-rdf-syntax-ns#"
   xmlns:cc="http://creativecommons.org/ns#"
   xmlns:dc="http://purl.org/dc/elements/1.1/">
  <sodipodi:namedview
     pagecolor="#ffffff"
     bordercolor="#666666"
     borderopacity="1"
     objecttolerance="10"
     gridtolerance="10"
     guidetolerance="10"
     inkscape:pageopacity="0"
     inkscape:pageshadow="2"
     inkscape:window-width="1920"
     inkscape:window-height="1011"
     id="namedview19"
     showgrid="true"
     inkscape:zoom="9.8125004"
     inkscape:cx="34.751591"
     inkscape:cy="25.222929"
     inkscape:window-x="0"
     inkscape:window-y="0"
     inkscape:window-maximized="1"
     inkscape:current-layer="layer1"
     inkscape:document-rotation="0"
     inkscape:pagecheckerboard="0">
    <inkscape:grid
       type="xygrid"
       id="grid908" />
  </sodipodi:namedview>
  <defs
     id="defs5455">
    <linearGradient
       inkscape:collect="always"
       id="linearGradient842">
      <stop
         style="stop-color:#326e9a;stop-opacity:1"
         offset="0"
         id="stop838" />
      <stop
         style="stop-color:#339993;stop-opacity:1"
         offset="1"
         id="stop840" />
    </linearGradient>
    <linearGradient
       inkscape:collect="always"
       xlink:href="#linearGradient860"
       id="linearGradient862"
       x1="113.94677"
       y1="255.36646"
       x2="406.08289"
       y2="255.36646"
       gradientUnits="userSpaceOnUse"
       gradientTransform="matrix(0.20270272,0,0,0.18440693,363.86886,467.51047)" />
    <linearGradient
       inkscape:collect="always"
       id="linearGradient860">
      <stop
         style="stop-color:#78acd3;stop-opacity:1"
         offset="0"
         id="stop856" />
      <stop
         style="stop-color:#d98cbb;stop-opacity:1"
         offset="1"
         id="stop858" />
    </linearGradient>
    <linearGradient
       inkscape:collect="always"
       xlink:href="#linearGradient842"
       id="linearGradient844"
       x1="386.30626"
       y1="522.45407"
       x2="446.83023"
       y2="522.45407"
       gradientUnits="userSpaceOnUse"
       gradientTransform="matrix(0.99134272,0,0,0.99944172,3.6095298,0.30134255)" />
  </defs>
  <metadata
     id="metadata5458">
    <rdf:RDF>
      <cc:Work
         rdf:about="">
        <dc:format>image/svg+xml</dc:format>
        <dc:type
           rdf:resource="http://purl.org/dc/dcmitype/StillImage" />
      </cc:Work>
    </rdf:RDF>
  </metadata>
  <g
     inkscape:label="Capa 1"
     inkscape:groupmode="layer"
     id="layer1"
     transform="translate(-384.57143,-483.798)">
    <path
       style="fill:url(#linearGradient862);fill-opacity:1;stroke-width:0.179137"
       d="m 416.57459,496.95765 c -0.88033,0 -1.92238,-0.5165 -2.31692,-1.14784 l -1.7701,-2.83719 c -0.39274,-0.63133 -1.43479,-1.14667 -2.3148,-1.14782 l -20.40112,-0.0268 c -1.94601,-0.003 -2.7662,0.93496 -2.79385,3.00415 l -0.0117,0.87228 v 2.56642 36.57158 c 0,0.70576 2.3207,2.56642 3.20071,2.56642 h 52.81514 c 0.88002,0 3.20072,-1.86066 3.20072,-2.56642 v -35.28836 c 0,-1.92482 -0.80005,-2.56643 -3.20072,-2.56643 z"
       id="path4-3"
       sodipodi:nodetypes="sccsssccsssssss" />
    <path
       style="fill:#f2f2f2;fill-opacity:1;stroke-width:0.176565"
       d="m 442.34949,510.65747 c 0,1.32548 -0.79577,2.40995 -2.61714,2.40995 h -46.19558 c -1.8214,0 -2.51852,-1.08447 -2.51852,-2.40995 v -7.22985 c 0,-1.32548 0.69712,-2.40996 2.51852,-2.40996 h 46.09644 c 1.82138,0 2.71628,1.08448 2.71628,2.40996 z"
       id="path8-6"
       sodipodi:nodetypes="sssssssss" />
    <path
       style="fill:url(#linearGradient844);fill-opacity:1;stroke-width:0.19334"
       d="m 443.32803,505.1295 h -53.51321 c -1.62181,0 -3.24339,1.47525 -3.24339,2.95052 v 28.76747 c 0,1.95106 1.25421,2.95051 3.24339,2.95051 h 53.51321 c 1.9955,0 3.2434,-0.99945 3.2434,-2.95051 v -28.76747 c 0,-1.47527 -1.62159,-2.95052 -3.2434,-2.95052 z"
       id="path10"
       sodipodi:nodetypes="sssssssss" />
    <g
       id="g843"
       transform="matrix(0.74999868,0,0,0.74999868,120.20139,137.20017)"
       style="fill:#f2f2f2">
      <path
         fill-rule="evenodd"
         clip-rule="evenodd"
         d="m 427.67127,524.48888 c 0,0.50973 -0.41327,0.923 -0.923,0.923 -0.50972,0 -0.92299,-0.41327 -0.92299,-0.923 0,-0.50972 0.41327,-0.92299 0.92299,-0.92299 0.50973,0 0.923,0.41327 0.923,0.92299 z m 0,8.30694 h -4.61497 c -0.50972,0 -0.92299,-0.41327 -0.92299,-0.92299 0,-0.50972 0.41327,-0.923 0.92299,-0.923 h 4.61497 c 1.01944,0 1.84598,-0.82654 1.84598,-1.84598 v -16.61388 c 0,-1.01944 -0.82654,-1.84598 -1.84598,-1.84598 h -22.15184 c -1.01944,0 -1.84598,0.82654 -1.84598,1.84598 v 7.84544 0.5088 1.79869 c 0,0.50972 0.41327,0.92299 0.92299,0.92299 h 1.79862 0.50886 16.15238 c 0.50972,0 0.923,0.41327 0.923,0.92299 0,0.50973 -0.41328,0.923 -0.923,0.923 h -18.92136 c -1.1159,0 -2.04633,-0.79274 -2.26041,-1.84599 h -0.0471 v -11.07592 c 0,-2.03889 1.65308,-3.69197 3.69197,-3.69197 h 22.15184 c 2.03889,0 3.69197,1.65308 3.69197,3.69197 v 16.61388 c 0,2.03889 -1.65308,3.69197 -3.69197,3.69197 z m -12.92191,-4.61497 c 0,-0.50972 0.41327,-0.92299 0.923,-0.92299 0.50972,0 0.92299,0.41327 0.92299,0.92299 0,0.50973 -0.41327,0.923 -0.92299,0.923 -0.50973,0 -0.923,-0.41327 -0.923,-0.923 z m -11.99891,-0.92299 c 0.50973,0 0.923,0.41327 0.923,0.92299 v 0.923 c 0,1.01944 0.82654,1.84598 1.84598,1.84598 h 12.92191 c 1.01944,0 1.84598,1.84599 1.84598,1.84599 v 0 0 0 0 0 0 0 0 0 0 0 0 0 0 0 0 0 0 c 0,0 0.003,0.005 0,0 v 0 0 h -2.49496 c 0,0 0.34791,0 0,0 h -1.19701 -11.07592 c -2.03889,0 -3.69197,-1.65308 -3.69197,-3.69197 v -0.923 c 0,-0.50972 0.41327,-0.92299 0.92299,-0.92299 z"
         id="path2"
         sodipodi:nodetypes="sssssssssssssssccssccssssccsssssssssssssssssccccccccccccccccccccccscssss"
         style="fill:#f2f2f2;fill-opacity:1;stroke-width:0.0576871" />
    </g>
  </g>
</svg>
