<?xml version="1.0" encoding="UTF-8" standalone="no"?>
<svg
   width="64"
   version="1.1"
   height="64"
   id="svg17"
   sodipodi:docname="folder-podcast.svg"
   inkscape:version="1.1.1 (3bf5ae0d25, 2021-09-20)"
   xmlns:inkscape="http://www.inkscape.org/namespaces/inkscape"
   xmlns:sodipodi="http://sodipodi.sourceforge.net/DTD/sodipodi-0.dtd"
   xmlns:xlink="http://www.w3.org/1999/xlink"
   xmlns="http://www.w3.org/2000/svg"
   xmlns:svg="http://www.w3.org/2000/svg"
   xmlns:rdf="http://www.w3.org/1999/02/22-rdf-syntax-ns#"
   xmlns:cc="http://creativecommons.org/ns#"
   xmlns:dc="http://purl.org/dc/elements/1.1/">
  <sodipodi:namedview
     pagecolor="#ffffff"
     bordercolor="#666666"
     borderopacity="1"
     objecttolerance="10"
     gridtolerance="10"
     guidetolerance="10"
     inkscape:pageopacity="0"
     inkscape:pageshadow="2"
     inkscape:window-width="1920"
     inkscape:window-height="1006"
     id="namedview19"
     showgrid="true"
     inkscape:zoom="9.8125004"
     inkscape:cx="29.961782"
     inkscape:cy="32.20382"
     inkscape:window-x="0"
     inkscape:window-y="0"
     inkscape:window-maximized="1"
     inkscape:current-layer="layer1"
     inkscape:document-rotation="0"
     inkscape:pagecheckerboard="0">
    <inkscape:grid
       type="xygrid"
       id="grid908" />
  </sodipodi:namedview>
  <defs
     id="defs5455">
    <linearGradient
       inkscape:collect="always"
       id="linearGradient842">
      <stop
         style="stop-color:#326e9a;stop-opacity:1"
         offset="0"
         id="stop838" />
      <stop
         style="stop-color:#339993;stop-opacity:1"
         offset="1"
         id="stop840" />
    </linearGradient>
    <linearGradient
       inkscape:collect="always"
       xlink:href="#linearGradient860"
       id="linearGradient862"
       x1="113.94677"
       y1="255.36646"
       x2="406.08289"
       y2="255.36646"
       gradientUnits="userSpaceOnUse"
       gradientTransform="matrix(0.20270273,0,0,0.18440695,363.86886,467.51047)" />
    <linearGradient
       inkscape:collect="always"
       id="linearGradient860">
      <stop
         style="stop-color:#78acd3;stop-opacity:1"
         offset="0"
         id="stop856" />
      <stop
         style="stop-color:#d98cbb;stop-opacity:1"
         offset="1"
         id="stop858" />
    </linearGradient>
    <linearGradient
       inkscape:collect="always"
       xlink:href="#linearGradient842"
       id="linearGradient844"
       x1="386.30626"
       y1="522.45407"
       x2="446.83023"
       y2="522.45407"
       gradientUnits="userSpaceOnUse"
       gradientTransform="matrix(0.99134277,0,0,0.99944183,3.6095126,0.30129674)" />
    <linearGradient
       inkscape:collect="always"
       id="linearGradient836">
      <stop
         style="stop-color:#ffb380;stop-opacity:1"
         offset="0"
         id="stop832" />
      <stop
         style="stop-color:#20ffff;stop-opacity:1"
         offset="0.48615947"
         id="stop1390" />
      <stop
         style="stop-color:#ffaeff;stop-opacity:1"
         offset="1"
         id="stop834" />
    </linearGradient>
    <linearGradient
       inkscape:collect="always"
       xlink:href="#linearGradient836"
       id="linearGradient900"
       x1="407.18054"
       y1="519.77393"
       x2="416.80774"
       y2="519.77393"
       gradientUnits="userSpaceOnUse" />
  </defs>
  <metadata
     id="metadata5458">
    <rdf:RDF>
      <cc:Work
         rdf:about="">
        <dc:format>image/svg+xml</dc:format>
        <dc:type
           rdf:resource="http://purl.org/dc/dcmitype/StillImage" />
      </cc:Work>
    </rdf:RDF>
  </metadata>
  <g
     inkscape:label="Capa 1"
     inkscape:groupmode="layer"
     id="layer1"
     transform="translate(-384.57143,-483.798)">
    <path
       style="fill:url(#linearGradient862);fill-opacity:1;stroke-width:0.179138"
       d="m 416.57459,496.95765 c -0.88032,0 -1.92237,-0.51649 -2.31692,-1.14784 l -1.7701,-2.83719 c -0.39274,-0.63133 -1.43479,-1.14667 -2.3148,-1.14782 l -20.40112,-0.0268 c -1.946,-0.003 -2.7662,0.93496 -2.79385,3.00415 l -0.0117,0.87228 v 2.56642 36.57158 c 0,0.70576 2.32071,2.56642 3.20071,2.56642 h 52.81515 c 0.88002,0 3.20071,-1.86066 3.20071,-2.56642 v -35.28836 c 0,-1.92482 -0.80004,-2.56643 -3.20071,-2.56643 z"
       id="path4-3"
       sodipodi:nodetypes="sccsssccsssssss" />
    <path
       style="fill:#f2f2f2;fill-opacity:1;stroke-width:0.176565"
       d="m 442.3495,510.65747 c 0,1.32548 -0.79577,2.40995 -2.61715,2.40995 h -46.19558 c -1.82139,0 -2.51852,-1.08447 -2.51852,-2.40995 v -7.22985 c 0,-1.32548 0.69713,-2.40996 2.51852,-2.40996 h 46.09645 c 1.82137,0 2.71628,1.08448 2.71628,2.40996 z"
       id="path8-6"
       sodipodi:nodetypes="sssssssss" />
    <path
       style="fill:url(#linearGradient844);fill-opacity:1;stroke-width:0.19334"
       d="m 443.32803,505.12949 h -53.5132 c -1.62182,0 -3.2434,1.47526 -3.2434,2.95052 v 28.76748 c 0,1.95107 1.25422,2.95051 3.2434,2.95051 h 53.5132 c 1.9955,0 3.2434,-0.99944 3.2434,-2.95051 v -28.76748 c 0,-1.47526 -1.62159,-2.95052 -3.2434,-2.95052 z"
       id="path10"
       sodipodi:nodetypes="sssssssss" />
    <path
       d="m 443.57226,534.5477 c 0,1.24225 -1.00738,2.24939 -2.24988,2.24939 h -1.12498 c -1.24303,0 -2.25016,-1.00714 -2.25016,-2.24939 0,-0.27629 -0.0145,-0.54873 -0.036,-0.81932 -0.003,-0.0453 -0.006,-0.0909 -0.0101,-0.13565 -0.0242,-0.25653 -0.0588,-0.51083 -0.10169,-0.76191 -0.008,-0.0492 -0.0175,-0.097 -0.0263,-0.14557 -0.0475,-0.25294 -0.10214,-0.50314 -0.16807,-0.74978 -0.009,-0.036 -0.02,-0.0701 -0.0303,-0.10541 -0.0705,-0.25409 -0.14831,-0.50509 -0.23785,-0.75118 -10e-4,-0.003 -0.003,-0.008 -0.005,-0.0118 -0.0901,-0.24717 -0.19279,-0.48889 -0.30211,-0.72674 -0.0154,-0.0346 -0.0297,-0.0692 -0.0459,-0.10327 -0.10743,-0.22713 -0.22334,-0.4485 -0.34639,-0.666 -0.0214,-0.0385 -0.0434,-0.0764 -0.0654,-0.11484 -0.12634,-0.21614 -0.25981,-0.4282 -0.40124,-0.63388 -0.0195,-0.0282 -0.0398,-0.0566 -0.0591,-0.0843 -0.14723,-0.20956 -0.30047,-0.41447 -0.46249,-0.61193 -0.005,-0.006 -0.0101,-0.0118 -0.0143,-0.0175 -0.16287,-0.19665 -0.33397,-0.38533 -0.5103,-0.56933 -0.0291,-0.031 -0.0577,-0.0618 -0.0879,-0.0922 -0.17194,-0.17522 -0.35168,-0.34358 -0.53653,-0.50564 -0.0334,-0.0297 -0.0674,-0.0594 -0.1009,-0.0876 -0.18924,-0.1615 -0.38217,-0.31719 -0.58266,-0.46415 -0.0285,-0.0209 -0.058,-0.0404 -0.0865,-0.0613 -0.20871,-0.15021 -0.42115,-0.29469 -0.64196,-0.42899 -0.003,-0.002 -0.007,-0.005 -0.0112,-0.007 -0.21753,-0.13238 -0.44273,-0.25405 -0.67025,-0.37077 -0.0411,-0.0209 -0.0808,-0.0423 -0.12181,-0.0623 -0.21876,-0.10788 -0.44203,-0.20628 -0.66973,-0.29856 -0.0479,-0.0195 -0.0958,-0.0389 -0.14445,-0.0574 -0.23139,-0.0895 -0.46608,-0.17137 -0.70573,-0.2439 -0.0372,-0.0112 -0.0757,-0.0214 -0.11287,-0.0322 -0.89863,-0.2612 -1.84783,-0.40428 -2.83106,-0.40428 -0.62111,0 -1.12495,0.50316 -1.12495,1.12442 v 1.12526 c 0,0.621 0.50387,1.12497 1.12495,1.12497 0.61752,0 1.21338,0.0901 1.78162,0.24527 0.17412,0.048 0.34493,0.10215 0.51333,0.1634 0.0101,0.003 0.0189,0.008 0.0285,0.0113 0.83313,0.30599 1.58799,0.77123 2.22998,1.35848 0.0278,0.0258 0.0568,0.0499 0.0839,0.0764 0.10091,0.0953 0.19803,0.19416 0.29264,0.2958 0.0416,0.0448 0.0833,0.0895 0.1236,0.13565 0.0845,0.0945 0.16519,0.19033 0.24401,0.29003 0.0467,0.0594 0.0915,0.12111 0.13622,0.18237 0.0708,0.0964 0.14254,0.19174 0.20819,0.29115 0.0479,0.0734 0.0902,0.14885 0.13552,0.22331 0.0883,0.14639 0.17151,0.29523 0.24853,0.44851 0.0567,0.11227 0.11345,0.22441 0.16397,0.34056 0.0353,0.0799 0.0649,0.16259 0.0971,0.24471 0.0423,0.10901 0.0839,0.21807 0.12044,0.32986 0.0278,0.0833 0.0523,0.16698 0.0764,0.25104 0.0341,0.11921 0.0649,0.24007 0.0927,0.36117 0.0183,0.0797 0.0366,0.15901 0.0516,0.24032 0.026,0.13514 0.0449,0.27245 0.0624,0.40923 0.009,0.0728 0.0201,0.14393 0.0271,0.21698 0.0125,0.13267 0.0151,0.26753 0.0201,0.40185 0.008,0.077 0.0119,0.15461 0.0119,0.23346 0,1.24225 -1.0071,2.24939 -2.25016,2.24939 h -0.84385 -0.28124 c -1.24236,0 -2.24961,-1.00714 -2.24961,-2.24939 0,-0.62129 -0.50386,-1.12526 -1.12507,-1.12526 -0.62112,0 -1.12496,0.50397 -1.12496,1.12526 0,0.621 0.50388,1.12441 1.12496,1.12441 0.31103,0 0.5626,0.25213 0.5626,0.56251 0,0.31091 -0.25157,0.56247 -0.5626,0.56247 -1.24244,-6e-5 -2.24954,-1.00719 -2.24954,-2.24945 0,-1.24306 1.0071,-2.25023 2.2495,-2.25023 1.2425,0 2.2503,1.00714 2.2503,2.25023 0,0.62101 0.50314,1.12442 1.12438,1.12442 h 0.28124 0.84385 c 0.62111,0 1.12509,-0.50341 1.12509,-1.12442 0,-0.85225 -0.19486,-1.65696 -0.53422,-2.38097 -0.0289,-0.0618 -0.0574,-0.12413 -0.089,-0.18537 -0.0416,-0.0812 -0.0864,-0.1615 -0.1317,-0.24088 -0.0341,-0.0598 -0.0708,-0.11868 -0.10721,-0.17661 -0.046,-0.0736 -0.0927,-0.14804 -0.14184,-0.21944 -0.0757,-0.10901 -0.15588,-0.21504 -0.23838,-0.31857 -0.0493,-0.0604 -0.10091,-0.11836 -0.15202,-0.17714 -0.0605,-0.0692 -0.12233,-0.13868 -0.18606,-0.20489 -0.0523,-0.0535 -0.10462,-0.10608 -0.1589,-0.15766 -0.0687,-0.0661 -0.14062,-0.12937 -0.21259,-0.19226 -0.046,-0.0398 -0.0915,-0.0808 -0.13868,-0.11922 -0.11987,-0.0966 -0.24281,-0.1906 -0.37024,-0.27765 -0.0372,-0.0253 -0.0764,-0.0467 -0.11411,-0.0711 -0.099,-0.0637 -0.19996,-0.12687 -0.30335,-0.18484 -0.053,-0.0297 -0.10654,-0.0574 -0.16028,-0.0852 -0.0978,-0.0511 -0.19802,-0.0983 -0.29894,-0.14395 -0.0497,-0.0219 -0.0983,-0.0453 -0.14871,-0.0661 -0.14955,-0.061 -0.30155,-0.11784 -0.45729,-0.16699 -0.0189,-0.006 -0.0385,-0.0101 -0.0579,-0.0159 -0.14004,-0.0421 -0.28331,-0.0794 -0.42761,-0.11013 -0.0537,-0.0115 -0.10924,-0.0214 -0.164,-0.0316 -0.11728,-0.0223 -0.23648,-0.0398 -0.35635,-0.0543 -0.0518,-0.007 -0.10215,-0.0126 -0.15451,-0.0175 -0.17219,-0.0156 -0.34494,-0.0263 -0.52099,-0.0263 -1.24233,-4e-5 -2.24944,-1.00746 -2.24944,-2.25028 v -1.12526 c 0,-1.24253 1.00711,-2.24967 2.2495,-2.24967 0.18291,0 0.36392,0.006 0.5449,0.0139 0.0656,0.003 0.13126,0.009 0.19746,0.0132 0.12044,0.008 0.24088,0.0156 0.36005,0.0272 0.0625,0.007 0.1236,0.0137 0.18541,0.0214 0.11921,0.0137 0.23838,0.0278 0.35636,0.0453 0.0705,0.0101 0.14062,0.0223 0.21064,0.0341 0.10023,0.0165 0.19926,0.0341 0.29895,0.053 0.0801,0.016 0.1589,0.0322 0.23772,0.0492 0.10338,0.0223 0.20625,0.0461 0.30774,0.0714 0.0682,0.017 0.13567,0.0341 0.2038,0.0516 0.10023,0.0272 0.19995,0.056 0.2995,0.0852 0.072,0.0214 0.14502,0.0423 0.21698,0.0651 0.092,0.0288 0.18168,0.0604 0.27315,0.0926 0.0789,0.0272 0.1582,0.0535 0.23578,0.0832 0.0776,0.0291 0.15518,0.0612 0.23209,0.0915 0.0839,0.0335 0.16906,0.0657 0.25227,0.10158 0.072,0.0308 0.14132,0.0637 0.21258,0.0959 0.17851,0.0808 0.35442,0.16589 0.52841,0.25543 0.0542,0.0278 0.10912,0.0549 0.16272,0.0838 0.0915,0.0492 0.18099,0.10102 0.27052,0.15271 0.0582,0.0327 0.11742,0.0648 0.17482,0.0997 0.0927,0.0555 0.18401,0.11396 0.27548,0.17218 0.0498,0.0322 0.10034,0.0629 0.1501,0.0958 0.089,0.0585 0.17658,0.11921 0.26296,0.18016 0.0556,0.0393 0.11159,0.0789 0.16712,0.11921 0.0795,0.0583 0.15834,0.11728 0.23593,0.17658 0.0548,0.0417 0.10867,0.0846 0.16188,0.12744 0.0829,0.0667 0.16533,0.13375 0.24664,0.20241 0.0429,0.0366 0.0852,0.0734 0.12744,0.11047 0.0873,0.0764 0.17468,0.15271 0.25983,0.23209 0.0286,0.0258 0.0549,0.0524 0.0827,0.0789 0.79537,0.75365 1.48229,1.6221 2.03077,2.57953 0.007,0.0112 0.0135,0.0234 0.02,0.0351 0.0734,0.12881 0.14393,0.25927 0.21202,0.3911 0.009,0.017 0.017,0.0335 0.0258,0.0505 0.0686,0.13432 0.13513,0.26918 0.19831,0.40677 0.002,0.007 0.006,0.0137 0.009,0.0209 0.0661,0.14419 0.1299,0.28946 0.18977,0.43696 0,5.6e-4 0,10e-4 5.6e-4,0.002 0.30953,0.75998 0.53856,1.56143 0.67672,2.39416 0.0997,0.60205 0.15461,1.21944 0.15461,1.85036 0,0.621 0.50369,1.12441 1.12494,1.12441 h 1.12491 c 0.62125,0 1.12466,-0.50341 1.12466,-1.12441 0,-0.91075 -0.0871,-1.80065 -0.24664,-2.66521 -0.002,-0.0101 -0.003,-0.019 -0.006,-0.0291 -0.0395,-0.21125 -0.0838,-0.42132 -0.13239,-0.62924 -0.002,-0.008 -0.003,-0.0159 -0.005,-0.0233 -0.0472,-0.19995 -0.0983,-0.39879 -0.15323,-0.59544 -0.007,-0.0258 -0.0143,-0.0516 -0.0219,-0.0777 -0.056,-0.19609 -0.11534,-0.38889 -0.17908,-0.58199 -0.001,-0.003 -0.002,-0.009 -0.003,-0.0132 -0.4812,-1.44795 -1.1821,-2.79461 -2.06426,-4.00224 -0.002,-0.005 -0.005,-0.008 -0.008,-0.012 -0.11047,-0.15083 -0.22444,-0.2983 -0.34062,-0.44469 -0.0231,-0.0288 -0.0453,-0.0591 -0.0686,-0.0882 -0.10765,-0.13432 -0.21943,-0.26615 -0.33231,-0.3966 -0.0324,-0.0374 -0.0648,-0.0744 -0.0972,-0.11182 -0.1126,-0.12799 -0.22959,-0.25405 -0.34659,-0.37847 -0.0324,-0.0341 -0.0651,-0.0686 -0.0978,-0.10271 -0.11425,-0.11865 -0.23096,-0.2351 -0.3488,-0.34937 -0.0442,-0.0423 -0.0879,-0.0846 -0.1324,-0.12687 -0.11618,-0.10957 -0.23454,-0.21806 -0.35456,-0.32462 -0.0436,-0.039 -0.0882,-0.0769 -0.13264,-0.11537 -0.11892,-0.1035 -0.23947,-0.20572 -0.36251,-0.30458 -0.0566,-0.0456 -0.11344,-0.0895 -0.17086,-0.13457 -0.11534,-0.0901 -0.23124,-0.18157 -0.34988,-0.26862 -0.0588,-0.0429 -0.11865,-0.0842 -0.17852,-0.12743 -0.12303,-0.0876 -0.24608,-0.17577 -0.3713,-0.25983 -0.0275,-0.0181 -0.0543,-0.0351 -0.0816,-0.053 -0.31777,-0.20928 -0.64323,-0.40673 -0.97747,-0.59134 -0.0176,-0.0101 -0.0351,-0.0209 -0.053,-0.0305 -0.0997,-0.0541 -0.20171,-0.10518 -0.30263,-0.15762 -0.10406,-0.0541 -0.20749,-0.10845 -0.31281,-0.15957 -0.099,-0.0484 -0.20063,-0.0939 -0.30089,-0.13981 -0.10214,-0.0467 -0.20295,-0.0934 -0.30651,-0.13815 -0.10901,-0.0472 -0.21876,-0.0909 -0.32919,-0.13567 -0.10462,-0.0423 -0.20805,-0.0838 -0.31406,-0.1236 -0.10091,-0.0379 -0.20309,-0.0739 -0.30458,-0.10901 -0.11921,-0.0417 -0.23909,-0.0827 -0.35953,-0.12167 -0.0964,-0.031 -0.19416,-0.0612 -0.29196,-0.0903 -0.12111,-0.0366 -0.24277,-0.0705 -0.36515,-0.10327 -0.10529,-0.0286 -0.21064,-0.0564 -0.31667,-0.0821 -0.11784,-0.0288 -0.23649,-0.0555 -0.35569,-0.0818 -0.10844,-0.0242 -0.21627,-0.0476 -0.32599,-0.069 -0.12427,-0.024 -0.25033,-0.0467 -0.37583,-0.0673 -0.10215,-0.0179 -0.2038,-0.0354 -0.30718,-0.0505 -0.14884,-0.0214 -0.29952,-0.0389 -0.4496,-0.0568 -0.082,-0.009 -0.16216,-0.02 -0.24414,-0.0282 -0.16892,-0.0165 -0.33988,-0.0282 -0.51017,-0.0389 -0.0705,-0.005 -0.13991,-0.0115 -0.21121,-0.0145 -0.0555,-0.002 -0.11159,-0.002 -0.16778,-0.005 v -0.007 c -0.14186,-10e-4 -0.28318,-0.0555 -0.39167,-0.16395 -0.21943,-0.21946 -0.21943,-0.57594 0,-0.79541 0.11988,-0.11974 0.28002,-0.16778 0.43642,-0.1571 8.41858,0.31607 15.14851,7.23704 15.14851,15.73341 z m -17.43717,-14.62472 c -0.31035,0 -0.56192,-0.25213 -0.56192,-0.5625 0,-0.31092 0.25157,-0.56248 0.56192,-0.56248 0.3109,0 0.56261,0.25156 0.56261,0.56248 0,0.31037 -0.25171,0.5625 -0.56261,0.5625 z"
       id="path2-36-3"
       style="fill:#ff9955;fill-opacity:1;stroke-width:0.0351545" />
  </g>
</svg>
