<?xml version="1.0" encoding="UTF-8" standalone="no"?>
<svg
   id="svg2"
   height="64"
   version="1.1"
   width="64"
   sodipodi:docname="folder-decrypted.svg"
   inkscape:version="1.1.1 (3bf5ae0d25, 2021-09-20)"
   xmlns:inkscape="http://www.inkscape.org/namespaces/inkscape"
   xmlns:sodipodi="http://sodipodi.sourceforge.net/DTD/sodipodi-0.dtd"
   xmlns:xlink="http://www.w3.org/1999/xlink"
   xmlns="http://www.w3.org/2000/svg"
   xmlns:svg="http://www.w3.org/2000/svg"
   xmlns:rdf="http://www.w3.org/1999/02/22-rdf-syntax-ns#"
   xmlns:cc="http://creativecommons.org/ns#"
   xmlns:dc="http://purl.org/dc/elements/1.1/">
  <sodipodi:namedview
     pagecolor="#ffffff"
     bordercolor="#666666"
     borderopacity="1"
     objecttolerance="10"
     gridtolerance="10"
     guidetolerance="10"
     inkscape:pageopacity="0"
     inkscape:pageshadow="2"
     inkscape:window-width="1920"
     inkscape:window-height="1006"
     id="namedview40"
     showgrid="true"
     inkscape:zoom="8"
     inkscape:cx="38.25"
     inkscape:cy="47.875"
     inkscape:window-x="0"
     inkscape:window-y="0"
     inkscape:window-maximized="1"
     inkscape:current-layer="svg2"
     inkscape:document-rotation="0"
     inkscape:pagecheckerboard="0">
    <inkscape:grid
       type="xygrid"
       id="grid1240" />
  </sodipodi:namedview>
  <defs
     id="defs5455">
    <linearGradient
       id="linearGradient4172-5">
      <stop
         id="stop4174-6"
         style="stop-color:#3e3e3e" />
      <stop
         id="stop4176-6"
         style="stop-color:#494949"
         offset="1" />
    </linearGradient>
    <linearGradient
       gradientTransform="matrix(1,0,0,0.99967455,0,0.176455)"
       x2="0"
       gradientUnits="userSpaceOnUse"
       y2="499.78421"
       y1="541.79797"
       xlink:href="#linearGradient4172-5"
       id="linearGradient4178-3-3-1" />
    <linearGradient
       inkscape:collect="always"
       xlink:href="#linearGradient860-3"
       id="linearGradient862"
       x1="113.94677"
       y1="255.36646"
       x2="406.08289"
       y2="255.36646"
       gradientUnits="userSpaceOnUse"
       gradientTransform="matrix(0.20270273,0,0,0.18440695,-20.70257,-16.287523)" />
    <linearGradient
       inkscape:collect="always"
       id="linearGradient860-3">
      <stop
         style="stop-color:#78acd3;stop-opacity:1"
         offset="0"
         id="stop856-6" />
      <stop
         style="stop-color:#d98cbb;stop-opacity:1"
         offset="1"
         id="stop858-7" />
    </linearGradient>
    <linearGradient
       inkscape:collect="always"
       xlink:href="#linearGradient842-3"
       id="linearGradient844-5"
       x1="386.30627"
       y1="522.45404"
       x2="446.83023"
       y2="522.45404"
       gradientUnits="userSpaceOnUse"
       gradientTransform="matrix(0.99134277,0,0,0.99944183,-380.96192,-483.49669)" />
    <linearGradient
       inkscape:collect="always"
       id="linearGradient842-3">
      <stop
         style="stop-color:#326e9a;stop-opacity:1"
         offset="0"
         id="stop838-5" />
      <stop
         style="stop-color:#339993;stop-opacity:1"
         offset="1"
         id="stop840-6" />
    </linearGradient>
    <linearGradient
       inkscape:collect="always"
       id="linearGradient2166">
      <stop
         style="stop-color:#00cbcb;stop-opacity:1"
         offset="0"
         id="stop2162" />
      <stop
         style="stop-color:#80b3ff;stop-opacity:1"
         offset="1"
         id="stop2164" />
    </linearGradient>
    <linearGradient
       inkscape:collect="always"
       xlink:href="#linearGradient2166"
       id="linearGradient984"
       gradientUnits="userSpaceOnUse"
       x1="387.57144"
       y1="505.798"
       x2="445.57141"
       y2="505.798"
       gradientTransform="matrix(1.3929387,0,0,1,-153.8636,0)" />
    <linearGradient
       inkscape:collect="always"
       xlink:href="#linearGradient2166"
       id="linearGradient1047"
       gradientUnits="userSpaceOnUse"
       x1="387.57144"
       y1="505.798"
       x2="445.57141"
       y2="505.798"
       gradientTransform="translate(8)" />
  </defs>
  <metadata
     id="metadata5458">
    <rdf:RDF>
      <cc:Work
         rdf:about="">
        <dc:format>image/svg+xml</dc:format>
        <dc:type
           rdf:resource="http://purl.org/dc/dcmitype/StillImage" />
      </cc:Work>
    </rdf:RDF>
  </metadata>
  <path
     style="fill:url(#linearGradient862);fill-opacity:1;stroke-width:0.179138"
     d="m 32.00316,13.159657 c -0.88032,0 -1.92237,-0.51649 -2.31692,-1.14784 l -1.7701,-2.8371898 c -0.39274,-0.63133 -1.43479,-1.14667 -2.3148,-1.14782 l -20.40112,-0.0268 c -1.946,-0.003 -2.7662,0.93496 -2.79385,3.0041498 l -0.0117,0.87228 v 2.56642 36.57158 c 0,0.70576 2.32071,2.56642 3.20071,2.56642 h 52.81515 c 0.88002,0 3.20071,-1.86066 3.20071,-2.56642 v -35.28836 c 0,-1.92482 -0.80004,-2.56643 -3.20071,-2.56643 z"
     id="path4-3-2"
     sodipodi:nodetypes="sccsssccsssssss" />
  <path
     style="fill:#f2f2f2;fill-opacity:1;stroke-width:0.176565"
     d="m 57.77807,26.859477 c 0,1.32548 -0.79577,2.40995 -2.61715,2.40995 H 8.96534 c -1.82139,0 -2.51852,-1.08447 -2.51852,-2.40995 v -7.22985 c 0,-1.32548 0.69713,-2.40996 2.51852,-2.40996 h 46.09645 c 1.82137,0 2.71628,1.08448 2.71628,2.40996 z"
     id="path8-6-9"
     sodipodi:nodetypes="sssssssss" />
  <path
     style="fill:url(#linearGradient844-5);fill-opacity:1;stroke-width:0.19334"
     d="M 58.7566,21.331497 H 5.2434 C 3.62158,21.331497 2,22.806757 2,24.282017 v 28.76748 c 0,1.95107 1.25422,2.95051 3.2434,2.95051 h 53.5132 c 1.9955,0 3.2434,-0.99944 3.2434,-2.95051 v -28.76748 c 0,-1.47526 -1.62159,-2.95052 -3.2434,-2.95052 z"
     id="path10-1"
     sodipodi:nodetypes="sssssssss" />
  <path
     d="m 49.437815,49.624963 c 0.31008,0 0.5625,0.25158 0.5625,0.5625 0,0.310365 -0.25242,0.5625 -0.5625,0.5625 -0.31092,0 -0.562778,-0.252135 -0.562778,-0.5625 0,-0.31092 0.251896,-0.5625 0.562778,-0.5625 z m -0.562778,-3.93753 c 0,-0.310928 0.251858,-0.5625 0.562778,-0.5625 0.31008,0 0.5625,0.251572 0.5625,0.5625 V 47.9369 c 0,0.310928 -0.25242,0.563063 -0.5625,0.563063 -0.31092,0 -0.562778,-0.252135 -0.562778,-0.563063 z M 56.749963,53 H 43.249715 C 42.00716,53 41,51.992 41,50.749963 v -5.06253 c 0,-0.310928 0.251857,-0.5625 0.562785,-0.5625 0.310073,0 0.5625,0.251572 0.5625,0.5625 v 4.78128 c 0,0.776744 0.629505,1.405725 1.40625,1.405725 h 12.937178 c 0.776745,0 1.406849,-0.629018 1.406849,-1.405725 V 45.40562 c 0,-0.776183 -0.630104,-1.406115 -1.406849,-1.406115 h -10.124925 -0.281003 -5.7e-4 C 45.12977,43.999505 44.375,43.24421 44.375,42.312537 V 42.030725 40.624753 C 44.375,37.518065 46.893102,35 50.000315,35 c 3.106583,0 5.624648,2.518065 5.624648,5.624753 V 42.8375 c 0,0.31092 -0.251573,0.0375 -0.5625,0.0375 -0.310358,0 -0.5625,0.27342 -0.5625,-0.0375 v -2.212747 c 0,-2.485373 -2.014905,-4.500315 -4.499648,-4.500315 -2.485402,0 -4.50003,2.014912 -4.50003,4.500315 v 0.843472 0.21477 0.34773 c 0,0.466102 0.377648,0.844343 0.843503,0.844343 h 0.34773 0.21477 7.312425 0.28125 1.125 0.281812 0.843188 C 57.993088,42.875068 59,43.88198 59,45.124933 v 5.625029 C 59,51.992 57.993088,53 56.749963,53 Z M 42.687215,43.999505 c -0.310073,0 -0.56193,-0.251573 -0.56193,-0.5625 0,-0.310073 0.251857,-0.561937 0.56193,-0.561937 0.310927,0 0.5625,0.251864 0.5625,0.561937 0,0.310927 -0.251573,0.5625 -0.5625,0.5625 z"
     id="path2"
     style="fill:#f2f2f2;fill-opacity:1;stroke-width:0.0351562"
     sodipodi:nodetypes="ssssssssssssssssssssssssccsscsssssssssccssccccccsssssssss" />
  <rect
     y="30.82762"
     x="6.585638"
     height="3.9138012"
     width="3.9108183"
     id="rect4179-2-9-6-5-8-0-0"
     style="opacity:1;fill:#f2f2f2;fill-opacity:1;stroke:none;stroke-width:1.95615;stroke-miterlimit:4;stroke-dasharray:none;stroke-opacity:1" />
  <rect
     y="30.82762"
     x="14.407274"
     height="3.9138012"
     width="3.9108183"
     id="rect4179-5-61-4-1-4-1-2-8"
     style="opacity:1;fill:#f2f2f2;fill-opacity:1;stroke:none;stroke-width:1.95615;stroke-miterlimit:4;stroke-dasharray:none;stroke-opacity:1" />
  <rect
     y="30.82762"
     x="22.22891"
     height="3.9138012"
     width="3.9108183"
     id="rect4179-5-6-8-7-5-7-0-8-6"
     style="opacity:1;fill:#f2f2f2;fill-opacity:1;stroke:none;stroke-width:1.95615;stroke-miterlimit:4;stroke-dasharray:none;stroke-opacity:1" />
  <rect
     y="30.82762"
     x="37.872185"
     height="3.9138012"
     width="3.9108183"
     id="rect4179-5-6-2-9-9-4-4-4-0-8-4"
     style="opacity:1;fill:#f2f2f2;fill-opacity:1;stroke:none;stroke-width:1.95615;stroke-miterlimit:4;stroke-dasharray:none;stroke-opacity:1" />
  <rect
     y="30.82762"
     x="45.693821"
     height="3.9138012"
     width="3.9108183"
     id="rect4179-5-6-2-9-1-20-5-7-3-4-0-7"
     style="opacity:1;fill:#f2f2f2;fill-opacity:1;stroke:none;stroke-width:1.95615;stroke-miterlimit:4;stroke-dasharray:none;stroke-opacity:1" />
  <rect
     y="30.82762"
     x="53.515457"
     height="3.9138012"
     width="3.9108183"
     id="rect4179-5-6-2-9-1-2-2-0-6-0-4-4-9"
     style="opacity:1;fill:#f2f2f2;fill-opacity:1;stroke:none;stroke-width:1.95615;stroke-miterlimit:4;stroke-dasharray:none;stroke-opacity:1" />
  <rect
     y="26.913818"
     x="2.5000036"
     height="3.9138012"
     width="4.0856476"
     id="rect4179-7-3-5-7-4-0-3"
     style="opacity:1;fill:#f2f2f2;fill-opacity:1;stroke:none;stroke-width:2.3087;stroke-miterlimit:4;stroke-dasharray:none;stroke-opacity:1" />
  <rect
     y="26.913818"
     x="10.496456"
     height="3.9138012"
     width="3.9108183"
     id="rect4179-5-5-6-6-8-4-9-9"
     style="opacity:1;fill:#f2f2f2;fill-opacity:1;stroke:none;stroke-width:1.95615;stroke-miterlimit:4;stroke-dasharray:none;stroke-opacity:1" />
  <rect
     y="26.913818"
     x="18.318092"
     height="3.9138012"
     width="3.9108183"
     id="rect4179-5-6-9-1-9-6-7-1-2"
     style="opacity:1;fill:#f2f2f2;fill-opacity:1;stroke:none;stroke-width:1.95615;stroke-miterlimit:4;stroke-dasharray:none;stroke-opacity:1" />
  <rect
     y="26.913818"
     x="26.139729"
     height="3.9138012"
     width="3.9108183"
     id="rect4179-5-6-2-2-0-3-8-6-9-8"
     style="opacity:1;fill:#f2f2f2;fill-opacity:1;stroke:none;stroke-width:1.95615;stroke-miterlimit:4;stroke-dasharray:none;stroke-opacity:1" />
  <rect
     y="26.913818"
     x="33.961365"
     height="3.9138012"
     width="3.9108183"
     id="rect4179-5-6-2-9-2-6-7-8-3-6-3"
     style="opacity:1;fill:#f2f2f2;fill-opacity:1;stroke:none;stroke-width:1.95615;stroke-miterlimit:4;stroke-dasharray:none;stroke-opacity:1" />
  <rect
     y="26.913818"
     x="41.783001"
     height="3.9138012"
     width="3.9108183"
     id="rect4179-5-6-2-9-1-8-3-4-4-1-2-0"
     style="opacity:1;fill:#f2f2f2;fill-opacity:1;stroke:none;stroke-width:1.95615;stroke-miterlimit:4;stroke-dasharray:none;stroke-opacity:1" />
  <rect
     y="26.913818"
     x="49.604641"
     height="3.9138012"
     width="3.9108183"
     id="rect4179-5-6-2-9-1-2-9-2-5-3-7-5-1"
     style="opacity:1;fill:#f2f2f2;fill-opacity:1;stroke:none;stroke-width:1.95615;stroke-miterlimit:4;stroke-dasharray:none;stroke-opacity:1" />
  <rect
     y="26.913818"
     x="57.426277"
     height="3.9138012"
     width="4.0737281"
     id="rect4179-5-6-2-9-1-2-7-7-0-2-1-5-4-7"
     style="opacity:1;fill:#f2f2f2;fill-opacity:1;stroke:none;stroke-width:2.30535;stroke-miterlimit:4;stroke-dasharray:none;stroke-opacity:1" />
  <path
     style="opacity:1;fill:#f2f2f2;fill-opacity:1;stroke:none;stroke-width:1.95615;stroke-miterlimit:4;stroke-dasharray:none;stroke-opacity:1"
     d="m 30.050546,26.913815 3.910818,-3.913674 v -1.27e-4 3.913801 z"
     id="rect4179-5-6-8-7-5-7-2-2-9-1" />
  <rect
     y="23.000017"
     x="37.872185"
     height="3.9138012"
     width="3.9108183"
     id="rect4179-5-6-2-9-9-4-4-4-6-7-6-4"
     style="opacity:1;fill:#f2f2f2;fill-opacity:1;stroke:none;stroke-width:1.95615;stroke-miterlimit:4;stroke-dasharray:none;stroke-opacity:1" />
  <rect
     y="23.000017"
     x="45.693821"
     height="3.9138012"
     width="3.9108183"
     id="rect4179-5-6-2-9-1-20-5-7-3-8-8-0-9"
     style="opacity:1;fill:#f2f2f2;fill-opacity:1;stroke:none;stroke-width:1.95615;stroke-miterlimit:4;stroke-dasharray:none;stroke-opacity:1" />
  <rect
     y="23.000017"
     x="53.515457"
     height="3.9138012"
     width="3.9108183"
     id="rect4179-5-6-2-9-1-2-2-0-6-0-9-5-5-2"
     style="opacity:1;fill:#f2f2f2;fill-opacity:1;stroke:none;stroke-width:1.95615;stroke-miterlimit:4;stroke-dasharray:none;stroke-opacity:1" />
  <rect
     y="31"
     x="30"
     height="3.9138012"
     width="3.9108183"
     id="rect4179-5-6-2-9-9-4-4-4-0-8-4-9"
     style="opacity:1;fill:#f2f2f2;fill-opacity:1;stroke:none;stroke-width:1.95615;stroke-miterlimit:4;stroke-dasharray:none;stroke-opacity:1" />
</svg>
