<?xml version="1.0" encoding="UTF-8" standalone="no"?>
<svg
   width="64"
   version="1.1"
   height="64"
   id="svg17"
   sodipodi:docname="folder-flatpak.svg"
   inkscape:version="1.1.1 (3bf5ae0d25, 2021-09-20)"
   xmlns:inkscape="http://www.inkscape.org/namespaces/inkscape"
   xmlns:sodipodi="http://sodipodi.sourceforge.net/DTD/sodipodi-0.dtd"
   xmlns:xlink="http://www.w3.org/1999/xlink"
   xmlns="http://www.w3.org/2000/svg"
   xmlns:svg="http://www.w3.org/2000/svg"
   xmlns:rdf="http://www.w3.org/1999/02/22-rdf-syntax-ns#"
   xmlns:cc="http://creativecommons.org/ns#"
   xmlns:dc="http://purl.org/dc/elements/1.1/">
  <sodipodi:namedview
     pagecolor="#ffffff"
     bordercolor="#666666"
     borderopacity="1"
     objecttolerance="10"
     gridtolerance="10"
     guidetolerance="10"
     inkscape:pageopacity="0"
     inkscape:pageshadow="2"
     inkscape:window-width="1920"
     inkscape:window-height="1011"
     id="namedview19"
     showgrid="true"
     inkscape:zoom="9.8125004"
     inkscape:cx="36.280253"
     inkscape:cy="31.5414"
     inkscape:window-x="0"
     inkscape:window-y="0"
     inkscape:window-maximized="1"
     inkscape:current-layer="layer1"
     inkscape:document-rotation="0"
     inkscape:pagecheckerboard="0">
    <inkscape:grid
       type="xygrid"
       id="grid908" />
  </sodipodi:namedview>
  <defs
     id="defs5455">
    <linearGradient
       inkscape:collect="always"
       id="linearGradient842">
      <stop
         style="stop-color:#326e9a;stop-opacity:1"
         offset="0"
         id="stop838" />
      <stop
         style="stop-color:#339993;stop-opacity:1"
         offset="1"
         id="stop840" />
    </linearGradient>
    <linearGradient
       inkscape:collect="always"
       xlink:href="#linearGradient860"
       id="linearGradient862"
       x1="113.94677"
       y1="255.36646"
       x2="406.08289"
       y2="255.36646"
       gradientUnits="userSpaceOnUse"
       gradientTransform="matrix(0.20270275,0,0,0.18440554,363.86888,467.51067)" />
    <linearGradient
       inkscape:collect="always"
       id="linearGradient860">
      <stop
         style="stop-color:#78acd3;stop-opacity:1"
         offset="0"
         id="stop856" />
      <stop
         style="stop-color:#d98cbb;stop-opacity:1"
         offset="1"
         id="stop858" />
    </linearGradient>
    <linearGradient
       inkscape:collect="always"
       xlink:href="#linearGradient842"
       id="linearGradient844"
       x1="386.30626"
       y1="522.45407"
       x2="446.83023"
       y2="522.45407"
       gradientUnits="userSpaceOnUse"
       gradientTransform="matrix(0.99134248,0,0,0.99943367,3.6094681,0.30511167)" />
  </defs>
  <metadata
     id="metadata5458">
    <rdf:RDF>
      <cc:Work
         rdf:about="">
        <dc:format>image/svg+xml</dc:format>
        <dc:type
           rdf:resource="http://purl.org/dc/dcmitype/StillImage" />
      </cc:Work>
    </rdf:RDF>
  </metadata>
  <g
     inkscape:label="Capa 1"
     inkscape:groupmode="layer"
     id="layer1"
     transform="translate(-384.57143,-483.798)">
    <path
       style="fill:url(#linearGradient862);fill-opacity:1;stroke-width:0.179141"
       d="m 416.57456,496.95761 c -0.88029,0 -1.92233,-0.5165 -2.31686,-1.1478 l -1.77012,-2.83718 c -0.39274,-0.63137 -1.43478,-1.14669 -2.31483,-1.1478 l -20.40108,-0.0272 c -1.94603,-0.003 -2.7662,0.93494 -2.79389,3.00412 l -0.0117,0.87227 v 2.56642 36.57128 c 0,0.70575 2.32068,2.56641 3.20073,2.56641 h 52.81514 c 0.88001,0 3.20073,-1.86066 3.20073,-2.56641 v -35.28804 c 0,-1.92481 -0.80005,-2.56642 -3.20073,-2.56642 z"
       id="path4-3"
       sodipodi:nodetypes="sccsssccsssssss" />
    <path
       style="fill:#f2f2f2;fill-opacity:1;stroke-width:0.176565"
       d="m 442.34952,510.65732 c 0,1.32548 -0.79579,2.40996 -2.61716,2.40996 h -46.19561 c -1.82136,0 -2.51848,-1.08448 -2.51848,-2.40996 v -7.2298 c 0,-1.32544 0.69712,-2.40993 2.51848,-2.40993 h 46.09647 c 1.8214,0 2.7163,1.08449 2.7163,2.40993 z"
       id="path8-6"
       sodipodi:nodetypes="sssssssss" />
    <path
       style="fill:url(#linearGradient844);fill-opacity:1;stroke-width:0.193338"
       d="m 443.32804,505.12937 h -53.51323 c -1.6218,0 -3.24338,1.47528 -3.24338,2.95051 v 28.76729 c 0,1.95102 1.25421,2.95046 3.24338,2.95046 h 53.51323 c 1.99548,0 3.24339,-0.99944 3.24339,-2.95046 v -28.76729 c 0,-1.47523 -1.62159,-2.95051 -3.24339,-2.95051 z"
       id="path10"
       sodipodi:nodetypes="sssssssss" />
    <path
       style="color:#232629;fill:#f2f2f2;fill-opacity:1;stroke:none;stroke-width:0.899315"
       d="m 435.33127,518.798 -0.23302,0.18073 -7.82682,3.52095 v 10.83392 l 8.05984,3.61132 8.05953,-3.61132 v -10.83392 z m 0,1.05629 v 4.78505 l -0.44783,0.29788 -6.71634,-1.93214 z m 7.16415,3.61131 v 9.32616 l -7.16415,3.06977 v -10.11167 z"
       class="ColorScheme-Text"
       id="path12" />
  </g>
</svg>
