<?xml version="1.0" encoding="UTF-8" standalone="no"?>
<svg
   width="64"
   version="1.1"
   height="64"
   id="svg17"
   sodipodi:docname="folder-java.svg"
   inkscape:version="1.2 (dc2aedaf03, 2022-05-15)"
   xmlns:inkscape="http://www.inkscape.org/namespaces/inkscape"
   xmlns:sodipodi="http://sodipodi.sourceforge.net/DTD/sodipodi-0.dtd"
   xmlns:xlink="http://www.w3.org/1999/xlink"
   xmlns="http://www.w3.org/2000/svg"
   xmlns:svg="http://www.w3.org/2000/svg"
   xmlns:rdf="http://www.w3.org/1999/02/22-rdf-syntax-ns#"
   xmlns:cc="http://creativecommons.org/ns#"
   xmlns:dc="http://purl.org/dc/elements/1.1/">
  <sodipodi:namedview
     pagecolor="#ffffff"
     bordercolor="#666666"
     borderopacity="1"
     objecttolerance="10"
     gridtolerance="10"
     guidetolerance="10"
     inkscape:pageopacity="0"
     inkscape:pageshadow="2"
     inkscape:window-width="1920"
     inkscape:window-height="1002"
     id="namedview19"
     showgrid="true"
     inkscape:zoom="9.8125004"
     inkscape:cx="30.012738"
     inkscape:cy="32.254776"
     inkscape:window-x="0"
     inkscape:window-y="0"
     inkscape:window-maximized="1"
     inkscape:current-layer="layer1"
     inkscape:document-rotation="0"
     inkscape:pagecheckerboard="0"
     inkscape:showpageshadow="2"
     inkscape:deskcolor="#d1d1d1">
    <inkscape:grid
       type="xygrid"
       id="grid908" />
  </sodipodi:namedview>
  <defs
     id="defs5455">
    <linearGradient
       inkscape:collect="always"
       xlink:href="#linearGradient860"
       id="linearGradient862"
       x1="113.94677"
       y1="255.36646"
       x2="406.08289"
       y2="255.36646"
       gradientUnits="userSpaceOnUse"
       gradientTransform="matrix(0.20270273,0,0,0.18440695,363.86886,467.51047)" />
    <linearGradient
       inkscape:collect="always"
       id="linearGradient860">
      <stop
         style="stop-color:#78acd3;stop-opacity:1"
         offset="0"
         id="stop856" />
      <stop
         style="stop-color:#ffab5f;stop-opacity:1;"
         offset="1"
         id="stop858" />
    </linearGradient>
    <linearGradient
       inkscape:collect="always"
       id="linearGradient836">
      <stop
         style="stop-color:#ffb380;stop-opacity:1"
         offset="0"
         id="stop832" />
      <stop
         style="stop-color:#20ffff;stop-opacity:1"
         offset="0.48615947"
         id="stop1390" />
      <stop
         style="stop-color:#ffaeff;stop-opacity:1"
         offset="1"
         id="stop834" />
    </linearGradient>
    <linearGradient
       inkscape:collect="always"
       xlink:href="#linearGradient836"
       id="linearGradient900"
       x1="407.18054"
       y1="519.77393"
       x2="416.80774"
       y2="519.77393"
       gradientUnits="userSpaceOnUse" />
  </defs>
  <metadata
     id="metadata5458">
    <rdf:RDF>
      <cc:Work
         rdf:about="">
        <dc:format>image/svg+xml</dc:format>
        <dc:type
           rdf:resource="http://purl.org/dc/dcmitype/StillImage" />
      </cc:Work>
    </rdf:RDF>
  </metadata>
  <g
     inkscape:label="Capa 1"
     inkscape:groupmode="layer"
     id="layer1"
     transform="translate(-384.57143,-483.798)">
    <path
       style="fill:url(#linearGradient862);fill-opacity:1;stroke-width:0.179138"
       d="m 416.57459,496.95765 c -0.88032,0 -1.92237,-0.51649 -2.31692,-1.14784 l -1.7701,-2.83719 c -0.39274,-0.63133 -1.43479,-1.14667 -2.3148,-1.14782 l -20.40112,-0.0268 c -1.946,-0.003 -2.7662,0.93496 -2.79385,3.00415 l -0.0117,0.87228 v 2.56642 36.57158 c 0,0.70576 2.32071,2.56642 3.20071,2.56642 h 52.81515 c 0.88002,0 3.20071,-1.86066 3.20071,-2.56642 v -35.28836 c 0,-1.92482 -0.80004,-2.56643 -3.20071,-2.56643 z"
       id="path4-3"
       sodipodi:nodetypes="sccsssccsssssss" />
    <path
       style="fill:#f2f2f2;fill-opacity:1;stroke-width:0.176565"
       d="m 442.3495,510.65747 c 0,1.32548 -0.79577,2.40995 -2.61715,2.40995 h -46.19558 c -1.82139,0 -2.51852,-1.08447 -2.51852,-2.40995 v -7.22985 c 0,-1.32548 0.69713,-2.40996 2.51852,-2.40996 h 46.09645 c 1.82137,0 2.71628,1.08448 2.71628,2.40996 z"
       id="path8-6"
       sodipodi:nodetypes="sssssssss" />
    <path
       style="fill:#ff8b23;fill-opacity:1;stroke-width:0.19334"
       d="m 443.32803,505.12949 h -53.5132 c -1.62182,0 -3.2434,1.47526 -3.2434,2.95052 v 28.76748 c 0,1.95107 1.25422,2.95051 3.2434,2.95051 h 53.5132 c 1.9955,0 3.2434,-0.99944 3.2434,-2.95051 v -28.76748 c 0,-1.47526 -1.62159,-2.95052 -3.2434,-2.95052 z"
       id="path10"
       sodipodi:nodetypes="sssssssss" />
    <path
       d="m 440.99695,536.798 h -17.85123 c -0.24591,0 -0.44629,-0.34915 -0.44629,-0.59507 0,-0.24583 0.20038,-0.59498 0.44629,-0.59498 h 17.85123 c 0.24592,0 0.44624,0.34915 0.44624,0.59498 0,0.24592 -0.20032,0.59507 -0.44624,0.59507 z"
       id="path2-3"
       style="color:#eff0f1;fill:currentColor;fill-opacity:1;stroke-width:0.0446281"
       sodipodi:nodetypes="sssssss"
       class="ColorScheme-Text" />
    <path
       d="m 438.32058,533.52531 h -0.002 c -0.23563,0 -0.43105,-0.18438 -0.44498,-0.41995 -0.0151,-0.24552 0.17314,-0.45702 0.41914,-0.47179 h 4e-4 c 0.002,-4.5e-4 0.007,-8.6e-4 0.0151,-10e-4 0.021,-0.002 0.0434,-0.004 0.0681,-0.007 0.0572,-0.006 0.15171,-0.0203 0.27357,-0.0441 0.21826,-0.0431 0.56102,-0.12906 0.9555,-0.29009 1.01399,-0.41507 1.84002,-1.09249 2.45408,-2.01315 0.68373,-1.0162 0.72616,-1.51427 0.72299,-1.64278 -0.001,-0.1179 -0.0244,-0.17405 -0.0478,-0.21381 -0.0288,-0.0466 -0.067,-0.081 -0.12851,-0.116 -0.13256,-0.0776 -0.38786,-0.12585 -0.6672,-0.12585 -0.006,0 -0.0136,0 -0.0199,0 h -0.009 c -0.54893,0 -1.18712,0.15749 -1.28972,0.18827 -0.004,10e-4 -0.004,10e-4 -0.004,10e-4 -0.0398,0.0117 -0.0814,0.0175 -0.12275,0.0175 -0.19815,0 -0.37442,-0.133 -0.42888,-0.32359 -0.0334,-0.1147 -0.019,-0.2352 0.0385,-0.33962 0.0576,-0.10424 0.15308,-0.1794 0.26774,-0.21244 10e-4,0 0.007,-0.002 0.0167,-0.004 0.24228,-0.0657 0.87649,-0.21779 1.53293,-0.22003 0.33429,9e-4 0.60345,0.0385 0.8475,0.11918 0.22768,0.0747 0.53958,0.23206 0.73372,0.55606 0.11515,0.19055 0.17576,0.42351 0.17492,0.67302 -0.006,0.57524 -0.27583,1.23434 -0.87296,2.13763 -0.39229,0.58907 -0.86975,1.10055 -1.41872,1.5205 -0.44046,0.33693 -0.9251,0.61408 -1.44057,0.82428 -0.8332,0.33959 -1.47454,0.39894 -1.59454,0.40743 h -0.002 c -0.008,3.9e-4 -0.0175,9.2e-4 -0.0252,9.2e-4 z"
       id="path6-6"
       style="color:#eff0f1;fill:currentColor;fill-opacity:1;stroke-width:0.0446281"
       class="ColorScheme-Text" />
    <path
       d="m 440.55066,526.3848 h -9.37184 c -0.24598,0 -0.44629,-0.20037 -0.44629,-0.44629 0,-0.24592 0.20031,-0.4463 0.44629,-0.4463 h 8.55371 v -1.33888 h -15.32238 v 1.33888 h 2.30579 c 0.24592,0 0.44629,0.20038 0.44629,0.4463 0,0.24592 -0.20037,0.44629 -0.44629,0.44629 h -3.12392 c -0.11739,0 -0.23254,-0.0478 -0.31552,-0.13083 -0.0832,-0.0832 -0.13078,-0.19813 -0.13078,-0.31546 v -2.23141 c 0,-0.1174 0.0478,-0.60425 0.13078,-0.68731 0.0832,-0.0832 0.19813,-0.13089 0.31552,-0.13089 h 16.95864 c 0.11741,0 0.23256,0.048 0.3155,0.13089 0.0832,0.0832 0.13079,0.56991 0.13079,0.68731 v 2.23141 c 0,0.11733 -0.0478,0.23247 -0.13079,0.31546 -0.0831,0.0832 -0.19809,0.13083 -0.3155,0.13083 z m -11.60331,0 c -0.24638,0 -0.44629,-0.20037 -0.44629,-0.44629 0,-0.24592 0.19991,-0.4463 0.44629,-0.4463 0.24592,0 0.44629,0.20038 0.44629,0.4463 0,0.24592 -0.20037,0.44629 -0.44629,0.44629 z"
       id="path10-7"
       style="color:#eff0f1;fill:currentColor;fill-opacity:1;stroke-width:0.0446281"
       sodipodi:nodetypes="ssssccccsssssssssscsscssssss"
       class="ColorScheme-Text" />
    <path
       d="m 431.17882,524.15333 c -0.24598,0 -0.44629,-0.20031 -0.44629,-0.44623 v -0.89259 c 0,-0.35741 0.13916,-0.69392 0.39229,-0.94651 0.25253,-0.25267 0.58864,-0.3923 0.94653,-0.3923 h 5.35539 c 0.24538,-4.7e-4 0.44584,-0.20085 0.44629,-0.44629 -4.5e-4,-0.24546 -0.20091,-0.44584 -0.44629,-0.44623 h -8.47939 c -0.35749,0 -0.69392,-0.13931 -0.94659,-0.3923 -0.25299,-0.25267 -0.39223,-0.58864 -0.39223,-0.94659 0,-0.24591 0.20039,-0.44629 0.44623,-0.44629 0.24598,0 0.4463,0.20038 0.4463,0.44629 4.5e-4,0.24545 0.20085,0.44584 0.44629,0.4463 h 8.47939 c 0.35789,0 0.69392,0.13917 0.94653,0.39229 0.25304,0.25253 0.39229,0.58904 0.39229,0.94653 0,0.35795 -0.13925,0.69392 -0.39229,0.94659 -0.25261,0.25298 -0.58864,0.39221 -0.94653,0.39221 h -5.35539 c -0.24552,4.8e-4 -0.44584,0.20086 -0.4463,0.4463 v 0.89259 c 0,0.24592 -0.20039,0.44623 -0.44623,0.44623 z"
       id="path14-5"
       style="color:#eff0f1;fill:currentColor;fill-opacity:1;stroke-width:0.0446281"
       class="ColorScheme-Text" />
    <path
       d="m 433.44503,536.64923 h -2.71211 c -0.0326,0 -0.0576,-0.002 -0.0897,-0.008 -1.01349,-0.20794 -1.98634,-0.6288 -2.89138,-1.25044 -0.8779,-0.60343 -1.57529,-1.24466 -2.24871,-2.16568 -0.19883,-0.29397 -0.0496,-0.64644 0.16039,-0.81531 0.0763,-0.056 0.23845,-0.12919 0.40691,-0.17558 0.17,-0.047 0.42551,0.0687 0.50949,0.183 1.23261,1.68561 2.43576,2.59582 4.19904,2.96849 h 2.62005 c 1.76191,-0.37305 3.03607,-1.13879 4.26203,-2.8306 1.2469,-1.71996 1.97915,-3.91122 2.06259,-6.1694 h -15.31344 c 0.0296,0.78007 0.14434,1.55618 0.32506,2.30678 0.007,0.035 0.0126,0.0707 0.0126,0.10629 -0.0695,0.23708 -0.28562,0.36522 -0.4864,0.41343 -0.0346,0.007 -0.1482,0.0313 -0.18303,0.0313 -0.20708,0 -0.53419,-0.1406 -0.58283,-0.34184 -0.20077,-0.83499 -0.31592,-1.69772 -0.34315,-2.56393 -0.004,-0.15128 -0.006,-0.27799 -0.006,-0.39805 0,-0.11737 0.0479,-0.23252 0.13078,-0.31551 0.0832,-0.0832 0.19813,-0.13079 0.31546,-0.13079 h 16.95867 c 0.11744,0 0.23258,0.0478 0.31553,0.13078 0.0832,0.0832 0.13074,0.19815 0.13074,0.31552 0,0.12091 -0.002,0.24769 -0.006,0.39805 -0.0385,1.25229 -0.25751,2.47864 -0.65019,3.64388 -0.38068,1.12912 -0.91358,2.17115 -1.58432,3.09761 -0.67033,0.92515 -1.45449,1.70125 -2.3305,2.30684 -0.90373,0.62478 -1.8762,1.04699 -2.89055,1.25538 -0.0319,0.006 -0.0572,0.008 -0.0897,0.008 z m -8.79227,-5.29961 c -0.1749,0 -0.33418,-0.10272 -0.40653,-0.26146 v -4.5e-4 c -0.05,-0.10843 -0.0536,-0.22984 -0.0117,-0.34102 0.0419,-0.11158 0.1245,-0.20032 0.23339,-0.24993 0.0584,-0.026 0.12048,-0.0393 0.18434,-0.0393 0.17448,0 0.33426,0.10272 0.40653,0.26151 v 4.9e-4 c 0.10198,0.224 0.002,0.4886 -0.22178,0.59039 -0.058,0.0268 -0.12049,0.0398 -0.18435,0.0398 z"
       id="path22-3"
       style="color:#eff0f1;fill:currentColor;fill-opacity:1;stroke-width:0.0446281"
       sodipodi:nodetypes="ssccccscccccccccsccsssscscccccssccccscccs"
       class="ColorScheme-Text" />
    <path
       d="m 439.435,528.61621 h -9.81821 c -0.24592,0 -0.44629,-0.20045 -0.44629,-0.44629 0,-0.24592 0.20037,-0.4463 0.44629,-0.4463 h 9.81821 c 0.24584,0 0.44622,0.20038 0.44622,0.4463 0,0.24584 -0.20038,0.44629 -0.44622,0.44629 z"
       id="path26-5"
       style="color:#eff0f1;fill:currentColor;fill-opacity:1;stroke-width:0.0446281"
       class="ColorScheme-Text" />
  </g>
</svg>
