<?xml version="1.0" encoding="UTF-8" standalone="no"?>
<svg
   width="64"
   version="1.1"
   height="64"
   id="svg17"
   sodipodi:docname="folder_html.svg"
   inkscape:version="1.1.1 (3bf5ae0d25, 2021-09-20)"
   xmlns:inkscape="http://www.inkscape.org/namespaces/inkscape"
   xmlns:sodipodi="http://sodipodi.sourceforge.net/DTD/sodipodi-0.dtd"
   xmlns:xlink="http://www.w3.org/1999/xlink"
   xmlns="http://www.w3.org/2000/svg"
   xmlns:svg="http://www.w3.org/2000/svg"
   xmlns:rdf="http://www.w3.org/1999/02/22-rdf-syntax-ns#"
   xmlns:cc="http://creativecommons.org/ns#"
   xmlns:dc="http://purl.org/dc/elements/1.1/">
  <sodipodi:namedview
     pagecolor="#ffffff"
     bordercolor="#666666"
     borderopacity="1"
     objecttolerance="10"
     gridtolerance="10"
     guidetolerance="10"
     inkscape:pageopacity="0"
     inkscape:pageshadow="2"
     inkscape:window-width="1920"
     inkscape:window-height="1011"
     id="namedview19"
     showgrid="true"
     inkscape:zoom="9.8125"
     inkscape:cx="21.910828"
     inkscape:cy="52.433121"
     inkscape:window-x="0"
     inkscape:window-y="0"
     inkscape:window-maximized="1"
     inkscape:current-layer="layer1"
     inkscape:document-rotation="0"
     inkscape:pagecheckerboard="0">
    <inkscape:grid
       type="xygrid"
       id="grid925" />
  </sodipodi:namedview>
  <defs
     id="defs5455">
    <linearGradient
       inkscape:collect="always"
       xlink:href="#linearGradient860-3"
       id="linearGradient862"
       x1="113.94677"
       y1="255.36646"
       x2="406.08289"
       y2="255.36646"
       gradientUnits="userSpaceOnUse"
       gradientTransform="matrix(0.20270272,0,0,0.18440696,363.86887,467.51047)" />
    <linearGradient
       inkscape:collect="always"
       id="linearGradient860-3">
      <stop
         style="stop-color:#78acd3;stop-opacity:1"
         offset="0"
         id="stop856-6" />
      <stop
         style="stop-color:#d98cbb;stop-opacity:1"
         offset="1"
         id="stop858-7" />
    </linearGradient>
    <linearGradient
       inkscape:collect="always"
       xlink:href="#linearGradient842"
       id="linearGradient844-5"
       x1="386.30627"
       y1="522.45404"
       x2="446.83023"
       y2="522.45404"
       gradientUnits="userSpaceOnUse"
       gradientTransform="matrix(0.99134276,0,0,0.99944188,3.6095127,0.30122256)" />
    <linearGradient
       inkscape:collect="always"
       id="linearGradient842">
      <stop
         style="stop-color:#326e9a;stop-opacity:1"
         offset="0"
         id="stop838" />
      <stop
         style="stop-color:#339993;stop-opacity:1"
         offset="1"
         id="stop840" />
    </linearGradient>
  </defs>
  <metadata
     id="metadata5458">
    <rdf:RDF>
      <cc:Work
         rdf:about="">
        <dc:format>image/svg+xml</dc:format>
        <dc:type
           rdf:resource="http://purl.org/dc/dcmitype/StillImage" />
      </cc:Work>
    </rdf:RDF>
  </metadata>
  <g
     inkscape:label="Capa 1"
     inkscape:groupmode="layer"
     id="layer1"
     transform="translate(-384.57143,-483.798)">
    <path
       style="fill:url(#linearGradient862);fill-opacity:1;stroke-width:0.179138"
       d="m 416.57457,496.95765 c -0.88031,0 -1.92235,-0.51649 -2.31688,-1.14784 l -1.77011,-2.83719 c -0.39276,-0.63134 -1.43479,-1.14667 -2.31482,-1.14783 l -20.40109,-0.0268 c -1.94602,-0.003 -2.7662,0.93495 -2.79388,3.00415 l -0.0118,0.87228 v 2.56643 36.57157 c 0,0.70577 2.3207,2.56642 3.20073,2.56642 h 52.81513 c 0.88004,0 3.20074,-1.86065 3.20074,-2.56642 v -35.28837 c 0,-1.92481 -0.80006,-2.56642 -3.20074,-2.56642 z"
       id="path4-3-3"
       sodipodi:nodetypes="sccsssccsssssss" />
    <path
       style="fill:#f2f2f2;fill-opacity:1;stroke-width:0.176565"
       d="m 442.34951,510.65747 c 0,1.32548 -0.79579,2.40996 -2.61714,2.40996 h -46.19561 c -1.82137,0 -2.51851,-1.08448 -2.51851,-2.40996 v -7.22985 c 0,-1.32549 0.69714,-2.40996 2.51851,-2.40996 h 46.09645 c 1.8214,0 2.7163,1.08447 2.7163,2.40996 z"
       id="path8-6-5"
       sodipodi:nodetypes="sssssssss" />
    <path
       style="fill:url(#linearGradient844-5);fill-opacity:1;stroke-width:0.193339"
       d="m 443.32805,505.12949 h -53.51324 c -1.62179,0 -3.24338,1.47526 -3.24338,2.95052 v 28.76748 c 0,1.95107 1.25422,2.95051 3.24338,2.95051 h 53.51324 c 1.99548,0 3.24338,-0.99944 3.24338,-2.95051 v -28.76748 c 0,-1.47526 -1.6216,-2.95052 -3.24338,-2.95052 z"
       id="path10-6"
       sodipodi:nodetypes="sssssssss" />
    <path
       d="m 443.07184,524.47032 v 0 0 c 0,0 0,0 0,0 0,0 0,0 0,0 z m -7.15874,12.04378 c -4.86253,1.19312 -10.01772,-1.46326 -11.75112,-6.34831 -0.63033,-1.77843 -0.7654,-3.60188 -0.36019,-5.44784 0.0225,-0.045 0.045,-0.11256 0.0675,-0.15758 0,0.045 0,0.11256 0.0225,0.15758 0,0.0225 0.0225,0.0675 0.045,0.0901 0,-0.045 0.0225,-0.0675 0.0225,-0.11256 0,-0.13507 0,-0.27014 0.0225,-0.42772 0.13507,0.11256 0.045,0.27014 0.09,0.3827 0.0675,0.18009 0.0675,0.36019 0.0675,0.56279 -0.0225,0.29266 0.24763,0.49526 0.45023,0.51777 0.3827,0.045 0.60782,0.33768 0.9455,0.45024 0.15758,0.045 0.24762,0.2026 0.27014,0.27014 0.045,0.29265 0.27014,0.3827 0.45023,0.49526 0.045,0.0225 0.09,0.0675 0.13507,0 0.15758,-0.31517 0.1801,-0.09 0.24763,0.045 0.15758,0.33767 0.0225,0.60781 -0.15758,0.87796 -0.13507,0.18009 -0.29265,0.36018 -0.13507,0.60781 0.0225,0.0225 0,0.0901 -0.0225,0.11256 -0.11256,0.1801 -0.045,0.31516 0.0675,0.47275 0.15758,0.22511 0.29265,0.45023 0.40521,0.69786 0.15758,0.31516 0.29265,0.60782 0.65284,0.7654 0.22512,0.0901 0.36019,0.29265 0.3827,0.56279 0.0675,0.7654 0.1801,1.5308 0.29265,2.27369 0.0675,0.45023 0.42773,0.7654 0.58531,1.17061 0.0675,0.18009 0.18009,0.33767 0.31516,0.49526 0.24763,0.29265 0.60782,0.31516 0.92299,0.47274 0.0225,0 0.0675,0 0.09,0 -0.0225,-0.0225 -0.0675,-0.045 -0.09,-0.0675 -0.20261,-0.18009 -0.63033,-0.22511 -0.36019,-0.65284 0,-0.0225 -0.0225,-0.0675 -0.0225,-0.0675 -0.31517,-0.0675 -0.15759,-0.29265 -0.13507,-0.45023 0,-0.0901 0.0901,-0.15758 -0.045,-0.1801 -0.0225,0 -0.045,-0.045 -0.045,-0.0675 0.24763,0.0675 0.15758,-0.29265 0.36018,-0.29265 0.29266,0 0.40522,-0.11256 0.24763,-0.40521 -0.045,-0.0675 -0.11255,-0.15758 0.0675,-0.11256 0.1801,0.045 0.27015,-0.0225 0.31517,-0.18009 0.045,-0.15758 0.11256,-0.31517 0.24763,-0.45024 0.11256,-0.13507 0.18009,-0.29265 0.13507,-0.49525 -0.0675,-0.33768 0.27014,-0.40522 0.47274,-0.42773 0.42773,-0.045 0.45024,-0.33767 0.54029,-0.63033 0.0675,-0.22511 0.0675,-0.45023 0.045,-0.69786 -0.0225,-0.24763 0.18009,-0.40521 0.31516,-0.58531 0.18009,-0.22511 0.29265,-0.51777 0.11256,-0.72037 -0.18009,-0.20261 -0.40521,-0.42772 -0.72038,-0.45024 -0.45023,-0.0225 -0.78791,-0.31516 -1.17061,-0.47274 -0.13507,-0.045 -0.13507,-0.27014 -0.18009,-0.40521 -0.11256,-0.31517 -0.31517,-0.45024 -0.63033,-0.49526 -0.3827,-0.045 -0.54028,-0.33768 -0.69786,-0.60782 -0.11256,-0.2026 -0.27014,-0.11256 -0.36019,-0.0901 -0.22512,0.0675 -0.40521,0 -0.56279,-0.09 -0.3827,-0.2026 -0.69787,-0.13507 -0.96801,0.27014 -0.045,0.0675 -0.11256,0.1801 -0.22512,0.0675 -0.0675,-0.0675 -0.15758,-0.0675 -0.27014,-0.0225 -0.2026,0.0901 -0.3827,-0.0675 -0.36018,-0.29265 0,-0.0901 0.0225,-0.1801 0.045,-0.27014 0.0675,-0.3827 0.045,-0.42773 -0.33768,-0.3827 -0.15758,0.0225 -0.18009,-0.0225 -0.11256,-0.15758 0.0675,-0.13507 0.13507,-0.27014 0.15759,-0.42773 0.0225,-0.0901 0.15758,-0.2026 0,-0.27014 -0.11256,-0.045 -0.31517,0 -0.33768,0.15758 -0.045,0.27015 -0.20261,0.33768 -0.42772,0.29266 -0.24763,-0.0675 -0.22512,-0.31517 -0.1801,-0.49526 0.045,-0.36019 0.0675,-0.7654 0.45024,-0.99052 0.09,-0.0675 0.18009,-0.09 0.29265,-0.0675 0.11256,0.0225 0.20261,0.0225 0.31517,-0.09 0.15758,-0.15758 0.33767,-0.045 0.51777,0 0.13507,0.045 0.0675,0.1801 0.09,0.27014 0.0225,0.13507 0.0225,0.33768 0.15758,0.31517 0.15759,0 0.1801,-0.20261 0.13507,-0.36019 -0.09,-0.33768 0.0225,-0.63033 0.33768,-0.78791 0.33768,-0.1801 0.49526,-0.47275 0.69786,-0.7654 0.13508,-0.22512 0.3827,-0.33768 0.60782,-0.49526 0.22512,-0.13507 0.40521,-0.3827 0.69787,-0.49526 0.045,-0.0225 0.09,-0.0225 0.11255,-0.045 -0.0225,0.045 -0.0225,0.0675 -0.045,0.11256 -0.0225,0.045 -0.045,0.0675 0,0.09 0.0225,0 0.0675,0 0.0901,-0.0225 0.0675,-0.0901 0.1801,-0.11256 0.29266,-0.13507 0.0675,-0.0225 0.18009,-0.0675 0.2026,-0.11256 0,-0.09 -0.11256,-0.045 -0.15758,-0.09 -0.0901,-0.0675 -0.0901,-0.13507 -0.045,-0.20261 0.045,-0.11256 0.20261,-0.22512 -0.0675,-0.22512 0,0 -0.0225,-0.0225 -0.0225,-0.045 0.0225,0 0.045,-0.0225 0.0675,-0.0225 0.31516,-0.0675 0.65284,0.045 0.94549,-0.18009 0.0225,0 0.045,0.0225 0.0675,0.0225 -0.0225,0.0225 -0.0225,0.045 -0.045,0.0675 -0.0675,0.15758 -0.36019,0.22512 -0.27014,0.40521 0.045,0.0901 0.31517,-0.0675 0.49526,0.0675 0.0675,0.045 0.18009,0 0.13507,-0.0675 -0.0675,-0.11255 0.15758,-0.29265 -0.045,-0.29265 -0.20261,-0.0225 -0.13507,-0.09 -0.0901,-0.18009 0.13507,-0.22512 0.18009,-0.40521 -0.11256,-0.51777 -0.15758,-0.0675 -0.0675,-0.22512 -0.11256,-0.33767 -0.045,-0.1801 -0.0675,-0.31517 -0.29265,-0.13508 -0.0901,0.0675 -0.33768,0.29266 -0.27014,-0.11255 0.0225,-0.09 -0.13507,-0.1801 -0.20261,-0.1801 -0.18009,0 -0.40521,-0.11256 -0.49526,0.11256 -0.09,0.18009 -0.31516,0.29265 -0.31516,0.54028 0,0.0675 -0.11256,0.13507 -0.2026,0.1801 -0.1801,0.0675 -0.31517,0.15758 -0.33768,0.36018 -0.0225,0.11256 -0.11256,0.20261 -0.22512,0.15759 -0.13507,-0.0675 -0.0225,-0.1801 0.0225,-0.24763 0.0901,-0.11256 0.0901,-0.20261 -0.0901,-0.1801 -0.18009,0.0225 -0.29265,-0.15758 -0.49526,-0.18009 -0.0675,0 -0.0675,-0.18009 0.0225,-0.24763 0.29266,-0.29265 0.67536,-0.3827 1.01303,-0.60782 0.09,-0.0675 0.11256,0.20261 0.1801,0.0675 0.0675,-0.13507 0.49526,0.0901 0.29265,-0.29265 0.11256,-0.045 0.20261,-0.0675 0.31516,-0.11256 0.15759,-0.0675 0.20261,-0.27014 0.40522,-0.31517 0.18009,-0.0225 0.38269,-0.045 0.40521,0.11256 0.0225,0.15758 -0.20261,0.20261 -0.33768,0.27014 -0.0675,0.0225 -0.13507,0 -0.20261,0.0225 -0.045,0.0225 -0.11255,0.0675 -0.11255,0.09 0,0.0675 0.0901,0.045 0.13507,0.045 0.13507,-0.0225 0.24763,-0.0225 0.33767,0.11255 0.0675,0.0901 0.31517,0.13507 0.31517,0.0901 0.0225,-0.2026 0.54028,-0.045 0.27014,-0.40521 0,-0.0225 0,-0.0675 0,-0.0675 0.045,-0.045 0.0901,-0.0225 0.13507,0.0225 0.15758,0.18009 0.29265,0.0225 0.36019,-0.0675 0.09,-0.13507 -0.15758,-0.13507 -0.15758,-0.18009 0,-0.29266 -0.27014,-0.24763 -0.40521,-0.33768 -0.13507,-0.0901 -0.24763,-0.0901 -0.3827,-0.0675 0.045,0.0225 0.045,0.09 0,0.0675 -0.1801,-0.11256 -0.31517,-0.0225 -0.47275,0 -0.15758,0.045 -0.29265,0.045 -0.42772,-0.045 -0.0901,-0.0675 -0.1801,-0.045 -0.27014,0 -0.0225,0 -0.045,0.0225 -0.045,0.045 0,0 0.0225,0.0225 0.045,0.0225 0.0675,0 0.13507,-0.11256 0.2026,-0.0225 -0.0901,0.0675 -0.18009,0.11256 -0.29265,0.13507 v 0 c 0,0 0,0 0,0 -0.27014,-0.045 -0.36019,0.045 -0.33768,0.27014 0,0.045 -0.0225,0.0901 -0.045,0.13507 -0.11256,-0.09 -0.33767,0.0675 -0.33767,-0.0225 0,-0.13507 -0.0675,-0.33768 0.11256,-0.45023 2.16112,-1.28317 4.45732,-1.75592 6.93361,-1.3282 1.64336,0.29266 3.10662,0.9455 4.43481,1.95852 0.0675,0.045 0.11256,0.11256 0.15758,0.15759 -0.09,0.045 -0.13506,-0.045 -0.2026,-0.0675 -0.20261,-0.09 -0.3827,-0.24763 -0.60782,-0.29265 -0.29265,-0.045 -0.5853,-0.0901 -0.81042,0.15758 -0.15758,0.15758 -0.33768,0.27014 -0.56279,0.31517 -0.1801,0.045 -0.22512,0.13507 -0.13507,0.31516 0.0675,0.18009 0.15758,0.29265 0.33767,0.2026 0.15758,-0.09 0.22512,-0.0225 0.31517,0.09 0.11255,0.13507 0.0675,0.1801 -0.0225,0.27014 -0.0225,0.0225 0.0225,0.11256 -0.0675,0.09 -0.11256,0.0225 -0.0901,-0.0225 -0.0901,-0.09 0,-0.0675 0.0901,-0.18009 -0.045,-0.18009 -0.11256,0 -0.20261,0.11256 -0.15759,0.22512 0.0901,0.18009 -0.0225,0.22511 -0.15758,0.22511 -0.22511,0.0225 -0.31516,0.29266 -0.51777,0.31517 -0.11256,0.24763 -0.3827,0.11256 -0.56279,0.22512 -0.045,0.0225 -0.13507,0 -0.15758,0.0675 0,0.0225 0.0675,0.0675 0.11256,0.0901 0.0901,0.045 0.15758,0.11256 0.22511,0.18009 0.0901,0.11256 0.0675,0.22512 0.0225,0.33768 -0.045,0.13507 -0.15758,0.0675 -0.24763,0.0675 -0.0225,0 -0.045,0 -0.045,0 -0.5853,-0.0675 -0.7654,0.11255 -0.67535,0.69786 0.0225,0.11256 0.0225,0.27014 0.22512,0.24763 0.15758,0 0.22512,0.11256 0.11256,0.24763 -0.22512,0.27014 -0.47275,0.54028 -0.58531,0.90047 -0.0675,0.15758 -0.31516,0.15758 -0.42772,0.36019 -0.15758,0.36018 -0.56279,0.60781 -0.40521,1.10307 0.0675,0.20261 0,0.40521 -0.0675,0.63033 -0.0675,0.20261 -0.0675,0.45023 0.13507,0.63033 0.33768,0.27014 0.45023,0.72037 0.83293,0.94549 0.15758,0.0901 0.27014,0.11256 0.45024,0.0901 0.42772,-0.045 0.83293,-0.18009 1.23814,-0.2026 0.24763,-0.0225 0.51777,0.24762 0.78791,0.36018 0.15759,0.0675 0,0.36019 -0.0225,0.54028 -0.0225,0.15759 -0.0225,0.27015 0.09,0.3827 0.33768,0.36019 0.3827,0.81043 0.47275,1.26066 0.045,0.20261 -0.18009,0.33768 -0.22512,0.54028 -0.0675,0.27014 -0.11256,0.51777 0.045,0.7654 0.15759,0.24763 0.22512,0.51777 0.1801,0.81042 -0.0225,0.29266 0.22511,0.45024 0.27014,0.69787 0.09,0.49526 0.11256,0.47274 0.63033,0.3827 0.5853,-0.11256 0.85544,-0.58531 1.10307,-1.05805 0.0675,-0.11256 0.0675,-0.22512 0.20261,-0.27015 0.13507,-0.0675 0.2026,-0.24762 0.15758,-0.38269 -0.0675,-0.29266 0.09,-0.49526 0.29265,-0.63033 0.42773,-0.27014 0.47275,-0.67536 0.36019,-1.05805 -0.20261,-0.74289 0.15758,-1.26066 0.5853,-1.75592 0.33768,-0.3827 0.45024,-0.81042 0.51778,-1.26066 0.0225,-0.11256 0,-0.2026 -0.15759,-0.11256 -0.0675,0.045 -0.13507,0.0675 -0.22511,0.09 -0.11256,0.0225 -0.24763,0.0675 -0.31517,-0.09 -0.0901,-0.2026 0.11256,-0.15758 0.18009,-0.18009 0.40522,-0.22512 0.83294,-0.45023 0.90047,-0.99052 0.0225,-0.15758 0,-0.31516 -0.11255,-0.45023 -0.0675,-0.0901 -0.11256,-0.20261 -0.0675,-0.31516 0.49525,0.54028 0.42772,1.26065 0.45023,1.89098 0.24763,4.795 -2.97155,8.95967 -7.54143,10.08526 z m -8.66701,-11.41345 c -0.24763,-0.15758 -0.45024,-0.40521 -0.78791,-0.40521 -0.0901,0.0225 -0.20261,0.045 -0.29266,0.13507 -0.0225,0.0225 -0.045,0.11256 0.0225,0.0901 0.36018,-0.13507 0.56279,0.0225 0.78791,0.27014 0.045,0.045 0.18009,0.0901 0.29265,0.0225 0,-0.045 -0.0225,-0.11256 -0.0225,-0.11256 z m 0.67535,0.24763 c -0.0901,-0.13507 -0.22512,-0.15758 -0.3827,-0.18009 -0.20261,-0.045 -0.11256,0.24763 -0.27014,0.22511 0.0675,0.0225 0.13507,0.0675 0.22512,0.0901 0.13507,-0.0675 0.29265,-0.0901 0.42772,-0.13507 z m 7.78906,-6.50589 c 0,-0.09 -0.0901,-0.11256 -0.15758,-0.11256 -0.1801,0 -0.36019,0 -0.54028,0 -0.0675,0 -0.15759,-0.0675 -0.20261,0.0225 0.09,0.045 0.0225,0.20261 0.15758,0.24763 0.0675,0.0225 0.15758,0.0225 0.24763,0.045 0.11256,-0.0225 0.24763,-0.0675 0.36019,-0.09 0.0675,-0.045 0.13507,-0.045 0.13507,-0.11256 z m 0.72037,1.21563 c 0.13508,0.0675 0.36019,0.09 0.11256,0.31517 -0.0675,0.0675 0,0.22511 -0.09,0.31516 0.11256,0.0675 0.20261,-0.0225 0.29266,-0.0225 0.13507,0 0.29265,-0.0225 0.42772,-0.045 0,-0.20261 -0.11256,-0.36019 -0.27014,-0.51777 -0.045,-0.045 -0.11256,-0.11256 -0.11256,-0.1801 0.0225,-0.22511 -0.11256,-0.33767 -0.29265,-0.29265 -0.1801,0.0675 -0.15758,0.24763 -0.0675,0.42772 z m -0.2026,-0.045 c -0.11256,0.0225 -0.29265,0.0675 -0.29265,0.20261 0,0.09 -0.13507,0.22511 0,0.27014 0.09,0.0225 0.27014,-0.0225 0.33767,-0.0901 0.09,-0.0901 0.11256,-0.22512 0.15758,-0.33768 -0.0675,-0.0225 -0.13507,-0.045 -0.2026,-0.045 z m -1.46326,-1.57582 c 0.0901,0 0.18009,-0.0675 0.27014,-0.11256 0.045,-0.0225 0.09,-0.045 0.0675,-0.0901 -0.24763,-0.27014 0.0901,-0.11256 0.13507,-0.18009 0.045,-0.045 0.18009,-0.0675 0.2026,-0.11256 0.0675,-0.29265 0.29266,-0.33768 0.5628,-0.33768 -0.0225,0 0.0225,-0.0225 0.045,-0.0225 -0.0225,-0.0225 -0.045,-0.045 -0.0901,-0.045 -0.24763,-0.045 -0.49526,-0.09 -0.74289,-0.13507 -1.05805,-0.13507 -2.1161,0.0901 -3.19667,0.0225 -0.60781,-0.045 -1.17061,0.22512 -1.77842,0.29265 -0.09,0 -0.1801,0.0675 -0.27014,0.0901 -0.0225,0 -0.0901,0.0675 -0.0225,0.0675 0.2026,0.045 0,0.0901 0,0.0901 -0.0675,0.09 -0.1801,0.045 -0.27014,0.0675 -0.045,0.0225 -0.11256,0.0675 -0.11256,0.09 0.0225,0.0675 0.0901,0.0225 0.13507,0.0225 0.15758,0 0.31516,0 0.47274,-0.0225 v 0 c 0.33768,-0.24763 0.72038,-0.33767 1.10308,-0.47274 0.045,-0.0225 0.0901,0 0.13507,-0.0225 0,0.40521 0.29265,0.13507 0.42772,0.18009 0.1801,0.045 0.45024,-0.0675 0.3827,0.29265 0,0.0225 0.0225,0.045 0.045,0.0675 0.13507,0.11256 0.0901,0.22511 -0.045,0.27014 -0.27014,0.0675 -0.22512,0.29265 -0.24763,0.49526 0,0.31516 0.27014,0.33767 0.47275,0.42772 0.18009,0.0675 0.24763,-0.0901 0.33767,-0.1801 0.1801,-0.15758 0.29266,-0.38269 0.54029,-0.40521 0.49525,-0.0675 0.94549,-0.31516 1.44075,-0.33767 z m 7.83408,11.50349 c -0.0225,-0.0675 -0.045,-0.11255 -0.045,-0.18009 -0.045,0.045 -0.0901,0.0901 -0.11256,0.13507 -0.045,0.0675 -0.0675,0.20261 -0.15758,0.24763 -0.42772,0.29265 -0.31517,0.7654 -0.47275,1.17061 -0.0225,0.0675 -0.0225,0.15758 0.0675,0.18009 0.0675,0.0225 0.13507,-0.0225 0.1801,-0.0901 0.22511,-0.47274 0.42772,-0.94549 0.54028,-1.46326 z m -1.59833,-6.46086 c -0.0675,0.15758 -0.22512,0 -0.31517,0.0225 -0.3827,0.09 -0.67535,-0.0901 -0.99051,-0.24763 -0.11256,-0.045 -0.24763,-0.0225 -0.27014,0.0675 -0.15759,0.51777 -0.36019,-0.045 -0.51777,0.0225 -0.0225,0 -0.0675,-0.11256 -0.09,-0.11256 -0.36019,-0.045 -0.60782,-0.15758 -0.49526,-0.60782 0.0225,-0.0675 -0.11256,-0.11256 -0.1801,-0.09 -0.45023,0.0675 -0.94549,-0.0901 -1.3507,0.22512 -0.045,0.045 -0.13507,0 -0.20261,0 -0.0675,0 -0.2026,0.0225 -0.2026,-0.0675 0,-0.11256 0.11256,-0.0901 0.2026,-0.11256 0.22512,-0.0225 0.33768,-0.15758 0.42773,-0.36019 0.11256,-0.29265 0.40521,-0.42772 0.60781,-0.56279 0.45024,-0.33768 0.60782,0.0675 0.85545,0.24763 0.0901,0.0675 0.18009,0.13507 0.29265,0.18009 0.0675,0.045 0.13507,0.11256 0.11256,0.1801 -0.0225,0.11256 -0.11256,0.09 -0.20261,0.09 -0.045,0.0225 -0.13506,-0.045 -0.15758,0.045 0,0.0225 0.045,0.0675 0.09,0.09 0.0675,0.0225 0.15759,0.13507 0.20261,0.045 0.045,-0.11256 0.13507,-0.1801 0.2026,-0.29266 0.22512,-0.33767 -0.15758,-0.29265 -0.24762,-0.42772 -0.0225,-0.045 -0.11256,-0.045 -0.11256,-0.0901 -0.045,-0.11256 -0.27014,-0.2026 -0.15759,-0.31516 0.11256,-0.11256 0.20261,0.11256 0.31517,0.15758 0.42772,0.15758 0.47274,0.60782 0.69786,0.90047 0.045,0.0675 0.0675,0.2026 0.1801,0.15758 0.0901,-0.045 0.13507,-0.15758 0.0901,-0.27014 -0.0225,-0.11256 -0.11256,-0.22512 0.045,-0.27014 0.18009,-0.045 0.2026,0.11256 0.22511,0.22512 0.045,0.29265 0.22512,0.40521 0.51777,0.40521 0.15759,0 0.29266,0.13507 0.47275,0.0675 0.0225,0 0.0675,0.0225 0.0675,0.0675 0.0225,0.27014 -0.045,0.45023 -0.11256,0.63033 z m -2.85899,-1.3282 c -0.045,-0.11255 0.0225,-0.24763 -0.09,-0.36018 -0.0225,0.11255 -0.0675,0.22511 -0.0901,0.33767 0.0675,0.045 -0.0225,0.1801 0.11255,0.1801 0.0675,-0.0225 0.0901,-0.11256 0.0675,-0.15759 z m 2.65638,-0.42772 c -0.0901,0.0225 -0.15758,0.0225 -0.22512,-0.0675 -0.0675,-0.0901 -0.13507,-0.24763 -0.24762,-0.13507 -0.13507,0.11256 -0.20261,0.29265 -0.15759,0.47275 0.045,0.13507 0.1801,0.2026 0.29266,0.15758 0.27014,-0.11256 0.49525,-0.045 0.72037,0.0901 0.0675,0.045 0.18009,0.11256 0.22512,0 0.045,-0.11256 -0.045,-0.15758 -0.11256,-0.20261 -0.11256,-0.0901 -0.24763,-0.18009 -0.33768,-0.29265 -0.045,-0.0675 0.045,-0.20261 -0.13507,-0.18009 -0.0225,0 -0.045,0 -0.045,0.0225 -0.045,0.0901 0.0675,0.0675 0.0901,0.11255 0,0.0225 -0.0225,0.0225 -0.0675,0.0225 z m 0.69787,2.92653 c -0.0675,-0.20261 -0.20261,-0.36019 -0.31517,-0.54029 -0.0225,-0.045 -0.0675,-0.09 -0.13507,-0.0675 -0.0901,0.0225 -0.045,0.0901 -0.0225,0.13507 0.27014,0.54029 0.49526,1.10308 0.72038,1.64336 0.045,0.11256 0.18009,0.20261 0.29265,0.31517 0.0225,0.0225 0.045,0.0225 0.0675,0.045 0,-0.0225 0.0225,-0.0675 0,-0.0225 0,-0.65284 -0.42772,-1.01303 -0.60782,-1.50829 z m -2.4763,-5.06514 c -0.09,-0.15759 -0.0225,-0.22512 0.11256,-0.29266 0.0225,-0.0225 0.0675,-0.0675 0.0225,-0.0675 -0.045,-0.0225 -0.13507,-0.0225 -0.13507,0 -0.0675,0.15758 -0.5853,0.13507 -0.18009,0.47275 0,0 0,0.0675 0,0.0675 -0.15758,0.11256 -0.11256,0.45023 -0.42772,0.40521 -0.0225,0 -0.0901,0 -0.045,0.045 0.1801,0.22512 0.42773,0 0.65285,0.0675 0.0675,0.0225 0.11255,-0.0675 0.13507,-0.15758 0.0225,-0.24763 0.0901,-0.45024 0.40521,-0.29266 0.0225,0.0225 0.09,0.0225 0.09,-0.0225 0,0 -0.045,-0.045 -0.09,-0.045 -0.045,0 -0.11256,0 -0.15758,0 -0.15759,-0.0225 -0.29266,-0.0225 -0.3827,-0.1801 z m 4.05212,4.88504 c -0.22512,-0.11256 -0.42773,-0.24763 -0.49526,-0.49526 -0.0225,-0.045 -0.0675,-0.13507 -0.13507,-0.09 -0.0675,0.045 -0.045,0.11255 0,0.18009 0.0901,0.13507 0.2026,0.22512 0.24763,0.36019 0.11256,0.42772 0.22511,0.29265 0.3827,0.045 0,0 0,0 0,0 z m -14.13737,-6.07817 c -0.15758,0.0901 0.09,0.11256 0.0225,0.22512 -0.0675,0.11256 0.11256,0.1801 0.15758,0.15758 0.20261,-0.0225 0.20261,-0.2026 0.15758,-0.36018 -0.0225,-0.0901 -0.11256,-0.0225 -0.18009,0 -0.0675,0.045 -0.11256,0.045 -0.15758,-0.0225 -0.0225,0 0,0 0,0 z m -1.59834,2.88151 c 0.0225,-0.0901 -0.0675,-0.11256 -0.13507,-0.11256 -0.13507,0.0225 -0.27014,0.09 -0.33767,0.18009 -0.0225,0.045 0.13507,-0.0225 0.18009,0.045 0.09,-0.0675 0.27014,0.0675 0.29265,-0.11256 z m -0.0225,0.36018 c -0.045,0.045 0.0225,0.11256 0.045,0.0901 0.09,-0.0675 0.2026,-0.13507 0.27014,-0.22511 0.0225,-0.0225 -0.11256,-0.0675 -0.20261,-0.0675 -0.18009,-0.045 -0.045,0.13507 -0.11256,0.2026 z m 13.7997,6.46087 c -0.11256,0 -0.15759,0.0675 -0.1801,0.15759 0,0.0675 -0.0225,0.15758 0.0901,0.15758 0.11256,0 0.11256,-0.13507 0.15758,-0.20261 0.045,-0.0901 -0.0225,-0.0901 -0.0675,-0.11256 z m -14.02482,-6.55091 c -0.11255,0.0225 -0.18009,0.11256 -0.22511,0.2026 -0.045,0.0675 -0.0901,0.1801 -0.11256,0.24763 0.0225,0 0.045,0.0225 0.0675,0 0.13507,-0.11256 0.13507,-0.31516 0.31517,-0.42772 -0.045,0 -0.045,-0.0225 -0.045,-0.0225 z"
       id="path2-2"
       style="fill:#f2f2f2;fill-opacity:1;stroke-width:0.225117" />
  </g>
</svg>
