<?xml version="1.0" encoding="UTF-8" standalone="no"?>
<svg
   width="64"
   version="1.1"
   height="64"
   id="svg17"
   sodipodi:docname="folder-presentation.svg"
   inkscape:version="1.1.1 (3bf5ae0d25, 2021-09-20)"
   xmlns:inkscape="http://www.inkscape.org/namespaces/inkscape"
   xmlns:sodipodi="http://sodipodi.sourceforge.net/DTD/sodipodi-0.dtd"
   xmlns:xlink="http://www.w3.org/1999/xlink"
   xmlns="http://www.w3.org/2000/svg"
   xmlns:svg="http://www.w3.org/2000/svg"
   xmlns:rdf="http://www.w3.org/1999/02/22-rdf-syntax-ns#"
   xmlns:cc="http://creativecommons.org/ns#"
   xmlns:dc="http://purl.org/dc/elements/1.1/">
  <sodipodi:namedview
     pagecolor="#ffffff"
     bordercolor="#666666"
     borderopacity="1"
     objecttolerance="10"
     gridtolerance="10"
     guidetolerance="10"
     inkscape:pageopacity="0"
     inkscape:pageshadow="2"
     inkscape:window-width="1920"
     inkscape:window-height="1011"
     id="namedview19"
     showgrid="true"
     inkscape:zoom="9.8125004"
     inkscape:cx="44.433119"
     inkscape:cy="39.999998"
     inkscape:window-x="0"
     inkscape:window-y="0"
     inkscape:window-maximized="1"
     inkscape:current-layer="layer1"
     inkscape:document-rotation="0"
     inkscape:pagecheckerboard="0">
    <inkscape:grid
       type="xygrid"
       id="grid908" />
  </sodipodi:namedview>
  <defs
     id="defs5455">
    <linearGradient
       inkscape:collect="always"
       id="linearGradient842">
      <stop
         style="stop-color:#326e9a;stop-opacity:1"
         offset="0"
         id="stop838" />
      <stop
         style="stop-color:#339993;stop-opacity:1"
         offset="1"
         id="stop840" />
    </linearGradient>
    <linearGradient
       inkscape:collect="always"
       xlink:href="#linearGradient860"
       id="linearGradient862"
       x1="113.94677"
       y1="255.36646"
       x2="406.08289"
       y2="255.36646"
       gradientUnits="userSpaceOnUse"
       gradientTransform="matrix(0.20270273,0,0,0.18440699,363.86886,467.51047)" />
    <linearGradient
       inkscape:collect="always"
       id="linearGradient860">
      <stop
         style="stop-color:#78acd3;stop-opacity:1"
         offset="0"
         id="stop856" />
      <stop
         style="stop-color:#d98cbb;stop-opacity:1"
         offset="1"
         id="stop858" />
    </linearGradient>
    <linearGradient
       inkscape:collect="always"
       xlink:href="#linearGradient842"
       id="linearGradient844"
       x1="386.30626"
       y1="522.45407"
       x2="446.83023"
       y2="522.45407"
       gradientUnits="userSpaceOnUse"
       gradientTransform="matrix(0.99134277,0,0,0.99944204,3.6095126,0.30117926)" />
  </defs>
  <metadata
     id="metadata5458">
    <rdf:RDF>
      <cc:Work
         rdf:about="">
        <dc:format>image/svg+xml</dc:format>
        <dc:type
           rdf:resource="http://purl.org/dc/dcmitype/StillImage" />
      </cc:Work>
    </rdf:RDF>
  </metadata>
  <g
     inkscape:label="Capa 1"
     inkscape:groupmode="layer"
     id="layer1"
     transform="translate(-384.57143,-483.798)">
    <path
       style="fill:url(#linearGradient862);fill-opacity:1;stroke-width:0.179137"
       d="m 416.57459,496.95765 c -0.88032,0 -1.92237,-0.51649 -2.31692,-1.14784 l -1.7701,-2.83718 c -0.39274,-0.63135 -1.43479,-1.14668 -2.3148,-1.14784 l -20.40112,-0.0268 c -1.946,-0.003 -2.7662,0.93496 -2.79385,3.00415 l -0.0117,0.87228 v 2.56642 36.57158 c 0,0.70577 2.32071,2.56643 3.20071,2.56643 h 52.81515 c 0.88002,0 3.20071,-1.86066 3.20071,-2.56643 v -35.28836 c 0,-1.92482 -0.80004,-2.56643 -3.20071,-2.56643 z"
       id="path4-3"
       sodipodi:nodetypes="sccsssccsssssss" />
    <path
       style="fill:#f2f2f2;fill-opacity:1;stroke-width:0.176566"
       d="m 442.3495,510.65749 c 0,1.32547 -0.79577,2.40993 -2.61715,2.40993 h -46.19558 c -1.82139,0 -2.51852,-1.08446 -2.51852,-2.40993 v -7.22987 c 0,-1.32548 0.69713,-2.40995 2.51852,-2.40995 h 46.09645 c 1.82137,0 2.71628,1.08447 2.71628,2.40995 z"
       id="path8-6"
       sodipodi:nodetypes="sssssssss" />
    <path
       style="fill:url(#linearGradient844);fill-opacity:1;stroke-width:0.19334"
       d="m 443.32803,505.1295 h -53.5132 c -1.62182,0 -3.2434,1.47526 -3.2434,2.95051 v 28.76749 c 0,1.95107 1.25422,2.9505 3.2434,2.9505 h 53.5132 c 1.9955,0 3.2434,-0.99943 3.2434,-2.9505 v -28.76749 c 0,-1.47525 -1.62159,-2.95051 -3.2434,-2.95051 z"
       id="path10"
       sodipodi:nodetypes="sssssssss" />
    <path
       fill-rule="evenodd"
       clip-rule="evenodd"
       d="m 441.00065,536.798 h -9.6435 c -0.35454,0 -0.64222,-0.28848 -0.64222,-0.64286 0,-0.35534 0.28768,-0.64317 0.64222,-0.64317 h 9.6435 c 0.71003,0 1.28571,-0.57569 1.28571,-1.28572 V 521.3691 c 0,-0.71003 -0.57568,-1.28538 -1.28571,-1.28538 h -12.85747 c -0.70988,0 -1.28588,0.57535 -1.28588,1.28538 v 12.21429 c 0,0.35534 -0.28752,0.64286 -0.64285,0.64286 -0.3547,0 -0.64302,-0.28752 -0.64302,-0.64286 V 521.3691 c 0,-1.42007 1.15184,-2.5711 2.57175,-2.5711 h 12.85747 c 1.41975,0 2.57078,1.15103 2.57078,2.5711 v 12.85715 c 0,1.42007 -1.15103,2.57175 -2.57078,2.57175 z m -12.21445,-1.28603 c 0.35453,0 0.64285,0.28783 0.64285,0.64317 0,0.35438 -0.28832,0.64286 -0.64285,0.64286 -0.35534,0 -0.64302,-0.28848 -0.64302,-0.64286 0,-0.35534 0.28768,-0.64317 0.64302,-0.64317 z"
       id="path2"
       style="fill:#f2f2f2;fill-opacity:1;stroke-width:0.0401785" />
    <path
       fill-rule="evenodd"
       clip-rule="evenodd"
       d="m 439.10593,530.46789 c -0.16568,0 -0.3,-0.13432 -0.3,-0.3 v -4.79999 c 0,-0.16568 -0.13433,-0.30001 -0.3,-0.30001 h -0.6 c -0.16568,0 -0.3,0.13433 -0.3,0.30001 v 6.14999 c 0,0.41427 -0.33574,0.75 -0.75,0.75 h -0.3 c -0.41426,0 -0.75,-0.33573 -0.75,-0.75 v -3.14999 c 0,-0.16568 -0.13432,-0.30001 -0.3,-0.30001 h -0.6 c -0.16567,0 -0.3,0.13433 -0.3,0.30001 v 3.14999 c 0,0.41427 -0.33574,0.75 -0.75,0.75 h -0.3 c -0.41426,0 -0.75,-0.33573 -0.75,-0.75 v -1.95 c 0,-0.16567 -0.13432,-0.3 -0.3,-0.3 h -0.6 c -0.16567,0 -0.3,0.13433 -0.3,0.3 v 2.1 c 0,0.33135 -0.26866,0.6 -0.6,0.6 -0.6627,0 -1.2,-0.5373 -1.2,-1.2 v -5.4 -2.1 c 0,-0.16567 0.13433,-0.3 0.3,-0.3 0.16568,0 0.3,0.13433 0.3,0.3 v 1.06188 1.03812 5.4 c 0,0.33135 0.23115,0.6 0.45,0.6 0.0829,0 0.15,-0.067 0.15,-0.15 v -2.1 c 0,-0.41426 0.33574,-0.75 0.75,-0.75 h 0.9 c 0.41426,0 0.75,0.33574 0.75,0.75 v 1.95001 c 0,0.16567 0.13433,0.29999 0.3,0.29999 0.16567,0 0.3,-0.13432 0.3,-0.29999 v -3.15001 c 0,-0.41426 0.33574,-0.75 0.75,-0.75 h 0.9 c 0.41426,0 0.75,0.33574 0.75,0.75 v 3.15001 c 0,0.16567 0.13432,0.29999 0.3,0.29999 0.16567,0 0.3,-0.13432 0.3,-0.29999 v -6.15001 c 0,-0.41426 0.33574,-0.75 0.75,-0.75 h 0.9 c 0.41426,0 0.75,0.33574 0.75,0.75 v 4.95001 c 0,0.16567 -0.13433,0.29999 -0.3,0.29999 z m 0,0.6 c 0.16567,0 0.3,0.13433 0.3,0.3 0,0.16568 -0.13433,0.3 -0.3,0.3 -0.16568,0 -0.3,-0.13432 -0.3,-0.3 0,-0.16567 0.13432,-0.3 0.3,-0.3 z"
       id="path2-3-3"
       style="fill:#f2f2f2;fill-opacity:1;stroke-width:0.01875" />
  </g>
</svg>
