<?xml version="1.0" encoding="UTF-8" standalone="no"?>
<svg
   width="64"
   version="1.1"
   height="64"
   id="svg17"
   sodipodi:docname="folder-notes.svg"
   inkscape:version="1.1.1 (3bf5ae0d25, 2021-09-20)"
   xmlns:inkscape="http://www.inkscape.org/namespaces/inkscape"
   xmlns:sodipodi="http://sodipodi.sourceforge.net/DTD/sodipodi-0.dtd"
   xmlns:xlink="http://www.w3.org/1999/xlink"
   xmlns="http://www.w3.org/2000/svg"
   xmlns:svg="http://www.w3.org/2000/svg"
   xmlns:rdf="http://www.w3.org/1999/02/22-rdf-syntax-ns#"
   xmlns:cc="http://creativecommons.org/ns#"
   xmlns:dc="http://purl.org/dc/elements/1.1/">
  <sodipodi:namedview
     pagecolor="#ffffff"
     bordercolor="#666666"
     borderopacity="1"
     objecttolerance="10"
     gridtolerance="10"
     guidetolerance="10"
     inkscape:pageopacity="0"
     inkscape:pageshadow="2"
     inkscape:window-width="1920"
     inkscape:window-height="1011"
     id="namedview19"
     showgrid="true"
     inkscape:zoom="9.8125004"
     inkscape:cx="34.242037"
     inkscape:cy="27.363056"
     inkscape:window-x="0"
     inkscape:window-y="0"
     inkscape:window-maximized="1"
     inkscape:current-layer="layer1"
     inkscape:document-rotation="0"
     inkscape:pagecheckerboard="0">
    <inkscape:grid
       type="xygrid"
       id="grid908" />
  </sodipodi:namedview>
  <defs
     id="defs5455">
    <linearGradient
       inkscape:collect="always"
       id="linearGradient842">
      <stop
         style="stop-color:#326e9a;stop-opacity:1"
         offset="0"
         id="stop838" />
      <stop
         style="stop-color:#339993;stop-opacity:1"
         offset="1"
         id="stop840" />
    </linearGradient>
    <linearGradient
       inkscape:collect="always"
       xlink:href="#linearGradient860"
       id="linearGradient862"
       x1="113.94677"
       y1="255.36646"
       x2="406.08289"
       y2="255.36646"
       gradientUnits="userSpaceOnUse"
       gradientTransform="matrix(0.20270273,0,0,0.18440695,363.86886,467.51047)" />
    <linearGradient
       inkscape:collect="always"
       id="linearGradient860">
      <stop
         style="stop-color:#78acd3;stop-opacity:1"
         offset="0"
         id="stop856" />
      <stop
         style="stop-color:#d98cbb;stop-opacity:1"
         offset="1"
         id="stop858" />
    </linearGradient>
    <linearGradient
       inkscape:collect="always"
       xlink:href="#linearGradient842"
       id="linearGradient844"
       x1="386.30626"
       y1="522.45407"
       x2="446.83023"
       y2="522.45407"
       gradientUnits="userSpaceOnUse"
       gradientTransform="matrix(0.99134277,0,0,0.99944183,3.6095126,0.30129674)" />
  </defs>
  <metadata
     id="metadata5458">
    <rdf:RDF>
      <cc:Work
         rdf:about="">
        <dc:format>image/svg+xml</dc:format>
        <dc:type
           rdf:resource="http://purl.org/dc/dcmitype/StillImage" />
      </cc:Work>
    </rdf:RDF>
  </metadata>
  <g
     inkscape:label="Capa 1"
     inkscape:groupmode="layer"
     id="layer1"
     transform="translate(-384.57143,-483.798)">
    <path
       style="fill:url(#linearGradient862);fill-opacity:1;stroke-width:0.179138"
       d="m 416.57459,496.95765 c -0.88032,0 -1.92237,-0.51649 -2.31692,-1.14784 l -1.7701,-2.83719 c -0.39274,-0.63133 -1.43479,-1.14667 -2.3148,-1.14782 l -20.40112,-0.0268 c -1.946,-0.003 -2.7662,0.93496 -2.79385,3.00415 l -0.0117,0.87228 v 2.56642 36.57158 c 0,0.70576 2.32071,2.56642 3.20071,2.56642 h 52.81515 c 0.88002,0 3.20071,-1.86066 3.20071,-2.56642 v -35.28836 c 0,-1.92482 -0.80004,-2.56643 -3.20071,-2.56643 z"
       id="path4-3"
       sodipodi:nodetypes="sccsssccsssssss" />
    <path
       style="fill:#f2f2f2;fill-opacity:1;stroke-width:0.176565"
       d="m 442.3495,510.65747 c 0,1.32548 -0.79577,2.40995 -2.61715,2.40995 h -46.19558 c -1.82139,0 -2.51852,-1.08447 -2.51852,-2.40995 v -7.22985 c 0,-1.32548 0.69713,-2.40996 2.51852,-2.40996 h 46.09645 c 1.82137,0 2.71628,1.08448 2.71628,2.40996 z"
       id="path8-6"
       sodipodi:nodetypes="sssssssss" />
    <path
       style="fill:url(#linearGradient844);fill-opacity:1;stroke-width:0.19334"
       d="m 443.32803,505.12949 h -53.5132 c -1.62182,0 -3.2434,1.47526 -3.2434,2.95052 v 28.76748 c 0,1.95107 1.25422,2.95051 3.2434,2.95051 h 53.5132 c 1.9955,0 3.2434,-0.99944 3.2434,-2.95051 v -28.76748 c 0,-1.47526 -1.62159,-2.95052 -3.2434,-2.95052 z"
       id="path10"
       sodipodi:nodetypes="sssssssss" />
    <path
       fill-rule="evenodd"
       clip-rule="evenodd"
       d="m 434.55297,523.57822 c 0,-0.31092 0.25186,-0.5625 0.56279,-0.5625 0.31064,0 0.5625,0.25158 0.5625,0.5625 0,0.31008 -0.25186,0.56194 -0.5625,0.56194 -0.31093,0 -0.56279,-0.25186 -0.56279,-0.56194 z m 8.0703,0.0442 -0.23703,0.23675 c -0.002,0.002 -0.004,0.002 -0.007,0.005 -0.43176,0.43203 -1.12638,0.43671 -1.5672,0.0192 l -1.44964,-1.45048 c -0.21944,-0.21944 -0.21944,-0.57569 0,-0.79513 0.21945,-0.21944 0.57569,-0.21944 0.79514,0 l 1.22498,1.22414 c 7.5e-4,0.002 0.002,0 0.003,0.002 0.10958,0.10959 0.28758,0.10959 0.39716,0 0.004,-0.004 0.007,-7.5e-4 0.0101,-0.002 l 0.034,-0.034 c 0.43973,-0.43917 0.43973,-1.15136 0,-1.59109 l -0.99396,-0.99398 c -0.43973,-0.43974 -1.15193,-0.43974 -1.5911,0 l -1.93,1.93001 h -1.59164 -4.82332 -3.09404 c -0.77674,0 -1.40625,0.63007 -1.40625,1.40681 v 10.68722 c 0,0.77674 0.62951,1.40625 1.40625,1.40625 h 10.68722 c 0.77703,0 1.40625,-0.62951 1.40625,-1.40625 v -7.23368 c 0,-0.1549 -0.12579,-0.28097 -0.28097,-0.28097 -0.0774,0 -0.14804,0.0316 -0.19856,0.0824 -10e-4,7.5e-4 -7.5e-4,-0.004 -0.002,-0.003 l -3.1256,3.12507 c -0.33866,0.33895 -0.7586,0.54412 -1.19725,0.62156 -0.0829,0.0197 -0.16892,0.0321 -0.25763,0.0321 h -0.0794 c -0.0371,7.5e-4 -0.0753,7.5e-4 -0.11233,0 h -2.0588 c -0.621,0 -1.12444,-0.50344 -1.12444,-1.12444 v -2.05881 c -5.6e-4,-0.0371 -5.6e-4,-0.0753 0,-0.11208 v -0.0794 c 0,-0.089 0.0126,-0.17498 0.0322,-0.25791 0.0777,-0.43836 0.2829,-0.85915 0.62184,-1.19778 l 1.19475,-1.19502 0.003,0.003 c 0.10136,-0.10217 0.24279,-0.16482 0.39798,-0.16482 0.31091,0 0.5625,0.25186 0.5625,0.56278 0,0.17058 -0.078,0.32218 -0.19804,0.42518 l -1.16455,1.16455 c -0.24529,0.24473 -0.34826,0.57347 -0.32024,0.89375 -5.6e-4,0.0162 -0.005,0.0316 -0.005,0.0478 v 0.84347 c -2e-5,0.62095 0.50427,1.12523 1.12527,1.12523 h 0.84346 c 0.0162,0 0.0316,-0.004 0.0478,-0.005 0.32051,0.0281 0.64902,-0.0753 0.89373,-0.32052 l 3.61231,-3.61233 c 0.20296,-0.19941 0.48203,-0.28153 0.78992,-0.28153 0.62157,0 1.12529,0.50344 1.12529,1.125 v 8.15597 c 0,1.24284 -1.00715,2.25056 -2.24972,2.25056 h -11.25 c -1.24284,0 -2.25028,-1.00772 -2.25028,-2.25056 v -11.24972 c 0,-1.24281 1.00744,-2.24972 2.25028,-2.24972 h 9.32301 l 1.60127,-1.60127 c 0.43927,-0.43944 1.0151,-0.64873 1.59096,-0.64873 0.57586,0 1.15175,0.20929 1.59121,0.64873 l 0.99453,0.99454 c 0.43991,0.43991 0.64934,1.024 0.64874,1.60063 -6e-4,0.57505 -0.21002,1.14268 -0.64874,1.58158 z"
       id="path2"
       style="fill:#f2f2f2;fill-opacity:1;stroke-width:0.0351562" />
  </g>
</svg>
