<?xml version="1.0" encoding="UTF-8" standalone="no"?>
<svg
   width="64"
   version="1.1"
   height="64"
   id="svg17"
   sodipodi:docname="folder-image-people.svg"
   inkscape:version="1.1.1 (3bf5ae0d25, 2021-09-20)"
   xmlns:inkscape="http://www.inkscape.org/namespaces/inkscape"
   xmlns:sodipodi="http://sodipodi.sourceforge.net/DTD/sodipodi-0.dtd"
   xmlns:xlink="http://www.w3.org/1999/xlink"
   xmlns="http://www.w3.org/2000/svg"
   xmlns:svg="http://www.w3.org/2000/svg"
   xmlns:rdf="http://www.w3.org/1999/02/22-rdf-syntax-ns#"
   xmlns:cc="http://creativecommons.org/ns#"
   xmlns:dc="http://purl.org/dc/elements/1.1/">
  <sodipodi:namedview
     pagecolor="#ffffff"
     bordercolor="#666666"
     borderopacity="1"
     objecttolerance="10"
     gridtolerance="10"
     guidetolerance="10"
     inkscape:pageopacity="0"
     inkscape:pageshadow="2"
     inkscape:window-width="1920"
     inkscape:window-height="1011"
     id="namedview19"
     showgrid="true"
     inkscape:zoom="9.8125003"
     inkscape:cx="26.496814"
     inkscape:cy="38.063693"
     inkscape:window-x="0"
     inkscape:window-y="0"
     inkscape:window-maximized="1"
     inkscape:current-layer="layer1"
     inkscape:document-rotation="0"
     inkscape:pagecheckerboard="0">
    <inkscape:grid
       type="xygrid"
       id="grid908" />
  </sodipodi:namedview>
  <defs
     id="defs5455">
    <linearGradient
       inkscape:collect="always"
       id="linearGradient842">
      <stop
         style="stop-color:#326e9a;stop-opacity:1"
         offset="0"
         id="stop838" />
      <stop
         style="stop-color:#339993;stop-opacity:1"
         offset="1"
         id="stop840" />
    </linearGradient>
    <linearGradient
       inkscape:collect="always"
       xlink:href="#linearGradient860"
       id="linearGradient862"
       x1="113.94677"
       y1="255.36646"
       x2="406.08289"
       y2="255.36646"
       gradientUnits="userSpaceOnUse"
       gradientTransform="matrix(0.20270273,0,0,0.18440695,363.86886,467.51047)" />
    <linearGradient
       inkscape:collect="always"
       id="linearGradient860">
      <stop
         style="stop-color:#78acd3;stop-opacity:1"
         offset="0"
         id="stop856" />
      <stop
         style="stop-color:#d98cbb;stop-opacity:1"
         offset="1"
         id="stop858" />
    </linearGradient>
    <linearGradient
       inkscape:collect="always"
       xlink:href="#linearGradient842"
       id="linearGradient844"
       x1="386.30626"
       y1="522.45407"
       x2="446.83023"
       y2="522.45407"
       gradientUnits="userSpaceOnUse"
       gradientTransform="matrix(0.99134277,0,0,0.99944183,3.6095126,0.30129674)" />
  </defs>
  <metadata
     id="metadata5458">
    <rdf:RDF>
      <cc:Work
         rdf:about="">
        <dc:format>image/svg+xml</dc:format>
        <dc:type
           rdf:resource="http://purl.org/dc/dcmitype/StillImage" />
      </cc:Work>
    </rdf:RDF>
  </metadata>
  <g
     inkscape:label="Capa 1"
     inkscape:groupmode="layer"
     id="layer1"
     transform="translate(-384.57143,-483.798)">
    <path
       style="fill:url(#linearGradient862);fill-opacity:1;stroke-width:0.179138"
       d="m 416.57459,496.95765 c -0.88032,0 -1.92237,-0.51649 -2.31692,-1.14784 l -1.7701,-2.83719 c -0.39274,-0.63133 -1.43479,-1.14667 -2.3148,-1.14782 l -20.40112,-0.0268 c -1.946,-0.003 -2.7662,0.93496 -2.79385,3.00415 l -0.0117,0.87228 v 2.56642 36.57158 c 0,0.70576 2.32071,2.56642 3.20071,2.56642 h 52.81515 c 0.88002,0 3.20071,-1.86066 3.20071,-2.56642 v -35.28836 c 0,-1.92482 -0.80004,-2.56643 -3.20071,-2.56643 z"
       id="path4-3"
       sodipodi:nodetypes="sccsssccsssssss" />
    <path
       style="fill:#f2f2f2;fill-opacity:1;stroke-width:0.176565"
       d="m 442.3495,510.65747 c 0,1.32548 -0.79577,2.40995 -2.61715,2.40995 h -46.19558 c -1.82139,0 -2.51852,-1.08447 -2.51852,-2.40995 v -7.22985 c 0,-1.32548 0.69713,-2.40996 2.51852,-2.40996 h 46.09645 c 1.82137,0 2.71628,1.08448 2.71628,2.40996 z"
       id="path8-6"
       sodipodi:nodetypes="sssssssss" />
    <path
       style="fill:url(#linearGradient844);fill-opacity:1;stroke-width:0.19334"
       d="m 443.32803,505.12949 h -53.5132 c -1.62182,0 -3.2434,1.47526 -3.2434,2.95052 v 28.76748 c 0,1.95107 1.25422,2.95051 3.2434,2.95051 h 53.5132 c 1.9955,0 3.2434,-0.99944 3.2434,-2.95051 v -28.76748 c 0,-1.47526 -1.62159,-2.95052 -3.2434,-2.95052 z"
       id="path10"
       sodipodi:nodetypes="sssssssss" />
    <path
       d="m 440.78654,533.32833 h -0.68663 c -0.3793,0 -0.6859,-0.31014 -0.6859,-0.6912 0,-0.38245 0.3066,-0.69259 0.6859,-0.69259 h 0.68663 c 0.75727,0 1.37253,-0.61889 1.37253,-1.38378 v -2.07502 c 0,-0.0554 -0.0107,-0.11079 -0.0265,-0.1642 -0.005,-0.0203 -0.0151,-0.0399 -0.0231,-0.0608 -0.01,-0.0237 -0.0184,-0.048 -0.0308,-0.071 -0.15647,-0.32009 -0.53984,-0.6282 -1.01832,-0.71672 -0.61221,-0.22971 -1.43082,-0.37163 -2.3332,-0.37163 -0.87663,0 -1.67312,0.14292 -2.27933,0.36657 -0.30659,0.0453 -0.57634,0.18344 -0.77871,0.3571 l -0.004,-0.005 c -0.11161,0.0996 -0.25735,0.16234 -0.4182,0.16234 -0.34919,0 -0.63267,-0.28632 -0.63267,-0.63802 0,-0.24965 0.14309,-0.46352 0.34919,-0.56791 0.37197,-0.27334 0.82366,-0.50881 1.34872,-0.68415 -0.56224,-0.56419 -0.9342,-1.3216 -1.00258,-2.16827 -0.009,-0.0935 -0.0141,-0.18784 -0.0141,-0.28311 v -2.07537 c 0,-1.5284 1.22875,-2.76757 2.74539,-2.76757 h 1.37254 c 1.5156,0 2.74504,1.23922 2.74504,2.76757 v 2.07537 c 0,0.3821 -0.30762,0.69225 -0.68658,0.69225 -0.37935,0 -0.68595,-0.31015 -0.68595,-0.69225 v -2.07537 c 0,-0.76454 -0.61525,-1.38379 -1.37251,-1.38379 h -1.37254 c -0.75831,0 -1.37287,0.61925 -1.37287,1.38379 v 2.07537 c 0,1.14664 0.92215,2.07602 2.05847,2.07602 2.53596,0 4.60747,1.13177 4.78675,2.56745 0.0107,0.0649 0.0177,0.13176 0.0177,0.20069 v 2.07503 c -5e-5,1.52903 -1.22948,2.76756 -2.74511,2.76756 z m -7.21483,-5.94785 c -0.008,0.024 -0.0168,0.049 -0.0281,0.0724 -7.5e-4,6.9e-4 -7.5e-4,0.003 -9.9e-4,0.004 h -7.5e-4 c -0.11127,0.23074 -0.34275,0.39122 -0.61418,0.39122 -0.37935,0 -0.68664,-0.31014 -0.68664,-0.69224 0,-0.099 0.0211,-0.1936 0.0583,-0.27806 l -0.002,-7.5e-4 c 0.16184,-0.35273 0.2547,-0.74395 0.2547,-1.15848 0,-0.15403 -0.0161,-0.30474 -0.0399,-0.45272 0.0258,-0.12467 0.0399,-0.25473 0.0399,-0.3875 v -2.81661 c 0,-1.03714 -0.8193,-1.8784 -1.83024,-1.8784 h -1.82958 c -1.01128,0 -1.83058,0.84121 -1.83058,1.8784 v 2.81661 c 0,0.13277 0.0144,0.26283 0.0399,0.3875 -0.0238,0.14798 -0.0399,0.29864 -0.0399,0.45272 0,1.52839 1.22944,2.76809 2.7454,2.76809 4.37563,0 7.94564,1.57768 8.20969,3.5683 0.0151,0.0771 0.0258,0.15607 0.0258,0.2365 v 1.73042 c 0,1.52844 -1.22943,2.76693 -2.7454,2.76693 h -10.98056 c -1.51572,-2e-5 -2.74515,-1.23856 -2.74515,-2.76695 v -1.73042 c 0,-0.0804 0.008,-0.15606 0.0194,-0.23109 0.0891,-0.69729 0.58673,-1.33984 1.37421,-1.88242 0.1116,-0.0954 0.25366,-0.15611 0.41113,-0.15611 0.35085,0 0.63532,0.28584 0.63532,0.63991 0,0.22633 -0.11658,0.42296 -0.29253,0.53717 l 0.005,0.007 c -0.49558,0.33374 -0.7794,0.70403 -0.7794,1.08579 v 1.73042 c 0,0.76355 0.6152,1.38314 1.37252,1.38314 h 10.98058 c 0.7583,0 1.37252,-0.61959 1.37252,-1.38314 v -1.73042 c 0,-1.33785 -3.07279,-2.42097 -6.86264,-2.42097 -1.10208,0 -2.10102,-0.43987 -2.83989,-1.15066 -0.19538,-0.18785 -0.37462,-0.39663 -0.53011,-0.62029 -0.15215,-0.21808 -0.28383,-0.45254 -0.39239,-0.69846 -0.005,-0.009 -0.008,-0.017 -0.0124,-0.0257 -0.0453,-0.10439 -0.0851,-0.21318 -0.12199,-0.32194 -0.008,-0.0247 -0.0188,-0.048 -0.0265,-0.0731 -0.0311,-0.0969 -0.0549,-0.19763 -0.0787,-0.2983 -0.009,-0.0375 -0.0204,-0.074 -0.0285,-0.11251 -0.0238,-0.11486 -0.0395,-0.23244 -0.0545,-0.35002 -0.003,-0.0224 -0.008,-0.044 -0.01,-0.0662 -0.0151,-0.14257 -0.0231,-0.28783 -0.0231,-0.43482 0,-0.0767 0.007,-0.15034 0.0117,-0.22633 -0.005,-0.0784 -0.0117,-0.15577 -0.0117,-0.23515 v -3.22842 c 0,-1.78378 1.38325,-3.22906 3.0882,-3.22906 h 2.05911 c 1.70594,0 3.0882,1.44528 3.0882,3.22906 v 3.22842 c 0,0.0793 -0.006,0.15675 -0.0114,0.23515 0.005,0.0761 0.0114,0.14966 0.0114,0.22633 0,0.59257 -0.12903,1.15305 -0.35185,1.66283 z m -7.53984,2.14241 c 0,0.38173 -0.30763,0.69192 -0.68663,0.69192 -0.3793,0 -0.6859,-0.31019 -0.6859,-0.69192 0,-0.38176 0.3066,-0.69191 0.6859,-0.69191 0.379,0 0.68663,0.31015 0.68663,0.69191 z"
       id="path2"
       style="fill:#f2f2f2;fill-opacity:1;stroke-width:0.0430677" />
  </g>
</svg>
