<?xml version="1.0" encoding="UTF-8" standalone="no"?>
<svg
   width="64"
   version="1.1"
   height="64"
   id="svg17"
   sodipodi:docname="folder-openSUSE.svg"
   inkscape:version="1.1.1 (3bf5ae0d25, 2021-09-20)"
   xmlns:inkscape="http://www.inkscape.org/namespaces/inkscape"
   xmlns:sodipodi="http://sodipodi.sourceforge.net/DTD/sodipodi-0.dtd"
   xmlns:xlink="http://www.w3.org/1999/xlink"
   xmlns="http://www.w3.org/2000/svg"
   xmlns:svg="http://www.w3.org/2000/svg"
   xmlns:rdf="http://www.w3.org/1999/02/22-rdf-syntax-ns#"
   xmlns:cc="http://creativecommons.org/ns#"
   xmlns:dc="http://purl.org/dc/elements/1.1/">
  <sodipodi:namedview
     pagecolor="#ffffff"
     bordercolor="#666666"
     borderopacity="1"
     objecttolerance="10"
     gridtolerance="10"
     guidetolerance="10"
     inkscape:pageopacity="0"
     inkscape:pageshadow="2"
     inkscape:window-width="1920"
     inkscape:window-height="1011"
     id="namedview19"
     showgrid="true"
     inkscape:zoom="9.8125004"
     inkscape:cx="33.732483"
     inkscape:cy="29.09554"
     inkscape:window-x="0"
     inkscape:window-y="0"
     inkscape:window-maximized="1"
     inkscape:current-layer="layer1"
     inkscape:document-rotation="0"
     inkscape:pagecheckerboard="0">
    <inkscape:grid
       type="xygrid"
       id="grid908" />
  </sodipodi:namedview>
  <defs
     id="defs5455">
    <linearGradient
       inkscape:collect="always"
       id="linearGradient842">
      <stop
         style="stop-color:#326e9a;stop-opacity:1"
         offset="0"
         id="stop838" />
      <stop
         style="stop-color:#339993;stop-opacity:1"
         offset="1"
         id="stop840" />
    </linearGradient>
    <linearGradient
       inkscape:collect="always"
       xlink:href="#linearGradient860"
       id="linearGradient862"
       x1="113.94677"
       y1="255.36646"
       x2="406.08289"
       y2="255.36646"
       gradientUnits="userSpaceOnUse"
       gradientTransform="matrix(0.20270273,0,0,0.18440695,363.86886,467.51047)" />
    <linearGradient
       inkscape:collect="always"
       id="linearGradient860">
      <stop
         style="stop-color:#78acd3;stop-opacity:1"
         offset="0"
         id="stop856" />
      <stop
         style="stop-color:#d98cbb;stop-opacity:1"
         offset="1"
         id="stop858" />
    </linearGradient>
    <linearGradient
       inkscape:collect="always"
       xlink:href="#linearGradient842"
       id="linearGradient844"
       x1="386.30626"
       y1="522.45407"
       x2="446.83023"
       y2="522.45407"
       gradientUnits="userSpaceOnUse"
       gradientTransform="matrix(0.99134277,0,0,0.99944183,3.6095126,0.30129674)" />
  </defs>
  <metadata
     id="metadata5458">
    <rdf:RDF>
      <cc:Work
         rdf:about="">
        <dc:format>image/svg+xml</dc:format>
        <dc:type
           rdf:resource="http://purl.org/dc/dcmitype/StillImage" />
      </cc:Work>
    </rdf:RDF>
  </metadata>
  <g
     inkscape:label="Capa 1"
     inkscape:groupmode="layer"
     id="layer1"
     transform="translate(-384.57143,-483.798)">
    <path
       style="fill:url(#linearGradient862);fill-opacity:1;stroke-width:0.179138"
       d="m 416.57459,496.95765 c -0.88032,0 -1.92237,-0.51649 -2.31692,-1.14784 l -1.7701,-2.83719 c -0.39274,-0.63133 -1.43479,-1.14667 -2.3148,-1.14782 l -20.40112,-0.0268 c -1.946,-0.003 -2.7662,0.93496 -2.79385,3.00415 l -0.0117,0.87228 v 2.56642 36.57158 c 0,0.70576 2.32071,2.56642 3.20071,2.56642 h 52.81515 c 0.88002,0 3.20071,-1.86066 3.20071,-2.56642 v -35.28836 c 0,-1.92482 -0.80004,-2.56643 -3.20071,-2.56643 z"
       id="path4-3"
       sodipodi:nodetypes="sccsssccsssssss" />
    <path
       style="fill:#f2f2f2;fill-opacity:1;stroke-width:0.176565"
       d="m 442.3495,510.65747 c 0,1.32548 -0.79577,2.40995 -2.61715,2.40995 h -46.19558 c -1.82139,0 -2.51852,-1.08447 -2.51852,-2.40995 v -7.22985 c 0,-1.32548 0.69713,-2.40996 2.51852,-2.40996 h 46.09645 c 1.82137,0 2.71628,1.08448 2.71628,2.40996 z"
       id="path8-6"
       sodipodi:nodetypes="sssssssss" />
    <path
       style="fill:url(#linearGradient844);fill-opacity:1;stroke-width:0.19334"
       d="m 443.32803,505.12949 h -53.5132 c -1.62182,0 -3.2434,1.47526 -3.2434,2.95052 v 28.76748 c 0,1.95107 1.25422,2.95051 3.2434,2.95051 h 53.5132 c 1.9955,0 3.2434,-0.99944 3.2434,-2.95051 v -28.76748 c 0,-1.47526 -1.62159,-2.95052 -3.2434,-2.95052 z"
       id="path10"
       sodipodi:nodetypes="sssssssss" />
    <g
       id="g18"
       transform="matrix(0.02982648,0,0,0.03007016,413.97317,512.75739)"
       style="fill:#f2f2f2;fill-opacity:1">
      <g
         transform="matrix(0.1,0,0,-0.1,0,308)"
         id="g16"
         style="fill:#f2f2f2;fill-opacity:1">
        <path
           d="m 4893.7,1051.8 c -715.8,-91.9 -1461,-385.3 -2147.5,-843 -694.3,-461.6 -1155.9,-1081.6 -1288.9,-1727 -35.2,-172.1 -29.3,-520.2 11.7,-684.5 142.8,-567.2 565.2,-993.5 1134.4,-1146.1 211.2,-56.7 586.7,-60.6 772.5,-7.8 150.6,43 328.6,129.1 438.1,211.2 250.4,187.8 442,545.7 442,823.4 v 95.8 l 45,-66.5 c 33.3,-50.9 105.6,-97.8 326.6,-209.3 248.4,-123.2 293.4,-140.8 367.7,-133 95.8,7.8 170.2,66.5 185.8,142.8 5.9,27.4 2,115.4 -9.8,195.6 -21.5,178 5.9,402.9 58.7,473.3 95.8,131 283.6,181.9 506.6,140.8 269.9,-48.9 410.7,-148.6 764.7,-541.8 l 197.6,-217.1 342.3,-158.4 c 397,-185.8 465.5,-197.5 561.3,-103.7 86.1,88 78.2,168.2 -41.1,367.7 -136.9,226.9 -195.6,379.4 -209.3,533.9 -19.6,232.7 15.6,250.3 434.2,205.4 457.7,-48.9 823.4,-31.3 1202.8,56.7 283.6,66.5 606.3,211.2 721.7,322.7 93.9,90 162.3,266 156.5,402.9 -2,52.8 7.8,135 21.5,179.9 29.3,97.8 3.9,215.1 -113.4,533.9 -178,485 -291.4,606.3 -723.7,770.6 -324.7,123.2 -1187.2,324.7 -1414,330.5 -109.5,2 -189.7,-43 -219.1,-125.2 -11.7,-31.3 -29.3,-56.7 -39.1,-56.7 -7.8,0 -119.3,25.4 -244.5,56.7 -610.2,154.5 -979.9,197.5 -1627.2,195.6 -264,-1.7 -539.8,-11.5 -614.1,-19.3 z M 6358.6,625.5 c 301.2,-45 596.5,-109.5 934.9,-205.4 267.9,-76.3 318.8,-82.1 393.1,-48.9 48.9,23.5 109.5,123.2 109.5,179.9 0,23.5 15.6,25.4 93.9,9.8 792.1,-160.4 1224.3,-305.1 1345.6,-451.8 56.7,-68.5 172.1,-336.4 230.8,-537.8 l 29.3,-103.7 -68.5,-29.3 c -179.9,-74.3 -469.4,-86 -698.2,-29.3 -279.7,72.4 -463.5,166.2 -794.1,404.9 -70.4,48.9 -172.1,62.6 -238.6,27.4 -47,-25.4 -95.8,-119.3 -95.8,-187.8 0,-70.4 183.8,-244.5 385.3,-363.8 352.1,-209.3 692.3,-312.9 1038.5,-316.8 l 223,-2 -82.1,-35.2 c -299.2,-131 -780.4,-183.9 -1269.3,-138.9 -399,37.2 -557.4,29.3 -680.6,-35.2 -109.5,-54.8 -211.2,-179.9 -242.5,-295.3 -31.3,-119.3 -27.4,-379.4 7.8,-492.9 17.6,-52.8 29.3,-99.7 23.5,-103.7 -19.6,-19.6 -99.7,52.8 -281.7,258.2 -277.7,311 -455.7,444 -725.6,541.8 -111.5,39.1 -162.3,45 -391.2,45 -336.4,0 -432.2,-33.2 -614.1,-209.3 -142.8,-138.9 -199.5,-262.1 -219.1,-483.1 -7.8,-76.3 -15.6,-136.9 -19.6,-136.9 -39.1,0 -109.5,56.7 -117.3,95.8 -52.8,254.2 -246.4,428.3 -510.5,465.5 -78.2,9.8 -113.4,29.3 -219,127.1 -305.1,277.7 -727.6,375.5 -1081.6,252.3 -402.9,-138.9 -635.6,-549.6 -535.9,-940.7 60.6,-230.8 193.6,-389.2 422.5,-496.8 219.1,-103.7 502.6,-78.2 666.9,62.6 93.9,80.2 174.1,236.7 174.1,338.4 0,174.1 -211.2,260.1 -334.4,136.9 -31.3,-31.3 -56.7,-72.4 -56.7,-91.9 0,-64.5 -58.7,-105.6 -152.6,-105.6 -309,0 -451.8,361.8 -236.7,596.5 105.6,113.4 223,152.5 424.4,142.8 185.8,-7.8 305.1,-62.6 444,-201.4 119.3,-117.3 178,-236.7 209.3,-418.5 19.6,-115.4 17.6,-150.6 -11.7,-262.1 -107.6,-399 -436.1,-604.4 -917.3,-575 -426.4,25.4 -782.3,262.1 -970.1,643.5 -99.7,201.4 -127.1,342.3 -113.4,582.8 13.7,230.8 50.9,367.7 152.6,571.1 285.6,575 764.7,1003.3 1582.3,1412.1 479.2,238.6 960.3,387.3 1429.7,440.1 269.8,31.1 1061.9,9.5 1357.2,-35.4 z"
           id="path4-3-5"
           style="fill:#f2f2f2;fill-opacity:1" />
        <path
           d="M 8705.6,154.1 C 8486.5,44.6 8459.2,-272.3 8658.7,-415 c 86.1,-60.6 242.5,-72.4 338.4,-27.4 195.6,93.9 248.4,348.1 103.7,512.4 -109.7,125.2 -252.5,154.5 -395.2,84.1 z M 9028.3,-18 c 56.7,-46.9 39.1,-107.6 -39.1,-140.8 -90,-37.2 -215.1,5.9 -215.1,74.3 -0.1,93.9 166.2,136.9 254.2,66.5 z"
           id="path6-6"
           style="fill:#f2f2f2;fill-opacity:1" />
        <path
           d="m 430.5,-2943.9 c -138.9,-64.6 -230.8,-152.6 -283.6,-269.9 -37.2,-86 -45,-136.9 -46.9,-299.2 0,-166.2 7.8,-209.3 45,-289.5 25.4,-50.8 76.3,-117.3 115.4,-148.6 119.3,-97.8 224.9,-119.3 606.3,-119.3 440.1,0 455.7,-5.9 455.7,-209.3 0,-209.3 23.5,-201.4 -635.6,-201.4 H 129.3 v -164.3 c 0,-156.5 2,-168.2 52.8,-207.3 50.8,-41.1 66.5,-41.1 651.3,-35.2 575,5.9 600.4,7.8 678.7,48.9 101.7,54.8 205.4,160.4 254.3,256.2 43,88 60.6,479.2 27.4,594.6 -29.3,95.8 -105.6,183.9 -205.4,236.6 -72.4,37.2 -119.3,43 -506.6,52.8 -420.5,9.8 -428.3,9.8 -465.5,56.7 -23.5,29.3 -37.2,76.3 -37.2,133 0,70.4 11.7,97.8 56.7,144.7 l 56.7,56.7 h 481.1 481.1 v 166.2 c 0,258.2 31.3,244.5 -600.4,244.5 -508.4,0 -526,-1.9 -623.8,-46.9 z"
           id="path8"
           style="fill:#f2f2f2;fill-opacity:1" />
        <path
           d="m 4674.6,-2918.5 c -105.6,-29.3 -248.4,-140.8 -307.1,-234.7 -76.3,-125.2 -103.7,-309 -74.3,-488.9 29.3,-178 97.8,-281.7 240.6,-359.9 103.7,-58.7 103.7,-58.7 508.5,-68.5 483.1,-11.7 475.3,-7.8 475.3,-207.3 0,-209.3 17.6,-203.4 -647.4,-203.4 h -555.4 v -156.5 c 0,-142.8 5.9,-162.3 48.9,-205.4 l 46.9,-48.9 h 584.8 584.8 l 119.3,60.6 c 133,66.5 205.4,140.8 264,271.9 33.3,70.4 39.1,129.1 39.1,303.1 0,297.3 -50.8,408.8 -230.8,504.6 -70.4,39.1 -117.3,43 -488.9,52.8 -277.7,5.9 -424.4,17.6 -453.8,35.2 -86,48.9 -82.1,246.4 7.8,316.8 46.9,37.2 78.2,39.1 547.6,39.1 h 498.7 l -7.8,158.4 c -5.9,144.7 -11.7,162.3 -60.6,205.4 l -54.7,46.9 -512.4,-2 c -281.6,0.3 -539.8,-9.5 -573.1,-19.3 z"
           id="path10-6"
           style="fill:#f2f2f2;fill-opacity:1" />
        <path
           d="m 6687.2,-2928.2 c -131,-47 -269.9,-185.8 -318.8,-314.9 -39.1,-105.6 -41.1,-140.8 -35.2,-688.4 5.9,-651.3 7.8,-657.2 166.2,-805.8 150.6,-142.8 152.5,-144.7 731.5,-150.6 l 522.2,-5.9 54.8,46.9 c 50.9,45 56.7,60.6 62.6,207.3 l 7.8,158.4 h -479.2 c -453.8,0 -481.1,2 -530,41.1 -46.9,37.1 -50.8,50.8 -50.8,205.4 v 164.3 h 567.2 c 623.9,0 633.7,2 731.5,117.3 48.9,60.6 50.8,66.5 50.8,348.1 0,260.1 -3.9,297.3 -46.9,385.3 -52.8,115.4 -140.8,209.3 -254.3,269.9 -76.3,41.1 -105.6,43 -588.7,46.9 -414.7,4 -524.2,-1.9 -590.7,-25.3 z m 946.6,-426.4 c 50.8,-43 54.8,-58.7 54.8,-191.7 v -142.8 l -434.2,-5.9 -436.1,-3.9 v 154.5 c 0,144.7 3.9,158.4 50.8,195.6 48.9,37.1 78.2,41.1 381.4,41.1 318.8,0 330.5,-1.9 383.3,-46.9 z"
           id="path12"
           style="fill:#f2f2f2;fill-opacity:1" />
        <path
           d="m 2227.9,-3415.3 c -97.8,-41.1 -109.5,-111.5 -99.7,-625.9 5.9,-422.4 9.8,-455.7 52.8,-553.5 90,-201.4 307.1,-316.8 596.5,-316.8 172.1,0 311,35.2 500.7,125.2 80.2,39.1 160.4,70.4 179.9,70.4 19.6,0 62.6,-39.1 97.8,-88 62.6,-84.1 66.5,-86 176,-88 234.7,0 230.8,-11.7 230.8,753 v 620 l -58.7,54.8 c -74.3,68.4 -199.5,91.9 -303.2,58.7 -115.4,-39.1 -127.1,-90 -127.1,-565.2 v -408.8 l -60.6,-50.8 c -58.7,-50.9 -64.5,-50.9 -373.6,-50.9 h -312.9 l -56.7,56.7 -56.7,56.7 v 424.4 424.4 l -58.7,54.8 c -84.1,80.2 -213.1,99.7 -326.6,48.8 z"
           id="path14"
           style="fill:#f2f2f2;fill-opacity:1" />
      </g>
    </g>
    <ellipse
       cx="440.54059"
       cy="530.09827"
       id="circle4-5"
       style="fill:#f2f2f2;fill-opacity:1;stroke-width:0.0548455"
       rx="0.81934476"
       ry="0.8260386" />
  </g>
</svg>
