<?xml version="1.0" encoding="UTF-8" standalone="no"?>
<svg
   width="64"
   version="1.1"
   height="64"
   id="svg17"
   sodipodi:docname="certificate-server.svg"
   inkscape:version="1.1.1 (3bf5ae0d25, 2021-09-20)"
   xmlns:inkscape="http://www.inkscape.org/namespaces/inkscape"
   xmlns:sodipodi="http://sodipodi.sourceforge.net/DTD/sodipodi-0.dtd"
   xmlns:xlink="http://www.w3.org/1999/xlink"
   xmlns="http://www.w3.org/2000/svg"
   xmlns:svg="http://www.w3.org/2000/svg"
   xmlns:rdf="http://www.w3.org/1999/02/22-rdf-syntax-ns#"
   xmlns:cc="http://creativecommons.org/ns#"
   xmlns:dc="http://purl.org/dc/elements/1.1/">
  <sodipodi:namedview
     pagecolor="#ffffff"
     bordercolor="#666666"
     borderopacity="1"
     objecttolerance="10"
     gridtolerance="10"
     guidetolerance="10"
     inkscape:pageopacity="0"
     inkscape:pageshadow="2"
     inkscape:window-width="1920"
     inkscape:window-height="1011"
     id="namedview19"
     showgrid="true"
     inkscape:zoom="8.0000001"
     inkscape:cx="24.375"
     inkscape:cy="37.5625"
     inkscape:window-x="0"
     inkscape:window-y="0"
     inkscape:window-maximized="1"
     inkscape:current-layer="layer1"
     inkscape:document-rotation="0"
     inkscape:lockguides="false"
     inkscape:pagecheckerboard="0">
    <inkscape:grid
       type="xygrid"
       id="grid903" />
  </sodipodi:namedview>
  <defs
     id="defs5455">
    <linearGradient
       inkscape:collect="always"
       xlink:href="#linearGradient860"
       id="linearGradient862"
       x1="113.94677"
       y1="255.36646"
       x2="406.08289"
       y2="255.36646"
       gradientUnits="userSpaceOnUse"
       gradientTransform="matrix(0.20270273,0,0,0.18440695,363.86886,467.51047)" />
    <linearGradient
       inkscape:collect="always"
       id="linearGradient860">
      <stop
         style="stop-color:#78acd3;stop-opacity:1"
         offset="0"
         id="stop856" />
      <stop
         style="stop-color:#d98cbb;stop-opacity:1"
         offset="1"
         id="stop858" />
    </linearGradient>
    <linearGradient
       inkscape:collect="always"
       xlink:href="#linearGradient842"
       id="linearGradient844"
       x1="386.30627"
       y1="522.45404"
       x2="446.83023"
       y2="522.45404"
       gradientUnits="userSpaceOnUse"
       gradientTransform="matrix(0.99134277,0,0,0.99944183,3.6095145,0.30122965)" />
    <linearGradient
       inkscape:collect="always"
       id="linearGradient842">
      <stop
         style="stop-color:#326e9a;stop-opacity:1"
         offset="0"
         id="stop838" />
      <stop
         style="stop-color:#339993;stop-opacity:1"
         offset="1"
         id="stop840" />
    </linearGradient>
  </defs>
  <metadata
     id="metadata5458">
    <rdf:RDF>
      <cc:Work
         rdf:about="">
        <dc:format>image/svg+xml</dc:format>
        <dc:type
           rdf:resource="http://purl.org/dc/dcmitype/StillImage" />
      </cc:Work>
    </rdf:RDF>
  </metadata>
  <g
     inkscape:label="Capa 1"
     inkscape:groupmode="layer"
     id="layer1"
     transform="translate(-384.57143,-483.798)">
    <path
       style="fill:url(#linearGradient862);fill-opacity:1;stroke-width:0.179138"
       d="m 416.57459,496.95765 c -0.88032,0 -1.92237,-0.51649 -2.31692,-1.14784 l -1.7701,-2.83719 c -0.39274,-0.63133 -1.43479,-1.14667 -2.3148,-1.14782 l -20.40112,-0.0268 c -1.946,-0.003 -2.7662,0.93496 -2.79385,3.00415 l -0.0117,0.87228 v 2.56642 36.57158 c 0,0.70576 2.32071,2.56642 3.20071,2.56642 h 52.81515 c 0.88002,0 3.20071,-1.86066 3.20071,-2.56642 v -35.28836 c 0,-1.92482 -0.80004,-2.56643 -3.20071,-2.56643 z"
       id="path4-3"
       sodipodi:nodetypes="sccsssccsssssss" />
    <path
       style="fill:#f2f2f2;fill-opacity:1;stroke-width:0.176565"
       d="m 442.3495,510.65747 c 0,1.32548 -0.79577,2.40995 -2.61715,2.40995 h -46.19558 c -1.82139,0 -2.51852,-1.08447 -2.51852,-2.40995 v -7.22985 c 0,-1.32548 0.69713,-2.40996 2.51852,-2.40996 h 46.09645 c 1.82137,0 2.71628,1.08448 2.71628,2.40996 z"
       id="path8-6"
       sodipodi:nodetypes="sssssssss" />
    <path
       style="fill:url(#linearGradient844);fill-opacity:1;stroke-width:0.19334"
       d="m 443.32803,505.12949 h -53.5132 c -1.62182,0 -3.2434,1.47526 -3.2434,2.95052 v 28.76748 c 0,1.95107 1.25422,2.95051 3.2434,2.95051 h 53.5132 c 1.9955,0 3.2434,-0.99944 3.2434,-2.95051 v -28.76748 c 0,-1.47526 -1.62159,-2.95052 -3.2434,-2.95052 z"
       id="path10"
       sodipodi:nodetypes="sssssssss" />
    <path
       d="m 433.84641,533.39973 c 0.30739,0 0.55763,0.25144 0.55763,0.56218 0,0.3102 -0.25024,0.56219 -0.55763,0.56219 -0.30823,0 -0.55791,-0.25199 -0.55791,-0.56219 0,-0.31074 0.24971,-0.56218 0.55791,-0.56218 z m -0.55791,-3.93534 c 0,-0.31075 0.24968,-0.56218 0.55791,-0.56218 0.30739,0 0.55763,0.25143 0.55763,0.56218 v 2.24822 c 0,0.31075 -0.25024,0.56274 -0.55763,0.56274 -0.30823,0 -0.55791,-0.25199 -0.55791,-0.56274 z m 7.80674,7.30849 h -13.38336 c -1.23181,0 -2.23025,-1.00744 -2.23025,-2.24878 v -5.05971 c 0,-0.31075 0.24968,-0.56218 0.55792,-0.56218 0.30739,0 0.55763,0.25143 0.55763,0.56218 v 4.77862 c 0,0.77631 0.62405,1.40494 1.39408,1.40494 h 12.82517 c 0.77002,0 1.39467,-0.62867 1.39467,-1.40494 v -5.06027 c 0,-0.77575 -0.62465,-1.40532 -1.39467,-1.40532 h -10.03727 -0.27857 -5.6e-4 c -0.92438,0 -1.67261,-0.75488 -1.67261,-1.68603 v -0.28165 -1.4052 c 0,-3.10495 2.4963,-5.62161 5.57662,-5.62161 3.07968,0 5.57594,2.51666 5.57594,5.62161 v 0.56219 c 0,0.31074 -0.24939,0.56218 -0.55763,0.56218 -0.30766,0 -0.55763,-0.25144 -0.55763,-0.56218 v -0.56219 c 0,-2.48398 -1.99746,-4.4978 -4.46068,-4.4978 -2.4639,0 -4.46108,2.01379 -4.46108,4.4978 v 0.84301 0.21465 0.34754 c 0,0.46583 0.37437,0.84386 0.8362,0.84386 h 0.34472 0.21291 7.24912 0.27881 1.11526 0.27938 0.83588 c 1.23237,0 2.23056,1.00635 2.23056,2.24861 v 5.62189 c 0,1.24134 -0.99819,2.24878 -2.23056,2.24878 z m -13.94099,-8.99546 c -0.3074,0 -0.55707,-0.25144 -0.55707,-0.56219 0,-0.30991 0.24967,-0.56163 0.55707,-0.56163 0.30823,0 0.55763,0.25172 0.55763,0.56163 0,0.31075 -0.2494,0.56219 -0.55763,0.56219 z"
       id="path2"
       style="fill:#f2f2f2;fill-opacity:1;stroke-width:0.0349939" />
  </g>
</svg>
