<?xml version="1.0" encoding="UTF-8" standalone="no"?>
<svg
   width="64"
   version="1.1"
   height="64"
   id="svg15"
   sodipodi:docname="folder-deb.svg"
   inkscape:version="1.1.1 (3bf5ae0d25, 2021-09-20)"
   xmlns:inkscape="http://www.inkscape.org/namespaces/inkscape"
   xmlns:sodipodi="http://sodipodi.sourceforge.net/DTD/sodipodi-0.dtd"
   xmlns:xlink="http://www.w3.org/1999/xlink"
   xmlns="http://www.w3.org/2000/svg"
   xmlns:svg="http://www.w3.org/2000/svg"
   xmlns:rdf="http://www.w3.org/1999/02/22-rdf-syntax-ns#"
   xmlns:cc="http://creativecommons.org/ns#"
   xmlns:dc="http://purl.org/dc/elements/1.1/">
  <sodipodi:namedview
     pagecolor="#ffffff"
     bordercolor="#666666"
     borderopacity="1"
     objecttolerance="10"
     gridtolerance="10"
     guidetolerance="10"
     inkscape:pageopacity="0"
     inkscape:pageshadow="2"
     inkscape:window-width="1920"
     inkscape:window-height="1011"
     id="namedview17"
     showgrid="true"
     inkscape:zoom="9.8124999"
     inkscape:cx="25.171975"
     inkscape:cy="30.726115"
     inkscape:window-x="0"
     inkscape:window-y="0"
     inkscape:window-maximized="1"
     inkscape:current-layer="layer1"
     inkscape:document-rotation="0"
     inkscape:pagecheckerboard="0">
    <inkscape:grid
       type="xygrid"
       id="grid876" />
  </sodipodi:namedview>
  <defs
     id="defs5455">
    <linearGradient
       id="linearGradient4194">
      <stop
         style="stop-color:#b5006a"
         id="stop4196" />
      <stop
         offset="1"
         style="stop-color:#c70073"
         id="stop4198" />
    </linearGradient>
    <linearGradient
       inkscape:collect="always"
       xlink:href="#linearGradient4194"
       id="linearGradient844"
       x1="386.30627"
       y1="522.45404"
       x2="446.83023"
       y2="522.45404"
       gradientUnits="userSpaceOnUse"
       gradientTransform="matrix(0.99134277,0,0,0.99944183,3.6095145,0.30128779)" />
  </defs>
  <metadata
     id="metadata5458">
    <rdf:RDF>
      <cc:Work
         rdf:about="">
        <dc:format>image/svg+xml</dc:format>
        <dc:type
           rdf:resource="http://purl.org/dc/dcmitype/StillImage" />
      </cc:Work>
    </rdf:RDF>
  </metadata>
  <g
     inkscape:label="Capa 1"
     inkscape:groupmode="layer"
     id="layer1"
     transform="translate(-384.57143,-483.798)">
    <path
       style="fill:#ff33ab;fill-opacity:1;stroke-width:0.179138"
       d="m 416.57459,496.95765 c -0.88032,0 -1.92237,-0.51649 -2.31692,-1.14784 l -1.7701,-2.83719 c -0.39274,-0.63133 -1.43479,-1.14667 -2.3148,-1.14782 l -20.40112,-0.0268 c -1.946,-0.003 -2.7662,0.93496 -2.79385,3.00415 l -0.0117,0.87228 v 2.56642 36.57158 c 0,0.70576 2.32071,2.56642 3.20071,2.56642 h 52.81515 c 0.88002,0 3.20071,-1.86066 3.20071,-2.56642 v -35.28836 c 0,-1.92482 -0.80004,-2.56643 -3.20071,-2.56643 z"
       id="path4-3"
       sodipodi:nodetypes="sccsssccsssssss" />
    <path
       style="fill:#434c5e;fill-opacity:1;stroke-width:0.176565"
       d="m 442.3495,510.65747 c 0,1.32548 -0.79577,2.40995 -2.61715,2.40995 h -46.19558 c -1.82139,0 -2.51852,-1.08447 -2.51852,-2.40995 v -7.22985 c 0,-1.32548 0.69713,-2.40996 2.51852,-2.40996 h 46.09645 c 1.82137,0 2.71628,1.08448 2.71628,2.40996 z"
       id="path8-6"
       sodipodi:nodetypes="sssssssss" />
    <path
       style="fill:url(#linearGradient844);fill-opacity:1;stroke-width:0.19334"
       d="m 443.32803,505.12949 h -53.5132 c -1.62182,0 -3.2434,1.47526 -3.2434,2.95052 v 28.76748 c 0,1.95107 1.25422,2.95051 3.2434,2.95051 h 53.5132 c 1.9955,0 3.2434,-0.99944 3.2434,-2.95051 v -28.76748 c 0,-1.47526 -1.62159,-2.95052 -3.2434,-2.95052 z"
       id="path10"
       sodipodi:nodetypes="sssssssss" />
    <path
       style="color:#232629;fill:#ff0000;fill-opacity:1;stroke:none;stroke-width:0.817578"
       d="m 437.4565,536.70304 c -0.98107,-0.16352 -2.37095,-0.73582 -3.1885,-1.26722 -1.88041,-1.22636 -3.11118,-2.59049 -3.87186,-4.29305 -0.24528,-0.57232 -0.39082,-0.98111 -0.81757,-2.45272 -0.0818,-0.3679 -0.22047,-0.78019 -0.27163,-0.90864 -0.0863,-0.2167 -0.0901,-0.28981 -0.0526,-1.0126 0.0358,-0.65407 0.1635,-1.63514 0.24524,-1.71364 0.0126,-0.0189 0.0402,-0.023 0.0635,-0.0103 0.0766,0.0458 0.14792,-0.16527 0.21772,-0.64639 0.0381,-0.26359 0.0984,-0.54 0.1336,-0.61425 0.0353,-0.074 0.0949,-0.23815 0.13256,-0.3642 0.0868,-0.29012 0.20504,-0.51313 0.57073,-1.07596 0.1608,-0.24751 0.32798,-0.51712 0.37148,-0.59911 0.0514,-0.0965 0.10711,-0.14371 0.15845,-0.13391 0.0498,0.01 0.13108,-0.0532 0.2166,-0.16596 0.37179,-0.49073 2.12294,-1.93851 2.28499,-1.88914 0.044,0.0139 0.22901,-0.0479 0.41063,-0.13512 0.32853,-0.15873 0.47325,-0.19548 0.47325,-0.12006 0,0.0214 -0.048,0.0712 -0.10549,0.10976 -0.10186,0.0681 -0.0998,0.0692 0.0582,0.0325 0.0903,-0.0208 0.2423,-0.0511 0.33784,-0.0669 0.11806,-0.0191 0.16605,-0.048 0.14977,-0.0882 -0.0146,-0.0358 0.0196,-0.0712 0.0842,-0.0877 0.16143,-0.041 0.41298,-0.0348 0.41298,0.0118 0,0.0549 -0.14383,0.11058 -0.25793,0.0997 -0.0775,-0.007 -0.0818,-7.5e-4 -0.023,0.0373 0.0577,0.0381 0.0584,0.047 0.004,0.0476 -0.0365,3.8e-4 -0.0543,0.0127 -0.0394,0.0258 0.015,0.0144 0.11251,-0.0165 0.2173,-0.0681 0.10481,-0.0516 0.2968,-0.11516 0.42662,-0.1419 0.15979,-0.0331 0.23602,-0.0711 0.23602,-0.11812 0,-0.06 0.074,-0.0662 0.57448,-0.0396 0.31594,0.0165 0.79273,0.0643 1.05953,0.1056 0.48501,0.0757 0.48506,0.0757 0.66582,-0.0234 0.21679,-0.11974 0.5655,-0.13531 0.65714,-0.0299 0.0337,0.0385 0.1258,0.10264 0.20504,0.14196 0.1293,0.0646 0.13785,0.0648 0.0832,7.5e-4 -0.10379,-0.12013 -7.2e-4,-0.11707 0.40011,0.0123 1.29223,0.41531 2.34566,1.15499 3.12738,2.19587 0.18537,0.24685 0.19658,0.35787 0.0208,0.20761 l -0.10047,-0.086 0.0765,0.14404 c 0.0417,0.079 0.0765,0.16824 0.0765,0.19783 0,0.0301 0.12427,0.24832 0.27612,0.48603 0.3423,0.53579 0.43807,0.7163 0.4151,0.78242 -0.0104,0.0289 -0.1615,-0.16034 -0.33698,-0.41934 -0.17551,-0.25899 -0.43519,-0.60794 -0.57711,-0.77543 -0.21194,-0.25014 -0.26744,-0.29293 -0.31068,-0.23947 -0.0295,0.0358 -0.0996,0.0716 -0.15713,0.0794 l -0.10449,0.0148 0.10334,0.19448 c 0.0566,0.10699 0.11094,0.17279 0.12016,0.14625 0.0498,-0.14206 0.27915,0.0444 0.38363,0.31184 0.034,0.0866 0.12398,0.26503 0.20022,0.39645 0.0759,0.13143 0.12897,0.24816 0.11726,0.2594 -0.0122,0.0119 -0.0813,-0.0242 -0.15443,-0.0799 l -0.13311,-0.10048 0.0908,0.14957 c 0.0503,0.0822 0.13354,0.18286 0.18579,0.2236 0.0657,0.0511 0.0963,0.13111 0.0992,0.25593 0.005,0.23041 0.1429,0.50264 0.21772,0.43085 0.11653,-0.11182 0.1405,-0.0414 0.11116,0.32431 -0.0213,0.26981 -0.0106,0.44764 0.0407,0.63644 0.0776,0.28665 0.0605,0.35737 -0.0528,0.22341 -0.0723,-0.0852 -0.073,-0.0851 -0.0403,0.003 0.0697,0.18952 0.12137,0.47304 0.10694,0.58433 -0.027,0.20767 -0.10818,0.12133 -0.13615,-0.14469 l -0.0271,-0.25964 -0.008,0.27631 c -0.004,0.15199 -0.0411,0.44563 -0.0826,0.65257 -0.0411,0.20901 -0.0624,0.46232 -0.048,0.56986 0.0292,0.20232 0.008,0.21016 -0.16784,0.0658 -0.0717,-0.0586 -0.0841,-0.0477 -0.13332,0.12847 -0.041,0.14772 -0.0407,0.23182 10e-4,0.35556 0.0311,0.0891 0.0489,0.21001 0.0393,0.26863 -0.0203,0.13527 -0.13344,0.17744 -0.13344,0.0502 0,-0.16042 -0.0639,-0.10335 -0.25792,0.23157 -0.52479,0.90434 -1.35513,1.60424 -2.29494,1.93434 -0.55404,0.19465 -0.92568,0.26682 -1.55046,0.30113 l -0.56277,0.0313 0.27805,0.0823 c 0.22419,0.0669 0.35585,0.076 0.67998,0.0514 0.42464,-0.0332 0.92319,-0.12136 1.14928,-0.20384 0.0902,-0.0332 0.15116,-0.0346 0.18232,-0.005 0.0734,0.0707 -0.57956,0.34799 -0.96724,0.41085 -0.65966,0.10694 -1.54267,-0.009 -2.32215,-0.30398 -0.52885,-0.20041 -1.31367,-0.72227 -1.1934,-0.79359 0.0224,-0.0139 0.17208,0.0546 0.33179,0.15162 0.20414,0.12387 0.29035,0.15648 0.29035,0.10982 0,-0.0881 0.0307,-0.0839 0.19239,0.0271 0.14646,0.10012 0.59693,0.28594 0.92139,0.38012 0.35368,0.10267 0.21653,-0.0214 -0.25793,-0.23405 -1.50017,-0.67119 -2.123,-1.34254 -2.43339,-2.62304 -0.1138,-0.46956 0.008,-1.49896 0.21573,-1.82136 0.0528,-0.0817 0.0957,-0.18216 0.0957,-0.22325 0,-0.17836 0.3099,-0.64956 0.62787,-0.95473 0.56034,-0.53776 1.14291,-0.76098 1.89919,-0.72776 0.36557,0.0163 0.52171,0.0475 0.82596,0.16318 0.34508,0.1319 0.7796,0.40801 0.64652,0.41082 -0.0317,6.9e-4 -0.16844,-0.0428 -0.3048,-0.0979 -0.20729,-0.0829 -0.34021,-0.0995 -0.81068,-0.10128 -0.66068,-0.002 -0.98359,0.0875 -1.45377,0.40499 -0.66659,0.4501 -1.03726,0.96854 -1.16854,1.63436 -0.0881,0.44675 -0.0908,0.57056 -0.0217,1.01372 0.0393,0.25535 0.0681,0.33027 0.11723,0.31204 0.0412,-0.0155 0.0657,0.007 0.0657,0.0618 0,0.15825 0.35883,0.80026 0.60772,1.08726 0.599,0.69081 1.56793,1.13163 2.48732,1.13163 0.47717,0 0.8629,-0.0879 1.21798,-0.27753 0.14256,-0.0759 0.32254,-0.16927 0.39991,-0.20691 0.27301,-0.1328 0.44239,-0.28449 0.6404,-0.57355 0.11008,-0.16066 0.22979,-0.29214 0.26596,-0.29214 0.0535,0 0.0514,0.0228 -0.0128,0.12376 -0.20931,0.33153 0.2819,-0.27128 0.53631,-0.65811 l 0.28497,-0.43325 -0.0315,-0.28461 c -0.0304,-0.2735 -0.0249,-0.2902 0.11087,-0.42754 0.13132,-0.13229 0.14307,-0.17146 0.15824,-0.52504 0.0139,-0.31647 0.004,-0.38219 -0.054,-0.38255 -0.0541,-3e-4 -0.077,-0.0837 -0.10065,-0.36046 -0.0313,-0.36636 -0.34168,-1.59904 -0.41401,-1.64196 -0.0215,-0.0133 -0.0825,-0.1315 -0.13471,-0.26342 -0.17622,-0.44519 -0.48542,-0.87327 -0.96748,-1.33964 -0.69365,-0.67104 -1.56741,-1.1892 -2.39276,-1.41899 -0.70205,-0.19542 -1.89421,-0.1245 -2.74335,0.16327 -0.41445,0.14043 -0.82278,0.32639 -0.89169,0.40604 -0.0316,0.0361 -0.0763,0.054 -0.10073,0.0394 -0.0248,-0.0153 -0.0184,-0.0553 0.0168,-0.096 0.15644,-0.18092 -0.36267,0.15014 -0.69686,0.44444 -0.20203,0.17789 -0.3747,0.32886 -0.3837,0.33545 -0.009,0.006 0.0308,3.5e-4 0.0874,-0.0143 0.095,-0.0233 0.099,-0.0175 0.048,0.0746 -0.0333,0.0588 -0.20493,0.16563 -0.41564,0.25736 -0.35409,0.15414 -0.58309,0.32353 -0.76503,0.5659 -0.0725,0.0968 -0.0766,0.11762 -0.0193,0.0964 0.0399,-0.0151 0.0732,-0.005 0.0732,0.0205 0,0.12854 -0.12167,0.27202 -0.30193,0.35608 -0.39935,0.18617 -1.10092,1.18079 -1.47668,2.09354 -0.16748,0.40673 -0.16482,0.39261 -0.0736,0.39261 0.096,0 0.0893,0.1046 -0.042,0.66652 -0.19202,0.81848 -0.19225,0.79227 0.0169,1.94375 0.2548,1.40296 0.40366,1.87164 0.68669,2.16204 0.0668,0.0684 0.13094,0.21303 0.15971,0.35863 0.0345,0.1738 0.092,0.28853 0.19996,0.39773 0.0984,0.0995 0.13122,0.16057 0.0934,0.17381 -0.074,0.0256 0.15804,0.35819 0.36984,0.52925 0.1066,0.086 0.18554,0.11497 0.27112,0.0993 0.18751,-0.0345 0.37841,0.0695 0.67175,0.36467 0.30487,0.30702 0.33541,0.38955 0.13365,0.36115 -0.13012,-0.0183 -0.13311,-0.0152 -0.0693,0.0786 0.0368,0.054 0.1727,0.18363 0.30192,0.2882 0.18152,0.14691 0.22827,0.21044 0.20547,0.27932 -0.0331,0.0991 0.0601,0.19155 0.2721,0.26913 0.13111,0.0486 0.17335,0.15181 0.0744,0.18337 -0.0304,0.01 0.15478,0.19193 0.41032,0.40533 0.28791,0.24038 0.48158,0.37215 0.50919,0.34641 0.0729,-0.0683 0.16637,-0.0478 0.16803,0.0371 10e-4,0.0922 0.0846,0.18896 0.38237,0.44723 0.18816,0.16321 0.23512,0.18372 0.35044,0.15325 0.10564,-0.0284 0.17206,-0.0103 0.3208,0.0865 0.29675,0.19251 0.47669,0.26938 0.63074,0.26938 0.15161,0 0.17319,0.0413 0.0945,0.18298 -0.0412,0.0745 -0.0331,0.087 0.0631,0.087 0.0607,0 0.23422,0.0401 0.38415,0.09 0.34091,0.11259 0.48311,0.12023 0.39769,0.0211 -0.12623,-0.14594 0.007,-0.10606 0.45856,0.13662 0.63014,0.3391 0.94892,0.37785 2.20369,0.26782 0.18576,-0.0164 0.24618,-0.006 0.24618,0.0385 0,0.0388 -0.16117,0.0978 -0.45724,0.1665 -0.38912,0.0904 -0.59686,0.10782 -1.39512,0.1174 -0.62901,0.007 -1.0587,-0.009 -1.30468,-0.0502 z m -0.64146,-6.74663 c 0,-0.01 -0.0577,-0.0515 -0.12898,-0.0927 l -0.12897,-0.0751 0.11074,0.0927 c 0.10803,0.0904 0.14721,0.1105 0.14721,0.0751 z m 6.45671,-4.71659 c -0.0152,-0.0359 -0.0256,-0.0247 -0.0289,0.0276 -0.002,0.048 0.009,0.0738 0.0241,0.0586 0.0158,-0.0152 0.0173,-0.0538 0.003,-0.0863 z m -10.64207,-4.72006 c 0.058,-0.0714 0.0564,-0.0729 -0.0178,-0.0171 -0.0454,0.0342 -0.0821,0.0696 -0.0821,0.0785 0,0.0369 0.0383,0.0136 0.0998,-0.0614 z m 0.53332,-0.41627 c 0.0473,-0.0499 0.0741,-0.09 0.0608,-0.09 -0.0133,0 -0.061,0.0401 -0.10832,0.09 -0.0473,0.0499 -0.0741,0.09 -0.0608,0.09 0.0133,0 0.0611,-0.0401 0.10833,-0.09 z m 0.59029,-0.31637 c 0.15458,-0.0505 0.24243,-0.0587 0.27503,-0.0283 0.0329,0.0317 0.15355,0.0132 0.37869,-0.0578 0.18194,-0.057 0.32244,-0.1121 0.31224,-0.12192 -0.0108,-0.01 -0.16004,0.0277 -0.3329,0.0829 -0.23742,0.0758 -0.3229,0.0874 -0.34935,0.0468 -0.0447,-0.0697 -0.47147,0.0678 -0.65488,0.2102 l -0.12534,0.0975 0.13469,-0.0773 c 0.0739,-0.0421 0.2369,-0.11082 0.36181,-0.15139 z m 1.35198,-0.11426 c 0.13619,-0.0386 0.23947,-0.0781 0.22958,-0.0879 -0.0216,-0.0208 -0.50705,0.1123 -0.50705,0.13935 0,0.0272 0.004,0.0264 0.27747,-0.0516 z m 0.77765,-0.24532 0.1876,-0.0331 -0.16415,-0.004 c -0.0903,-0.002 -0.21687,0.0274 -0.28136,0.0656 -0.0756,0.0448 -0.0842,0.0574 -0.023,0.0368 0.0518,-0.0177 0.17821,-0.0475 0.28138,-0.0656 z m 0.37249,-0.0849 c 0.0148,-0.022 -0.0161,-0.0306 -0.068,-0.0173 -0.10949,0.0278 -0.12335,0.0577 -0.0258,0.0577 0.0371,0 0.0792,-0.0184 0.0939,-0.0404 z m 1.51409,0.014 c -0.0158,-0.0152 -0.0558,-0.0166 -0.0899,-0.003 -0.0373,0.0147 -0.0259,0.0244 0.0289,0.0271 0.0498,0.001 0.0768,-0.008 0.0609,-0.0232 z m -0.28041,-0.0493 c -0.0453,-0.0118 -0.11899,-0.0118 -0.16412,0 -0.0453,0.0119 -0.008,0.0204 0.0821,0.0204 0.0903,0 0.12719,-0.009 0.082,-0.0204 z m -0.4677,-0.0473 c -0.096,-0.0102 -0.26488,-0.0103 -0.37515,-2.9e-4 -0.11031,0.01 -0.0321,0.0175 0.17461,0.0176 0.20633,1.5e-4 0.29657,-0.007 0.20054,-0.0173 z m -0.61186,-0.0392 c -0.0158,-0.0152 -0.0558,-0.0167 -0.0899,-0.003 -0.0373,0.0147 -0.0259,0.0244 0.0289,0.0277 0.0498,0.002 0.0768,-0.008 0.0609,-0.0232 z m -0.31743,10.81717 c -0.47769,-0.32848 -0.65466,-0.49837 -0.65466,-0.62845 0,-0.0693 0.0164,-0.12548 0.0361,-0.12548 0.068,0 0.86618,0.79994 0.84873,0.85023 -0.0108,0.0297 -0.10646,-0.0118 -0.23022,-0.0963 z m -0.24581,-0.83399 c -0.24808,-0.24059 -0.32756,-0.36999 -0.22731,-0.36999 0.0597,0 0.52187,0.50723 0.52187,0.57343 0,0.0315 -0.005,0.0564 -0.0136,0.0564 -0.007,0 -0.13386,-0.11702 -0.28138,-0.26006 z m 2.74486,-0.98486 c -0.13099,-0.051 -0.0496,-0.14469 0.16413,-0.18863 0.12252,-0.0247 0.31721,-0.0865 0.43266,-0.13607 0.11544,-0.05 0.21822,-0.0822 0.2284,-0.0724 0.0109,0.01 -0.0416,0.10982 -0.1161,0.22229 -0.1338,0.20324 -0.1362,0.20447 -0.39255,0.20103 -0.14185,-0.002 -0.28429,-0.014 -0.31654,-0.0261 z m 1.40685,-1.00669 c -0.12658,-0.0492 -0.13182,-0.13193 -0.0258,-0.41492 0.0908,-0.24304 0.18492,-0.29099 0.13254,-0.0679 -0.0188,0.0803 -0.0434,0.19689 -0.0558,0.25876 l -0.0214,0.11253 0.0937,-0.10244 c 0.0553,-0.06 0.10679,-0.20287 0.12572,-0.34827 0.0176,-0.13523 0.051,-0.23477 0.0734,-0.2212 0.0577,0.0345 0.052,0.39025 -0.0115,0.62947 -0.0548,0.20898 -0.10414,0.23333 -0.31097,0.15352 z m -11.09747,-0.56484 c -0.0158,-0.0389 -0.0291,-0.19272 -0.0291,-0.3413 0,-0.19599 0.0163,-0.26498 0.0582,-0.25149 0.0698,0.0217 0.11055,0.66397 0.0417,0.66397 -0.0237,0 -0.0565,-0.0324 -0.0724,-0.0713 z m 11.28172,-1.05269 c -0.0728,-0.0946 -0.0953,-0.16925 -0.0744,-0.24828 0.0419,-0.16229 0.15345,-0.1392 0.23534,0.0493 0.12744,0.29265 0.0169,0.42982 -0.16068,0.19933 z m -11.29134,-0.71449 c -0.003,-0.2552 -3e-5,-0.26307 0.11766,-0.25879 0.0998,0.003 0.12394,0.0295 0.1354,0.14186 0.0134,0.12741 -0.13141,0.38015 -0.21712,0.38015 -0.0178,0 -0.0341,-0.11847 -0.036,-0.26322 z m 12.15579,-5.53255 c 0.006,-0.40271 0.077,-0.53918 0.13235,-0.25719 0.0382,0.19648 -0.0111,0.54345 -0.0848,0.6027 -0.0401,0.0325 -0.0527,-0.0555 -0.048,-0.34551 z m -6.16197,-0.24136 c 0.0188,-0.0543 0.66576,-0.30854 0.78511,-0.30854 0.1402,0 -0.1113,0.16489 -0.40136,0.26308 -0.32342,0.10957 -0.40953,0.11977 -0.38375,0.0457 z"
       class="ColorScheme-Text"
       id="path12" />
  </g>
</svg>
