<?xml version="1.0" encoding="UTF-8" standalone="no"?>
<svg
   width="64"
   version="1.1"
   height="64"
   id="svg17"
   sodipodi:docname="folder-database.svg"
   inkscape:version="1.1.1 (3bf5ae0d25, 2021-09-20)"
   xmlns:inkscape="http://www.inkscape.org/namespaces/inkscape"
   xmlns:sodipodi="http://sodipodi.sourceforge.net/DTD/sodipodi-0.dtd"
   xmlns:xlink="http://www.w3.org/1999/xlink"
   xmlns="http://www.w3.org/2000/svg"
   xmlns:svg="http://www.w3.org/2000/svg"
   xmlns:rdf="http://www.w3.org/1999/02/22-rdf-syntax-ns#"
   xmlns:cc="http://creativecommons.org/ns#"
   xmlns:dc="http://purl.org/dc/elements/1.1/">
  <sodipodi:namedview
     pagecolor="#ffffff"
     bordercolor="#666666"
     borderopacity="1"
     objecttolerance="10"
     gridtolerance="10"
     guidetolerance="10"
     inkscape:pageopacity="0"
     inkscape:pageshadow="2"
     inkscape:window-width="1920"
     inkscape:window-height="1011"
     id="namedview19"
     showgrid="true"
     inkscape:zoom="9.8125004"
     inkscape:cx="34.547769"
     inkscape:cy="36.127387"
     inkscape:window-x="0"
     inkscape:window-y="0"
     inkscape:window-maximized="1"
     inkscape:current-layer="layer1"
     inkscape:document-rotation="0"
     inkscape:pagecheckerboard="0">
    <inkscape:grid
       type="xygrid"
       id="grid908" />
  </sodipodi:namedview>
  <defs
     id="defs5455">
    <linearGradient
       inkscape:collect="always"
       id="linearGradient842">
      <stop
         style="stop-color:#326e9a;stop-opacity:1"
         offset="0"
         id="stop838" />
      <stop
         style="stop-color:#339993;stop-opacity:1"
         offset="1"
         id="stop840" />
    </linearGradient>
    <linearGradient
       inkscape:collect="always"
       xlink:href="#linearGradient860"
       id="linearGradient862"
       x1="113.94677"
       y1="255.36646"
       x2="406.08289"
       y2="255.36646"
       gradientUnits="userSpaceOnUse"
       gradientTransform="matrix(0.20270272,0,0,0.18440693,363.86886,467.51047)" />
    <linearGradient
       inkscape:collect="always"
       id="linearGradient860">
      <stop
         style="stop-color:#78acd3;stop-opacity:1"
         offset="0"
         id="stop856" />
      <stop
         style="stop-color:#d98cbb;stop-opacity:1"
         offset="1"
         id="stop858" />
    </linearGradient>
    <linearGradient
       inkscape:collect="always"
       xlink:href="#linearGradient842"
       id="linearGradient844"
       x1="386.30626"
       y1="522.45407"
       x2="446.83023"
       y2="522.45407"
       gradientUnits="userSpaceOnUse"
       gradientTransform="matrix(0.99134272,0,0,0.99944172,3.6095298,0.30134255)" />
  </defs>
  <metadata
     id="metadata5458">
    <rdf:RDF>
      <cc:Work
         rdf:about="">
        <dc:format>image/svg+xml</dc:format>
        <dc:type
           rdf:resource="http://purl.org/dc/dcmitype/StillImage" />
      </cc:Work>
    </rdf:RDF>
  </metadata>
  <g
     inkscape:label="Capa 1"
     inkscape:groupmode="layer"
     id="layer1"
     transform="translate(-384.57143,-483.798)">
    <path
       style="fill:url(#linearGradient862);fill-opacity:1;stroke-width:0.179137"
       d="m 416.57459,496.95765 c -0.88033,0 -1.92238,-0.5165 -2.31692,-1.14784 l -1.7701,-2.83719 c -0.39274,-0.63133 -1.43479,-1.14667 -2.3148,-1.14782 l -20.40112,-0.0268 c -1.94601,-0.003 -2.7662,0.93496 -2.79385,3.00415 l -0.0117,0.87228 v 2.56642 36.57158 c 0,0.70576 2.3207,2.56642 3.20071,2.56642 h 52.81514 c 0.88002,0 3.20072,-1.86066 3.20072,-2.56642 v -35.28836 c 0,-1.92482 -0.80005,-2.56643 -3.20072,-2.56643 z"
       id="path4-3"
       sodipodi:nodetypes="sccsssccsssssss" />
    <path
       style="fill:#f2f2f2;fill-opacity:1;stroke-width:0.176565"
       d="m 442.34949,510.65747 c 0,1.32548 -0.79577,2.40995 -2.61714,2.40995 h -46.19558 c -1.8214,0 -2.51852,-1.08447 -2.51852,-2.40995 v -7.22985 c 0,-1.32548 0.69712,-2.40996 2.51852,-2.40996 h 46.09644 c 1.82138,0 2.71628,1.08448 2.71628,2.40996 z"
       id="path8-6"
       sodipodi:nodetypes="sssssssss" />
    <path
       style="fill:url(#linearGradient844);fill-opacity:1;stroke-width:0.19334"
       d="m 443.32803,505.1295 h -53.51321 c -1.62181,0 -3.24339,1.47525 -3.24339,2.95052 v 28.76747 c 0,1.95106 1.25421,2.95051 3.24339,2.95051 h 53.51321 c 1.9955,0 3.2434,-0.99945 3.2434,-2.95051 v -28.76747 c 0,-1.47527 -1.62159,-2.95052 -3.2434,-2.95052 z"
       id="path10"
       sodipodi:nodetypes="sssssssss" />
    <path
       fill-rule="evenodd"
       clip-rule="evenodd"
       d="m 443.00893,533.42308 c -0.31036,0 -0.56279,-0.25213 -0.56279,-0.5625 0,-0.31092 0.25243,-0.56306 0.56279,-0.56306 0.31064,0 0.5625,0.25214 0.5625,0.56306 0,0.31037 -0.25186,0.5625 -0.5625,0.5625 z m 0.54162,-4.20669 c -0.008,0.0605 -0.0175,0.12031 -0.0299,0.17909 -0.006,0.0286 -0.0143,0.0555 -0.0214,0.0835 -0.0126,0.0489 -0.0256,0.0983 -0.0412,0.1461 -0.007,0.0208 -0.0151,0.0418 -0.0228,0.0626 -0.0203,0.0549 -0.0412,0.1093 -0.0648,0.16151 -0.007,0.0143 -0.0137,0.0286 -0.0203,0.0423 -0.0264,0.0544 -0.0544,0.10765 -0.0841,0.15929 -0.01,0.0165 -0.0192,0.033 -0.0294,0.0489 -0.0332,0.0533 -0.0679,0.10607 -0.10491,0.15603 -0.006,0.008 -0.0113,0.0154 -0.0173,0.0225 -0.0428,0.0571 -0.089,0.11207 -0.13788,0.16533 -0.002,0.002 -0.004,0.003 -0.005,0.006 -0.0522,0.056 -0.10656,0.11043 -0.16454,0.16095 -0.39607,0.34882 -0.91515,0.5625 -1.48507,0.5625 v 0.0286 c -0.0912,-0.0181 -0.1846,-0.0286 -0.28129,-0.0286 h -12.93732 c -0.77675,0 -1.40682,0.62951 -1.40682,1.40625 v 1.68693 c 0,0.77679 0.63007,1.40629 1.40682,1.40629 h 12.93732 c 0.66333,0 1.22994,-0.5279 1.54635,-0.93108 l 0.002,5.6e-4 c 0.10325,-0.11814 0.25214,-0.19394 0.42131,-0.19394 0.31064,0 0.5625,0.25158 0.5625,0.5625 0,0.58338 -1.00715,1.6875 -2.25,1.6875 h -13.50091 c -1.2427,0 -2.24975,-1.00744 -2.24975,-2.25 v -2.2506 c 0,-1.24256 1.00705,-2.24947 2.24975,-2.24947 h 0.84361 12.37535 c 0.77679,0 1.406,-0.62951 1.406,-1.40625 v -1.68764 c 0,-0.77674 -0.62921,-1.40625 -1.406,-1.40625 h -12.37535 -0.84361 c -1.2427,0 -2.24975,-1.00772 -2.24975,-2.24975 v -2.25029 c 0,-1.24284 1.00705,-2.24975 2.24975,-2.24975 h 13.50025 c 1.24285,0 2.25,1.00691 2.25,2.24975 v 1.68779 c 0,0.31007 -0.25186,0.5625 -0.5625,0.5625 -0.31036,0 -0.56279,-0.25243 -0.56279,-0.5625 v -1.4062 c 0,-0.77674 -0.62921,-1.40681 -1.406,-1.40681 h -12.93732 c -0.77674,0 -1.40681,0.63007 -1.40681,1.40681 v 1.68725 c 0,0.77675 0.63007,1.40598 1.40681,1.40598 h 12.93732 c 0.0967,0 0.19006,-0.0102 0.28129,-0.0286 v 0.0286 c 0.56992,0 1.08904,0.21371 1.48507,0.56277 0.0579,0.0505 0.11233,0.10491 0.16453,0.16095 0.002,0.002 0.004,0.004 0.005,0.006 0.0489,0.053 0.095,0.10793 0.13788,0.16534 0.006,0.007 0.0112,0.0154 0.0173,0.0226 0.0371,0.0503 0.0717,0.10272 0.10491,0.15573 0.0102,0.0162 0.0197,0.0327 0.0294,0.0489 0.0297,0.0519 0.0577,0.10491 0.0841,0.1593 0.007,0.0137 0.0137,0.0281 0.0203,0.0423 0.0236,0.0524 0.0445,0.10683 0.0648,0.16179 0.008,0.0208 0.0162,0.0418 0.0228,0.0626 0.0157,0.0478 0.0286,0.0973 0.0412,0.14611 0.007,0.0281 0.0157,0.0549 0.0214,0.0835 0.0124,0.0585 0.0223,0.11893 0.0299,0.17908 0.002,0.0168 0.005,0.0321 0.007,0.0494 0.009,0.0799 0.0137,0.16179 0.0137,0.24419 v 2.24986 c 0,0.0818 -0.005,0.16369 -0.0137,0.24392 -10e-4,0.017 -0.005,0.0329 -0.007,0.0494 z m -17.41648,-2.5432 c 0.31022,0 0.56194,0.25158 0.56194,0.5625 v 1.1243 c 0,0.31092 -0.25172,0.56306 -0.56194,0.56306 -0.31092,0 -0.56264,-0.25214 -0.56264,-0.56306 v -1.1243 c 0,-0.31092 0.25172,-0.5625 0.56264,-0.5625 z"
       id="path2"
       style="fill:#f2f2f2;fill-opacity:1;stroke-width:0.0351562" />
  </g>
</svg>
