<?xml version="1.0" encoding="UTF-8" standalone="no"?>
<svg
   width="64"
   version="1.1"
   height="64"
   id="svg17"
   sodipodi:docname="folder-Github.svg"
   inkscape:version="1.1.1 (3bf5ae0d25, 2021-09-20)"
   xmlns:inkscape="http://www.inkscape.org/namespaces/inkscape"
   xmlns:sodipodi="http://sodipodi.sourceforge.net/DTD/sodipodi-0.dtd"
   xmlns:xlink="http://www.w3.org/1999/xlink"
   xmlns="http://www.w3.org/2000/svg"
   xmlns:svg="http://www.w3.org/2000/svg"
   xmlns:rdf="http://www.w3.org/1999/02/22-rdf-syntax-ns#"
   xmlns:cc="http://creativecommons.org/ns#"
   xmlns:dc="http://purl.org/dc/elements/1.1/">
  <sodipodi:namedview
     pagecolor="#ffffff"
     bordercolor="#666666"
     borderopacity="1"
     objecttolerance="10"
     gridtolerance="10"
     guidetolerance="10"
     inkscape:pageopacity="0"
     inkscape:pageshadow="2"
     inkscape:window-width="1920"
     inkscape:window-height="1011"
     id="namedview19"
     showgrid="true"
     inkscape:zoom="11.313709"
     inkscape:cx="37.918599"
     inkscape:cy="30.449784"
     inkscape:window-x="0"
     inkscape:window-y="0"
     inkscape:window-maximized="1"
     inkscape:current-layer="layer1"
     inkscape:document-rotation="0"
     inkscape:pagecheckerboard="0">
    <inkscape:grid
       type="xygrid"
       id="grid908" />
  </sodipodi:namedview>
  <defs
     id="defs5455">
    <linearGradient
       inkscape:collect="always"
       id="linearGradient842">
      <stop
         style="stop-color:#326e9a;stop-opacity:1"
         offset="0"
         id="stop838" />
      <stop
         style="stop-color:#339993;stop-opacity:1"
         offset="1"
         id="stop840" />
    </linearGradient>
    <linearGradient
       inkscape:collect="always"
       xlink:href="#linearGradient860"
       id="linearGradient862"
       x1="113.94677"
       y1="255.36646"
       x2="406.08289"
       y2="255.36646"
       gradientUnits="userSpaceOnUse"
       gradientTransform="matrix(0.20270273,0,0,0.18440695,363.86886,467.51047)" />
    <linearGradient
       inkscape:collect="always"
       id="linearGradient860">
      <stop
         style="stop-color:#78acd3;stop-opacity:1"
         offset="0"
         id="stop856" />
      <stop
         style="stop-color:#d98cbb;stop-opacity:1"
         offset="1"
         id="stop858" />
    </linearGradient>
    <linearGradient
       inkscape:collect="always"
       xlink:href="#linearGradient842"
       id="linearGradient844"
       x1="386.30626"
       y1="522.45407"
       x2="446.83023"
       y2="522.45407"
       gradientUnits="userSpaceOnUse"
       gradientTransform="matrix(0.99134277,0,0,0.99944183,3.6095126,0.30129674)" />
  </defs>
  <metadata
     id="metadata5458">
    <rdf:RDF>
      <cc:Work
         rdf:about="">
        <dc:format>image/svg+xml</dc:format>
        <dc:type
           rdf:resource="http://purl.org/dc/dcmitype/StillImage" />
      </cc:Work>
    </rdf:RDF>
  </metadata>
  <g
     inkscape:label="Capa 1"
     inkscape:groupmode="layer"
     id="layer1"
     transform="translate(-384.57143,-483.798)">
    <path
       style="fill:url(#linearGradient862);fill-opacity:1;stroke-width:0.179138"
       d="m 416.57459,496.95765 c -0.88032,0 -1.92237,-0.51649 -2.31692,-1.14784 l -1.7701,-2.83719 c -0.39274,-0.63133 -1.43479,-1.14667 -2.3148,-1.14782 l -20.40112,-0.0268 c -1.946,-0.003 -2.7662,0.93496 -2.79385,3.00415 l -0.0117,0.87228 v 2.56642 36.57158 c 0,0.70576 2.32071,2.56642 3.20071,2.56642 h 52.81515 c 0.88002,0 3.20071,-1.86066 3.20071,-2.56642 v -35.28836 c 0,-1.92482 -0.80004,-2.56643 -3.20071,-2.56643 z"
       id="path4-3"
       sodipodi:nodetypes="sccsssccsssssss" />
    <path
       style="fill:#f2f2f2;fill-opacity:1;stroke-width:0.176565"
       d="m 442.3495,510.65747 c 0,1.32548 -0.79577,2.40995 -2.61715,2.40995 h -46.19558 c -1.82139,0 -2.51852,-1.08447 -2.51852,-2.40995 v -7.22985 c 0,-1.32548 0.69713,-2.40996 2.51852,-2.40996 h 46.09645 c 1.82137,0 2.71628,1.08448 2.71628,2.40996 z"
       id="path8-6"
       sodipodi:nodetypes="sssssssss" />
    <path
       style="fill:url(#linearGradient844);fill-opacity:1;stroke-width:0.19334"
       d="m 443.32803,505.12949 h -53.5132 c -1.62182,0 -3.2434,1.47526 -3.2434,2.95052 v 28.76748 c 0,1.95107 1.25422,2.95051 3.2434,2.95051 h 53.5132 c 1.9955,0 3.2434,-0.99944 3.2434,-2.95051 v -28.76748 c 0,-1.47526 -1.62159,-2.95052 -3.2434,-2.95052 z"
       id="path10"
       sodipodi:nodetypes="sssssssss" />
    <path
       clip-rule="evenodd"
       d="m 432.37347,531.94142 c 0,-0.31586 0.2535,-0.57143 0.5668,-0.57143 0.3133,0 0.5668,0.25557 0.5668,0.57143 0,0.31586 -0.2535,0.57142 -0.5668,0.57142 -0.3133,0 -0.5668,-0.25556 -0.5668,-0.57142 z m 5.57329,4.50554 c -0.15111,0.0435 -0.3072,0.0747 -0.47214,0.0747 -0.93931,0 -1.70039,-0.76727 -1.70039,-1.71426 v -2.07813 c 0,-0.71764 0.45691,-1.32699 1.09099,-1.55135 1.21743,-0.41236 2.3098,-1.44805 2.3098,-2.66512 v -1.143 c 0,-0.54156 -0.21922,-1.04587 -0.56679,-1.47737 v -1.29045 c 0,-0.63101 -0.50757,-0.84712 -1.13361,-0.482 l -0.86846,0.50627 c -0.27812,-0.0727 -0.55904,-0.11356 -0.83193,-0.11356 h -2.26716 c -0.27274,0 -0.5538,0.0409 -0.83192,0.11356 l -0.86847,-0.50627 c -0.62588,-0.36512 -1.13359,-0.14901 -1.13359,0.482 v 1.29045 c -0.34758,0.4315 -0.56679,0.93581 -0.56679,1.47738 v 1.14299 c 0,0.83146 0.51324,1.57812 1.22491,2.10041 l -7e-4,7.5e-4 c 0.14779,0.10212 0.24602,0.27458 0.24602,0.46986 0,0.31528 -0.2542,0.57143 -0.56679,0.57143 -0.16013,0 -0.30372,-0.0677 -0.40669,-0.17522 -0.95712,-0.731 -1.63034,-1.7879 -1.63034,-2.96758 v -1.143 c 0,-0.66154 0.21299,-1.28488 0.5668,-1.8348 v -1.70118 c 0,-1.262 1.01473,-1.69421 2.26717,-0.96414 l 0.9728,0.56738 c 0.24259,-0.0416 0.4857,-0.0674 0.72759,-0.0674 h 2.26716 c 0.24189,0 0.48491,0.0257 0.72761,0.0674 l 0.97278,-0.56738 c 1.25259,-0.73004 2.26718,-0.29786 2.26718,0.96414 v 1.70116 c 0.35368,0.54992 0.56681,1.17327 0.56681,1.83481 v 1.14298 c 0,1.70033 -1.39043,3.14788 -3.02992,3.72707 -0.002,0.002 -0.004,0.006 -0.007,0.007 -0.21312,0.0827 -0.3642,0.29019 -0.3642,0.53403 v 2.02678 c 0,0.31585 0.2535,0.57142 0.56679,0.57142 0.0474,0 0.0907,-0.0134 0.13451,-0.0246 2.91091,-1.18415 4.96664,-4.05355 4.96664,-7.41304 0,-4.41836 -3.55242,-7.99994 -7.93512,-7.99994 -4.38254,0 -7.93512,3.58158 -7.93512,7.99994 0,3.47891 2.20533,6.43089 5.28257,7.53192 0.0158,0.001 0.0303,0.008 0.0467,0.008 0.18694,0 0.33873,-0.15346 0.33873,-0.34149 0,-0.18862 -0.15179,-0.3415 -0.33873,-0.3415 -0.004,0 -0.004,-0.004 -0.007,-0.005 -1.88317,-0.0508 -1.88526,-2.28067 -2.48843,-2.28067 -0.3133,0 -0.5668,-0.25557 -0.5668,-0.57141 0,-0.31586 0.2535,-0.57144 0.5668,-0.57144 0.0598,0 0.14903,0 0.28296,0 1.13431,0 0.97225,2.2857 2.551,2.2857 0.62589,0 1.1336,0.51172 1.1336,1.14285 v 0.99999 c 3e-5,0.55185 -0.44372,0.99995 -0.99199,0.99995 -0.0598,0 -0.1161,-0.0123 -0.17312,-0.0234 -3.89339,-1.02627 -6.76997,-4.58651 -6.76997,-8.83383 0,-5.04936 4.06027,-9.14279 9.06871,-9.14279 5.00844,0 9.06869,4.09343 9.06869,9.14279 0,3.87175 -2.39087,7.17309 -5.76258,8.50567 z"
       id="path2"
       style="fill:#f2f2f2;fill-opacity:1;stroke-width:0.035569" />
  </g>
</svg>
