<?xml version="1.0" encoding="UTF-8" standalone="no"?>
<svg
   width="64"
   version="1.1"
   height="64"
   id="svg17"
   sodipodi:docname="folder-development.svg"
   inkscape:version="1.1.1 (3bf5ae0d25, 2021-09-20)"
   xmlns:inkscape="http://www.inkscape.org/namespaces/inkscape"
   xmlns:sodipodi="http://sodipodi.sourceforge.net/DTD/sodipodi-0.dtd"
   xmlns:xlink="http://www.w3.org/1999/xlink"
   xmlns="http://www.w3.org/2000/svg"
   xmlns:svg="http://www.w3.org/2000/svg"
   xmlns:rdf="http://www.w3.org/1999/02/22-rdf-syntax-ns#"
   xmlns:cc="http://creativecommons.org/ns#"
   xmlns:dc="http://purl.org/dc/elements/1.1/">
  <sodipodi:namedview
     pagecolor="#ffffff"
     bordercolor="#666666"
     borderopacity="1"
     objecttolerance="10"
     gridtolerance="10"
     guidetolerance="10"
     inkscape:pageopacity="0"
     inkscape:pageshadow="2"
     inkscape:window-width="1920"
     inkscape:window-height="1011"
     id="namedview19"
     showgrid="true"
     inkscape:zoom="9.8125003"
     inkscape:cx="30.675158"
     inkscape:cy="37.65605"
     inkscape:window-x="0"
     inkscape:window-y="0"
     inkscape:window-maximized="1"
     inkscape:current-layer="layer1"
     inkscape:document-rotation="0"
     inkscape:pagecheckerboard="0">
    <inkscape:grid
       type="xygrid"
       id="grid908" />
  </sodipodi:namedview>
  <defs
     id="defs5455">
    <linearGradient
       inkscape:collect="always"
       id="linearGradient842">
      <stop
         style="stop-color:#326e9a;stop-opacity:1"
         offset="0"
         id="stop838" />
      <stop
         style="stop-color:#339993;stop-opacity:1"
         offset="1"
         id="stop840" />
    </linearGradient>
    <linearGradient
       inkscape:collect="always"
       xlink:href="#linearGradient860"
       id="linearGradient862"
       x1="113.94677"
       y1="255.36646"
       x2="406.08289"
       y2="255.36646"
       gradientUnits="userSpaceOnUse"
       gradientTransform="matrix(0.20270273,0,0,0.18440695,363.86886,467.51047)" />
    <linearGradient
       inkscape:collect="always"
       id="linearGradient860">
      <stop
         style="stop-color:#78acd3;stop-opacity:1"
         offset="0"
         id="stop856" />
      <stop
         style="stop-color:#d98cbb;stop-opacity:1"
         offset="1"
         id="stop858" />
    </linearGradient>
    <linearGradient
       inkscape:collect="always"
       xlink:href="#linearGradient842"
       id="linearGradient844"
       x1="386.30626"
       y1="522.45407"
       x2="446.83023"
       y2="522.45407"
       gradientUnits="userSpaceOnUse"
       gradientTransform="matrix(0.99134277,0,0,0.99944183,3.6095126,0.30129674)" />
  </defs>
  <metadata
     id="metadata5458">
    <rdf:RDF>
      <cc:Work
         rdf:about="">
        <dc:format>image/svg+xml</dc:format>
        <dc:type
           rdf:resource="http://purl.org/dc/dcmitype/StillImage" />
      </cc:Work>
    </rdf:RDF>
  </metadata>
  <g
     inkscape:label="Capa 1"
     inkscape:groupmode="layer"
     id="layer1"
     transform="translate(-384.57143,-483.798)">
    <path
       style="fill:url(#linearGradient862);fill-opacity:1;stroke-width:0.179138"
       d="m 416.57459,496.95765 c -0.88032,0 -1.92237,-0.51649 -2.31692,-1.14784 l -1.7701,-2.83719 c -0.39274,-0.63133 -1.43479,-1.14667 -2.3148,-1.14782 l -20.40112,-0.0268 c -1.946,-0.003 -2.7662,0.93496 -2.79385,3.00415 l -0.0117,0.87228 v 2.56642 36.57158 c 0,0.70576 2.32071,2.56642 3.20071,2.56642 h 52.81515 c 0.88002,0 3.20071,-1.86066 3.20071,-2.56642 v -35.28836 c 0,-1.92482 -0.80004,-2.56643 -3.20071,-2.56643 z"
       id="path4-3"
       sodipodi:nodetypes="sccsssccsssssss" />
    <path
       style="fill:#f2f2f2;fill-opacity:1;stroke-width:0.176565"
       d="m 442.3495,510.65747 c 0,1.32548 -0.79577,2.40995 -2.61715,2.40995 h -46.19558 c -1.82139,0 -2.51852,-1.08447 -2.51852,-2.40995 v -7.22985 c 0,-1.32548 0.69713,-2.40996 2.51852,-2.40996 h 46.09645 c 1.82137,0 2.71628,1.08448 2.71628,2.40996 z"
       id="path8-6"
       sodipodi:nodetypes="sssssssss" />
    <path
       style="fill:url(#linearGradient844);fill-opacity:1;stroke-width:0.19334"
       d="m 443.32803,505.12949 h -53.5132 c -1.62182,0 -3.2434,1.47526 -3.2434,2.95052 v 28.76748 c 0,1.95107 1.25422,2.95051 3.2434,2.95051 h 53.5132 c 1.9955,0 3.2434,-0.99944 3.2434,-2.95051 v -28.76748 c 0,-1.47526 -1.62159,-2.95052 -3.2434,-2.95052 z"
       id="path10"
       sodipodi:nodetypes="sssssssss" />
    <path
       fill-rule="evenodd"
       clip-rule="evenodd"
       d="m 425.62059,522.01049 c 0,-0.35481 0.28535,-0.64249 0.63729,-0.64249 0.35195,0 0.6373,0.28768 0.6373,0.64249 0,0.35482 -0.28535,0.6425 -0.6373,0.6425 -0.35194,0 -0.63729,-0.28768 -0.63729,-0.6425 z m 2.54917,0 c 0,-0.35481 0.28535,-0.64249 0.6373,-0.64249 0.35193,0 0.63728,0.28768 0.63728,0.64249 0,0.35482 -0.28535,0.6425 -0.63728,0.6425 -0.35195,0 -0.6373,-0.28768 -0.6373,-0.6425 z m 2.54916,0 c 0,-0.35481 0.28535,-0.64249 0.6373,-0.64249 0.35194,0 0.63729,0.28768 0.63729,0.64249 0,0.35482 -0.28535,0.6425 -0.63729,0.6425 -0.35195,0 -0.6373,-0.28768 -0.6373,-0.6425 z m 12.74584,3.53375 v 8.67372 c 0,1.41928 -1.14139,2.57 -2.54916,2.57 h -15.29501 c -1.40777,0 -2.54916,-1.15072 -2.54916,-2.57 v -7.06748 c 0,-0.35482 0.28534,-0.6425 0.63729,-0.6425 0.35195,0 0.63729,0.28768 0.63729,0.6425 v 7.06748 c 0,0.70964 0.5707,1.28499 1.27458,1.28499 h 15.29501 c 0.70388,0 1.27458,-0.57535 1.27458,-1.28499 v -8.35247 c 0,-0.35483 -0.28534,-0.6425 -0.63729,-0.6425 h -16.88823 c -0.88002,0 -1.59323,-0.71904 -1.59323,-1.60625 V 521.368 c 0,-1.41929 1.14139,-2.57 2.54916,-2.57 h 15.29501 c 1.40777,0 2.54916,1.15071 2.54916,2.57 v 0.64249 c 0,0.35482 -0.28534,0.6425 -0.63729,0.6425 -0.35195,0 -0.63729,-0.28768 -0.63729,-0.6425 V 521.368 c 0,-0.70965 -0.5707,-1.28499 -1.27458,-1.28499 h -15.29501 c -0.70388,0 -1.27458,0.57534 -1.27458,1.28499 v 1.92749 c 0,0.35482 0.28534,0.64249 0.63729,0.64249 h 16.88823 c 0.88002,0 1.59323,0.71904 1.59323,1.60626 z"
       id="path2"
       style="fill:#f2f2f2;fill-opacity:1;stroke-width:0.0399931" />
    <path
       fill-rule="evenodd"
       clip-rule="evenodd"
       d="m 436.29984,531.34829 c -7.4e-4,5.2e-4 -0.002,10e-4 -0.003,10e-4 -0.1041,0.0355 -0.17935,0.13483 -0.17935,0.252 v 2.75175 c 0,0.14706 -0.118,0.26605 -0.26385,0.26605 -0.14559,0 -0.2636,-0.11899 -0.2636,-0.26605 v -2.75175 c 0,-0.34591 0.21839,-0.64067 0.52399,-0.75135 0.004,-10e-4 0.008,-0.004 0.0109,-0.006 0.30302,-0.1121 0.52052,-0.40295 0.52052,-0.74721 0,-0.22018 -0.0881,-0.41946 -0.23115,-0.56352 -0.0482,-0.0484 -0.0782,-0.1151 -0.0782,-0.18876 0,-0.14704 0.11814,-0.26617 0.26413,-0.26617 0.0771,0 0.14608,0.0341 0.19427,0.0874 0.23344,0.24019 0.37864,0.56795 0.37864,0.93102 0,0.5769 -0.36408,1.06689 -0.87365,1.25136 z m -0.70589,-2.0048 c -0.004,0.002 -0.008,0.004 -0.0109,0.006 -0.30303,0.11186 -0.52038,0.40272 -0.52038,0.7472 0,0.22045 0.0886,0.41998 0.23191,0.56432 0.0477,0.0481 0.0772,0.11482 0.0772,0.18821 0,0.14679 -0.11801,0.26577 -0.26387,0.26577 -0.076,0 -0.14403,-0.0328 -0.19236,-0.0847 -0.23486,-0.24045 -0.3807,-0.56937 -0.3807,-0.93362 0,-0.57664 0.36384,-1.06547 0.87275,-1.25046 9.9e-4,-7.5e-4 0.003,-0.002 0.004,-0.002 0.1041,-0.0356 0.17923,-0.13483 0.17923,-0.25215 v -1.15545 c 0,-0.1468 0.118,-0.26617 0.26358,-0.26617 0.14586,0 0.26386,0.11938 0.26386,0.26617 v 1.15548 c -2e-5,0.34633 -0.21826,0.64082 -0.52386,0.7515 z m 0.25999,-2.70524 c -0.14559,0 -0.2636,-0.119 -0.2636,-0.2658 0,-0.14704 0.11801,-0.26603 0.2636,-0.26603 0.14583,0 0.26384,0.11899 0.26384,0.26603 0,0.1468 -0.11801,0.2658 -0.26384,0.2658 z m -2.19232,6.83799 c -0.002,6.5e-4 -0.002,0.002 -0.003,0.002 -0.1041,0.0355 -0.17934,0.13509 -0.17934,0.25199 v 0.62342 c 0,0.14706 -0.11802,0.26604 -0.26387,0.26604 -0.14559,0 -0.2636,-0.11898 -0.2636,-0.26604 v -0.62342 c 0,-0.34603 0.21838,-0.64067 0.52399,-0.75134 0.004,-10e-4 0.008,-0.004 0.0109,-0.006 0.30291,-0.11224 0.5204,-0.4031 0.5204,-0.74722 0,-0.22017 -0.0881,-0.41944 -0.23102,-0.56352 -0.0483,-0.0484 -0.0782,-0.1151 -0.0782,-0.18887 0,-0.14705 0.11814,-0.26603 0.26398,-0.26603 0.0772,0 0.1461,0.034 0.19429,0.0874 0.23358,0.24006 0.3788,0.56794 0.3788,0.931 -2e-5,0.57654 -0.36399,1.06664 -0.87317,1.25099 z m -0.70642,-2.00453 c -0.005,10e-4 -0.008,0.005 -0.0118,0.007 -0.3022,0.1121 -0.51955,0.40271 -0.51955,0.74667 0,0.22033 0.0887,0.41999 0.23192,0.56431 0.0478,0.0481 0.0772,0.11484 0.0772,0.18822 0,0.14678 -0.11809,0.26578 -0.26393,0.26578 -0.0742,0 -0.14107,-0.0313 -0.189,-0.0812 -0.23733,-0.2403 -0.38406,-0.57119 -0.38406,-0.93712 0,-0.57664 0.36397,-1.0656 0.87281,-1.25045 9.9e-4,-7.5e-4 0.003,-0.002 0.004,-0.002 0.1041,-0.0355 0.17921,-0.13483 0.17921,-0.252 v -4.34788 c 0,-0.14705 0.11801,-0.26604 0.26359,-0.26604 0.14582,0 0.26386,0.11899 0.26386,0.26604 v 4.34788 c -10e-6,0.34631 -0.21826,0.64108 -0.52386,0.75138 z m -1.93233,-1.1881 c -0.002,6.5e-4 -0.002,0.001 -0.003,0.001 -0.10423,0.0358 -0.17934,0.13509 -0.17934,0.25201 v 3.81604 c 0,0.14706 -0.11801,0.26605 -0.26359,0.26605 -0.14591,0 -0.26393,-0.11899 -0.26393,-0.26605 v -3.81604 c 0,-0.34594 0.21837,-0.64068 0.52404,-0.75135 0.004,-0.002 0.008,-0.004 0.0109,-0.006 0.3029,-0.11186 0.52039,-0.4027 0.52039,-0.74694 0,-0.22044 -0.0888,-0.41999 -0.23203,-0.5643 -0.048,-0.0484 -0.0772,-0.11457 -0.0772,-0.18823 0,-0.14679 0.11802,-0.26617 0.26387,-0.26617 0.076,0 0.14417,0.0331 0.19237,0.0851 0.23492,0.24045 0.38077,0.56938 0.38077,0.93362 0,0.57663 -0.36431,1.06636 -0.87309,1.25071 z m -0.70647,-2.00417 c -0.004,10e-4 -0.008,0.004 -0.0109,0.006 -0.30302,0.11211 -0.52051,0.40295 -0.52051,0.74721 0,0.22043 0.0888,0.41971 0.23203,0.56404 0.0476,0.0481 0.0772,0.11484 0.0772,0.18824 0,0.14678 -0.11802,0.26603 -0.26387,0.26603 -0.0757,0 -0.14353,-0.0325 -0.19173,-0.0841 -0.23557,-0.2398 -0.38141,-0.57002 -0.38141,-0.93426 0,-0.57665 0.36391,-1.06664 0.87307,-1.25098 9.9e-4,-6.4e-4 0.002,-10e-4 0.004,-10e-4 0.1041,-0.0355 0.17921,-0.1351 0.17921,-0.25202 v -1.15562 c 0,-0.14705 0.11801,-0.26604 0.26393,-0.26604 0.1456,0 0.26359,0.11899 0.26359,0.26604 v 1.15562 c 1e-5,0.34594 -0.21822,0.6407 -0.52389,0.75137 z"
       id="path2-3"
       style="fill:#f2f2f2;fill-opacity:1;stroke-width:0.0165597" />
  </g>
</svg>
