<?xml version="1.0" encoding="UTF-8" standalone="no"?>
<svg
   width="64"
   version="1.1"
   height="64"
   id="svg17"
   sodipodi:docname="folder-build.svg"
   inkscape:version="1.1.1 (3bf5ae0d25, 2021-09-20)"
   xmlns:inkscape="http://www.inkscape.org/namespaces/inkscape"
   xmlns:sodipodi="http://sodipodi.sourceforge.net/DTD/sodipodi-0.dtd"
   xmlns:xlink="http://www.w3.org/1999/xlink"
   xmlns="http://www.w3.org/2000/svg"
   xmlns:svg="http://www.w3.org/2000/svg"
   xmlns:rdf="http://www.w3.org/1999/02/22-rdf-syntax-ns#"
   xmlns:cc="http://creativecommons.org/ns#"
   xmlns:dc="http://purl.org/dc/elements/1.1/">
  <sodipodi:namedview
     pagecolor="#ffffff"
     bordercolor="#666666"
     borderopacity="1"
     objecttolerance="10"
     gridtolerance="10"
     guidetolerance="10"
     inkscape:pageopacity="0"
     inkscape:pageshadow="2"
     inkscape:window-width="1920"
     inkscape:window-height="1011"
     id="namedview19"
     showgrid="true"
     inkscape:zoom="9.8125004"
     inkscape:cx="34.038215"
     inkscape:cy="41.121017"
     inkscape:window-x="0"
     inkscape:window-y="0"
     inkscape:window-maximized="1"
     inkscape:current-layer="layer1"
     inkscape:document-rotation="0"
     inkscape:pagecheckerboard="0">
    <inkscape:grid
       type="xygrid"
       id="grid908" />
  </sodipodi:namedview>
  <defs
     id="defs5455">
    <linearGradient
       inkscape:collect="always"
       id="linearGradient842">
      <stop
         style="stop-color:#326e9a;stop-opacity:1"
         offset="0"
         id="stop838" />
      <stop
         style="stop-color:#339993;stop-opacity:1"
         offset="1"
         id="stop840" />
    </linearGradient>
    <linearGradient
       inkscape:collect="always"
       xlink:href="#linearGradient860"
       id="linearGradient862"
       x1="113.94677"
       y1="255.36646"
       x2="406.08289"
       y2="255.36646"
       gradientUnits="userSpaceOnUse"
       gradientTransform="matrix(0.20270272,0,0,0.18440693,363.86886,467.51047)" />
    <linearGradient
       inkscape:collect="always"
       id="linearGradient860">
      <stop
         style="stop-color:#78acd3;stop-opacity:1"
         offset="0"
         id="stop856" />
      <stop
         style="stop-color:#d98cbb;stop-opacity:1"
         offset="1"
         id="stop858" />
    </linearGradient>
    <linearGradient
       inkscape:collect="always"
       xlink:href="#linearGradient842"
       id="linearGradient844"
       x1="386.30626"
       y1="522.45407"
       x2="446.83023"
       y2="522.45407"
       gradientUnits="userSpaceOnUse"
       gradientTransform="matrix(0.99134272,0,0,0.99944172,3.6095298,0.30134255)" />
  </defs>
  <metadata
     id="metadata5458">
    <rdf:RDF>
      <cc:Work
         rdf:about="">
        <dc:format>image/svg+xml</dc:format>
        <dc:type
           rdf:resource="http://purl.org/dc/dcmitype/StillImage" />
      </cc:Work>
    </rdf:RDF>
  </metadata>
  <g
     inkscape:label="Capa 1"
     inkscape:groupmode="layer"
     id="layer1"
     transform="translate(-384.57143,-483.798)">
    <path
       style="fill:url(#linearGradient862);fill-opacity:1;stroke-width:0.179137"
       d="m 416.57459,496.95765 c -0.88033,0 -1.92238,-0.5165 -2.31692,-1.14784 l -1.7701,-2.83719 c -0.39274,-0.63133 -1.43479,-1.14667 -2.3148,-1.14782 l -20.40112,-0.0268 c -1.94601,-0.003 -2.7662,0.93496 -2.79385,3.00415 l -0.0117,0.87228 v 2.56642 36.57158 c 0,0.70576 2.3207,2.56642 3.20071,2.56642 h 52.81514 c 0.88002,0 3.20072,-1.86066 3.20072,-2.56642 v -35.28836 c 0,-1.92482 -0.80005,-2.56643 -3.20072,-2.56643 z"
       id="path4-3"
       sodipodi:nodetypes="sccsssccsssssss" />
    <path
       style="fill:#f2f2f2;fill-opacity:1;stroke-width:0.176565"
       d="m 442.34949,510.65747 c 0,1.32548 -0.79577,2.40995 -2.61714,2.40995 h -46.19558 c -1.8214,0 -2.51852,-1.08447 -2.51852,-2.40995 v -7.22985 c 0,-1.32548 0.69712,-2.40996 2.51852,-2.40996 h 46.09644 c 1.82138,0 2.71628,1.08448 2.71628,2.40996 z"
       id="path8-6"
       sodipodi:nodetypes="sssssssss" />
    <path
       style="fill:url(#linearGradient844);fill-opacity:1;stroke-width:0.19334"
       d="m 443.32803,505.1295 h -53.51321 c -1.62181,0 -3.24339,1.47525 -3.24339,2.95052 v 28.76747 c 0,1.95106 1.25421,2.95051 3.24339,2.95051 h 53.51321 c 1.9955,0 3.2434,-0.99945 3.2434,-2.95051 v -28.76747 c 0,-1.47527 -1.62159,-2.95052 -3.2434,-2.95052 z"
       id="path10"
       sodipodi:nodetypes="sssssssss" />
    <path
       fill-rule="evenodd"
       clip-rule="evenodd"
       d="m 431.70643,521.89207 c 0.005,0 0.008,-0.002 0.0129,-0.003 0.6148,0.0614 1.0961,0.58431 1.0961,1.22076 0,0.63775 -0.48188,1.16182 -1.09908,1.22206 -8.2e-4,0.003 -0.003,0.006 -0.004,0.008 -0.005,-3e-4 -0.008,-0.002 -0.0129,-0.002 -0.15519,0 -0.3281,0.0279 -0.39235,0.18435 -0.0643,0.15679 0.0268,0.29351 0.14571,0.41312 0.004,0.004 0.01,0.006 0.0142,0.0101 0.38893,0.48208 0.36692,1.18901 -0.0788,1.63842 -0.4453,0.44906 -1.1471,0.47185 -1.62542,0.0801 -0.007,0.004 -0.0149,0.006 -0.022,0.009 -0.003,-0.004 -0.004,-0.008 -0.008,-0.0123 -0.11018,-0.11064 -0.25127,-0.21436 -0.40665,-0.14901 -0.15565,0.0648 -0.18657,0.22605 -0.18657,0.39572 0,0.0153 0.004,0.0291 0.009,0.0428 -0.0766,0.60439 -0.5849,1.07268 -1.20536,1.07268 -0.63161,0 -1.15067,-0.48478 -1.21207,-1.10536 -0.007,-0.002 -0.0125,-0.007 -0.0193,-0.009 3e-4,-0.003 0.002,-0.006 0.002,-0.009 0,-0.15645 -0.0276,-0.33035 -0.18275,-0.39512 -0.15537,-0.0651 -0.29113,0.0269 -0.4099,0.1469 -0.007,0.007 -0.0107,0.0162 -0.0158,0.0246 -0.47774,0.37714 -1.16732,0.35107 -1.60682,-0.0924 -0.44635,-0.44998 -0.46822,-1.15842 -0.0775,-1.6408 -0.004,-0.008 -0.007,-0.0174 -0.01,-0.0264 0.10973,-0.11063 0.21217,-0.25304 0.1478,-0.40954 -0.0646,-0.15646 -0.2248,-0.18825 -0.39297,-0.18825 -0.011,0 -0.0207,0.004 -0.0311,0.007 -0.59904,-0.0768 -1.06337,-0.59025 -1.06337,-1.2151 0,-0.63917 0.48413,-1.16337 1.10293,-1.22197 0.002,-0.006 0.005,-0.0105 0.007,-0.0159 0.153,-0.002 0.32026,-0.0303 0.38333,-0.18408 0.0643,-0.15622 -0.0262,-0.29231 -0.14482,-0.41191 -0.38971,-0.48177 -0.36784,-1.18961 0.0783,-1.63931 0.44765,-0.45163 1.15468,-0.47247 1.63299,-0.0736 0.005,-0.002 0.0102,-0.003 0.0155,-0.006 0.10884,0.10808 0.24741,0.2061 0.39951,0.14272 0.15537,-0.065 0.18661,-0.22664 0.18661,-0.39605 0,-6.1e-4 -3e-4,-8.2e-4 -3e-4,-0.002 0.0618,-0.62012 0.57939,-1.1043 1.2107,-1.1043 0.63503,0 1.15558,0.48958 1.21236,1.11466 0.002,4.3e-4 0.002,0.002 0.003,0.002 0,0.0368 0.002,0.0745 0.007,0.11153 h -0.004 c 0,0.16939 -0.13618,0.30714 -0.3045,0.30714 -0.16786,0 -0.30419,-0.13775 -0.30419,-0.30714 0,-0.33923 -0.27284,-0.61399 -0.60917,-0.61399 -0.33648,0 -0.60902,0.27476 -0.60902,0.61399 v 0.30714 l -0.002,0.002 c 0.006,0.20296 -0.12251,0.39244 -0.32456,0.45299 -0.005,0.002 -0.0101,0.002 -0.0149,0.003 l -0.003,0.005 c -0.14242,0.0483 -0.2807,0.10581 -0.41333,0.17356 l -0.009,-0.002 c -0.005,0.002 -0.009,0.007 -0.0146,0.0101 -0.19701,0.10749 -0.43728,0.0537 -0.57257,-0.11662 l -0.18988,-0.19129 c -0.23805,-0.23982 -0.62372,-0.23982 -0.86133,0 -0.23772,0.23986 -0.23772,0.62869 0,0.86823 l 0.21529,0.2172 0.002,0.009 c 0.14244,0.1403 0.18349,0.36217 0.084,0.54744 -0.002,0.002 -0.004,0.005 -0.006,0.008 l 0.002,0.0103 c -0.0664,0.13387 -0.12431,0.27327 -0.17189,0.41717 l -0.009,0.007 c -0.002,0.006 -0.002,0.0106 -0.003,0.0162 -0.0647,0.21916 -0.27684,0.35166 -0.49421,0.32437 h -0.25762 c -0.33648,0 -0.60914,0.27506 -0.60914,0.614 0,0.33884 0.27266,0.61406 0.60914,0.61406 h 0.30421 l 0.009,0.007 c 0.19701,-2.9e-4 0.37943,0.12712 0.43861,0.32709 5.8e-4,0.002 5.8e-4,0.003 8.1e-4,0.006 l 0.0113,0.008 c 0.0479,0.1436 0.10526,0.283 0.17218,0.41669 l -0.002,0.0187 c 0.002,0.003 0.005,0.007 0.007,0.0101 0.10662,0.19848 0.0533,0.44071 -0.11566,0.57711 l -0.18498,0.18677 c -0.23772,0.23953 -0.23772,0.62838 0,0.86822 0.2376,0.23953 0.62329,0.23953 0.86134,0 l 0.21544,-0.21705 0.009,-0.002 c 0.13886,-0.1397 0.35653,-0.17898 0.53806,-0.0801 0.002,5.9e-4 0.002,0.002 0.003,0.002 l 0.0196,-0.003 c 0.13279,0.0669 0.27105,0.12532 0.41379,0.17328 l 0.0122,0.0162 c 0.002,6e-4 0.004,6e-4 0.007,0.002 0.19894,0.0594 0.32517,0.24404 0.32457,0.44339 l 0.002,0.002 v 0.30726 c 0,0.33908 0.27253,0.61399 0.60901,0.61399 0.33632,0 0.60916,-0.27491 0.60916,-0.61399 v -0.30728 l 0.002,-0.002 c -5.9e-4,-0.19936 0.12565,-0.38373 0.32458,-0.44338 0.002,-8.2e-4 0.004,-8.2e-4 0.007,-0.002 l 0.012,-0.0159 c 0.14244,-0.0483 0.28056,-0.10584 0.41329,-0.17359 l 0.02,0.003 c 8e-4,-5.8e-4 0.002,-0.002 0.003,-0.002 0.18155,-0.0989 0.39924,-0.0597 0.53809,0.0802 l 0.009,0.002 0.21543,0.21705 c 0.23759,0.23953 0.62329,0.23953 0.86134,0 0.23775,-0.23984 0.23775,-0.62868 0,-0.86822 l -0.18512,-0.18677 c -0.1689,-0.1364 -0.22212,-0.37863 -0.11552,-0.57711 0.002,-0.003 0.004,-0.007 0.007,-0.0101 l -0.003,-0.0204 c 0.0664,-0.1337 0.12476,-0.2713 0.17189,-0.4146 l 0.0119,-0.009 c 4.4e-4,-0.002 7.4e-4,-0.003 8.1e-4,-0.005 0.0591,-0.19997 0.24132,-0.32708 0.43832,-0.32708 l 0.009,-0.007 h 0.30462 c 0.33648,0 0.60901,-0.27522 0.60901,-0.61409 0,-0.33891 -0.27253,-0.61396 -0.60901,-0.61396 h -0.25779 c -0.21768,0.0273 -0.42954,-0.10523 -0.49408,-0.32439 -0.002,-0.006 -0.002,-0.0111 -0.003,-0.0166 l -0.009,-0.007 c -0.0478,-0.14361 -0.10527,-0.28302 -0.17204,-0.41643 l 0.002,-0.0108 c -0.002,-0.003 -0.004,-0.005 -0.006,-0.008 -0.0995,-0.18527 -0.0585,-0.40713 0.0838,-0.54744 l 0.002,-0.009 0.21544,-0.21719 c 0.23774,-0.23954 0.23774,-0.62838 0,-0.86823 -0.11302,-0.1136 -0.27835,-0.17852 -0.42628,-0.18437 -0.16831,0 -0.30466,-0.1373 -0.30466,-0.307 0,-0.16968 0.13635,-0.30698 0.30466,-0.30698 0.0218,0 0.043,0.002 0.0637,0.007 0.28637,0.0189 0.57512,0.13747 0.79308,0.35752 0.44737,0.4509 0.46862,1.16202 0.075,1.64425 0.002,0.002 0.002,0.007 0.003,0.009 -0.002,0.002 -0.003,0.002 -0.005,0.003 -0.10987,0.11092 -0.21262,0.25334 -0.14823,0.41028 0.0642,0.15663 0.22459,0.18812 0.39258,0.18812 z m -2.08826,-1.54515 c -0.16831,0 -0.3045,-0.13763 -0.3045,-0.30715 0,-0.16924 0.13619,-0.3067 0.3045,-0.3067 0.16787,0 0.3042,0.13746 0.3042,0.3067 0,0.16952 -0.13633,0.30715 -0.3042,0.30715 z m -3.06552,5.50345 0.0229,-5.8e-4 v 0 z m 0.43668,0.17269 v 0 l 0.0184,0.0177 -0.0184,-0.0177 v 0 0 0 0 0 l 0.0184,0.0177 z"
       id="path2"
       sodipodi:nodetypes="scsccsccccccccscsccscccccccscsccccccccscsccccsssscccccccccccccccccccccsssccccccccccccccccccccccsssccccccccccccccccccccccsssccccccccccccssccccccsssssscccccccccccccccc"
       style="fill:#f2f2f2;fill-opacity:1;stroke-width:0.0191093" />
    <path
       fill-rule="evenodd"
       clip-rule="evenodd"
       d="m 439.69574,527.42902 c 0,0.005 0.002,0.008 0.003,0.013 -0.0609,0.61983 -0.57957,1.10507 -1.21086,1.10507 -0.63259,0 -1.15239,-0.48582 -1.21216,-1.10807 -0.003,-8.2e-4 -0.006,-0.003 -0.008,-0.004 3e-4,-0.005 0.002,-0.008 0.002,-0.013 0,-0.15647 -0.0277,-0.3308 -0.18285,-0.39556 -0.15553,-0.0648 -0.29113,0.027 -0.40977,0.14689 -0.004,0.004 -0.006,0.0101 -0.01,0.0143 -0.47816,0.3921 -1.17936,0.36991 -1.62513,-0.0794 -0.44543,-0.44893 -0.46805,-1.15646 -0.0794,-1.63868 -0.004,-0.007 -0.006,-0.015 -0.009,-0.0222 0.004,-0.003 0.008,-0.004 0.0122,-0.008 0.10975,-0.11107 0.21263,-0.25332 0.14781,-0.40997 -0.0643,-0.15691 -0.22422,-0.18809 -0.3925,-0.18809 -0.0152,0 -0.0289,0.004 -0.0426,0.009 -0.5995,-0.0771 -1.06399,-0.58968 -1.06399,-1.21522 0,-0.63675 0.48085,-1.16005 1.0964,-1.22196 0.002,-0.007 0.007,-0.0126 0.009,-0.0195 0.003,3.1e-4 0.006,0.002 0.009,0.002 0.1552,0 0.32767,-0.0278 0.3919,-0.18424 0.0646,-0.15664 -0.0268,-0.2935 -0.1457,-0.41324 -0.007,-0.007 -0.0161,-0.0108 -0.0244,-0.0159 -0.37408,-0.48166 -0.3482,-1.17687 0.0917,-1.61996 0.44635,-0.45 1.14904,-0.47204 1.62751,-0.0781 0.008,-0.004 0.0173,-0.007 0.0262,-0.0101 0.10974,0.11062 0.25099,0.21389 0.40622,0.149 0.15519,-0.0651 0.18673,-0.22664 0.18673,-0.39618 0,-0.0111 -0.004,-0.0209 -0.007,-0.0314 0.0762,-0.60395 0.58546,-1.07207 1.20525,-1.07207 0.63398,0 1.15393,0.48809 1.21207,1.11194 0.006,0.002 0.0104,0.005 0.0158,0.007 0.002,0.15424 0.0301,0.32288 0.18259,0.38645 0.15494,0.0648 0.28993,-0.0264 0.40857,-0.146 0.47786,-0.39291 1.17997,-0.37085 1.62601,0.0789 0.44798,0.45131 0.46867,1.16411 0.073,1.64633 0.002,0.005 0.003,0.0103 0.006,0.0156 -0.10719,0.10973 -0.20443,0.24944 -0.14155,0.40279 0.0645,0.15664 0.22481,0.18811 0.39283,0.18811 5.9e-4,0 8.1e-4,-2.9e-4 0.002,-2.9e-4 0.61511,0.0623 1.09535,0.58413 1.09535,1.22059 0,0.64021 -0.48561,1.16503 -1.10561,1.22227 -4.3e-4,0.002 -0.002,0.002 -0.002,0.003 -0.0365,0 -0.0739,0.002 -0.11062,0.007 v -0.004 c -0.168,0 -0.30466,-0.13729 -0.30466,-0.30698 0,-0.16925 0.13666,-0.30669 0.30466,-0.30669 0.33649,0 0.60902,-0.27507 0.60902,-0.61415 0,-0.33922 -0.27253,-0.61399 -0.60902,-0.61399 h -0.30466 l -0.002,-0.002 c -0.20131,0.006 -0.38925,-0.1235 -0.44931,-0.32719 -0.002,-0.005 -0.002,-0.0102 -0.003,-0.015 l -0.005,-0.003 c -0.0479,-0.14359 -0.10498,-0.28301 -0.17218,-0.41672 l 0.002,-0.009 c -0.002,-0.005 -0.007,-0.009 -0.01,-0.0147 -0.10662,-0.19862 -0.0532,-0.44085 0.11567,-0.57724 l 0.18972,-0.19144 c 0.23791,-0.23999 0.23791,-0.62882 0,-0.86836 -0.23789,-0.23967 -0.62358,-0.23967 -0.86117,0 l -0.21544,0.21704 -0.009,0.002 c -0.13916,0.1436 -0.35923,0.18497 -0.54299,0.0847 -0.002,-0.002 -0.005,-0.004 -0.008,-0.006 l -0.0102,0.002 c -0.13279,-0.0669 -0.27106,-0.12533 -0.41379,-0.17329 l -0.007,-0.009 c -0.006,-0.002 -0.0105,-0.002 -0.0161,-0.003 -0.21736,-0.0652 -0.3488,-0.27909 -0.32173,-0.49825 v -0.25971 c 0,-0.33923 -0.27284,-0.61413 -0.60902,-0.61413 -0.3361,0 -0.60909,0.2749 -0.60909,0.61413 v 0.30669 l -0.007,0.009 c 3.1e-4,0.19863 -0.12608,0.38254 -0.32442,0.4422 -0.002,5.8e-4 -0.003,5.8e-4 -0.006,8e-4 l -0.008,0.0114 c -0.14243,0.0483 -0.28072,0.10612 -0.41333,0.17357 l -0.0185,-0.002 c -0.003,0.002 -0.007,0.005 -0.01,0.007 -0.19686,0.10749 -0.43714,0.0537 -0.57243,-0.11661 l -0.18526,-0.18648 c -0.23759,-0.23967 -0.62328,-0.23967 -0.86117,0 -0.2376,0.23953 -0.2376,0.62838 0,0.86836 l 0.21528,0.2172 0.002,0.009 c 0.13857,0.13999 0.17752,0.35943 0.0795,0.54244 -6e-4,0.002 -0.002,0.002 -0.002,0.003 l 0.003,0.0198 c -0.0664,0.13387 -0.12431,0.27326 -0.17189,0.41717 l -0.0161,0.0123 c -5.9e-4,0.002 -5.9e-4,0.004 -0.002,0.007 -0.0589,0.20056 -0.24207,0.32782 -0.43981,0.32722 l -0.002,0.002 h -0.30477 c -0.33633,0 -0.60903,0.27477 -0.60903,0.614 0,0.33907 0.2727,0.61413 0.60903,0.61413 h 0.30478 l 0.002,0.002 c 0.19777,-5.9e-4 0.38064,0.12667 0.4398,0.32722 8.1e-4,0.002 8.1e-4,0.004 0.002,0.007 l 0.0158,0.0121 c 0.0479,0.14359 0.10501,0.28285 0.1722,0.41667 l -0.003,0.0202 c 6e-4,8.1e-4 0.002,0.002 0.002,0.003 0.0981,0.18302 0.0592,0.40248 -0.0795,0.54248 l -0.002,0.009 -0.21527,0.2172 c -0.2376,0.23952 -0.2376,0.62838 0,0.86837 0.23789,0.2397 0.62357,0.2397 0.86117,0 l 0.18527,-0.18663 c 0.13528,-0.17028 0.37556,-0.22395 0.57242,-0.11647 0.003,0.002 0.007,0.004 0.01,0.007 l 0.0202,-0.003 c 0.1326,0.067 0.2691,0.12578 0.41124,0.17329 l 0.009,0.012 c 0.002,4.4e-4 0.003,7.5e-4 0.005,8.1e-4 0.19835,0.0596 0.32444,0.24329 0.32444,0.44189 l 0.007,0.009 v 0.3071 c 0,0.33924 0.27299,0.61401 0.60909,0.61401 0.33617,0 0.60901,-0.27477 0.60901,-0.61401 v -0.25987 c -0.0271,-0.21947 0.10438,-0.43305 0.32175,-0.49812 0.006,-0.002 0.011,-0.002 0.0165,-0.003 l 0.007,-0.009 c 0.14244,-0.0482 0.28073,-0.10613 0.41306,-0.17343 l 0.0107,0.002 c 0.003,-0.002 0.005,-0.004 0.008,-0.006 0.18376,-0.10032 0.40383,-0.059 0.54299,0.0846 l 0.009,0.002 0.21544,0.21721 c 0.23759,0.23969 0.62328,0.23969 0.86117,0 0.1127,-0.11395 0.17708,-0.28062 0.18289,-0.42976 0,-0.16968 0.13618,-0.30715 0.3045,-0.30715 0.16832,0 0.30451,0.13747 0.30451,0.30715 0,0.022 -0.002,0.0434 -0.007,0.0642 -0.0188,0.2887 -0.13635,0.5798 -0.35462,0.79956 -0.44725,0.45101 -1.1526,0.47243 -1.63092,0.0756 -0.002,0.002 -0.007,0.002 -0.009,0.003 -0.002,-0.002 -0.002,-0.003 -0.003,-0.005 -0.11001,-0.11078 -0.25127,-0.21436 -0.40696,-0.14945 -0.15535,0.0647 -0.18657,0.22643 -0.18657,0.3958 z m 1.53264,-2.10531 c 0,-0.16969 0.13649,-0.30698 0.30465,-0.30698 0.16786,0 0.3042,0.13729 0.3042,0.30698 0,0.16924 -0.13634,0.30669 -0.3042,0.30669 -0.16816,0 -0.30465,-0.13745 -0.30465,-0.30669 z m -5.45888,-3.09057 5.9e-4,0.0231 v 0 z m -0.17128,0.44026 v 0 l -0.0175,0.0186 0.0175,-0.0186 v 0 0 0 0 0 l -0.0175,0.0186 z"
       id="path2-36"
       sodipodi:nodetypes="scsccsccccccccscsccscccccccscsccccccccscsccccsssscccccccccccccccccccccsssccccccccccccccccccccccsssccccccccccccccccccccccsssccccccccccccssccccccsssssscccccccccccccccc"
       style="fill:#f2f2f2;fill-opacity:1;stroke-width:0.0191093" />
    <path
       fill-rule="evenodd"
       clip-rule="evenodd"
       d="m 437.06967,530.58298 c 0.005,0 0.008,-0.002 0.0129,-0.003 0.61479,0.0613 1.09608,0.58431 1.09608,1.22076 0,0.63774 -0.48188,1.1618 -1.09907,1.22206 -8.1e-4,0.003 -0.003,0.006 -0.004,0.008 -0.005,-3e-4 -0.008,-0.002 -0.0129,-0.002 -0.15518,0 -0.32811,0.0279 -0.39235,0.18435 -0.0643,0.15679 0.0268,0.29352 0.14571,0.41312 0.004,0.004 0.01,0.006 0.0142,0.0101 0.38893,0.48208 0.36692,1.18901 -0.0789,1.63841 -0.4453,0.44907 -1.1471,0.47187 -1.62543,0.0801 -0.007,0.004 -0.0149,0.006 -0.022,0.009 -0.003,-0.004 -0.004,-0.008 -0.008,-0.0123 -0.11018,-0.11066 -0.25129,-0.21437 -0.40666,-0.14902 -0.15565,0.0648 -0.18657,0.22604 -0.18657,0.39571 0,0.0153 0.004,0.0291 0.009,0.043 -0.0766,0.60439 -0.58488,1.07267 -1.20535,1.07267 -0.63161,0 -1.15066,-0.48478 -1.21207,-1.10536 -0.007,-0.002 -0.0125,-0.007 -0.0193,-0.009 3e-4,-0.003 0.002,-0.006 0.002,-0.009 0,-0.15646 -0.0276,-0.33035 -0.18275,-0.39513 -0.15538,-0.0651 -0.29112,0.027 -0.4099,0.1469 -0.007,0.007 -0.0107,0.0162 -0.0158,0.0246 -0.47772,0.37715 -1.16732,0.35106 -1.60681,-0.0923 -0.44635,-0.44999 -0.46822,-1.15842 -0.0775,-1.6408 -0.004,-0.008 -0.007,-0.0174 -0.01,-0.0264 0.10975,-0.11063 0.21218,-0.25304 0.14782,-0.40953 -0.0646,-0.15646 -0.22481,-0.18826 -0.39297,-0.18826 -0.011,0 -0.0207,0.004 -0.0311,0.007 -0.59903,-0.0768 -1.06337,-0.59025 -1.06337,-1.2151 0,-0.63916 0.48412,-1.16334 1.10292,-1.22197 0.002,-0.006 0.005,-0.0105 0.007,-0.0159 0.15299,-0.002 0.32027,-0.0303 0.38332,-0.18409 0.0643,-0.15619 -0.0262,-0.29229 -0.14482,-0.41191 -0.3897,-0.48176 -0.36783,-1.1896 0.0783,-1.63929 0.44767,-0.45165 1.15468,-0.4725 1.633,-0.0736 0.005,-0.002 0.0102,-0.003 0.0155,-0.006 0.10885,0.10808 0.24741,0.20611 0.39951,0.14272 0.15538,-0.065 0.18661,-0.22665 0.18661,-0.39605 0,-5.9e-4 -3e-4,-8.1e-4 -3e-4,-0.002 0.0618,-0.62014 0.57939,-1.1043 1.2107,-1.1043 0.63502,0 1.15559,0.48957 1.21236,1.11463 0.002,4.5e-4 0.002,0.002 0.003,0.002 0,0.0368 0.002,0.0745 0.007,0.11151 h -0.004 c 0,0.16939 -0.13618,0.30716 -0.30451,0.30716 -0.16786,0 -0.3042,-0.13777 -0.3042,-0.30716 0,-0.33923 -0.27283,-0.61399 -0.60915,-0.61399 -0.33649,0 -0.60903,0.27476 -0.60903,0.61399 v 0.30716 l -0.002,0.002 c 0.006,0.20295 -0.1225,0.39243 -0.32457,0.45298 -0.005,0.002 -0.0101,0.002 -0.0149,0.003 l -0.003,0.005 c -0.14242,0.0483 -0.2807,0.10583 -0.41333,0.17359 l -0.009,-0.002 c -0.005,0.002 -0.009,0.007 -0.0146,0.0101 -0.19701,0.10749 -0.43727,0.0537 -0.57257,-0.11661 l -0.18988,-0.19127 c -0.23804,-0.23985 -0.62372,-0.23985 -0.86133,0 -0.23772,0.23982 -0.23772,0.62867 0,0.8682 l 0.21528,0.2172 0.002,0.009 c 0.14244,0.14029 0.1835,0.36215 0.084,0.54742 -0.002,0.002 -0.004,0.005 -0.006,0.008 l 0.002,0.0103 c -0.0664,0.13388 -0.1243,0.27327 -0.1719,0.41717 l -0.009,0.007 c -0.002,0.006 -0.002,0.0106 -0.003,0.0162 -0.0647,0.21916 -0.27684,0.35166 -0.49421,0.32437 h -0.25763 c -0.33648,0 -0.60913,0.27507 -0.60913,0.61399 0,0.33884 0.27265,0.61407 0.60913,0.61407 h 0.30422 l 0.009,0.007 c 0.19701,-3.1e-4 0.37942,0.12712 0.43859,0.32708 6e-4,0.002 6e-4,0.003 8.2e-4,0.006 l 0.0113,0.008 c 0.0479,0.14359 0.10526,0.28301 0.17219,0.41672 l -0.002,0.0186 c 0.002,0.003 0.005,0.007 0.007,0.0101 0.10661,0.19848 0.0533,0.44071 -0.11568,0.57712 l -0.18497,0.18676 c -0.23772,0.23952 -0.23772,0.62838 0,0.86821 0.23759,0.23955 0.62329,0.23955 0.86135,0 l 0.21544,-0.21704 0.009,-0.002 c 0.13885,-0.13969 0.35652,-0.17897 0.53807,-0.08 0.002,6e-4 0.002,0.002 0.003,0.002 l 0.0196,-0.003 c 0.1328,0.067 0.27106,0.12532 0.41379,0.17329 l 0.0122,0.0162 c 0.002,6e-4 0.004,6e-4 0.007,0.002 0.19893,0.0594 0.32515,0.24406 0.32455,0.44342 l 0.002,0.002 v 0.30726 c 0,0.33907 0.27253,0.614 0.609,0.614 0.33633,0 0.60918,-0.27493 0.60918,-0.614 v -0.30727 l 0.002,-0.002 c -5.9e-4,-0.19938 0.12564,-0.38375 0.32459,-0.44341 0.002,-8.1e-4 0.004,-8.1e-4 0.007,-0.002 l 0.012,-0.0159 c 0.14244,-0.0483 0.28057,-0.10584 0.41331,-0.17359 l 0.02,0.003 c 8.2e-4,-6.1e-4 0.002,-0.002 0.003,-0.002 0.18153,-0.0989 0.39923,-0.0597 0.53808,0.0802 l 0.009,0.002 0.21544,0.21704 c 0.2376,0.23954 0.6233,0.23954 0.86134,0 0.23774,-0.23984 0.23774,-0.62869 0,-0.86822 l -0.18512,-0.18677 c -0.16891,-0.1364 -0.22213,-0.37863 -0.11551,-0.57711 0.002,-0.003 0.004,-0.007 0.007,-0.0101 l -0.003,-0.0204 c 0.0663,-0.13368 0.12475,-0.27129 0.17188,-0.41459 l 0.0119,-0.009 c 4.4e-4,-0.002 7.4e-4,-0.003 8.2e-4,-0.005 0.0591,-0.19997 0.24132,-0.32708 0.43831,-0.32708 l 0.009,-0.007 h 0.30462 c 0.33649,0 0.60902,-0.27522 0.60902,-0.61406 0,-0.33893 -0.27253,-0.614 -0.60902,-0.614 h -0.25817 c -0.21769,0.0273 -0.42954,-0.10522 -0.49408,-0.32437 -0.002,-0.006 -0.002,-0.0111 -0.003,-0.0166 l -0.009,-0.007 c -0.0478,-0.14359 -0.10526,-0.283 -0.17203,-0.41642 l 0.002,-0.0108 c -0.002,-0.003 -0.004,-0.005 -0.006,-0.008 -0.0995,-0.18527 -0.0585,-0.40713 0.0838,-0.54741 l 0.002,-0.009 0.21545,-0.2172 c 0.23773,-0.23953 0.23773,-0.62838 0,-0.86821 -0.11303,-0.11361 -0.27835,-0.17852 -0.42628,-0.18437 -0.16832,0 -0.30466,-0.1373 -0.30466,-0.30699 0,-0.16971 0.13634,-0.30702 0.30466,-0.30702 0.0218,0 0.0429,0.002 0.0637,0.007 0.28636,0.0189 0.57512,0.13744 0.79308,0.35751 0.44736,0.45091 0.46863,1.16201 0.075,1.64425 0.002,0.002 0.002,0.007 0.003,0.009 -0.002,0.002 -0.003,0.002 -0.005,0.003 -0.10987,0.1109 -0.21263,0.25332 -0.14823,0.41027 0.0642,0.15662 0.22459,0.18811 0.39258,0.18811 z m -2.08826,-1.54516 c -0.1683,0 -0.3045,-0.13761 -0.3045,-0.30714 0,-0.16923 0.1362,-0.30668 0.3045,-0.30668 0.16787,0 0.3042,0.13745 0.3042,0.30668 0,0.16953 -0.13633,0.30714 -0.3042,0.30714 z m -3.06552,5.50346 0.0229,-5.8e-4 v 0 z m 0.43667,0.17268 v 0 l 0.0185,0.0177 -0.0185,-0.0177 v 0 0 0 0 0 l 0.0185,0.0177 z"
       id="path2-7"
       sodipodi:nodetypes="scsccsccccccccscsccscccccccscsccccccccscsccccsssscccccccccccccccccccccsssccccccccccccccccccccccsssccccccccccccccccccccccsssccccccccccccssccccccsssssscccccccccccccccc"
       style="fill:#f2f2f2;fill-opacity:1;stroke-width:0.0191093" />
  </g>
</svg>
