<?xml version="1.0" encoding="UTF-8" standalone="no"?>
<svg
   width="64"
   version="1.1"
   height="64"
   id="svg17"
   sodipodi:docname="folder-gimp.svg"
   inkscape:version="1.3.2 (091e20ef0f, 2023-11-25)"
   xmlns:inkscape="http://www.inkscape.org/namespaces/inkscape"
   xmlns:sodipodi="http://sodipodi.sourceforge.net/DTD/sodipodi-0.dtd"
   xmlns:xlink="http://www.w3.org/1999/xlink"
   xmlns="http://www.w3.org/2000/svg"
   xmlns:svg="http://www.w3.org/2000/svg"
   xmlns:rdf="http://www.w3.org/1999/02/22-rdf-syntax-ns#"
   xmlns:cc="http://creativecommons.org/ns#"
   xmlns:dc="http://purl.org/dc/elements/1.1/">
  <sodipodi:namedview
     pagecolor="#ffffff"
     bordercolor="#666666"
     borderopacity="1"
     objecttolerance="10"
     gridtolerance="10"
     guidetolerance="10"
     inkscape:pageopacity="0"
     inkscape:pageshadow="2"
     inkscape:window-width="1920"
     inkscape:window-height="994"
     id="namedview19"
     showgrid="true"
     inkscape:zoom="9.8125004"
     inkscape:cx="29.961782"
     inkscape:cy="48.509552"
     inkscape:window-x="0"
     inkscape:window-y="0"
     inkscape:window-maximized="1"
     inkscape:current-layer="layer1"
     inkscape:document-rotation="0"
     inkscape:pagecheckerboard="0"
     inkscape:showpageshadow="2"
     inkscape:deskcolor="#d1d1d1">
    <inkscape:grid
       type="xygrid"
       id="grid908"
       originx="0"
       originy="0"
       spacingy="1"
       spacingx="1"
       units="px"
       visible="true" />
  </sodipodi:namedview>
  <defs
     id="defs5455">
    <linearGradient
       inkscape:collect="always"
       id="linearGradient842">
      <stop
         style="stop-color:#326e9a;stop-opacity:1"
         offset="0"
         id="stop838" />
      <stop
         style="stop-color:#339993;stop-opacity:1"
         offset="1"
         id="stop840" />
    </linearGradient>
    <linearGradient
       inkscape:collect="always"
       xlink:href="#linearGradient860"
       id="linearGradient862"
       x1="113.94677"
       y1="255.36646"
       x2="406.08289"
       y2="255.36646"
       gradientUnits="userSpaceOnUse"
       gradientTransform="matrix(0.20270273,0,0,0.18440695,363.86886,467.51047)" />
    <linearGradient
       inkscape:collect="always"
       id="linearGradient860">
      <stop
         style="stop-color:#78acd3;stop-opacity:1"
         offset="0"
         id="stop856" />
      <stop
         style="stop-color:#d98cbb;stop-opacity:1"
         offset="1"
         id="stop858" />
    </linearGradient>
    <linearGradient
       inkscape:collect="always"
       xlink:href="#linearGradient842"
       id="linearGradient844"
       x1="386.30626"
       y1="522.45407"
       x2="446.83023"
       y2="522.45407"
       gradientUnits="userSpaceOnUse"
       gradientTransform="matrix(0.99134277,0,0,0.99944183,3.6095126,0.30129674)" />
    <linearGradient
       inkscape:collect="always"
       id="linearGradient836">
      <stop
         style="stop-color:#ffb380;stop-opacity:1"
         offset="0"
         id="stop832" />
      <stop
         style="stop-color:#20ffff;stop-opacity:1"
         offset="0.48615947"
         id="stop1390" />
      <stop
         style="stop-color:#ffaeff;stop-opacity:1"
         offset="1"
         id="stop834" />
    </linearGradient>
    <linearGradient
       inkscape:collect="always"
       xlink:href="#linearGradient836"
       id="linearGradient900"
       x1="407.18054"
       y1="519.77393"
       x2="416.80774"
       y2="519.77393"
       gradientUnits="userSpaceOnUse" />
  </defs>
  <metadata
     id="metadata5458">
    <rdf:RDF>
      <cc:Work
         rdf:about="">
        <dc:format>image/svg+xml</dc:format>
        <dc:type
           rdf:resource="http://purl.org/dc/dcmitype/StillImage" />
      </cc:Work>
    </rdf:RDF>
  </metadata>
  <g
     inkscape:label="Capa 1"
     inkscape:groupmode="layer"
     id="layer1"
     transform="translate(-384.57143,-483.798)">
    <path
       style="fill:url(#linearGradient862);fill-opacity:1;stroke-width:0.179138"
       d="m 416.57459,496.95765 c -0.88032,0 -1.92237,-0.51649 -2.31692,-1.14784 l -1.7701,-2.83719 c -0.39274,-0.63133 -1.43479,-1.14667 -2.3148,-1.14782 l -20.40112,-0.0268 c -1.946,-0.003 -2.7662,0.93496 -2.79385,3.00415 l -0.0117,0.87228 v 2.56642 36.57158 c 0,0.70576 2.32071,2.56642 3.20071,2.56642 h 52.81515 c 0.88002,0 3.20071,-1.86066 3.20071,-2.56642 v -35.28836 c 0,-1.92482 -0.80004,-2.56643 -3.20071,-2.56643 z"
       id="path4-3"
       sodipodi:nodetypes="sccsssccsssssss" />
    <path
       style="fill:#f2f2f2;fill-opacity:1;stroke-width:0.176565"
       d="m 442.3495,510.65747 c 0,1.32548 -0.79577,2.40995 -2.61715,2.40995 h -46.19558 c -1.82139,0 -2.51852,-1.08447 -2.51852,-2.40995 v -7.22985 c 0,-1.32548 0.69713,-2.40996 2.51852,-2.40996 h 46.09645 c 1.82137,0 2.71628,1.08448 2.71628,2.40996 z"
       id="path8-6"
       sodipodi:nodetypes="sssssssss" />
    <path
       style="fill:url(#linearGradient844);fill-opacity:1;stroke-width:0.19334"
       d="m 443.32803,505.12949 h -53.5132 c -1.62182,0 -3.2434,1.47526 -3.2434,2.95052 v 28.76748 c 0,1.95107 1.25422,2.95051 3.2434,2.95051 h 53.5132 c 1.9955,0 3.2434,-0.99944 3.2434,-2.95051 v -28.76748 c 0,-1.47526 -1.62159,-2.95052 -3.2434,-2.95052 z"
       id="path10"
       sodipodi:nodetypes="sssssssss" />
    <path
       d="m 440.82957,518.45991 c -0.10133,-0.88973 -0.18191,-1.59255 -0.68295,-1.65776 -0.45453,-0.0584 -0.73643,0.50144 -1.09505,1.55682 -0.7705,2.27078 -2.98987,4.09862 -5.67836,4.69875 -0.47259,-0.30646 -1.0203,-0.48514 -1.60563,-0.48514 -0.68293,0 -1.31509,0.2408 -1.83486,0.64776 -2.43413,-0.23678 -4.21342,-3.08809 -4.23133,-3.11783 l -0.73088,-1.19441 v 5.54305 c -0.17663,0.31498 -0.30058,0.66723 -0.35909,1.04431 -1.02341,-0.76487 -2.21767,-0.9368 -3.06897,-0.32072 -0.48619,0.35225 -0.80486,0.90536 -0.92197,1.59997 -0.17027,1.01058 0.10731,2.17032 0.76168,3.18227 0.77571,1.19975 1.91995,1.89975 2.95023,1.93135 v 0 c 0.68973,0.6369 1.84565,1.54263 2.91162,2.07747 2.0007,1.00469 3.86385,1.50352 5.53911,1.50313 2.43167,0 4.32539,-0.95419 5.80751,-3.03386 2.81903,-3.54684 2.52073,-11.73834 2.23894,-13.97519 z m -6.66305,7.66637 c 0,1.46979 -1.07595,2.66507 -2.39894,2.66507 -1.3231,0 -2.39904,-1.19528 -2.39904,-2.66507 0,-1.46985 1.07594,-2.66517 2.39904,-2.66517 1.32299,0 2.39894,1.19532 2.39894,2.66517 z m -8.40631,0.61112 c -0.11738,-0.18083 -0.24386,-0.34725 -0.37588,-0.50542 -0.005,-0.0808 -0.008,-0.16253 -0.008,-0.24434 0,-1.14823 0.87201,-2.08236 1.94391,-2.08236 0.60139,0 1.15947,0.29935 1.52496,0.79593 -0.17273,0.4367 -0.27028,0.91813 -0.27028,1.42507 0,0.41879 0.0681,0.81898 0.1891,1.1926 -0.3898,0.65432 -0.91044,1.02834 -1.45341,1.02834 -0.33771,0 -0.67092,-0.15051 -0.97113,-0.42509 -0.1355,-0.40558 -0.32789,-0.80542 -0.57336,-1.18473 z m -3.72884,2.70118 c -0.51966,-0.80398 -0.75322,-1.73857 -0.62489,-2.50032 0.053,-0.31404 0.19514,-0.74581 0.57255,-1.0191 0.22028,-0.1595 0.48174,-0.23449 0.76291,-0.23449 0.78883,0 1.73442,0.59034 2.36895,1.57118 0.51931,0.80348 0.75332,1.73766 0.625,2.49944 -0.053,0.31448 -0.19521,0.74623 -0.57265,1.01981 -0.83717,0.60684 -2.27135,-0.003 -3.13187,-1.33652 z m 15.50892,2.34891 c -2.70884,2.77036 -5.40839,2.90725 -9.9673,0.74457 -0.65065,-0.40973 -1.09835,-0.65847 -1.69065,-1.32449 l 0.14126,-0.15656 c 0.33217,-0.49259 0.31893,-0.52451 0.49842,-1.13243 0.0453,-0.2705 0.0575,-0.55169 0.0397,-0.83774 0.24106,0.0984 0.48924,0.15487 0.74359,0.15487 0.69656,0 1.34984,-0.37669 1.86315,-1.04697 0.58061,0.90084 1.52817,1.49114 2.59971,1.49114 1.76364,0 3.19861,-1.59425 3.19861,-3.55347 0,-0.90615 -0.39071,-1.73485 -0.39071,-1.73485 3.11693,-1.33848 3.8122,-2.25876 5.04784,-3.9624 v 0 0 c 0,0 0.46198,7.07171 -2.05759,11.11523 z"
       id="path2"
       sodipodi:nodetypes="ccccscccccccccccccccsssssccsscscscccsccccccsccccccccccscsscc"
       style="color:#232629;fill:#f2f2f2;fill-opacity:1;stroke-width:0.885253"
       class="ColorScheme-Text" />
    <path
       d="m 421.70733,524.91619 a 1.0896431,1.420655 0 1 0 0,2.84125 1.0896431,1.420655 0 1 0 0,-2.84125 z"
       id="path4"
       style="color:#232629;fill:#f2f2f2;fill-opacity:1;stroke-width:0.22883"
       class="ColorScheme-Text" />
    <path
       d="m 431.33323,524.5103 c -0.0412,0 -0.0805,0.006 -0.12109,0.008 0.34311,0.0643 0.60545,0.39611 0.60545,0.79833 0,0.44813 -0.32546,0.81183 -0.72653,0.81183 -0.40094,0 -0.72624,-0.3637 -0.72624,-0.81183 0,-0.21953 0.0797,-0.4184 0.2058,-0.56455 -0.41334,0.2865 -0.69042,0.79352 -0.69042,1.37638 0,0.89672 0.65051,1.62364 1.45282,1.62364 0.80233,0 1.45291,-0.72692 1.45291,-1.62364 0,-0.89659 -0.65058,-1.62355 -1.45291,-1.62355 z"
       id="path6"
       style="color:#232629;fill:#f2f2f2;fill-opacity:1;stroke-width:0.22883"
       class="ColorScheme-Text" />
    <path
       d="m 427.15623,524.5103 c -0.0364,0 -0.0698,0.005 -0.10544,0.007 0.30042,0.0581 0.52993,0.34662 0.52993,0.69854 0,0.39207 -0.28474,0.71032 -0.6357,0.71032 -0.35084,0 -0.63547,-0.31825 -0.63547,-0.71032 0,-0.19201 0.0686,-0.36614 0.18019,-0.49398 -0.36183,0.25083 -0.60461,0.69409 -0.60461,1.2043 0,0.78464 0.56918,1.42067 1.27142,1.42067 0.70202,0 1.27129,-0.63603 1.27129,-1.42067 0,-0.78463 -0.56927,-1.42062 -1.27129,-1.42062 z"
       id="path8"
       style="color:#232629;fill:#f2f2f2;fill-opacity:1;stroke-width:0.22883"
       class="ColorScheme-Text" />
    <path
       d="m 441.1038,532.79872 c -0.54366,-0.61938 -1.30577,-0.75165 -1.89715,-0.32957 -0.005,0.003 -0.006,0.006 -0.0183,0.009 -0.65293,-0.55177 -1.65502,-1.18907 -2.83241,-1.76419 -0.83106,-0.40594 -0.045,-0.25832 -0.73017,-0.46777 l -2.116,1.21689 c 0,0 0.43347,0.39594 2.02753,1.17488 1.11871,0.54632 2.17285,0.92706 2.97662,1.10649 -0.0329,0.31937 -10e-4,0.66604 0.10173,1.01841 0.35483,1.21359 2.39467,1.83947 2.62622,1.90688 l 0.43938,0.12726 7.3e-4,-0.5204 c 9.9e-4,-0.66035 -0.0387,-2.86405 -0.5804,-3.48342 z"
       id="path10-3"
       style="color:#232629;fill:#f2f2f2;fill-opacity:1;stroke-width:0.795693"
       sodipodi:nodetypes="cccccccccccccc"
       class="ColorScheme-Text" />
    <path
       d="m 429.78874,530.86129 c 0,0 5.54093,0.39901 5.54093,-1.01068 0,-0.70057 -0.40438,-1.42591 -0.40438,-1.42591 0,0 1.62225,0.96116 1.37632,2.24102 -0.0389,0.19608 -0.11461,0.40021 -0.24042,0.61084 -1.21316,2.01939 -6.27245,-0.41527 -6.27245,-0.41527 z"
       id="path12"
       style="color:#232629;fill:#f2f2f2;fill-opacity:1;stroke-width:0.22883"
       class="ColorScheme-Text" />
  </g>
</svg>
