<?xml version="1.0" encoding="UTF-8" standalone="no"?>
<svg
   width="64"
   version="1.1"
   height="64"
   id="svg17"
   sodipodi:docname="network-workgroup.svg"
   inkscape:version="1.1.1 (3bf5ae0d25, 2021-09-20)"
   xmlns:inkscape="http://www.inkscape.org/namespaces/inkscape"
   xmlns:sodipodi="http://sodipodi.sourceforge.net/DTD/sodipodi-0.dtd"
   xmlns:xlink="http://www.w3.org/1999/xlink"
   xmlns="http://www.w3.org/2000/svg"
   xmlns:svg="http://www.w3.org/2000/svg"
   xmlns:rdf="http://www.w3.org/1999/02/22-rdf-syntax-ns#"
   xmlns:cc="http://creativecommons.org/ns#"
   xmlns:dc="http://purl.org/dc/elements/1.1/">
  <sodipodi:namedview
     pagecolor="#ffffff"
     bordercolor="#666666"
     borderopacity="1"
     objecttolerance="10"
     gridtolerance="10"
     guidetolerance="10"
     inkscape:pageopacity="0"
     inkscape:pageshadow="2"
     inkscape:window-width="1920"
     inkscape:window-height="1006"
     id="namedview19"
     showgrid="true"
     inkscape:zoom="4.90625"
     inkscape:cx="23.235669"
     inkscape:cy="9.7834395"
     inkscape:window-x="0"
     inkscape:window-y="0"
     inkscape:window-maximized="1"
     inkscape:current-layer="layer1"
     inkscape:document-rotation="0"
     inkscape:pagecheckerboard="0">
    <inkscape:grid
       type="xygrid"
       id="grid877" />
  </sodipodi:namedview>
  <defs
     id="defs5455">
    <linearGradient
       inkscape:collect="always"
       xlink:href="#linearGradient860-6"
       id="linearGradient862"
       x1="113.94677"
       y1="255.36646"
       x2="406.08289"
       y2="255.36646"
       gradientUnits="userSpaceOnUse"
       gradientTransform="matrix(0.20270273,0,0,0.18440695,363.86886,467.51048)" />
    <linearGradient
       inkscape:collect="always"
       id="linearGradient860-6">
      <stop
         style="stop-color:#78acd3;stop-opacity:1"
         offset="0"
         id="stop856-7" />
      <stop
         style="stop-color:#d98cbb;stop-opacity:1"
         offset="1"
         id="stop858-5" />
    </linearGradient>
    <linearGradient
       inkscape:collect="always"
       xlink:href="#linearGradient842-5"
       id="linearGradient844-3"
       x1="386.30627"
       y1="522.45404"
       x2="446.83023"
       y2="522.45404"
       gradientUnits="userSpaceOnUse"
       gradientTransform="matrix(0.99134277,0,0,0.99944183,3.609515,0.30127313)" />
    <linearGradient
       inkscape:collect="always"
       id="linearGradient842-5">
      <stop
         style="stop-color:#326e9a;stop-opacity:1"
         offset="0"
         id="stop838-6" />
      <stop
         style="stop-color:#339993;stop-opacity:1"
         offset="1"
         id="stop840-2" />
    </linearGradient>
  </defs>
  <metadata
     id="metadata5458">
    <rdf:RDF>
      <cc:Work
         rdf:about="">
        <dc:format>image/svg+xml</dc:format>
        <dc:type
           rdf:resource="http://purl.org/dc/dcmitype/StillImage" />
      </cc:Work>
    </rdf:RDF>
  </metadata>
  <g
     inkscape:label="Capa 1"
     inkscape:groupmode="layer"
     id="layer1"
     transform="translate(-384.57143,-483.798)">
    <path
       style="fill:url(#linearGradient862);fill-opacity:1;stroke-width:0.179138"
       d="m 416.57459,496.95766 c -0.88032,0 -1.92237,-0.51649 -2.31692,-1.14784 l -1.7701,-2.83719 c -0.39274,-0.63133 -1.43479,-1.14667 -2.3148,-1.14782 l -20.40112,-0.0268 c -1.946,-0.003 -2.7662,0.93496 -2.79385,3.00415 l -0.0117,0.87228 v 2.56642 36.57158 c 0,0.70576 2.32071,2.56642 3.20071,2.56642 h 52.81515 c 0.88002,0 3.20071,-1.86066 3.20071,-2.56642 v -35.28836 c 0,-1.92482 -0.80004,-2.56643 -3.20071,-2.56643 z"
       id="path4-3-9"
       sodipodi:nodetypes="sccsssccsssssss" />
    <path
       style="fill:#f2f2f2;fill-opacity:1;stroke-width:0.176565"
       d="m 442.3495,510.65748 c 0,1.32548 -0.79577,2.40995 -2.61715,2.40995 h -46.19558 c -1.82139,0 -2.51852,-1.08447 -2.51852,-2.40995 v -7.22985 c 0,-1.32548 0.69713,-2.40996 2.51852,-2.40996 h 46.09645 c 1.82137,0 2.71628,1.08448 2.71628,2.40996 z"
       id="path8-6-1"
       sodipodi:nodetypes="sssssssss" />
    <path
       style="fill:url(#linearGradient844-3);fill-opacity:1;stroke-width:0.19334"
       d="m 443.32803,505.1295 h -53.5132 c -1.62182,0 -3.2434,1.47526 -3.2434,2.95052 v 28.76748 c 0,1.95107 1.25422,2.95051 3.2434,2.95051 h 53.5132 c 1.9955,0 3.2434,-0.99944 3.2434,-2.95051 v -28.76748 c 0,-1.47526 -1.62159,-2.95052 -3.2434,-2.95052 z"
       id="path10-2"
       sodipodi:nodetypes="sssssssss" />
    <path
       fill-rule="evenodd"
       clip-rule="evenodd"
       d="m 432.99987,533.42377 c 0,0.31093 -0.25158,0.5625 -0.5625,0.5625 -0.31036,0 -0.56264,-0.25157 -0.56264,-0.5625 0,-0.31092 0.25228,-0.5625 0.56264,-0.5625 0.31092,0 0.5625,0.25158 0.5625,0.5625 z m -2.25029,0 c 0,0.31093 -0.25157,0.5625 -0.56194,0.5625 -0.31092,0 -0.5625,-0.25157 -0.5625,-0.5625 0,-0.31092 0.25158,-0.5625 0.5625,-0.5625 0.31037,0 0.56195,0.25158 0.56194,0.5625 z m 2.25029,-11.25007 c 0,0.31092 -0.25158,0.5625 -0.5625,0.5625 -0.31036,0 -0.56264,-0.25158 -0.56264,-0.5625 0,-0.31039 0.25228,-0.56264 0.56264,-0.56264 0.31092,0 0.5625,0.25225 0.5625,0.56264 z m -2.25029,0 c 0,0.31092 -0.25157,0.5625 -0.56194,0.5625 -0.31092,0 -0.5625,-0.25158 -0.5625,-0.5625 0,-0.31039 0.25158,-0.56264 0.5625,-0.56264 0.31037,0 0.56195,0.25225 0.56194,0.56264 z m -1.12444,5.62504 c 0,-0.31093 0.25158,-0.56264 0.5625,-0.56264 0.31037,0 0.56195,0.25171 0.56195,0.56264 0,0.31092 -0.25158,0.5625 -0.56195,0.5625 -0.31092,0 -0.5625,-0.25158 -0.5625,-0.5625 z m 2.24958,0 c 0,-0.31093 0.25229,-0.56264 0.56265,-0.56264 0.31092,0 0.5625,0.25171 0.5625,0.56264 0,0.31092 -0.25158,0.5625 -0.5625,0.5625 -0.31036,0 -0.56265,-0.25158 -0.56265,-0.5625 z m 8.99986,9.00007 h -11.24944 c -1.24312,0 -2.25027,-1.00744 -2.25027,-2.25 v -1.68754 c 0,-0.31036 0.25158,-0.5625 0.5625,-0.5625 0.31092,0 0.56264,0.25214 0.56264,0.5625 v 1.68754 c 0,0.62128 0.5033,1.12528 1.12513,1.12528 h 11.24944 c 0.62185,0 1.125,-0.504 1.125,-1.12528 v -2.25004 c 0,-0.62128 -0.50315,-1.12528 -1.125,-1.12528 h -2.24971 -8.99973 c -0.57142,0 -1.09107,-0.21452 -1.48781,-0.56496 -0.0562,-0.0494 -0.10972,-0.10216 -0.1608,-0.15711 -0.002,-0.003 -0.005,-0.005 -0.007,-0.008 -0.0486,-0.0527 -0.0946,-0.10765 -0.13816,-0.16534 -0.005,-0.007 -0.0102,-0.0137 -0.0158,-0.0214 -0.0385,-0.0517 -0.0737,-0.10575 -0.10779,-0.1607 -0.009,-0.0145 -0.0184,-0.0288 -0.0265,-0.0436 -0.0284,-0.0484 -0.0549,-0.0983 -0.0795,-0.14861 -0.01,-0.0195 -0.019,-0.0398 -0.0284,-0.0602 -0.0239,-0.0517 -0.0448,-0.10519 -0.0643,-0.15929 -0.007,-0.0184 -0.0139,-0.036 -0.0202,-0.0549 -0.0183,-0.056 -0.034,-0.11426 -0.0479,-0.17138 -0.005,-0.0192 -0.0107,-0.0368 -0.0146,-0.0563 -0.0144,-0.0656 -0.0251,-0.1324 -0.0334,-0.2005 -0.002,-0.0107 -0.003,-0.0217 -0.005,-0.0321 -0.009,-0.0808 -0.014,-0.16287 -0.014,-0.24556 v -2.25014 c 0,-0.0833 0.005,-0.16524 0.0139,-0.246 5.6e-4,-0.008 0.002,-0.0158 0.004,-0.0241 0.008,-0.0699 0.0197,-0.13992 0.0341,-0.20805 0.004,-0.0197 0.0102,-0.0372 0.0145,-0.0562 0.0139,-0.0574 0.0297,-0.11535 0.0479,-0.17152 0.006,-0.0183 0.0139,-0.0353 0.0202,-0.0535 0.0202,-0.0557 0.0409,-0.1111 0.0656,-0.16397 0.008,-0.0177 0.0163,-0.0335 0.0246,-0.0506 0.0251,-0.053 0.0523,-0.10533 0.082,-0.15575 0.008,-0.0139 0.017,-0.0278 0.0258,-0.0423 0.0353,-0.0574 0.0718,-0.11356 0.11219,-0.16713 0.003,-0.004 0.005,-0.005 0.008,-0.01 0.0927,-0.12291 0.19804,-0.23717 0.31339,-0.33867 0.39607,-0.34881 0.91515,-0.5625 1.48465,-0.5625 h 11.24944 c 0.62184,0 1.125,-0.504 1.125,-1.12527 v -2.25022 c 0,-0.62114 -0.50316,-1.12447 -1.125,-1.12447 h -11.24937 c -0.62184,0 -1.12514,0.50333 -1.12514,1.12447 v 1.68778 c 0,0.31092 -0.25172,0.5625 -0.56264,0.5625 -0.31092,0 -0.5625,-0.25158 -0.5625,-0.5625 v -1.68778 c 0,-1.24246 1.00715,-2.24961 2.25028,-2.24961 h 11.24943 c 1.24313,0 2.25029,1.00715 2.25029,2.24961 v 2.25028 c 0,1.24257 -1.00716,2.24976 -2.25029,2.24976 h -0.30403 -10.9454 c -0.62184,0 -1.12514,0.50385 -1.12514,1.12514 v 2.25014 c 0,0.62128 0.5033,1.12528 1.12514,1.12528 h 10.9454 0.30403 c 1.2431,0 2.25029,1.00719 2.25029,2.24975 v 2.25004 c 0,1.24256 -1.00716,2.25 -2.25029,2.25 z m 1.68779,-7.87507 c -0.31036,0 -0.56279,-0.25214 -0.56279,-0.5625 v -1.12514 c 0,-0.31022 0.25243,-0.5625 0.56279,-0.5625 0.31092,0 0.5625,0.25228 0.5625,0.5625 v 1.12514 c 0,0.31036 -0.25158,0.5625 -0.5625,0.5625 z"
       id="path2-3-9"
       style="fill:#ececec;fill-opacity:1;stroke-width:0.0351562" />
  </g>
</svg>
