<?xml version="1.0" encoding="UTF-8" standalone="no"?>
<svg
   width="64"
   version="1.1"
   height="64"
   id="svg17"
   sodipodi:docname="user-home.svg"
   inkscape:version="1.1.1 (3bf5ae0d25, 2021-09-20)"
   xmlns:inkscape="http://www.inkscape.org/namespaces/inkscape"
   xmlns:sodipodi="http://sodipodi.sourceforge.net/DTD/sodipodi-0.dtd"
   xmlns:xlink="http://www.w3.org/1999/xlink"
   xmlns="http://www.w3.org/2000/svg"
   xmlns:svg="http://www.w3.org/2000/svg"
   xmlns:rdf="http://www.w3.org/1999/02/22-rdf-syntax-ns#"
   xmlns:cc="http://creativecommons.org/ns#"
   xmlns:dc="http://purl.org/dc/elements/1.1/">
  <sodipodi:namedview
     pagecolor="#ffffff"
     bordercolor="#666666"
     borderopacity="1"
     objecttolerance="10"
     gridtolerance="10"
     guidetolerance="10"
     inkscape:pageopacity="0"
     inkscape:pageshadow="2"
     inkscape:window-width="1920"
     inkscape:window-height="1011"
     id="namedview19"
     showgrid="true"
     inkscape:zoom="9.8125004"
     inkscape:cx="34.547769"
     inkscape:cy="28.993629"
     inkscape:window-x="0"
     inkscape:window-y="0"
     inkscape:window-maximized="1"
     inkscape:current-layer="layer1"
     inkscape:document-rotation="0"
     inkscape:pagecheckerboard="0">
    <inkscape:grid
       type="xygrid"
       id="grid908" />
  </sodipodi:namedview>
  <defs
     id="defs5455">
    <linearGradient
       inkscape:collect="always"
       id="linearGradient842">
      <stop
         style="stop-color:#326e9a;stop-opacity:1"
         offset="0"
         id="stop838" />
      <stop
         style="stop-color:#339993;stop-opacity:1"
         offset="1"
         id="stop840" />
    </linearGradient>
    <linearGradient
       inkscape:collect="always"
       xlink:href="#linearGradient860"
       id="linearGradient862"
       x1="113.94677"
       y1="255.36646"
       x2="406.08289"
       y2="255.36646"
       gradientUnits="userSpaceOnUse"
       gradientTransform="matrix(0.20270273,0,0,0.18440695,363.86886,467.51047)" />
    <linearGradient
       inkscape:collect="always"
       id="linearGradient860">
      <stop
         style="stop-color:#78acd3;stop-opacity:1"
         offset="0"
         id="stop856" />
      <stop
         style="stop-color:#d98cbb;stop-opacity:1"
         offset="1"
         id="stop858" />
    </linearGradient>
    <linearGradient
       inkscape:collect="always"
       xlink:href="#linearGradient842"
       id="linearGradient844"
       x1="386.30626"
       y1="522.45407"
       x2="446.83023"
       y2="522.45407"
       gradientUnits="userSpaceOnUse"
       gradientTransform="matrix(0.99134277,0,0,0.99944183,3.6095126,0.30129674)" />
  </defs>
  <metadata
     id="metadata5458">
    <rdf:RDF>
      <cc:Work
         rdf:about="">
        <dc:format>image/svg+xml</dc:format>
        <dc:type
           rdf:resource="http://purl.org/dc/dcmitype/StillImage" />
      </cc:Work>
    </rdf:RDF>
  </metadata>
  <g
     inkscape:label="Capa 1"
     inkscape:groupmode="layer"
     id="layer1"
     transform="translate(-384.57143,-483.798)">
    <path
       style="fill:url(#linearGradient862);fill-opacity:1;stroke-width:0.179138"
       d="m 416.57459,496.95765 c -0.88032,0 -1.92237,-0.51649 -2.31692,-1.14784 l -1.7701,-2.83719 c -0.39274,-0.63133 -1.43479,-1.14667 -2.3148,-1.14782 l -20.40112,-0.0268 c -1.946,-0.003 -2.7662,0.93496 -2.79385,3.00415 l -0.0117,0.87228 v 2.56642 36.57158 c 0,0.70576 2.32071,2.56642 3.20071,2.56642 h 52.81515 c 0.88002,0 3.20071,-1.86066 3.20071,-2.56642 v -35.28836 c 0,-1.92482 -0.80004,-2.56643 -3.20071,-2.56643 z"
       id="path4-3"
       sodipodi:nodetypes="sccsssccsssssss" />
    <path
       style="fill:#f2f2f2;fill-opacity:1;stroke-width:0.176565"
       d="m 442.3495,510.65747 c 0,1.32548 -0.79577,2.40995 -2.61715,2.40995 h -46.19558 c -1.82139,0 -2.51852,-1.08447 -2.51852,-2.40995 v -7.22985 c 0,-1.32548 0.69713,-2.40996 2.51852,-2.40996 h 46.09645 c 1.82137,0 2.71628,1.08448 2.71628,2.40996 z"
       id="path8-6"
       sodipodi:nodetypes="sssssssss" />
    <path
       style="fill:url(#linearGradient844);fill-opacity:1;stroke-width:0.19334"
       d="m 443.32803,505.12949 h -53.5132 c -1.62182,0 -3.2434,1.47526 -3.2434,2.95052 v 28.76748 c 0,1.95107 1.25422,2.95051 3.2434,2.95051 h 53.5132 c 1.9955,0 3.2434,-0.99944 3.2434,-2.95051 v -28.76748 c 0,-1.47526 -1.62159,-2.95052 -3.2434,-2.95052 z"
       id="path10"
       sodipodi:nodetypes="sssssssss" />
    <path
       d="m 443.41574,527.2329 c 0,0.31067 -0.24961,0.56204 -0.55753,0.56204 -0.30816,0 -0.55777,-0.25137 -0.55777,-0.56204 0,-0.14852 -0.92992,-0.85302 -1.15095,-1.07613 l -0.60485,-0.60983 h 0.0174 c -0.30597,-0.38503 -0.4911,-0.87328 -0.4911,-1.40571 v -2.52878 c 0,-0.31068 -0.25048,-0.56233 -0.55781,-0.56233 h -1.11529 c -0.30788,0 -0.55749,0.25169 -0.55749,0.56233 v 0.19293 c 0,0.23275 -0.18673,0.42153 -0.41812,0.42153 -0.11271,0 -0.21451,-0.0458 -0.28969,-0.1191 l -1.84893,-1.86407 c -0.43498,-0.43938 -1.14132,-0.43938 -1.57645,0 l -6.70169,6.75638 c -0.21832,0.2196 -0.32709,0.50691 -0.32709,0.79482 h 0.0118 c 0,0.62038 0.46708,1.12427 0.93121,1.12427 0.53164,0 1.29858,0.75472 1.29858,1.6862 v 3.93453 c 0,0.62079 0.49966,1.12416 1.11516,1.12416 h 1.67281 c 0.30747,0 0.55763,-0.2514 0.55763,-0.56212 v -3.65347 c 0,-0.77613 0.62377,-1.4057 1.39366,-1.4057 h 1.67226 c 0.76984,0 1.39376,0.62957 1.39376,1.4057 v 3.65347 c 0,0.31072 0.24988,0.56212 0.55749,0.56212 h 1.67282 c 0.61547,0 1.11529,-0.50337 1.11529,-1.12416 v -3.93453 c 0,-0.31011 0.24933,-0.5626 0.55694,-0.5626 0.30819,0 0.55752,0.25249 0.55752,0.5626 v 3.93453 c 0,1.24161 -0.99798,2.24828 -2.22978,2.24828 h -1.67282 c -0.92365,0 -1.67223,-0.75526 -1.67223,-1.68624 v -3.3724 c 0,-0.31069 -0.24961,-0.56205 -0.55753,-0.56205 h -1.11526 c -0.30802,0 -0.55752,0.25136 -0.55752,0.56205 v 3.3724 c 0,0.93098 -0.74862,1.68624 -1.67226,1.68624 h -1.67282 c -1.23166,0 -2.22979,-1.00667 -2.22979,-2.24828 v -3.93453 c 0,-0.31011 -0.2601,-0.54229 -0.55753,-0.63231 -0.006,-0.001 -0.009,-0.005 -0.0136,-0.008 -0.95495,-0.25357 -1.6592,-1.12802 -1.6592,-2.17045 v 0.12459 c -0.0338,-0.6164 0.17437,-1.24351 0.64149,-1.71445 l 6.7019,-6.7567 c 0.43547,-0.4391 1.00447,-0.65009 1.57523,-0.65009 0.57077,0 1.14336,0.21099 1.57891,0.65009 l 0.98026,0.98857 c 0.25617,-0.30958 0.63563,-0.51102 1.06682,-0.51102 h 1.67202 c 0.76984,0 1.39376,0.62902 1.39376,1.40517 v 2.81009 c 0,0.3027 0.12003,0.57606 0.31331,0.77807 l 1.27537,1.28578 c 0.43771,0.44104 0.64163,0.6606 0.64163,1.02786 z m -1.67282,1.68631 c 0.30816,0 0.55752,0.25136 0.55752,0.56208 0,0.31015 -0.24936,0.56152 -0.55752,0.56152 -0.30816,0 -0.55749,-0.25137 -0.55749,-0.56152 0,-0.31072 0.24933,-0.56208 0.55749,-0.56208 z"
       id="path2"
       style="fill:#f2f2f2;fill-opacity:1;stroke-width:0.0349939" />
  </g>
</svg>
