<?xml version="1.0" encoding="UTF-8" standalone="no"?>
<svg
   width="63.999996"
   height="32"
   version="1"
   id="svg18"
   sodipodi:docname="checkmarks.svg"
   inkscape:version="1.3.2 (091e20ef0f, 2023-11-25)"
   xmlns:inkscape="http://www.inkscape.org/namespaces/inkscape"
   xmlns:sodipodi="http://sodipodi.sourceforge.net/DTD/sodipodi-0.dtd"
   xmlns="http://www.w3.org/2000/svg"
   xmlns:svg="http://www.w3.org/2000/svg">
  <sodipodi:namedview
     id="namedview20"
     pagecolor="#ffffff"
     bordercolor="#000000"
     borderopacity="1"
     inkscape:pageshadow="2"
     inkscape:pageopacity="0.0"
     inkscape:pagecheckerboard="0"
     showgrid="false"
     inkscape:zoom="6.907167"
     inkscape:cx="33.153969"
     inkscape:cy="41.333878"
     inkscape:window-width="1920"
     inkscape:window-height="998"
     inkscape:window-x="0"
     inkscape:window-y="0"
     inkscape:window-maximized="1"
     inkscape:current-layer="svg18"
     inkscape:lockguides="false"
     inkscape:showpageshadow="2"
     inkscape:deskcolor="#d1d1d1">
    <inkscape:grid
       type="xygrid"
       id="grid2050"
       originx="0"
       originy="0"
       spacingy="1"
       spacingx="1"
       units="px"
       visible="false" />
  </sodipodi:namedview>
  <defs
     id="nova">
    <style
       id="current-color-scheme"
       type="text/css">
   .ColorScheme-Background {color:#181818; } .ColorScheme-ButtonBackground { color:#343434; } .ColorScheme-Highlight { color:#4285f4; } .ColorScheme-Text { color:#dfdfdf; } .ColorScheme-ViewBackground { color:#242424; } .ColorScheme-NegativeText { color:#f44336; } .ColorScheme-PositiveText { color:#4caf50; } .ColorScheme-NeutralText { color:#ff9800; }
  </style>
  </defs>
  <g
     id="radiobutton">
    <rect
       style="opacity:0.00100002"
       width="32"
       height="32"
       x="31.999996"
       y="0"
       id="rect4" />
    <path
       style="color:#31363b;fill:#489ab1;fill-opacity:0.3;stroke:#489ab1;stroke-width:1.6038;stroke-linecap:round;stroke-miterlimit:4;stroke-dasharray:none;stroke-opacity:1;stop-color:#31363b"
       class="ColorScheme-Text"
       sodipodi:type="arc"
       sodipodi:cx="-48.00174"
       sodipodi:cy="-16.001596"
       sodipodi:rx="12.200162"
       sodipodi:ry="12.200099"
       sodipodi:start="4.2664334"
       sodipodi:end="4.2482207"
       sodipodi:open="true"
       sodipodi:arc-type="arc"
       transform="scale(-1)"
       id="path7"
       d="m -53.263916,-27.008513 a 12.200162,12.200099 0 0 1 16.245076,5.694706 12.200162,12.200099 0 0 1 -5.620709,16.270752 12.200162,12.200099 0 0 1 -16.29626,-5.546539 12.200162,12.200099 0 0 1 5.47231,-16.32126" />
    <path
       style="color:#181818;fill:#1d212f;fill-opacity:1;stroke:#489ab1;stroke-width:1.08929;stroke-opacity:1"
       class="ColorScheme-Background"
       d="m 48.002144,10.556404 a 5.446484,5.4464557 0 0 1 5.44648,5.446456 5.446484,5.4464557 0 0 1 -5.44648,5.446455 5.446484,5.4464557 0 0 1 -5.44649,-5.446455 5.446484,5.4464557 0 0 1 5.44649,-5.446456 z"
       id="path8-3" />
  </g>
  <g
     id="checkbox">
    <rect
       style="opacity:0.00100002"
       width="32"
       height="32"
       x="0"
       y="0"
       id="rect11" />
    <path
       style="color:#31363b;fill:#489ab1;fill-opacity:0.3;stroke:#489bb2;stroke-width:1.6038;stroke-linecap:round;stroke-miterlimit:4;stroke-dasharray:none;stroke-opacity:1;stop-color:#31363b"
       class="ColorScheme-Text"
       sodipodi:type="arc"
       sodipodi:cx="-16.001743"
       sodipodi:cy="-16.001596"
       sodipodi:rx="12.200162"
       sodipodi:ry="12.200099"
       sodipodi:start="4.2664334"
       sodipodi:end="4.2482207"
       sodipodi:open="true"
       sodipodi:arc-type="arc"
       transform="scale(-1)"
       id="path7-7"
       d="m -21.26392,-27.008513 a 12.200162,12.200099 0 0 1 16.2450759,5.694706 12.200162,12.200099 0 0 1 -5.6207089,16.270752 12.200162,12.200099 0 0 1 -16.29626,-5.546539 12.200162,12.200099 0 0 1 5.47231,-16.32126" />
    <path
       style="color:#000000;text-indent:0;text-transform:none;direction:ltr;baseline-shift:baseline;fill:#232627;fill-opacity:1;stroke-width:0.269192;enable-background:accumulate"
       d="m 23.982977,9.0006555 a 1.2953467,1.3986696 0 0 0 -0.89043,0.419519 L 13.532207,19.743107 8.7399094,15.73979 a 1.295381,1.3987064 0 1 0 -1.586641,2.211438 l 5.6989506,4.754995 a 1.2953467,1.3986696 0 0 0 1.708055,-0.113571 L 24.92201,11.404389 A 1.2953467,1.3986696 0 0 0 23.982977,9.0006285 Z"
       fill-opacity="1"
       stroke="none"
       marker="none"
       visibility="visible"
       display="inline"
       overflow="visible"
       id="path2-6-3" />
  </g>
</svg>
