<?xml version="1.0" encoding="UTF-8" standalone="no"?>
<!-- Created with Inkscape (http://www.inkscape.org/) -->

<svg
   id="svg2"
   sodipodi:version="0.32"
   inkscape:version="1.1.1 (3bf5ae0d25, 2021-09-20)"
   width="13.000001"
   height="10.000001"
   sodipodi:docname="media-delegate.svg"
   inkscape:output_extension="org.inkscape.output.svg.inkscape"
   inkscape:export-xdpi="90"
   inkscape:export-ydpi="90"
   version="1.0"
   xmlns:inkscape="http://www.inkscape.org/namespaces/inkscape"
   xmlns:sodipodi="http://sodipodi.sourceforge.net/DTD/sodipodi-0.dtd"
   xmlns="http://www.w3.org/2000/svg"
   xmlns:svg="http://www.w3.org/2000/svg"
   xmlns:rdf="http://www.w3.org/1999/02/22-rdf-syntax-ns#"
   xmlns:cc="http://creativecommons.org/ns#"
   xmlns:dc="http://purl.org/dc/elements/1.1/">
  <sodipodi:namedview
     inkscape:window-height="1006"
     inkscape:window-width="1920"
     inkscape:pageshadow="2"
     inkscape:pageopacity="1"
     guidetolerance="10.0"
     gridtolerance="10.0"
     objecttolerance="10.0"
     borderopacity="1"
     bordercolor="#000000"
     pagecolor="#ffffff"
     id="base"
     inkscape:zoom="4.4385451"
     inkscape:cx="34.020157"
     inkscape:cy="34.696054"
     inkscape:window-x="0"
     inkscape:window-y="0"
     inkscape:current-layer="svg2"
     showgrid="false"
     showguides="true"
     inkscape:guide-bbox="true"
     width="97px"
     height="27px"
     inkscape:snap-bbox="true"
     inkscape:object-nodes="false"
     inkscape:window-maximized="1"
     inkscape:showpageshadow="false"
     showborder="true"
     fit-margin-top="0"
     fit-margin-left="0"
     fit-margin-right="0"
     fit-margin-bottom="0"
     inkscape:pagecheckerboard="0"
     inkscape:lockguides="false">
    <inkscape:grid
       enabled="true"
       visible="true"
       id="grid5592"
       type="xygrid"
       empspacing="5"
       snapvisiblegridlinesonly="true"
       originx="15"
       originy="-26.999999"
       spacingx="1"
       spacingy="1" />
  </sodipodi:namedview>
  <metadata
     id="metadata7">
    <rdf:RDF>
      <cc:Work
         rdf:about="">
        <dc:format>image/svg+xml</dc:format>
        <dc:type
           rdf:resource="http://purl.org/dc/dcmitype/StillImage" />
      </cc:Work>
      <cc:Work
         rdf:about="">
        <dc:format>image/svg+xml</dc:format>
        <dc:type
           rdf:resource="http://purl.org/dc/dcmitype/StillImage" />
      </cc:Work>
      <cc:Work
         rdf:about="">
        <dc:format>image/svg+xml</dc:format>
        <dc:type
           rdf:resource="http://purl.org/dc/dcmitype/StillImage" />
      </cc:Work>
    </rdf:RDF>
  </metadata>
  <defs
     id="defs5">
    <inkscape:perspective
       sodipodi:type="inkscape:persp3d"
       inkscape:vp_x="0 : 35.000001 : 1"
       inkscape:vp_y="0 : 1000 : 0"
       inkscape:vp_z="60 : 35.000001 : 1"
       inkscape:persp3d-origin="30 : 20.000001 : 1"
       id="perspective52" />
    <linearGradient
       id="linearGradient4157">
      <stop
         style="stop-color:#ffffff;stop-opacity:1;"
         offset="0"
         id="stop4159" />
      <stop
         style="stop-color:#b4b4b4;stop-opacity:1;"
         offset="1"
         id="stop4161" />
    </linearGradient>
  </defs>
  <rect
     style="fill:#eff0f1;fill-opacity:1;fill-rule:nonzero;stroke:none"
     id="hint-stretch-borders"
     width="13.000001"
     height="10.000001"
     x="0"
     y="0"
     ry="0" />
  <g
     transform="translate(-45,-15.999999)"
     id="picture-topright">
    <path
       style="fill:#1d212f;fill-opacity:0.15;stroke:none"
       d="m 105,32 v 3 h 3 v -2 c 0,-0.554 -0.446,-1 -1,-1 z"
       id="path4903"
       inkscape:connector-curvature="0" />
    <path
       sodipodi:nodetypes="ccssccssc"
       style="fill:#1d212f;fill-opacity:0.352941;stroke:none"
       d="m 105,30 v 1 h 2 c 1.108,0 2,0.892 2,2 v 2 h 1 v -2 c 0,-1.662 -1.338,-3 -3,-3 z"
       id="path4905"
       inkscape:connector-curvature="0" />
    <path
       inkscape:connector-curvature="0"
       id="path4907"
       d="m 105,31 v 1 h 2 c 0.554,0 1,0.446 1,1 v 2 h 1 v -2 c 0,-1.108 -0.892,-2 -2,-2 z"
       style="fill:#ffffff;fill-opacity:0.4;stroke:none"
       sodipodi:nodetypes="ccssccssc" />
  </g>
  <g
     transform="matrix(1,0,0,1.1111111,-1,10.111112)"
     id="picture-right">
    <path
       inkscape:connector-curvature="0"
       style="fill:#1d212f;fill-opacity:0.352941;stroke:none"
       d="m 65,8 h 1 v 9 h -1 z"
       id="path4911" />
    <path
       id="path4913"
       d="m 61,8 h 3 v 9 h -3 z"
       style="fill:#1d212f;fill-opacity:0.15;stroke:none"
       inkscape:connector-curvature="0" />
    <path
       id="path4915"
       d="m 64,8 h 1 v 9 h -1 z"
       style="fill:#ffffff;fill-opacity:0.4;stroke:none"
       inkscape:connector-curvature="0" />
  </g>
  <g
     id="picture-bottomright"
     transform="matrix(1,0,0,-1,-45,64.000001)">
    <path
       inkscape:connector-curvature="0"
       id="path4919"
       d="m 105,32 v 3 h 3 v -2 c 0,-0.554 -0.446,-1 -1,-1 z"
       style="fill:#1d212f;fill-opacity:0.15;stroke:none" />
    <path
       inkscape:connector-curvature="0"
       id="path4921"
       d="m 105,30 v 1 h 2 c 1.108,0 2,0.892 2,2 v 2 h 1 v -2 c 0,-1.662 -1.338,-3 -3,-3 z"
       style="fill:#1d212f;fill-opacity:0.352941;stroke:none"
       sodipodi:nodetypes="ccssccssc" />
    <path
       sodipodi:nodetypes="ccssccssc"
       style="fill:#ffffff;fill-opacity:0.4;stroke:none"
       d="m 105,31 v 1 h 2 c 0.554,0 1,0.446 1,1 v 2 h 1 v -2 c 0,-1.108 -0.892,-2 -2,-2 z"
       id="path4923"
       inkscape:connector-curvature="0" />
  </g>
  <g
     id="picture-top"
     transform="matrix(0,-1,4.4444444,0,-15.555555,80.000001)">
    <path
       id="path4927"
       d="m 65,8 h 1 v 9 h -1 z"
       style="fill:#1d212f;fill-opacity:0.352941;stroke:none"
       inkscape:connector-curvature="0" />
    <path
       inkscape:connector-curvature="0"
       style="fill:#1d212f;fill-opacity:0.15;stroke:none"
       d="m 61,8 h 3 v 9 h -3 z"
       id="path4929" />
    <path
       inkscape:connector-curvature="0"
       style="fill:#ffffff;fill-opacity:0.4;stroke:none"
       d="m 64,8 h 1 v 9 h -1 z"
       id="path4931" />
  </g>
  <g
     id="picture-topleft"
     transform="matrix(-1,0,0,1,125,-15.999999)">
    <path
       inkscape:connector-curvature="0"
       id="path4935"
       d="m 105,32 v 3 h 3 v -2 c 0,-0.554 -0.446,-1 -1,-1 z"
       style="fill:#1d212f;fill-opacity:0.15;stroke:none" />
    <path
       inkscape:connector-curvature="0"
       id="path4937"
       d="m 105,30 v 1 h 2 c 1.108,0 2,0.892 2,2 v 2 h 1 v -2 c 0,-1.662 -1.338,-3 -3,-3 z"
       style="fill:#1d212f;fill-opacity:0.352941;stroke:none"
       sodipodi:nodetypes="ccssccssc" />
    <path
       sodipodi:nodetypes="ccssccssc"
       style="fill:#ffffff;fill-opacity:0.4;stroke:none"
       d="m 105,31 v 1 h 2 c 0.554,0 1,0.446 1,1 v 2 h 1 v -2 c 0,-1.108 -0.892,-2 -2,-2 z"
       id="path4939"
       inkscape:connector-curvature="0" />
  </g>
  <g
     id="picture-left"
     transform="matrix(-1,0,0,1.1111111,81,10.111112)">
    <path
       id="path4943"
       d="m 65,8 h 1 v 9 h -1 z"
       style="fill:#1d212f;fill-opacity:0.352941;stroke:none"
       inkscape:connector-curvature="0" />
    <path
       inkscape:connector-curvature="0"
       style="fill:#1d212f;fill-opacity:0.15;stroke:none"
       d="m 61,8 h 3 v 9 h -3 z"
       id="path4945" />
    <path
       inkscape:connector-curvature="0"
       style="fill:#ffffff;fill-opacity:0.4;stroke:none"
       d="m 64,8 h 1 v 9 h -1 z"
       id="path4947" />
  </g>
  <g
     transform="rotate(180,62.5,32)"
     id="picture-bottomleft">
    <path
       style="fill:#1d212f;fill-opacity:0.15;stroke:none"
       d="m 105,32 v 3 h 3 v -2 c 0,-0.554 -0.446,-1 -1,-1 z"
       id="path4951"
       inkscape:connector-curvature="0" />
    <path
       sodipodi:nodetypes="ccssccssc"
       style="fill:#1d212f;fill-opacity:0.352941;stroke:none"
       d="m 105,30 v 1 h 2 c 1.108,0 2,0.892 2,2 v 2 h 1 v -2 c 0,-1.662 -1.338,-3 -3,-3 z"
       id="path4953"
       inkscape:connector-curvature="0" />
    <path
       inkscape:connector-curvature="0"
       id="path4955"
       d="m 105,31 v 1 h 2 c 0.554,0 1,0.446 1,1 v 2 h 1 v -2 c 0,-1.108 -0.892,-2 -2,-2 z"
       style="fill:#ffffff;fill-opacity:0.4;stroke:none"
       sodipodi:nodetypes="ccssccssc" />
  </g>
  <g
     transform="matrix(0,1,4.4444444,0,-15.555555,-31.999999)"
     id="picture-bottom">
    <path
       inkscape:connector-curvature="0"
       style="fill:#1d212f;fill-opacity:0.352941;stroke:none"
       d="m 65,8 h 1 v 9 h -1 z"
       id="path4959" />
    <path
       id="path4961"
       d="m 61,8 h 3 v 9 h -3 z"
       style="fill:#1d212f;fill-opacity:0.15;stroke:none"
       inkscape:connector-curvature="0" />
    <path
       id="path4963"
       d="m 64,8 h 1 v 9 h -1 z"
       style="fill:#ffffff;fill-opacity:0.4;stroke:none"
       inkscape:connector-curvature="0" />
  </g>
  <path
     inkscape:connector-curvature="0"
     id="picture-center"
     d="m 20,19.000001 h 40 v 10 H 20 Z"
     style="fill:#1d212f;fill-opacity:0.15;stroke:none" />
  <rect
     y="14.000001"
     x="39"
     height="4"
     width="2"
     id="picture-hint-top-margin"
     style="opacity:0.01;fill:#000000;fill-opacity:1;fill-rule:nonzero;stroke:none" />
  <rect
     style="opacity:0.01;fill:#000000;fill-opacity:1;fill-rule:nonzero;stroke:none"
     id="picture-hint-bottom-margin"
     width="2"
     height="4"
     x="39"
     y="30" />
  <rect
     style="opacity:0.01;fill:#008080;fill-opacity:1;fill-rule:nonzero;stroke:none"
     id="picture-hint-left-margin"
     width="4"
     height="2"
     x="15"
     y="23" />
  <rect
     y="23"
     x="61"
     height="1.9999999"
     width="4"
     id="picture-hint-right-margin"
     style="opacity:0.01;fill:#000000;fill-opacity:1;fill-rule:nonzero;stroke:none" />
</svg>
