<?xml version="1.0" encoding="UTF-8" standalone="no"?>
<svg
   height="25"
   width="25"
   inkscape:version="1.3 (0e150ed6c4, 2023-07-21)"
   sodipodi:docname="busywidget.svg"
   xml:space="preserve"
   viewBox="0 0 24.999998 24.999999"
   y="0px"
   x="0px"
   id="Layer_1"
   version="1.1"
   xmlns:inkscape="http://www.inkscape.org/namespaces/inkscape"
   xmlns:sodipodi="http://sodipodi.sourceforge.net/DTD/sodipodi-0.dtd"
   xmlns:xlink="http://www.w3.org/1999/xlink"
   xmlns="http://www.w3.org/2000/svg"
   xmlns:svg="http://www.w3.org/2000/svg"
   xmlns:rdf="http://www.w3.org/1999/02/22-rdf-syntax-ns#"
   xmlns:cc="http://creativecommons.org/ns#"
   xmlns:dc="http://purl.org/dc/elements/1.1/"><metadata
   id="metadata51"><rdf:RDF><cc:Work
       rdf:about=""><dc:format>image/svg+xml</dc:format><dc:type
         rdf:resource="http://purl.org/dc/dcmitype/StillImage" /></cc:Work></rdf:RDF></metadata><defs
   id="defs49"><linearGradient
     inkscape:collect="always"
     id="linearGradient876"><stop
       style="stop-color:#3b5a87;stop-opacity:1;"
       offset="0"
       id="stop872" /><stop
       style="stop-color:#3b5a87;stop-opacity:0;"
       offset="1"
       id="stop874" /></linearGradient><radialGradient
     inkscape:collect="always"
     xlink:href="#linearGradient876"
     id="radialGradient878"
     cx="256.002"
     cy="256.002"
     fx="256.002"
     fy="256.002"
     r="153.6"
     gradientUnits="userSpaceOnUse" /></defs><sodipodi:namedview
   inkscape:current-layer="busywidget"
   inkscape:window-maximized="1"
   inkscape:window-y="0"
   inkscape:window-x="0"
   inkscape:cy="17.878074"
   inkscape:cx="22.785781"
   inkscape:zoom="9.9842968"
   showgrid="false"
   id="namedview47"
   inkscape:window-height="994"
   inkscape:window-width="1920"
   inkscape:pageshadow="2"
   inkscape:pageopacity="0"
   guidetolerance="10"
   gridtolerance="10"
   objecttolerance="10"
   borderopacity="1"
   bordercolor="#000000"
   pagecolor="#ffffff"
   inkscape:document-rotation="0"
   inkscape:showpageshadow="true"
   inkscape:pagecheckerboard="false"
   width="24px"
   inkscape:lockguides="true"
   inkscape:deskcolor="#cccccc"><inkscape:grid
     type="xygrid"
     id="grid1324"
     originx="0"
     originy="0"
     spacingy="1"
     spacingx="1"
     units="px"
     visible="false" /></sodipodi:namedview>&#10;<g
   transform="matrix(0.03906258,0,0,0.03906258,3.9999198,0.99991368)"
   id="busywidget">&#10;	<path
   id="path2"
   d="m 409.602,256.002 c 0,84.83 -68.77,153.6 -153.6,153.6 -84.83,0 -153.6,-68.77 -153.6,-153.6 0,-84.83 68.77,-153.6 153.6,-153.6 84.83,0 153.6,68.77 153.6,153.6"
   style="opacity:1;fill:url(#radialGradient878);fill-opacity:1" />&#10;	<path
   id="path4"
   d="m 298.669,256.002 c 0,23.561 -19.106,42.667 -42.667,42.667 -23.569,0 -42.667,-19.106 -42.667,-42.667 0,-23.561 19.098,-42.667 42.667,-42.667 23.561,0 42.667,19.107 42.667,42.667"
   style="fill:#d6dbf1;fill-opacity:1" />&#10;	&#10;	<path
   id="path8"
   d="m 256.002,486.402 c -127.044,0 -230.4,-103.356 -230.4,-230.4 0,-4.71 3.823,-8.533 8.533,-8.533 4.71,0 8.533,3.823 8.533,8.533 0,117.632 95.701,213.333 213.333,213.333 4.71,0 8.533,3.823 8.533,8.533 0,4.71 -3.821,8.534 -8.532,8.534"
   style="opacity:0.01;fill:#306994;fill-opacity:1" />&#10;	&#10;	<path
   sodipodi:nodetypes="ccccccccscc"
   id="path12"
   d="m 34.480813,269.00508 0.03976,-0.0747 -0.03976,0.0747 0.03976,-0.0747 v 0 0 0 0 l -0.03976,0.0747 0.03976,-0.0747 v 0"
   style="fill:#e64c3c" />&#10;</g>&#10;<g
   transform="translate(-20.994257,-23.690994)"
   id="g16">&#10;</g>&#10;<g
   transform="translate(-20.994257,-23.690994)"
   id="g18">&#10;</g>&#10;<g
   transform="translate(-20.994257,-23.690994)"
   id="g20">&#10;</g>&#10;<g
   transform="translate(-20.994257,-23.690994)"
   id="g22">&#10;</g>&#10;<g
   transform="translate(-20.994257,-23.690994)"
   id="g24">&#10;</g>&#10;<g
   transform="translate(-20.994257,-23.690994)"
   id="g26">&#10;</g>&#10;<g
   transform="translate(-20.994257,-23.690994)"
   id="g28">&#10;</g>&#10;<g
   transform="translate(-20.994257,-23.690994)"
   id="g30">&#10;</g>&#10;<g
   transform="translate(-20.994257,-23.690994)"
   id="g32">&#10;</g>&#10;<g
   transform="translate(-20.994257,-23.690994)"
   id="g34">&#10;</g>&#10;<g
   transform="translate(-20.994257,-23.690994)"
   id="g36">&#10;</g>&#10;<g
   transform="translate(-20.994257,-23.690994)"
   id="g38">&#10;</g>&#10;<g
   transform="translate(-20.994257,-23.690994)"
   id="g40">&#10;</g>&#10;<g
   transform="translate(-20.994257,-23.690994)"
   id="g42">&#10;</g>&#10;<g
   transform="translate(-20.994257,-23.690994)"
   id="g44">&#10;</g>&#10;</svg>
