<?xml version="1.0" encoding="UTF-8" standalone="no"?>
<svg
   viewBox="0 0 256 256"
   id="svg2"
   version="1.1"
   inkscape:version="1.1.1 (3bf5ae0d25, 2021-09-20)"
   sodipodi:docname="org.kde.plasma.folder.svg"
   xmlns:inkscape="http://www.inkscape.org/namespaces/inkscape"
   xmlns:sodipodi="http://sodipodi.sourceforge.net/DTD/sodipodi-0.dtd"
   xmlns:xlink="http://www.w3.org/1999/xlink"
   xmlns="http://www.w3.org/2000/svg"
   xmlns:svg="http://www.w3.org/2000/svg"
   xmlns:rdf="http://www.w3.org/1999/02/22-rdf-syntax-ns#"
   xmlns:cc="http://creativecommons.org/ns#"
   xmlns:dc="http://purl.org/dc/elements/1.1/">
  <metadata
     id="metadata10">
    <rdf:RDF>
      <cc:Work
         rdf:about="">
        <dc:format>image/svg+xml</dc:format>
        <dc:type
           rdf:resource="http://purl.org/dc/dcmitype/StillImage" />
      </cc:Work>
    </rdf:RDF>
  </metadata>
  <sodipodi:namedview
     pagecolor="#ffffff"
     bordercolor="#666666"
     borderopacity="1"
     objecttolerance="10"
     gridtolerance="10"
     guidetolerance="10"
     inkscape:pageopacity="0"
     inkscape:pageshadow="2"
     inkscape:window-width="1920"
     inkscape:window-height="1006"
     id="namedview8"
     showgrid="false"
     inkscape:zoom="1.84375"
     inkscape:cx="67.254236"
     inkscape:cy="136.13559"
     inkscape:window-x="0"
     inkscape:window-y="0"
     inkscape:window-maximized="1"
     inkscape:current-layer="svg2"
     inkscape:pagecheckerboard="0"
     showguides="false" />
  <defs
     id="defs4">
    <style
       id="current-color-scheme"
       type="text/css">
      .ColorScheme-Text {
        color:#4d4d4d;
      }
      .ColorScheme-Background {
        color:#eff0f1;
      }
      .ColorScheme-Highlight {
        color:#3daee9;
      }
      .ColorScheme-ViewText {
        color:#31363b;
      }
      .ColorScheme-ViewBackground {
        color:#fcfcfc;
      }
      .ColorScheme-ViewHover {
        color:#93cee9;
      }
      .ColorScheme-ViewFocus{
        color:#3daee9;
      }
      .ColorScheme-ButtonText {
        color:#31363b;
      }
      .ColorScheme-ButtonBackground {
        color:#eff0f1;
      }
      .ColorScheme-ButtonHover {
        color:#93cee9;
      }
      .ColorScheme-ButtonFocus{
        color:#3daee9;
      }
      </style>
    <linearGradient
       id="linearGradient4172-0">
      <stop
         style="stop-color:#f89406;stop-opacity:1"
         offset="0"
         id="stop4174-4-7" />
      <stop
         style="stop-color:#faa938;stop-opacity:1"
         offset="1"
         id="stop4176-5" />
    </linearGradient>
    <linearGradient
       inkscape:collect="always"
       xlink:href="#linearGradient860"
       id="linearGradient862"
       x1="113.94677"
       y1="255.36646"
       x2="406.08289"
       y2="255.36646"
       gradientUnits="userSpaceOnUse"
       gradientTransform="matrix(0.16891891,0,0,0.15367246,7.0812001,33.760403)" />
    <linearGradient
       inkscape:collect="always"
       id="linearGradient860">
      <stop
         style="stop-color:#78acd3;stop-opacity:1"
         offset="0"
         id="stop856" />
      <stop
         style="stop-color:#d98cbb;stop-opacity:1"
         offset="1"
         id="stop858" />
    </linearGradient>
    <linearGradient
       inkscape:collect="always"
       xlink:href="#linearGradient842"
       id="linearGradient844"
       x1="386.30627"
       y1="522.45404"
       x2="446.83023"
       y2="522.45404"
       gradientUnits="userSpaceOnUse"
       gradientTransform="matrix(0.8261188,0,0,0.83286815,-293.13488,-355.58056)" />
    <linearGradient
       inkscape:collect="always"
       id="linearGradient842">
      <stop
         style="stop-color:#326e9a;stop-opacity:1"
         offset="0"
         id="stop838" />
      <stop
         style="stop-color:#339993;stop-opacity:1"
         offset="1"
         id="stop840" />
    </linearGradient>
    <linearGradient
       inkscape:collect="always"
       xlink:href="#linearGradient860"
       id="linearGradient862-3"
       x1="113.94677"
       y1="255.36646"
       x2="406.08289"
       y2="255.36646"
       gradientUnits="userSpaceOnUse"
       gradientTransform="matrix(0.16891898,0,0,0.15367249,85.081171,33.76038)" />
    <linearGradient
       inkscape:collect="always"
       xlink:href="#linearGradient842"
       id="linearGradient844-3"
       x1="386.30627"
       y1="522.45404"
       x2="446.83023"
       y2="522.45404"
       gradientUnits="userSpaceOnUse"
       gradientTransform="matrix(0.82611918,0,0,0.8328684,-215.13501,-355.58068)" />
    <linearGradient
       inkscape:collect="always"
       xlink:href="#linearGradient860"
       id="linearGradient862-36"
       x1="113.94677"
       y1="255.36646"
       x2="406.08289"
       y2="255.36646"
       gradientUnits="userSpaceOnUse"
       gradientTransform="matrix(0.16891894,0,0,0.15367245,161.0812,33.760385)" />
    <linearGradient
       inkscape:collect="always"
       xlink:href="#linearGradient842"
       id="linearGradient844-5"
       x1="386.30627"
       y1="522.45404"
       x2="446.83023"
       y2="522.45404"
       gradientUnits="userSpaceOnUse"
       gradientTransform="matrix(0.82611898,0,0,0.8328682,-139.13493,-355.58059)" />
    <linearGradient
       inkscape:collect="always"
       xlink:href="#linearGradient860"
       id="linearGradient862-3-5"
       x1="113.94677"
       y1="255.36646"
       x2="406.08289"
       y2="255.36646"
       gradientUnits="userSpaceOnUse"
       gradientTransform="matrix(0.16891894,0,0,0.15367245,7.0812,99.760345)" />
    <linearGradient
       inkscape:collect="always"
       xlink:href="#linearGradient842"
       id="linearGradient844-3-6"
       x1="386.30627"
       y1="522.45404"
       x2="446.83023"
       y2="522.45404"
       gradientUnits="userSpaceOnUse"
       gradientTransform="matrix(0.82611898,0,0,0.8328682,-293.13493,-289.58062)" />
    <linearGradient
       inkscape:collect="always"
       xlink:href="#linearGradient851"
       id="linearGradient1897"
       x1="401.86566"
       y1="520.7981"
       x2="431.46234"
       y2="520.7981"
       gradientUnits="userSpaceOnUse"
       gradientTransform="matrix(0.46245818,0,0,0.46623637,-136.47015,-83.520312)" />
    <linearGradient
       inkscape:collect="always"
       id="linearGradient851">
      <stop
         style="stop-color:#ccff00;stop-opacity:1"
         offset="0"
         id="stop847" />
      <stop
         style="stop-color:#ffccaa;stop-opacity:1"
         offset="1"
         id="stop849" />
    </linearGradient>
    <linearGradient
       inkscape:collect="always"
       xlink:href="#linearGradient860"
       id="linearGradient862-3-2"
       x1="113.94677"
       y1="255.36646"
       x2="406.08289"
       y2="255.36646"
       gradientUnits="userSpaceOnUse"
       gradientTransform="matrix(0.16891894,0,0,0.15367245,85.081195,99.760356)" />
    <linearGradient
       inkscape:collect="always"
       xlink:href="#linearGradient842"
       id="linearGradient844-3-7"
       x1="386.30627"
       y1="522.45404"
       x2="446.83023"
       y2="522.45404"
       gradientUnits="userSpaceOnUse"
       gradientTransform="matrix(0.82611898,0,0,0.8328682,-215.13493,-289.58062)" />
    <linearGradient
       inkscape:collect="always"
       xlink:href="#linearGradient860"
       id="linearGradient862-3-6"
       x1="113.94677"
       y1="255.36646"
       x2="406.08289"
       y2="255.36646"
       gradientUnits="userSpaceOnUse"
       gradientTransform="matrix(0.16891894,0,0,0.15367245,161.0812,99.760367)" />
    <linearGradient
       inkscape:collect="always"
       xlink:href="#linearGradient842"
       id="linearGradient844-3-2"
       x1="386.30627"
       y1="522.45404"
       x2="446.83023"
       y2="522.45404"
       gradientUnits="userSpaceOnUse"
       gradientTransform="matrix(0.82611898,0,0,0.8328682,-139.13491,-289.58062)" />
    <linearGradient
       inkscape:collect="always"
       xlink:href="#linearGradient4172-8"
       id="linearGradient844-9"
       x1="386.30627"
       y1="522.45404"
       x2="446.83023"
       y2="522.45404"
       gradientUnits="userSpaceOnUse"
       gradientTransform="matrix(0.82611893,0,0,0.83286465,-293.13494,-225.57869)" />
    <linearGradient
       id="linearGradient4172-8">
      <stop
         style="stop-color:#f2cb40"
         id="stop4174-3" />
      <stop
         offset="1"
         style="stop-color:#f5d76e"
         id="stop4176-9" />
    </linearGradient>
    <linearGradient
       inkscape:collect="always"
       xlink:href="#linearGradient860"
       id="linearGradient862-7"
       x1="113.94677"
       y1="255.36646"
       x2="406.08289"
       y2="255.36646"
       gradientUnits="userSpaceOnUse"
       gradientTransform="matrix(0.16891891,0,0,0.15367246,85.081201,163.76037)" />
    <linearGradient
       inkscape:collect="always"
       xlink:href="#linearGradient842"
       id="linearGradient844-2"
       x1="386.30627"
       y1="522.45404"
       x2="446.83023"
       y2="522.45404"
       gradientUnits="userSpaceOnUse"
       gradientTransform="matrix(0.8261188,0,0,0.83286815,-215.13488,-225.58059)" />
  </defs>
  <path
     style="fill:currentColor;fill-opacity:0.5;stroke:none"
     d="m 16,10 224,0 c 3.324,0 6,2.676 6,6 l 0,224 c 0,3.324 -2.676,6 -6,6 l -224,0 c -3.324,0 -6,-2.676 -6,-6 L 10,16 c 0,-3.324 2.676,-6 6,-6 z"
     class="ColorScheme-ButtonText"
     id="rect4240" />
  <path
     style="fill:currentColor;fill-opacity:1;stroke:none"
     d="m 16,12 224,0 c 2.216,0 4,1.784 4,4 l 0,224 c 0,2.216 -1.784,4 -4,4 l -224,0 c -2.216,0 -4,-1.784 -4,-4 L 12,16 c 0,-2.216 1.784,-4 4,-4 z"
     class="ColorScheme-Background"
     id="rect4238" />
  <path
     style="fill:currentColor;fill-opacity:1.0;stroke:none"
     class="ColorScheme-Text"
     d="m 147.75781,20.638673 -1.30273,0.0957 0,9.179687 c 0,0.50252 0.0594,0.920653 0.17578,1.253907 0.11637,0.32796 0.29574,0.579346 0.53906,0.753906 0.24333,0.17456 0.51937,0.296468 0.82617,0.365234 0.3121,0.06347 0.69801,0.0957 1.15821,0.0957 l 0.62695,0 0.0703,-0.90625 -0.35742,-0.02344 c -0.22746,-0.01587 -0.4043,-0.02846 -0.53125,-0.03906 -0.12695,-0.01587 -0.264,-0.03799 -0.41211,-0.06445 -0.14283,-0.03172 -0.25212,-0.06704 -0.32617,-0.109375 -0.0688,-0.04761 -0.13884,-0.107014 -0.21289,-0.175781 -0.0741,-0.06877 -0.12842,-0.155925 -0.16016,-0.261719 -0.0265,-0.105793 -0.0492,-0.227701 -0.0703,-0.365234 -0.0159,-0.137533 -0.0234,-0.30428 -0.0234,-0.5 l 0,-9.298828 z m 10.75,0 -1.3164,0.0957 0,2.609375 0.0625,1.912109 c -0.12696,-0.232746 -0.26148,-0.42977 -0.4043,-0.59375 -0.13753,-0.169266 -0.30681,-0.325923 -0.50781,-0.46875 -0.20102,-0.148113 -0.44035,-0.259931 -0.72071,-0.333984 -0.28035,-0.07405 -0.59871,-0.109375 -0.95312,-0.109375 -1.11084,0 -1.99195,0.396 -2.64258,1.189453 -0.64535,0.79346 -0.9668,1.831788 -0.9668,3.117188 0,1.354166 0.31136,2.431722 0.93555,3.230468 0.62947,0.793454 1.52319,1.189453 2.68164,1.189453 1.20076,0 2.0743,-0.547611 2.61914,-1.642578 l 0.11914,1.484375 1.09375,0 0,-11.679687 z m -76.019529,0.0957 0,11.583984 1.394531,0 0,-5.404297 6.03125,0 0,5.404297 1.396485,0 0,-11.583984 -1.396485,0 0,5.164063 -6.03125,0 0,-5.164063 -1.394531,0 z m 46.369139,0 0,11.583984 1.41992,0 0,-5.308593 4.69727,0 0,-1.015625 -4.69727,0 0,-4.189453 5.04688,0 0.0781,-1.070313 -6.54492,0 z m -31.626951,3.015628 c -1.232504,0 -2.200766,0.401045 -2.904297,1.205078 -0.698243,0.798747 -1.048828,1.856688 -1.048828,3.173828 0,1.2854 0.355631,2.333252 1.064453,3.142578 0.708821,0.804034 1.672038,1.205078 2.888672,1.205078 1.190186,0 2.146403,-0.403563 2.871091,-1.21289 0.7247,-0.814613 1.08789,-1.859946 1.08789,-3.134766 0,-1.31714 -0.34863,-2.375081 -1.04687,-3.173828 -0.698242,-0.804033 -1.669029,-1.205078 -2.912111,-1.205078 z m 9.464841,0 c -1.07381,0 -1.9353,0.470543 -2.58593,1.412109 l -0.1504,-1.238281 -1.06445,0 0,8.394531 1.31836,0 0,-5.117187 c 0.11108,-0.735267 0.35294,-1.325191 0.72852,-1.769531 0.38086,-0.44962 0.89371,-0.675782 1.53906,-0.675782 0.58715,0 0.99015,0.22111 1.20703,0.660157 0.21688,0.433753 0.32617,1.163246 0.32617,2.189453 l 0,4.71289 1.31641,0 0,-4.308593 c 0.0159,-0.72998 0.0456,-1.165774 0.0879,-1.308594 0.14282,-0.62948 0.41187,-1.112059 0.80859,-1.445313 0.39674,-0.333246 0.84962,-0.5 1.35742,-0.5 0.22746,0 0.42448,0.03475 0.59375,0.103516 0.17456,0.06347 0.31357,0.165201 0.41407,0.302734 0.1058,0.137534 0.19044,0.277102 0.2539,0.419922 0.0635,0.137534 0.1083,0.319415 0.13477,0.546875 0.0264,0.227454 0.0415,0.421385 0.0469,0.580078 0.0106,0.1534 0.0156,0.357422 0.0156,0.611328 l 0,4.998047 1.31836,0 0,-5.412109 c 0,-2.105307 -0.8584,-3.15625 -2.57227,-3.15625 -1.21663,0 -2.1381,0.567791 -2.76758,1.705078 -0.19572,-0.53426 -0.47428,-0.952393 -0.83398,-1.253906 -0.35971,-0.301513 -0.85743,-0.451172 -1.4922,-0.451172 z m 13.16407,0 c -1.11085,0 -2.0267,0.398519 -2.7461,1.197266 -0.7194,0.798746 -1.07812,1.869304 -1.07812,3.21289 0,1.327714 0.36629,2.38061 1.10156,3.158203 0.73527,0.772294 1.69344,1.158203 2.87305,1.158203 1.05794,0 2.00154,-0.246341 2.83203,-0.738281 l -0.27735,-0.927734 c -0.44433,0.222173 -0.84537,0.38892 -1.20507,0.5 -0.35971,0.111087 -0.76018,0.166015 -1.19922,0.166015 -0.80932,0 -1.46427,-0.256424 -1.9668,-0.769531 -0.50251,-0.518386 -0.77603,-1.310379 -0.81836,-2.378906 l 5.67383,0 0.0469,-0.667969 c 0,-1.227213 -0.27661,-2.183427 -0.83203,-2.871094 -0.55016,-0.692946 -1.35167,-1.039062 -2.40432,-1.039062 z m 20.75585,0 c -1.2325,0 -2.20076,0.401045 -2.90429,1.205078 -0.69824,0.798747 -1.04688,1.856688 -1.04688,3.173828 0,1.2854 0.35564,2.333252 1.06446,3.142578 0.70882,0.804034 1.67008,1.205078 2.88671,1.205078 1.19019,0 2.14836,-0.403563 2.87305,-1.21289 0.72469,-0.814613 1.08789,-1.859946 1.08789,-3.134766 0,-1.31714 -0.35058,-2.375081 -1.04883,-3.173828 -0.69824,-0.804033 -1.66903,-1.205078 -2.91211,-1.205078 z m 23.42383,0 c -1.11084,0 -2.02669,0.398519 -2.74609,1.197266 -0.7194,0.798746 -1.07813,1.869304 -1.07813,3.21289 0,1.327714 0.3663,2.38061 1.10157,3.158203 0.73527,0.772294 1.69344,1.158203 2.87304,1.158203 1.05794,0 2.00155,-0.246341 2.83203,-0.738281 l -0.27734,-0.927734 c -0.44434,0.222173 -0.84538,0.38892 -1.20508,0.5 -0.3597,0.111087 -0.76017,0.166015 -1.19922,0.166015 -0.80932,0 -1.46427,-0.256424 -1.96679,-0.769531 -0.50251,-0.518386 -0.77603,-1.310379 -0.81836,-2.378906 l 5.67383,0 0.0469,-0.667969 c 0,-1.227213 -0.27661,-2.183427 -0.83203,-2.871094 -0.55016,-0.692946 -1.35167,-1.039062 -2.40433,-1.039062 z m 8.88672,0.08594 c -0.50781,0 -0.99292,0.144047 -1.45312,0.429687 -0.45492,0.28036 -0.84082,0.721192 -1.15821,1.324219 l -0.14257,-1.666016 -1.05469,0 0,8.394531 1.3164,0 0,-4.751953 c 0,-0.745846 0.23373,-1.378091 0.69922,-1.896484 0.47079,-0.518393 1.06576,-0.777344 1.78516,-0.777344 0.14811,0 0.32747,0.02017 0.53906,0.0625 l 0.0566,-1.078125 c -0.1534,-0.02647 -0.34986,-0.04102 -0.58789,-0.04102 z m -75.695311,0.919921 c 0.862223,0 1.512125,0.310795 1.951172,0.929688 0.439046,0.613607 0.658203,1.432778 0.658203,2.458984 0,0.65592 -0.08968,1.23071 -0.269532,1.722657 -0.17985,0.486653 -0.471028,0.877601 -0.873046,1.173828 -0.396729,0.290933 -0.884929,0.435546 -1.466797,0.435546 -0.846354,10e-7 -1.493164,-0.306315 -1.9375,-0.919921 -0.444336,-0.613607 -0.666016,-1.420162 -0.666016,-2.419922 0,-1.020914 0.22168,-1.837565 0.666016,-2.451172 0.444336,-0.618893 1.091146,-0.929688 1.9375,-0.929688 z m 22.660151,0 c 1.33303,0 2.03224,0.905764 2.09571,2.714844 l -4.57031,0 c 0.0741,-0.835773 0.33301,-1.497722 0.77734,-1.984375 0.44963,-0.486653 1.01489,-0.730469 1.69726,-0.730469 z m 20.72461,0 c 0.86222,0 1.51408,0.310795 1.95313,0.929688 0.43905,0.613607 0.6582,1.432778 0.6582,2.458984 0,0.65592 -0.0897,1.23071 -0.26953,1.722657 -0.17985,0.486653 -0.47103,0.877601 -0.87305,1.173828 -0.39672,0.290933 -0.88688,0.435546 -1.46875,0.435546 -0.84635,10e-7 -1.4912,-0.306315 -1.93554,-0.919921 -0.44434,-0.613607 -0.66602,-1.420162 -0.66602,-2.419922 0,-1.020914 0.22168,-1.837565 0.66602,-2.451172 0.44434,-0.618893 1.08919,-0.929688 1.93554,-0.929688 z m 14.24415,0 c 0.78288,0 1.3728,0.291181 1.76953,0.873047 0.40202,0.581867 0.60156,1.442792 0.60156,2.580078 -0.005,1.042074 -0.19727,1.84611 -0.57813,2.41211 -0.38086,0.566 -1.00301,0.847656 -1.86523,0.847656 -0.81991,0 -1.42497,-0.30127 -1.81641,-0.904297 -0.38614,-0.603027 -0.58008,-1.429768 -0.58008,-2.482422 10e-6,-1.05794 0.20655,-1.876545 0.61915,-2.453125 0.41259,-0.581866 1.0297,-0.873047 1.84961,-0.873047 z m 9.21093,0 c 1.33302,0 2.03224,0.905764 2.09571,2.714844 l -4.57032,0 c 0.0741,-0.835773 0.33301,-1.497722 0.77735,-1.984375 0.44962,-0.486653 1.01489,-0.730469 1.69726,-0.730469 z"
     id="path4427" />
  <path
     style="fill:url(#linearGradient862);fill-opacity:1;stroke-width:0.149282"
     d="m 51.00263,58.299716 c -0.7336,0 -1.60198,-0.430416 -1.93076,-0.956533 L 47.59678,54.97885 c -0.32728,-0.526117 -1.19565,-0.95555 -1.929,-0.956517 l -17.00091,-0.02233 c -1.62169,-0.0017 -2.30519,0.779133 -2.32822,2.50345 l -0.01,0.7269 v 2.138683 30.476315 c 0,0.588133 1.93392,2.138683 2.66727,2.138683 h 44.01259 c 0.73337,0 2.66727,-1.55055 2.66727,-2.138683 V 60.438383 c 0,-1.604017 -0.6667,-2.138683 -2.66727,-2.138683 z"
     id="path4-3"
     sodipodi:nodetypes="sccsssccsssssss" />
  <path
     style="fill:#f2f2f2;fill-opacity:1;stroke-width:0.147137"
     d="m 72.48173,69.716232 c 0,1.10455 -0.66317,2.008284 -2.18097,2.008284 H 31.80447 c -1.51784,0 -2.09879,-0.903734 -2.09879,-2.008284 v -6.024883 c 0,-1.104566 0.58095,-2.008299 2.09879,-2.008299 h 38.41369 c 1.5178,0 2.26357,0.903733 2.26357,2.008299 z"
     id="path8-6"
     sodipodi:nodetypes="sssssssss" />
  <path
     style="fill:url(#linearGradient844);fill-opacity:1;stroke-width:0.161116"
     d="M 73.29716,65.109583 H 28.70283 C 27.35132,65.109583 26,66.338966 26,67.568332 v 23.972916 c 0,1.625883 1.04518,2.458749 2.70283,2.458749 H 73.29716 C 74.96008,93.999997 76,93.167131 76,91.541248 V 67.568332 c 0,-1.229366 -1.35132,-2.458749 -2.70284,-2.458749 z"
     id="path10"
     sodipodi:nodetypes="sssssssss" />
  <path
     style="fill:url(#linearGradient862-3);fill-opacity:1;stroke-width:0.149282"
     d="m 129.00264,58.299702 c -0.7336,0 -1.60198,-0.430401 -1.93077,-0.956534 l -1.47508,-2.364318 c -0.32728,-0.526116 -1.19567,-0.955567 -1.929,-0.956517 l -17.00094,-0.02233 c -1.62167,-0.0017 -2.30517,0.779134 -2.32822,2.503451 l -0.01,0.7269 v 2.138684 30.476321 c 0,0.58814 1.93394,2.13869 2.66727,2.13869 h 44.01263 c 0.73335,0 2.66727,-1.55055 2.66727,-2.13869 V 60.438386 c 0,-1.604018 -0.6667,-2.138684 -2.66727,-2.138684 z"
     id="path4-3-9"
     sodipodi:nodetypes="sccsssccsssssss" />
  <path
     style="fill:#f2f2f2;fill-opacity:1;stroke-width:0.147138"
     d="m 150.48173,69.716219 c 0,1.10457 -0.66313,2.00829 -2.18095,2.00829 h -38.49633 c -1.51783,0 -2.09877,-0.90372 -2.09877,-2.00829 v -6.02487 c 0,-1.10456 0.58094,-2.008296 2.09877,-2.008296 h 38.41372 c 1.51781,0 2.26356,0.903736 2.26356,2.008296 z"
     id="path8-6-1"
     sodipodi:nodetypes="sssssssss" />
  <path
     style="fill:url(#linearGradient844-3);fill-opacity:1;stroke-width:0.161117"
     d="m 151.29718,65.109569 h -44.59435 c -1.35151,0 -2.70283,1.22939 -2.70283,2.45877 v 23.97291 c 0,1.62588 1.04518,2.45875 2.70283,2.45875 h 44.59435 c 1.66292,0 2.70284,-0.83287 2.70284,-2.45875 v -23.97291 c 0,-1.22938 -1.35134,-2.45877 -2.70284,-2.45877 z"
     id="path10-2"
     sodipodi:nodetypes="sssssssss" />
  <path
     d="m 148.75572,81.853879 h -2.12459 c -0.29275,0 -0.53053,-0.23974 -0.53053,-0.53489 0,-0.29593 0.23778,-0.5354 0.53053,-0.5354 h 2.12459 c 0.29355,0 0.53106,0.23947 0.53106,0.5354 0,0.29515 -0.23751,0.53489 -0.53106,0.53489 z m 0,2.14193 h -2.12459 c -0.29275,0 -0.53053,-0.23947 -0.53053,-0.53542 0,-0.29595 0.23778,-0.53541 0.53053,-0.53541 h 2.12459 c 0.29355,0 0.53106,0.23946 0.53106,0.53541 0,0.29595 -0.23751,0.53542 -0.53106,0.53542 z m -5.31081,3.2125 h 5.31081 c 0.29355,0 0.53106,0.23972 0.53106,0.5354 0,0.29597 -0.23751,0.5357 -0.53106,0.5357 h -5.31081 c -0.29303,0 -0.53135,-0.23973 -0.53135,-0.5357 0,-0.29568 0.23832,-0.5354 0.53135,-0.5354 z m 0,-2.1414 h 5.31081 c 0.29355,0 0.53106,0.23974 0.53106,0.53489 0,0.29595 -0.23751,0.53541 -0.53106,0.53541 h -5.31081 c -0.29303,0 -0.53135,-0.23946 -0.53135,-0.53541 0,-0.29515 0.23832,-0.53489 0.53135,-0.53489 z m -4.77948,-4.01588 c 0,-0.73935 0.59423,-1.33854 1.32758,-1.33854 h 3.71744 c 0.73335,0 1.3277,0.59919 1.3277,1.33854 v 0.80285 1.60651 c 0,0.29595 -0.23752,0.53542 -0.53109,0.53542 -0.29355,0 -0.53108,-0.23947 -0.53108,-0.53542 v -1.60651 -0.53489 c 0,-0.29593 -0.23778,-0.5354 -0.53107,-0.5354 h -3.18661 c -0.29344,0 -0.53109,0.23947 -0.53109,0.5354 v 1.0703 c 0,0.29595 0.23765,0.53569 0.53109,0.53569 h 2.1247 c 0.29288,0 0.53053,0.23946 0.53053,0.53541 0,0.29595 -0.23765,0.53542 -0.53053,0.53542 h -2.38999 c -0.73335,0 -1.32758,-0.59892 -1.32758,-1.33827 z m 0.53057,6.15728 h 2.1247 c 0.29343,0 0.53108,0.23972 0.53108,0.5354 0,0.29597 -0.23768,0.5357 -0.53108,0.5357 h -2.1247 c -0.29289,0 -0.53054,-0.23973 -0.53054,-0.5357 -3e-5,-0.29568 0.23765,-0.5354 0.53054,-0.5354 z m 0,-2.1414 h 2.1247 c 0.29343,0 0.53108,0.23974 0.53108,0.53489 0,0.29595 -0.23768,0.53541 -0.53108,0.53541 h -2.1247 c -0.29289,0 -0.53054,-0.23946 -0.53054,-0.53541 -3e-5,-0.29515 0.23765,-0.53489 0.53054,-0.53489 z m 10.09078,6.42472 h -9.55957 -1.06178 -1.0623 c -1.75972,0 -3.18645,-1.43838 -3.18645,-3.21222 v -3.74791 c 0,-0.29596 0.23765,-0.53569 0.53121,-0.53569 0.29289,0 0.53055,0.23973 0.53055,0.53569 v 0.53541 0.53489 2.67761 c 0,1.18272 0.95142,2.14139 2.12471,2.14139 h 1.32755 1.85876 8.23177 c 0.73335,0 1.32745,-0.5992 1.32745,-1.33854 v -10.17263 c 0,-0.7396 -0.5941,-1.33854 -1.32745,-1.33854 h -10.0905 c -0.73335,0 -1.32755,0.59894 -1.32755,1.33854 v 3.47966 0.53569 4.81873 c 0,0.29597 -0.2378,0.5357 -0.53122,0.5357 -0.29341,0 -0.5312,-0.23973 -0.5312,-0.5357 v -3.21221 -1.57931 -1.09828 -0.26747 -2.94505 c -5e-5,-1.18273 0.95142,-2.1414 2.12467,-2.1414 h 10.62137 c 1.17345,0 2.12433,0.95867 2.12433,2.1414 v 10.70831 c 0,1.183 -0.95088,2.14193 -2.12435,2.14193 z m -14.33889,-8.56665 c -0.29356,0 -0.53121,-0.23974 -0.53121,-0.53569 0,-0.29515 0.23765,-0.53541 0.53121,-0.53541 0.29289,0 0.53055,0.24026 0.53055,0.53541 0,0.29595 -0.23766,0.53569 -0.53055,0.53569 z"
     id="path2-3"
     style="fill:#f2f2f2;fill-opacity:1;stroke-width:0.0333275" />
  <path
     style="fill:url(#linearGradient862-36);fill-opacity:1;stroke-width:0.149282"
     d="m 205.00264,58.299707 c -0.7336,0 -1.60199,-0.4304 -1.93077,-0.956534 l -1.47508,-2.364317 c -0.32729,-0.526116 -1.19567,-0.955566 -1.929,-0.956516 l -17.00094,-0.02233 c -1.62167,-0.0033 -2.30517,0.779134 -2.32822,2.503451 l -0.01,0.7269 v 2.138683 30.476318 c 0,0.58813 1.93394,2.13868 2.66727,2.13868 h 44.01262 c 0.73335,0 2.66727,-1.55055 2.66727,-2.13868 V 60.438391 c 0,-1.604017 -0.6667,-2.138684 -2.66727,-2.138684 z"
     id="path4-3-7"
     sodipodi:nodetypes="sccsssccsssssss" />
  <path
     style="fill:#f2f2f2;fill-opacity:1;stroke-width:0.147138"
     d="m 226.48172,69.716225 c 0,1.104567 -0.66313,2.008287 -2.18095,2.008287 h -38.49632 c -1.51783,0 -2.09877,-0.90372 -2.09877,-2.008287 v -6.024867 c 0,-1.104567 0.58094,-2.008301 2.09877,-2.008301 h 38.4137 c 1.51782,0 2.26357,0.903734 2.26357,2.008301 z"
     id="path8-6-5"
     sodipodi:nodetypes="sssssssss" />
  <path
     style="fill:url(#linearGradient844-5);fill-opacity:1;stroke-width:0.161117"
     d="m 227.29717,65.109575 h -44.59434 c -1.35151,0 -2.70283,1.229383 -2.70283,2.458767 v 23.9729 c 0,1.62589 1.04518,2.45875 2.70283,2.45875 h 44.59434 c 1.66292,0 2.70283,-0.83286 2.70283,-2.45875 v -23.9729 c 0,-1.229384 -1.35133,-2.458767 -2.70283,-2.458767 z"
     id="path10-3"
     sodipodi:nodetypes="sssssssss" />
  <path
     fill-rule="evenodd"
     clip-rule="evenodd"
     d="m 222.72214,80.716392 c 0,-0.25872 0.20801,-0.46848 0.46451,-0.46848 0.25654,0 0.46452,0.20976 0.46452,0.46848 0,0.25872 -0.20798,0.46849 -0.46452,0.46849 -0.2565,0 -0.46451,-0.20977 -0.46451,-0.46849 z m 4.11055,4.6046 -5.58384,5.63145 c -0.36278,0.36602 -0.83828,0.53919 -1.3138,0.53919 -0.47551,0 -0.95105,-0.17317 -1.31383,-0.53919 l -5.58394,-5.63145 c -0.38851,-0.3921 -0.56204,-0.91388 -0.53444,-1.42698 v 0.10183 c 0,-1.03488 0.83181,-1.87395 1.85803,-1.87395 h 0.92903 c 0.51309,0 0.92905,-0.41953 0.92905,-0.93698 v -2.81094 c 0,-1.03488 0.83185,-1.87395 1.85807,-1.87395 h 3.71613 c 1.0261,0 1.85807,0.83907 1.85807,1.87395 v 0.4685 c 0,0.25872 -0.20797,0.46849 -0.46452,0.46849 -0.2565,0 -0.46451,-0.20977 -0.46451,-0.46849 v -0.4685 c 0,-0.51743 -0.41595,-0.93696 -0.929,-0.93696 h -3.7162 c -0.51305,0 -0.92904,0.41953 -0.92904,0.93696 v 2.81094 c 0,1.0349 -0.83183,1.87395 -1.85808,1.87395 h -0.929 c -0.51304,0 -0.929,0.41953 -0.929,0.93698 0,0 -0.003,0.002 -0.01,0.003 6.3e-4,0.23858 0.0912,0.47695 0.27171,0.65881 l 5.58382,5.6317 c 0.3629,0.36602 0.95102,0.36602 1.31394,0 l 5.58383,-5.6317 c 0.18053,-0.1821 0.27103,-0.42043 0.2717,-0.65928 -0.007,-0.002 -0.01,-0.003 -0.01,-0.003 0,-0.51745 -0.41595,-0.93699 -0.929,-0.93699 h -0.46452 c -0.25655,0 -0.46451,-0.20976 -0.46451,-0.46848 0,-0.25872 0.20796,-0.46848 0.46451,-0.46848 h 0.46452 c 1.02608,0 1.85807,0.83906 1.85807,1.87395 v -0.10184 c 0.0277,0.51312 -0.14617,1.0349 -0.53467,1.427 z"
     id="path2"
     style="fill:#f2f2f2;fill-opacity:1;stroke-width:0.0291615" />
  <path
     style="fill:url(#linearGradient862-3-5);fill-opacity:1;stroke-width:0.149282"
     d="m 51.00264,124.29967 c -0.7336,0 -1.60199,-0.4304 -1.93077,-0.95653 l -1.47508,-2.36432 c -0.32729,-0.52611 -1.19567,-0.95556 -1.929,-0.95651 l -17.00094,-0.0223 c -1.62167,-0.003 -2.30517,0.77914 -2.32822,2.50345 l -0.01,0.7269 v 2.13869 30.47632 c 0,0.58813 1.93394,2.13868 2.66727,2.13868 h 44.01262 c 0.73335,0 2.66727,-1.55055 2.66727,-2.13868 v -29.40701 c 0,-1.60402 -0.6667,-2.13869 -2.66727,-2.13869 z"
     id="path4-3-9-2"
     sodipodi:nodetypes="sccsssccsssssss" />
  <path
     style="fill:#f2f2f2;fill-opacity:1;stroke-width:0.147138"
     d="m 72.48172,135.71619 c 0,1.10457 -0.66313,2.00829 -2.18095,2.00829 H 31.80445 c -1.51783,0 -2.09877,-0.90372 -2.09877,-2.00829 v -6.02486 c 0,-1.10457 0.58094,-2.0083 2.09877,-2.0083 h 38.41371 c 1.51781,0 2.26356,0.90373 2.26356,2.0083 z"
     id="path8-6-1-9"
     sodipodi:nodetypes="sssssssss" />
  <path
     style="fill:url(#linearGradient844-3-6);fill-opacity:1;stroke-width:0.161117"
     d="M 73.29717,131.10954 H 28.70283 c -1.35151,0 -2.70283,1.22939 -2.70283,2.45877 v 23.9729 c 0,1.62589 1.04518,2.45875 2.70283,2.45875 h 44.59434 c 1.66292,0 2.70284,-0.83286 2.70284,-2.45875 v -23.9729 c 0,-1.22938 -1.35134,-2.45877 -2.70284,-2.45877 z"
     id="path10-2-1"
     sodipodi:nodetypes="sssssssss" />
  <path
     d="m 70.58949,147.11988 c -0.94555,0 -1.71195,-0.77265 -1.71195,-1.72535 0,-0.3177 0.25575,-0.57555 0.57083,-0.57555 0.31537,0 0.57027,0.25785 0.57027,0.57551 0,0.31709 0.25575,0.57492 0.57085,0.57492 0.31537,0 0.57025,0.25785 0.57025,0.57493 0,0.31769 -0.25488,0.57554 -0.57025,0.57554 z m -1.14112,7.4777 c 0,0.31795 -0.25575,0.57578 -0.57083,0.57578 -0.31452,0 -0.57027,-0.25783 -0.57027,-0.57578 0,-0.31795 0.25575,-0.57463 0.57027,-0.57463 0.31508,0 0.57083,0.25668 0.57083,0.57463 z m -1.9479,-4.83948 -0.35491,0.35698 c -0.2226,0.22455 -0.58337,0.22455 -0.8068,0 -0.22259,-0.2244 -0.22259,-0.58897 0,-0.81338 l 0.35491,-0.35729 c 0.89149,-0.89848 2.33599,-0.89848 3.22719,0 l 1.21021,1.22054 c 0.22345,0.22411 0.22345,0.5887 0,0.8134 -0.22258,0.22411 -0.58391,0.22411 -0.80678,0 l -1.21022,-1.22022 c -0.44518,-0.44972 -1.16843,-0.44972 -1.6136,-3e-5 z m 3.65927,7.71558 H 57.46679 c -1.26037,0 -2.28222,-1.02967 -2.28222,-2.30032 v -1.72621 c 0,-0.31795 0.25575,-0.57464 0.57083,-0.57464 0.31452,0 0.57027,0.25674 0.57027,0.57464 v 1.72621 c 0,0.6348 0.51065,1.1499 1.14112,1.1499 h 13.69295 c 0.63047,0 1.14112,-0.5151 1.14112,-1.1499 v -10.35438 c 0,-0.6356 -0.51065,-1.15042 -1.14112,-1.15042 H 57.46679 c -0.63047,0 -1.14112,0.51482 -1.14112,1.15042 v 5.55433 c 0,0.159 0.12783,0.28762 0.28498,0.28762 0.0735,0 0.13734,-0.028 0.1889,-0.074 l 2.76222,-2.78468 c 0.8912,-0.89852 2.33599,-0.89852 3.22719,0 l 4.80401,4.84345 c 0.11484,0.105 0.18832,0.25556 0.18832,0.42465 0,0.3168 -0.25518,0.57463 -0.57027,0.57463 -0.17355,0 -0.32706,-0.0793 -0.43126,-0.20223 l -0.005,0.003 -4.79234,-4.8316 c -0.44516,-0.44882 -1.1684,-0.44882 -1.61358,0 l -2.76585,2.7886 c -0.25715,0.25107 -0.60622,0.40725 -0.99205,0.40725 -0.7876,0 -1.42612,-0.64373 -1.42612,-1.43803 v -5.55434 c 0,-1.27063 1.02185,-2.30085 2.2822,-2.30085 h 13.69297 c 1.26092,0 2.2825,1.03025 2.2825,2.30085 v 10.35435 c 0,1.27069 -1.02158,2.30035 -2.2825,2.30035 z"
     id="path2-36"
     style="fill:#f2f2f2;fill-opacity:1;stroke:url(#linearGradient1897);stroke-width:0.0358048" />
  <path
     style="fill:url(#linearGradient862-3-2);fill-opacity:1;stroke-width:0.149282"
     d="m 129.00264,124.29967 c -0.7336,0 -1.60199,-0.4304 -1.93077,-0.95653 l -1.47508,-2.36432 c -0.32729,-0.52611 -1.19567,-0.95556 -1.929,-0.95651 l -17.00094,-0.0223 c -1.62167,-0.003 -2.30517,0.77914 -2.32822,2.50345 l -0.01,0.7269 v 2.13869 30.47632 c 0,0.58813 1.93394,2.13868 2.66727,2.13868 h 44.01262 c 0.73335,0 2.66727,-1.55055 2.66727,-2.13868 V 126.4384 c 0,-1.60402 -0.6667,-2.13869 -2.66727,-2.13869 z"
     id="path4-3-9-0"
     sodipodi:nodetypes="sccsssccsssssss" />
  <path
     style="fill:#f2f2f2;fill-opacity:1;stroke-width:0.147138"
     d="m 150.48172,135.71619 c 0,1.10457 -0.66313,2.00829 -2.18095,2.00829 h -38.49632 c -1.51783,0 -2.09877,-0.90372 -2.09877,-2.00829 v -6.02486 c 0,-1.10457 0.58094,-2.0083 2.09877,-2.0083 h 38.4137 c 1.51782,0 2.26357,0.90373 2.26357,2.0083 z"
     id="path8-6-1-93"
     sodipodi:nodetypes="sssssssss" />
  <path
     style="fill:url(#linearGradient844-3-7);fill-opacity:1;stroke-width:0.161117"
     d="m 151.29717,131.10954 h -44.59434 c -1.35151,0 -2.70283,1.22939 -2.70283,2.45877 v 23.9729 c 0,1.62589 1.04518,2.45875 2.70283,2.45875 h 44.59434 c 1.66292,0 2.70283,-0.83286 2.70283,-2.45875 v -23.9729 c 0,-1.22938 -1.35133,-2.45877 -2.70283,-2.45877 z"
     id="path10-2-6"
     sodipodi:nodetypes="sssssssss" />
  <path
     d="m 148.58175,156.55501 c -1.53976,0 -2.7877,-1.25791 -2.7877,-2.81045 0,-1.55236 1.24797,-2.81095 2.7877,-2.81095 0.25685,0 0.46515,0.20929 0.46515,0.46802 0,0.25895 -0.2083,0.46895 -0.46515,0.46895 -1.02628,0 -1.85878,0.83862 -1.85878,1.87398 0,1.03465 0.8325,1.87349 1.85878,1.87349 1.02697,0 1.85899,-0.83884 1.85899,-1.87349 v -2.0906 -0.9546 -2.10878 c 0,-0.25825 0.20808,-0.46828 0.46493,-0.46828 0.25663,0 0.46445,0.21 0.46445,0.46828 v 5.15398 c 0,1.55254 -1.24838,2.81045 -2.78837,2.81045 z m 1.5107,-9.07456 -7.55397,1.53311 c -0.26455,0.0562 -0.46196,0.29029 -0.46196,0.57259 v 5.09541 c 0,1.5525 -1.24842,2.81044 -2.78839,2.81044 -1.53973,0 -2.78813,-1.25794 -2.78813,-2.81047 0,-0.77593 0.31245,-1.4787 0.81683,-1.98743 l 0.002,0.002 c 0.0837,-0.085 0.20059,-0.1375 0.32855,-0.1375 0.25685,0 0.46515,0.21 0.46515,0.46872 0,0.13517 -0.0582,0.25645 -0.14983,0.342 -0.32923,0.33743 -0.5332,0.80088 -0.5332,1.31238 0,1.03485 0.8325,1.87349 1.85877,1.87349 1.0265,0 1.85898,-0.83864 1.85898,-1.87349 v -2.0906 -0.72035 -2.23323 c 0,-0.73795 0.52053,-1.35332 1.21233,-1.49263 l 6.2e-4,-6.2e-4 0.155,-0.0332 c 0.008,-8.3e-4 0.0167,-8.3e-4 0.026,-0.003 l 7.43529,-1.61044 c 0.25663,-0.0568 0.46446,-0.31248 0.46446,-0.57143 v -2.10797 c 0,-0.25895 -0.20783,-0.4225 -0.46446,-0.36623 l -7.43529,1.6109 c -0.25687,0.056 -0.46447,0.312 -0.46447,0.57073 v 1.08362 c 0,0.25825 -0.2083,0.46825 -0.46515,0.46825 -0.25663,0 -0.46423,-0.21 -0.46423,-0.46825 v -1.136 c 0,-0.68377 0.572,-1.35402 1.27767,-1.49767 l 7.66765,-1.55596 c 0.70543,-0.143 1.27767,0.29508 1.27767,0.97928 v 2.47605 c 0,0.6842 -0.57224,1.3547 -1.27767,1.49767 z m -10.80432,5.32711 c -0.25661,0 -0.46491,-0.21001 -0.46491,-0.46873 0,-0.25895 0.2083,-0.46825 0.46491,-0.46825 0.25687,0 0.46447,0.2093 0.46447,0.46825 0,0.25872 -0.2076,0.46873 -0.46447,0.46873 z"
     id="path2-0"
     style="fill:#f2f2f2;fill-opacity:1;stroke-width:0.0291615" />
  <path
     style="fill:url(#linearGradient862-3-6);fill-opacity:1;stroke-width:0.149282"
     d="m 205.00264,124.29968 c -0.7336,0 -1.60199,-0.4304 -1.93077,-0.95654 l -1.47508,-2.36431 c -0.32729,-0.52612 -1.19567,-0.95557 -1.929,-0.95652 l -17.00094,-0.0223 c -1.62167,-0.003 -2.30517,0.77913 -2.32822,2.50345 l -0.01,0.7269 v 2.13868 30.47632 c 0,0.58813 1.93394,2.13868 2.66727,2.13868 h 44.01262 c 0.73335,0 2.66727,-1.55055 2.66727,-2.13868 v -29.40697 c 0,-1.60402 -0.6667,-2.13868 -2.66727,-2.13868 z"
     id="path4-3-9-6"
     sodipodi:nodetypes="sccsssccsssssss" />
  <path
     style="fill:#f2f2f2;fill-opacity:1;stroke-width:0.147138"
     d="m 226.48172,135.7162 c 0,1.10456 -0.66313,2.00828 -2.18095,2.00828 h -38.49632 c -1.51783,0 -2.09877,-0.90372 -2.09877,-2.00828 v -6.02487 c 0,-1.10457 0.58094,-2.0083 2.09877,-2.0083 h 38.41371 c 1.51781,0 2.26356,0.90373 2.26356,2.0083 z"
     id="path8-6-1-1"
     sodipodi:nodetypes="sssssssss" />
  <path
     style="fill:url(#linearGradient844-3-2);fill-opacity:1;stroke-width:0.161117"
     d="m 227.29717,131.10955 h -44.59434 c -1.35151,0 -2.70283,1.22938 -2.70283,2.45876 v 23.9729 c 0,1.62589 1.04518,2.45875 2.70283,2.45875 h 44.59434 c 1.66292,0 2.70284,-0.83286 2.70284,-2.45875 v -23.9729 c 0,-1.22938 -1.35134,-2.45876 -2.70284,-2.45876 z"
     id="path10-2-8"
     sodipodi:nodetypes="sssssssss" />
  <path
     d="m 210.31739,147.954 c -0.3735,0 -0.67625,-0.30535 -0.67625,-0.6819 0,-0.37654 0.30275,-0.68177 0.67625,-0.68177 0.37346,0 0.67635,0.30523 0.67635,0.68177 0,0.37655 -0.30289,0.6819 -0.67635,0.6819 z m 4.05778,0 h -1.3526 c -0.37348,0 -0.67625,-0.30535 -0.67625,-0.6819 0,-0.37654 0.30277,-0.68177 0.67625,-0.68177 h 1.69079 c 0.93385,0 1.69066,0.76302 1.69066,1.70448 v 3.40919 c 0,0.94146 -0.75681,1.70448 -1.69066,1.70448 h -3.38157 c -0.93384,0 -1.69065,-0.76302 -1.69065,-1.70448 v -1.7046 c 0,-0.37654 0.30275,-0.68177 0.67625,-0.68177 0.37346,0 0.67635,0.30523 0.67635,0.68177 v 1.36365 c 0,0.37653 0.30275,0.68178 0.67623,0.68178 h 2.7052 c 0.37349,0 0.67625,-0.30525 0.67625,-0.68178 v -2.72729 c 0,-0.37655 -0.30276,-0.68176 -0.67625,-0.68176 z m 10.82069,8.18178 c -0.14067,0 -0.27729,-0.015 -0.40952,-0.0417 -0.50883,-0.0772 -0.99757,-0.302 -1.40408,-0.67015 -0.18062,-0.12216 -0.29975,-0.32993 -0.29975,-0.56636 0,-0.37655 0.30276,-0.68177 0.67625,-0.68177 0.18686,0 0.35495,0.0767 0.47818,0.1998 0.22882,0.22695 0.51777,0.35018 0.81532,0.3805 0.0458,0.01 0.0943,0.0167 0.1435,0.0167 0.37348,0 0.67636,-0.30525 0.67636,-0.68177 v -8.18193 c 0,-0.37655 -0.30288,-0.68179 -0.67636,-0.68179 v -0.008 c -0.3503,-0.002 -0.7017,0.1325 -0.96914,0.40222 l -3.37358,3.401 c -0.28823,0.29073 -0.41508,0.67893 -0.39133,1.05936 v 2.41502 2.27552 c 0,1.50616 -1.21125,2.72731 -2.7052,2.72731 h -9.46804 c -1.49395,2e-5 -2.7052,-1.22111 -2.7052,-2.72728 v -9.54541 c 0,-1.50615 1.21125,-2.7273 2.7052,-2.7273 h 9.46809 c 1.49395,0 2.7052,1.22115 2.7052,2.7273 v 0.68176 c 0,0.37654 -0.30282,0.68189 -0.67627,0.68189 -0.37347,0 -0.67633,-0.30535 -0.67633,-0.68189 v -0.68176 c 0,-0.75309 -0.60562,-1.36365 -1.3526,-1.36365 h -9.46809 c -0.74698,0 -1.35262,0.61056 -1.35262,1.36365 v 9.54543 c 0,0.75308 0.60564,1.36365 1.35262,1.36365 h 9.46809 c 0.74698,0 1.3526,-0.61057 1.3526,-1.36365 v -4.77272 h 0.003 c 0,-0.70178 0.2659,-1.40327 0.79617,-1.93865 l 3.36528,-3.39273 c 0.42673,-0.42915 0.95938,-0.6778 1.51345,-0.763 0.132,-0.0272 0.2688,-0.0418 0.40952,-0.0418 1.12051,0 2.02883,0.91578 2.02883,2.0454 v 8.18189 c -5e-5,1.12955 -0.90837,2.0454 -2.02888,2.0454 z m -3.04325,-3.75002 c 0.37348,0 0.67625,0.30534 0.67625,0.68189 0,0.37653 -0.30277,0.68176 -0.67625,0.68176 -0.37349,0 -0.67637,-0.30523 -0.67637,-0.68176 0,-0.37655 0.30288,-0.68189 0.67637,-0.68189 z"
     id="path2-3-7"
     style="fill:#f2f2f2;fill-opacity:1;stroke-width:0.0424407" />
  <path
     style="fill:#f7e5a1;fill-opacity:1;stroke-width:0.149281"
     d="m 51.00263,188.29983 c -0.7336,0 -1.60198,-0.43038 -1.93076,-0.95651 L 47.59678,184.979 c -0.32728,-0.52612 -1.19566,-0.95553 -1.929,-0.9565 L 28.66685,184 c -1.62167,-0.002 -2.30517,0.77913 -2.3282,2.50345 l -0.01,0.72687 v 2.13871 30.47617 c 0,0.58815 1.93392,2.13867 2.66725,2.13867 h 44.012614 c 0.733366,0 2.667266,-1.55052 2.667266,-2.13867 v -29.40685 c 0,-1.604 -0.6667,-2.13868 -2.667266,-2.13868 z"
     id="path4-3-2"
     sodipodi:nodetypes="sccsssccsssssss" />
  <path
     style="fill:#434c5e;fill-opacity:1;stroke-width:0.147137"
     d="m 72.481714,199.7163 c 0,1.10457 -0.663134,2.00828 -2.18095,2.00828 H 31.80445 c -1.51783,0 -2.09877,-0.90371 -2.09877,-2.00828 v -6.02483 c 0,-1.10457 0.58094,-2.00829 2.09877,-2.00829 h 38.413714 c 1.5178,0 2.26355,0.90372 2.26355,2.00829 z"
     id="path8-6-0"
     sodipodi:nodetypes="sssssssss" />
  <path
     style="fill:url(#linearGradient844-9);fill-opacity:1;stroke-width:0.161116"
     d="M 73.297164,195.10967 H 28.70283 c -1.35151,0 -2.70283,1.22938 -2.70283,2.45876 v 23.9728 C 26,223.16713 27.04518,224 28.70283,224 h 44.594334 c 1.662916,0 2.702833,-0.83287 2.702833,-2.45877 v -23.9728 c 0,-1.22938 -1.351317,-2.45876 -2.702833,-2.45876 z"
     id="path10-23"
     sodipodi:nodetypes="sssssssss" />
  <path
     style="fill:url(#linearGradient862-7);fill-opacity:1;stroke-width:0.149282"
     d="m 129.00263,188.29968 c -0.7336,0 -1.60198,-0.43041 -1.93077,-0.95653 l -1.47508,-2.36433 c -0.32728,-0.52612 -1.19565,-0.95555 -1.929,-0.95652 L 106.66687,184 c -1.62169,-0.002 -2.30519,0.77913 -2.32822,2.50345 l -0.01,0.7269 v 2.13868 30.47632 c 0,0.58813 1.93392,2.13868 2.66727,2.13868 h 44.01259 c 0.73337,0 2.66727,-1.55055 2.66727,-2.13868 v -29.40697 c 0,-1.60402 -0.6667,-2.13868 -2.66727,-2.13868 z"
     id="path4-3-97"
     sodipodi:nodetypes="sccsssccsssssss" />
  <path
     style="fill:#f2f2f2;fill-opacity:1;stroke-width:0.147137"
     d="m 150.48173,199.7162 c 0,1.10455 -0.66317,2.00829 -2.18097,2.00829 h -38.49629 c -1.51784,0 -2.09879,-0.90374 -2.09879,-2.00829 v -6.02488 c 0,-1.10457 0.58095,-2.0083 2.09879,-2.0083 h 38.41369 c 1.5178,0 2.26357,0.90373 2.26357,2.0083 z"
     id="path8-6-3"
     sodipodi:nodetypes="sssssssss" />
  <path
     style="fill:url(#linearGradient844-2);fill-opacity:1;stroke-width:0.161116"
     d="m 151.29716,195.10955 h -44.59433 c -1.35151,0 -2.70283,1.22938 -2.70283,2.45875 v 23.97292 c 0,1.62588 1.04518,2.45875 2.70283,2.45875 h 44.59433 c 1.66292,0 2.70283,-0.83287 2.70283,-2.45875 V 197.5683 c 0,-1.22937 -1.35131,-2.45875 -2.70283,-2.45875 z"
     id="path10-6"
     sodipodi:nodetypes="sssssssss" />
  <path
     d="m 139.02469,217.80823 v -5.625 c 0,-0.31104 0.25152,-0.5626 0.56154,-0.5626 0.31035,0 0.5616,0.25156 0.5616,0.5626 v 5.625 c 0,0.3104 -0.25125,0.56255 -0.5616,0.56255 -0.31002,0 -0.56154,-0.25215 -0.56154,-0.56255 z m 3.92992,-1.68745 c -0.31018,0 -0.56137,-0.25215 -0.56137,-0.56255 v -3.375 c 0,-0.31104 0.25119,-0.5626 0.56137,-0.5626 0.31049,0 0.56134,0.25156 0.56134,0.5626 v 3.375 c 0,0.3104 -0.25085,0.56255 -0.56134,0.56255 z m 0,2.25 c -0.31018,0 -0.56137,-0.25215 -0.56137,-0.56255 0,-0.31094 0.25119,-0.56245 0.56137,-0.56245 0.31049,0 0.56134,0.25151 0.56134,0.56245 0,0.3104 -0.25085,0.56255 -0.56134,0.56255 z m 4.49131,-5.62515 c -0.31049,0 -0.56135,-0.25152 -0.56135,-0.5624 0,-0.31104 0.25086,-0.5626 0.56135,-0.5626 0.3105,0 0.5614,0.25156 0.5614,0.5626 0,0.31088 -0.2509,0.5624 -0.5614,0.5624 z m 0.5614,-3.37496 h -0.30242 -2.22369 -0.28103 -8.14026 c -0.77506,0 -1.40318,0.62947 -1.40318,1.40633 v 0.28099 2.25024 5.90622 c 0,0.77681 0.62812,1.40628 1.40318,1.40628 h 8.42129 c 0.77505,0 1.40336,-0.62947 1.40336,-1.40628 v -4.78122 c 0,-0.31089 0.25086,-0.5624 0.56135,-0.5624 0.3105,0 0.5614,0.25151 0.5614,0.5624 v 5.0625 c 0,1.24263 -1.00535,2.25 -2.24541,2.25 h -8.98228 c -1.24029,0 -2.246,-1.00737 -2.246,-2.25 v -6.1875 -2.25024 -0.56197 c 0,-1.24293 1.00571,-2.25029 2.246,-2.25029 h 0.56063 8.42165 2.24541 c 0.62031,0 1.12251,-0.5037 1.12251,-1.1253 0,-0.621 -0.5022,-1.1247 -1.12251,-1.1247 h -4.21066 c -0.61987,0 -0.78323,-1.125 -1.40342,-1.125 h -2.24541 c -0.62049,0 -0.78354,1.125 -1.40349,1.125 h -4.21071 c -0.61985,0 -1.1232,0.5037 -1.1232,1.1247 0,0.31075 -0.25114,0.5628 -0.56077,0.5628 -0.31043,0 -0.56153,-0.25205 -0.56153,-0.5628 0,-1.24234 1.00524,-2.2497 2.2455,-2.2497 h 3.08782 c 0.61999,0 0.78378,-1.125 1.40318,-1.125 h 4.49127 c 0.62041,0 0.78397,1.125 1.40373,1.125 h 3.08764 c 1.24044,0 2.24576,1.00736 2.24576,2.24966 0,1.24292 -1.00527,2.25028 -2.24571,2.25028 z"
     id="path2-3-1"
     style="fill:#d40000;fill-opacity:1;stroke-width:0.035157" />
</svg>
