<?xml version="1.0" encoding="UTF-8" standalone="no"?>
<svg
   viewBox="0 0 256 256"
   id="svg2"
   version="1.1"
   inkscape:version="1.1.1 (3bf5ae0d25, 2021-09-20)"
   sodipodi:docname="org.kde.plasma.folder.svg"
   xmlns:inkscape="http://www.inkscape.org/namespaces/inkscape"
   xmlns:sodipodi="http://sodipodi.sourceforge.net/DTD/sodipodi-0.dtd"
   xmlns:xlink="http://www.w3.org/1999/xlink"
   xmlns="http://www.w3.org/2000/svg"
   xmlns:svg="http://www.w3.org/2000/svg"
   xmlns:rdf="http://www.w3.org/1999/02/22-rdf-syntax-ns#"
   xmlns:cc="http://creativecommons.org/ns#"
   xmlns:dc="http://purl.org/dc/elements/1.1/">
  <metadata
     id="metadata10">
    <rdf:RDF>
      <cc:Work
         rdf:about="">
        <dc:format>image/svg+xml</dc:format>
        <dc:type
           rdf:resource="http://purl.org/dc/dcmitype/StillImage" />
      </cc:Work>
    </rdf:RDF>
  </metadata>
  <sodipodi:namedview
     pagecolor="#ffffff"
     bordercolor="#666666"
     borderopacity="1"
     objecttolerance="10"
     gridtolerance="10"
     guidetolerance="10"
     inkscape:pageopacity="0"
     inkscape:pageshadow="2"
     inkscape:window-width="1920"
     inkscape:window-height="1007"
     id="namedview8"
     showgrid="false"
     inkscape:zoom="2.6074563"
     inkscape:cx="152.63918"
     inkscape:cy="149.57106"
     inkscape:window-x="0"
     inkscape:window-y="0"
     inkscape:window-maximized="1"
     inkscape:current-layer="svg2"
     inkscape:pagecheckerboard="0"
     showguides="false" />
  <defs
     id="defs4">
    <style
       id="current-color-scheme"
       type="text/css">
      .ColorScheme-Text {
        color:#4d4d4d;
      }
      .ColorScheme-Background {
        color:#eff0f1;
      }
      .ColorScheme-Highlight {
        color:#3daee9;
      }
      .ColorScheme-ViewText {
        color:#31363b;
      }
      .ColorScheme-ViewBackground {
        color:#fcfcfc;
      }
      .ColorScheme-ViewHover {
        color:#93cee9;
      }
      .ColorScheme-ViewFocus{
        color:#3daee9;
      }
      .ColorScheme-ButtonText {
        color:#31363b;
      }
      .ColorScheme-ButtonBackground {
        color:#eff0f1;
      }
      .ColorScheme-ButtonHover {
        color:#93cee9;
      }
      .ColorScheme-ButtonFocus{
        color:#3daee9;
      }
      </style>
    <linearGradient
       id="linearGradient4172-0">
      <stop
         style="stop-color:#f89406;stop-opacity:1"
         offset="0"
         id="stop4174-4-7" />
      <stop
         style="stop-color:#faa938;stop-opacity:1"
         offset="1"
         id="stop4176-5" />
    </linearGradient>
    <linearGradient
       inkscape:collect="always"
       xlink:href="#linearGradient991"
       id="linearGradient1482"
       x1="386.57144"
       y1="516.39801"
       x2="446.62146"
       y2="516.39801"
       gradientUnits="userSpaceOnUse"
       gradientTransform="matrix(0.77051123,0,0,0.76923077,-273.65763,-323.22922)" />
    <linearGradient
       inkscape:collect="always"
       id="linearGradient991">
      <stop
         style="stop-color:#393e46;stop-opacity:1"
         offset="0"
         id="stop987" />
      <stop
         style="stop-color:#393e46;stop-opacity:1"
         offset="0.03132199"
         id="stop1929" />
      <stop
         style="stop-color:#0069a6;stop-opacity:1"
         offset="0.05527586"
         id="stop1263" />
      <stop
         style="stop-color:#0069a6;stop-opacity:1"
         offset="0.10902679"
         id="stop1027" />
      <stop
         style="stop-color:#393e46;stop-opacity:1"
         offset="1"
         id="stop989" />
    </linearGradient>
    <linearGradient
       inkscape:collect="always"
       xlink:href="#linearGradient1168"
       id="linearGradient1008"
       gradientUnits="userSpaceOnUse"
       x1="423.07144"
       y1="522.54797"
       x2="439.57144"
       y2="522.54797"
       gradientTransform="matrix(0.76923077,0,0,0.76923077,-191.66264,-322.76769)" />
    <linearGradient
       inkscape:collect="always"
       id="linearGradient1168">
      <stop
         style="stop-color:#ffcc00;stop-opacity:1"
         offset="0"
         id="stop1164" />
      <stop
         style="stop-color:#00b2b2;stop-opacity:1"
         offset="1"
         id="stop1166" />
    </linearGradient>
    <linearGradient
       inkscape:collect="always"
       xlink:href="#linearGradient991"
       id="linearGradient1482-3"
       x1="386.57144"
       y1="516.39801"
       x2="446.62146"
       y2="516.39801"
       gradientUnits="userSpaceOnUse"
       gradientTransform="matrix(0.77051123,0,0,0.76923077,-192.15763,-323.22923)" />
    <linearGradient
       inkscape:collect="always"
       xlink:href="#linearGradient945"
       id="linearGradient947"
       x1="4"
       y1="28"
       x2="33.34478"
       y2="26.677084"
       gradientUnits="userSpaceOnUse" />
    <linearGradient
       inkscape:collect="always"
       id="linearGradient945">
      <stop
         style="stop-color:#2affd5;stop-opacity:1"
         offset="0"
         id="stop941" />
      <stop
         style="stop-color:#9063d4;stop-opacity:1"
         offset="1"
         id="stop943" />
    </linearGradient>
    <linearGradient
       inkscape:collect="always"
       xlink:href="#linearGradient991"
       id="linearGradient1482-2"
       x1="386.57144"
       y1="516.39801"
       x2="446.62146"
       y2="516.39801"
       gradientUnits="userSpaceOnUse"
       gradientTransform="matrix(0.77051123,0,0,0.76923077,-110.65763,-323.22922)" />
    <linearGradient
       inkscape:collect="always"
       xlink:href="#linearGradient943"
       id="linearGradient945-3"
       x1="413.76373"
       y1="522.79797"
       x2="439.60989"
       y2="522.79797"
       gradientUnits="userSpaceOnUse"
       gradientTransform="matrix(0.74218754,0,0,0.76923077,-261.30376,-257.76769)" />
    <linearGradient
       inkscape:collect="always"
       id="linearGradient943">
      <stop
         style="stop-color:#ff52ff;stop-opacity:1"
         offset="0"
         id="stop939" />
      <stop
         style="stop-color:#ff9955;stop-opacity:1"
         offset="1"
         id="stop941-6" />
    </linearGradient>
    <linearGradient
       inkscape:collect="always"
       xlink:href="#linearGradient991"
       id="linearGradient1482-0"
       x1="386.57144"
       y1="516.39801"
       x2="446.62146"
       y2="516.39801"
       gradientUnits="userSpaceOnUse"
       gradientTransform="matrix(0.77051123,0,0,0.76923077,-273.65764,-258.22923)" />
    <linearGradient
       inkscape:collect="always"
       xlink:href="#linearGradient1006"
       id="linearGradient1008-9"
       x1="418.57144"
       y1="522.79797"
       x2="439.57144"
       y2="522.79797"
       gradientUnits="userSpaceOnUse"
       gradientTransform="matrix(0.76923077,0,0,0.76923077,-191.66264,-257.76769)" />
    <linearGradient
       inkscape:collect="always"
       id="linearGradient1006">
      <stop
         style="stop-color:#ffb380;stop-opacity:1"
         offset="0"
         id="stop1002" />
      <stop
         style="stop-color:#ff58ff;stop-opacity:1"
         offset="1"
         id="stop1004" />
    </linearGradient>
    <linearGradient
       inkscape:collect="always"
       xlink:href="#linearGradient991"
       id="linearGradient1482-20"
       x1="386.57144"
       y1="516.39801"
       x2="446.62146"
       y2="516.39801"
       gradientUnits="userSpaceOnUse"
       gradientTransform="matrix(0.77051123,0,0,0.76923077,-192.15763,-258.22923)" />
    <linearGradient
       inkscape:collect="always"
       xlink:href="#linearGradient1057"
       id="linearGradient1059"
       x1="0"
       y1="34"
       x2="64"
       y2="34"
       gradientUnits="userSpaceOnUse"
       gradientTransform="matrix(0.33052886,0,0,0.35502958,206.61539,133.73373)" />
    <linearGradient
       inkscape:collect="always"
       id="linearGradient1057">
      <stop
         style="stop-color:#b380ff;stop-opacity:1;"
         offset="0"
         id="stop1053" />
      <stop
         style="stop-color:#00c8fb;stop-opacity:1"
         offset="1"
         id="stop1055" />
    </linearGradient>
    <linearGradient
       inkscape:collect="always"
       xlink:href="#linearGradient991"
       id="linearGradient1482-28"
       x1="386.57144"
       y1="516.39801"
       x2="446.62146"
       y2="516.39801"
       gradientUnits="userSpaceOnUse"
       gradientTransform="matrix(0.77051123,0,0,0.76923077,-110.85763,-258.22923)" />
    <linearGradient
       inkscape:collect="always"
       xlink:href="#linearGradient991-9"
       id="linearGradient1482-31"
       x1="386.57144"
       y1="516.39801"
       x2="446.62146"
       y2="516.39801"
       gradientUnits="userSpaceOnUse"
       gradientTransform="matrix(0.77051123,0,0,0.76923077,-273.65763,-193.22922)" />
    <linearGradient
       inkscape:collect="always"
       id="linearGradient991-9">
      <stop
         style="stop-color:#f2cb40;stop-opacity:1"
         offset="0"
         id="stop987-4" />
      <stop
         style="stop-color:#f2cb40;stop-opacity:1"
         offset="0.03132199"
         id="stop1929-7" />
      <stop
         style="stop-color:#f2cb40;stop-opacity:1"
         offset="0.05527586"
         id="stop1263-8" />
      <stop
         style="stop-color:#f5d972;stop-opacity:1"
         offset="0.10902679"
         id="stop1027-4" />
      <stop
         style="stop-color:#f7de88;stop-opacity:1"
         offset="1"
         id="stop989-5" />
    </linearGradient>
    <linearGradient
       inkscape:collect="always"
       xlink:href="#linearGradient991"
       id="linearGradient1482-36"
       x1="386.57144"
       y1="516.39801"
       x2="446.62146"
       y2="516.39801"
       gradientUnits="userSpaceOnUse"
       gradientTransform="matrix(0.77051123,0,0,0.76923077,-192.15763,-193.22923)" />
  </defs>
  <path
     style="fill:currentColor;fill-opacity:0.5;stroke:none"
     d="m 16,10 224,0 c 3.324,0 6,2.676 6,6 l 0,224 c 0,3.324 -2.676,6 -6,6 l -224,0 c -3.324,0 -6,-2.676 -6,-6 L 10,16 c 0,-3.324 2.676,-6 6,-6 z"
     class="ColorScheme-ButtonText"
     id="rect4240" />
  <path
     style="fill:currentColor;fill-opacity:1;stroke:none"
     d="m 16,12 224,0 c 2.216,0 4,1.784 4,4 l 0,224 c 0,2.216 -1.784,4 -4,4 l -224,0 c -2.216,0 -4,-1.784 -4,-4 L 12,16 c 0,-2.216 1.784,-4 4,-4 z"
     class="ColorScheme-Background"
     id="rect4238" />
  <path
     style="fill:currentColor;fill-opacity:1.0;stroke:none"
     class="ColorScheme-Text"
     d="m 147.75781,20.638673 -1.30273,0.0957 0,9.179687 c 0,0.50252 0.0594,0.920653 0.17578,1.253907 0.11637,0.32796 0.29574,0.579346 0.53906,0.753906 0.24333,0.17456 0.51937,0.296468 0.82617,0.365234 0.3121,0.06347 0.69801,0.0957 1.15821,0.0957 l 0.62695,0 0.0703,-0.90625 -0.35742,-0.02344 c -0.22746,-0.01587 -0.4043,-0.02846 -0.53125,-0.03906 -0.12695,-0.01587 -0.264,-0.03799 -0.41211,-0.06445 -0.14283,-0.03172 -0.25212,-0.06704 -0.32617,-0.109375 -0.0688,-0.04761 -0.13884,-0.107014 -0.21289,-0.175781 -0.0741,-0.06877 -0.12842,-0.155925 -0.16016,-0.261719 -0.0265,-0.105793 -0.0492,-0.227701 -0.0703,-0.365234 -0.0159,-0.137533 -0.0234,-0.30428 -0.0234,-0.5 l 0,-9.298828 z m 10.75,0 -1.3164,0.0957 0,2.609375 0.0625,1.912109 c -0.12696,-0.232746 -0.26148,-0.42977 -0.4043,-0.59375 -0.13753,-0.169266 -0.30681,-0.325923 -0.50781,-0.46875 -0.20102,-0.148113 -0.44035,-0.259931 -0.72071,-0.333984 -0.28035,-0.07405 -0.59871,-0.109375 -0.95312,-0.109375 -1.11084,0 -1.99195,0.396 -2.64258,1.189453 -0.64535,0.79346 -0.9668,1.831788 -0.9668,3.117188 0,1.354166 0.31136,2.431722 0.93555,3.230468 0.62947,0.793454 1.52319,1.189453 2.68164,1.189453 1.20076,0 2.0743,-0.547611 2.61914,-1.642578 l 0.11914,1.484375 1.09375,0 0,-11.679687 z m -76.019529,0.0957 0,11.583984 1.394531,0 0,-5.404297 6.03125,0 0,5.404297 1.396485,0 0,-11.583984 -1.396485,0 0,5.164063 -6.03125,0 0,-5.164063 -1.394531,0 z m 46.369139,0 0,11.583984 1.41992,0 0,-5.308593 4.69727,0 0,-1.015625 -4.69727,0 0,-4.189453 5.04688,0 0.0781,-1.070313 -6.54492,0 z m -31.626951,3.015628 c -1.232504,0 -2.200766,0.401045 -2.904297,1.205078 -0.698243,0.798747 -1.048828,1.856688 -1.048828,3.173828 0,1.2854 0.355631,2.333252 1.064453,3.142578 0.708821,0.804034 1.672038,1.205078 2.888672,1.205078 1.190186,0 2.146403,-0.403563 2.871091,-1.21289 0.7247,-0.814613 1.08789,-1.859946 1.08789,-3.134766 0,-1.31714 -0.34863,-2.375081 -1.04687,-3.173828 -0.698242,-0.804033 -1.669029,-1.205078 -2.912111,-1.205078 z m 9.464841,0 c -1.07381,0 -1.9353,0.470543 -2.58593,1.412109 l -0.1504,-1.238281 -1.06445,0 0,8.394531 1.31836,0 0,-5.117187 c 0.11108,-0.735267 0.35294,-1.325191 0.72852,-1.769531 0.38086,-0.44962 0.89371,-0.675782 1.53906,-0.675782 0.58715,0 0.99015,0.22111 1.20703,0.660157 0.21688,0.433753 0.32617,1.163246 0.32617,2.189453 l 0,4.71289 1.31641,0 0,-4.308593 c 0.0159,-0.72998 0.0456,-1.165774 0.0879,-1.308594 0.14282,-0.62948 0.41187,-1.112059 0.80859,-1.445313 0.39674,-0.333246 0.84962,-0.5 1.35742,-0.5 0.22746,0 0.42448,0.03475 0.59375,0.103516 0.17456,0.06347 0.31357,0.165201 0.41407,0.302734 0.1058,0.137534 0.19044,0.277102 0.2539,0.419922 0.0635,0.137534 0.1083,0.319415 0.13477,0.546875 0.0264,0.227454 0.0415,0.421385 0.0469,0.580078 0.0106,0.1534 0.0156,0.357422 0.0156,0.611328 l 0,4.998047 1.31836,0 0,-5.412109 c 0,-2.105307 -0.8584,-3.15625 -2.57227,-3.15625 -1.21663,0 -2.1381,0.567791 -2.76758,1.705078 -0.19572,-0.53426 -0.47428,-0.952393 -0.83398,-1.253906 -0.35971,-0.301513 -0.85743,-0.451172 -1.4922,-0.451172 z m 13.16407,0 c -1.11085,0 -2.0267,0.398519 -2.7461,1.197266 -0.7194,0.798746 -1.07812,1.869304 -1.07812,3.21289 0,1.327714 0.36629,2.38061 1.10156,3.158203 0.73527,0.772294 1.69344,1.158203 2.87305,1.158203 1.05794,0 2.00154,-0.246341 2.83203,-0.738281 l -0.27735,-0.927734 c -0.44433,0.222173 -0.84537,0.38892 -1.20507,0.5 -0.35971,0.111087 -0.76018,0.166015 -1.19922,0.166015 -0.80932,0 -1.46427,-0.256424 -1.9668,-0.769531 -0.50251,-0.518386 -0.77603,-1.310379 -0.81836,-2.378906 l 5.67383,0 0.0469,-0.667969 c 0,-1.227213 -0.27661,-2.183427 -0.83203,-2.871094 -0.55016,-0.692946 -1.35167,-1.039062 -2.40432,-1.039062 z m 20.75585,0 c -1.2325,0 -2.20076,0.401045 -2.90429,1.205078 -0.69824,0.798747 -1.04688,1.856688 -1.04688,3.173828 0,1.2854 0.35564,2.333252 1.06446,3.142578 0.70882,0.804034 1.67008,1.205078 2.88671,1.205078 1.19019,0 2.14836,-0.403563 2.87305,-1.21289 0.72469,-0.814613 1.08789,-1.859946 1.08789,-3.134766 0,-1.31714 -0.35058,-2.375081 -1.04883,-3.173828 -0.69824,-0.804033 -1.66903,-1.205078 -2.91211,-1.205078 z m 23.42383,0 c -1.11084,0 -2.02669,0.398519 -2.74609,1.197266 -0.7194,0.798746 -1.07813,1.869304 -1.07813,3.21289 0,1.327714 0.3663,2.38061 1.10157,3.158203 0.73527,0.772294 1.69344,1.158203 2.87304,1.158203 1.05794,0 2.00155,-0.246341 2.83203,-0.738281 l -0.27734,-0.927734 c -0.44434,0.222173 -0.84538,0.38892 -1.20508,0.5 -0.3597,0.111087 -0.76017,0.166015 -1.19922,0.166015 -0.80932,0 -1.46427,-0.256424 -1.96679,-0.769531 -0.50251,-0.518386 -0.77603,-1.310379 -0.81836,-2.378906 l 5.67383,0 0.0469,-0.667969 c 0,-1.227213 -0.27661,-2.183427 -0.83203,-2.871094 -0.55016,-0.692946 -1.35167,-1.039062 -2.40433,-1.039062 z m 8.88672,0.08594 c -0.50781,0 -0.99292,0.144047 -1.45312,0.429687 -0.45492,0.28036 -0.84082,0.721192 -1.15821,1.324219 l -0.14257,-1.666016 -1.05469,0 0,8.394531 1.3164,0 0,-4.751953 c 0,-0.745846 0.23373,-1.378091 0.69922,-1.896484 0.47079,-0.518393 1.06576,-0.777344 1.78516,-0.777344 0.14811,0 0.32747,0.02017 0.53906,0.0625 l 0.0566,-1.078125 c -0.1534,-0.02647 -0.34986,-0.04102 -0.58789,-0.04102 z m -75.695311,0.919921 c 0.862223,0 1.512125,0.310795 1.951172,0.929688 0.439046,0.613607 0.658203,1.432778 0.658203,2.458984 0,0.65592 -0.08968,1.23071 -0.269532,1.722657 -0.17985,0.486653 -0.471028,0.877601 -0.873046,1.173828 -0.396729,0.290933 -0.884929,0.435546 -1.466797,0.435546 -0.846354,10e-7 -1.493164,-0.306315 -1.9375,-0.919921 -0.444336,-0.613607 -0.666016,-1.420162 -0.666016,-2.419922 0,-1.020914 0.22168,-1.837565 0.666016,-2.451172 0.444336,-0.618893 1.091146,-0.929688 1.9375,-0.929688 z m 22.660151,0 c 1.33303,0 2.03224,0.905764 2.09571,2.714844 l -4.57031,0 c 0.0741,-0.835773 0.33301,-1.497722 0.77734,-1.984375 0.44963,-0.486653 1.01489,-0.730469 1.69726,-0.730469 z m 20.72461,0 c 0.86222,0 1.51408,0.310795 1.95313,0.929688 0.43905,0.613607 0.6582,1.432778 0.6582,2.458984 0,0.65592 -0.0897,1.23071 -0.26953,1.722657 -0.17985,0.486653 -0.47103,0.877601 -0.87305,1.173828 -0.39672,0.290933 -0.88688,0.435546 -1.46875,0.435546 -0.84635,10e-7 -1.4912,-0.306315 -1.93554,-0.919921 -0.44434,-0.613607 -0.66602,-1.420162 -0.66602,-2.419922 0,-1.020914 0.22168,-1.837565 0.66602,-2.451172 0.44434,-0.618893 1.08919,-0.929688 1.93554,-0.929688 z m 14.24415,0 c 0.78288,0 1.3728,0.291181 1.76953,0.873047 0.40202,0.581867 0.60156,1.442792 0.60156,2.580078 -0.005,1.042074 -0.19727,1.84611 -0.57813,2.41211 -0.38086,0.566 -1.00301,0.847656 -1.86523,0.847656 -0.81991,0 -1.42497,-0.30127 -1.81641,-0.904297 -0.38614,-0.603027 -0.58008,-1.429768 -0.58008,-2.482422 10e-6,-1.05794 0.20655,-1.876545 0.61915,-2.453125 0.41259,-0.581866 1.0297,-0.873047 1.84961,-0.873047 z m 9.21093,0 c 1.33302,0 2.03224,0.905764 2.09571,2.714844 l -4.57032,0 c 0.0741,-0.835773 0.33301,-1.497722 0.77735,-1.984375 0.44962,-0.486653 1.01489,-0.730469 1.69726,-0.730469 z"
     id="path4427" />
  <path
     d="m 67.32218,60.469608 h -2.461 v -0.90847 c 0,-1.577738 -0.69239,-2.355376 -1.2733,-2.730284 -0.62294,-0.401762 -1.23465,-0.422262 -1.35152,-0.422262 H 40.61439 c -0.46306,0 -0.89824,-0.488161 -1.35886,-1.005123 C 38.66925,54.745423 38.00473,54 36.99598,54 H 27.34704 C 25.55299,54 24.2,55.350254 24.2,57.140838 V 90.85916 C 24.2,92.59116 25.61167,94 27.34704,94 h 39.97514 c 1.73538,0 3.14705,-1.40884 3.14705,-3.14084 V 63.610446 c 0,-1.732 -1.41167,-3.140838 -3.14705,-3.140838 z m 1.68013,30.389552 c 0,0.92459 -0.75352,1.67636 -1.68013,1.67636 H 27.34704 c -0.9266,0 -1.68012,-0.75177 -1.68012,-1.67636 V 57.140838 c 0,-0.986576 0.69093,-1.676353 1.68012,-1.676353 h 9.64894 c 0.35059,0 0.74569,0.443253 1.16376,0.912377 0.5941,0.666338 1.33343,1.49573 2.45465,1.49573 h 21.61316 c 0.22151,0.0062 0.84985,0.102508 1.08064,0.955816 H 29.64577 c -1.87039,0.03854 -2.84834,1.014892 -2.84834,2.967538 l 0.0861,26.848914 h 0.89189 c 0,0 -0.18508,0.002 7.4e-4,0.002 0.2885,0 0.74397,0.0564 1.16938,-0.27603 0.76427,-0.59849 0.79654,-1.37418 0.7897,-1.58653 l -0.004,-22.059086 c 0,-2.928977 0,-2.928977 2.93385,-2.928977 l 34.65755,0.138154 c 0.9266,0.0038 1.68012,0.752254 1.68012,1.676346 V 90.85945 Z"
     id="path2-3-3"
     sodipodi:nodetypes="scscsscssssssssscsssssscsccccccsccccsscc"
     style="fill:url(#linearGradient1482);fill-opacity:1;stroke-width:0.488568" />
  <path
     id="Page_1_"
     class="st0"
     d="m 143.00769,72.846154 v 2.307692 h -1.15384 v -3.461538 h -8.07693 v 15 h 9.8077 c 1.58653,0 2.88461,-1.298077 2.88461,-2.884616 v -7.5 z m -6.92307,1.730769 h 3.46153 v 1.153846 h -3.46153 z m 0,2.884615 h 3.46153 v 1.153847 h -3.46153 z m 6.92307,6.923077 h -6.92307 v -1.153846 h 6.92307 z M 144.16154,81.5 h -8.07692 v -1.153846 h 8.07692 z"
     style="fill:url(#linearGradient1008);fill-opacity:1;stroke-width:0.288462" />
  <path
     id="Page-s"
     class="st1"
     d="m 141.85385,76.307692 h 4.61538 v 8.076923 c 0,1.903847 -1.55769,3.461539 -3.46154,3.461539 h -8.07692 v -1.153846 h 8.07692 c 1.26923,0 2.30769,-1.038462 2.30769,-2.307693 v -6.923077 h -3.46153 z m -10.38462,-4.615384 c 0,-1.269231 1.03846,-2.307693 2.30769,-2.307693 h 5.76923 v 1.153847 h -5.76923 c -0.63461,0 -1.15384,0.51923 -1.15384,1.153846 V 81.5 h -1.15385 z"
     style="fill:#393e46;fill-opacity:1;stroke-width:0.288462" />
  <path
     d="m 148.82218,60.469608 h -2.461 v -0.90847 c 0,-1.577738 -0.69239,-2.355376 -1.2733,-2.730284 -0.62294,-0.401762 -1.23465,-0.422262 -1.35152,-0.422262 h -21.62197 c -0.46306,0 -0.89824,-0.488161 -1.35886,-1.005123 C 120.16925,54.745423 119.50473,54 118.49598,54 h -9.64894 C 107.05299,54 105.7,55.350254 105.7,57.140838 v 33.718324 c 0,1.732 1.41167,3.140838 3.14704,3.140838 h 39.97514 c 1.73538,0 3.14705,-1.408838 3.14705,-3.140838 V 63.610446 c 0,-1.732 -1.41167,-3.140838 -3.14705,-3.140838 z m 1.68013,30.389554 c 0,0.924584 -0.75352,1.676353 -1.68013,1.676353 h -39.97514 c -0.9266,0 -1.68012,-0.751769 -1.68012,-1.676353 V 57.140838 c 0,-0.986576 0.69093,-1.676353 1.68012,-1.676353 h 9.64894 c 0.35059,0 0.74569,0.443253 1.16376,0.912377 0.5941,0.666338 1.33343,1.49573 2.45465,1.49573 h 21.61316 c 0.22151,0.0062 0.84985,0.102508 1.08064,0.955816 h -33.66242 c -1.87039,0.03854 -2.84834,1.014892 -2.84834,2.967538 l 0.0861,26.848916 h 0.89189 c 0,0 -0.18508,0.0015 7.4e-4,0.0015 0.2885,0 0.74397,0.05639 1.16938,-0.276031 0.76427,-0.598484 0.79654,-1.374177 0.7897,-1.586531 l -0.004,-22.059084 c 0,-2.928977 0,-2.928977 2.93385,-2.928977 l 34.65755,0.138154 c 0.9266,0.0038 1.68012,0.752254 1.68012,1.676346 v 27.248715 z"
     id="path2-3-3-6"
     sodipodi:nodetypes="scscsscssssssssscsssssscsccccccsccccsscc"
     style="fill:url(#linearGradient1482-3);fill-opacity:1;stroke-width:0.488568" />
  <polygon
     id="Arrow-Down"
     class="st0"
     points="4,28 20,28 20,4 40,4 40,0 44,0 44,28 60,28 32,56 "
     transform="matrix(0.2883489,0,0,0.2883489,210.66199,69.384615)"
     style="fill:url(#linearGradient947);fill-opacity:1" />
  <path
     id="ArrowDown-s"
     class="st1"
     d="m 223.34934,77.45838 v -6.920372 h -1.15339 v 6.920372 z m -8.07377,6.74737 2.97,2.96999 c 0.89388,0.89388 2.36445,0.89388 3.25834,0 l 2.99883,-2.99882 -0.80738,-0.80738 -2.99883,2.96999 c -0.46136,0.46136 -1.18223,0.46136 -1.64359,0 l -2.96999,-2.96999 z"
     style="clip-rule:evenodd;fill:#393e46;fill-opacity:1;fill-rule:evenodd;stroke-width:0.288349" />
  <path
     d="m 230.32218,60.469608 h -2.461 v -0.90847 c 0,-1.577738 -0.69239,-2.355376 -1.2733,-2.730284 -0.62294,-0.401762 -1.23465,-0.422262 -1.35152,-0.422262 h -21.62197 c -0.46306,0 -0.89824,-0.488161 -1.35886,-1.005123 C 201.66925,54.745423 201.00473,54 199.99598,54 h -9.64894 C 188.55299,54 187.2,55.350254 187.2,57.140838 V 90.85916 c 0,1.732 1.41167,3.14084 3.14704,3.14084 h 39.97514 c 1.73538,0 3.14705,-1.40884 3.14705,-3.14084 V 63.610446 c 0,-1.732 -1.41167,-3.140838 -3.14705,-3.140838 z m 1.68013,30.389552 c 0,0.92459 -0.75352,1.67636 -1.68013,1.67636 h -39.97514 c -0.9266,0 -1.68012,-0.75177 -1.68012,-1.67636 V 57.140838 c 0,-0.986576 0.69093,-1.676353 1.68012,-1.676353 h 9.64894 c 0.35059,0 0.74569,0.443253 1.16376,0.912377 0.5941,0.666338 1.33343,1.49573 2.45465,1.49573 h 21.61316 c 0.22151,0.0062 0.84985,0.102508 1.08064,0.955816 h -33.66242 c -1.87039,0.03854 -2.84834,1.014892 -2.84834,2.967538 l 0.0861,26.848914 h 0.89189 c 0,0 -0.18508,0.002 7.4e-4,0.002 0.2885,0 0.74397,0.0564 1.16938,-0.27603 0.76427,-0.59849 0.79654,-1.37418 0.7897,-1.58653 l -0.004,-22.059086 c 0,-2.928977 0,-2.928977 2.93385,-2.928977 l 34.65755,0.138154 c 0.9266,0.0038 1.68012,0.752254 1.68012,1.676346 V 90.85945 Z"
     id="path2-3-3-9"
     sodipodi:nodetypes="scscsscssssssssscsssssscsccccccsccccsscc"
     style="fill:url(#linearGradient1482-2);fill-opacity:1;stroke-width:0.488568" />
  <path
     id="Photos"
     class="st0"
     d="m 63.59904,136.57396 v 1.42012 h -17.8125 v 14.20119 h 15.75721 c 1.884,0 3.42548,-1.59764 3.42548,-3.5503 v -12.07101 z m 0,9.23077 -3.25423,-2.4142 c -0.78783,-0.60355 -1.88398,-0.56805 -2.6376,0.14202 l -6.88523,6.56804 -0.92486,-1.06509 1.74698,-1.66864 -1.54148,-1.2781 c -0.51377,-0.42604 -1.23313,-0.42604 -1.74697,0.0355 l -1.19892,1.06508 V 139.4142 H 63.59904 Z M 49.89712,142.9645 c 0,-0.99408 0.75358,-1.77515 1.71276,-1.77515 0.95909,0 1.71271,0.78107 1.71271,1.77515 0,0.99408 -0.75362,1.77515 -1.71271,1.77515 -0.95918,0 -1.71276,-0.78107 -1.71276,-1.77515 z"
     style="clip-rule:evenodd;fill:url(#linearGradient945-3);fill-opacity:1;fill-rule:evenodd;stroke-width:0.348732" />
  <path
     id="Photos-s"
     class="st1"
     d="m 45.78654,136.57396 c -0.75359,0 -1.37019,0.63906 -1.37019,1.42012 v 7.1006 h -1.3702 v -7.1006 c 0,-1.56213 1.23318,-2.84023 2.74039,-2.84023 h 9.59134 v 1.42011 z m 15.07211,15.62131 H 47.15673 v 1.42011 h 13.70192 c 2.26084,0 4.11058,-1.91716 4.11058,-4.26035 v -2.48521 l -1.37019,-1.06509 v 3.5503 c 0,1.56213 -1.23317,2.84024 -2.74039,2.84024 z m 4.11058,-14.20119 h -1.37019 v 1.42012 h 1.37019 z"
     style="fill:#393e46;fill-opacity:1;stroke-width:0.348732" />
  <path
     d="m 67.32218,125.46961 h -2.461 v -0.90847 c 0,-1.57774 -0.69239,-2.35538 -1.2733,-2.73029 -0.62294,-0.40176 -1.23465,-0.42226 -1.35152,-0.42226 H 40.61439 c -0.46306,0 -0.89824,-0.48816 -1.35886,-1.00512 C 38.66925,119.74542 38.00473,119 36.99598,119 H 27.34704 C 25.55299,119 24.2,120.35025 24.2,122.14084 v 33.71832 c 0,1.732 1.41167,3.14084 3.14704,3.14084 h 39.97514 c 1.73538,0 3.14705,-1.40884 3.14705,-3.14084 v -27.24871 c 0,-1.732 -1.41167,-3.14084 -3.14705,-3.14084 z m 1.68013,30.38955 c 0,0.92459 -0.75352,1.67636 -1.68013,1.67636 H 27.34704 c -0.9266,0 -1.68012,-0.75177 -1.68012,-1.67636 v -33.71832 c 0,-0.98658 0.69093,-1.67636 1.68012,-1.67636 h 9.64894 c 0.35059,0 0.74569,0.44326 1.16376,0.91238 0.5941,0.66634 1.33343,1.49573 2.45465,1.49573 h 21.61316 c 0.22151,0.006 0.84985,0.10251 1.08064,0.95582 H 29.64577 c -1.87039,0.0385 -2.84834,1.01489 -2.84834,2.96754 l 0.0861,26.84891 h 0.89189 c 0,0 -0.18508,0.002 7.4e-4,0.002 0.2885,0 0.74397,0.0564 1.16938,-0.27603 0.76427,-0.59849 0.79654,-1.37418 0.7897,-1.58653 l -0.004,-22.05909 c 0,-2.92897 0,-2.92897 2.93385,-2.92897 l 34.65755,0.13815 c 0.9266,0.004 1.68012,0.75225 1.68012,1.67635 v 27.24871 z"
     id="path2-3-3-7"
     sodipodi:nodetypes="scscsscssssssssscsssssscsccccccsccccsscc"
     style="fill:url(#linearGradient1482-0);fill-opacity:1;stroke-width:0.488568" />
  <path
     id="Music"
     class="st0"
     d="m 134.93077,140.28846 c 0,-1.32692 0.89423,-2.48077 2.19231,-2.79808 l 9.34615,-2.33653 v 13.26923 c 0,1.58654 -1.29808,2.88461 -2.88461,2.88461 -1.58654,0 -2.88462,-1.29807 -2.88462,-2.88461 0,-1.58654 1.29808,-2.88462 2.88462,-2.88462 h 1.73076 v -5.48077 l -10.38461,2.59616 z m 1.15385,7.55769 H 133.2 c -1.58654,0 -2.88462,1.29808 -2.88462,2.88462 0,1.58654 1.29808,2.88461 2.88462,2.88461 1.58654,0 2.88462,-1.29807 2.88462,-2.88461 z"
     style="fill:url(#linearGradient1008-9);fill-opacity:1;stroke-width:0.288462" />
  <path
     id="Music-s"
     class="st1"
     d="m 146.46923,139.76923 -1.15385,0.28846 v -3.46154 l 1.15385,-0.28846 z m -9.51923,-1.03846 0.28846,-0.0865 v -1.18269 l -0.54808,0.14423 c -1.03846,0.25961 -1.75961,1.18269 -1.75961,2.25 v 7.99038 h 1.15385 v -8.01923 c 0,-0.51923 0.34615,-0.98077 0.86538,-1.09615 z m 8.36538,6.80769 v 4.03846 c 0,0.95193 -0.77884,1.73077 -1.73076,1.73077 v 1.15385 c 1.58653,0 2.88461,-1.29808 2.88461,-2.88462 v -4.03846 z"
     style="fill:#393e46;fill-opacity:1;stroke-width:0.288462" />
  <path
     d="m 148.82218,125.46961 h -2.461 v -0.90847 c 0,-1.57774 -0.69239,-2.35538 -1.2733,-2.73029 -0.62294,-0.40176 -1.23465,-0.42226 -1.35152,-0.42226 h -21.62197 c -0.46306,0 -0.89824,-0.48816 -1.35886,-1.00512 C 120.16925,119.74542 119.50473,119 118.49598,119 h -9.64894 c -1.79405,0 -3.14704,1.35025 -3.14704,3.14084 v 33.71832 c 0,1.732 1.41167,3.14084 3.14704,3.14084 h 39.97514 c 1.73538,0 3.14705,-1.40884 3.14705,-3.14084 v -27.24871 c 0,-1.732 -1.41167,-3.14084 -3.14705,-3.14084 z m 1.68013,30.38955 c 0,0.92459 -0.75352,1.67636 -1.68013,1.67636 h -39.97514 c -0.9266,0 -1.68012,-0.75177 -1.68012,-1.67636 v -33.71832 c 0,-0.98658 0.69093,-1.67636 1.68012,-1.67636 h 9.64894 c 0.35059,0 0.74569,0.44326 1.16376,0.91238 0.5941,0.66634 1.33343,1.49573 2.45465,1.49573 h 21.61316 c 0.22151,0.006 0.84985,0.10251 1.08064,0.95582 h -33.66242 c -1.87039,0.0385 -2.84834,1.01489 -2.84834,2.96754 l 0.0861,26.84891 h 0.89189 c 0,0 -0.18508,0.002 7.4e-4,0.002 0.2885,0 0.74397,0.0564 1.16938,-0.27603 0.76427,-0.59849 0.79654,-1.37418 0.7897,-1.58653 l -0.004,-22.05909 c 0,-2.92897 0,-2.92897 2.93385,-2.92897 l 34.65755,0.13815 c 0.9266,0.004 1.68012,0.75225 1.68012,1.67635 v 27.24871 z"
     id="path2-3-3-2"
     sodipodi:nodetypes="scscsscssssssssscsssssscsccccccsccccsscc"
     style="fill:url(#linearGradient1482-20);fill-opacity:1;stroke-width:0.488568" />
  <path
     id="Video"
     class="st0"
     d="m 222.48077,142.9645 h -7.93269 v 5.68048 h 7.93269 z m -15.86539,-3.55029 4.62741,4.36686 v -4.36686 h 16.52644 v 9.23077 c 0,1.95266 -1.4874,3.55029 -3.30528,3.55029 h -13.22116 v -4.33136 l -4.62741,4.33136 z"
     style="fill:url(#linearGradient1059);fill-opacity:1;stroke-width:0.342559" />
  <path
     id="Video-s"
     class="st1"
     d="m 221.15865,145.80474 v 1.42011 h -5.28846 v -1.42011 z m 5.28847,3.55029 v -8.52071 h 1.32211 v 8.52071 c 0,2.3432 -1.78481,4.26035 -3.96635,4.26035 H 212.5649 v -1.42011 h 11.23798 c 1.45433,0 2.64424,-1.27811 2.64424,-2.84024 z m -10.57693,-11.36095 c 0,-1.56213 1.18991,-2.84023 2.64423,-2.84023 h 5.28846 v 1.42012 h -5.28846 c -0.72713,0 -1.32211,0.63905 -1.32211,1.42011 v 1.42013 h -1.32212 z"
     style="fill:#393e46;fill-opacity:1;stroke-width:0.342559" />
  <path
     d="m 230.12218,125.46961 h -2.461 v -0.90847 c 0,-1.57774 -0.69239,-2.35538 -1.2733,-2.73029 -0.62294,-0.40176 -1.23465,-0.42226 -1.35152,-0.42226 h -21.62197 c -0.46306,0 -0.89824,-0.48816 -1.35886,-1.00512 C 201.46925,119.74542 200.80473,119 199.79598,119 h -9.64894 C 188.35299,119 187,120.35025 187,122.14084 v 33.71832 c 0,1.732 1.41167,3.14084 3.14704,3.14084 h 39.97514 c 1.73538,0 3.14705,-1.40884 3.14705,-3.14084 v -27.24871 c 0,-1.732 -1.41167,-3.14084 -3.14705,-3.14084 z m 1.68013,30.38955 c 0,0.92459 -0.75352,1.67636 -1.68013,1.67636 h -39.97514 c -0.9266,0 -1.68012,-0.75177 -1.68012,-1.67636 v -33.71832 c 0,-0.98658 0.69093,-1.67636 1.68012,-1.67636 h 9.64894 c 0.35059,0 0.74569,0.44326 1.16376,0.91238 0.5941,0.66634 1.33343,1.49573 2.45465,1.49573 h 21.61316 c 0.22151,0.006 0.84985,0.10251 1.08064,0.95582 h -33.66242 c -1.87039,0.0385 -2.84834,1.01489 -2.84834,2.96754 l 0.0861,26.84891 h 0.89189 c 0,0 -0.18508,0.002 7.4e-4,0.002 0.2885,0 0.74397,0.0564 1.16938,-0.27603 0.76427,-0.59849 0.79654,-1.37418 0.7897,-1.58653 l -0.004,-22.05909 c 0,-2.92897 0,-2.92897 2.93385,-2.92897 l 34.65755,0.13815 c 0.9266,0.004 1.68012,0.75225 1.68012,1.67635 v 27.24871 z"
     id="path2-3-3-29"
     sodipodi:nodetypes="scscsscssssssssscsssssscsccccccsccccsscc"
     style="fill:url(#linearGradient1482-28);fill-opacity:1;stroke-width:0.488568" />
  <path
     d="m 67.32218,190.46961 h -2.461 v -0.90847 c 0,-1.57774 -0.69239,-2.35538 -1.2733,-2.73029 -0.62294,-0.40176 -1.23465,-0.42226 -1.35152,-0.42226 H 40.61439 c -0.46306,0 -0.89824,-0.48816 -1.35886,-1.00512 C 38.66925,184.74542 38.00473,184 36.99598,184 H 27.34704 C 25.55299,184 24.2,185.35025 24.2,187.14084 v 33.71832 c 0,1.732 1.41167,3.14084 3.14704,3.14084 h 39.97514 c 1.73538,0 3.14705,-1.40884 3.14705,-3.14084 v -27.24871 c 0,-1.732 -1.41167,-3.14084 -3.14705,-3.14084 z m 1.68013,30.38956 c 0,0.92458 -0.75352,1.67635 -1.68013,1.67635 H 27.34704 c -0.9266,0 -1.68012,-0.75177 -1.68012,-1.67635 v -33.71832 c 0,-0.98658 0.69093,-1.67636 1.68012,-1.67636 h 9.64894 c 0.35059,0 0.74569,0.44326 1.16376,0.91238 0.5941,0.66634 1.33343,1.49573 2.45465,1.49573 h 21.61316 c 0.22151,0.006 0.84985,0.10251 1.08064,0.95582 H 29.64577 c -1.87039,0.0385 -2.84834,1.01489 -2.84834,2.96753 l 0.0861,26.84891 h 0.89189 c 0,0 -0.18508,0.002 7.4e-4,0.002 0.2885,0 0.74397,0.0564 1.16938,-0.27603 0.76427,-0.59848 0.79654,-1.37418 0.7897,-1.58653 l -0.004,-22.05909 c 0,-2.92897 0,-2.92897 2.93385,-2.92897 l 34.65755,0.13815 c 0.9266,0.004 1.68012,0.75225 1.68012,1.67635 v 27.24872 z"
     id="path2-3-3-0"
     sodipodi:nodetypes="scscsscssssssssscsssssscsccccccsccccsscc"
     style="fill:url(#linearGradient1482-31);fill-opacity:1;stroke-width:0.488568" />
  <path
     d="m 148.82218,190.46961 h -2.461 v -0.90847 c 0,-1.57774 -0.69239,-2.35538 -1.2733,-2.73029 -0.62294,-0.40176 -1.23465,-0.42226 -1.35152,-0.42226 h -21.62197 c -0.46306,0 -0.89824,-0.48816 -1.35886,-1.00512 C 120.16925,184.74542 119.50473,184 118.49598,184 h -9.64894 c -1.79405,0 -3.14704,1.35025 -3.14704,3.14084 v 33.71832 c 0,1.732 1.41167,3.14084 3.14704,3.14084 h 39.97514 c 1.73538,0 3.14705,-1.40884 3.14705,-3.14084 v -27.24871 c 0,-1.732 -1.41167,-3.14084 -3.14705,-3.14084 z m 1.68013,30.38955 c 0,0.92459 -0.75352,1.67636 -1.68013,1.67636 h -39.97514 c -0.9266,0 -1.68012,-0.75177 -1.68012,-1.67636 v -33.71832 c 0,-0.98658 0.69093,-1.67636 1.68012,-1.67636 h 9.64894 c 0.35059,0 0.74569,0.44326 1.16376,0.91238 0.5941,0.66634 1.33343,1.49573 2.45465,1.49573 h 21.61316 c 0.22151,0.006 0.84985,0.10251 1.08064,0.95582 h -33.66242 c -1.87039,0.0385 -2.84834,1.01489 -2.84834,2.96754 l 0.0861,26.84891 h 0.89189 c 0,0 -0.18508,0.002 7.4e-4,0.002 0.2885,0 0.74397,0.0564 1.16938,-0.27603 0.76427,-0.59849 0.79654,-1.37418 0.7897,-1.58653 l -0.004,-22.05909 c 0,-2.92897 0,-2.92897 2.93385,-2.92897 l 34.65755,0.13815 c 0.9266,0.004 1.68012,0.75225 1.68012,1.67635 v 27.24871 z"
     id="path2-3-3-06"
     sodipodi:nodetypes="scscsscssssssssscsssssscsccccccsccccsscc"
     style="fill:url(#linearGradient1482-36);fill-opacity:1;stroke-width:0.488568" />
  <path
     id="Trash_1_"
     class="st0"
     d="m 131.115,202.2985 v 1.15625 h 12.14063 v 1.15625 h -10.40625 v 12.71875 h 9.25 c 1.27187,0 2.3125,-1.04063 2.3125,-2.3125 V 202.2985 Z m 5.20313,12.71875 h -1.15625 v -8.09375 h 1.15625 z m 2.89062,0 h -1.15625 v -8.09375 h 1.15625 z m 2.89063,0 h -1.15625 v -8.09375 h 1.15625 z"
     style="fill:#aa0044;stroke-width:0.289063" />
  <path
     id="Trash-s"
     class="st1"
     d="m 144.41188,204.611 v 10.40625 c 0,1.90782 -1.56095,3.46875 -3.46875,3.46875 h -6.9375 v -1.15625 h 6.9375 c 1.27187,0 2.3125,-1.04063 2.3125,-2.3125 V 204.611 Z m 1.73437,-2.3125 h -2.89062 v 1.15625 h 2.89062 z m -5.20312,-1.15625 V 199.986 h -2.89063 c -0.95391,0 -1.73437,0.78047 -1.73437,1.73437 v 0.57813 h 1.15625 v -0.57813 c 0,-0.31796 0.26015,-0.57812 0.57812,-0.57812 z"
     style="fill:#393e46;fill-opacity:1;stroke-width:0.289063" />
</svg>
