<?xml version="1.0" encoding="UTF-8" standalone="no"?>
<svg
   version="1.1"
   viewBox="0 0 32 32"
   id="svg7"
   sodipodi:docname="system-lock-screen.svg"
   inkscape:version="1.1.1 (3bf5ae0d25, 2021-09-20)"
   xmlns:inkscape="http://www.inkscape.org/namespaces/inkscape"
   xmlns:sodipodi="http://sodipodi.sourceforge.net/DTD/sodipodi-0.dtd"
   xmlns="http://www.w3.org/2000/svg"
   xmlns:svg="http://www.w3.org/2000/svg">
  <sodipodi:namedview
     id="namedview9"
     pagecolor="#ffffff"
     bordercolor="#666666"
     borderopacity="1.0"
     inkscape:pageshadow="2"
     inkscape:pageopacity="0.0"
     inkscape:pagecheckerboard="0"
     showgrid="false"
     inkscape:zoom="9.71875"
     inkscape:cx="-6.1736334"
     inkscape:cy="19.446945"
     inkscape:window-width="1920"
     inkscape:window-height="1006"
     inkscape:window-x="0"
     inkscape:window-y="0"
     inkscape:window-maximized="1"
     inkscape:current-layer="svg7" />
  <defs
     id="defs3">
    <style
       type="text/css"
       id="current-color-scheme">
            .ColorScheme-Text {
                color:#eff0f1;
            }
        </style>
  </defs>
  <path
     style="color:#000000;overflow:visible;opacity:1;fill:#434c5e;fill-opacity:1;stroke-width:0.8"
     id="path1145"
     overflow="visible"
     d="M 16,4 C 9.3792799,4 4,9.3792799 4,16 4,22.62072 9.3792799,28 16,28 22.62072,28 28,22.62072 28,16 28,9.3792799 22.62072,4 16,4 Z"
     inkscape:connector-curvature="0" />
  <path
     id="path1151"
     style="fill:#c0c5d9;fill-opacity:1;fill-rule:evenodd;stroke-width:0.8;paint-order:fill markers stroke"
     d="m 16,9.5999999 c -1.7728,0 -3.2,1.4272001 -3.2,3.2000001 v 2.4 c -0.8864,0 -1.6,0.7136 -1.6,1.6 V 20 c 0,0.8864 0.7136,1.6 1.6,1.6 h 3.2 3.2 c 0.8864,0 1.6,-0.7136 1.6,-1.6 v -3.2 c 0,-0.8864 -0.7136,-1.6 -1.6,-1.6 V 12.8 C 19.2,11.0272 17.7728,9.5999999 16,9.5999999 Z M 16,10.4 c 1.3296,0 2.4,1.0704 2.4,2.4 v 2.4 h -4.8 v -2.4 c 0,-1.3296 1.0704,-2.4 2.4,-2.4 z"
     inkscape:connector-curvature="0" />
</svg>
