<?xml version="1.0" encoding="UTF-8" standalone="no"?>
<svg
   width="48"
   height="48"
   version="1"
   id="svg4"
   sodipodi:docname="enpass.svg"
   inkscape:version="1.3.2 (091e20ef0f, 2023-11-25)"
   xmlns:inkscape="http://www.inkscape.org/namespaces/inkscape"
   xmlns:sodipodi="http://sodipodi.sourceforge.net/DTD/sodipodi-0.dtd"
   xmlns="http://www.w3.org/2000/svg"
   xmlns:svg="http://www.w3.org/2000/svg">
  <defs
     id="defs4" />
  <sodipodi:namedview
     id="namedview4"
     pagecolor="#ffffff"
     bordercolor="#999999"
     borderopacity="1"
     inkscape:showpageshadow="2"
     inkscape:pageopacity="0"
     inkscape:pagecheckerboard="0"
     inkscape:deskcolor="#d1d1d1"
     inkscape:zoom="4"
     inkscape:cx="12"
     inkscape:cy="70"
     inkscape:window-width="1920"
     inkscape:window-height="994"
     inkscape:window-x="0"
     inkscape:window-y="0"
     inkscape:window-maximized="1"
     inkscape:current-layer="svg4" />
  <rect
     style="opacity:0.2;stroke-width:0.730461"
     width="41.275856"
     height="41.999763"
     x="-45"
     y="-44.999763"
     rx="20.637928"
     ry="20.999882"
     transform="matrix(0,-1,-1,0,0,0)"
     id="rect1" />
  <rect
     width="41.275856"
     height="41.999763"
     x="-44.275856"
     y="-44.999763"
     rx="20.637928"
     ry="20.999882"
     transform="matrix(0,-1,-1,0,0,0)"
     id="rect2"
     style="fill:#9955ff" />
  <path
     style="opacity:0.2;stroke-width:0.730461"
     d="m 15.922005,14.586208 c -2.237307,0 -4.414802,1.793473 -4.036777,3.950222 l 2.422069,13.823686 c 0.378018,2.156748 1.800912,3.950225 4.038216,3.950225 h 11.308731 c 2.237304,0 3.660192,-1.793477 4.038217,-3.950225 L 36.114525,18.53643 c 0.378027,-2.156749 -1.799473,-3.950222 -4.03677,-3.950222 z m 8.077865,5.068962 a 4.0526075,3.9827573 0 0 1 4.052613,3.98275 4.0526075,3.9827573 0 0 1 -2.210515,3.547149 v 3.694232 c 0,0.601766 -0.492938,1.086207 -1.105249,1.086207 h -1.473684 c -0.612303,0 -1.105258,-0.484441 -1.105258,-1.086207 V 27.18083 a 4.0526075,3.9827573 0 0 1 -2.210508,-3.54291 4.0526075,3.9827573 0 0 1 4.052601,-3.98275 z"
     id="path2" />
  <path
     style="fill:#ffffff;stroke-width:0.730461"
     d="m 15.922005,13.862073 c -2.237307,0 -4.414802,1.79347 -4.036777,3.95022 l 2.422069,13.823673 c 0.378018,2.15676 1.800912,3.950236 4.038216,3.950236 h 11.308731 c 2.237304,0 3.660192,-1.793476 4.038217,-3.950236 l 2.422064,-13.823673 c 0.378027,-2.15675 -1.799473,-3.95022 -4.03677,-3.95022 z m 8.077865,5.068963 a 4.0526075,3.9827573 0 0 1 4.052613,3.98275 4.0526075,3.9827573 0 0 1 -2.210515,3.547145 v 3.694237 c 0,0.601751 -0.492938,1.086203 -1.105249,1.086203 h -1.473684 c -0.612303,0 -1.105258,-0.484452 -1.105258,-1.086203 v -3.698482 a 4.0526075,3.9827573 0 0 1 -2.210508,-3.5429 4.0526075,3.9827573 0 0 1 4.052601,-3.98275 z"
     id="path3" />
  <path
     style="opacity:0.1;fill:#ffffff;stroke-width:0.730461"
     d="M 23.99987,3 C 12.36594,3 3,12.204509 3,23.63792 c 0,0.12147 0.00646,0.241125 0.00864,0.362076 0.1960899,-11.26431 9.4809,-20.2758584 20.99123,-20.2758584 11.510342,0 20.795154,9.0115484 20.991246,20.2758584 C 44.994011,23.879045 45,23.75939 45,23.63792 44.999749,12.204509 35.633811,3 23.99987,3 Z"
     id="path4" />
</svg>
