<?xml version="1.0" encoding="UTF-8" standalone="no"?>
<svg
   width="48"
   height="48"
   version="1"
   id="svg2"
   sodipodi:docname="foxit-reader.svg"
   inkscape:version="1.3.2 (091e20ef0f, 2023-11-25)"
   xmlns:inkscape="http://www.inkscape.org/namespaces/inkscape"
   xmlns:sodipodi="http://sodipodi.sourceforge.net/DTD/sodipodi-0.dtd"
   xmlns="http://www.w3.org/2000/svg"
   xmlns:svg="http://www.w3.org/2000/svg">
  <defs
     id="defs2" />
  <sodipodi:namedview
     id="namedview2"
     pagecolor="#ffffff"
     bordercolor="#999999"
     borderopacity="1"
     inkscape:showpageshadow="2"
     inkscape:pageopacity="0"
     inkscape:pagecheckerboard="0"
     inkscape:deskcolor="#d1d1d1"
     inkscape:zoom="6.2265625"
     inkscape:cx="28.908407"
     inkscape:cy="29.309912"
     inkscape:window-width="1920"
     inkscape:window-height="994"
     inkscape:window-x="0"
     inkscape:window-y="0"
     inkscape:window-maximized="1"
     inkscape:current-layer="svg2" />
  <g
     id="g2"
     transform="translate(-2,-2)">
    <rect
       width="42"
       height="42"
       x="5"
       y="5"
       fill="#f18d00"
       rx="21"
       ry="21"
       id="rect1"
       style="stroke-width:0.777778" />
    <rect
       width="35.777779"
       height="35.777779"
       x="8.1111107"
       y="8.1111107"
       fill="#ffffff"
       opacity="0.15"
       rx="17.888889"
       ry="17.888889"
       id="rect2"
       style="stroke-width:0.777778" />
    <path
       fill="#ffffff"
       fill-rule="evenodd"
       d="M 40,21.754889 C 37.375778,10.662222 27.297333,10.754778 21.212778,13.651222 c -6.403445,3.236334 -11.041334,11.531334 -8.512,18.477667 3.909111,10.479 18.298778,10.321889 23.168444,0.577111 1.445111,-3.573111 2.506,-6.110222 -1.468444,-9.506 v 4.2 L 33,24.6 c 0,0 -1.242889,2.937667 -2.563556,4.277778 C 28.600111,30.739778 26,30.2 26,30.2 c 0.49,1.856556 4.2,2.800778 4.2,2.800778 -9.628889,4.557778 -9.911222,-3.059778 -9.8,-4.9 0.315778,-5.299 4.575667,-9.411111 10.188889,-9.117111 1.788889,0.137666 5.211889,1.415555 5.211889,1.415555 -1.288,-2.947778 -3.122,-3.648555 -4.2,-4.2 4.226444,-1.397666 6.482,3.013889 8.4,5.554111 z"
       id="path2"
       style="stroke-width:0.777778" />
  </g>
</svg>
