<?xml version="1.0" encoding="UTF-8" standalone="no"?>
<svg
   width="48"
   height="48"
   version="1.1"
   id="svg3"
   sodipodi:docname="simplenote.svg"
   inkscape:version="1.3.2 (091e20ef0f, 2023-11-25)"
   xmlns:inkscape="http://www.inkscape.org/namespaces/inkscape"
   xmlns:sodipodi="http://sodipodi.sourceforge.net/DTD/sodipodi-0.dtd"
   xmlns="http://www.w3.org/2000/svg"
   xmlns:svg="http://www.w3.org/2000/svg">
  <defs
     id="defs3" />
  <sodipodi:namedview
     id="namedview3"
     pagecolor="#ffffff"
     bordercolor="#999999"
     borderopacity="1"
     inkscape:showpageshadow="2"
     inkscape:pageopacity="0"
     inkscape:pagecheckerboard="0"
     inkscape:deskcolor="#d1d1d1"
     inkscape:zoom="2.8284271"
     inkscape:cx="-21.213203"
     inkscape:cy="78.842406"
     inkscape:window-width="1920"
     inkscape:window-height="994"
     inkscape:window-x="0"
     inkscape:window-y="0"
     inkscape:window-maximized="1"
     inkscape:current-layer="svg3" />
  <rect
     width="42"
     height="42"
     x="3"
     y="3"
     fill="#f2f2f2"
     rx="28.000999"
     ry="28.000999"
     id="rect1"
     style="stroke-width:0.999999" />
  <path
     d="m 23.999249,9.773008 c -1.899682,0 -4.74958,1.899682 -4.74958,5.699797 0,6.650012 15.199707,2.849898 15.199707,17.099389 0,0.392236 -0.0255,0.787472 -0.0645,1.181958 A 14.229242,14.229242 0 0 0 38.248741,24.0225 C 38.253241,16.153031 31.868719,9.773008 23.999999,9.773008 Z M 13.60762,14.299097 A 14.235242,14.235242 0 0 0 9.7497584,24.0225 c -0.0045,7.869469 6.3800216,14.249491 14.2494906,14.249491 1.898933,0 4.748831,-1.900432 4.748831,-5.699797 0,-9.49991 -15.199708,-4.75033 -15.199708,-17.099389 0,-0.392986 0.0225,-0.783722 0.0585,-1.174458 z"
     id="path3"
     style="stroke-width:0.999999;fill:#00aad4" />
</svg>
