<?xml version="1.0" encoding="UTF-8" standalone="no"?>
<svg
   style="isolation:isolate"
   viewBox="0 0 34 34"
   width="34pt"
   height="34pt"
   version="1.1"
   id="svg16"
   sodipodi:docname="restart_primary.svg"
   inkscape:version="1.1.1 (3bf5ae0d25, 2021-09-20)"
   xmlns:inkscape="http://www.inkscape.org/namespaces/inkscape"
   xmlns:sodipodi="http://sodipodi.sourceforge.net/DTD/sodipodi-0.dtd"
   xmlns="http://www.w3.org/2000/svg"
   xmlns:svg="http://www.w3.org/2000/svg"
   xmlns:rdf="http://www.w3.org/1999/02/22-rdf-syntax-ns#"
   xmlns:cc="http://creativecommons.org/ns#"
   xmlns:dc="http://purl.org/dc/elements/1.1/">
  <metadata
     id="metadata22">
    <rdf:RDF>
      <cc:Work
         rdf:about="">
        <dc:format>image/svg+xml</dc:format>
        <dc:type
           rdf:resource="http://purl.org/dc/dcmitype/StillImage" />
      </cc:Work>
    </rdf:RDF>
  </metadata>
  <defs
     id="defs20" />
  <sodipodi:namedview
     pagecolor="#ffffff"
     bordercolor="#666666"
     borderopacity="1"
     objecttolerance="10"
     gridtolerance="10"
     guidetolerance="10"
     inkscape:pageopacity="0"
     inkscape:pageshadow="2"
     inkscape:window-width="1920"
     inkscape:window-height="1006"
     id="namedview18"
     showgrid="true"
     inkscape:zoom="9.085202"
     inkscape:cx="-3.8524185"
     inkscape:cy="15.739881"
     inkscape:window-x="0"
     inkscape:window-y="0"
     inkscape:window-maximized="1"
     inkscape:current-layer="svg16"
     inkscape:document-rotation="0"
     inkscape:pagecheckerboard="0"
     inkscape:document-units="pt">
    <inkscape:grid
       type="xygrid"
       id="grid1262" />
  </sodipodi:namedview>
  <linearGradient
     id="_lgradient_2"
     x1="0"
     y1="0.5"
     x2="1"
     y2="0.5">
    <stop
       offset="0%"
       stop-opacity="1"
       style="stop-color:#89ddff"
       id="stop2" />
    <stop
       offset="100%"
       stop-opacity="1"
       style="stop-color:#89ddff"
       id="stop4" />
  </linearGradient>
  <linearGradient
     id="_lgradient_3"
     x1="0"
     y1="0.5"
     x2="1"
     y2="0.5"
     gradientTransform="matrix(33,0,0,33,0.5,0.5)"
     gradientUnits="userSpaceOnUse">
    <stop
       offset="0%"
       stop-opacity="1"
       style="stop-color:#89ddff"
       id="stop9" />
    <stop
       offset="100%"
       stop-opacity="1"
       style="stop-color:#89ddff"
       id="stop11" />
  </linearGradient>
  <path
     style="color:#000000;overflow:visible;opacity:0.5;fill:#3b5a87;fill-opacity:1;stroke-width:1.1"
     id="path984"
     overflow="visible"
     d="M 17,0.5 C 7.89552,0.5 0.5,7.89552 0.5,17 0.5,26.10448 7.89552,33.5 17,33.5 26.10338,33.5 33.5,26.10448 33.5,17 33.5,7.89662 26.10448,0.5 17,0.5 Z"
     inkscape:connector-curvature="0" />
  <path
     d="m 24.531919,13.502368 c -0.312345,-0.499884 -0.958133,-0.666534 -1.478805,-0.374814 -0.520686,0.312356 -0.666545,0.978879 -0.354046,1.499564 0.729024,1.18723 1.083048,2.603414 0.937188,4.12379 -0.312344,3.207336 -2.95747,5.748324 -6.164859,5.977421 -3.894704,0.270798 -7.143751,-2.853289 -7.102093,-6.685535 0.04168,-3.561536 2.95747,-6.518941 6.518927,-6.58141 h 0.04168 v 1.582834 c 0,0.458194 0.499896,0.749771 0.895498,0.499884 l 4.269583,-2.665894 c 0.374814,-0.229097 0.374814,-0.770561 0,-0.999658 L 17.846231,7.1917557 c -0.395744,-0.249876 -0.895486,0.04169 -0.895486,0.499895 v 1.603734 c -5.061022,0.04169 -9.101507,4.3320643 -8.726615,9.4763903 0.312344,4.311241 3.790554,7.789396 8.101793,8.101807 5.165158,0.395747 9.476397,-3.707252 9.476397,-8.789098 0.0208,-1.666214 -0.458204,-3.249015 -1.270465,-4.581995 z"
     id="path76"
     style="fill:#d6dbf1;fill-opacity:1;stroke-width:0.0371916" />
</svg>
