<?xml version="1.0" encoding="UTF-8" standalone="no"?>
<svg
   style="isolation:isolate"
   viewBox="0 0 34 34"
   width="34pt"
   height="34pt"
   version="1.1"
   id="svg9"
   sodipodi:docname="suspend_primary.svg"
   inkscape:version="1.1.1 (3bf5ae0d25, 2021-09-20)"
   xmlns:inkscape="http://www.inkscape.org/namespaces/inkscape"
   xmlns:sodipodi="http://sodipodi.sourceforge.net/DTD/sodipodi-0.dtd"
   xmlns="http://www.w3.org/2000/svg"
   xmlns:svg="http://www.w3.org/2000/svg"
   xmlns:rdf="http://www.w3.org/1999/02/22-rdf-syntax-ns#"
   xmlns:cc="http://creativecommons.org/ns#"
   xmlns:dc="http://purl.org/dc/elements/1.1/">
  <metadata
     id="metadata15">
    <rdf:RDF>
      <cc:Work
         rdf:about="">
        <dc:format>image/svg+xml</dc:format>
        <dc:type
           rdf:resource="http://purl.org/dc/dcmitype/StillImage" />
      </cc:Work>
    </rdf:RDF>
  </metadata>
  <defs
     id="defs13" />
  <sodipodi:namedview
     pagecolor="#ffffff"
     bordercolor="#666666"
     borderopacity="1"
     objecttolerance="10"
     gridtolerance="10"
     guidetolerance="10"
     inkscape:pageopacity="0"
     inkscape:pageshadow="2"
     inkscape:window-width="1920"
     inkscape:window-height="1006"
     id="namedview11"
     showgrid="false"
     inkscape:zoom="5.7259246"
     inkscape:cx="-23.22769"
     inkscape:cy="22.703757"
     inkscape:window-x="0"
     inkscape:window-y="0"
     inkscape:window-maximized="1"
     inkscape:current-layer="svg9"
     inkscape:document-rotation="0"
     inkscape:pagecheckerboard="0"
     inkscape:document-units="pt" />
  <linearGradient
     id="_lgradient_0"
     x1="0"
     y1="0.5"
     x2="1"
     y2="0.5"
     gradientTransform="matrix(33,0,0,33,0.5,0.5)"
     gradientUnits="userSpaceOnUse">
    <stop
       offset="0%"
       stop-opacity="1"
       style="stop-color:#00a9a5"
       id="stop2" />
    <stop
       offset="97.82608695652173%"
       stop-opacity="1"
       style="stop-color:#00a9a5"
       id="stop4" />
  </linearGradient>
  <circle
     style="opacity:0.5;fill:#3b5a87;fill-opacity:1;stroke-width:1.1"
     id="circle1064"
     r="16.5"
     cy="17"
     cx="17" />
  <path
     d="m 17.255926,12.882832 h 4.081088 l -5.179636,5.185554 c -0.47102,0.471625 -0.628022,1.100088 -0.314016,1.728738 C 16.000376,20.26876 16.628178,20.74 17.255948,20.74 h 7.848114 c 0.941832,0 1.569624,-0.62843 1.569624,-1.571526 0,-0.785642 -0.627792,-1.571306 -1.569624,-1.571306 h -4.081066 l 5.179626,-5.185554 c 0.47102,-0.471625 0.628024,-1.100088 0.314006,-1.728738 C 26.359636,10.21124 25.731844,9.7399989 25.104042,9.7399989 h -7.848116 c -0.784806,0 -1.569622,0.6284311 -1.569622,1.5715271 0,0.942865 0.784816,1.571306 1.569622,1.571306 z"
     id="path4-3-3"
     style="fill:#d6dbf1;fill-opacity:1;stroke-width:0.05609" />
  <path
     d="m 7.6055594,19.43353 h 2.4486546 l -3.1077846,3.107764 c -0.282614,0.282645 -0.376816,0.659285 -0.188408,1.036035 0.09416,0.282667 0.470888,0.565081 0.84755,0.565081 H 12.31444 c 0.565104,0 0.941776,-0.376618 0.941776,-0.941831 0,-0.470844 -0.376674,-0.941699 -0.941776,-0.941699 H 9.8657954 l 3.1077766,-3.107764 c 0.282612,-0.282645 0.376816,-0.659285 0.188406,-1.036035 C 13.067788,17.832414 12.691114,17.55 12.31443,17.55 H 7.6055594 c -0.470888,0 -0.941776,0.376629 -0.941776,0.941831 0,0.56507 0.470888,0.941699 0.941776,0.941699 z"
     id="path4-3-6-6"
     style="fill:#d6dbf1;fill-opacity:1;stroke-width:0.0336346" />
</svg>
