<?xml version="1.0" encoding="UTF-8" standalone="no"?>
<!-- Created with Inkscape (http://www.inkscape.org/) -->

<svg
   width="22"
   version="1.1"
   height="22"
   id="svg1"
   sodipodi:docname="start-here-kde.svg"
   inkscape:version="1.3.2 (091e20ef0f, 2023-11-25)"
   xmlns:inkscape="http://www.inkscape.org/namespaces/inkscape"
   xmlns:sodipodi="http://sodipodi.sourceforge.net/DTD/sodipodi-0.dtd"
   xmlns:xlink="http://www.w3.org/1999/xlink"
   xmlns="http://www.w3.org/2000/svg"
   xmlns:svg="http://www.w3.org/2000/svg">
  <sodipodi:namedview
     id="namedview1"
     pagecolor="#ffffff"
     bordercolor="#999999"
     borderopacity="1"
     inkscape:showpageshadow="2"
     inkscape:pageopacity="0"
     inkscape:pagecheckerboard="0"
     inkscape:deskcolor="#d1d1d1"
     inkscape:zoom="2.9765625"
     inkscape:cx="-25.868766"
     inkscape:cy="9.4068241"
     inkscape:window-width="1920"
     inkscape:window-height="994"
     inkscape:window-x="0"
     inkscape:window-y="0"
     inkscape:window-maximized="1"
     inkscape:current-layer="layer1" />
  <defs
     id="defs5455">
    <linearGradient
       inkscape:collect="always"
       xlink:href="#linearGradient865"
       id="linearGradient869"
       gradientUnits="userSpaceOnUse"
       gradientTransform="matrix(0.58372347,0,0,0.56410249,-20.376365,11.974359)"
       x1="25"
       y1="21"
       x2="3"
       y2="21" />
    <linearGradient
       id="linearGradient865"
       x1="0"
       x2="0"
       y1="0"
       y2="1">
      <stop
         offset="0%"
         style="stop-color:#096b83;stop-opacity:1"
         id="stop861" />
      <stop
         offset="100%"
         style="stop-color:#11c3ee;stop-opacity:1"
         id="stop863" />
    </linearGradient>
    <linearGradient
       inkscape:collect="always"
       xlink:href="#linearGradient865"
       id="linearGradient871"
       gradientUnits="userSpaceOnUse"
       gradientTransform="matrix(0.58372347,0,0,0.56410249,-20.376365,11.974359)"
       x1="17"
       y1="13"
       x2="28.626051"
       y2="13.214286" />
  </defs>
  <metadata
     id="metadata5458" />
  <g
     inkscape:label="Capa 1"
     inkscape:groupmode="layer"
     id="layer1"
     transform="translate(-453.86277,-674.47779)">
    <flowRoot
       line-height="125%"
       style="font-size:32.5px;font-family:sans-serif"
       id="flowRoot4170"><flowRegion
         id="flowRegion4172"><rect
           width="87.75001"
           x="452.32144"
           y="489.79807"
           height="48.750004"
           id="rect4174" /></flowRegion><flowPara
         id="flowPara4176">Plasm</flowPara></flowRoot>
    <g
       id="22-22-start-here-kde-7"
       transform="translate(453.86277,674.47779)">
      <rect
         id="rect2"
         style="opacity:0.00100002"
         width="22"
         height="22"
         x="0"
         y="0" />
      <path
         id="rect4328-7"
         d="m 4.196433,1 h 13.607134 c 1.770823,0 3.196432,1.445138 3.196432,3.240219 V 17.759781 C 20.999999,19.554863 19.57439,21 17.803567,21 H 4.196433 C 2.425609,21 1,19.554863 1,17.759781 V 4.240219 C 1,2.445138 2.425609,1 4.196433,1 Z"
         style="opacity:0.3;fill:#3b5a87;fill-opacity:1;fill-rule:nonzero;stroke:none;stroke-width:0;stroke-linecap:round;stroke-linejoin:round;stroke-miterlimit:4;stroke-dasharray:none;stroke-opacity:1"
         inkscape:connector-curvature="0" />
      <path
         class="fil0"
         d="m 16.165217,9.582633 c 0,0.616246 -0.127536,1.109244 -0.382608,1.478992 C 15.336231,15.745099 6.6,10.938375 3.666667,18.333333 5.197101,7.733893 15.655072,12.663865 16.165217,9.582633 Z"
         id="path6-5"
         style="fill:url(#linearGradient869);fill-opacity:1;stroke-width:0.0626874;image-rendering:optimizeQuality;shape-rendering:geometricPrecision;text-rendering:geometricPrecision" />
      <path
         class="fil0"
         d="m 18.333333,3.666667 c 0,0.677871 -0.191304,1.170868 -0.446375,1.540616 -0.06377,0.985995 -0.573915,1.602242 -1.339132,1.910364 -0.06377,0.308124 -0.191303,0.554622 -0.318841,0.80112 C 15.782609,12.602242 7.046375,7.733893 4.113044,15.190478 4.495652,12.663865 5.324637,11.061625 6.408696,9.952381 9.150725,2.619048 17.823189,6.5014 18.333333,3.666667 Z m -4.4,2.64986 c 0,0.369747 -0.06377,0.677871 -0.255072,0.862744 -0.255072,2.711485 -5.292754,-0.06162 -7.014493,4.252102 0.892755,-6.162466 6.950725,-3.327732 7.269565,-5.114846 z"
         id="path8-3"
         style="fill:url(#linearGradient871);fill-opacity:1;fill-rule:evenodd;stroke-width:0.0626874;image-rendering:optimizeQuality;shape-rendering:geometricPrecision;text-rendering:geometricPrecision" />
    </g>
  </g>
</svg>
