<?xml version="1.0" encoding="UTF-8" standalone="no"?>
<svg
   width="64"
   version="1.1"
   height="64"
   id="svg17"
   sodipodi:docname="folder-book.svg"
   inkscape:version="1.2 (dc2aedaf03, 2022-05-15)"
   xmlns:inkscape="http://www.inkscape.org/namespaces/inkscape"
   xmlns:sodipodi="http://sodipodi.sourceforge.net/DTD/sodipodi-0.dtd"
   xmlns:xlink="http://www.w3.org/1999/xlink"
   xmlns="http://www.w3.org/2000/svg"
   xmlns:svg="http://www.w3.org/2000/svg"
   xmlns:rdf="http://www.w3.org/1999/02/22-rdf-syntax-ns#"
   xmlns:cc="http://creativecommons.org/ns#"
   xmlns:dc="http://purl.org/dc/elements/1.1/">
  <sodipodi:namedview
     pagecolor="#ffffff"
     bordercolor="#666666"
     borderopacity="1"
     objecttolerance="10"
     gridtolerance="10"
     guidetolerance="10"
     inkscape:pageopacity="0"
     inkscape:pageshadow="2"
     inkscape:window-width="1920"
     inkscape:window-height="1002"
     id="namedview19"
     showgrid="true"
     inkscape:zoom="9.8125004"
     inkscape:cx="30.012738"
     inkscape:cy="32.254776"
     inkscape:window-x="0"
     inkscape:window-y="0"
     inkscape:window-maximized="1"
     inkscape:current-layer="layer1"
     inkscape:document-rotation="0"
     inkscape:pagecheckerboard="0"
     inkscape:showpageshadow="2"
     inkscape:deskcolor="#d1d1d1">
    <inkscape:grid
       type="xygrid"
       id="grid908" />
  </sodipodi:namedview>
  <defs
     id="defs5455">
    <linearGradient
       inkscape:collect="always"
       id="linearGradient842">
      <stop
         style="stop-color:#326e9a;stop-opacity:1"
         offset="0"
         id="stop838" />
      <stop
         style="stop-color:#339993;stop-opacity:1"
         offset="1"
         id="stop840" />
    </linearGradient>
    <linearGradient
       inkscape:collect="always"
       xlink:href="#linearGradient860"
       id="linearGradient862"
       x1="113.94677"
       y1="255.36646"
       x2="406.08289"
       y2="255.36646"
       gradientUnits="userSpaceOnUse"
       gradientTransform="matrix(0.20270273,0,0,0.18440695,363.86886,467.51047)" />
    <linearGradient
       inkscape:collect="always"
       id="linearGradient860">
      <stop
         style="stop-color:#78acd3;stop-opacity:1"
         offset="0"
         id="stop856" />
      <stop
         style="stop-color:#d98cbb;stop-opacity:1"
         offset="1"
         id="stop858" />
    </linearGradient>
    <linearGradient
       inkscape:collect="always"
       xlink:href="#linearGradient842"
       id="linearGradient844"
       x1="386.30626"
       y1="522.45407"
       x2="446.83023"
       y2="522.45407"
       gradientUnits="userSpaceOnUse"
       gradientTransform="matrix(0.99134277,0,0,0.99944183,3.6095126,0.30129674)" />
    <linearGradient
       inkscape:collect="always"
       id="linearGradient836">
      <stop
         style="stop-color:#ffb380;stop-opacity:1"
         offset="0"
         id="stop832" />
      <stop
         style="stop-color:#20ffff;stop-opacity:1"
         offset="0.48615947"
         id="stop1390" />
      <stop
         style="stop-color:#ffaeff;stop-opacity:1"
         offset="1"
         id="stop834" />
    </linearGradient>
    <linearGradient
       inkscape:collect="always"
       xlink:href="#linearGradient836"
       id="linearGradient900"
       x1="407.18054"
       y1="519.77393"
       x2="416.80774"
       y2="519.77393"
       gradientUnits="userSpaceOnUse" />
  </defs>
  <metadata
     id="metadata5458">
    <rdf:RDF>
      <cc:Work
         rdf:about="">
        <dc:format>image/svg+xml</dc:format>
        <dc:type
           rdf:resource="http://purl.org/dc/dcmitype/StillImage" />
      </cc:Work>
    </rdf:RDF>
  </metadata>
  <g
     inkscape:label="Capa 1"
     inkscape:groupmode="layer"
     id="layer1"
     transform="translate(-384.57143,-483.798)">
    <path
       style="fill:url(#linearGradient862);fill-opacity:1;stroke-width:0.179138"
       d="m 416.57459,496.95765 c -0.88032,0 -1.92237,-0.51649 -2.31692,-1.14784 l -1.7701,-2.83719 c -0.39274,-0.63133 -1.43479,-1.14667 -2.3148,-1.14782 l -20.40112,-0.0268 c -1.946,-0.003 -2.7662,0.93496 -2.79385,3.00415 l -0.0117,0.87228 v 2.56642 36.57158 c 0,0.70576 2.32071,2.56642 3.20071,2.56642 h 52.81515 c 0.88002,0 3.20071,-1.86066 3.20071,-2.56642 v -35.28836 c 0,-1.92482 -0.80004,-2.56643 -3.20071,-2.56643 z"
       id="path4-3"
       sodipodi:nodetypes="sccsssccsssssss" />
    <path
       style="fill:#f2f2f2;fill-opacity:1;stroke-width:0.176565"
       d="m 442.3495,510.65747 c 0,1.32548 -0.79577,2.40995 -2.61715,2.40995 h -46.19558 c -1.82139,0 -2.51852,-1.08447 -2.51852,-2.40995 v -7.22985 c 0,-1.32548 0.69713,-2.40996 2.51852,-2.40996 h 46.09645 c 1.82137,0 2.71628,1.08448 2.71628,2.40996 z"
       id="path8-6"
       sodipodi:nodetypes="sssssssss" />
    <path
       style="fill:url(#linearGradient844);fill-opacity:1;stroke-width:0.19334"
       d="m 443.32803,505.12949 h -53.5132 c -1.62182,0 -3.2434,1.47526 -3.2434,2.95052 v 28.76748 c 0,1.95107 1.25422,2.95051 3.2434,2.95051 h 53.5132 c 1.9955,0 3.2434,-0.99944 3.2434,-2.95051 v -28.76748 c 0,-1.47526 -1.62159,-2.95052 -3.2434,-2.95052 z"
       id="path10"
       sodipodi:nodetypes="sssssssss" />
    <path
       fill-rule="evenodd"
       clip-rule="evenodd"
       d="m 441.83731,533.51278 -7.22273,2.9341 c -0.57573,0.22551 -1.19995,0.35121 -1.85446,0.35121 -0.66001,0 -1.28983,-0.12702 -1.86854,-0.35651 l -7.20511,-2.92647 c -0.66034,-0.33732 -1.11504,-1.01986 -1.11504,-1.81184 v -7.81039 -1.3588 c 0,-0.37545 0.3048,-0.67923 0.67923,-0.67923 0.37545,0 0.67953,0.30378 0.67953,0.67923 v 0.55221 0.80659 7.71521 c 0,0.24507 0.13398,0.4547 0.329,0.57408 l 6.93521,2.93449 c 0.0152,0.006 0.0282,0.009 0.0434,0.0152 0.4676,0.19799 0.98232,0.30739 1.52228,0.30739 0.53647,0 1.04788,-0.10809 1.51349,-0.30375 0.0152,-0.006 0.0285,-0.01 0.0437,-0.0159 l 6.94281,-2.93746 c 0.19502,-0.11937 0.32968,-0.32899 0.32968,-0.57407 v -4.99867 -0.80659 -0.55221 c 0,-0.37476 0.30446,-0.67855 0.67923,-0.67855 0.37544,0 0.67923,0.30379 0.67923,0.67855 v 1.35876 5.09385 c 4e-5,0.7907 -0.45301,1.47062 -1.11101,1.80955 z m 0.43183,-10.29914 c -0.37478,0 -0.67924,-0.3048 -0.67924,-0.67956 0,-0.37545 0.30446,-0.67923 0.67924,-0.67923 0.37543,0 0.67922,0.30378 0.67922,0.67923 0,0.37476 -0.30379,0.67956 -0.67922,0.67956 z m -3.286,8.33141 -3.20381,1.3349 v -9e-4 c -0.0868,0.0392 -0.18305,0.061 -0.28391,0.061 -0.3847,0 -0.69778,-0.31211 -0.69778,-0.69749 0,-0.29848 0.18772,-0.55055 0.45105,-0.65104 l 3.26345,-1.42808 c 0.21157,-0.11411 0.36084,-0.33431 0.36084,-0.59336 v -8.89323 c 0,-0.18738 -0.15189,-0.33962 -0.33963,-0.33962 -0.049,0 -0.0962,0.0106 -0.13927,0.0295 v -6.7e-4 l -4.59339,2.01047 c -0.21357,0.11411 -0.36084,0.33431 -0.36084,0.59233 v 8.05516 1.35848 c 0,0.75019 -0.60877,1.35879 -1.35897,1.35879 -0.18806,0 -0.36615,-0.0382 -0.52934,-0.10744 l -5.01853,-2.09106 c -0.73196,-0.3101 -1.24435,-1.03346 -1.24435,-1.87645 v -9.50953 c 0,-0.75021 0.60859,-1.35877 1.35846,-1.35877 0.18504,0 0.36016,0.0375 0.52168,0.10512 l 3.11721,1.29844 c 0.25603,0.10744 0.43644,0.36083 0.43644,0.65567 0,0.39301 -0.31838,0.71136 -0.71071,0.71136 -0.11875,0 -0.22916,-0.0321 -0.32736,-0.0833 l -2.55802,-1.11932 c -9e-4,0 0,6.7e-4 -9e-4,6.7e-4 -0.0425,-0.0189 -0.0889,-0.0295 -0.13831,-0.0295 -0.1884,0 -0.33996,0.15224 -0.33996,0.33962 v 8.8933 c 0,0.25904 0.14858,0.47923 0.36118,0.59334 l 4.59372,2.00981 c 6.8e-4,0 0,-6.8e-4 6.8e-4,-6.8e-4 0.0418,0.0189 0.0893,0.0295 0.13865,0.0295 0.18738,0 0.33961,-0.15156 0.33961,-0.33962 v -8.64881 -0.33995 c 0,-0.84442 0.51342,-1.56937 1.24618,-1.87783 l 5.02388,-2.09275 c 0.16183,-0.0676 0.33698,-0.10511 0.52203,-0.10511 0.75022,0 1.35914,0.60854 1.35914,1.35876 v 9.50948 c -4e-5,0.84438 -0.51612,1.56937 -1.24906,1.8788 z"
       id="path806"
       style="stroke-width:0.0424519;fill:#f2f2f2;fill-opacity:1" />
  </g>
</svg>
