<?xml version="1.0" encoding="UTF-8" standalone="no"?>
<svg
   width="64"
   version="1.1"
   height="64"
   id="svg15"
   sodipodi:docname="folder-crash.svg"
   inkscape:version="1.1.1 (3bf5ae0d25, 2021-09-20)"
   xmlns:inkscape="http://www.inkscape.org/namespaces/inkscape"
   xmlns:sodipodi="http://sodipodi.sourceforge.net/DTD/sodipodi-0.dtd"
   xmlns:xlink="http://www.w3.org/1999/xlink"
   xmlns="http://www.w3.org/2000/svg"
   xmlns:svg="http://www.w3.org/2000/svg"
   xmlns:rdf="http://www.w3.org/1999/02/22-rdf-syntax-ns#"
   xmlns:cc="http://creativecommons.org/ns#"
   xmlns:dc="http://purl.org/dc/elements/1.1/">
  <sodipodi:namedview
     pagecolor="#ffffff"
     bordercolor="#666666"
     borderopacity="1"
     objecttolerance="10"
     gridtolerance="10"
     guidetolerance="10"
     inkscape:pageopacity="0"
     inkscape:pageshadow="2"
     inkscape:window-width="1920"
     inkscape:window-height="1011"
     id="namedview17"
     showgrid="true"
     inkscape:zoom="9.8125"
     inkscape:cx="22.522293"
     inkscape:cy="34.394904"
     inkscape:window-x="0"
     inkscape:window-y="0"
     inkscape:window-maximized="1"
     inkscape:current-layer="layer1"
     inkscape:document-rotation="0"
     inkscape:pagecheckerboard="0">
    <inkscape:grid
       type="xygrid"
       id="grid991" />
  </sodipodi:namedview>
  <defs
     id="defs5455">
    <linearGradient
       inkscape:collect="always"
       id="linearGradient4209">
      <stop
         style="stop-color:#eb0a42"
         id="stop4211" />
      <stop
         offset="1"
         style="stop-color:#f62459"
         id="stop4213" />
    </linearGradient>
    <linearGradient
       inkscape:collect="always"
       xlink:href="#linearGradient4209"
       id="linearGradient844"
       x1="386.30627"
       y1="522.45404"
       x2="446.83023"
       y2="522.45404"
       gradientUnits="userSpaceOnUse"
       gradientTransform="matrix(0.99134277,0,0,0.99944183,3.6095087,0.30126039)" />
  </defs>
  <metadata
     id="metadata5458">
    <rdf:RDF>
      <cc:Work
         rdf:about="">
        <dc:format>image/svg+xml</dc:format>
        <dc:type
           rdf:resource="http://purl.org/dc/dcmitype/StillImage" />
      </cc:Work>
    </rdf:RDF>
  </metadata>
  <g
     inkscape:label="Capa 1"
     inkscape:groupmode="layer"
     id="layer1"
     transform="translate(-384.57143,-483.798)">
    <path
       style="fill:#f96c8f;fill-opacity:1;stroke-width:0.179138"
       d="m 416.57459,496.95765 c -0.88032,0 -1.92237,-0.51649 -2.31692,-1.14784 l -1.7701,-2.83719 c -0.39274,-0.63133 -1.43479,-1.14667 -2.3148,-1.14782 l -20.40112,-0.0268 c -1.946,-0.003 -2.7662,0.93496 -2.79385,3.00415 l -0.0117,0.87228 v 2.56642 36.57158 c 0,0.70576 2.32071,2.56642 3.20071,2.56642 h 52.81515 c 0.88002,0 3.20071,-1.86066 3.20071,-2.56642 v -35.28836 c 0,-1.92482 -0.80004,-2.56643 -3.20071,-2.56643 z"
       id="path4-3"
       sodipodi:nodetypes="sccsssccsssssss" />
    <path
       style="fill:#434c5e;fill-opacity:1;stroke-width:0.176565"
       d="m 442.3495,510.65747 c 0,1.32548 -0.79577,2.40995 -2.61715,2.40995 h -46.19558 c -1.82139,0 -2.51852,-1.08447 -2.51852,-2.40995 v -7.22985 c 0,-1.32548 0.69713,-2.40996 2.51852,-2.40996 h 46.09645 c 1.82137,0 2.71628,1.08448 2.71628,2.40996 z"
       id="path8-6"
       sodipodi:nodetypes="sssssssss" />
    <path
       style="fill:url(#linearGradient844);fill-opacity:1;stroke-width:0.19334"
       d="m 443.32803,505.12949 h -53.5132 c -1.62182,0 -3.2434,1.47526 -3.2434,2.95052 v 28.76748 c 0,1.95107 1.25422,2.95051 3.2434,2.95051 h 53.5132 c 1.9955,0 3.2434,-0.99944 3.2434,-2.95051 v -28.76748 c 0,-1.47526 -1.62159,-2.95052 -3.2434,-2.95052 z"
       id="path10"
       sodipodi:nodetypes="sssssssss" />
    <path
       fill-rule="evenodd"
       clip-rule="evenodd"
       d="m 441.00065,536.862 h -9.6435 c -0.35454,0 -0.64222,-0.28848 -0.64222,-0.64285 0,-0.35535 0.28768,-0.64318 0.64222,-0.64318 h 9.6435 c 0.71003,0 1.28571,-0.57569 1.28571,-1.28572 V 521.4331 c 0,-0.71003 -0.57568,-1.28538 -1.28571,-1.28538 h -12.85747 c -0.70987,0 -1.28588,0.57535 -1.28588,1.28538 v 12.2143 c 0,0.35533 -0.28751,0.64285 -0.64285,0.64285 -0.3547,0 -0.64302,-0.28752 -0.64302,-0.64285 v -12.2143 c 0,-1.42007 1.15184,-2.5711 2.57175,-2.5711 h 12.85747 c 1.41975,0 2.57078,1.15103 2.57078,2.5711 v 12.85715 c 0,1.42007 -1.15103,2.57175 -2.57078,2.57175 z m -12.21445,-1.28603 c 0.35453,0 0.64285,0.28783 0.64285,0.64318 0,0.35437 -0.28832,0.64285 -0.64285,0.64285 -0.35534,0 -0.64302,-0.28848 -0.64302,-0.64285 0,-0.35535 0.28768,-0.64318 0.64302,-0.64318 z"
       id="path2"
       style="fill:#f2f2f2;fill-opacity:1;stroke-width:0.0401785" />
    <rect
       x="429.92871"
       y="523.27997"
       width="2.2499332"
       height="2.2499382"
       id="rect6"
       style="fill:#f2f2f2;fill-opacity:1;stroke-width:0.190028" />
    <rect
       x="433.34204"
       y="525.51074"
       width="2.2499332"
       height="2.2499382"
       id="rect8"
       style="fill:#f2f2f2;fill-opacity:1;stroke-width:0.190028" />
    <rect
       x="429.64783"
       y="530.03003"
       width="2.2499332"
       height="2.2499382"
       id="rect10"
       style="fill:#f2f2f2;fill-opacity:1;stroke-width:0.190028" />
    <rect
       x="437.03607"
       y="530.03003"
       width="2.2499332"
       height="2.2499382"
       id="rect12"
       style="fill:#f2f2f2;fill-opacity:1;stroke-width:0.190028" />
    <rect
       x="432.0481"
       y="528.83051"
       width="2.2499332"
       height="2.2499382"
       id="rect14"
       style="fill:#f2f2f2;fill-opacity:1;stroke-width:0.190028" />
    <rect
       x="434.63614"
       y="528.83051"
       width="2.2499332"
       height="2.2499382"
       id="rect16"
       style="fill:#f2f2f2;fill-opacity:1;stroke-width:0.190028" />
    <rect
       x="436.67889"
       y="523.27997"
       width="2.2499332"
       height="2.2499382"
       id="rect18"
       style="fill:#f2f2f2;fill-opacity:1;stroke-width:0.190028" />
  </g>
</svg>
