<?xml version="1.0" encoding="UTF-8" standalone="no"?>
<svg
   width="64"
   version="1.1"
   height="64"
   id="svg17"
   sodipodi:docname="folder-android.svg"
   inkscape:version="1.1.1 (3bf5ae0d25, 2021-09-20)"
   xmlns:inkscape="http://www.inkscape.org/namespaces/inkscape"
   xmlns:sodipodi="http://sodipodi.sourceforge.net/DTD/sodipodi-0.dtd"
   xmlns:xlink="http://www.w3.org/1999/xlink"
   xmlns="http://www.w3.org/2000/svg"
   xmlns:svg="http://www.w3.org/2000/svg"
   xmlns:rdf="http://www.w3.org/1999/02/22-rdf-syntax-ns#"
   xmlns:cc="http://creativecommons.org/ns#"
   xmlns:dc="http://purl.org/dc/elements/1.1/">
  <sodipodi:namedview
     pagecolor="#ffffff"
     bordercolor="#666666"
     borderopacity="1"
     objecttolerance="10"
     gridtolerance="10"
     guidetolerance="10"
     inkscape:pageopacity="0"
     inkscape:pageshadow="2"
     inkscape:window-width="1920"
     inkscape:window-height="1011"
     id="namedview19"
     showgrid="true"
     inkscape:zoom="9.8125004"
     inkscape:cx="37.299362"
     inkscape:cy="27.057324"
     inkscape:window-x="0"
     inkscape:window-y="0"
     inkscape:window-maximized="1"
     inkscape:current-layer="layer1"
     inkscape:document-rotation="0"
     inkscape:pagecheckerboard="0">
    <inkscape:grid
       type="xygrid"
       id="grid908" />
  </sodipodi:namedview>
  <defs
     id="defs5455">
    <linearGradient
       inkscape:collect="always"
       id="linearGradient842">
      <stop
         style="stop-color:#326e9a;stop-opacity:1"
         offset="0"
         id="stop838" />
      <stop
         style="stop-color:#339993;stop-opacity:1"
         offset="1"
         id="stop840" />
    </linearGradient>
    <linearGradient
       inkscape:collect="always"
       xlink:href="#linearGradient860"
       id="linearGradient862"
       x1="113.94677"
       y1="255.36646"
       x2="406.08289"
       y2="255.36646"
       gradientUnits="userSpaceOnUse"
       gradientTransform="matrix(0.20270273,0,0,0.18440695,363.86886,467.51047)" />
    <linearGradient
       inkscape:collect="always"
       id="linearGradient860">
      <stop
         style="stop-color:#78acd3;stop-opacity:1"
         offset="0"
         id="stop856" />
      <stop
         style="stop-color:#d98cbb;stop-opacity:1"
         offset="1"
         id="stop858" />
    </linearGradient>
    <linearGradient
       inkscape:collect="always"
       xlink:href="#linearGradient842"
       id="linearGradient844"
       x1="386.30626"
       y1="522.45407"
       x2="446.83023"
       y2="522.45407"
       gradientUnits="userSpaceOnUse"
       gradientTransform="matrix(0.99134277,0,0,0.99944183,3.6095126,0.30129674)" />
  </defs>
  <metadata
     id="metadata5458">
    <rdf:RDF>
      <cc:Work
         rdf:about="">
        <dc:format>image/svg+xml</dc:format>
        <dc:type
           rdf:resource="http://purl.org/dc/dcmitype/StillImage" />
      </cc:Work>
    </rdf:RDF>
  </metadata>
  <g
     inkscape:label="Capa 1"
     inkscape:groupmode="layer"
     id="layer1"
     transform="translate(-384.57143,-483.798)">
    <path
       style="fill:url(#linearGradient862);fill-opacity:1;stroke-width:0.179138"
       d="m 416.57459,496.95765 c -0.88032,0 -1.92237,-0.51649 -2.31692,-1.14784 l -1.7701,-2.83719 c -0.39274,-0.63133 -1.43479,-1.14667 -2.3148,-1.14782 l -20.40112,-0.0268 c -1.946,-0.003 -2.7662,0.93496 -2.79385,3.00415 l -0.0117,0.87228 v 2.56642 36.57158 c 0,0.70576 2.32071,2.56642 3.20071,2.56642 h 52.81515 c 0.88002,0 3.20071,-1.86066 3.20071,-2.56642 v -35.28836 c 0,-1.92482 -0.80004,-2.56643 -3.20071,-2.56643 z"
       id="path4-3"
       sodipodi:nodetypes="sccsssccsssssss" />
    <path
       style="fill:#f2f2f2;fill-opacity:1;stroke-width:0.176565"
       d="m 442.3495,510.65747 c 0,1.32548 -0.79577,2.40995 -2.61715,2.40995 h -46.19558 c -1.82139,0 -2.51852,-1.08447 -2.51852,-2.40995 v -7.22985 c 0,-1.32548 0.69713,-2.40996 2.51852,-2.40996 h 46.09645 c 1.82137,0 2.71628,1.08448 2.71628,2.40996 z"
       id="path8-6"
       sodipodi:nodetypes="sssssssss" />
    <path
       style="fill:url(#linearGradient844);fill-opacity:1;stroke-width:0.19334"
       d="m 443.32803,505.12949 h -53.5132 c -1.62182,0 -3.2434,1.47526 -3.2434,2.95052 v 28.76748 c 0,1.95107 1.25422,2.95051 3.2434,2.95051 h 53.5132 c 1.9955,0 3.2434,-0.99944 3.2434,-2.95051 v -28.76748 c 0,-1.47526 -1.62159,-2.95052 -3.2434,-2.95052 z"
       id="path10"
       sodipodi:nodetypes="sssssssss" />
    <path
       clip-rule="evenodd"
       d="m 438.33435,522.73573 c 0,0.31092 -0.25242,0.56263 -0.56278,0.56263 -0.31093,0 -0.5625,-0.25171 -0.5625,-0.56263 0,-0.31092 0.25157,-0.5625 0.5625,-0.5625 0.31036,0 0.56278,0.25158 0.56278,0.5625 z m -3.37555,0 c 0,0.31092 -0.25158,0.56263 -0.5625,0.56263 -0.31036,0 -0.56194,-0.25171 -0.56194,-0.56263 0,-0.31092 0.25158,-0.5625 0.56194,-0.5625 0.31092,0 0.5625,0.25158 0.5625,0.5625 z m 7.94338,7.94296 -5.6e-4,-5.6e-4 c -0.10217,0.10216 -0.24336,0.1659 -0.39909,0.1659 -0.31229,0 -0.56525,-0.25295 -0.56525,-0.56524 0,-0.16699 0.0744,-0.31585 0.19062,-0.41941 0.0882,-0.0997 0.14365,-0.22961 0.14365,-0.37326 v -3.37569 c 0,-0.31021 -0.25158,-0.5625 -0.5625,-0.5625 -0.31036,0 -0.5625,0.25229 -0.5625,0.5625 v 3.37569 1.5842 0.10273 c 0,0.73554 -0.35458,1.38565 -0.90007,1.79627 -0.002,0.002 -0.003,0.006 -0.006,0.008 -0.13292,0.10273 -0.21944,0.26423 -0.21944,0.44578 v 1.68778 c 0,0.93135 -0.75558,1.68692 -1.68693,1.68692 -0.9322,0 -1.68777,-0.75557 -1.68777,-1.68692 v -0.0283 -1.2376 c 0,-0.23319 -0.18841,-0.42188 -0.42188,-0.42188 h -0.28125 c -0.23291,0 -0.42187,0.18869 -0.42187,0.42188 v 1.2376 0.0283 c 0,0.93135 -0.75586,1.68692 -1.68721,1.68692 -0.9322,0 -1.68778,-0.75557 -1.68778,-1.68692 v -1.68778 c 0,-0.18155 -0.0857,-0.34306 -0.21944,-0.44578 -0.002,-0.002 -0.004,-0.006 -0.006,-0.008 -0.54548,-0.41062 -0.89979,-1.06073 -0.89979,-1.79627 v -0.10273 c -0.17686,0.0632 -0.36474,0.10273 -0.56249,0.10273 -0.93163,0 -1.6872,-0.75557 -1.6872,-1.68693 v -3.37569 c 0,-0.89236 0.69627,-1.61567 1.57352,-1.67568 0.0368,-0.008 0.0744,-0.0113 0.11369,-0.0113 h 0.5625 1.12499 2.74218 1.19531 2.25028 c 0.621,0 1.12499,-0.504 1.12499,-1.12514 0,-0.23909 -0.0764,-0.45921 -0.20295,-0.64079 -0.71712,-0.97501 -1.86933,-1.60948 -3.17228,-1.60948 -1.55594,0 -2.89982,0.90309 -3.53868,2.21304 l -0.002,-7e-4 c -0.092,0.18801 -0.28371,0.31915 -0.5073,0.31915 -0.3131,0 -0.56689,-0.25418 -0.56689,-0.56704 0,-0.13869 0.0517,-0.26423 0.13457,-0.36252 0.41527,-0.79721 1.03602,-1.47023 1.79159,-1.94829 l -0.61166,-1.0595 c -0.15518,-0.2693 -0.0632,-0.61305 0.20598,-0.76876 0.26888,-0.15517 0.61305,-0.0632 0.76848,0.20612 l 0.65257,1.1302 c 0.5235,-0.18415 1.08544,-0.28634 1.67265,-0.28634 0.5864,0 1.14778,0.10533 1.67129,0.28894 l 0.65397,-1.13283 c 0.15575,-0.2693 0.49933,-0.3613 0.76877,-0.20612 0.26862,0.15574 0.36063,0.49946 0.20573,0.76876 l -0.61386,1.06266 c 0.53996,0.34126 1.01485,0.77576 1.39197,1.28981 0.2631,0.369 0.42187,0.81668 0.42187,1.30366 0,1.24241 -1.00715,2.24957 -2.24943,2.24957 h -5.6253 -0.5625 -1.68749 c -0.31035,0 -0.56277,0.25228 -0.56277,0.56249 v 3.3757 c 0,0.31008 0.25242,0.5625 0.56277,0.5625 0.31092,0 0.5625,-0.25242 0.5625,-0.5625 v -2.25041 c 0,-0.31037 0.25157,-0.56265 0.5625,-0.56265 0.31092,0 0.56249,0.25228 0.56249,0.56265 v 3.93734 c 0,0.42131 0.234,0.78387 0.5765,0.97695 0.3293,0.19748 0.5485,0.55508 0.5485,0.96571 v 1.99539 c 0,0.31035 0.25186,0.56193 0.56278,0.56193 0.31036,0 0.56194,-0.25158 0.56194,-0.56193 v -1.40653 c 0,-0.77702 0.63006,-1.40624 1.40652,-1.40624 h 0.5625 c 0.77702,0 1.40625,0.62922 1.40625,1.40624 v 1.40653 c 0,0.31035 0.25186,0.56193 0.56278,0.56193 0.31007,0 0.5625,-0.25158 0.5625,-0.56193 v -1.99539 c 0,-0.41063 0.21891,-0.76823 0.54875,-0.96571 0.34168,-0.19308 0.57568,-0.55564 0.57568,-0.97695 v -1.68693 -2.81306 -0.56264 c 0,-0.93149 0.75557,-1.68693 1.68777,-1.68693 0.9322,0 1.68778,0.75547 1.68778,1.68697 v 3.37569 c 0,0.46607 -0.18925,0.88741 -0.49465,1.19257 z"
       fill-rule="evenodd"
       id="path2"
       style="fill:#f2f2f2;fill-opacity:1;stroke-width:0.0351561" />
  </g>
</svg>
