<?xml version="1.0" encoding="UTF-8" standalone="no"?>
<svg
   width="64"
   version="1.1"
   height="64"
   id="svg2"
   inkscape:version="1.1.1 (3bf5ae0d25, 2021-09-20)"
   sodipodi:docname="folder-gdrive.svg"
   xmlns:inkscape="http://www.inkscape.org/namespaces/inkscape"
   xmlns:sodipodi="http://sodipodi.sourceforge.net/DTD/sodipodi-0.dtd"
   xmlns:xlink="http://www.w3.org/1999/xlink"
   xmlns="http://www.w3.org/2000/svg"
   xmlns:svg="http://www.w3.org/2000/svg"
   xmlns:rdf="http://www.w3.org/1999/02/22-rdf-syntax-ns#"
   xmlns:cc="http://creativecommons.org/ns#"
   xmlns:dc="http://purl.org/dc/elements/1.1/">
  <sodipodi:namedview
     pagecolor="#ffffff"
     bordercolor="#666666"
     borderopacity="1"
     objecttolerance="10"
     gridtolerance="10"
     guidetolerance="10"
     inkscape:pageopacity="0"
     inkscape:pageshadow="2"
     inkscape:window-width="1920"
     inkscape:window-height="1011"
     id="namedview45"
     showgrid="true"
     inkscape:zoom="10.429825"
     inkscape:cx="37.201008"
     inkscape:cy="26.414633"
     inkscape:window-x="0"
     inkscape:window-y="0"
     inkscape:window-maximized="1"
     inkscape:current-layer="layer1"
     inkscape:document-rotation="0"
     inkscape:pagecheckerboard="0">
    <inkscape:grid
       type="xygrid"
       id="grid921" />
  </sodipodi:namedview>
  <defs
     id="defs5455">
    <linearGradient
       inkscape:collect="always"
       xlink:href="#linearGradient860-3"
       id="linearGradient862"
       x1="113.94677"
       y1="255.36646"
       x2="406.08289"
       y2="255.36646"
       gradientUnits="userSpaceOnUse"
       gradientTransform="matrix(0.20270273,0,0,0.18440695,363.86886,467.51048)" />
    <linearGradient
       inkscape:collect="always"
       id="linearGradient860-3">
      <stop
         style="stop-color:#78acd3;stop-opacity:1"
         offset="0"
         id="stop856-6" />
      <stop
         style="stop-color:#d98cbb;stop-opacity:1"
         offset="1"
         id="stop858-7" />
    </linearGradient>
    <linearGradient
       inkscape:collect="always"
       xlink:href="#linearGradient842-3"
       id="linearGradient844-5"
       x1="386.30627"
       y1="522.45404"
       x2="446.83023"
       y2="522.45404"
       gradientUnits="userSpaceOnUse"
       gradientTransform="matrix(0.99134277,0,0,0.99944183,3.609513,0.30125356)" />
    <linearGradient
       inkscape:collect="always"
       id="linearGradient842-3">
      <stop
         style="stop-color:#326e9a;stop-opacity:1"
         offset="0"
         id="stop838-5" />
      <stop
         style="stop-color:#339993;stop-opacity:1"
         offset="1"
         id="stop840-6" />
    </linearGradient>
  </defs>
  <metadata
     id="metadata5458">
    <rdf:RDF>
      <cc:Work
         rdf:about="">
        <dc:format>image/svg+xml</dc:format>
        <dc:type
           rdf:resource="http://purl.org/dc/dcmitype/StillImage" />
      </cc:Work>
    </rdf:RDF>
  </metadata>
  <g
     inkscape:label="Capa 1"
     inkscape:groupmode="layer"
     id="layer1"
     transform="translate(-384.57143,-483.798)">
    <path
       style="fill:url(#linearGradient862);fill-opacity:1;stroke-width:0.179138"
       d="m 416.57459,496.95766 c -0.88032,0 -1.92237,-0.51649 -2.31692,-1.14784 l -1.7701,-2.83719 c -0.39274,-0.63133 -1.43479,-1.14667 -2.3148,-1.14782 l -20.40112,-0.0268 c -1.946,-0.003 -2.7662,0.93496 -2.79385,3.00415 l -0.0117,0.87228 v 2.56642 36.57158 c 0,0.70576 2.32071,2.56642 3.20071,2.56642 h 52.81515 c 0.88002,0 3.20071,-1.86066 3.20071,-2.56642 v -35.28836 c 0,-1.92482 -0.80004,-2.56643 -3.20071,-2.56643 z"
       id="path4-3-2"
       sodipodi:nodetypes="sccsssccsssssss" />
    <path
       style="fill:#f2f2f2;fill-opacity:1;stroke-width:0.176565"
       d="m 442.3495,510.65748 c 0,1.32548 -0.79577,2.40995 -2.61715,2.40995 h -46.19558 c -1.82139,0 -2.51852,-1.08447 -2.51852,-2.40995 v -7.22985 c 0,-1.32548 0.69713,-2.40996 2.51852,-2.40996 h 46.09645 c 1.82137,0 2.71628,1.08448 2.71628,2.40996 z"
       id="path8-6-9"
       sodipodi:nodetypes="sssssssss" />
    <path
       style="fill:url(#linearGradient844-5);fill-opacity:1;stroke-width:0.19334"
       d="m 443.32803,505.1295 h -53.5132 c -1.62182,0 -3.2434,1.47526 -3.2434,2.95052 v 28.76748 c 0,1.95107 1.25422,2.95051 3.2434,2.95051 h 53.5132 c 1.9955,0 3.2434,-0.99944 3.2434,-2.95051 v -28.76748 c 0,-1.47526 -1.62159,-2.95052 -3.2434,-2.95052 z"
       id="path10-1"
       sodipodi:nodetypes="sssssssss" />
    <path
       fill-rule="evenodd"
       clip-rule="evenodd"
       d="m 442.90986,528.91989 -8.17412,3.44187 c -0.42907,0.16418 -0.89233,0.25803 -1.37821,0.25803 -0.48492,0 -0.94757,-0.0945 -1.37459,-0.25678 l -8.17902,-3.44376 c -0.1362,-0.059 -0.26241,-0.14408 -0.3735,-0.25457 -0.47865,-0.47837 -0.47865,-1.25401 0,-1.7327 0.11331,-0.11299 0.24449,-0.19901 0.38198,-0.25803 l 1.02588,-0.4316 c 0.0951,-0.0571 0.20463,-0.0917 0.32268,-0.0917 0.34963,0 0.63305,0.28314 0.63305,0.63281 0,0.28347 -0.18675,0.51984 -0.44349,0.60112 l -0.32078,0.13339 c -0.10074,0.054 -0.1698,0.15851 -0.1698,0.28033 0,0.11896 0.0656,0.2219 0.16288,0.27747 l 7.29259,3.04322 c 0.021,0.008 0.0395,0.0122 0.0606,0.021 0.30259,0.12523 0.63338,0.19365 0.9815,0.19365 0.34461,0 0.67326,-0.0678 0.97393,-0.19084 0.0251,-0.0101 0.0474,-0.0167 0.0718,-0.026 l 7.28864,-3.04105 c 0.0973,-0.0556 0.16293,-0.15849 0.16293,-0.27747 0,-0.12242 -0.0694,-0.22632 -0.17011,-0.28032 l -0.32139,-0.13404 c -0.2561,-0.0807 -0.44286,-0.31798 -0.44286,-0.60047 0,-0.34968 0.28343,-0.63282 0.6331,-0.63282 0.11958,0 0.23067,0.0352 0.32577,0.0929 l 1.0254,0.43192 c 0.13717,0.059 0.26679,0.14408 0.37917,0.25646 0.47865,0.47869 0.47865,1.25434 0,1.73271 -0.11174,0.11117 -0.23786,0.19623 -0.37411,0.25525 z m 0.002,-4.17983 -8.1867,3.44689 c -0.42496,0.16136 -0.88509,0.25426 -1.3672,0.25426 -0.48053,0 -0.93909,-0.092 -1.36358,-0.25204 l -8.1916,-3.44911 c -0.13561,-0.0596 -0.26084,-0.14343 -0.37193,-0.2536 -0.47865,-0.47869 -0.47865,-1.25494 0,-1.73363 0.11173,-0.11081 0.23854,-0.1943 0.37631,-0.2549 l 8.18841,-3.44752 c 0.42421,-0.16012 0.88185,-0.25241 1.36238,-0.25241 0.48147,0 0.94067,0.0923 1.36596,0.25361 l 0.76243,0.32079 c 0.26176,0.0816 0.45262,0.32299 0.45262,0.61115 0,0.3547 -0.28752,0.64318 -0.64282,0.64318 -0.10893,0 -0.20906,-0.0305 -0.2991,-0.0779 l -0.60484,-0.25237 c -0.0207,-0.008 -0.0395,-0.0128 -0.0603,-0.0217 -0.30066,-0.12335 -0.62932,-0.19117 -0.97393,-0.19117 -0.34812,0 -0.6789,0.0694 -0.98149,0.19398 -0.0172,0.007 -0.0323,0.0109 -0.0499,0.0172 l -7.29986,3.04607 c -0.0979,0.0549 -0.16634,0.1579 -0.16634,0.27904 0,0.11897 0.0656,0.2213 0.16196,0.27747 l 7.30296,3.04603 c 0.0172,0.008 0.0329,0.0107 0.0512,0.0179 0.30259,0.12463 0.63338,0.19398 0.98148,0.19398 0.34461,0 0.67328,-0.0678 0.97393,-0.19117 0.0214,-0.008 0.0408,-0.0142 0.0618,-0.0223 l 7.29935,-3.04445 c 0.0967,-0.0562 0.16228,-0.15851 0.16228,-0.27748 0,-0.12118 -0.0684,-0.22347 -0.16666,-0.27904 l -0.99052,-0.41372 c -0.24421,-0.0879 -0.42,-0.31862 -0.42,-0.59327 0,-0.34936 0.28314,-0.63282 0.63278,-0.63282 0.11961,0 0.23135,0.0355 0.32673,0.0929 l 1.67356,0.70501 c 0.13626,0.0584 0.26205,0.14343 0.37319,0.25361 0.47864,0.47869 0.47864,1.25494 0,1.73363 -0.11114,0.11029 -0.23698,0.1941 -0.37258,0.25376 z m -5.37535,-3.04887 c -0.3553,0 -0.6431,-0.28752 -0.6431,-0.64286 0,-0.35534 0.2878,-0.64286 0.6431,-0.64286 0.35434,0 0.64282,0.28752 0.64282,0.64286 0,0.35534 -0.28848,0.64286 -0.64282,0.64286 z m -13.72369,9.16106 1.03031,-0.43317 c 0.0935,-0.0553 0.20149,-0.0892 0.31825,-0.0892 0.34964,0 0.63306,0.28313 0.63306,0.63281 0,0.28595 -0.19177,0.52545 -0.45289,0.60333 l -0.31139,0.13025 c -0.10073,0.0543 -0.16979,0.15791 -0.16979,0.28033 0,0.11989 0.0656,0.22223 0.16288,0.27779 l 7.30328,3.04732 c 0.0176,0.007 0.0326,0.01 0.0499,0.0172 0.30259,0.12463 0.63338,0.19398 0.98149,0.19398 0.34461,0 0.67327,-0.0684 0.97393,-0.19117 0.0207,-0.008 0.0395,-0.0135 0.0603,-0.0217 l 7.30027,-3.04575 c 0.0973,-0.0556 0.16292,-0.1579 0.16292,-0.2778 0,-0.12177 -0.0694,-0.226 -0.17011,-0.28032 l -0.31356,-0.13027 c -0.2608,-0.0794 -0.45073,-0.31797 -0.45073,-0.60331 0,-0.34968 0.28343,-0.63282 0.6331,-0.63282 0.11515,0 0.22127,0.0329 0.31416,0.0863 l 1.03705,0.43694 c 0.13842,0.0596 0.26614,0.14408 0.37917,0.25706 0.47864,0.47869 0.47864,1.25434 0,1.73303 -0.11017,0.11017 -0.23633,0.19366 -0.36912,0.253 l -8.1873,3.44753 c -0.42654,0.1626 -0.88699,0.25425 -1.37002,0.25425 -0.4821,0 -0.9419,-0.0929 -1.36736,-0.25361 l -8.19219,-3.4491 c -0.13399,-0.0596 -0.25798,-0.14251 -0.36751,-0.25204 -0.47866,-0.47869 -0.47866,-1.25434 0,-1.73303 0.11326,-0.11302 0.24448,-0.19808 0.38193,-0.25802 z"
       id="path2"
       style="fill:#f2f2f2;fill-opacity:1;stroke-width:0.0401787" />
  </g>
</svg>
