<?xml version="1.0" encoding="UTF-8" standalone="no"?>
<svg
   width="64"
   version="1.1"
   height="64"
   id="svg17"
   sodipodi:docname="folder-print.svg"
   inkscape:version="1.1.1 (3bf5ae0d25, 2021-09-20)"
   xmlns:inkscape="http://www.inkscape.org/namespaces/inkscape"
   xmlns:sodipodi="http://sodipodi.sourceforge.net/DTD/sodipodi-0.dtd"
   xmlns:xlink="http://www.w3.org/1999/xlink"
   xmlns="http://www.w3.org/2000/svg"
   xmlns:svg="http://www.w3.org/2000/svg"
   xmlns:rdf="http://www.w3.org/1999/02/22-rdf-syntax-ns#"
   xmlns:cc="http://creativecommons.org/ns#"
   xmlns:dc="http://purl.org/dc/elements/1.1/">
  <sodipodi:namedview
     pagecolor="#ffffff"
     bordercolor="#666666"
     borderopacity="1"
     objecttolerance="10"
     gridtolerance="10"
     guidetolerance="10"
     inkscape:pageopacity="0"
     inkscape:pageshadow="2"
     inkscape:window-width="1920"
     inkscape:window-height="1006"
     id="namedview19"
     showgrid="true"
     inkscape:zoom="9.8125004"
     inkscape:cx="29.961782"
     inkscape:cy="48.509552"
     inkscape:window-x="0"
     inkscape:window-y="0"
     inkscape:window-maximized="1"
     inkscape:current-layer="layer1"
     inkscape:document-rotation="0"
     inkscape:pagecheckerboard="0">
    <inkscape:grid
       type="xygrid"
       id="grid908" />
  </sodipodi:namedview>
  <defs
     id="defs5455">
    <linearGradient
       inkscape:collect="always"
       id="linearGradient842">
      <stop
         style="stop-color:#326e9a;stop-opacity:1"
         offset="0"
         id="stop838" />
      <stop
         style="stop-color:#339993;stop-opacity:1"
         offset="1"
         id="stop840" />
    </linearGradient>
    <linearGradient
       inkscape:collect="always"
       xlink:href="#linearGradient860"
       id="linearGradient862"
       x1="113.94677"
       y1="255.36646"
       x2="406.08289"
       y2="255.36646"
       gradientUnits="userSpaceOnUse"
       gradientTransform="matrix(0.20270273,0,0,0.18440695,363.86886,467.51047)" />
    <linearGradient
       inkscape:collect="always"
       id="linearGradient860">
      <stop
         style="stop-color:#78acd3;stop-opacity:1"
         offset="0"
         id="stop856" />
      <stop
         style="stop-color:#d98cbb;stop-opacity:1"
         offset="1"
         id="stop858" />
    </linearGradient>
    <linearGradient
       inkscape:collect="always"
       xlink:href="#linearGradient842"
       id="linearGradient844"
       x1="386.30626"
       y1="522.45407"
       x2="446.83023"
       y2="522.45407"
       gradientUnits="userSpaceOnUse"
       gradientTransform="matrix(0.99134277,0,0,0.99944183,3.6095126,0.30129674)" />
    <linearGradient
       inkscape:collect="always"
       id="linearGradient836">
      <stop
         style="stop-color:#ffb380;stop-opacity:1"
         offset="0"
         id="stop832" />
      <stop
         style="stop-color:#20ffff;stop-opacity:1"
         offset="0.48615947"
         id="stop1390" />
      <stop
         style="stop-color:#ffaeff;stop-opacity:1"
         offset="1"
         id="stop834" />
    </linearGradient>
    <linearGradient
       inkscape:collect="always"
       xlink:href="#linearGradient836"
       id="linearGradient900"
       x1="407.18054"
       y1="519.77393"
       x2="416.80774"
       y2="519.77393"
       gradientUnits="userSpaceOnUse" />
  </defs>
  <metadata
     id="metadata5458">
    <rdf:RDF>
      <cc:Work
         rdf:about="">
        <dc:format>image/svg+xml</dc:format>
        <dc:type
           rdf:resource="http://purl.org/dc/dcmitype/StillImage" />
      </cc:Work>
    </rdf:RDF>
  </metadata>
  <g
     inkscape:label="Capa 1"
     inkscape:groupmode="layer"
     id="layer1"
     transform="translate(-384.57143,-483.798)">
    <path
       style="fill:url(#linearGradient862);fill-opacity:1;stroke-width:0.179138"
       d="m 416.57459,496.95765 c -0.88032,0 -1.92237,-0.51649 -2.31692,-1.14784 l -1.7701,-2.83719 c -0.39274,-0.63133 -1.43479,-1.14667 -2.3148,-1.14782 l -20.40112,-0.0268 c -1.946,-0.003 -2.7662,0.93496 -2.79385,3.00415 l -0.0117,0.87228 v 2.56642 36.57158 c 0,0.70576 2.32071,2.56642 3.20071,2.56642 h 52.81515 c 0.88002,0 3.20071,-1.86066 3.20071,-2.56642 v -35.28836 c 0,-1.92482 -0.80004,-2.56643 -3.20071,-2.56643 z"
       id="path4-3"
       sodipodi:nodetypes="sccsssccsssssss" />
    <path
       style="fill:#f2f2f2;fill-opacity:1;stroke-width:0.176565"
       d="m 442.3495,510.65747 c 0,1.32548 -0.79577,2.40995 -2.61715,2.40995 h -46.19558 c -1.82139,0 -2.51852,-1.08447 -2.51852,-2.40995 v -7.22985 c 0,-1.32548 0.69713,-2.40996 2.51852,-2.40996 h 46.09645 c 1.82137,0 2.71628,1.08448 2.71628,2.40996 z"
       id="path8-6"
       sodipodi:nodetypes="sssssssss" />
    <path
       style="fill:url(#linearGradient844);fill-opacity:1;stroke-width:0.19334"
       d="m 443.32803,505.12949 h -53.5132 c -1.62182,0 -3.2434,1.47526 -3.2434,2.95052 v 28.76748 c 0,1.95107 1.25422,2.95051 3.2434,2.95051 h 53.5132 c 1.9955,0 3.2434,-0.99944 3.2434,-2.95051 v -28.76748 c 0,-1.47526 -1.62159,-2.95052 -3.2434,-2.95052 z"
       id="path10"
       sodipodi:nodetypes="sssssssss" />
    <path
       d="m 435.13446,531.17292 h 2.24947 c 0.31092,0 0.5625,0.25214 0.5625,0.56306 0,0.3098 -0.25158,0.5625 -0.5625,0.5625 h -2.24947 c -0.31093,0 -0.56264,-0.2527 -0.56264,-0.5625 -4e-5,-0.31092 0.25171,-0.56306 0.56264,-0.56306 z m -2.81324,0.56306 c 0,-0.31092 0.25186,-0.56306 0.56279,-0.56306 0.31063,0 0.5625,0.25214 0.5625,0.56306 0,0.3098 -0.2519,0.5625 -0.5625,0.5625 -0.31093,0 -0.56279,-0.2527 -0.56279,-0.5625 z m 4.50018,2.24943 c 0,0.31093 -0.25158,0.5625 -0.5625,0.5625 h -4.50018 c -0.31008,0 -0.56193,-0.25157 -0.56193,-0.5625 0,-0.31091 0.25185,-0.56249 0.56193,-0.56249 h 4.50018 c 0.31092,0 0.5625,0.25158 0.5625,0.56249 z m 4.99808,-0.56249 h -1.34124 c -0.77727,0 -1.40625,-0.62951 -1.40625,-1.40625 v -1.125 c 0,-0.46586 -0.37849,-0.84378 -0.84431,-0.84378 h -7.31242 c -0.4661,0 -0.84375,0.37792 -0.84375,0.84378 v 3.93749 c 0,0.46639 0.37765,0.84435 0.84375,0.84435 h 7.31242 c 0.36696,0 0.84431,-0.32867 0.84431,-0.5631 v 0 c 0,-0.31035 0.25158,-0.5625 0.56194,-0.5625 0.31092,0 0.5625,0.25215 0.5625,0.5625 0,0.039 -0.009,0.0753 -0.0115,0.1137 -0.0593,0.87786 -0.78279,1.57384 -1.67541,1.57384 h -7.87523 c -0.93193,0 -1.68778,-0.75529 -1.68778,-1.68754 v -1.68749 -1.12444 -1.68806 c 0,-0.93167 0.75585,-1.68753 1.68778,-1.68753 h 7.8752 c 0.93164,0 1.68694,0.75586 1.68694,1.68753 v 1.12556 c 0,0.3098 0.25157,0.5625 0.5625,0.5625 h 0.28181 c 0.77618,0 1.40628,-0.63007 1.40628,-1.40681 v -3.65614 c 0,-0.31064 0.25158,-0.5625 0.5625,-0.5625 0.3098,0 0.56194,0.25186 0.56194,0.5625 v 4.28305 c 4e-5,0.7201 -1.00775,1.90434 -1.75194,1.90434 z m 0.0644,-7.87521 c -0.31036,0 -0.5625,-0.25158 -0.5625,-0.5625 0,-0.31008 0.25214,-0.56193 0.5625,-0.56193 0.31092,0 0.5631,0.25185 0.5631,0.56193 0,0.31092 -0.25218,0.5625 -0.5631,0.5625 z m -3.37444,0 h -0.56306 -7.31217 -2.53153 c -0.77675,0 -1.40597,0.63008 -1.40597,1.40629 v 3.09389 0.10328 1.58481 c 0,0.3098 0.25158,0.5625 0.5625,0.5625 0.31008,0 0.56193,0.25158 0.56193,0.56194 0,0.31092 -0.25185,0.5625 -0.56193,0.5625 -0.0388,0 -0.0753,-0.009 -0.11345,-0.0115 -0.87862,-0.0593 -1.57433,-0.78279 -1.57433,-1.67541 0,-0.0851 0.0126,-0.16533 0.0245,-0.24665 -0.0143,-0.10381 -0.0245,-0.20876 -0.0245,-0.31641 v -4.49989 c 0,-1.24288 1.00771,-2.24975 2.24971,-2.24975 h 0.84432 0.28097 1.96875 0.5625 6.74992 c 0.46582,0 0.84431,-0.37821 0.84431,-0.84431 v -2.81225 c 0,-0.46582 -0.37849,-0.84347 -0.84431,-0.84347 h -7.31239 c -0.4661,0 -0.84375,0.37765 -0.84375,0.84347 v 1.96878 c 0,0.31092 -0.25158,0.5625 -0.5625,0.5625 -0.31092,0 -0.5625,-0.25158 -0.5625,-0.5625 v -2.24975 c -3e-5,-0.93249 0.75582,-1.68778 1.68775,-1.68778 h 7.8752 c 0.93164,0 1.68694,0.75529 1.68694,1.68778 v 3.37503 c 3e-5,0.93164 -0.75526,1.68694 -1.68691,1.68694 z m -10.12576,1.12532 c 0.31092,0 0.56278,0.25186 0.56278,0.5625 0,0.31092 -0.25186,0.56278 -0.56278,0.56278 -0.31011,0 -0.5625,-0.25186 -0.5625,-0.56278 -4e-5,-0.31064 0.25239,-0.5625 0.5625,-0.5625 z"
       id="path2"
       style="fill:#f2f2f2;fill-opacity:1;stroke-width:0.0351562" />
  </g>
</svg>
