<?xml version="1.0" encoding="UTF-8" standalone="no"?>
<svg
   width="64"
   version="1.1"
   height="64"
   id="svg17"
   sodipodi:docname="folder-important.svg"
   inkscape:version="1.1.1 (3bf5ae0d25, 2021-09-20)"
   xmlns:inkscape="http://www.inkscape.org/namespaces/inkscape"
   xmlns:sodipodi="http://sodipodi.sourceforge.net/DTD/sodipodi-0.dtd"
   xmlns:xlink="http://www.w3.org/1999/xlink"
   xmlns="http://www.w3.org/2000/svg"
   xmlns:svg="http://www.w3.org/2000/svg"
   xmlns:rdf="http://www.w3.org/1999/02/22-rdf-syntax-ns#"
   xmlns:cc="http://creativecommons.org/ns#"
   xmlns:dc="http://purl.org/dc/elements/1.1/">
  <sodipodi:namedview
     pagecolor="#ffffff"
     bordercolor="#666666"
     borderopacity="1"
     objecttolerance="10"
     gridtolerance="10"
     guidetolerance="10"
     inkscape:pageopacity="0"
     inkscape:pageshadow="2"
     inkscape:window-width="1920"
     inkscape:window-height="1011"
     id="namedview19"
     showgrid="true"
     inkscape:zoom="9.8125004"
     inkscape:cx="36.891718"
     inkscape:cy="35.414011"
     inkscape:window-x="0"
     inkscape:window-y="0"
     inkscape:window-maximized="1"
     inkscape:current-layer="layer1"
     inkscape:document-rotation="0"
     inkscape:pagecheckerboard="0">
    <inkscape:grid
       type="xygrid"
       id="grid908" />
  </sodipodi:namedview>
  <defs
     id="defs5455">
    <linearGradient
       inkscape:collect="always"
       id="linearGradient842">
      <stop
         style="stop-color:#326e9a;stop-opacity:1"
         offset="0"
         id="stop838" />
      <stop
         style="stop-color:#339993;stop-opacity:1"
         offset="1"
         id="stop840" />
    </linearGradient>
    <linearGradient
       inkscape:collect="always"
       xlink:href="#linearGradient860"
       id="linearGradient862"
       x1="113.94677"
       y1="255.36646"
       x2="406.08289"
       y2="255.36646"
       gradientUnits="userSpaceOnUse"
       gradientTransform="matrix(0.20270273,0,0,0.18440695,363.86886,467.51047)" />
    <linearGradient
       inkscape:collect="always"
       id="linearGradient860">
      <stop
         style="stop-color:#78acd3;stop-opacity:1"
         offset="0"
         id="stop856" />
      <stop
         style="stop-color:#d98cbb;stop-opacity:1"
         offset="1"
         id="stop858" />
    </linearGradient>
    <linearGradient
       inkscape:collect="always"
       xlink:href="#linearGradient842"
       id="linearGradient844"
       x1="386.30626"
       y1="522.45407"
       x2="446.83023"
       y2="522.45407"
       gradientUnits="userSpaceOnUse"
       gradientTransform="matrix(0.99134277,0,0,0.99944183,3.6095126,0.30129674)" />
  </defs>
  <metadata
     id="metadata5458">
    <rdf:RDF>
      <cc:Work
         rdf:about="">
        <dc:format>image/svg+xml</dc:format>
        <dc:type
           rdf:resource="http://purl.org/dc/dcmitype/StillImage" />
      </cc:Work>
    </rdf:RDF>
  </metadata>
  <g
     inkscape:label="Capa 1"
     inkscape:groupmode="layer"
     id="layer1"
     transform="translate(-384.57143,-483.798)">
    <path
       style="fill:url(#linearGradient862);fill-opacity:1;stroke-width:0.179138"
       d="m 416.57459,496.95765 c -0.88032,0 -1.92237,-0.51649 -2.31692,-1.14784 l -1.7701,-2.83719 c -0.39274,-0.63133 -1.43479,-1.14667 -2.3148,-1.14782 l -20.40112,-0.0268 c -1.946,-0.003 -2.7662,0.93496 -2.79385,3.00415 l -0.0117,0.87228 v 2.56642 36.57158 c 0,0.70576 2.32071,2.56642 3.20071,2.56642 h 52.81515 c 0.88002,0 3.20071,-1.86066 3.20071,-2.56642 v -35.28836 c 0,-1.92482 -0.80004,-2.56643 -3.20071,-2.56643 z"
       id="path4-3"
       sodipodi:nodetypes="sccsssccsssssss" />
    <path
       style="fill:#f2f2f2;fill-opacity:1;stroke-width:0.176565"
       d="m 442.3495,510.65747 c 0,1.32548 -0.79577,2.40995 -2.61715,2.40995 h -46.19558 c -1.82139,0 -2.51852,-1.08447 -2.51852,-2.40995 v -7.22985 c 0,-1.32548 0.69713,-2.40996 2.51852,-2.40996 h 46.09645 c 1.82137,0 2.71628,1.08448 2.71628,2.40996 z"
       id="path8-6"
       sodipodi:nodetypes="sssssssss" />
    <path
       style="fill:url(#linearGradient844);fill-opacity:1;stroke-width:0.19334"
       d="m 443.32803,505.12949 h -53.5132 c -1.62182,0 -3.2434,1.47526 -3.2434,2.95052 v 28.76748 c 0,1.95107 1.25422,2.95051 3.2434,2.95051 h 53.5132 c 1.9955,0 3.2434,-0.99944 3.2434,-2.95051 v -28.76748 c 0,-1.47526 -1.62159,-2.95052 -3.2434,-2.95052 z"
       id="path10"
       sodipodi:nodetypes="sssssssss" />
    <path
       d="m 432.55981,529.08062 c -0.35187,0 -0.63718,-0.28779 -0.63718,-0.64278 v -3.85647 c 0,-1.06485 0.85589,-1.92826 1.91157,-1.92826 1.05551,0 1.91143,0.8634 1.91143,1.92826 v 5.14199 c 0,0.12708 -0.0143,0.25045 -0.0376,0.37094 -0.0202,0.0994 -0.0492,0.19426 -0.084,0.28779 -0.005,0.0138 -0.009,0.0302 -0.0137,0.0446 -0.0414,0.10509 -0.0921,0.20522 -0.15056,0.30033 -9.9e-4,0.003 -0.003,0.006 -0.004,0.008 -0.061,0.0973 -0.12978,0.18928 -0.20565,0.27397 -0.34972,0.39139 -0.85158,0.64275 -1.41552,0.64275 -0.0289,0 -0.0522,0.002 -0.0715,0.007 -0.31798,0.0367 -0.56564,0.30539 -0.56564,0.63554 0,0.35493 0.2853,0.64273 0.63721,0.64273 0.35175,0 0.63702,-0.2878 0.63702,-0.64273 0,-0.35499 0.28535,-0.64278 0.63721,-0.64278 0.3519,0 0.63721,0.28779 0.63721,0.64278 0,1.06485 -0.85592,1.92822 -1.91144,1.92822 -1.05564,0 -1.91156,-0.86337 -1.91156,-1.92822 0,-0.12713 0.0143,-0.25044 0.0377,-0.37098 0.0202,-0.0995 0.0492,-0.19425 0.084,-0.28779 0.005,-0.0138 0.009,-0.0301 0.0137,-0.0446 0.0414,-0.10515 0.0921,-0.20524 0.15061,-0.30039 9.9e-4,-0.003 0.003,-0.006 0.005,-0.008 0.061,-0.0973 0.12973,-0.18926 0.20565,-0.27398 0.34971,-0.39135 0.85154,-0.64275 1.41563,-0.64275 0.0507,0 0.0999,-0.008 0.14685,-0.0188 0.016,-0.005 0.0303,-0.008 0.0449,-0.0142 0.25763,-0.0826 0.44523,-0.3226 0.44523,-0.60979 v -5.14192 c 0,-0.35492 -0.2853,-0.64277 -0.63701,-0.64277 -0.35187,0 -0.63722,0.2878 -0.63722,0.64277 v 3.85648 c -8e-5,0.35498 -0.28539,0.64278 -0.63725,0.64278 z m 7.01168,7.71736 c -1.91278,-0.0116 -3.82526,-0.005 -5.73729,-0.005 -1.27439,0 -2.54874,-9.9e-4 -3.82313,0 -0.35186,0 -0.63717,-0.28776 -0.63717,-0.64272 0,-0.35495 0.28531,-0.64275 0.63717,-0.64275 v -0.009 c 1.23516,-6.1e-4 2.52759,0.005 3.82313,0.005 1.85479,0 3.71003,-0.0104 5.38918,0 3.35765,0.0198 3.53187,-0.87562 1.83628,-3.88946 -1.69504,-3.01415 -3.16854,-6.22288 -4.83024,-9.25709 -1.66175,-3.03394 -3.12888,-3.03394 -4.79057,0 -1.66174,3.03426 -3.14301,6.24297 -4.83893,9.25709 -0.65306,1.16061 -1.0491,1.73553 -1.0491,2.92971 0,0.35495 -0.2853,0.64275 -0.63721,0.64275 -0.35191,0 -0.63718,-0.28781 -0.63718,-0.64275 v 0.0919 c -6.3e-4,-0.0304 -0.005,-0.0606 -0.005,-0.0919 0.005,-0.75825 0.32948,-1.70827 0.97318,-2.84939 1.93331,-3.42555 3.54865,-6.86179 5.4434,-10.31 1.89507,-3.44849 4.38709,-3.44849 6.28116,0 1.89506,3.44822 3.51045,6.88446 5.44379,10.31 1.93336,3.42503 0.98538,5.12603 -2.84213,5.10341 z m -12.10919,-1.28985 c 0.35187,0 0.63721,0.2878 0.63721,0.64273 0,0.35497 -0.2853,0.64274 -0.63721,0.64274 -0.3519,0 -0.63717,-0.28777 -0.63717,-0.64274 0,-0.35493 0.28527,-0.64273 0.63717,-0.64273 z m 2.54068,1.28547"
       id="path2"
       style="fill:#f2f2f2;fill-opacity:1;stroke-width:0.0400044" />
  </g>
</svg>
