<?xml version="1.0" encoding="UTF-8" standalone="no"?>
<svg
   height="64"
   width="64"
   version="1.1"
   id="svg19"
   sodipodi:docname="folder-root.svg"
   inkscape:version="1.1.1 (3bf5ae0d25, 2021-09-20)"
   xmlns:inkscape="http://www.inkscape.org/namespaces/inkscape"
   xmlns:sodipodi="http://sodipodi.sourceforge.net/DTD/sodipodi-0.dtd"
   xmlns:xlink="http://www.w3.org/1999/xlink"
   xmlns="http://www.w3.org/2000/svg"
   xmlns:svg="http://www.w3.org/2000/svg"
   xmlns:rdf="http://www.w3.org/1999/02/22-rdf-syntax-ns#"
   xmlns:cc="http://creativecommons.org/ns#"
   xmlns:dc="http://purl.org/dc/elements/1.1/">
  <metadata
     id="metadata25">
    <rdf:RDF>
      <cc:Work
         rdf:about="">
        <dc:format>image/svg+xml</dc:format>
        <dc:type
           rdf:resource="http://purl.org/dc/dcmitype/StillImage" />
      </cc:Work>
    </rdf:RDF>
  </metadata>
  <defs
     id="defs23">
    <linearGradient
       inkscape:collect="always"
       xlink:href="#linearGradient860-3"
       id="linearGradient862"
       x1="113.94677"
       y1="255.36646"
       x2="406.08289"
       y2="255.36646"
       gradientUnits="userSpaceOnUse"
       gradientTransform="matrix(0.20270273,0,0,0.18440695,-20.70257,-16.287523)" />
    <linearGradient
       inkscape:collect="always"
       id="linearGradient860-3">
      <stop
         style="stop-color:#78acd3;stop-opacity:1"
         offset="0"
         id="stop856-6" />
      <stop
         style="stop-color:#d98cbb;stop-opacity:1"
         offset="1"
         id="stop858-7" />
    </linearGradient>
    <linearGradient
       inkscape:collect="always"
       xlink:href="#linearGradient842-3"
       id="linearGradient844-5"
       x1="386.30627"
       y1="522.45404"
       x2="446.83023"
       y2="522.45404"
       gradientUnits="userSpaceOnUse"
       gradientTransform="matrix(0.99134277,0,0,0.99944183,-380.96192,-483.49669)" />
    <linearGradient
       inkscape:collect="always"
       id="linearGradient842-3">
      <stop
         style="stop-color:#326e9a;stop-opacity:1"
         offset="0"
         id="stop838-5" />
      <stop
         style="stop-color:#339993;stop-opacity:1"
         offset="1"
         id="stop840-6" />
    </linearGradient>
  </defs>
  <sodipodi:namedview
     pagecolor="#ffffff"
     bordercolor="#666666"
     borderopacity="1"
     objecttolerance="10"
     gridtolerance="10"
     guidetolerance="10"
     inkscape:pageopacity="0"
     inkscape:pageshadow="2"
     inkscape:window-width="1920"
     inkscape:window-height="1006"
     id="namedview21"
     showgrid="true"
     inkscape:zoom="9.8125"
     inkscape:cx="5.8089172"
     inkscape:cy="32.815287"
     inkscape:window-x="0"
     inkscape:window-y="0"
     inkscape:window-maximized="1"
     inkscape:current-layer="svg19"
     inkscape:document-rotation="0"
     inkscape:pagecheckerboard="0">
    <inkscape:grid
       type="xygrid"
       id="grid879" />
  </sodipodi:namedview>
  <linearGradient
     id="a"
     gradientUnits="userSpaceOnUse"
     x1="3"
     x2="3"
     y1="58"
     y2="16">
    <stop
       offset="0"
       stop-color="#3daee9"
       id="stop2" />
    <stop
       offset="1"
       stop-color="#6cc1ef"
       id="stop4" />
  </linearGradient>
  <path
     style="fill:url(#linearGradient862);fill-opacity:1;stroke-width:0.179138"
     d="m 32.00316,13.159657 c -0.88032,0 -1.92237,-0.51649 -2.31692,-1.14784 l -1.7701,-2.8371898 c -0.39274,-0.63133 -1.43479,-1.14667 -2.3148,-1.14782 l -20.40112,-0.0268 c -1.946,-0.003 -2.7662,0.93496 -2.79385,3.0041498 l -0.0117,0.87228 v 2.56642 36.57158 c 0,0.70576 2.32071,2.56642 3.20071,2.56642 h 52.81515 c 0.88002,0 3.20071,-1.86066 3.20071,-2.56642 v -35.28836 c 0,-1.92482 -0.80004,-2.56643 -3.20071,-2.56643 z"
     id="path4-3-2"
     sodipodi:nodetypes="sccsssccsssssss" />
  <path
     style="fill:#f2f2f2;fill-opacity:1;stroke-width:0.176565"
     d="m 57.77807,26.859477 c 0,1.32548 -0.79577,2.40995 -2.61715,2.40995 H 8.96534 c -1.82139,0 -2.51852,-1.08447 -2.51852,-2.40995 v -7.22985 c 0,-1.32548 0.69713,-2.40996 2.51852,-2.40996 h 46.09645 c 1.82137,0 2.71628,1.08448 2.71628,2.40996 z"
     id="path8-6-9"
     sodipodi:nodetypes="sssssssss" />
  <path
     style="fill:url(#linearGradient844-5);fill-opacity:1;stroke-width:0.19334"
     d="M 58.7566,21.331497 H 5.2434 C 3.62158,21.331497 2,22.806757 2,24.282017 v 28.76748 c 0,1.95107 1.25422,2.95051 3.2434,2.95051 h 53.5132 c 1.9955,0 3.2434,-0.99944 3.2434,-2.95051 v -28.76748 c 0,-1.47526 -1.62159,-2.95052 -3.2434,-2.95052 z"
     id="path10-1"
     sodipodi:nodetypes="sssssssss" />
  <path
     fill-rule="evenodd"
     clip-rule="evenodd"
     d="M 56.429215,53 H 46.785714 C 46.431178,53 46.1435,52.711518 46.1435,52.357143 c 0,-0.35534 0.287678,-0.643179 0.642214,-0.643179 h 9.643501 c 0.710035,0 1.285713,-0.575679 1.285713,-1.285714 V 37.571108 c 0,-0.710036 -0.575678,-1.285393 -1.285713,-1.285393 H 43.57175 c -0.709875,0 -1.285875,0.575357 -1.285875,1.285393 v 12.214285 c 0,0.355339 -0.287518,0.642857 -0.642857,0.642857 C 41.288322,50.42825 41,50.140732 41,49.785393 V 37.571108 C 41,36.151036 42.15184,35 43.57175,35 H 56.429215 C 57.848965,35 59,36.151036 59,37.571108 V 50.42825 C 59,51.848322 57.848965,53 56.429215,53 Z M 44.214768,51.713964 c 0.354535,0 0.642857,0.287839 0.642857,0.643179 0,0.354375 -0.288322,0.642857 -0.642857,0.642857 -0.35534,0 -0.643018,-0.288482 -0.643018,-0.642857 0,-0.35534 0.287678,-0.643179 0.643018,-0.643179 z"
     id="path2"
     style="fill:#f2f2f2;fill-opacity:1;stroke-width:0.0401785" />
  <g
     id="g14"
     transform="matrix(0.02624104,0,0,0.02624104,43.4393,37.650899)"
     style="fill:#f2f2f2;fill-opacity:1">
    <g
       id="g12"
       style="fill:#f2f2f2;fill-opacity:1">
      <g
         id="g10"
         style="fill:#f2f2f2;fill-opacity:1">
        <path
           d="M 467.206,106.862 H 189.511 c -14.808,0 -28.019,9.4 -32.873,23.391 L 98.972,296.466 59.398,256.892 c -13.566,-13.564 -35.64,-13.564 -49.207,0 C 3.62,263.465 0,272.202 0,281.496 c 0,9.295 3.62,18.033 10.191,24.604 l 78.846,78.846 c 6.574,6.572 15.312,10.192 24.604,10.192 2.609,0 5.227,-0.297 7.788,-0.885 11.754,-2.7 21.132,-11.114 25.084,-22.508 L 214.268,176.45 h 252.938 c 19.185,0 34.794,-15.608 34.794,-34.794 0,-19.186 -15.608,-34.794 -34.794,-34.794 z m 0,49.589 H 207.153 c -4.26,0 -8.052,2.699 -9.448,6.723 l -70.088,202.018 c -1.681,4.844 -5.668,8.422 -10.662,9.569 -1.092,0.25 -2.208,0.377 -3.315,0.377 -3.95,0 -7.666,-1.54 -10.461,-4.335 L 24.333,291.957 C 21.539,289.163 20,285.448 20,281.496 c 0,-3.952 1.539,-7.667 4.333,-10.461 2.885,-2.884 6.673,-4.326 10.462,-4.326 3.788,0 7.577,1.443 10.461,4.326 l 50.861,50.861 c 2.436,2.436 5.953,3.448 9.31,2.675 3.356,-0.771 6.08,-3.215 7.209,-6.469 l 62.897,-181.294 c 2.065,-5.949 7.682,-9.946 13.978,-9.946 h 277.695 c 8.157,0 14.794,6.637 14.794,14.795 0,8.157 -6.636,14.794 -14.794,14.794 z"
           id="path2-3-3"
           style="fill:#f2f2f2;fill-opacity:1" />
        <path
           d="m 442.99,229.926 c 0,-9.294 -3.619,-18.033 -10.191,-24.604 -6.572,-6.572 -15.31,-10.191 -24.604,-10.191 -9.293,0 -18.031,3.619 -24.603,10.191 l -40.605,40.605 -40.605,-40.605 c -6.572,-6.572 -15.31,-10.191 -24.604,-10.191 -9.294,0 -18.032,3.619 -24.603,10.191 -6.572,6.572 -10.191,15.31 -10.191,24.604 0,9.293 3.619,18.032 10.191,24.604 l 40.605,40.604 -40.606,40.605 c -6.572,6.573 -10.191,15.311 -10.191,24.604 0,9.294 3.619,18.033 10.191,24.604 6.573,6.572 15.31,10.191 24.604,10.191 9.294,0 18.032,-3.619 24.604,-10.191 l 40.605,-40.605 40.605,40.605 c 6.573,6.572 15.311,10.191 24.604,10.191 9.294,0 18.032,-3.619 24.603,-10.191 6.572,-6.572 10.191,-15.31 10.191,-24.604 0,-9.293 -3.619,-18.032 -10.191,-24.604 l -40.605,-40.605 40.605,-40.604 c 6.572,-6.573 10.191,-15.311 10.191,-24.604 z m -24.333,10.461 -47.677,47.676 c -1.875,1.876 -2.929,4.419 -2.929,7.071 0,2.652 1.054,5.195 2.929,7.071 l 47.676,47.677 c 2.794,2.794 4.333,6.51 4.333,10.461 0,3.952 -1.538,7.667 -4.333,10.462 -2.794,2.794 -6.509,4.333 -10.461,4.333 -3.951,0 -7.667,-1.539 -10.461,-4.334 l -47.676,-47.677 c -1.875,-1.875 -4.419,-2.929 -7.071,-2.929 -2.652,0 -5.195,1.054 -7.071,2.929 l -47.677,47.677 c -2.794,2.795 -6.51,4.334 -10.461,4.334 -3.951,0 -7.666,-1.539 -10.461,-4.334 -2.794,-2.794 -4.333,-6.509 -4.333,-10.461 0,-3.951 1.539,-7.667 4.333,-10.461 l 47.677,-47.677 c 1.875,-1.876 2.929,-4.419 2.929,-7.071 0,-2.652 -1.054,-5.195 -2.929,-7.071 l -47.676,-47.676 c -2.794,-2.794 -4.333,-6.51 -4.333,-10.461 0,-3.952 1.538,-7.667 4.333,-10.461 2.794,-2.795 6.51,-4.334 10.461,-4.334 3.951,0 7.666,1.539 10.461,4.334 l 47.677,47.676 c 3.905,3.904 10.237,3.904 14.142,0 l 47.676,-47.676 c 2.794,-2.795 6.51,-4.334 10.461,-4.334 3.951,0 7.666,1.539 10.461,4.334 2.794,2.794 4.333,6.509 4.333,10.461 0,3.951 -1.539,7.667 -4.333,10.461 z"
           id="path4"
           style="fill:#f2f2f2;fill-opacity:1" />
        <path
           d="m 465.223,131.657 h -60.498 c -5.523,0 -10,4.478 -10,10 0,5.522 4.477,10 10,10 h 60.498 c 5.523,0 10,-4.478 10,-10 0,-5.521 -4.477,-10 -10,-10 z"
           id="path6-6"
           style="fill:#f2f2f2;fill-opacity:1" />
        <path
           d="m 372.988,131.657 h -18.843 c -5.523,0 -10,4.478 -10,10 0,5.522 4.477,10 10,10 h 18.843 c 5.523,0 10,-4.478 10,-10 0,-5.521 -4.477,-10 -10,-10 z"
           id="path8"
           style="fill:#f2f2f2;fill-opacity:1" />
      </g>
    </g>
  </g>
</svg>
