<?xml version="1.0" encoding="UTF-8" standalone="no"?>
<svg
   width="64"
   version="1.1"
   height="64"
   id="svg17"
   sodipodi:docname="folder-windows.svg"
   inkscape:version="1.1.1 (3bf5ae0d25, 2021-09-20)"
   xmlns:inkscape="http://www.inkscape.org/namespaces/inkscape"
   xmlns:sodipodi="http://sodipodi.sourceforge.net/DTD/sodipodi-0.dtd"
   xmlns:xlink="http://www.w3.org/1999/xlink"
   xmlns="http://www.w3.org/2000/svg"
   xmlns:svg="http://www.w3.org/2000/svg"
   xmlns:rdf="http://www.w3.org/1999/02/22-rdf-syntax-ns#"
   xmlns:cc="http://creativecommons.org/ns#"
   xmlns:dc="http://purl.org/dc/elements/1.1/">
  <sodipodi:namedview
     pagecolor="#ffffff"
     bordercolor="#666666"
     borderopacity="1"
     objecttolerance="10"
     gridtolerance="10"
     guidetolerance="10"
     inkscape:pageopacity="0"
     inkscape:pageshadow="2"
     inkscape:window-width="1920"
     inkscape:window-height="1006"
     id="namedview19"
     showgrid="true"
     inkscape:zoom="9.8125004"
     inkscape:cx="35.87261"
     inkscape:cy="27.414012"
     inkscape:window-x="0"
     inkscape:window-y="0"
     inkscape:window-maximized="1"
     inkscape:current-layer="layer1"
     inkscape:document-rotation="0"
     inkscape:pagecheckerboard="0">
    <inkscape:grid
       type="xygrid"
       id="grid908" />
  </sodipodi:namedview>
  <defs
     id="defs5455">
    <linearGradient
       inkscape:collect="always"
       id="linearGradient842">
      <stop
         style="stop-color:#326e9a;stop-opacity:1"
         offset="0"
         id="stop838" />
      <stop
         style="stop-color:#339993;stop-opacity:1"
         offset="1"
         id="stop840" />
    </linearGradient>
    <linearGradient
       inkscape:collect="always"
       xlink:href="#linearGradient860"
       id="linearGradient862"
       x1="113.94677"
       y1="255.36646"
       x2="406.08289"
       y2="255.36646"
       gradientUnits="userSpaceOnUse"
       gradientTransform="matrix(0.2044729,0,0,0.18450994,363.40543,467.49691)" />
    <linearGradient
       inkscape:collect="always"
       id="linearGradient860">
      <stop
         style="stop-color:#78acd3;stop-opacity:1"
         offset="0"
         id="stop856" />
      <stop
         style="stop-color:#d98cbb;stop-opacity:1"
         offset="1"
         id="stop858" />
    </linearGradient>
    <linearGradient
       inkscape:collect="always"
       xlink:href="#linearGradient842"
       id="linearGradient844"
       x1="386.30626"
       y1="522.45407"
       x2="446.83023"
       y2="522.45407"
       gradientUnits="userSpaceOnUse"
       gradientTransform="translate(0,0.02680434)" />
  </defs>
  <metadata
     id="metadata5458">
    <rdf:RDF>
      <cc:Work
         rdf:about="">
        <dc:format>image/svg+xml</dc:format>
        <dc:type
           rdf:resource="http://purl.org/dc/dcmitype/StillImage" />
      </cc:Work>
    </rdf:RDF>
  </metadata>
  <g
     inkscape:label="Capa 1"
     inkscape:groupmode="layer"
     id="layer1"
     transform="translate(-384.57143,-483.798)">
    <path
       style="fill:url(#linearGradient862);fill-opacity:1;stroke-width:0.179968"
       d="m 416.57143,496.96053 c -0.88801,0 -1.93916,-0.51678 -2.33715,-1.14848 l -1.78556,-2.83877 c -0.39617,-0.63169 -1.44732,-1.14731 -2.33501,-1.14847 l -20.57928,-0.0268 c -1.963,-0.003 -2.79036,0.93548 -2.81825,3.00583 l -0.0118,0.87276 v 2.56786 36.592 c 0,0.70616 2.34097,2.56786 3.22866,2.56786 h 53.27637 c 0.88771,0 3.22867,-1.8617 3.22867,-2.56786 v -35.30807 c 0,-1.92589 -0.80703,-2.56786 -3.22867,-2.56786 z"
       id="path4-3"
       sodipodi:nodetypes="sccsssccsssssss" />
    <path
       style="fill:#f2f2f2;fill-opacity:1;stroke-width:0.177384"
       d="m 442.57143,510.668 c 0,1.32622 -0.80272,2.4113 -2.64,2.4113 h -46.599 c -1.8373,0 -2.54052,-1.08508 -2.54052,-2.4113 v -7.23389 c 0,-1.32622 0.70322,-2.4113 2.54052,-2.4113 h 46.499 c 1.83728,0 2.74,1.08508 2.74,2.4113 z"
       id="path8-6"
       sodipodi:nodetypes="sssssssss" />
    <path
       style="fill:url(#linearGradient844);fill-opacity:1;stroke-width:0.194236"
       d="m 443.55851,505.13694 h -53.98053 c -1.63598,0 -3.27172,1.47608 -3.27172,2.95216 v 28.78355 c 0,1.95216 1.26517,2.95216 3.27172,2.95216 h 53.98053 c 2.01292,0 3.27172,-1 3.27172,-2.95216 V 508.0891 c 0,-1.47608 -1.63575,-2.95216 -3.27172,-2.95216 z"
       id="path10"
       sodipodi:nodetypes="sssssssss" />
    <path
       fill-rule="evenodd"
       clip-rule="evenodd"
       d="m 441.32197,536.79702 h -3.93743 c -0.31034,0 -0.56277,-0.25214 -0.56277,-0.5625 0,-0.3109 0.25243,-0.56249 0.56277,-0.56249 h 3.65618 c 0.77673,0 1.40624,-0.6295 1.40624,-1.40623 v -3.65619 c 0,-0.31092 0.25158,-0.56305 0.56249,-0.56305 0.31092,0 0.5625,0.25213 0.5625,0.56305 v 3.93743 c 0,1.24255 -1.00743,2.24998 -2.24998,2.24998 z m -15.18736,-12.37465 c 0.3109,0 0.56262,0.2516 0.56262,0.56247 0,0.31007 -0.25172,0.56193 -0.56262,0.56193 -0.31078,0 -0.5625,-0.25186 -0.5625,-0.56193 0,-0.31087 0.25172,-0.56247 0.5625,-0.56247 z m 17.41645,2.54302 c -0.007,0.0605 -0.0169,0.12059 -0.0297,0.17907 -0.006,0.0286 -0.0144,0.0555 -0.0215,0.0834 -0.0127,0.0488 -0.0253,0.0983 -0.0413,0.1461 -0.007,0.0209 -0.0148,0.0417 -0.0226,0.0627 -0.0204,0.0549 -0.0407,0.10934 -0.0653,0.1618 -0.006,0.0141 -0.0132,0.0269 -0.0196,0.0407 -0.0273,0.0571 -0.0569,0.11393 -0.0887,0.16807 -0.007,0.0116 -0.0136,0.0223 -0.0203,0.0335 -0.0345,0.056 -0.0711,0.11091 -0.11035,0.16412 -0.006,0.007 -0.0118,0.0154 -0.0168,0.0226 -0.0426,0.0556 -0.0871,0.1099 -0.13435,0.16093 -0.003,0.004 -0.008,0.01 -0.0124,0.0136 -0.0511,0.0555 -0.10554,0.10811 -0.16203,0.15821 -0.39661,0.34882 -0.91514,0.56249 -1.48479,0.56249 v 0.0286 c -0.0909,-0.0181 -0.18513,-0.0286 -0.28125,-0.0286 h -3.93736 c -0.77671,0 -1.40621,0.62949 -1.40621,1.40619 v 3.93744 c 0,0.0961 0.0111,0.19062 0.0288,0.28124 h -0.0288 c 0,0.56964 -0.2134,1.08819 -0.5625,1.48477 -0.0501,0.0566 -0.10275,0.11103 -0.1582,0.16204 -0.003,0.003 -0.008,0.007 -0.0132,0.0123 -0.0514,0.0471 -0.10577,0.0918 -0.16124,0.13399 -0.007,0.006 -0.0154,0.0118 -0.0225,0.0169 -0.0533,0.039 -0.10789,0.0758 -0.16412,0.11045 -0.0116,0.007 -0.0222,0.0141 -0.0334,0.0204 -0.0542,0.0318 -0.11102,0.0611 -0.16822,0.0884 -0.0141,0.007 -0.0269,0.0141 -0.0407,0.0198 -0.0524,0.0248 -0.10665,0.0451 -0.16164,0.0653 -0.0209,0.007 -0.0417,0.016 -0.0626,0.0226 -0.0478,0.016 -0.0973,0.0286 -0.14612,0.0413 -0.0281,0.007 -0.0549,0.0154 -0.0835,0.0215 -0.0583,0.0127 -0.11867,0.0219 -0.17894,0.0296 -0.0168,0.002 -0.0322,0.006 -0.0494,0.007 -0.0801,0.01 -0.16176,0.0141 -0.24402,0.0141 h -5.62457 c -1.24265,-1.2e-4 -2.25022,-1.00755 -2.25022,-2.2501 v -5.62489 c 0,-1.2427 1.00757,-2.25012 2.25022,-2.25012 h 0.56264 3.65576 c 0.77689,0 1.40625,-0.62951 1.40625,-1.40624 v -3.93743 c 0,-0.77669 -0.62936,-1.4062 -1.40625,-1.4062 h -3.93728 c -0.7767,0 -1.40609,0.62951 -1.40609,1.4062 v 1.40625 c 0,0.31064 -0.25172,0.56249 -0.56265,0.56249 -0.31078,0 -0.56249,-0.25185 -0.56249,-0.56249 v -1.68725 c 4e-5,-1.24278 1.00761,-2.25022 2.25026,-2.25022 h 4.50007 c 0.0822,0 0.16288,0.003 0.24279,0.0132 0.0186,9.9e-4 0.0363,0.007 0.0549,0.01 0.0592,0.007 0.11755,0.0168 0.17535,0.029 0.0269,0.006 0.052,0.0141 0.0787,0.0204 0.0507,0.0127 0.10085,0.0253 0.14984,0.0417 0.0201,0.007 0.0405,0.0151 0.061,0.0223 0.0548,0.0204 0.11035,0.0413 0.1634,0.0656 0.0144,0.007 0.0287,0.0132 0.0431,0.0203 0.056,0.0267 0.11158,0.056 0.16521,0.0876 0.0117,0.007 0.0227,0.0141 0.0341,0.0209 0.056,0.0345 0.11102,0.0709 0.16409,0.11035 0.007,0.006 0.0155,0.0116 0.0227,0.0168 0.0556,0.0423 0.10979,0.0871 0.16108,0.13397 0.003,0.003 0.008,0.008 0.0134,0.0123 0.0556,0.0514 0.10788,0.10554 0.15805,0.16231 0.3491,0.3966 0.56264,0.91515 0.56264,1.48474 h 0.0287 c -0.0186,0.0906 -0.0287,0.18485 -0.0287,0.28097 v 4.2184 c 0,1.24283 -1.00758,2.25025 -2.2497,2.25025 h -4.21901 c -0.77669,0 -1.40609,0.62965 -1.40609,1.40639 v 5.06239 c 0,0.77672 0.62936,1.40622 1.40609,1.40622 h 5.06271 c 0.77669,0 1.4061,-0.6295 1.4061,-1.40622 v -4.21962 c 0,-1.24252 1.00746,-2.24952 2.2497,-2.24952 h 4.21891 c 0.77675,0 1.40625,-0.62923 1.40625,-1.40595 v -5.06276 c 0,-0.77669 -0.6295,-1.4062 -1.40625,-1.4062 h -4.78089 c -0.31064,0 -0.56277,-0.25157 -0.56277,-0.56249 0,-0.31091 0.25213,-0.5625 0.56277,-0.5625 h 5.06209 c 1.24256,0 2.24999,1.00744 2.24999,2.25023 v 5.62464 c 0,0.0821 -0.005,0.16396 -0.0141,0.24391 -10e-4,0.0173 -0.005,0.0329 -0.007,0.0494 z"
       id="path2-3-3"
       style="fill:#f2f2f2;fill-opacity:1;stroke-width:0.0351554" />
  </g>
</svg>
