<?xml version="1.0" encoding="UTF-8" standalone="no"?>
<svg
   width="64"
   version="1.1"
   height="64"
   id="svg17"
   sodipodi:docname="folder-rpm.svg"
   inkscape:version="1.2 (dc2aedaf03, 2022-05-15)"
   xmlns:inkscape="http://www.inkscape.org/namespaces/inkscape"
   xmlns:sodipodi="http://sodipodi.sourceforge.net/DTD/sodipodi-0.dtd"
   xmlns:xlink="http://www.w3.org/1999/xlink"
   xmlns="http://www.w3.org/2000/svg"
   xmlns:svg="http://www.w3.org/2000/svg"
   xmlns:rdf="http://www.w3.org/1999/02/22-rdf-syntax-ns#"
   xmlns:cc="http://creativecommons.org/ns#"
   xmlns:dc="http://purl.org/dc/elements/1.1/">
  <sodipodi:namedview
     pagecolor="#ffffff"
     bordercolor="#666666"
     borderopacity="1"
     objecttolerance="10"
     gridtolerance="10"
     guidetolerance="10"
     inkscape:pageopacity="0"
     inkscape:pageshadow="2"
     inkscape:window-width="1920"
     inkscape:window-height="1002"
     id="namedview19"
     showgrid="true"
     inkscape:zoom="9.8125004"
     inkscape:cx="30.012738"
     inkscape:cy="32.254776"
     inkscape:window-x="0"
     inkscape:window-y="0"
     inkscape:window-maximized="1"
     inkscape:current-layer="layer1"
     inkscape:document-rotation="0"
     inkscape:pagecheckerboard="0"
     inkscape:showpageshadow="2"
     inkscape:deskcolor="#d1d1d1">
    <inkscape:grid
       type="xygrid"
       id="grid908" />
  </sodipodi:namedview>
  <defs
     id="defs5455">
    <linearGradient
       inkscape:collect="always"
       id="linearGradient842">
      <stop
         style="stop-color:#326e9a;stop-opacity:1"
         offset="0"
         id="stop838" />
      <stop
         style="stop-color:#339993;stop-opacity:1"
         offset="1"
         id="stop840" />
    </linearGradient>
    <linearGradient
       inkscape:collect="always"
       xlink:href="#linearGradient860"
       id="linearGradient862"
       x1="113.94677"
       y1="255.36646"
       x2="406.08289"
       y2="255.36646"
       gradientUnits="userSpaceOnUse"
       gradientTransform="matrix(0.20270273,0,0,0.18440695,363.86886,467.51047)" />
    <linearGradient
       inkscape:collect="always"
       id="linearGradient860">
      <stop
         style="stop-color:#78acd3;stop-opacity:1"
         offset="0"
         id="stop856" />
      <stop
         style="stop-color:#d98cbb;stop-opacity:1"
         offset="1"
         id="stop858" />
    </linearGradient>
    <linearGradient
       inkscape:collect="always"
       xlink:href="#linearGradient842"
       id="linearGradient844"
       x1="386.30626"
       y1="522.45407"
       x2="446.83023"
       y2="522.45407"
       gradientUnits="userSpaceOnUse"
       gradientTransform="matrix(0.99134277,0,0,0.99944183,3.6095126,0.30129674)" />
    <linearGradient
       inkscape:collect="always"
       id="linearGradient836">
      <stop
         style="stop-color:#ffb380;stop-opacity:1"
         offset="0"
         id="stop832" />
      <stop
         style="stop-color:#20ffff;stop-opacity:1"
         offset="0.48615947"
         id="stop1390" />
      <stop
         style="stop-color:#ffaeff;stop-opacity:1"
         offset="1"
         id="stop834" />
    </linearGradient>
    <linearGradient
       inkscape:collect="always"
       xlink:href="#linearGradient836"
       id="linearGradient900"
       x1="407.18054"
       y1="519.77393"
       x2="416.80774"
       y2="519.77393"
       gradientUnits="userSpaceOnUse" />
  </defs>
  <metadata
     id="metadata5458">
    <rdf:RDF>
      <cc:Work
         rdf:about="">
        <dc:format>image/svg+xml</dc:format>
        <dc:type
           rdf:resource="http://purl.org/dc/dcmitype/StillImage" />
      </cc:Work>
    </rdf:RDF>
  </metadata>
  <g
     inkscape:label="Capa 1"
     inkscape:groupmode="layer"
     id="layer1"
     transform="translate(-384.57143,-483.798)">
    <path
       style="fill:url(#linearGradient862);fill-opacity:1;stroke-width:0.179138"
       d="m 416.57459,496.95765 c -0.88032,0 -1.92237,-0.51649 -2.31692,-1.14784 l -1.7701,-2.83719 c -0.39274,-0.63133 -1.43479,-1.14667 -2.3148,-1.14782 l -20.40112,-0.0268 c -1.946,-0.003 -2.7662,0.93496 -2.79385,3.00415 l -0.0117,0.87228 v 2.56642 36.57158 c 0,0.70576 2.32071,2.56642 3.20071,2.56642 h 52.81515 c 0.88002,0 3.20071,-1.86066 3.20071,-2.56642 v -35.28836 c 0,-1.92482 -0.80004,-2.56643 -3.20071,-2.56643 z"
       id="path4-3"
       sodipodi:nodetypes="sccsssccsssssss" />
    <path
       style="fill:#f2f2f2;fill-opacity:1;stroke-width:0.176565"
       d="m 442.3495,510.65747 c 0,1.32548 -0.79577,2.40995 -2.61715,2.40995 h -46.19558 c -1.82139,0 -2.51852,-1.08447 -2.51852,-2.40995 v -7.22985 c 0,-1.32548 0.69713,-2.40996 2.51852,-2.40996 h 46.09645 c 1.82137,0 2.71628,1.08448 2.71628,2.40996 z"
       id="path8-6"
       sodipodi:nodetypes="sssssssss" />
    <path
       style="fill:url(#linearGradient844);fill-opacity:1;stroke-width:0.19334"
       d="m 443.32803,505.12949 h -53.5132 c -1.62182,0 -3.2434,1.47526 -3.2434,2.95052 v 28.76748 c 0,1.95107 1.25422,2.95051 3.2434,2.95051 h 53.5132 c 1.9955,0 3.2434,-0.99944 3.2434,-2.95051 v -28.76748 c 0,-1.47526 -1.62159,-2.95052 -3.2434,-2.95052 z"
       id="path10"
       sodipodi:nodetypes="sssssssss" />
    <path
       fill-rule="evenodd"
       clip-rule="evenodd"
       d="m 426.82185,527.235 c 0,-0.31064 0.25186,-0.5625 0.5625,-0.5625 0.31064,0 0.5625,0.25186 0.5625,0.5625 0,0.31064 -0.25186,0.5625 -0.5625,0.5625 -0.31064,0 -0.5625,-0.25186 -0.5625,-0.5625 z m 1.96875,-3.9375 c 0,-0.31064 0.25186,-0.5625 0.5625,-0.5625 0.31064,0 0.5625,0.25186 0.5625,0.5625 0,0.31064 -0.25186,0.5625 -0.5625,0.5625 -0.31064,0 -0.5625,-0.25186 -0.5625,-0.5625 z m 4.21875,-1.6875 c 0,-0.31064 0.25186,-0.5625 0.5625,-0.5625 0.31064,0 0.5625,0.25186 0.5625,0.5625 0,0.31064 -0.25186,0.5625 -0.5625,0.5625 -0.31064,0 -0.5625,-0.25186 -0.5625,-0.5625 z m 5.17458,1.84764 c 0.22356,0.22331 0.22356,0.58556 0,0.80887 l -3.6398,3.64004 c -0.22356,0.22332 -0.58556,0.22332 -0.80887,0 -0.22342,-0.22331 -0.22342,-0.58556 0,-0.80887 l 3.63979,-3.64004 c 0.22356,-0.22332 0.58557,-0.22332 0.80888,0 z m 1.57542,3.21486 c 0.31064,0 0.5625,0.25186 0.5625,0.5625 0,0.31064 -0.25186,0.5625 -0.5625,0.5625 -0.31064,0 -0.5625,-0.25186 -0.5625,-0.5625 0,-0.31064 0.25186,-0.5625 0.5625,-0.5625 z m -7.875,5.625 h 3.375 c 0.31064,0 0.5625,0.25186 0.5625,0.5625 0,0.31064 -0.25186,0.5625 -0.5625,0.5625 h -3.375 c -0.31064,0 -0.5625,-0.25186 -0.5625,-0.5625 0,-0.31064 0.25186,-0.5625 0.5625,-0.5625 z m 1.6875,4.5 c -2.48017,0 -4.72591,-1.00361 -6.35379,-2.62628 -0.11303,-0.10301 -0.18527,-0.24992 -0.18527,-0.41474 0,-0.31064 0.25186,-0.5625 0.5625,-0.5625 0.15985,0 0.30336,0.0673 0.40567,0.17441 l 0.002,-0.002 c 1.42509,1.42524 3.39384,2.30661 5.56843,2.30661 4.34922,0 7.875,-3.52578 7.875,-7.875 0,-4.34921 -3.52578,-7.875 -7.875,-7.875 -4.34921,0 -7.875,3.52579 -7.875,7.875 0,0.52049 0.0599,1.02558 0.16,1.51611 0.15915,0.42821 0.56949,0.73389 1.05289,0.73389 h 4.48242 c 0.14119,0 0.26614,-0.0692 0.34278,-0.17578 0.003,-0.004 0.008,-0.007 0.0132,-0.008 0.40813,-0.56825 1.07061,-0.94122 1.82373,-0.94122 0.75312,0 1.4156,0.37297 1.82373,0.94124 0.006,10e-4 0.0104,0.004 0.0132,0.008 0.0766,0.10654 0.20159,0.17576 0.34278,0.17576 h 2.88281 c 0.31064,0 0.5625,0.25186 0.5625,0.5625 0,0.31064 -0.25186,0.5625 -0.5625,0.5625 h -2.96191 c -0.47957,0 -0.90225,-0.24089 -1.15605,-0.60753 -0.20021,-0.31065 -0.54738,-0.51747 -0.94454,-0.51747 -0.39716,0 -0.74433,0.20682 -0.94454,0.51747 -0.2538,0.36664 -0.67634,0.60753 -1.15605,0.60753 h -4.56152 c -1.0536,0 -1.93152,-0.72703 -2.17624,-1.7048 -0.10245,-0.54161 -0.16165,-1.09863 -0.16165,-1.6702 0,-4.97078 4.02936,-9 9,-9 4.9705,0 9,4.02922 9,9 0,4.9705 -4.0295,9 -9,9 z"
       id="path5690"
       style="stroke-width:0.0351562;fill:#f2f2f2;fill-opacity:1" />
  </g>
</svg>
