<?xml version="1.0" encoding="UTF-8" standalone="no"?>
<svg
   width="64"
   version="1.1"
   height="64"
   id="svg17"
   sodipodi:docname="folder-recent.svg"
   inkscape:version="1.1.1 (3bf5ae0d25, 2021-09-20)"
   xmlns:inkscape="http://www.inkscape.org/namespaces/inkscape"
   xmlns:sodipodi="http://sodipodi.sourceforge.net/DTD/sodipodi-0.dtd"
   xmlns:xlink="http://www.w3.org/1999/xlink"
   xmlns="http://www.w3.org/2000/svg"
   xmlns:svg="http://www.w3.org/2000/svg"
   xmlns:rdf="http://www.w3.org/1999/02/22-rdf-syntax-ns#"
   xmlns:cc="http://creativecommons.org/ns#"
   xmlns:dc="http://purl.org/dc/elements/1.1/">
  <sodipodi:namedview
     pagecolor="#ffffff"
     bordercolor="#666666"
     borderopacity="1"
     objecttolerance="10"
     gridtolerance="10"
     guidetolerance="10"
     inkscape:pageopacity="0"
     inkscape:pageshadow="2"
     inkscape:window-width="1920"
     inkscape:window-height="1006"
     id="namedview19"
     showgrid="true"
     inkscape:zoom="8"
     inkscape:cx="20.25"
     inkscape:cy="25.875"
     inkscape:window-x="0"
     inkscape:window-y="0"
     inkscape:window-maximized="1"
     inkscape:current-layer="layer1"
     inkscape:document-rotation="0"
     inkscape:pagecheckerboard="0">
    <inkscape:grid
       type="xygrid"
       id="grid931" />
  </sodipodi:namedview>
  <defs
     id="defs5455">
    <linearGradient
       inkscape:collect="always"
       xlink:href="#linearGradient860-3"
       id="linearGradient862"
       x1="113.94677"
       y1="255.36646"
       x2="406.08289"
       y2="255.36646"
       gradientUnits="userSpaceOnUse"
       gradientTransform="matrix(0.20270273,0,0,0.18440695,363.86886,467.51048)" />
    <linearGradient
       inkscape:collect="always"
       id="linearGradient860-3">
      <stop
         style="stop-color:#78acd3;stop-opacity:1"
         offset="0"
         id="stop856-6" />
      <stop
         style="stop-color:#d98cbb;stop-opacity:1"
         offset="1"
         id="stop858-7" />
    </linearGradient>
    <linearGradient
       inkscape:collect="always"
       xlink:href="#linearGradient842-3"
       id="linearGradient844-5"
       x1="386.30627"
       y1="522.45404"
       x2="446.83023"
       y2="522.45404"
       gradientUnits="userSpaceOnUse"
       gradientTransform="matrix(0.99134277,0,0,0.99944183,3.60951,0.30130417)" />
    <linearGradient
       inkscape:collect="always"
       id="linearGradient842-3">
      <stop
         style="stop-color:#326e9a;stop-opacity:1"
         offset="0"
         id="stop838-5" />
      <stop
         style="stop-color:#339993;stop-opacity:1"
         offset="1"
         id="stop840-6" />
    </linearGradient>
  </defs>
  <metadata
     id="metadata5458">
    <rdf:RDF>
      <cc:Work
         rdf:about="">
        <dc:format>image/svg+xml</dc:format>
        <dc:type
           rdf:resource="http://purl.org/dc/dcmitype/StillImage" />
      </cc:Work>
    </rdf:RDF>
  </metadata>
  <g
     inkscape:label="Capa 1"
     inkscape:groupmode="layer"
     id="layer1"
     transform="translate(-384.57143,-483.798)">
    <path
       style="fill:url(#linearGradient862);fill-opacity:1;stroke-width:0.179138"
       d="m 416.57459,496.95766 c -0.88032,0 -1.92237,-0.51649 -2.31692,-1.14784 l -1.7701,-2.83719 c -0.39274,-0.63133 -1.43479,-1.14667 -2.3148,-1.14782 l -20.40112,-0.0268 c -1.946,-0.003 -2.7662,0.93496 -2.79385,3.00415 l -0.0117,0.87228 v 2.56642 36.57158 c 0,0.70576 2.32071,2.56642 3.20071,2.56642 h 52.81515 c 0.88002,0 3.20071,-1.86066 3.20071,-2.56642 v -35.28836 c 0,-1.92482 -0.80004,-2.56643 -3.20071,-2.56643 z"
       id="path4-3-2"
       sodipodi:nodetypes="sccsssccsssssss" />
    <path
       style="fill:#f2f2f2;fill-opacity:1;stroke-width:0.176565"
       d="m 442.3495,510.65748 c 0,1.32548 -0.79577,2.40995 -2.61715,2.40995 h -46.19558 c -1.82139,0 -2.51852,-1.08447 -2.51852,-2.40995 v -7.22985 c 0,-1.32548 0.69713,-2.40996 2.51852,-2.40996 h 46.09645 c 1.82137,0 2.71628,1.08448 2.71628,2.40996 z"
       id="path8-6-9"
       sodipodi:nodetypes="sssssssss" />
    <path
       style="fill:url(#linearGradient844-5);fill-opacity:1;stroke-width:0.19334"
       d="m 443.32803,505.1295 h -53.5132 c -1.62182,0 -3.2434,1.47526 -3.2434,2.95052 v 28.76748 c 0,1.95107 1.25422,2.95051 3.2434,2.95051 h 53.5132 c 1.9955,0 3.2434,-0.99944 3.2434,-2.95051 v -28.76748 c 0,-1.47526 -1.62159,-2.95052 -3.2434,-2.95052 z"
       id="path10-1"
       sodipodi:nodetypes="sssssssss" />
    <path
       d="m 434.57215,536.79841 h -0.5625 c -0.31092,0 -0.56247,-0.25214 -0.56247,-0.5625 0,-0.31092 0.25155,-0.5625 0.56247,-0.5625 h 0.5625 c 4.34914,0 7.87486,-3.52603 7.87486,-7.87507 0,-4.3489 -3.52572,-7.87493 -7.87486,-7.87493 -4.34886,0 -7.8749,3.52603 -7.8749,7.87493 0,2.57636 1.24285,4.85715 3.15525,6.2936 l -0.006,0.008 c 0.13595,0.10275 0.22549,0.26423 0.22549,0.44824 0,0.31032 -0.25158,0.5625 -0.5625,0.5625 -0.12664,0 -0.2417,-0.0439 -0.33592,-0.11426 l -0.002,0.002 c -2.1857,-1.64186 -3.60014,-4.25605 -3.60014,-7.20049 0,-4.97074 4.02915,-8.99993 8.99986,-8.99993 4.97014,0 9.00014,4.02919 9.00014,8.99993 0,4.97036 -4.03,9.00007 -9.00014,9.00007 z m -2.81219,-1.125 c 0.31008,0 0.56194,0.25158 0.56194,0.5625 0,0.31036 -0.25186,0.5625 -0.56194,0.5625 -0.31092,0 -0.5625,-0.25214 -0.5625,-0.5625 0,-0.31092 0.25158,-0.5625 0.5625,-0.5625 z m 2.24969,-13.50029 c 0.31092,0 0.5625,0.25187 0.5625,0.56279 v 5.29988 l 3.12855,1.80674 c 0.26916,0.1554 0.36144,0.49922 0.20574,0.76842 -0.1549,0.26862 -0.49932,0.36144 -0.76824,0.20541 l -3.40952,-1.96868 c -0.004,-0.002 -0.008,-0.006 -0.0126,-0.009 -0.0195,-0.0121 -0.0377,-0.0258 -0.0555,-0.0401 -0.0118,-0.009 -0.023,-0.0175 -0.0341,-0.028 -0.0159,-0.0148 -0.0308,-0.0319 -0.0453,-0.0489 -0.009,-0.0115 -0.0184,-0.0208 -0.0266,-0.033 -0.0126,-0.0175 -0.0233,-0.0362 -0.0341,-0.0555 -0.007,-0.0121 -0.0142,-0.0236 -0.0203,-0.0368 -0.008,-0.0187 -0.0148,-0.0373 -0.0214,-0.0565 -0.005,-0.0159 -0.0107,-0.0324 -0.0148,-0.0489 -0.005,-0.017 -0.007,-0.0341 -0.009,-0.0517 -0.003,-0.0203 -0.005,-0.0401 -0.006,-0.0605 0,-0.006 -0.002,-0.0121 -0.002,-0.0181 v -5.625 c 0,-0.31096 0.25155,-0.56278 0.56247,-0.56278 z"
       id="path2"
       style="fill:#f2f2f2;fill-opacity:1;stroke-width:0.0351562" />
  </g>
</svg>
