<?xml version="1.0" encoding="UTF-8" standalone="no"?>
<svg
   width="64"
   version="1.1"
   height="64"
   id="svg17"
   sodipodi:docname="folder-sign.svg"
   inkscape:version="1.1.1 (3bf5ae0d25, 2021-09-20)"
   xmlns:inkscape="http://www.inkscape.org/namespaces/inkscape"
   xmlns:sodipodi="http://sodipodi.sourceforge.net/DTD/sodipodi-0.dtd"
   xmlns:xlink="http://www.w3.org/1999/xlink"
   xmlns="http://www.w3.org/2000/svg"
   xmlns:svg="http://www.w3.org/2000/svg"
   xmlns:rdf="http://www.w3.org/1999/02/22-rdf-syntax-ns#"
   xmlns:cc="http://creativecommons.org/ns#"
   xmlns:dc="http://purl.org/dc/elements/1.1/">
  <sodipodi:namedview
     pagecolor="#ffffff"
     bordercolor="#666666"
     borderopacity="1"
     objecttolerance="10"
     gridtolerance="10"
     guidetolerance="10"
     inkscape:pageopacity="0"
     inkscape:pageshadow="2"
     inkscape:window-width="1920"
     inkscape:window-height="1011"
     id="namedview19"
     showgrid="true"
     inkscape:zoom="9.8125004"
     inkscape:cx="36.789807"
     inkscape:cy="31.949043"
     inkscape:window-x="0"
     inkscape:window-y="0"
     inkscape:window-maximized="1"
     inkscape:current-layer="layer1"
     inkscape:document-rotation="0"
     inkscape:pagecheckerboard="0">
    <inkscape:grid
       type="xygrid"
       id="grid908" />
  </sodipodi:namedview>
  <defs
     id="defs5455">
    <linearGradient
       inkscape:collect="always"
       id="linearGradient842">
      <stop
         style="stop-color:#326e9a;stop-opacity:1"
         offset="0"
         id="stop838" />
      <stop
         style="stop-color:#339993;stop-opacity:1"
         offset="1"
         id="stop840" />
    </linearGradient>
    <linearGradient
       inkscape:collect="always"
       xlink:href="#linearGradient860"
       id="linearGradient862"
       x1="113.94677"
       y1="255.36646"
       x2="406.08289"
       y2="255.36646"
       gradientUnits="userSpaceOnUse"
       gradientTransform="matrix(0.20270273,0,0,0.18440695,363.86886,467.51047)" />
    <linearGradient
       inkscape:collect="always"
       id="linearGradient860">
      <stop
         style="stop-color:#78acd3;stop-opacity:1"
         offset="0"
         id="stop856" />
      <stop
         style="stop-color:#d98cbb;stop-opacity:1"
         offset="1"
         id="stop858" />
    </linearGradient>
    <linearGradient
       inkscape:collect="always"
       xlink:href="#linearGradient842"
       id="linearGradient844"
       x1="386.30626"
       y1="522.45407"
       x2="446.83023"
       y2="522.45407"
       gradientUnits="userSpaceOnUse"
       gradientTransform="matrix(0.99134277,0,0,0.99944183,3.6095126,0.30129674)" />
  </defs>
  <metadata
     id="metadata5458">
    <rdf:RDF>
      <cc:Work
         rdf:about="">
        <dc:format>image/svg+xml</dc:format>
        <dc:type
           rdf:resource="http://purl.org/dc/dcmitype/StillImage" />
      </cc:Work>
    </rdf:RDF>
  </metadata>
  <g
     inkscape:label="Capa 1"
     inkscape:groupmode="layer"
     id="layer1"
     transform="translate(-384.57143,-483.798)">
    <path
       style="fill:url(#linearGradient862);fill-opacity:1;stroke-width:0.179138"
       d="m 416.57459,496.95765 c -0.88032,0 -1.92237,-0.51649 -2.31692,-1.14784 l -1.7701,-2.83719 c -0.39274,-0.63133 -1.43479,-1.14667 -2.3148,-1.14782 l -20.40112,-0.0268 c -1.946,-0.003 -2.7662,0.93496 -2.79385,3.00415 l -0.0117,0.87228 v 2.56642 36.57158 c 0,0.70576 2.32071,2.56642 3.20071,2.56642 h 52.81515 c 0.88002,0 3.20071,-1.86066 3.20071,-2.56642 v -35.28836 c 0,-1.92482 -0.80004,-2.56643 -3.20071,-2.56643 z"
       id="path4-3"
       sodipodi:nodetypes="sccsssccsssssss" />
    <path
       style="fill:#f2f2f2;fill-opacity:1;stroke-width:0.176565"
       d="m 442.3495,510.65747 c 0,1.32548 -0.79577,2.40995 -2.61715,2.40995 h -46.19558 c -1.82139,0 -2.51852,-1.08447 -2.51852,-2.40995 v -7.22985 c 0,-1.32548 0.69713,-2.40996 2.51852,-2.40996 h 46.09645 c 1.82137,0 2.71628,1.08448 2.71628,2.40996 z"
       id="path8-6"
       sodipodi:nodetypes="sssssssss" />
    <path
       style="fill:url(#linearGradient844);fill-opacity:1;stroke-width:0.19334"
       d="m 443.32803,505.12949 h -53.5132 c -1.62182,0 -3.2434,1.47526 -3.2434,2.95052 v 28.76748 c 0,1.95107 1.25422,2.95051 3.2434,2.95051 h 53.5132 c 1.9955,0 3.2434,-0.99944 3.2434,-2.95051 v -28.76748 c 0,-1.47526 -1.62159,-2.95052 -3.2434,-2.95052 z"
       id="path10"
       sodipodi:nodetypes="sssssssss" />
    <path
       d="m 435.0841,531.30704 c 0.0258,0.13716 0.1215,0.25053 0.25232,0.2989 0.0242,0.009 2.42846,0.8971 3.52853,1.43999 1.22276,0.55817 2.08418,1.19699 2.49804,1.50402 0.0948,0.0704 0.16531,0.12229 0.22438,0.16095 l 1.09848,1.74088 c 0.0757,0.11971 0.20445,0.2592 0.33607,0.2592 0.0722,0 0.33428,0.11973 0.39989,0.0783 0.18513,-0.11675 0.0515,-0.57538 -0.0654,-0.76051 l -1.08322,-1.7165 c 10e-4,-0.009 0.002,-0.0167 0.004,-0.0264 0.0886,-0.56985 0.35816,-2.30399 0.0561,-4.1404 -0.11159,-0.7865 -0.62178,-2.29468 -0.64339,-2.3583 -0.0467,-0.13835 -0.1663,-0.23964 -0.3102,-0.26382 -0.14607,-0.0242 -0.28997,0.0335 -0.37898,0.14905 l -0.11971,0.1554 c 0.0656,-1.49014 -0.0585,-1.67111 -0.11814,-1.75772 -0.63962,-0.93338 -1.44197,-1.73375 -2.38466,-2.37833 -0.36411,-0.24875 -1.07965,-0.68838 -1.11017,-0.70701 -0.10902,-0.0668 -0.2438,-0.0769 -0.36213,-0.0271 -0.11814,0.0502 -0.20455,0.15421 -0.23231,0.27927 l -0.0339,0.15302 c -0.43349,-1.17281 -0.63466,-1.27211 -0.74467,-1.32642 -0.7082,-0.34945 -1.59877,-0.71732 -2.38427,-1.04179 -0.67788,-0.28007 -1.3181,-0.54468 -1.76089,-0.76291 -1.1187,-0.51059 -1.88994,-0.96727 -2.30439,-1.21245 -0.33934,-0.20059 -0.41981,-0.24836 -0.55935,-0.24836 -0.0331,0 -0.0666,0.004 -0.0991,0.0127 -0.064,0.0157 -0.12388,0.047 -0.17304,0.0914 -5.9e-4,4e-4 -10e-4,7.5e-4 -10e-4,10e-4 -0.0882,0.0807 -0.13181,0.19206 -0.12884,0.30287 -0.004,0.0262 -0.01,0.063 -0.017,0.11 -0.0886,0.56985 -0.35856,2.30399 -0.0561,4.1414 0.21961,1.5504 1.02593,4.4508 3.95528,6.45372 0.32606,0.22278 0.67312,0.44478 1.03148,0.66003 0.0769,0.0462 0.24222,0.14549 1.96982,0.22775 l -0.1558,0.13775 c -0.10485,0.0926 -0.15302,0.2331 -0.12725,0.37006 z m -1.30898,-1.43346 c -0.33458,-0.20158 -0.65786,-0.4089 -0.96191,-0.61663 -2.67861,-1.83126 -3.41635,-4.48905 -3.61912,-5.91914 -0.23349,-1.41859 -0.10108,-2.78207 -3.9e-4,-3.51901 0.45172,0.2658 1.19441,0.69036 2.21618,1.15655 0.45549,0.22477 1.1076,0.49433 1.79796,0.77956 0.79225,0.32724 1.61065,0.66539 2.28576,0.99521 0.16689,0.23865 0.56332,1.32781 0.84417,2.24334 0.0529,0.17225 0.21229,0.28423 0.39484,0.27987 0.17978,-0.007 0.3324,-0.13478 0.37125,-0.31039 l 0.22278,-1.00751 c 0.2105,0.13241 0.44578,0.28305 0.60395,0.39107 0.84854,0.58017 1.5724,1.29788 2.15197,2.13393 0.0563,0.28661 0.007,1.54366 -0.0745,2.58605 -0.0135,0.17482 0.0892,0.33794 0.25292,0.40078 0.16391,0.063 0.34924,0.0109 0.45627,-0.12805 l 0.45014,-0.58413 c 0.14885,0.48721 0.32585,1.11415 0.38215,1.51056 0.19008,1.15636 0.13716,2.27486 0.0565,3.04867 l -1.14447,-1.69925 c -1.34089,-2.13512 -3.03538,-3.99572 -5.03691,-5.53006 l -2.08061,-1.59499 c -0.17383,-0.133 -0.42258,-0.1001 -0.55577,0.0735 -0.1334,0.17363 -0.1005,0.42259 0.0734,0.55578 l 2.08061,1.59499 c 1.9264,1.47667 3.55747,3.26749 4.85515,5.33304 l 0.61465,0.91295 c -0.354,-0.20812 -0.75538,-0.42416 -1.2071,-0.6301 -0.78491,-0.3875 -2.17238,-0.92961 -2.97552,-1.23525 l 0.40197,-0.35559 c 0.12149,-0.10763 0.1653,-0.27848 0.1104,-0.4313 -0.0551,-0.15282 -0.19781,-0.25648 -0.35995,-0.26184 -1.07291,-0.0354 -2.35017,-0.1104 -2.60666,-0.17264 z"
       id="path2"
       style="fill:#ececec;fill-opacity:1;stroke-width:0.19821"
       sodipodi:nodetypes="ccccccscccccccscccccccccccscccccccccccccccccccccccccccccccccccccccccccccc" />
  </g>
</svg>
