<?xml version="1.0" encoding="UTF-8" standalone="no"?>
<svg
   width="64"
   version="1.1"
   height="64"
   id="svg17"
   sodipodi:docname="folder-design.svg"
   inkscape:version="1.1.1 (3bf5ae0d25, 2021-09-20)"
   xmlns:inkscape="http://www.inkscape.org/namespaces/inkscape"
   xmlns:sodipodi="http://sodipodi.sourceforge.net/DTD/sodipodi-0.dtd"
   xmlns:xlink="http://www.w3.org/1999/xlink"
   xmlns="http://www.w3.org/2000/svg"
   xmlns:svg="http://www.w3.org/2000/svg"
   xmlns:rdf="http://www.w3.org/1999/02/22-rdf-syntax-ns#"
   xmlns:cc="http://creativecommons.org/ns#"
   xmlns:dc="http://purl.org/dc/elements/1.1/">
  <sodipodi:namedview
     pagecolor="#ffffff"
     bordercolor="#666666"
     borderopacity="1"
     objecttolerance="10"
     gridtolerance="10"
     guidetolerance="10"
     inkscape:pageopacity="0"
     inkscape:pageshadow="2"
     inkscape:window-width="1920"
     inkscape:window-height="1011"
     id="namedview19"
     showgrid="true"
     inkscape:zoom="9.8125004"
     inkscape:cx="34.242037"
     inkscape:cy="32.866241"
     inkscape:window-x="0"
     inkscape:window-y="0"
     inkscape:window-maximized="1"
     inkscape:current-layer="layer1"
     inkscape:document-rotation="0"
     inkscape:pagecheckerboard="0">
    <inkscape:grid
       type="xygrid"
       id="grid908" />
  </sodipodi:namedview>
  <defs
     id="defs5455">
    <linearGradient
       inkscape:collect="always"
       id="linearGradient842">
      <stop
         style="stop-color:#326e9a;stop-opacity:1"
         offset="0"
         id="stop838" />
      <stop
         style="stop-color:#339993;stop-opacity:1"
         offset="1"
         id="stop840" />
    </linearGradient>
    <linearGradient
       inkscape:collect="always"
       xlink:href="#linearGradient860"
       id="linearGradient862"
       x1="113.94677"
       y1="255.36646"
       x2="406.08289"
       y2="255.36646"
       gradientUnits="userSpaceOnUse"
       gradientTransform="matrix(0.20270273,0,0,0.18440695,363.86886,467.51047)" />
    <linearGradient
       inkscape:collect="always"
       id="linearGradient860">
      <stop
         style="stop-color:#78acd3;stop-opacity:1"
         offset="0"
         id="stop856" />
      <stop
         style="stop-color:#d98cbb;stop-opacity:1"
         offset="1"
         id="stop858" />
    </linearGradient>
    <linearGradient
       inkscape:collect="always"
       xlink:href="#linearGradient842"
       id="linearGradient844"
       x1="386.30626"
       y1="522.45407"
       x2="446.83023"
       y2="522.45407"
       gradientUnits="userSpaceOnUse"
       gradientTransform="matrix(0.99134277,0,0,0.99944183,3.6095126,0.30129674)" />
    <linearGradient
       inkscape:collect="always"
       id="linearGradient836">
      <stop
         style="stop-color:#ffb380;stop-opacity:1"
         offset="0"
         id="stop832" />
      <stop
         style="stop-color:#20ffff;stop-opacity:1"
         offset="0.48615947"
         id="stop1390" />
      <stop
         style="stop-color:#ffaeff;stop-opacity:1"
         offset="1"
         id="stop834" />
    </linearGradient>
    <linearGradient
       inkscape:collect="always"
       xlink:href="#linearGradient836"
       id="linearGradient900"
       x1="407.18054"
       y1="519.77393"
       x2="416.80774"
       y2="519.77393"
       gradientUnits="userSpaceOnUse" />
  </defs>
  <metadata
     id="metadata5458">
    <rdf:RDF>
      <cc:Work
         rdf:about="">
        <dc:format>image/svg+xml</dc:format>
        <dc:type
           rdf:resource="http://purl.org/dc/dcmitype/StillImage" />
      </cc:Work>
    </rdf:RDF>
  </metadata>
  <g
     inkscape:label="Capa 1"
     inkscape:groupmode="layer"
     id="layer1"
     transform="translate(-384.57143,-483.798)">
    <path
       style="fill:url(#linearGradient862);fill-opacity:1;stroke-width:0.179138"
       d="m 416.57459,496.95765 c -0.88032,0 -1.92237,-0.51649 -2.31692,-1.14784 l -1.7701,-2.83719 c -0.39274,-0.63133 -1.43479,-1.14667 -2.3148,-1.14782 l -20.40112,-0.0268 c -1.946,-0.003 -2.7662,0.93496 -2.79385,3.00415 l -0.0117,0.87228 v 2.56642 36.57158 c 0,0.70576 2.32071,2.56642 3.20071,2.56642 h 52.81515 c 0.88002,0 3.20071,-1.86066 3.20071,-2.56642 v -35.28836 c 0,-1.92482 -0.80004,-2.56643 -3.20071,-2.56643 z"
       id="path4-3"
       sodipodi:nodetypes="sccsssccsssssss" />
    <path
       style="fill:#f2f2f2;fill-opacity:1;stroke-width:0.176565"
       d="m 442.3495,510.65747 c 0,1.32548 -0.79577,2.40995 -2.61715,2.40995 h -46.19558 c -1.82139,0 -2.51852,-1.08447 -2.51852,-2.40995 v -7.22985 c 0,-1.32548 0.69713,-2.40996 2.51852,-2.40996 h 46.09645 c 1.82137,0 2.71628,1.08448 2.71628,2.40996 z"
       id="path8-6"
       sodipodi:nodetypes="sssssssss" />
    <path
       style="fill:url(#linearGradient844);fill-opacity:1;stroke-width:0.19334"
       d="m 443.32803,505.12949 h -53.5132 c -1.62182,0 -3.2434,1.47526 -3.2434,2.95052 v 28.76748 c 0,1.95107 1.25422,2.95051 3.2434,2.95051 h 53.5132 c 1.9955,0 3.2434,-0.99944 3.2434,-2.95051 v -28.76748 c 0,-1.47526 -1.62159,-2.95052 -3.2434,-2.95052 z"
       id="path10"
       sodipodi:nodetypes="sssssssss" />
    <polygon
       points="18.427,61.419 21.309,64.302 25.666,55.216 14.468,44.018 7.746,50.739 11.232,54.226 13.218,52.276 13.375,52.437 11.391,54.384 14.769,57.761 17.876,54.654 18.034,54.813 14.927,57.92 18.268,61.26 20.214,59.427 20.369,59.59 "
       id="polygon2"
       transform="matrix(0.20979756,0,0,0.20979756,423.94634,517.2885)"
       style="fill:#f2f2f2;fill-opacity:1" />
    <polygon
       points="48.914,88.089 46.987,89.979 50,92.992 53.463,89.529 51.654,87.753 51.811,87.594 53.621,89.371 57.028,85.964 54.012,82.949 54.17,82.79 57.187,85.806 60.57,82.422 58.675,80.563 58.832,80.402 60.729,82.263 64.219,78.771 61.175,75.728 61.333,75.568 64.378,78.613 67.763,75.229 65.838,73.34 65.995,73.181 67.922,75.07 71.233,71.758 68.161,68.687 68.32,68.527 71.392,71.6 74.832,68.16 72.872,66.309 73.026,66.146 74.991,68.002 77.241,65.751 72.862,56.688 50,79.55 27.985,57.534 23.604,66.597 25.465,68.457 27.492,66.545 27.644,66.707 25.624,68.616 29.067,72.06 32.162,68.964 32.32,69.122 29.225,72.218 32.549,75.542 34.542,73.587 34.698,73.747 32.708,75.7 36.073,79.066 39.136,76.006 39.294,76.164 36.232,79.226 39.722,82.715 41.692,80.783 41.848,80.942 39.88,82.873 43.266,86.258 46.362,83.161 46.521,83.32 43.424,86.416 46.829,89.82 48.756,87.93 "
       id="polygon4"
       transform="matrix(0.20979756,0,0,0.20979756,423.94634,517.2885)"
       style="fill:#f2f2f2;fill-opacity:1" />
    <polygon
       points="89.065,53.926 87.142,52.038 87.298,51.878 89.224,53.768 92.253,50.739 85.532,44.018 75.173,54.376 79.534,63.458 82.023,60.968 80.149,59.203 80.304,59.039 82.184,60.81 85.522,57.47 82.478,54.425 82.637,54.267 85.682,57.312 "
       id="polygon6"
       transform="matrix(0.20979756,0,0,0.20979756,423.94634,517.2885)"
       style="fill:#f2f2f2;fill-opacity:1" />
    <path
       d="m 440.89379,532.51162 c 0.36609,0 0.95437,0.73136 0.95437,0.73136 l -1.25103,-2.60589 -0.41057,0.41057 z"
       id="path8"
       style="fill:#f2f2f2;fill-opacity:1;stroke-width:0.209798" />
    <path
       d="m 435.83074,520.70968 c -0.21966,0.51106 -0.72778,0.86982 -1.31815,0.86982 -0.0143,0 -0.0285,-6.3e-4 -0.043,-7.5e-4 l 1.87601,3.36305 c 0.0115,-0.004 0.0231,-0.007 0.0346,-0.009 0.005,-7.5e-4 0.009,-0.001 0.0132,-0.002 0.007,-10e-4 0.0143,-0.003 0.0218,-0.004 0.005,-7.5e-4 0.0111,-0.002 0.0168,-0.002 0.006,-6.3e-4 0.0121,-10e-4 0.0181,-10e-4 0.006,-4.1e-4 0.0115,-4.1e-4 0.0172,-6.3e-4 0.006,-2.1e-4 0.0122,-4.1e-4 0.0176,-4.1e-4 0.002,0 0.003,0 0.005,0 0.0203,2e-4 0.0405,0.002 0.0608,0.004 7.5e-4,0 10e-4,0 0.002,2.1e-4 0.0205,0.002 0.0405,0.006 0.0608,0.0111 0.002,4.1e-4 0.004,7.5e-4 0.006,0.002 0.0195,0.005 0.0392,0.0107 0.0585,0.0174 0.003,7.5e-4 0.005,0.001 0.008,0.003 0.0193,0.007 0.0386,0.0145 0.0575,0.0231 0.003,0.002 0.005,0.002 0.008,0.004 0.0191,0.009 0.0382,0.0185 0.0571,0.0287 0.003,0.002 0.005,0.003 0.008,0.005 0.0193,0.0107 0.0386,0.0218 0.0575,0.034 0.002,0.002 0.005,0.003 0.007,0.005 0.0195,0.0126 0.0388,0.0258 0.0581,0.0397 0.002,0.002 0.003,0.002 0.005,0.004 0.0199,0.0145 0.0399,0.0298 0.0598,0.0457 0,0 0,2.1e-4 2.1e-4,2.1e-4 0.0208,0.0168 0.0411,0.034 0.0617,0.0521 0,2e-4 2.1e-4,2e-4 4.2e-4,4.2e-4 0.0199,0.0172 0.039,0.0352 0.0584,0.0537 0.002,0.001 0.003,0.002 0.005,0.004 0.0184,0.0179 0.0369,0.0363 0.0553,0.0548 0.002,0.002 0.004,0.004 0.005,0.006 0.0181,0.0184 0.0357,0.0371 0.0533,0.0564 10e-4,10e-4 0.004,0.004 0.006,0.006 0.0174,0.0189 0.0346,0.0384 0.0516,0.0581 0.002,0.002 0.004,0.005 0.006,0.006 0.0172,0.02 0.034,0.0399 0.0508,0.0605 0.002,0.002 0.003,0.004 0.005,0.005 0.017,0.021 0.0337,0.0415 0.0503,0.0627 6.3e-4,6.3e-4 0.001,0.002 0.002,0.002 0.0348,0.044 0.0679,0.0885 0.10028,0.13238 2.1e-4,2.1e-4 2.1e-4,2.1e-4 4.2e-4,4.2e-4 0.0155,0.0214 0.0308,0.0428 0.046,0.064 7.5e-4,0.002 10e-4,0.003 0.003,0.004 0.0143,0.0203 0.0283,0.041 0.0421,0.0608 0.002,10e-4 0.003,0.004 0.004,0.006 0.0132,0.0197 0.0266,0.0394 0.0392,0.0585 10e-4,0.002 0.003,0.004 0.005,0.006 0.0126,0.0191 0.0247,0.0382 0.0367,0.0566 10e-4,10e-4 0.002,0.004 0.004,0.006 0.0122,0.0187 0.0233,0.0369 0.0344,0.0548 7.5e-4,0.002 0.002,0.003 0.002,0.004 0.0115,0.0182 0.0224,0.0358 0.0327,0.0531 6.3e-4,4.2e-4 7.5e-4,7.5e-4 0.002,0.002 0.0218,0.0357 0.0413,0.069 0.0589,0.099 2.1e-4,2.1e-4 2.1e-4,6.3e-4 4.2e-4,7.5e-4 0.008,0.0145 0.0163,0.0284 0.0239,0.0411 4.2e-4,0.002 10e-4,0.002 10e-4,0.004 0.008,0.0124 0.0134,0.0239 0.0197,0.0348 7.5e-4,0.002 0.002,0.003 0.002,0.004 0.006,0.0105 0.0115,0.0202 0.0164,0.029 4.2e-4,10e-4 0.001,0.002 0.001,0.004 0.005,0.009 0.009,0.0166 0.013,0.0235 4.2e-4,7.5e-4 7.5e-4,0.002 0.001,0.003 0.004,0.007 0.007,0.0126 0.009,0.0174 0,2.1e-4 2.1e-4,4.2e-4 4.2e-4,7.5e-4 0.002,0.005 0.005,0.009 0.006,0.0111 2.1e-4,4.2e-4 2.1e-4,6.3e-4 4.2e-4,0.002 7.5e-4,0.002 0.001,0.003 0.001,0.003 l 2.97325,6.15462 c 0.36609,0 0.95436,0.73135 0.95436,0.73135 z"
       id="path10-5"
       style="fill:#f2f2f2;fill-opacity:1;stroke-width:0.209798" />
    <path
       d="m 434.51259,518.798 c -0.74311,0 -1.34754,0.60443 -1.34754,1.34753 0,0.23288 0.0596,0.45211 0.16407,0.64345 0.21021,0.38519 0.60316,0.65687 1.06157,0.69842 0.0182,0.002 0.0363,0.003 0.0545,0.005 0.0224,7.5e-4 0.0449,0.002 0.0676,0.002 0.56939,0 1.05675,-0.35498 1.25396,-0.85514 0.0605,-0.15273 0.0938,-0.31868 0.0938,-0.4924 -2.1e-4,-0.74328 -0.60505,-1.34771 -1.34794,-1.34771 z m 0,2.26015 c -0.50394,0 -0.91263,-0.40868 -0.91263,-0.91262 0,-0.50394 0.40848,-0.91262 0.91263,-0.91262 0.50414,0 0.91282,0.40868 0.91282,0.91262 0,0.50394 -0.40868,0.91262 -0.91282,0.91262 z"
       id="path12"
       style="fill:#f2f2f2;fill-opacity:1;stroke-width:0.209798" />
    <path
       d="m 433.24625,520.81688 -3.88,8.09105 -2.07868,4.33505 c 0,0 0.58848,-0.73136 0.95416,-0.73136 l 1.60915,-3.33011 1.36474,-2.82472 c 0,0 0.7389,-1.43606 1.43354,-1.43606 0.0472,0 0.0944,0.007 0.14098,0.0208 l 1.71783,-3.11193 -0.14812,-0.2612 c -0.48275,-0.0516 -0.89521,-0.34134 -1.1136,-0.75149 z"
       id="path14"
       style="fill:#f2f2f2;fill-opacity:1;stroke-width:0.209798" />
  </g>
</svg>
