<?xml version="1.0" encoding="UTF-8" standalone="no"?>
<svg
   width="64"
   version="1.1"
   height="64"
   id="svg17"
   sodipodi:docname="folder.svg"
   inkscape:version="1.1.1 (3bf5ae0d25, 2021-09-20)"
   xmlns:inkscape="http://www.inkscape.org/namespaces/inkscape"
   xmlns:sodipodi="http://sodipodi.sourceforge.net/DTD/sodipodi-0.dtd"
   xmlns:xlink="http://www.w3.org/1999/xlink"
   xmlns="http://www.w3.org/2000/svg"
   xmlns:svg="http://www.w3.org/2000/svg"
   xmlns:rdf="http://www.w3.org/1999/02/22-rdf-syntax-ns#"
   xmlns:cc="http://creativecommons.org/ns#"
   xmlns:dc="http://purl.org/dc/elements/1.1/">
  <sodipodi:namedview
     pagecolor="#ffffff"
     bordercolor="#666666"
     borderopacity="1"
     objecttolerance="10"
     gridtolerance="10"
     guidetolerance="10"
     inkscape:pageopacity="0"
     inkscape:pageshadow="2"
     inkscape:window-width="1920"
     inkscape:window-height="1011"
     id="namedview19"
     showgrid="true"
     inkscape:zoom="9.8125004"
     inkscape:cx="45.554138"
     inkscape:cy="25.121018"
     inkscape:window-x="0"
     inkscape:window-y="0"
     inkscape:window-maximized="1"
     inkscape:current-layer="layer1"
     inkscape:document-rotation="0"
     inkscape:pagecheckerboard="0">
    <inkscape:grid
       type="xygrid"
       id="grid908" />
  </sodipodi:namedview>
  <defs
     id="defs5455">
    <linearGradient
       inkscape:collect="always"
       id="linearGradient842">
      <stop
         style="stop-color:#326e9a;stop-opacity:1"
         offset="0"
         id="stop838" />
      <stop
         style="stop-color:#339993;stop-opacity:1"
         offset="1"
         id="stop840" />
    </linearGradient>
    <linearGradient
       inkscape:collect="always"
       xlink:href="#linearGradient860"
       id="linearGradient862"
       x1="113.94677"
       y1="255.36646"
       x2="406.08289"
       y2="255.36646"
       gradientUnits="userSpaceOnUse"
       gradientTransform="matrix(0.20270273,0,0,0.18440695,363.86886,467.51047)" />
    <linearGradient
       inkscape:collect="always"
       id="linearGradient860">
      <stop
         style="stop-color:#78acd3;stop-opacity:1"
         offset="0"
         id="stop856" />
      <stop
         style="stop-color:#d98cbb;stop-opacity:1"
         offset="1"
         id="stop858" />
    </linearGradient>
    <linearGradient
       inkscape:collect="always"
       xlink:href="#linearGradient842"
       id="linearGradient844"
       x1="386.30626"
       y1="522.45407"
       x2="446.83023"
       y2="522.45407"
       gradientUnits="userSpaceOnUse"
       gradientTransform="matrix(0.99134277,0,0,0.99944183,3.6095126,0.30129674)" />
    <linearGradient
       inkscape:collect="always"
       id="linearGradient836">
      <stop
         style="stop-color:#ffb380;stop-opacity:1"
         offset="0"
         id="stop832" />
      <stop
         style="stop-color:#20ffff;stop-opacity:1"
         offset="0.48615947"
         id="stop1390" />
      <stop
         style="stop-color:#ffaeff;stop-opacity:1"
         offset="1"
         id="stop834" />
    </linearGradient>
    <linearGradient
       inkscape:collect="always"
       xlink:href="#linearGradient836"
       id="linearGradient900"
       x1="407.18054"
       y1="519.77393"
       x2="416.80774"
       y2="519.77393"
       gradientUnits="userSpaceOnUse" />
  </defs>
  <metadata
     id="metadata5458">
    <rdf:RDF>
      <cc:Work
         rdf:about="">
        <dc:format>image/svg+xml</dc:format>
        <dc:type
           rdf:resource="http://purl.org/dc/dcmitype/StillImage" />
      </cc:Work>
    </rdf:RDF>
  </metadata>
  <g
     inkscape:label="Capa 1"
     inkscape:groupmode="layer"
     id="layer1"
     transform="translate(-384.57143,-483.798)">
    <path
       style="fill:url(#linearGradient862);fill-opacity:1;stroke-width:0.179138"
       d="m 416.57459,496.95765 c -0.88032,0 -1.92237,-0.51649 -2.31692,-1.14784 l -1.7701,-2.83719 c -0.39274,-0.63133 -1.43479,-1.14667 -2.3148,-1.14782 l -20.40112,-0.0268 c -1.946,-0.003 -2.7662,0.93496 -2.79385,3.00415 l -0.0117,0.87228 v 2.56642 36.57158 c 0,0.70576 2.32071,2.56642 3.20071,2.56642 h 52.81515 c 0.88002,0 3.20071,-1.86066 3.20071,-2.56642 v -35.28836 c 0,-1.92482 -0.80004,-2.56643 -3.20071,-2.56643 z"
       id="path4-3"
       sodipodi:nodetypes="sccsssccsssssss" />
    <path
       style="fill:#f2f2f2;fill-opacity:1;stroke-width:0.176565"
       d="m 442.3495,510.65747 c 0,1.32548 -0.79577,2.40995 -2.61715,2.40995 h -46.19558 c -1.82139,0 -2.51852,-1.08447 -2.51852,-2.40995 v -7.22985 c 0,-1.32548 0.69713,-2.40996 2.51852,-2.40996 h 46.09645 c 1.82137,0 2.71628,1.08448 2.71628,2.40996 z"
       id="path8-6"
       sodipodi:nodetypes="sssssssss" />
    <path
       style="fill:url(#linearGradient844);fill-opacity:1;stroke-width:0.19334"
       d="m 443.32803,505.12949 h -53.5132 c -1.62182,0 -3.2434,1.47526 -3.2434,2.95052 v 28.76748 c 0,1.95107 1.25422,2.95051 3.2434,2.95051 h 53.5132 c 1.9955,0 3.2434,-0.99944 3.2434,-2.95051 v -28.76748 c 0,-1.47526 -1.62159,-2.95052 -3.2434,-2.95052 z"
       id="path10"
       sodipodi:nodetypes="sssssssss" />
    <path
       d="m 429.32143,536.798 c -4.16348,0 -6.75,-3.1611 -6.75,-8.25 0,-0.41415 0.33585,-0.75 0.75,-0.75 h 12.1062 c -0.071,-0.28823 -0.1062,-0.57457 -0.1062,-0.85733 0,-1.91055 1.62667,-3.38925 1.69627,-3.45157 0.28418,-0.25485 0.71633,-0.25485 1.0005,0 0.0696,0.0623 1.69628,1.54102 1.69628,3.45157 0,0.0736 -0.002,0.1476 -0.007,0.22155 1.99072,-0.1212 3.60863,1.61723 3.67312,1.689 0.25486,0.28493 0.25486,0.71558 0,1.0005 -0.0623,0.0692 -1.54027,1.69628 -3.45187,1.69628 -0.48705,0 -0.9807,-0.10365 -1.47585,-0.30908 -1.45823,3.13185 -5.35215,5.55908 -9.1311,5.55908 z m -5.22398,-7.5 c 0.14025,2.05117 0.96495,6 5.22398,6 3.43905,0 7.11255,-2.44298 8.02147,-5.3346 0.0704,-0.2223 0.23948,-0.39953 0.4578,-0.4797 0.22118,-0.0802 0.46215,-0.0535 0.65993,0.0714 0.51555,0.327 1.00927,0.4929 1.46775,0.4929 0.68557,0 1.32937,-0.36877 1.76662,-0.69728 -0.43582,-0.32775 -1.07887,-0.69577 -1.76662,-0.69577 -0.29445,0 -0.60495,0.0725 -0.9492,0.22155 -0.282,0.1227 -0.61088,0.0593 -0.82837,-0.1578 -0.21751,-0.2175 -0.28051,-0.54563 -0.15818,-0.82838 0.1494,-0.34462 0.22193,-0.65512 0.22193,-0.94957 0,-0.6852 -0.36916,-1.329 -0.69728,-1.76625 -0.3282,0.43612 -0.69585,1.0788 -0.69585,1.76617 0,0.38895 0.12157,0.80858 0.3618,1.24695 0.12742,0.23258 0.12232,0.5145 -0.0125,0.74265 -0.13478,0.22785 -0.3801,0.36773 -0.64522,0.36773 z"
       id="path2"
       style="fill:#f2f2f2;fill-opacity:1;stroke-width:0.75" />
    <path
       d="m 433.82143,527.048 h -2.25 c -0.41415,0 -0.75,-0.33585 -0.75,-0.75 v -2.25 c 0,-0.41415 0.33585,-0.75 0.75,-0.75 h 2.25 c 0.41452,0 0.75,0.33585 0.75,0.75 v 2.25 c 0,0.41415 -0.33548,0.75 -0.75,0.75 z m -1.5,-1.5 h 0.75 v -0.75 h -0.75 z"
       id="path4"
       style="fill:#f2f2f2;fill-opacity:1;stroke-width:0.75" />
    <path
       d="m 427.07143,527.048 h -2.25 c -0.41415,0 -0.75,-0.33585 -0.75,-0.75 v -2.25 c 0,-0.41415 0.33585,-0.75 0.75,-0.75 h 2.25 c 0.41415,0 0.75,0.33585 0.75,0.75 v 2.25 c 0,0.41415 -0.33585,0.75 -0.75,0.75 z m -1.5,-1.5 h 0.75 v -0.75 h -0.75 z"
       id="path6"
       style="fill:#f2f2f2;fill-opacity:1;stroke-width:0.75" />
    <path
       d="m 429.32143,524.798 h -2.25 c -0.41415,0 -0.75,-0.33585 -0.75,-0.75 v -2.25 c 0,-0.41415 0.33585,-0.75 0.75,-0.75 h 2.25 c 0.41415,0 0.75,0.33585 0.75,0.75 v 2.25 c 0,0.41415 -0.33585,0.75 -0.75,0.75 z m -1.5,-1.5 h 0.75 v -0.75 h -0.75 z"
       id="path8"
       style="fill:#f2f2f2;fill-opacity:1;stroke-width:0.75" />
    <path
       d="m 429.32143,527.048 h -2.25 c -0.41415,0 -0.75,-0.33585 -0.75,-0.75 v -2.25 c 0,-0.41415 0.33585,-0.75 0.75,-0.75 h 2.25 c 0.41415,0 0.75,0.33585 0.75,0.75 v 2.25 c 0,0.41415 -0.33585,0.75 -0.75,0.75 z m -1.5,-1.5 h 0.75 v -0.75 h -0.75 z"
       id="path10-5"
       style="fill:#f2f2f2;fill-opacity:1;stroke-width:0.75" />
    <path
       d="m 431.57143,522.548 h -2.25 c -0.41415,0 -0.75,-0.33585 -0.75,-0.75 v -2.25 c 0,-0.41415 0.33585,-0.75 0.75,-0.75 h 2.25 c 0.41415,0 0.75,0.33585 0.75,0.75 v 2.25 c 0,0.41415 -0.33585,0.75 -0.75,0.75 z m -1.5,-1.5 h 0.75 v -0.75 h -0.75 z"
       id="path12"
       style="fill:#f2f2f2;fill-opacity:1;stroke-width:0.75" />
    <path
       d="m 431.57143,524.798 h -2.25 c -0.41415,0 -0.75,-0.33585 -0.75,-0.75 v -2.25 c 0,-0.41415 0.33585,-0.75 0.75,-0.75 h 2.25 c 0.41415,0 0.75,0.33585 0.75,0.75 v 2.25 c 0,0.41415 -0.33585,0.75 -0.75,0.75 z m -1.5,-1.5 h 0.75 v -0.75 h -0.75 z"
       id="path14"
       style="fill:#f2f2f2;fill-opacity:1;stroke-width:0.75" />
    <path
       d="m 431.57143,527.048 h -2.25 c -0.41415,0 -0.75,-0.33585 -0.75,-0.75 v -2.25 c 0,-0.41415 0.33585,-0.75 0.75,-0.75 h 2.25 c 0.41415,0 0.75,0.33585 0.75,0.75 v 2.25 c 0,0.41415 -0.33585,0.75 -0.75,0.75 z m -1.5,-1.5 h 0.75 v -0.75 h -0.75 z"
       id="path16"
       style="fill:#f2f2f2;fill-opacity:1;stroke-width:0.75" />
    <circle
       cx="426.69641"
       cy="531.1731"
       id="circle18"
       style="fill:#f2f2f2;fill-opacity:1;stroke-width:0.75"
       r="1.125" />
  </g>
</svg>
