<?xml version="1.0" encoding="UTF-8" standalone="no"?>
<svg
   id="svg2"
   height="64"
   version="1.1"
   width="64"
   sodipodi:docname="folder-unlocked.svg"
   inkscape:version="1.1.1 (3bf5ae0d25, 2021-09-20)"
   xmlns:inkscape="http://www.inkscape.org/namespaces/inkscape"
   xmlns:sodipodi="http://sodipodi.sourceforge.net/DTD/sodipodi-0.dtd"
   xmlns:xlink="http://www.w3.org/1999/xlink"
   xmlns="http://www.w3.org/2000/svg"
   xmlns:svg="http://www.w3.org/2000/svg"
   xmlns:rdf="http://www.w3.org/1999/02/22-rdf-syntax-ns#"
   xmlns:cc="http://creativecommons.org/ns#"
   xmlns:dc="http://purl.org/dc/elements/1.1/">
  <sodipodi:namedview
     pagecolor="#ffffff"
     bordercolor="#666666"
     borderopacity="1"
     objecttolerance="10"
     gridtolerance="10"
     guidetolerance="10"
     inkscape:pageopacity="0"
     inkscape:pageshadow="2"
     inkscape:window-width="1920"
     inkscape:window-height="1006"
     id="namedview18"
     showgrid="true"
     inkscape:zoom="9.8125"
     inkscape:cx="7.5414013"
     inkscape:cy="43.210191"
     inkscape:window-x="0"
     inkscape:window-y="0"
     inkscape:window-maximized="1"
     inkscape:current-layer="svg2"
     inkscape:document-rotation="0"
     inkscape:pagecheckerboard="0">
    <inkscape:grid
       type="xygrid"
       id="grid945" />
  </sodipodi:namedview>
  <defs
     id="defs5455">
    <linearGradient
       gradientTransform="matrix(1 0 0 0.99967455 0 0.17645)"
       x2="0"
       gradientUnits="userSpaceOnUse"
       y2="499.78421"
       y1="541.79797"
       xlink:href="#linearGradient4172-5"
       id="linearGradient4178" />
    <linearGradient
       id="linearGradient4172-5">
      <stop
         id="stop4174-6"
         style="stop-color:#3daee9" />
      <stop
         id="stop4176-6"
         style="stop-color:#6cc1ef"
         offset="1" />
    </linearGradient>
    <linearGradient
       x2="0"
       gradientUnits="userSpaceOnUse"
       y2="8"
       y1="29"
       xlink:href="#linearGradient4172-5"
       id="linearGradient4342" />
    <linearGradient
       inkscape:collect="always"
       xlink:href="#linearGradient860-3"
       id="linearGradient862"
       x1="113.94677"
       y1="255.36646"
       x2="406.08289"
       y2="255.36646"
       gradientUnits="userSpaceOnUse"
       gradientTransform="matrix(0.20270273,0,0,0.18440695,-20.70257,-16.287523)" />
    <linearGradient
       inkscape:collect="always"
       id="linearGradient860-3">
      <stop
         style="stop-color:#78acd3;stop-opacity:1"
         offset="0"
         id="stop856-6" />
      <stop
         style="stop-color:#d98cbb;stop-opacity:1"
         offset="1"
         id="stop858-7" />
    </linearGradient>
    <linearGradient
       inkscape:collect="always"
       xlink:href="#linearGradient842-3"
       id="linearGradient844-5"
       x1="386.30627"
       y1="522.45404"
       x2="446.83023"
       y2="522.45404"
       gradientUnits="userSpaceOnUse"
       gradientTransform="matrix(0.99134277,0,0,0.99944183,-380.96192,-483.49669)" />
    <linearGradient
       inkscape:collect="always"
       id="linearGradient842-3">
      <stop
         style="stop-color:#326e9a;stop-opacity:1"
         offset="0"
         id="stop838-5" />
      <stop
         style="stop-color:#339993;stop-opacity:1"
         offset="1"
         id="stop840-6" />
    </linearGradient>
  </defs>
  <metadata
     id="metadata5458">
    <rdf:RDF>
      <cc:Work
         rdf:about="">
        <dc:format>image/svg+xml</dc:format>
        <dc:type
           rdf:resource="http://purl.org/dc/dcmitype/StillImage" />
      </cc:Work>
    </rdf:RDF>
  </metadata>
  <path
     style="fill:url(#linearGradient862);fill-opacity:1;stroke-width:0.179138"
     d="m 32.00316,13.159657 c -0.88032,0 -1.92237,-0.51649 -2.31692,-1.14784 l -1.7701,-2.8371898 c -0.39274,-0.63133 -1.43479,-1.14667 -2.3148,-1.14782 l -20.40112,-0.0268 c -1.946,-0.003 -2.7662,0.93496 -2.79385,3.0041498 l -0.0117,0.87228 v 2.56642 36.57158 c 0,0.70576 2.32071,2.56642 3.20071,2.56642 h 52.81515 c 0.88002,0 3.20071,-1.86066 3.20071,-2.56642 v -35.28836 c 0,-1.92482 -0.80004,-2.56643 -3.20071,-2.56643 z"
     id="path4-3-2"
     sodipodi:nodetypes="sccsssccsssssss" />
  <path
     style="fill:#f2f2f2;fill-opacity:1;stroke-width:0.176565"
     d="m 57.77807,26.859477 c 0,1.32548 -0.79577,2.40995 -2.61715,2.40995 H 8.96534 c -1.82139,0 -2.51852,-1.08447 -2.51852,-2.40995 v -7.22985 c 0,-1.32548 0.69713,-2.40996 2.51852,-2.40996 h 46.09645 c 1.82137,0 2.71628,1.08448 2.71628,2.40996 z"
     id="path8-6-9"
     sodipodi:nodetypes="sssssssss" />
  <path
     style="fill:url(#linearGradient844-5);fill-opacity:1;stroke-width:0.19334"
     d="M 58.7566,21.331497 H 5.2434 C 3.62158,21.331497 2,22.806757 2,24.282017 v 28.76748 c 0,1.95107 1.25422,2.95051 3.2434,2.95051 h 53.5132 c 1.9955,0 3.2434,-0.99944 3.2434,-2.95051 v -28.76748 c 0,-1.47526 -1.62159,-2.95052 -3.2434,-2.95052 z"
     id="path10-1"
     sodipodi:nodetypes="sssssssss" />
  <path
     d="m 49.437815,49.624963 c 0.31008,0 0.5625,0.251579 0.5625,0.562499 0,0.310365 -0.25242,0.562501 -0.5625,0.562501 -0.31092,0 -0.562777,-0.252136 -0.562777,-0.562501 0,-0.31092 0.251894,-0.562499 0.562777,-0.562499 z m -0.562777,-3.937531 c 0,-0.310927 0.251857,-0.5625 0.562777,-0.5625 0.31008,0 0.5625,0.251573 0.5625,0.5625 V 47.9369 c 0,0.310927 -0.25242,0.563063 -0.5625,0.563063 -0.31092,0 -0.562777,-0.252136 -0.562777,-0.563063 z M 56.749962,53 H 43.249715 C 42.00716,53 41,51.992 41,50.749962 v -5.06253 c 0,-0.310927 0.251858,-0.5625 0.562785,-0.5625 0.310073,0 0.5625,0.251573 0.5625,0.5625 v 4.781281 c 0,0.776744 0.629505,1.405724 1.40625,1.405724 h 12.937178 c 0.776745,0 1.40685,-0.629017 1.40685,-1.405724 V 45.40562 c 0,-0.776183 -0.630105,-1.406115 -1.40685,-1.406115 h -10.124925 -0.281003 -5.7e-4 C 45.12977,43.999505 44.375,43.24421 44.375,42.312537 V 42.030725 40.624753 C 44.375,37.518065 46.893102,35 50.000315,35 c 3.106583,0 5.624648,2.518065 5.624648,5.624753 v 0.5625 c 0,0.31092 -0.251573,0.5625 -0.5625,0.5625 -0.310358,0 -0.5625,-0.25158 -0.5625,-0.5625 v -0.5625 c 0,-2.485373 -2.014905,-4.500315 -4.499648,-4.500315 -2.485402,0 -4.50003,2.014912 -4.50003,4.500315 v 0.843472 0.21477 0.34773 c 0,0.466103 0.377648,0.844343 0.843503,0.844343 h 0.34773 0.21477 7.312424 0.28125 1.125 0.281813 0.843187 C 57.993088,42.875068 59,43.88198 59,45.124932 v 5.62503 C 59,51.992 57.993088,53 56.749962,53 Z M 42.687215,43.999505 c -0.310073,0 -0.56193,-0.251573 -0.56193,-0.5625 0,-0.310072 0.251857,-0.561937 0.56193,-0.561937 0.310928,0 0.5625,0.251865 0.5625,0.561937 0,0.310927 -0.251572,0.5625 -0.5625,0.5625 z"
     id="path2-0"
     style="fill:#f2f2f2;fill-opacity:1;stroke-width:0.0351562" />
</svg>
