<?xml version="1.0" encoding="UTF-8" standalone="no"?>
<svg
   width="64"
   version="1.1"
   height="64"
   id="svg17"
   sodipodi:docname="folder-image.svg"
   inkscape:version="1.1.1 (3bf5ae0d25, 2021-09-20)"
   xmlns:inkscape="http://www.inkscape.org/namespaces/inkscape"
   xmlns:sodipodi="http://sodipodi.sourceforge.net/DTD/sodipodi-0.dtd"
   xmlns:xlink="http://www.w3.org/1999/xlink"
   xmlns="http://www.w3.org/2000/svg"
   xmlns:svg="http://www.w3.org/2000/svg"
   xmlns:rdf="http://www.w3.org/1999/02/22-rdf-syntax-ns#"
   xmlns:cc="http://creativecommons.org/ns#"
   xmlns:dc="http://purl.org/dc/elements/1.1/">
  <sodipodi:namedview
     pagecolor="#ffffff"
     bordercolor="#666666"
     borderopacity="1"
     objecttolerance="10"
     gridtolerance="10"
     guidetolerance="10"
     inkscape:pageopacity="0"
     inkscape:pageshadow="2"
     inkscape:window-width="1920"
     inkscape:window-height="1011"
     id="namedview19"
     showgrid="true"
     inkscape:zoom="9.8125004"
     inkscape:cx="34.242037"
     inkscape:cy="36.127387"
     inkscape:window-x="0"
     inkscape:window-y="0"
     inkscape:window-maximized="1"
     inkscape:current-layer="layer1"
     inkscape:document-rotation="0"
     inkscape:pagecheckerboard="0">
    <inkscape:grid
       type="xygrid"
       id="grid908" />
  </sodipodi:namedview>
  <defs
     id="defs5455">
    <linearGradient
       inkscape:collect="always"
       id="linearGradient842">
      <stop
         style="stop-color:#326e9a;stop-opacity:1"
         offset="0"
         id="stop838" />
      <stop
         style="stop-color:#339993;stop-opacity:1"
         offset="1"
         id="stop840" />
    </linearGradient>
    <linearGradient
       inkscape:collect="always"
       xlink:href="#linearGradient860"
       id="linearGradient862"
       x1="113.94677"
       y1="255.36646"
       x2="406.08289"
       y2="255.36646"
       gradientUnits="userSpaceOnUse"
       gradientTransform="matrix(0.20270273,0,0,0.18440695,363.86886,467.51047)" />
    <linearGradient
       inkscape:collect="always"
       id="linearGradient860">
      <stop
         style="stop-color:#78acd3;stop-opacity:1"
         offset="0"
         id="stop856" />
      <stop
         style="stop-color:#d98cbb;stop-opacity:1"
         offset="1"
         id="stop858" />
    </linearGradient>
    <linearGradient
       inkscape:collect="always"
       xlink:href="#linearGradient842"
       id="linearGradient844"
       x1="386.30626"
       y1="522.45407"
       x2="446.83023"
       y2="522.45407"
       gradientUnits="userSpaceOnUse"
       gradientTransform="matrix(0.99134277,0,0,0.99944183,3.6095126,0.30129674)" />
    <linearGradient
       inkscape:collect="always"
       xlink:href="#linearGradient851"
       id="linearGradient1897"
       x1="401.86566"
       y1="520.7981"
       x2="431.46234"
       y2="520.7981"
       gradientUnits="userSpaceOnUse"
       gradientTransform="matrix(0.55494981,0,0,0.55948363,191.60724,247.57369)" />
    <linearGradient
       inkscape:collect="always"
       id="linearGradient851">
      <stop
         style="stop-color:#ccff00;stop-opacity:1"
         offset="0"
         id="stop847" />
      <stop
         style="stop-color:#ffccaa;stop-opacity:1"
         offset="1"
         id="stop849" />
    </linearGradient>
  </defs>
  <metadata
     id="metadata5458">
    <rdf:RDF>
      <cc:Work
         rdf:about="">
        <dc:format>image/svg+xml</dc:format>
        <dc:type
           rdf:resource="http://purl.org/dc/dcmitype/StillImage" />
      </cc:Work>
    </rdf:RDF>
  </metadata>
  <g
     inkscape:label="Capa 1"
     inkscape:groupmode="layer"
     id="layer1"
     transform="translate(-384.57143,-483.798)">
    <path
       style="fill:url(#linearGradient862);fill-opacity:1;stroke-width:0.179138"
       d="m 416.57459,496.95765 c -0.88032,0 -1.92237,-0.51649 -2.31692,-1.14784 l -1.7701,-2.83719 c -0.39274,-0.63133 -1.43479,-1.14667 -2.3148,-1.14782 l -20.40112,-0.0268 c -1.946,-0.003 -2.7662,0.93496 -2.79385,3.00415 l -0.0117,0.87228 v 2.56642 36.57158 c 0,0.70576 2.32071,2.56642 3.20071,2.56642 h 52.81515 c 0.88002,0 3.20071,-1.86066 3.20071,-2.56642 v -35.28836 c 0,-1.92482 -0.80004,-2.56643 -3.20071,-2.56643 z"
       id="path4-3"
       sodipodi:nodetypes="sccsssccsssssss" />
    <path
       style="fill:#f2f2f2;fill-opacity:1;stroke-width:0.176565"
       d="m 442.3495,510.65747 c 0,1.32548 -0.79577,2.40995 -2.61715,2.40995 h -46.19558 c -1.82139,0 -2.51852,-1.08447 -2.51852,-2.40995 v -7.22985 c 0,-1.32548 0.69713,-2.40996 2.51852,-2.40996 h 46.09645 c 1.82137,0 2.71628,1.08448 2.71628,2.40996 z"
       id="path8-6"
       sodipodi:nodetypes="sssssssss" />
    <path
       style="fill:url(#linearGradient844);fill-opacity:1;stroke-width:0.19334"
       d="m 443.32803,505.12949 h -53.5132 c -1.62182,0 -3.2434,1.47526 -3.2434,2.95052 v 28.76748 c 0,1.95107 1.25422,2.95051 3.2434,2.95051 h 53.5132 c 1.9955,0 3.2434,-0.99944 3.2434,-2.95051 v -28.76748 c 0,-1.47526 -1.62159,-2.95052 -3.2434,-2.95052 z"
       id="path10"
       sodipodi:nodetypes="sssssssss" />
    <path
       d="m 440.07881,524.34189 c -1.13466,0 -2.05433,-0.92718 -2.05433,-2.07042 0,-0.38123 0.30689,-0.69065 0.685,-0.69065 0.37844,0 0.68432,0.30942 0.68432,0.69061 0,0.3805 0.3069,0.68991 0.68501,0.68991 0.37844,0 0.68431,0.30941 0.68431,0.68992 0,0.38122 -0.30587,0.69063 -0.68431,0.69063 z m -1.36933,8.97325 c 0,0.38154 -0.3069,0.69094 -0.685,0.69094 -0.37743,0 -0.68433,-0.3094 -0.68433,-0.69094 0,-0.38154 0.3069,-0.68956 0.68433,-0.68956 0.3781,0 0.685,0.30802 0.685,0.68956 z m -2.33748,-5.80739 -0.42591,0.42839 c -0.26711,0.26946 -0.70003,0.26946 -0.96816,0 -0.2671,-0.26929 -0.2671,-0.70677 0,-0.97606 l 0.4259,-0.42874 c 1.06979,-1.07818 2.80319,-1.07818 3.87263,0 l 1.45226,1.46464 c 0.26813,0.26894 0.26813,0.70644 0,0.97607 -0.26711,0.26894 -0.70071,0.26894 -0.96815,0 l -1.45226,-1.46426 c -0.53421,-0.53965 -1.40211,-0.53965 -1.93631,-4e-5 z m 4.39112,9.25871 h -16.43155 c -1.51243,0 -2.73866,-1.2356 -2.73866,-2.76038 v -2.07146 c 0,-0.38154 0.3069,-0.68956 0.685,-0.68956 0.37742,0 0.68432,0.30807 0.68432,0.68956 v 2.07146 c 0,0.76175 0.61278,1.37987 1.36934,1.37987 h 16.43155 c 0.75655,0 1.36933,-0.61812 1.36933,-1.37987 v -12.42526 c 0,-0.76272 -0.61278,-1.38051 -1.36933,-1.38051 h -16.43155 c -0.75656,0 -1.36934,0.61779 -1.36934,1.38051 v 6.6652 c 0,0.19077 0.15345,0.34514 0.34199,0.34514 0.0882,0 0.16484,-0.0337 0.22667,-0.0889 l 3.31466,-3.34162 c 1.06945,-1.07822 2.80318,-1.07822 3.87262,0 l 5.76482,5.81213 c 0.13776,0.12606 0.22599,0.30669 0.22599,0.50958 0,0.38016 -0.30622,0.68957 -0.68433,0.68957 -0.20826,0 -0.39247,-0.0951 -0.51752,-0.24268 l -0.006,0.005 -5.75079,-5.79793 c -0.5342,-0.53857 -1.40209,-0.53857 -1.9363,0 l -3.31903,3.34632 c -0.30857,0.30129 -0.72746,0.4887 -1.19046,0.4887 -0.94511,1e-5 -1.71134,-0.77247 -1.71134,-1.72564 v -6.66519 c 0,-1.52477 1.22623,-2.76102 2.73865,-2.76102 h 16.43156 c 1.5131,0 2.739,1.23629 2.739,2.76102 v 12.42521 c 0,1.52482 -1.2259,2.76042 -2.739,2.76042 z"
       id="path2-36"
       style="fill:#f2f2f2;fill-opacity:1;stroke:url(#linearGradient1897);stroke-width:0.0429659" />
  </g>
</svg>
