<?xml version="1.0" encoding="UTF-8" standalone="no"?>
<svg
   width="64"
   version="1.1"
   height="64"
   id="svg17"
   sodipodi:docname="folder-appimage.svg"
   inkscape:version="1.1.1 (3bf5ae0d25, 2021-09-20)"
   xmlns:inkscape="http://www.inkscape.org/namespaces/inkscape"
   xmlns:sodipodi="http://sodipodi.sourceforge.net/DTD/sodipodi-0.dtd"
   xmlns:xlink="http://www.w3.org/1999/xlink"
   xmlns="http://www.w3.org/2000/svg"
   xmlns:svg="http://www.w3.org/2000/svg"
   xmlns:rdf="http://www.w3.org/1999/02/22-rdf-syntax-ns#"
   xmlns:cc="http://creativecommons.org/ns#"
   xmlns:dc="http://purl.org/dc/elements/1.1/">
  <sodipodi:namedview
     pagecolor="#ffffff"
     bordercolor="#666666"
     borderopacity="1"
     objecttolerance="10"
     gridtolerance="10"
     guidetolerance="10"
     inkscape:pageopacity="0"
     inkscape:pageshadow="2"
     inkscape:window-width="1920"
     inkscape:window-height="1011"
     id="namedview19"
     showgrid="true"
     inkscape:zoom="9.8125004"
     inkscape:cx="45.146495"
     inkscape:cy="23.490445"
     inkscape:window-x="0"
     inkscape:window-y="0"
     inkscape:window-maximized="1"
     inkscape:current-layer="layer1"
     inkscape:document-rotation="0"
     inkscape:pagecheckerboard="0">
    <inkscape:grid
       type="xygrid"
       id="grid908" />
  </sodipodi:namedview>
  <defs
     id="defs5455">
    <linearGradient
       inkscape:collect="always"
       id="linearGradient842">
      <stop
         style="stop-color:#326e9a;stop-opacity:1"
         offset="0"
         id="stop838" />
      <stop
         style="stop-color:#339993;stop-opacity:1"
         offset="1"
         id="stop840" />
    </linearGradient>
    <linearGradient
       inkscape:collect="always"
       xlink:href="#linearGradient860"
       id="linearGradient862"
       x1="113.94677"
       y1="255.36646"
       x2="406.08289"
       y2="255.36646"
       gradientUnits="userSpaceOnUse"
       gradientTransform="matrix(0.20270273,0,0,0.18440695,363.86886,467.51047)" />
    <linearGradient
       inkscape:collect="always"
       id="linearGradient860">
      <stop
         style="stop-color:#78acd3;stop-opacity:1"
         offset="0"
         id="stop856" />
      <stop
         style="stop-color:#d98cbb;stop-opacity:1"
         offset="1"
         id="stop858" />
    </linearGradient>
    <linearGradient
       inkscape:collect="always"
       xlink:href="#linearGradient842"
       id="linearGradient844"
       x1="386.30626"
       y1="522.45407"
       x2="446.83023"
       y2="522.45407"
       gradientUnits="userSpaceOnUse"
       gradientTransform="matrix(0.99134277,0,0,0.99944183,3.6095126,0.30129674)" />
  </defs>
  <metadata
     id="metadata5458">
    <rdf:RDF>
      <cc:Work
         rdf:about="">
        <dc:format>image/svg+xml</dc:format>
        <dc:type
           rdf:resource="http://purl.org/dc/dcmitype/StillImage" />
      </cc:Work>
    </rdf:RDF>
  </metadata>
  <g
     inkscape:label="Capa 1"
     inkscape:groupmode="layer"
     id="layer1"
     transform="translate(-384.57143,-483.798)">
    <path
       style="fill:url(#linearGradient862);fill-opacity:1;stroke-width:0.179138"
       d="m 416.57459,496.95765 c -0.88032,0 -1.92237,-0.51649 -2.31692,-1.14784 l -1.7701,-2.83719 c -0.39274,-0.63133 -1.43479,-1.14667 -2.3148,-1.14782 l -20.40112,-0.0268 c -1.946,-0.003 -2.7662,0.93496 -2.79385,3.00415 l -0.0117,0.87228 v 2.56642 36.57158 c 0,0.70576 2.32071,2.56642 3.20071,2.56642 h 52.81515 c 0.88002,0 3.20071,-1.86066 3.20071,-2.56642 v -35.28836 c 0,-1.92482 -0.80004,-2.56643 -3.20071,-2.56643 z"
       id="path4-3"
       sodipodi:nodetypes="sccsssccsssssss" />
    <path
       style="fill:#f2f2f2;fill-opacity:1;stroke-width:0.176565"
       d="m 442.3495,510.65747 c 0,1.32548 -0.79577,2.40995 -2.61715,2.40995 h -46.19558 c -1.82139,0 -2.51852,-1.08447 -2.51852,-2.40995 v -7.22985 c 0,-1.32548 0.69713,-2.40996 2.51852,-2.40996 h 46.09645 c 1.82137,0 2.71628,1.08448 2.71628,2.40996 z"
       id="path8-6"
       sodipodi:nodetypes="sssssssss" />
    <path
       style="fill:url(#linearGradient844);fill-opacity:1;stroke-width:0.19334"
       d="m 443.32803,505.12949 h -53.5132 c -1.62182,0 -3.2434,1.47526 -3.2434,2.95052 v 28.76748 c 0,1.95107 1.25422,2.95051 3.2434,2.95051 h 53.5132 c 1.9955,0 3.2434,-0.99944 3.2434,-2.95051 v -28.76748 c 0,-1.47526 -1.62159,-2.95052 -3.2434,-2.95052 z"
       id="path10"
       sodipodi:nodetypes="sssssssss" />
    <path
       fill-rule="evenodd"
       clip-rule="evenodd"
       d="m 441.5229,525.5662 c 0.008,0 0.0154,-0.005 0.0239,-0.005 1.1357,0.11233 2.02478,1.07062 2.02478,2.23681 0,1.16853 -0.89017,2.12877 -2.0303,2.23915 -0.002,0.005 -0.005,0.01 -0.007,0.0154 -0.008,-5.6e-4 -0.0149,-0.005 -0.0239,-0.005 -0.28667,0 -0.60611,0.0511 -0.72476,0.33779 -0.11865,0.28729 0.0494,0.53779 0.26916,0.75696 0.008,0.008 0.0179,0.0109 0.0261,0.0175 0.71846,0.88331 0.67779,2.17862 -0.14558,3.00206 -0.8226,0.82284 -2.119,0.8646 -3.00259,0.14667 -0.0132,0.008 -0.0275,0.01 -0.0407,0.0159 -0.006,-0.008 -0.008,-0.0154 -0.0149,-0.0225 -0.20352,-0.20271 -0.46417,-0.39277 -0.75119,-0.27303 -0.28752,0.11866 -0.34465,0.41419 -0.34465,0.72507 0,0.0281 0.008,0.0533 0.0168,0.0785 -0.14143,1.10742 -1.08051,1.96546 -2.22668,1.96546 -1.16675,0 -2.12557,-0.88827 -2.23902,-2.02534 -0.0124,-0.005 -0.0231,-0.0115 -0.0357,-0.0159 5.6e-4,-0.005 0.003,-0.0104 0.003,-0.0159 0,-0.2867 -0.0508,-0.60533 -0.33757,-0.72398 -0.28702,-0.11922 -0.53779,0.0494 -0.75721,0.26916 -0.0132,0.0132 -0.0197,0.0297 -0.0291,0.0451 -0.8825,0.691 -2.15637,0.64323 -2.96824,-0.16917 -0.82453,-0.82453 -0.86492,-2.12258 -0.14309,-3.00646 -0.008,-0.0154 -0.0118,-0.0319 -0.0184,-0.0483 0.20271,-0.20271 0.39192,-0.46364 0.27302,-0.75038 -0.11921,-0.2867 -0.41527,-0.34496 -0.72591,-0.34496 -0.0203,0 -0.0382,0.008 -0.0574,0.0126 -1.10659,-0.14052 -1.96434,-1.08153 -1.96434,-2.22644 0,-1.17113 0.89431,-2.13161 2.0374,-2.23902 0.003,-0.0101 0.009,-0.0192 0.0137,-0.0291 0.28263,-0.002 0.59161,-0.0555 0.70809,-0.33729 0.11866,-0.28621 -0.0484,-0.53558 -0.2675,-0.75475 -0.7199,-0.88275 -0.67951,-2.17971 0.14445,-3.00368 0.82696,-0.82755 2.13299,-0.86573 3.01659,-0.13485 0.009,-0.005 0.0189,-0.007 0.0286,-0.0107 0.20106,0.19804 0.45704,0.37765 0.73801,0.2615 0.28702,-0.11894 0.34471,-0.41527 0.34471,-0.72567 0,-7.5e-4 -5.6e-4,-0.002 -5.6e-4,-0.003 0.11394,-1.13627 1.07031,-2.02341 2.23649,-2.02341 1.17307,0 2.13467,0.89706 2.23958,2.04236 0.002,7.5e-4 0.004,0.003 0.006,0.003 0,0.0673 0.004,0.13651 0.0121,0.20433 h -0.008 c 0,0.31036 -0.25158,0.56279 -0.5625,0.56279 -0.31009,0 -0.56195,-0.25243 -0.56195,-0.56279 0,-0.62157 -0.50401,-1.12502 -1.1253,-1.12502 -0.62156,0 -1.12501,0.50345 -1.12501,1.12502 v 0.56279 l -0.004,0.005 c 0.0102,0.37188 -0.2263,0.71905 -0.59956,0.83 -0.009,0.003 -0.0187,0.003 -0.0274,0.005 l -0.007,0.009 c -0.26313,0.0885 -0.51858,0.19393 -0.76359,0.31806 l -0.0162,-0.002 c -0.01,0.005 -0.0173,0.0129 -0.0269,0.0184 -0.36394,0.19694 -0.80776,0.0983 -1.05769,-0.21369 l -0.35075,-0.35047 c -0.43975,-0.43946 -1.15219,-0.43946 -1.59113,0 -0.43914,0.43945 -0.43914,1.15194 0,1.59083 l 0.39769,0.39798 0.002,0.0168 c 0.26312,0.25706 0.33895,0.66358 0.15519,1.00306 -0.003,0.005 -0.007,0.009 -0.0102,0.0143 l 0.003,0.019 c -0.12249,0.24529 -0.2296,0.5007 -0.3175,0.76438 l -0.017,0.0132 c -0.003,0.01 -0.003,0.0195 -0.006,0.0297 -0.11946,0.40155 -0.51139,0.64434 -0.91295,0.59435 h -0.47588 c -0.62157,0 -1.12526,0.50401 -1.12526,1.12501 0,0.62087 0.50369,1.12516 1.12526,1.12516 h 0.56194 l 0.0168,0.0126 c 0.36394,-5.6e-4 0.70092,0.23291 0.81022,0.59932 7.5e-4,0.003 7.5e-4,0.007 10e-4,0.01 l 0.0208,0.0154 c 0.0885,0.26311 0.19446,0.51856 0.31807,0.76353 l -0.005,0.034 c 0.004,0.007 0.008,0.0116 0.0121,0.0181 0.19695,0.36366 0.0983,0.80752 -0.21368,1.05744 l -0.34169,0.34222 c -0.43914,0.4389 -0.43914,1.15138 0,1.59084 0.4389,0.43889 1.15138,0.43889 1.59112,0 l 0.39797,-0.39769 0.0165,-0.003 c 0.2565,-0.25598 0.65859,-0.32795 0.99395,-0.14668 0.002,7.5e-4 0.004,0.003 0.006,0.005 l 0.0362,-0.005 c 0.24529,0.12249 0.5007,0.2296 0.76438,0.3175 l 0.0226,0.0297 c 0.004,0.002 0.008,0.002 0.0115,0.003 0.3675,0.10877 0.60065,0.44716 0.59956,0.81243 l 0.004,0.005 v 0.563 c 0,0.62129 0.50345,1.12502 1.12502,1.12502 0.62129,0 1.12529,-0.50373 1.12529,-1.12502 v -0.56303 l 0.004,-0.005 c -7.5e-4,-0.36532 0.23211,-0.70313 0.5996,-0.81243 0.004,-10e-4 0.008,-10e-4 0.0119,-0.003 l 0.0223,-0.0291 c 0.26311,-0.0884 0.51827,-0.19392 0.76349,-0.31806 l 0.0371,0.005 c 0.002,-0.002 0.004,-0.003 0.006,-0.005 0.33536,-0.18127 0.73748,-0.10931 0.99399,0.14667 l 0.0168,0.003 0.39797,0.39769 c 0.43889,0.43889 1.15138,0.43889 1.59112,0 0.43918,-0.43946 0.43918,-1.15194 0,-1.59084 l -0.34197,-0.34221 c -0.31201,-0.24993 -0.41035,-0.69379 -0.2134,-1.05745 0.004,-0.007 0.008,-0.0121 0.0118,-0.0181 l -0.005,-0.0373 c 0.12249,-0.24497 0.23046,-0.49711 0.3175,-0.75967 l 0.022,-0.0165 c 7.5e-4,-0.003 10e-4,-0.006 0.002,-0.009 0.10906,-0.3664 0.44579,-0.59932 0.80969,-0.59932 l 0.0165,-0.0126 h 0.56271 c 0.62157,0 1.12502,-0.50428 1.12502,-1.12515 0,-0.621 -0.50345,-1.12501 -1.12502,-1.12501 h -0.47619 c -0.40212,0.05 -0.79349,-0.1928 -0.9127,-0.59436 -0.003,-0.0101 -0.004,-0.0203 -0.006,-0.0304 l -0.0168,-0.0124 c -0.0882,-0.26311 -0.19448,-0.51855 -0.31781,-0.763 l 0.003,-0.0197 c -0.003,-0.005 -0.007,-0.01 -0.0102,-0.0148 -0.18377,-0.33948 -0.10794,-0.746 0.1549,-1.00306 l 0.002,-0.0168 0.39797,-0.39797 c 0.43918,-0.4389 0.43918,-1.15139 0,-1.59084 -0.20876,-0.20816 -0.51416,-0.3271 -0.78744,-0.33782 -0.31093,0 -0.56279,-0.25158 -0.56279,-0.56251 0,-0.31093 0.25186,-0.56251 0.56279,-0.56251 0.0403,0 0.0794,0.004 0.11757,0.0124 0.529,0.0346 1.06239,0.25186 1.46504,0.65507 0.8264,0.82619 0.86567,2.12916 0.13845,3.01275 0.003,0.005 0.004,0.0118 0.007,0.0173 -0.003,0.002 -0.006,0.003 -0.009,0.006 -0.20296,0.20324 -0.39277,0.46417 -0.27384,0.75175 0.11855,0.28699 0.41488,0.34468 0.72521,0.34468 z m -3.85757,-2.83121 c -0.31093,0 -0.56251,-0.25214 -0.56251,-0.56278 0,-0.31008 0.25158,-0.56195 0.56251,-0.56195 0.31009,0 0.56194,0.25187 0.56194,0.56195 0,0.31064 -0.25185,0.56278 -0.56194,0.56278 z m -5.06273,6.46894 c 0.31092,0 0.56278,0.25158 0.56278,0.5625 0,0.31092 -0.25186,0.56248 -0.56278,0.56248 -0.31064,0 -0.56251,-0.25156 -0.56251,-0.56248 0,-0.31092 0.25187,-0.5625 0.56251,-0.5625 z m -1.40595,-1.40641 c 0,-1.86383 1.51114,-3.37501 3.37469,-3.37501 1.86386,0 3.37496,1.51118 3.37496,3.37501 0,1.864 -1.5111,3.37514 -3.37496,3.37514 -0.31065,0 -0.56251,-0.25214 -0.56251,-0.5625 0,-0.31037 0.25186,-0.56304 0.56251,-0.56304 1.24285,0 2.24974,-1.00692 2.24974,-2.2496 0,-1.24254 -1.00693,-2.24974 -2.24974,-2.24974 -1.24255,0 -2.25028,1.00717 -2.25028,2.24974 0,0.31107 -0.25186,0.56264 -0.56194,0.56264 -0.31093,0 -0.56247,-0.25157 -0.56247,-0.56264 z"
       id="path2"
       style="fill:#f2f2f2;fill-opacity:1;stroke-width:0.0351567" />
  </g>
</svg>
