<?xml version="1.0" encoding="UTF-8" standalone="no"?>
<svg
   width="64"
   version="1.1"
   height="64"
   id="svg17"
   sodipodi:docname="folder-extension.svg"
   inkscape:version="1.1.1 (3bf5ae0d25, 2021-09-20)"
   xmlns:inkscape="http://www.inkscape.org/namespaces/inkscape"
   xmlns:sodipodi="http://sodipodi.sourceforge.net/DTD/sodipodi-0.dtd"
   xmlns:xlink="http://www.w3.org/1999/xlink"
   xmlns="http://www.w3.org/2000/svg"
   xmlns:svg="http://www.w3.org/2000/svg"
   xmlns:rdf="http://www.w3.org/1999/02/22-rdf-syntax-ns#"
   xmlns:cc="http://creativecommons.org/ns#"
   xmlns:dc="http://purl.org/dc/elements/1.1/">
  <sodipodi:namedview
     pagecolor="#ffffff"
     bordercolor="#666666"
     borderopacity="1"
     objecttolerance="10"
     gridtolerance="10"
     guidetolerance="10"
     inkscape:pageopacity="0"
     inkscape:pageshadow="2"
     inkscape:window-width="1920"
     inkscape:window-height="1011"
     id="namedview19"
     showgrid="true"
     inkscape:zoom="9.8125004"
     inkscape:cx="36.178342"
     inkscape:cy="25.630572"
     inkscape:window-x="0"
     inkscape:window-y="0"
     inkscape:window-maximized="1"
     inkscape:current-layer="layer1"
     inkscape:document-rotation="0"
     inkscape:pagecheckerboard="0">
    <inkscape:grid
       type="xygrid"
       id="grid908" />
  </sodipodi:namedview>
  <defs
     id="defs5455">
    <linearGradient
       inkscape:collect="always"
       id="linearGradient842">
      <stop
         style="stop-color:#326e9a;stop-opacity:1"
         offset="0"
         id="stop838" />
      <stop
         style="stop-color:#339993;stop-opacity:1"
         offset="1"
         id="stop840" />
    </linearGradient>
    <linearGradient
       inkscape:collect="always"
       xlink:href="#linearGradient860"
       id="linearGradient862"
       x1="113.94677"
       y1="255.36646"
       x2="406.08289"
       y2="255.36646"
       gradientUnits="userSpaceOnUse"
       gradientTransform="matrix(0.20270272,0,0,0.18440693,363.86886,467.51047)" />
    <linearGradient
       inkscape:collect="always"
       id="linearGradient860">
      <stop
         style="stop-color:#78acd3;stop-opacity:1"
         offset="0"
         id="stop856" />
      <stop
         style="stop-color:#d98cbb;stop-opacity:1"
         offset="1"
         id="stop858" />
    </linearGradient>
    <linearGradient
       inkscape:collect="always"
       xlink:href="#linearGradient842"
       id="linearGradient844"
       x1="386.30626"
       y1="522.45407"
       x2="446.83023"
       y2="522.45407"
       gradientUnits="userSpaceOnUse"
       gradientTransform="matrix(0.99134272,0,0,0.99944172,3.6095298,0.30134255)" />
  </defs>
  <metadata
     id="metadata5458">
    <rdf:RDF>
      <cc:Work
         rdf:about="">
        <dc:format>image/svg+xml</dc:format>
        <dc:type
           rdf:resource="http://purl.org/dc/dcmitype/StillImage" />
      </cc:Work>
    </rdf:RDF>
  </metadata>
  <g
     inkscape:label="Capa 1"
     inkscape:groupmode="layer"
     id="layer1"
     transform="translate(-384.57143,-483.798)">
    <path
       style="fill:url(#linearGradient862);fill-opacity:1;stroke-width:0.179137"
       d="m 416.57459,496.95765 c -0.88033,0 -1.92238,-0.5165 -2.31692,-1.14784 l -1.7701,-2.83719 c -0.39274,-0.63133 -1.43479,-1.14667 -2.3148,-1.14782 l -20.40112,-0.0268 c -1.94601,-0.003 -2.7662,0.93496 -2.79385,3.00415 l -0.0117,0.87228 v 2.56642 36.57158 c 0,0.70576 2.3207,2.56642 3.20071,2.56642 h 52.81514 c 0.88002,0 3.20072,-1.86066 3.20072,-2.56642 v -35.28836 c 0,-1.92482 -0.80005,-2.56643 -3.20072,-2.56643 z"
       id="path4-3"
       sodipodi:nodetypes="sccsssccsssssss" />
    <path
       style="fill:#f2f2f2;fill-opacity:1;stroke-width:0.176565"
       d="m 442.34949,510.65747 c 0,1.32548 -0.79577,2.40995 -2.61714,2.40995 h -46.19558 c -1.8214,0 -2.51852,-1.08447 -2.51852,-2.40995 v -7.22985 c 0,-1.32548 0.69712,-2.40996 2.51852,-2.40996 h 46.09644 c 1.82138,0 2.71628,1.08448 2.71628,2.40996 z"
       id="path8-6"
       sodipodi:nodetypes="sssssssss" />
    <path
       style="fill:url(#linearGradient844);fill-opacity:1;stroke-width:0.19334"
       d="m 443.32803,505.1295 h -53.51321 c -1.62181,0 -3.24339,1.47525 -3.24339,2.95052 v 28.76747 c 0,1.95106 1.25421,2.95051 3.24339,2.95051 h 53.51321 c 1.9955,0 3.2434,-0.99945 3.2434,-2.95051 v -28.76747 c 0,-1.47527 -1.62159,-2.95052 -3.2434,-2.95052 z"
       id="path10"
       sodipodi:nodetypes="sssssssss" />
    <path
       d="m 425.57143,533.05007 a 0.65877594,0.65877594 0 0 0 0.65854,0.65854 h 3.10654 a 3.748647,3.748647 0 0 0 7.38044,0 h 3.10656 a 0.65878472,0.65878472 0 0 0 0.65854,-0.65854 v -3.10654 a 3.748647,3.748647 0 0 0 0,-7.38045 v -3.10654 a 0.65878472,0.65878472 0 0 0 -0.65854,-0.65854 h -3.08944 a 0.65849056,0.65849056 0 0 0 -0.65853,0.65854 2.4308843,2.4308843 0 0 1 -4.86176,0 0.65877594,0.65877594 0 0 0 -0.65854,-0.65854 h -4.32527 a 0.65877594,0.65877594 0 0 0 -0.65854,0.65854 v 3.70712 a 0.65849494,0.65849494 0 0 0 0.65854,0.65854 2.431105,2.431105 0 0 1 0,4.86221 0.65849494,0.65849494 0 0 0 -0.65854,0.65853 z m 1.31709,-0.65854 v -2.448 a 3.7486513,3.7486513 0 0 0 0,-7.38045 v -2.44799 h 3.06571 a 3.748647,3.748647 0 0 0 7.38045,0 h 1.83031 v 3.04859 a 0.65849494,0.65849494 0 0 0 0.65853,0.65854 2.4311039,2.4311039 0 0 1 0,4.8622 0.65849494,0.65849494 0 0 0 -0.65853,0.65853 v 3.0486 h -3.04861 a 0.65849494,0.65849494 0 0 0 -0.65854,0.65854 2.4311052,2.4311052 0 0 1 -4.86221,0 0.65849494,0.65849494 0 0 0 -0.65854,-0.65854 z"
       fill-rule="evenodd"
       id="path2"
       style="fill:#f2f2f2;fill-opacity:1;stroke-width:0.439049" />
  </g>
</svg>
