<?xml version="1.0" encoding="UTF-8" standalone="no"?>
<svg
   width="64"
   version="1.1"
   height="64"
   id="svg17"
   sodipodi:docname="folder-table.svg"
   inkscape:version="1.1.1 (3bf5ae0d25, 2021-09-20)"
   xmlns:inkscape="http://www.inkscape.org/namespaces/inkscape"
   xmlns:sodipodi="http://sodipodi.sourceforge.net/DTD/sodipodi-0.dtd"
   xmlns:xlink="http://www.w3.org/1999/xlink"
   xmlns="http://www.w3.org/2000/svg"
   xmlns:svg="http://www.w3.org/2000/svg"
   xmlns:rdf="http://www.w3.org/1999/02/22-rdf-syntax-ns#"
   xmlns:cc="http://creativecommons.org/ns#"
   xmlns:dc="http://purl.org/dc/elements/1.1/">
  <sodipodi:namedview
     pagecolor="#ffffff"
     bordercolor="#666666"
     borderopacity="1"
     objecttolerance="10"
     gridtolerance="10"
     guidetolerance="10"
     inkscape:pageopacity="0"
     inkscape:pageshadow="2"
     inkscape:window-width="1920"
     inkscape:window-height="1011"
     id="namedview19"
     showgrid="true"
     inkscape:zoom="9.8125004"
     inkscape:cx="33.019107"
     inkscape:cy="34.191081"
     inkscape:window-x="0"
     inkscape:window-y="0"
     inkscape:window-maximized="1"
     inkscape:current-layer="layer1"
     inkscape:document-rotation="0"
     inkscape:pagecheckerboard="0">
    <inkscape:grid
       type="xygrid"
       id="grid908" />
  </sodipodi:namedview>
  <defs
     id="defs5455">
    <linearGradient
       inkscape:collect="always"
       id="linearGradient842">
      <stop
         style="stop-color:#326e9a;stop-opacity:1"
         offset="0"
         id="stop838" />
      <stop
         style="stop-color:#339993;stop-opacity:1"
         offset="1"
         id="stop840" />
    </linearGradient>
    <linearGradient
       inkscape:collect="always"
       xlink:href="#linearGradient860"
       id="linearGradient862"
       x1="113.94677"
       y1="255.36646"
       x2="406.08289"
       y2="255.36646"
       gradientUnits="userSpaceOnUse"
       gradientTransform="matrix(0.20270272,0,0,0.18440692,363.86888,467.51048)" />
    <linearGradient
       inkscape:collect="always"
       id="linearGradient860">
      <stop
         style="stop-color:#78acd3;stop-opacity:1"
         offset="0"
         id="stop856" />
      <stop
         style="stop-color:#d98cbb;stop-opacity:1"
         offset="1"
         id="stop858" />
    </linearGradient>
    <linearGradient
       inkscape:collect="always"
       xlink:href="#linearGradient842"
       id="linearGradient844"
       x1="386.30626"
       y1="522.45407"
       x2="446.83023"
       y2="522.45407"
       gradientUnits="userSpaceOnUse"
       gradientTransform="matrix(0.99134278,0,0,0.99944168,3.6095128,0.30138019)" />
  </defs>
  <metadata
     id="metadata5458">
    <rdf:RDF>
      <cc:Work
         rdf:about="">
        <dc:format>image/svg+xml</dc:format>
        <dc:type
           rdf:resource="http://purl.org/dc/dcmitype/StillImage" />
      </cc:Work>
    </rdf:RDF>
  </metadata>
  <g
     inkscape:label="Capa 1"
     inkscape:groupmode="layer"
     id="layer1"
     transform="translate(-384.57143,-483.798)">
    <path
       style="fill:url(#linearGradient862);fill-opacity:1;stroke-width:0.179137"
       d="m 416.57457,496.95766 c -0.88031,0 -1.92235,-0.51649 -2.31688,-1.14784 l -1.77011,-2.83719 c -0.39276,-0.63133 -1.43479,-1.14667 -2.31482,-1.14782 l -20.40109,-0.0268 c -1.94602,-0.003 -2.7662,0.93496 -2.79388,3.00415 l -0.0118,0.87228 v 2.56642 36.57157 c 0,0.70576 2.3207,2.56642 3.20073,2.56642 h 52.81513 c 0.88004,0 3.20074,-1.86066 3.20074,-2.56642 v -35.28835 c 0,-1.92482 -0.80006,-2.56643 -3.20074,-2.56643 z"
       id="path4-3"
       sodipodi:nodetypes="sccsssccsssssss" />
    <path
       style="fill:#f2f2f2;fill-opacity:1;stroke-width:0.176564"
       d="m 442.34951,510.65748 c 0,1.32548 -0.79579,2.40995 -2.61714,2.40995 h -46.19561 c -1.82137,0 -2.51851,-1.08447 -2.51851,-2.40995 v -7.22985 c 0,-1.32548 0.69714,-2.40996 2.51851,-2.40996 h 46.09645 c 1.8214,0 2.7163,1.08448 2.7163,2.40996 z"
       id="path8-6"
       sodipodi:nodetypes="sssssssss" />
    <path
       style="fill:url(#linearGradient844);fill-opacity:1;stroke-width:0.193339"
       d="m 443.32805,505.1295 h -53.51324 c -1.62179,0 -3.24338,1.47526 -3.24338,2.95052 v 28.76747 c 0,1.95107 1.25422,2.95051 3.24338,2.95051 h 53.51324 c 1.99548,0 3.24338,-0.99944 3.24338,-2.95051 v -28.76747 c 0,-1.47526 -1.6216,-2.95052 -3.24338,-2.95052 z"
       id="path10"
       sodipodi:nodetypes="sssssssss" />
    <path
       fill-rule="evenodd"
       clip-rule="evenodd"
       d="m 440.70064,536.798 h -9.6435 c -0.35453,0 -0.64221,-0.28849 -0.64221,-0.64286 0,-0.35534 0.28768,-0.64318 0.64221,-0.64318 h 9.6435 c 0.71004,0 1.28572,-0.57568 1.28572,-1.28571 v -12.85714 c 0,-0.71004 -0.57568,-1.2854 -1.28572,-1.2854 h -12.85746 c -0.70987,0 -1.28588,0.57536 -1.28588,1.2854 v 12.21428 c 0,0.35534 -0.28751,0.64286 -0.64286,0.64286 -0.35469,0 -0.64301,-0.28752 -0.64301,-0.64286 v -12.21428 c 0,-1.42008 1.15184,-2.57111 2.57175,-2.57111 h 12.85746 c 1.41975,0 2.57079,1.15103 2.57079,2.57111 v 12.85714 c 0,1.42007 -1.15104,2.57175 -2.57079,2.57175 z m -12.21445,-1.28604 c 0.35454,0 0.64286,0.28784 0.64286,0.64318 0,0.35437 -0.28832,0.64286 -0.64286,0.64286 -0.35533,0 -0.64301,-0.28849 -0.64301,-0.64286 0,-0.35534 0.28768,-0.64318 0.64301,-0.64318 z"
       id="path2"
       style="fill:#f2f2f2;fill-opacity:1;stroke-width:0.0401785" />
    <path
       fill-rule="evenodd"
       clip-rule="evenodd"
       d="m 438.85059,533.85463 h -2.64136 c -0.2082,0 -0.37753,-0.16914 -0.37753,-0.37734 0,-0.20857 0.16933,-0.37734 0.37753,-0.37734 h 2.45268 c 0.52107,0 0.94336,-0.42229 0.94336,-0.94335 v -2.4527 c 0,-0.20857 0.16877,-0.37771 0.37734,-0.37771 0.20858,0 0.37734,0.16914 0.37734,0.37771 v 2.64137 c 0,0.83355 -0.67581,1.50936 -1.50936,1.50936 z m -10.1882,-8.30133 c 0.20857,0 0.37743,0.16877 0.37743,0.37731 0,0.20801 -0.16886,0.37697 -0.37743,0.37697 -0.20848,0 -0.37735,-0.16896 -0.37735,-0.37697 0,-0.20854 0.16887,-0.37731 0.37735,-0.37731 z m 11.68355,1.70593 c -0.005,0.0406 -0.0113,0.0809 -0.0199,0.12014 -0.004,0.0192 -0.01,0.0372 -0.0144,0.0559 -0.009,0.0328 -0.0169,0.066 -0.0277,0.098 -0.004,0.014 -0.01,0.028 -0.0151,0.042 -0.0137,0.0368 -0.0273,0.0734 -0.0438,0.10854 -0.004,0.009 -0.009,0.0181 -0.0131,0.0273 -0.0184,0.0383 -0.0382,0.0764 -0.0595,0.11274 -0.005,0.008 -0.009,0.0149 -0.0136,0.0225 -0.0232,0.0376 -0.0477,0.0744 -0.074,0.1101 -0.004,0.004 -0.008,0.0103 -0.0113,0.0151 -0.0286,0.0373 -0.0584,0.0737 -0.0901,0.10796 -0.002,0.003 -0.005,0.007 -0.008,0.009 -0.0343,0.0372 -0.0708,0.0725 -0.10869,0.10613 -0.26606,0.234 -0.61392,0.37734 -0.99605,0.37734 v 0.0192 c -0.061,-0.0122 -0.12419,-0.0192 -0.18867,-0.0192 h -2.64132 c -0.52104,0 -0.94333,0.42229 -0.94333,0.94332 v 2.64137 c 0,0.0644 0.007,0.12787 0.0194,0.18867 h -0.0194 c 0,0.38213 -0.14316,0.72999 -0.37734,0.99603 -0.0336,0.038 -0.0689,0.0745 -0.10613,0.1087 -0.002,0.002 -0.005,0.005 -0.009,0.008 -0.0345,0.0316 -0.0709,0.0616 -0.10816,0.0899 -0.004,0.004 -0.0103,0.008 -0.0151,0.0113 -0.0358,0.0262 -0.0724,0.0508 -0.11009,0.0741 -0.008,0.005 -0.0148,0.009 -0.0224,0.0136 -0.0364,0.0214 -0.0745,0.041 -0.11285,0.0593 -0.009,0.004 -0.0181,0.009 -0.0273,0.0133 -0.0352,0.0166 -0.0716,0.0302 -0.10844,0.0438 -0.014,0.005 -0.028,0.0107 -0.042,0.0152 -0.0321,0.0107 -0.0652,0.0192 -0.098,0.0277 -0.0189,0.005 -0.0368,0.0103 -0.056,0.0144 -0.0391,0.009 -0.0796,0.0147 -0.12004,0.0199 -0.0113,0.001 -0.0216,0.004 -0.0332,0.005 -0.0537,0.007 -0.10851,0.009 -0.16369,0.009 h -3.77315 c -0.83361,-8e-5 -1.50953,-0.6759 -1.50953,-1.50944 v -3.77337 c 0,-0.83364 0.67592,-1.50946 1.50953,-1.50946 h 0.37743 2.45241 c 0.52116,0 0.94336,-0.42229 0.94336,-0.94335 v -2.64136 c 0,-0.52103 -0.4222,-0.94333 -0.94336,-0.94333 h -2.64126 c -0.52104,0 -0.94326,0.4223 -0.94326,0.94333 v 0.94336 c 0,0.20838 -0.16886,0.37734 -0.37743,0.37734 -0.20849,0 -0.37734,-0.16896 -0.37734,-0.37734 v -1.13187 c 2e-5,-0.8337 0.67593,-1.50952 1.50954,-1.50952 h 3.01881 c 0.0552,0 0.10926,0.002 0.16287,0.009 0.0125,7.5e-4 0.0244,0.005 0.0368,0.007 0.0397,0.005 0.0789,0.0112 0.11763,0.0195 0.018,0.004 0.0349,0.009 0.0528,0.0136 0.0341,0.009 0.0677,0.017 0.10052,0.028 0.0135,0.005 0.0272,0.0101 0.0409,0.0149 0.0368,0.0136 0.074,0.0277 0.10961,0.044 0.01,0.005 0.0193,0.009 0.0289,0.0136 0.0376,0.0179 0.0749,0.0376 0.11082,0.0588 0.008,0.004 0.0152,0.009 0.0229,0.014 0.0376,0.0232 0.0745,0.0476 0.11007,0.074 0.005,0.004 0.0104,0.008 0.0152,0.0113 0.0373,0.0283 0.0736,0.0584 0.10806,0.0899 0.002,0.002 0.005,0.005 0.009,0.008 0.0373,0.0345 0.0724,0.0708 0.10603,0.10889 0.23418,0.26604 0.37743,0.61391 0.37743,0.99601 h 0.0193 c -0.0125,0.0608 -0.0193,0.12401 -0.0193,0.18848 v 2.82985 c 0,0.83373 -0.67591,1.50955 -1.50917,1.50955 h -2.83025 c -0.52104,0 -0.94326,0.42238 -0.94326,0.94344 v 3.39603 c 0,0.52105 0.4222,0.94335 0.94326,0.94335 h 3.39623 c 0.52103,0 0.94326,-0.4223 0.94326,-0.94335 v -2.83067 c 0,-0.83352 0.67584,-1.50905 1.50917,-1.50905 h 2.8302 c 0.52107,0 0.94335,-0.42211 0.94335,-0.94316 v -3.39626 c 0,-0.52104 -0.42228,-0.94333 -0.94335,-0.94333 h -3.20719 c -0.20839,0 -0.37753,-0.16877 -0.37753,-0.37734 0,-0.20858 0.16914,-0.37734 0.37753,-0.37734 h 3.39583 c 0.83355,0 1.50936,0.67581 1.50936,1.50952 v 3.7732 c 0,0.0551 -0.003,0.10999 -0.009,0.16363 -7.5e-4,0.0116 -0.003,0.0221 -0.005,0.0332 z"
       id="path2-3-3"
       style="fill:#f2f2f2;fill-opacity:1;stroke-width:0.0235835" />
  </g>
</svg>
