<?xml version="1.0" encoding="UTF-8" standalone="no"?>
<svg
   width="64"
   version="1.1"
   height="64"
   id="svg17"
   sodipodi:docname="folder-Relax.svg"
   inkscape:version="1.1.1 (3bf5ae0d25, 2021-09-20)"
   xmlns:inkscape="http://www.inkscape.org/namespaces/inkscape"
   xmlns:sodipodi="http://sodipodi.sourceforge.net/DTD/sodipodi-0.dtd"
   xmlns:xlink="http://www.w3.org/1999/xlink"
   xmlns="http://www.w3.org/2000/svg"
   xmlns:svg="http://www.w3.org/2000/svg"
   xmlns:rdf="http://www.w3.org/1999/02/22-rdf-syntax-ns#"
   xmlns:cc="http://creativecommons.org/ns#"
   xmlns:dc="http://purl.org/dc/elements/1.1/">
  <sodipodi:namedview
     pagecolor="#ffffff"
     bordercolor="#666666"
     borderopacity="1"
     objecttolerance="10"
     gridtolerance="10"
     guidetolerance="10"
     inkscape:pageopacity="0"
     inkscape:pageshadow="2"
     inkscape:window-width="1920"
     inkscape:window-height="1006"
     id="namedview19"
     showgrid="true"
     inkscape:zoom="13.876971"
     inkscape:cx="20.321438"
     inkscape:cy="35.022052"
     inkscape:window-x="0"
     inkscape:window-y="0"
     inkscape:window-maximized="1"
     inkscape:current-layer="layer1"
     inkscape:document-rotation="0"
     inkscape:pagecheckerboard="0">
    <inkscape:grid
       type="xygrid"
       id="grid908" />
  </sodipodi:namedview>
  <defs
     id="defs5455">
    <linearGradient
       inkscape:collect="always"
       id="linearGradient842">
      <stop
         style="stop-color:#326e9a;stop-opacity:1"
         offset="0"
         id="stop838" />
      <stop
         style="stop-color:#339993;stop-opacity:1"
         offset="1"
         id="stop840" />
    </linearGradient>
    <linearGradient
       inkscape:collect="always"
       xlink:href="#linearGradient860"
       id="linearGradient862"
       x1="113.94677"
       y1="255.36646"
       x2="406.08289"
       y2="255.36646"
       gradientUnits="userSpaceOnUse"
       gradientTransform="matrix(0.20270273,0,0,0.18440695,363.86886,467.51047)" />
    <linearGradient
       inkscape:collect="always"
       id="linearGradient860">
      <stop
         style="stop-color:#78acd3;stop-opacity:1"
         offset="0"
         id="stop856" />
      <stop
         style="stop-color:#d98cbb;stop-opacity:1"
         offset="1"
         id="stop858" />
    </linearGradient>
    <linearGradient
       inkscape:collect="always"
       xlink:href="#linearGradient842"
       id="linearGradient844"
       x1="386.30626"
       y1="522.45407"
       x2="446.83023"
       y2="522.45407"
       gradientUnits="userSpaceOnUse"
       gradientTransform="matrix(0.99134277,0,0,0.99944183,3.6095126,0.30129674)" />
    <linearGradient
       inkscape:collect="always"
       id="linearGradient836">
      <stop
         style="stop-color:#ffb380;stop-opacity:1"
         offset="0"
         id="stop832" />
      <stop
         style="stop-color:#20ffff;stop-opacity:1"
         offset="0.48615947"
         id="stop1390" />
      <stop
         style="stop-color:#ffaeff;stop-opacity:1"
         offset="1"
         id="stop834" />
    </linearGradient>
    <linearGradient
       inkscape:collect="always"
       xlink:href="#linearGradient836"
       id="linearGradient900"
       x1="407.18054"
       y1="519.77393"
       x2="416.80774"
       y2="519.77393"
       gradientUnits="userSpaceOnUse" />
  </defs>
  <metadata
     id="metadata5458">
    <rdf:RDF>
      <cc:Work
         rdf:about="">
        <dc:format>image/svg+xml</dc:format>
        <dc:type
           rdf:resource="http://purl.org/dc/dcmitype/StillImage" />
      </cc:Work>
    </rdf:RDF>
  </metadata>
  <g
     inkscape:label="Capa 1"
     inkscape:groupmode="layer"
     id="layer1"
     transform="translate(-384.57143,-483.798)">
    <path
       style="fill:url(#linearGradient862);fill-opacity:1;stroke-width:0.179138"
       d="m 416.57459,496.95765 c -0.88032,0 -1.92237,-0.51649 -2.31692,-1.14784 l -1.7701,-2.83719 c -0.39274,-0.63133 -1.43479,-1.14667 -2.3148,-1.14782 l -20.40112,-0.0268 c -1.946,-0.003 -2.7662,0.93496 -2.79385,3.00415 l -0.0117,0.87228 v 2.56642 36.57158 c 0,0.70576 2.32071,2.56642 3.20071,2.56642 h 52.81515 c 0.88002,0 3.20071,-1.86066 3.20071,-2.56642 v -35.28836 c 0,-1.92482 -0.80004,-2.56643 -3.20071,-2.56643 z"
       id="path4-3"
       sodipodi:nodetypes="sccsssccsssssss" />
    <path
       style="fill:#f2f2f2;fill-opacity:1;stroke-width:0.176565"
       d="m 442.3495,510.65747 c 0,1.32548 -0.79577,2.40995 -2.61715,2.40995 h -46.19558 c -1.82139,0 -2.51852,-1.08447 -2.51852,-2.40995 v -7.22985 c 0,-1.32548 0.69713,-2.40996 2.51852,-2.40996 h 46.09645 c 1.82137,0 2.71628,1.08448 2.71628,2.40996 z"
       id="path8-6"
       sodipodi:nodetypes="sssssssss" />
    <path
       style="fill:url(#linearGradient844);fill-opacity:1;stroke-width:0.19334"
       d="m 443.32803,505.12949 h -53.5132 c -1.62182,0 -3.2434,1.47526 -3.2434,2.95052 v 28.76748 c 0,1.95107 1.25422,2.95051 3.2434,2.95051 h 53.5132 c 1.9955,0 3.2434,-0.99944 3.2434,-2.95051 v -28.76748 c 0,-1.47526 -1.62159,-2.95052 -3.2434,-2.95052 z"
       id="path10"
       sodipodi:nodetypes="sssssssss" />
    <path
       d="m 441.83309,531.88681 1.69312,-0.4389 -1.78135,-0.25107 0.12267,-0.2303 -0.63462,0.0672 0.11488,-0.16392 -1.05617,0.14548 v -0.22238 l -0.80796,0.22647 v -0.2527 l -0.67958,0.25626 v -0.25189 l -0.69938,0.39409 v -0.23112 l -0.63053,0.38424 v -0.2971 l -0.24956,0.23481 -0.12472,-0.0934 0.59857,-0.31909 -0.0996,-0.0712 0.55158,-0.21664 -0.17403,-0.12431 0.89527,-0.46728 -0.27415,-0.0499 0.67697,-0.41145 -0.20094,-0.0752 0.54296,-0.40445 -0.21022,-0.022 0.36511,-0.29027 -0.18072,-0.11379 0.5714,-0.55156 -0.16241,-0.0813 0.60443,-0.60444 -0.29969,-0.0251 0.36511,-0.46936 -0.20572,-0.0615 0.4475,-0.61017 -0.19711,-0.0437 0.31868,-0.49639 -0.10723,-0.0534 0.60227,-0.60214 -0.29354,-0.0586 0.94797,-1.64274 -1.5415,1.15083 -4.1e-4,-0.28849 -0.57618,0.66483 v -0.19629 l -0.59091,0.5909 v -0.23399 l -0.57577,0.62056 v -0.32306 l -0.56744,0.88025 -0.0724,-0.2799 -0.4232,0.77835 -0.0983,-0.21296 -0.29247,0.5972 -0.0635,-0.26691 -0.30037,0.53887 v -0.35801 l -0.63669,1.34113 -0.13604,-0.23822 -0.36609,0.93584 -0.0717,-0.17909 -0.42508,0.90755 -0.0692,-0.18017 -0.46527,0.94581 -0.13318,-0.23413 -0.16487,0.63626 -0.14411,-0.025 0.25339,-0.68969 h -0.1142 l 0.2956,-0.70892 h -0.13154 l 0.26609,-0.798 h -0.18987 l 0.1478,-0.87216 h -0.12103 l 0.28098,-0.84199 h -0.24041 l 0.22184,-0.84226 -0.22539,-1.3e-4 0.0892,-0.7118 -0.1657,0.0688 0.12308,-0.78516 -0.18742,0.0938 0.0367,-0.64584 h -0.11255 l 0.0592,-0.72397 h -0.15504 l -0.0194,-0.94346 -0.15231,0.13073 -0.0862,-0.57017 -0.10313,0.0673 -0.13755,-1.16874 -0.10287,0.23126 -0.0959,-0.46963 -0.10136,0.10163 -0.37864,-1.91536 -0.37808,1.91536 -0.10122,-0.10163 -0.0959,0.46963 -0.10286,-0.23126 -0.13755,1.16874 -0.10314,-0.0673 -0.0862,0.57017 -0.1523,-0.13073 -0.0194,0.94346 h -0.15503 l 0.0592,0.72397 h -0.11296 l 0.0369,0.64556 -0.18714,-0.0936 0.1228,0.78474 -0.16487,-0.0688 0.0887,0.71193 h -0.22607 l 0.22184,0.84227 h -0.24041 l 0.28057,0.84198 h -0.12021 l 0.1478,0.87216 h -0.18961 l 0.26569,0.79799 h -0.13168 l 0.2956,0.70893 h -0.11406 l 0.25297,0.68969 -0.0919,0.0161 -0.16187,-0.62629 -0.13332,0.23359 -0.46484,-0.94581 -0.0694,0.18059 -0.42522,-0.90878 -0.0717,0.17949 -0.36609,-0.93584 -0.13605,0.23822 -0.63668,-1.34113 v 0.35801 l -0.29997,-0.53764 -0.0637,0.26691 -0.29313,-0.59815 -0.0981,0.21255 -0.42306,-0.77834 -0.0724,0.2803 -0.56744,-0.88024 v 0.32306 l -0.57619,-0.62042 v 0.23399 l -0.59091,-0.59091 v 0.19629 l -0.57618,-0.66483 v 0.28918 l -1.54165,-1.15069 0.94784,1.64232 -0.29286,0.0586 0.6017,0.60186 -0.10736,0.0535 0.31909,0.49613 -0.19724,0.0437 0.44777,0.61031 -0.2053,0.0615 0.36511,0.46936 -0.29929,0.0251 0.60364,0.60444 -0.16242,0.0814 0.57182,0.55146 -0.18072,0.11379 0.3651,0.29027 -0.21089,0.0223 0.54352,0.40445 -0.20053,0.0753 0.67672,0.41144 -0.27374,0.0499 0.89499,0.46729 -0.17361,0.1243 0.55104,0.21651 -0.0996,0.0709 0.59857,0.31937 -0.12472,0.0938 -0.24997,-0.23523 v 0.29683 l -0.63014,-0.38424 v 0.23126 l -0.69938,-0.3941 v 0.25189 l -0.67998,-0.25624 v 0.25256 l -0.80756,-0.22647 v 0.22265 l -1.05617,-0.14548 0.11487,0.16392 -0.63587,-0.0672 0.12321,0.23044 -1.78083,0.25093 1.69233,0.43862 -0.28713,0.15627 0.85565,0.0892 -0.14903,0.1146 0.60787,0.1127 -0.17662,0.16119 0.68025,0.12758 -0.15887,0.1299 0.75226,0.14739 -0.24943,0.20257 0.84227,0.14043 -0.31254,0.22032 1.10358,0.0798 -0.33725,0.28386 0.96122,-0.10272 -0.13768,0.15148 1.00028,-0.0878 -0.109,0.2187 0.84334,-0.21091 0.038,0.0271 -0.0167,0.0356 -0.77736,0.1422 0.262,0.17457 -0.91276,0.33084 0.25257,0.10094 -0.56482,0.32142 0.18701,0.0779 -1.82154,1.47264 2.192,-0.7954 -0.013,0.21336 0.5337,-0.28671 -0.0133,0.23372 0.55922,-0.39082 v 0.22839 l 0.4718,-0.36074 -0.0287,0.24001 0.78121,-0.58587 0.0385,0.24492 1.13743,-1.11915 c 0.008,1.02448 0.0542,2.21259 0.21733,2.56203 0.0532,0.11338 0.16842,0.18673 0.29368,0.18673 0.0478,0 0.0942,-0.0103 0.13646,-0.0301 0.16146,-0.0745 0.23249,-0.26733 0.15791,-0.43138 -0.0841,-0.1799 -0.14698,-1.1294 -0.15682,-2.3402 l 1.19003,1.17146 0.0388,-0.24464 0.78162,0.58642 -0.0288,-0.24054 0.47222,0.36074 v -0.22826 l 0.55922,0.39082 -0.0133,-0.23372 0.5345,0.28713 -0.0134,-0.2135 2.19115,0.79484 -1.82153,-1.47265 0.18631,-0.0777 -0.56401,-0.32101 0.25271,-0.10094 -0.91276,-0.33084 0.26199,-0.17485 -0.77834,-0.14219 -0.0161,-0.0347 0.0389,-0.0279 0.84241,0.21063 -0.10901,-0.21869 0.99893,0.0878 -0.13729,-0.15149 0.96057,0.10272 -0.33617,-0.28357 1.10383,-0.0801 -0.31253,-0.22032 0.84306,-0.14057 -0.24984,-0.20257 0.75184,-0.14738 -0.15887,-0.12991 0.67959,-0.12744 -0.17621,-0.16119 0.60853,-0.1127 -0.1493,-0.11487 0.85429,-0.0891 z m -7.23194,-0.0647 0.15313,0.16897 0.16719,-0.64599 0.015,0.0266 0.39232,-0.7976 0.0783,0.20379 0.43274,-0.92408 0.10559,0.26404 0.4318,-1.10317 0.0997,0.17526 0.1911,-0.40214 v 0.11487 l 0.55635,-0.99784 0.0839,0.35378 0.41675,-0.85072 0.0789,0.17156 0.31595,-0.58093 0.0462,0.17866 0.377,-0.58478 0.51824,-0.558 v 0.17948 l 0.59091,-0.5909 v 0.30611 l 0.57618,-0.66482 v 0.007 l 0.5957,-0.44491 -0.23413,0.40609 0.10095,0.0202 -0.46211,0.46198 0.20858,0.10395 -0.38998,0.60689 0.15722,0.0348 -0.41962,0.57205 0.18877,0.0564 -0.46253,0.59434 0.17293,0.0145 -0.38043,0.38042 0.15231,0.0762 -0.53083,0.51198 0.13401,0.0843 -0.69938,0.55555 0.16432,0.0173 -0.30338,0.22593 0.11406,0.0426 -0.87955,0.53423 0.15983,0.0291 -0.42523,0.22197 0.10218,0.0729 -0.55157,0.21664 0.17649,0.12595 -0.58423,0.31143 0.1127,0.0843 -0.76181,0.27811 0.14944,0.0959 -0.85317,0.33698 0.21432,0.10724 -0.54817,0.29395 0.14247,0.0647 -0.69925,0.44736 z m 2.47213,-0.42372 -0.22866,0.215 -0.0457,-0.11501 z m -7.46867,-0.9484 0.10177,-0.0729 -0.4248,-0.22197 0.15927,-0.0291 -0.87902,-0.53422 0.11447,-0.0429 -0.30339,-0.22565 -2.7e-4,-2.9e-4 0.1635,-0.0171 -0.69857,-0.55527 0.13401,-0.0843 -0.53122,-0.51223 0.15231,-0.0761 -0.38057,-0.38098 0.17252,-0.0145 -0.46141,-0.59433 0.18837,-0.0564 -0.41949,-0.5718 0.1579,-0.0348 -0.3904,-0.60703 0.20845,-0.10395 -0.46197,-0.46212 0.10081,-0.0202 -0.2344,-0.40623 0.59639,0.44505 v -0.006 l 0.57619,0.66482 v -0.30611 l 0.5909,0.5909 v -0.17949 l 0.51824,0.55801 0.377,0.58478 0.0462,-0.17826 0.31541,0.58067 0.0791,-0.17171 0.41633,0.84992 0.0846,-0.35378 0.55679,0.99892 v -0.11488 l 0.19109,0.40215 0.0997,-0.17526 0.43179,1.10317 0.1056,-0.26391 0.43165,0.92311 0.0787,-0.20367 0.3919,0.79761 0.0154,-0.0271 0.16692,0.64664 0.15381,-0.16896 0.51198,0.99168 -0.70008,-0.44792 0.14247,-0.0647 -0.54818,-0.29396 0.21432,-0.10723 -0.85292,-0.33698 0.1497,-0.0959 -0.76221,-0.27824 0.11228,-0.0843 -0.58342,-0.31103 0.17649,-0.12621 z m 0.49408,1.04851 -0.0462,0.11529 -0.22921,-0.21582 z m 0.6192,1.91686 0.0384,-0.0766 -0.6842,0.0602 0.1579,-0.17376 -0.69843,0.0745 0.0817,-0.0687 -0.96493,-0.0697 0.19,-0.13414 -0.9309,-0.15504 0.2232,-0.18154 -0.75513,-0.14793 0.16638,-0.13605 -0.73858,-0.13838 0.17826,-0.16268 -0.51457,-0.0955 0.23523,-0.18072 -0.56294,-0.0586 0.0384,-0.0208 -0.70144,-0.18182 0.31759,-0.0447 -0.0347,-0.0645 0.76264,0.0806 -0.0922,-0.13168 0.58874,0.0813 v -0.15175 l 0.80758,0.22647 v -0.20052 l 0.67997,0.25626 v -0.1422 l 0.69938,0.3941 5.4e-4,-0.20326 0.63014,0.38424 v -0.0773 l 0.37511,0.35311 0.0817,-0.20421 0.63738,0.57126 0.0367,-0.2482 0.65185,0.63039 v -0.35186 l 1.20357,0.63259 -1.36624,0.12703 0.13441,-0.28795 z m 1.52496,0.97382 -0.0203,-0.12922 -0.5587,0.41882 0.0301,-0.25257 -0.58464,0.44694 v -0.18536 l -0.51156,0.35763 0.007,-0.12103 -0.53,0.28494 0.006,-0.10177 -0.4677,0.16966 0.44421,-0.35924 -0.0497,-0.0208 0.57863,-0.32893 -0.0431,-0.0171 0.66319,-0.24054 -0.093,-0.0619 0.78473,-0.14343 -0.0602,-0.043 0.36962,-0.0223 -0.0688,-0.14985 0.71221,-0.0989 z m 1.53821,-2.35016 -0.35923,0.97791 -0.35952,-0.97791 h 0.17744 l -0.41921,-0.82887 0.11133,-0.0191 -0.21979,-0.59965 h 0.14207 l -0.2956,-0.70892 h 0.085 l -0.26569,-0.798 h 0.106 l -0.1478,-0.87216 h 0.20421 l -0.28057,-0.84198 h 0.20326 l -0.22184,-0.84226 h 0.15804 l -0.0587,-0.47016 0.18946,0.079 -0.1131,-0.72232 0.10818,0.0542 -0.0526,-0.92038 h 0.1239 l -0.0592,-0.72397 h 0.11147 l 0.01,-0.47466 0.0547,0.0469 0.10135,-0.67109 0.12321,0.0805 0.0396,-0.33808 0.0154,0.0347 0.19971,-0.97871 0.10573,0.10559 0.12362,-0.6263 0.12389,0.62602 0.10559,-0.10559 0.19971,0.97871 0.0154,-0.0347 0.0396,0.33808 0.12321,-0.0805 0.10135,0.67108 0.0546,-0.0469 0.01,0.47467 h 0.11146 l -0.0592,0.72396 h 0.12348 l -0.0519,0.92038 0.10805,-0.054 -0.11297,0.72194 0.18947,-0.0787 -0.059,0.47057 h 0.15804 l -0.22183,0.84227 h 0.20325 l -0.28097,0.84198 h 0.20516 l -0.1478,0.87216 h 0.10573 l -0.26609,0.798 h 0.0851 l -0.29559,0.70892 h 0.14181 l -0.2202,0.59965 0.11188,0.0194 -0.41921,0.82886 0.17771,-1.3e-4 z m 2.57295,2.51217 -0.0429,0.0171 0.57863,0.3292 -0.0494,0.0208 0.44421,0.35924 -0.46922,-0.1702 0.007,0.10163 -0.52918,-0.28426 0.007,0.12102 -0.51156,-0.35762 v 0.18549 l -0.58503,-0.44665 0.0301,0.25188 -0.55733,-0.41826 -0.0208,0.12949 -0.60815,-0.59856 0.71141,0.0988 -0.0692,0.14985 0.36933,0.0223 -0.0602,0.0429 0.786,0.14384 -0.093,0.0619 z m 4.36657,-2.80175 0.0385,0.0211 -0.56387,0.0587 0.23495,0.18072 -0.51387,0.0952 0.17785,0.16269 -0.73914,0.13851 0.16638,0.13605 -0.75551,0.14821 0.22361,0.18154 -0.93091,0.15503 0.19001,0.13414 -0.96371,0.0695 0.0817,0.0688 -0.69816,-0.0745 0.1575,0.17375 -0.68476,-0.0602 0.0384,0.0766 -0.87108,-0.21773 0.134,0.28781 -1.36652,-0.12703 1.20301,-0.6326 v 0.35147 l 0.65157,-0.62999 0.0365,0.24819 0.63748,-0.57125 0.0817,0.20421 0.3755,-0.3535 v 0.0773 l 0.63052,-0.38423 v 0.20244 l 0.69938,-0.39411 v 0.1422 l 0.67958,-0.25626 v 0.2004 l 0.80796,-0.22649 v 0.15176 l 0.58874,-0.0813 -0.0922,0.13168 0.76317,-0.0806 -0.0344,0.0647 0.31704,0.0447 z"
       id="path70"
       style="fill:#f2f2f2;fill-opacity:1;stroke-width:0.034969" />
  </g>
</svg>
