<?xml version="1.0" encoding="UTF-8" standalone="no"?>
<svg
   width="64"
   version="1.1"
   height="64"
   id="svg15"
   sodipodi:docname="folder-IOTA.svg"
   inkscape:version="1.1.1 (3bf5ae0d25, 2021-09-20)"
   xmlns:inkscape="http://www.inkscape.org/namespaces/inkscape"
   xmlns:sodipodi="http://sodipodi.sourceforge.net/DTD/sodipodi-0.dtd"
   xmlns:xlink="http://www.w3.org/1999/xlink"
   xmlns="http://www.w3.org/2000/svg"
   xmlns:svg="http://www.w3.org/2000/svg"
   xmlns:rdf="http://www.w3.org/1999/02/22-rdf-syntax-ns#"
   xmlns:cc="http://creativecommons.org/ns#"
   xmlns:dc="http://purl.org/dc/elements/1.1/">
  <sodipodi:namedview
     pagecolor="#ffffff"
     bordercolor="#666666"
     borderopacity="1"
     objecttolerance="10"
     gridtolerance="10"
     guidetolerance="10"
     inkscape:pageopacity="0"
     inkscape:pageshadow="2"
     inkscape:window-width="1920"
     inkscape:window-height="1006"
     id="namedview17"
     showgrid="true"
     inkscape:zoom="9.8125"
     inkscape:cx="22.420382"
     inkscape:cy="37.808917"
     inkscape:window-x="0"
     inkscape:window-y="0"
     inkscape:window-maximized="1"
     inkscape:current-layer="layer1"
     inkscape:document-rotation="0"
     showguides="false"
     inkscape:pagecheckerboard="0">
    <inkscape:grid
       type="xygrid"
       id="grid919" />
  </sodipodi:namedview>
  <defs
     id="defs5455">
    <linearGradient
       inkscape:collect="always"
       xlink:href="#linearGradient860"
       id="linearGradient862"
       x1="113.94677"
       y1="255.36646"
       x2="406.08289"
       y2="255.36646"
       gradientUnits="userSpaceOnUse"
       gradientTransform="matrix(0.20270273,0,0,0.18440695,363.86886,467.51048)" />
    <linearGradient
       inkscape:collect="always"
       id="linearGradient860">
      <stop
         style="stop-color:#78acd3;stop-opacity:1"
         offset="0"
         id="stop856" />
      <stop
         style="stop-color:#d98cbb;stop-opacity:1"
         offset="1"
         id="stop858" />
    </linearGradient>
    <linearGradient
       inkscape:collect="always"
       xlink:href="#linearGradient842"
       id="linearGradient844"
       x1="386.30627"
       y1="522.45404"
       x2="446.83023"
       y2="522.45404"
       gradientUnits="userSpaceOnUse"
       gradientTransform="matrix(0.99134277,0,0,0.99944183,3.6095161,0.30126425)" />
    <linearGradient
       inkscape:collect="always"
       id="linearGradient842">
      <stop
         style="stop-color:#326e9a;stop-opacity:1"
         offset="0"
         id="stop838" />
      <stop
         style="stop-color:#339993;stop-opacity:1"
         offset="1"
         id="stop840" />
    </linearGradient>
  </defs>
  <metadata
     id="metadata5458">
    <rdf:RDF>
      <cc:Work
         rdf:about="">
        <dc:format>image/svg+xml</dc:format>
        <dc:type
           rdf:resource="http://purl.org/dc/dcmitype/StillImage" />
      </cc:Work>
    </rdf:RDF>
  </metadata>
  <g
     inkscape:label="Capa 1"
     inkscape:groupmode="layer"
     id="layer1"
     transform="translate(-384.57143,-483.798)">
    <path
       style="fill:url(#linearGradient862);fill-opacity:1;stroke-width:0.179138"
       d="m 416.57459,496.95766 c -0.88032,0 -1.92237,-0.51649 -2.31692,-1.14784 l -1.7701,-2.83719 c -0.39274,-0.63133 -1.43479,-1.14667 -2.3148,-1.14782 l -20.40112,-0.0268 c -1.946,-0.003 -2.7662,0.93496 -2.79385,3.00415 l -0.0117,0.87228 v 2.56642 36.57158 c 0,0.70576 2.32071,2.56642 3.20071,2.56642 h 52.81515 c 0.88002,0 3.20071,-1.86066 3.20071,-2.56642 v -35.28836 c 0,-1.92482 -0.80004,-2.56643 -3.20071,-2.56643 z"
       id="path4-3"
       sodipodi:nodetypes="sccsssccsssssss" />
    <path
       style="fill:#f2f2f2;fill-opacity:1;stroke-width:0.176565"
       d="m 442.3495,510.65748 c 0,1.32548 -0.79577,2.40995 -2.61715,2.40995 h -46.19558 c -1.82139,0 -2.51852,-1.08447 -2.51852,-2.40995 v -7.22985 c 0,-1.32548 0.69713,-2.40996 2.51852,-2.40996 h 46.09645 c 1.82137,0 2.71628,1.08448 2.71628,2.40996 z"
       id="path8-6"
       sodipodi:nodetypes="sssssssss" />
    <path
       style="fill:url(#linearGradient844);fill-opacity:1;stroke-width:0.19334"
       d="m 443.32803,505.1295 h -53.5132 c -1.62182,0 -3.2434,1.47526 -3.2434,2.95052 v 28.76748 c 0,1.95107 1.25422,2.95051 3.2434,2.95051 h 53.5132 c 1.9955,0 3.2434,-0.99944 3.2434,-2.95051 v -28.76748 c 0,-1.47526 -1.62159,-2.95052 -3.2434,-2.95052 z"
       id="path10"
       sodipodi:nodetypes="sssssssss" />
    <path
       style="isolation:isolate;fill:#f2f2f2;fill-opacity:1;stroke-width:1.15015"
       class="ColorScheme-Text"
       d="m 430.54882,536.79668 c 0.36115,-0.0176 0.68973,-0.22572 0.86971,-0.55372 0.14064,-0.25509 0.18002,-0.55726 0.10688,-0.84176 -0.0732,-0.2845 -0.25085,-0.52665 -0.49506,-0.67476 -0.24413,-0.14701 -0.53442,-0.18693 -0.80669,-0.11056 -0.27114,0.0769 -0.50404,0.26219 -0.64473,0.51731 -0.14066,0.25509 -0.17887,0.55724 -0.1057,0.84174 0.072,0.28451 0.2509,0.52668 0.49502,0.67363 0.17551,0.10699 0.37806,0.15872 0.58057,0.14812 z m 6.83404,-1.73406 c 0.17778,0 0.34878,-0.0743 0.4748,-0.20573 0.126,-0.13167 0.19576,-0.30917 0.19576,-0.49495 0,-0.38672 -0.30042,-0.6995 -0.67056,-0.6995 -0.36903,0 -0.66833,0.3139 -0.66833,0.6995 0,0.38563 0.2993,0.69955 0.66833,0.70068 z m -1.68659,-0.17869 c 0.15525,0 0.30492,-0.0641 0.41405,-0.17866 0.11023,-0.11523 0.17215,-0.27041 0.17103,-0.43262 0,-0.33744 -0.26215,-0.61021 -0.58508,-0.61021 -0.32179,0 -0.5828,0.27394 -0.58392,0.61021 0,0.33735 0.26107,0.61128 0.58392,0.61128 z m 3.64652,-0.0704 c 0.20929,0 0.41067,-0.0866 0.5581,-0.24104 0.1485,-0.15516 0.2318,-0.36563 0.2318,-0.58424 0,-0.21868 -0.0822,-0.42795 -0.2318,-0.58314 -0.14743,-0.15396 -0.34881,-0.241 -0.5581,-0.241 -0.20924,0 -0.40949,0.0866 -0.55808,0.241 -0.14845,0.15519 -0.2306,0.36446 -0.2306,0.58314 0,0.21861 0.0817,0.42908 0.2306,0.58424 0.14859,0.15407 0.34884,0.24104 0.55808,0.24104 z m -5.03496,-0.42795 c 0.28132,0 0.50858,-0.23743 0.50858,-0.5302 8.3e-4,-0.14104 -0.0528,-0.27622 -0.14857,-0.3762 -0.0958,-0.0999 -0.22499,-0.15634 -0.36001,-0.15519 -0.28011,0 -0.50737,0.23748 -0.50737,0.53139 7.7e-4,0.29277 0.22726,0.52907 0.50737,0.5302 z m -4.05154,-0.57601 c 0.30834,-0.015 0.58957,-0.19403 0.74367,-0.47379 0.25095,-0.455 0.10126,-1.03458 -0.33301,-1.29669 -0.43428,-0.2622 -0.98901,-0.10701 -1.24103,0.34676 -0.12035,0.2187 -0.15303,0.47731 -0.0911,0.72066 0.0629,0.24338 0.21478,0.45143 0.42303,0.57725 0.15187,0.0906 0.32404,0.13399 0.49842,0.12581 z m 2.99513,-0.1 c 0.117,0 0.22948,-0.0476 0.31272,-0.13397 0.0817,-0.0853 0.12936,-0.20342 0.12936,-0.3257 0,-0.12228 -0.0455,-0.2398 -0.12936,-0.32565 -0.082,-0.0867 -0.19464,-0.13521 -0.31272,-0.13521 -0.11595,0 -0.22848,0.0489 -0.31057,0.13521 -0.082,0.0867 -0.12938,0.20337 -0.12829,0.32565 0,0.25393 0.19692,0.45967 0.43886,0.45967 z m -5.30502,-0.24099 c 0.30825,-0.015 0.58845,-0.19395 0.74371,-0.47379 0.24975,-0.45377 0.10121,-1.03334 -0.33306,-1.29669 -0.20813,-0.12579 -0.45682,-0.15987 -0.68968,-0.0955 -0.23289,0.0652 -0.43095,0.22452 -0.55132,0.44321 -0.25091,0.4538 -0.10126,1.03335 0.33304,1.29554 0.1508,0.0918 0.32288,0.13518 0.49731,0.12694 z m 9.13156,-0.43617 c 0.36904,0 0.66941,-0.31388 0.66832,-0.70067 0,-0.3856 -0.29928,-0.69831 -0.66832,-0.69831 -0.37017,0 -0.67059,0.31271 -0.67059,0.69831 0,0.18691 0.0695,0.36448 0.19574,0.49616 0.12602,0.13165 0.29705,0.20451 0.47485,0.20451 z m -4.60967,-0.12462 c 0.099,9.5e-4 0.19355,-0.0404 0.26326,-0.11285 0.0694,-0.073 0.10915,-0.17167 0.10915,-0.27506 0,-0.10349 -0.0399,-0.20223 -0.10915,-0.27513 -0.0695,-0.073 -0.16427,-0.11402 -0.26326,-0.11402 -0.098,0 -0.19349,0.0418 -0.26331,0.11402 -0.0694,0.073 -0.108,0.17164 -0.108,0.27513 0,0.10339 0.0385,0.20217 0.108,0.27506 0.0695,0.073 0.16544,0.11407 0.26331,0.11285 z m 2.92312,-0.0527 c 0.32175,-9.2e-4 0.58389,-0.2739 0.58389,-0.61134 -8.5e-4,-0.33741 -0.26214,-0.61012 -0.58389,-0.61012 -0.32295,0 -0.58511,0.27271 -0.58511,0.61012 -8.6e-4,0.16225 0.0618,0.31746 0.17103,0.43266 0.10913,0.11402 0.25878,0.17869 0.41408,0.17868 z m 3.64425,-0.0703 c 0.20928,0 0.41068,-0.0867 0.55915,-0.24223 0.14743,-0.15397 0.23065,-0.3644 0.23065,-0.58309 0,-0.21869 -0.0822,-0.42792 -0.23065,-0.58309 -0.14847,-0.15518 -0.34987,-0.24219 -0.55915,-0.24219 -0.2093,0 -0.40955,0.0867 -0.55803,0.24219 -0.14744,0.15517 -0.23067,0.3644 -0.23067,0.58309 0,0.21869 0.0821,0.42912 0.23067,0.58309 0.14848,0.15519 0.34873,0.24223 0.55803,0.24223 z m -5.03272,-0.42799 c 0.28019,-8.6e-4 0.50629,-0.23861 0.50745,-0.53137 0,-0.29271 -0.22726,-0.53017 -0.50745,-0.53138 -0.13501,0 -0.26442,0.0567 -0.36002,0.15638 -0.0959,0.0987 -0.14968,0.23513 -0.14968,0.375 8.8e-4,0.29392 0.22845,0.53137 0.5097,0.53137 z m 7.17946,-0.39149 c 0.5018,0 0.90912,-0.4256 0.90912,-0.94992 0,-0.52434 -0.40732,-0.9487 -0.90912,-0.9487 -0.50182,0 -0.908,0.42436 -0.908,0.9487 0,0.52432 0.40618,0.94992 0.908,0.94992 z m -8.23594,-0.2845 c 0.24302,0 0.43998,-0.20574 0.43998,-0.45967 0,-0.25393 -0.19696,-0.45971 -0.43998,-0.45971 -0.24299,0 -0.43993,0.20578 -0.43993,0.45971 0,0.25393 0.19694,0.45967 0.43993,0.45967 z m -2.40442,-0.41032 c 0.26781,-0.0123 0.51192,-0.16809 0.64587,-0.41028 0.10464,-0.19045 0.13386,-0.415 0.08,-0.62662 -0.054,-0.2116 -0.1868,-0.39146 -0.368,-0.50082 -0.37804,-0.22804 -0.85965,-0.0918 -1.07788,0.30215 -0.21718,0.39386 -0.0888,0.8982 0.28804,1.12626 0.13166,0.0794 0.28126,0.11756 0.43314,0.10931 z m -2.30984,-0.33976 c 0.26775,-0.0137 0.51077,-0.16811 0.64578,-0.41146 0.10464,-0.18927 0.13281,-0.41498 0.0799,-0.62542 -0.0539,-0.21164 -0.18562,-0.39265 -0.36788,-0.50199 -0.18122,-0.10934 -0.39723,-0.13873 -0.59857,-0.0818 -0.20251,0.0567 -0.37581,0.19517 -0.48047,0.38442 -0.21709,0.395 -0.0875,0.89934 0.29028,1.12624 0.13049,0.0806 0.28132,0.11755 0.43204,0.11051 z m 7.97154,-0.15869 c 0.37011,0 0.67058,-0.31269 0.67058,-0.6995 0,-0.18575 -0.0694,-0.36329 -0.1958,-0.49494 -0.12602,-0.13166 -0.29705,-0.20573 -0.47478,-0.20573 -0.17781,0 -0.34768,0.0742 -0.47369,0.20573 -0.12601,0.13165 -0.19691,0.30919 -0.19581,0.49494 0,0.38681 0.30047,0.6995 0.6695,0.6995 z m -1.68659,-0.17636 c 0.15525,0 0.30494,-0.064 0.41402,-0.17985 0.11028,-0.11404 0.17101,-0.27041 0.17101,-0.43146 0,-0.16224 -0.0618,-0.31858 -0.17101,-0.43263 -0.10908,-0.11522 -0.25877,-0.17987 -0.41402,-0.17987 -0.32295,9.2e-4 -0.58397,0.27512 -0.58397,0.6125 0,0.33625 0.26102,0.61017 0.58397,0.61131 z m 3.64653,-0.0729 c 0.20929,0 0.41064,-0.0867 0.55803,-0.24098 0.1486,-0.1552 0.2318,-0.36447 0.2318,-0.58312 0,-0.21866 -0.0822,-0.4291 -0.2318,-0.58311 -0.14739,-0.15517 -0.34874,-0.24219 -0.55803,-0.24219 -0.20929,0 -0.40953,0.0867 -0.55805,0.24219 -0.14742,0.15402 -0.23065,0.36445 -0.23065,0.58311 0,0.21866 0.0821,0.42792 0.23065,0.58312 0.14852,0.15403 0.34876,0.24099 0.55805,0.24099 z M 426.396,530.19361 c 0.26886,-0.0123 0.51301,-0.1681 0.64689,-0.41147 0.10466,-0.18926 0.13394,-0.415 0.08,-0.62662 -0.0539,-0.21158 -0.18683,-0.39145 -0.36795,-0.50081 -0.37802,-0.2269 -0.85966,-0.0918 -1.078,0.30217 -0.21703,0.39497 -0.0887,0.89814 0.28809,1.12623 0.13159,0.0795 0.28122,0.11756 0.43212,0.1105 z m 6.73278,-0.0977 c 0.13499,0 0.26437,-0.0554 0.36,-0.15519 0.0959,-0.0999 0.14969,-0.23514 0.14969,-0.37619 -9.2e-4,-0.29272 -0.22846,-0.53019 -0.50969,-0.53019 -0.28021,0 -0.50631,0.23747 -0.50748,0.53019 0,0.29389 0.22727,0.53139 0.50748,0.53139 z m 7.18162,-0.39148 c 0.50181,0 0.908,-0.42443 0.908,-0.94876 0,-0.52433 -0.40619,-0.94989 -0.908,-0.94989 -0.50175,0 -0.908,0.42556 -0.908,0.94989 0,0.52433 0.40625,0.94876 0.908,0.94876 z m -9.10449,-0.51848 c 0.22726,-0.0101 0.43434,-0.14223 0.54903,-0.34916 0.18452,-0.33506 0.0745,-0.76296 -0.2464,-0.95575 -0.31957,-0.19282 -0.72908,-0.0782 -0.91472,0.25625 -0.18452,0.33507 -0.0759,0.76298 0.24415,0.95579 0.11136,0.0664 0.23967,0.0999 0.36794,0.0931 z m -2.30993,-0.33975 c 0.22842,-0.0111 0.43428,-0.1434 0.54793,-0.35033 0.18455,-0.33387 0.076,-0.76183 -0.2441,-0.95577 -0.15421,-0.0931 -0.33758,-0.1176 -0.50857,-0.0691 -0.17217,0.0476 -0.3184,0.16576 -0.40732,0.32683 -0.18449,0.3339 -0.076,0.76181 0.24529,0.95579 0.11136,0.0664 0.23853,0.0987 0.36677,0.0931 z m 7.22335,-0.55604 c 0.0849,-9.3e-4 0.16874,-0.027 0.24303,-0.0717 0.24302,-0.14695 0.32516,-0.47142 0.18562,-0.72535 -0.14061,-0.25394 -0.45226,-0.33974 -0.6942,-0.19395 -0.24302,0.14691 -0.32629,0.47255 -0.18562,0.72532 0.0924,0.16813 0.26553,0.27041 0.45117,0.26573 z m 6.39187,-0.0977 c 0.28127,0 0.55133,-0.11758 0.75048,-0.32563 0.19918,-0.2081 0.31054,-0.49024 0.31054,-0.78415 0,-0.6125 -0.47488,-1.1098 -1.06102,-1.1098 -0.28245,0 -0.55246,0.11636 -0.75164,0.3245 -0.19914,0.20803 -0.31164,0.49024 -0.31164,0.7853 0,0.29391 0.1125,0.57605 0.31164,0.78531 0.19918,0.20804 0.46919,0.32445 0.75164,0.32445 z m -15.4503,-0.0827 c 0.22729,-0.0111 0.43429,-0.14345 0.54904,-0.35034 0.18459,-0.33388 0.0745,-0.76185 -0.24641,-0.9558 -0.32064,-0.1928 -0.72902,-0.0782 -0.91469,0.25746 -0.18453,0.3339 -0.0759,0.76178 0.24417,0.95581 0.11136,0.0664 0.23965,0.0988 0.36789,0.0931 z m 5.05859,-0.49262 c 0.19804,-0.0102 0.37914,-0.12459 0.47817,-0.30566 0.0786,-0.13987 0.099,-0.30685 0.0597,-0.4632 -0.0399,-0.15749 -0.13845,-0.29041 -0.27228,-0.37152 -0.13507,-0.0811 -0.29482,-0.10341 -0.4445,-0.0616 -0.1496,0.0417 -0.27783,0.1446 -0.35549,0.28455 -0.0787,0.14102 -0.099,0.30801 -0.0597,0.46436 0.0414,0.15634 0.13844,0.29039 0.27345,0.3715 0.097,0.0593 0.2081,0.0866 0.32063,0.0811 z m 5.46137,-0.0593 c 0.0745,-0.002 0.14742,-0.0241 0.21041,-0.0627 0.10125,-0.0618 0.1755,-0.16111 0.20589,-0.27866 0.0282,-0.11876 0.0128,-0.24333 -0.0451,-0.34918 -0.0594,-0.10577 -0.15414,-0.18221 -0.26778,-0.21392 -0.11251,-0.0313 -0.23291,-0.015 -0.33414,0.0455 -0.20928,0.12811 -0.28133,0.4079 -0.15979,0.62773 0.0802,0.14579 0.22953,0.23396 0.3904,0.23044 z m -7.77238,-0.28336 c 0.19916,-0.01 0.37919,-0.12339 0.4782,-0.30325 0.0798,-0.13996 0.099,-0.30686 0.0609,-0.46438 -0.0399,-0.15641 -0.13841,-0.29036 -0.27232,-0.37148 -0.13393,-0.0811 -0.29366,-0.1023 -0.44438,-0.0619 -0.14964,0.0431 -0.2768,0.14462 -0.35447,0.28565 -0.16087,0.29157 -0.064,0.66543 0.21383,0.83356 0.0969,0.0593 0.20809,0.0867 0.31948,0.0811 z m 9.08765,-0.006 c 0.0623,-0.002 0.12261,-0.0202 0.17663,-0.0528 0.17783,-0.10701 0.23856,-0.34447 0.13618,-0.53023 -0.0488,-0.0893 -0.13056,-0.1552 -0.2262,-0.18099 -0.0959,-0.0271 -0.19683,-0.0123 -0.2824,0.0391 -0.0849,0.0515 -0.14737,0.13634 -0.17324,0.23631 -0.0263,0.0999 -0.0102,0.20575 0.0385,0.29507 0.0667,0.12226 0.19469,0.19752 0.33087,0.19397 z m -3.12336,-0.36444 c 0.099,-0.002 0.19468,-0.0286 0.28017,-0.0811 0.1339,-0.0811 0.23182,-0.21516 0.27229,-0.37151 0.0413,-0.15635 0.0193,-0.32328 -0.0597,-0.46436 -0.0786,-0.13989 -0.20584,-0.24221 -0.35549,-0.28333 -0.14966,-0.043 -0.30942,-0.0202 -0.4433,0.0617 -0.28019,0.16927 -0.37584,0.54193 -0.21493,0.83471 0.10692,0.19269 0.30602,0.31022 0.51983,0.30437 z m -7.79824,-0.36683 c 0.19804,-0.01 0.37803,-0.12343 0.47814,-0.3033 0.0786,-0.14109 0.099,-0.30802 0.0594,-0.46436 -0.0414,-0.15639 -0.13839,-0.29039 -0.27229,-0.3715 -0.13503,-0.0811 -0.29481,-0.10229 -0.44444,-0.0617 -0.14965,0.043 -0.27792,0.14456 -0.35554,0.28563 -0.16087,0.29157 -0.0643,0.66543 0.21383,0.83354 0.098,0.0593 0.20923,0.0866 0.32173,0.0811 z m 5.18231,-0.0476 c 0.17331,-0.008 0.32965,-0.10931 0.4163,-0.26565 0.0652,-0.12233 0.0846,-0.26688 0.05,-0.4033 -0.036,-0.13637 -0.12147,-0.25158 -0.23738,-0.32212 -0.11702,-0.0703 -0.25533,-0.0893 -0.38591,-0.0527 -0.1305,0.0364 -0.24076,0.12579 -0.3083,0.24805 -0.0666,0.12225 -0.0846,0.26689 -0.05,0.40323 0.0346,0.13518 0.12041,0.25153 0.23742,0.32208 0.0833,0.0502 0.17999,0.0757 0.27789,0.0703 z m 4.39928,-0.11878 c 0.0849,-0.002 0.16876,-0.0273 0.24302,-0.0703 0.24302,-0.14689 0.3263,-0.4726 0.18565,-0.72533 -0.14065,-0.25392 -0.45117,-0.34094 -0.69419,-0.19399 -0.24306,0.14696 -0.32628,0.47144 -0.18564,0.72538 0.0936,0.1669 0.26552,0.26801 0.45116,0.26449 z m 1.55382,-0.10464 c 0.0745,-0.002 0.14512,-0.0241 0.20924,-0.0625 0.10123,-0.0619 0.17553,-0.16111 0.20588,-0.27869 0.0293,-0.11873 0.0142,-0.24333 -0.0442,-0.34914 -0.0594,-0.10579 -0.15525,-0.18339 -0.26783,-0.21395 -0.11244,-0.0313 -0.23287,-0.015 -0.3341,0.0458 -0.10131,0.0618 -0.1744,0.16223 -0.2048,0.27976 -0.0293,0.11759 -0.0128,0.24337 0.0453,0.34917 0.0804,0.14463 0.22955,0.23279 0.39051,0.22927 z m -8.26408,-0.11636 c 0.17327,-0.01 0.32968,-0.1094 0.41629,-0.2669 0.14064,-0.25393 0.0579,-0.5784 -0.18563,-0.72535 -0.11704,-0.0692 -0.25543,-0.0893 -0.38594,-0.0515 -0.12937,0.0364 -0.24077,0.12578 -0.30828,0.24688 -0.14064,0.25394 -0.0579,0.57842 0.18564,0.72538 0.0833,0.0515 0.18113,0.0769 0.27792,0.0717 z m 4.16071,-0.72651 c 0.11253,-0.002 0.22162,-0.0353 0.31954,-0.0943 0.31956,-0.1928 0.42867,-0.6207 0.24414,-0.95576 -0.18451,-0.33387 -0.59407,-0.44908 -0.9147,-0.25628 -0.15416,0.0931 -0.2667,0.24572 -0.3128,0.42557 -0.0459,0.17988 -0.0234,0.37031 0.0665,0.5314 0.12264,0.22217 0.35104,0.35619 0.59629,0.34913 z m -3.13463,0 c 0.15085,-0.007 0.28585,-0.0931 0.36118,-0.22805 0.0597,-0.10586 0.0745,-0.23162 0.0444,-0.3492 -0.0293,-0.11874 -0.10461,-0.21862 -0.20586,-0.27977 -0.21045,-0.12578 -0.47817,-0.0501 -0.59969,0.16929 -0.0594,0.10463 -0.0745,0.23041 -0.045,0.348 0.0293,0.11876 0.10465,0.21865 0.20483,0.27978 0.0733,0.0439 0.15746,0.0644 0.24075,0.0606 z m -2.86115,-0.0111 c 0.17325,-0.008 0.33077,-0.10813 0.41743,-0.26566 0.0654,-0.12112 0.0833,-0.26688 0.049,-0.40209 -0.0346,-0.13634 -0.12038,-0.25277 -0.23621,-0.32327 -0.11703,-0.0691 -0.25653,-0.0893 -0.38591,-0.0527 -0.13058,0.0378 -0.24194,0.12693 -0.30829,0.24802 -0.0666,0.12224 -0.0849,0.26688 -0.05,0.40322 0.0346,0.13642 0.12032,0.25279 0.23626,0.32218 0.0833,0.0502 0.18004,0.0757 0.27789,0.0703 z m 10.07436,-0.3328 c 0.0833,-0.002 0.16764,-0.0271 0.24192,-0.0718 0.117,-0.069 0.20135,-0.18575 0.23737,-0.32209 0.0346,-0.13519 0.0168,-0.28098 -0.05,-0.40324 -0.14067,-0.25277 -0.45118,-0.33978 -0.69416,-0.19401 -0.11704,0.0703 -0.20259,0.18696 -0.23745,0.32332 -0.0346,0.13521 -0.0168,0.28097 0.05,0.40323 0.0936,0.16691 0.26665,0.26922 0.45232,0.26449 z m -1.87332,-0.0943 c 0.0979,-0.002 0.19352,-0.0286 0.27787,-0.0811 0.13503,-0.0811 0.23294,-0.21397 0.27344,-0.37028 0.0399,-0.15756 0.0193,-0.32451 -0.0594,-0.46437 -0.0787,-0.1411 -0.20589,-0.24338 -0.35553,-0.28569 -0.1508,-0.0418 -0.31051,-0.0202 -0.44444,0.0617 -0.13503,0.081 -0.23288,0.21518 -0.27341,0.3715 -0.04,0.15635 -0.018,0.32333 0.0597,0.46436 0.10802,0.194 0.30826,0.31039 0.52205,0.30446 z m -7.17387,-0.2974 c 0.14971,-0.008 0.28471,-0.0943 0.36006,-0.22924 0.0595,-0.10582 0.0745,-0.23162 0.0445,-0.34914 -0.0293,-0.11759 -0.10356,-0.21869 -0.20475,-0.27984 -0.10127,-0.0616 -0.22164,-0.0782 -0.33418,-0.0456 -0.11254,0.0313 -0.20931,0.10937 -0.26775,0.21517 -0.0597,0.10579 -0.0745,0.23042 -0.0448,0.34916 0.0293,0.11756 0.10359,0.21745 0.20485,0.27858 0.0732,0.0447 0.15748,0.0643 0.24183,0.0617 z m 0.99356,-0.41617 c 0.12602,-0.006 0.24074,-0.0795 0.30487,-0.1928 0.10241,-0.18575 0.0413,-0.42325 -0.13725,-0.53023 -0.0849,-0.0527 -0.18679,-0.0663 -0.28237,-0.0403 -0.0959,0.0269 -0.1767,0.0918 -0.22619,0.18106 -0.0488,0.0893 -0.0632,0.19513 -0.0374,0.29506 0.0265,0.0999 0.0875,0.18456 0.17329,0.23634 0.0628,0.0378 0.13387,0.0554 0.20477,0.0502 z m 2.68795,-0.30803 c 0.13163,-0.003 0.26102,-0.043 0.37571,-0.11169 0.37697,-0.22807 0.50748,-0.73124 0.28921,-1.12623 -0.10464,-0.18927 -0.27684,-0.328 -0.47929,-0.38443 -0.2026,-0.058 -0.41747,-0.0271 -0.59965,0.082 -0.18125,0.10934 -0.31285,0.28922 -0.36686,0.5008 -0.0539,0.21166 -0.0265,0.43735 0.08,0.62664 0.14399,0.26098 0.41288,0.41851 0.70202,0.41264 z m 5.01918,-0.27038 c 0.0991,-0.002 0.19465,-0.0286 0.28009,-0.0811 0.13393,-0.0812 0.23295,-0.21399 0.27233,-0.37152 0.0414,-0.15634 0.0193,-0.3233 -0.0592,-0.46319 -0.0786,-0.14109 -0.20484,-0.24336 -0.3556,-0.28568 -0.14964,-0.0431 -0.3094,-0.0202 -0.44333,0.0617 -0.13501,0.0811 -0.23287,0.21514 -0.27336,0.3715 -0.0414,0.15636 -0.0193,0.3233 0.0597,0.4644 0.10695,0.19279 0.30607,0.3103 0.51984,0.30448 z m -2.29528,-0.18928 c 0.11249,-0.002 0.22276,-0.0353 0.3195,-0.0931 0.15415,-0.0943 0.26667,-0.24689 0.31166,-0.4256 0.0454,-0.17987 0.0234,-0.37146 -0.0665,-0.53253 -0.18453,-0.33391 -0.59406,-0.44789 -0.91474,-0.25511 -0.3195,0.19397 -0.42983,0.62189 -0.24525,0.95577 0.12259,0.22222 0.35103,0.35621 0.59632,0.35037 z m -4.57593,-0.88642 c 0.15194,-0.004 0.30041,-0.0476 0.43208,-0.12698 0.2093,-0.1258 0.36116,-0.33387 0.42417,-0.57721 0.0628,-0.24336 0.0293,-0.50202 -0.0912,-0.72068 -0.1204,-0.21865 -0.31839,-0.37738 -0.55128,-0.44202 -0.23292,-0.0652 -0.48155,-0.0313 -0.6897,0.0955 -0.43431,0.26218 -0.58283,0.84175 -0.33191,1.29554 0.16534,0.30097 0.47591,0.48322 0.8078,0.47615 z m 6.10496,-0.40441 c 0.11256,-0.003 0.22162,-0.0353 0.31957,-0.0955 0.31951,-0.19281 0.42866,-0.62072 0.24414,-0.95577 -0.18449,-0.33387 -0.5941,-0.44909 -0.91473,-0.25627 -0.3207,0.1928 -0.42982,0.62067 -0.24531,0.95573 0.12156,0.22218 0.35107,0.35737 0.59633,0.35151 z m -2.81621,-0.17047 c 0.1328,-0.003 0.26221,-0.0418 0.37695,-0.11051 0.37692,-0.22689 0.50631,-0.73124 0.28916,-1.12628 -0.10462,-0.18928 -0.27786,-0.32799 -0.4793,-0.38436 -0.20253,-0.0566 -0.41858,-0.0269 -0.59971,0.0817 -0.18115,0.10935 -0.3139,0.29042 -0.36791,0.502 -0.0539,0.21048 -0.0269,0.43615 0.08,0.62541 0.14403,0.26099 0.41298,0.41855 0.701,0.41149 z m -5.77072,-0.42091 c 0.17662,-0.004 0.35099,-0.0566 0.50403,-0.14928 0.50741,-0.30563 0.68181,-0.98398 0.38926,-1.51417 -0.2936,-0.53025 -0.94285,-0.7125 -1.45022,-0.40561 -0.50749,0.30561 -0.68075,0.98405 -0.38824,1.51417 0.19354,0.35149 0.55586,0.56431 0.94517,0.55488 z m 7.29983,-0.8711 c 0.13159,-0.003 0.26101,-0.0418 0.37574,-0.11054 0.37803,-0.22691 0.50747,-0.73125 0.28915,-1.12622 -0.10461,-0.18923 -0.27677,-0.32795 -0.47927,-0.38442 -0.20254,-0.0566 -0.41744,-0.0271 -0.59969,0.0817 -0.18116,0.10939 -0.3128,0.28926 -0.3668,0.50082 -0.0539,0.21165 -0.0267,0.43735 0.0799,0.62662 0.14512,0.26099 0.41401,0.41848 0.70204,0.41142 z m -3.38109,-0.0541 c 0.15194,-0.003 0.30156,-0.0477 0.43207,-0.12697 0.43547,-0.26216 0.58391,-0.84172 0.33422,-1.29676 -0.12038,-0.21745 -0.31957,-0.37729 -0.55245,-0.44323 -0.23293,-0.0638 -0.48046,-0.03 -0.68973,0.0955 -0.20919,0.12588 -0.3612,0.33388 -0.42303,0.57726 -0.0628,0.24336 -0.0281,0.50196 0.0913,0.72066 0.16648,0.29983 0.47588,0.48197 0.80777,0.47381 z"
       id="start-here-kde-9-7-3-6-3-6" />
  </g>
</svg>
