<?xml version="1.0" encoding="UTF-8" standalone="no"?>
<svg
   width="64"
   version="1.1"
   height="64"
   id="svg17"
   sodipodi:docname="folder-chart.svg"
   inkscape:version="1.1.1 (3bf5ae0d25, 2021-09-20)"
   xmlns:inkscape="http://www.inkscape.org/namespaces/inkscape"
   xmlns:sodipodi="http://sodipodi.sourceforge.net/DTD/sodipodi-0.dtd"
   xmlns:xlink="http://www.w3.org/1999/xlink"
   xmlns="http://www.w3.org/2000/svg"
   xmlns:svg="http://www.w3.org/2000/svg"
   xmlns:rdf="http://www.w3.org/1999/02/22-rdf-syntax-ns#"
   xmlns:cc="http://creativecommons.org/ns#"
   xmlns:dc="http://purl.org/dc/elements/1.1/">
  <sodipodi:namedview
     pagecolor="#ffffff"
     bordercolor="#666666"
     borderopacity="1"
     objecttolerance="10"
     gridtolerance="10"
     guidetolerance="10"
     inkscape:pageopacity="0"
     inkscape:pageshadow="2"
     inkscape:window-width="1920"
     inkscape:window-height="1011"
     id="namedview19"
     showgrid="true"
     inkscape:zoom="9.8125004"
     inkscape:cx="34.64968"
     inkscape:cy="27.159234"
     inkscape:window-x="0"
     inkscape:window-y="0"
     inkscape:window-maximized="1"
     inkscape:current-layer="layer1"
     inkscape:document-rotation="0"
     inkscape:pagecheckerboard="0">
    <inkscape:grid
       type="xygrid"
       id="grid908" />
  </sodipodi:namedview>
  <defs
     id="defs5455">
    <linearGradient
       inkscape:collect="always"
       id="linearGradient842">
      <stop
         style="stop-color:#326e9a;stop-opacity:1"
         offset="0"
         id="stop838" />
      <stop
         style="stop-color:#339993;stop-opacity:1"
         offset="1"
         id="stop840" />
    </linearGradient>
    <linearGradient
       inkscape:collect="always"
       xlink:href="#linearGradient860"
       id="linearGradient862"
       x1="113.94677"
       y1="255.36646"
       x2="406.08289"
       y2="255.36646"
       gradientUnits="userSpaceOnUse"
       gradientTransform="matrix(0.20270272,0,0,0.18440626,363.86886,467.51059)" />
    <linearGradient
       inkscape:collect="always"
       id="linearGradient860">
      <stop
         style="stop-color:#78acd3;stop-opacity:1"
         offset="0"
         id="stop856" />
      <stop
         style="stop-color:#d98cbb;stop-opacity:1"
         offset="1"
         id="stop858" />
    </linearGradient>
    <linearGradient
       inkscape:collect="always"
       xlink:href="#linearGradient842"
       id="linearGradient844"
       x1="386.30626"
       y1="522.45407"
       x2="446.83023"
       y2="522.45407"
       gradientUnits="userSpaceOnUse"
       gradientTransform="matrix(0.99134272,0,0,0.99943812,3.6095298,0.30314938)" />
  </defs>
  <metadata
     id="metadata5458">
    <rdf:RDF>
      <cc:Work
         rdf:about="">
        <dc:format>image/svg+xml</dc:format>
        <dc:type
           rdf:resource="http://purl.org/dc/dcmitype/StillImage" />
      </cc:Work>
    </rdf:RDF>
  </metadata>
  <g
     inkscape:label="Capa 1"
     inkscape:groupmode="layer"
     id="layer1"
     transform="translate(-384.57143,-483.798)">
    <path
       style="fill:url(#linearGradient862);fill-opacity:1;stroke-width:0.179137"
       d="m 416.57459,496.95764 c -0.88033,0 -1.92238,-0.5165 -2.31692,-1.14784 l -1.7701,-2.83717 c -0.39274,-0.63134 -1.43479,-1.14668 -2.3148,-1.14782 l -20.40112,-0.027 c -1.94601,-0.003 -2.7662,0.93497 -2.79385,3.00416 l -0.0117,0.87225 v 2.56642 36.57144 c 0,0.70576 2.3207,2.5664 3.20071,2.5664 h 52.81514 c 0.88002,0 3.20072,-1.86064 3.20072,-2.5664 v -35.28823 c 0,-1.92481 -0.80005,-2.56641 -3.20072,-2.56641 z"
       id="path4-3"
       sodipodi:nodetypes="sccsssccsssssss" />
    <path
       style="fill:#f2f2f2;fill-opacity:1;stroke-width:0.176564"
       d="m 442.34949,510.65741 c 0,1.32548 -0.79577,2.40992 -2.61714,2.40992 h -46.19558 c -1.8214,0 -2.51852,-1.08444 -2.51852,-2.40992 v -7.22983 c 0,-1.32548 0.69712,-2.40995 2.51852,-2.40995 h 46.09644 c 1.82138,0 2.71628,1.08447 2.71628,2.40995 z"
       id="path8-6"
       sodipodi:nodetypes="sssssssss" />
    <path
       style="fill:url(#linearGradient844);fill-opacity:1;stroke-width:0.19334"
       d="m 443.32803,505.12943 h -53.51321 c -1.62181,0 -3.24339,1.47528 -3.24339,2.95053 v 28.76737 c 0,1.95104 1.25421,2.95048 3.24339,2.95048 h 53.51321 c 1.9955,0 3.2434,-0.99944 3.2434,-2.95048 v -28.76737 c 0,-1.47525 -1.62159,-2.95053 -3.2434,-2.95053 z"
       id="path10"
       sodipodi:nodetypes="sssssssss" />
    <path
       d="m 442.67143,533.31558 c -0.33135,0 -0.6,-0.27084 -0.6,-0.6049 v -9.67838 c 0,-0.33407 -0.26865,-0.6049 -0.6,-0.6049 h -1.2 c -0.33135,0 -0.6,0.27083 -0.6,0.6049 v 12.40042 c 0,0.83529 -0.67148,1.51226 -1.5,1.51226 h -0.6 c -0.82853,0 -1.5,-0.67697 -1.5,-1.51226 v -6.35144 c 0,-0.33405 -0.26865,-0.60491 -0.6,-0.60491 h -1.2 c -0.33135,0 -0.6,0.27086 -0.6,0.60491 v 6.35144 c 0,0.83529 -0.67148,1.51226 -1.5,1.51226 h -0.6 c -0.82853,0 -1.5,-0.67697 -1.5,-1.51226 v -3.93184 c 0,-0.33404 -0.26865,-0.6049 -0.6,-0.6049 h -1.2 c -0.33135,0 -0.6,0.27086 -0.6,0.6049 v 4.2343 c 0,0.6681 -0.53734,1.2098 -1.2,1.2098 -1.3254,0 -2.4,-1.08338 -2.4,-2.41961 v -10.88817 -4.2343 c 0,-0.33407 0.26865,-0.6049 0.6,-0.6049 0.33135,0 0.6,0.27083 0.6,0.6049 v 2.14109 2.09321 10.88817 c 0,0.66812 0.4623,1.20981 0.9,1.20981 0.16582,0 0.3,-0.13526 0.3,-0.30246 v -4.23429 c 0,-0.83529 0.67147,-1.51225 1.5,-1.51225 h 1.8 c 0.82852,0 1.5,0.67696 1.5,1.51225 v 3.93184 c 0,0.33408 0.26865,0.60491 0.6,0.60491 0.33135,0 0.6,-0.27083 0.6,-0.60491 v -6.35145 c 0,-0.83527 0.67147,-1.51222 1.5,-1.51222 h 1.8 c 0.82852,0 1.5,0.67695 1.5,1.51222 v 6.35145 c 0,0.33408 0.26865,0.60491 0.6,0.60491 0.33135,0 0.6,-0.27083 0.6,-0.60491 v -12.40042 c 0,-0.83528 0.67147,-1.51225 1.5,-1.51225 h 1.8 c 0.82852,0 1.5,0.67697 1.5,1.51225 v 9.98083 c 0,0.33406 -0.26865,0.6049 -0.6,0.6049 z m 0,1.20979 c 0.33135,0 0.6,0.27087 0.6,0.6049 0,0.33408 -0.26865,0.60491 -0.6,0.60491 -0.33135,0 -0.6,-0.27083 -0.6,-0.60491 0,-0.33403 0.26865,-0.6049 0.6,-0.6049 z"
       id="path2"
       style="fill:#f2f2f2;fill-opacity:1;stroke-width:0.0376528" />
  </g>
</svg>
