<?xml version="1.0" encoding="UTF-8" standalone="no"?>
<svg
   width="64"
   version="1.1"
   height="64"
   id="svg17"
   sodipodi:docname="folder-games.svg"
   inkscape:version="1.1.1 (3bf5ae0d25, 2021-09-20)"
   xmlns:inkscape="http://www.inkscape.org/namespaces/inkscape"
   xmlns:sodipodi="http://sodipodi.sourceforge.net/DTD/sodipodi-0.dtd"
   xmlns:xlink="http://www.w3.org/1999/xlink"
   xmlns="http://www.w3.org/2000/svg"
   xmlns:svg="http://www.w3.org/2000/svg"
   xmlns:rdf="http://www.w3.org/1999/02/22-rdf-syntax-ns#"
   xmlns:cc="http://creativecommons.org/ns#"
   xmlns:dc="http://purl.org/dc/elements/1.1/">
  <sodipodi:namedview
     pagecolor="#ffffff"
     bordercolor="#666666"
     borderopacity="1"
     objecttolerance="10"
     gridtolerance="10"
     guidetolerance="10"
     inkscape:pageopacity="0"
     inkscape:pageshadow="2"
     inkscape:window-width="1920"
     inkscape:window-height="1011"
     id="namedview19"
     showgrid="true"
     inkscape:zoom="9.8125004"
     inkscape:cx="32.917196"
     inkscape:cy="39.490444"
     inkscape:window-x="0"
     inkscape:window-y="0"
     inkscape:window-maximized="1"
     inkscape:current-layer="layer1"
     inkscape:document-rotation="0"
     inkscape:pagecheckerboard="0">
    <inkscape:grid
       type="xygrid"
       id="grid908" />
  </sodipodi:namedview>
  <defs
     id="defs5455">
    <linearGradient
       inkscape:collect="always"
       id="linearGradient842">
      <stop
         style="stop-color:#326e9a;stop-opacity:1"
         offset="0"
         id="stop838" />
      <stop
         style="stop-color:#339993;stop-opacity:1"
         offset="1"
         id="stop840" />
    </linearGradient>
    <linearGradient
       inkscape:collect="always"
       xlink:href="#linearGradient860"
       id="linearGradient862"
       x1="113.94677"
       y1="255.36646"
       x2="406.08289"
       y2="255.36646"
       gradientUnits="userSpaceOnUse"
       gradientTransform="matrix(0.20270273,0,0,0.18440695,363.86886,467.51047)" />
    <linearGradient
       inkscape:collect="always"
       id="linearGradient860">
      <stop
         style="stop-color:#78acd3;stop-opacity:1"
         offset="0"
         id="stop856" />
      <stop
         style="stop-color:#d98cbb;stop-opacity:1"
         offset="1"
         id="stop858" />
    </linearGradient>
    <linearGradient
       inkscape:collect="always"
       xlink:href="#linearGradient842"
       id="linearGradient844"
       x1="386.30626"
       y1="522.45407"
       x2="446.83023"
       y2="522.45407"
       gradientUnits="userSpaceOnUse"
       gradientTransform="matrix(0.99134277,0,0,0.99944183,3.6095126,0.30129674)" />
  </defs>
  <metadata
     id="metadata5458">
    <rdf:RDF>
      <cc:Work
         rdf:about="">
        <dc:format>image/svg+xml</dc:format>
        <dc:type
           rdf:resource="http://purl.org/dc/dcmitype/StillImage" />
      </cc:Work>
    </rdf:RDF>
  </metadata>
  <g
     inkscape:label="Capa 1"
     inkscape:groupmode="layer"
     id="layer1"
     transform="translate(-384.57143,-483.798)">
    <path
       style="fill:url(#linearGradient862);fill-opacity:1;stroke-width:0.179138"
       d="m 416.57459,496.95765 c -0.88032,0 -1.92237,-0.51649 -2.31692,-1.14784 l -1.7701,-2.83719 c -0.39274,-0.63133 -1.43479,-1.14667 -2.3148,-1.14782 l -20.40112,-0.0268 c -1.946,-0.003 -2.7662,0.93496 -2.79385,3.00415 l -0.0117,0.87228 v 2.56642 36.57158 c 0,0.70576 2.32071,2.56642 3.20071,2.56642 h 52.81515 c 0.88002,0 3.20071,-1.86066 3.20071,-2.56642 v -35.28836 c 0,-1.92482 -0.80004,-2.56643 -3.20071,-2.56643 z"
       id="path4-3"
       sodipodi:nodetypes="sccsssccsssssss" />
    <path
       style="fill:#f2f2f2;fill-opacity:1;stroke-width:0.176565"
       d="m 442.3495,510.65747 c 0,1.32548 -0.79577,2.40995 -2.61715,2.40995 h -46.19558 c -1.82139,0 -2.51852,-1.08447 -2.51852,-2.40995 v -7.22985 c 0,-1.32548 0.69713,-2.40996 2.51852,-2.40996 h 46.09645 c 1.82137,0 2.71628,1.08448 2.71628,2.40996 z"
       id="path8-6"
       sodipodi:nodetypes="sssssssss" />
    <path
       style="fill:url(#linearGradient844);fill-opacity:1;stroke-width:0.19334"
       d="m 443.32803,505.12949 h -53.5132 c -1.62182,0 -3.2434,1.47526 -3.2434,2.95052 v 28.76748 c 0,1.95107 1.25422,2.95051 3.2434,2.95051 h 53.5132 c 1.9955,0 3.2434,-0.99944 3.2434,-2.95051 v -28.76748 c 0,-1.47526 -1.62159,-2.95052 -3.2434,-2.95052 z"
       id="path10"
       sodipodi:nodetypes="sssssssss" />
    <path
       d="m 443.25383,532.85405 c -0.1596,0.56212 -0.57886,0.88767 -1.13643,0.72678 -0.55778,-0.16073 -0.55542,-0.74683 -0.39604,-1.30918 0.1793,-0.63162 0.16458,-1.29696 -0.0413,-1.92381 l -2.36486,-7.19171 c -0.44045,-1.33996 -2.00173,-2.73151 -3.40203,-2.73151 h -12.11809 c -1.40052,0 -2.63675,1.39155 -3.0774,2.73151 l -2.44602,7.19171 c -0.27326,0.8314 -0.0466,1.88857 0.34409,2.67923 0.38997,0.79003 1.46181,1.70312 2.28135,1.97716 0.8171,0.27299 2.01827,0.0394 2.79329,-0.35961 0.77645,-0.39977 1.35531,-1.40567 1.6296,-2.23957 l 0.155,-0.473 c 0.43818,-1.33253 1.34395,-1.90115 2.73646,-1.90115 h 3.60968 c 1.39272,0 2.29775,0.56862 2.73594,1.90115 l 0.15582,0.473 c 0.44126,1.3395 2.03044,2.76667 3.4016,2.76647 0.26321,0 0.52701,-0.0333 0.78385,-0.0982 0.56271,-0.14188 1.13301,-0.12444 1.27393,0.44265 0.14093,0.56731 -0.20105,0.97889 -0.76375,1.12097 -0.42361,0.10693 -0.85892,0.16112 -1.29382,0.16112 -1.11353,0 -2.18641,-0.35242 -3.10278,-1.01941 -0.92704,-0.67484 -1.60769,-1.6109 -1.96814,-2.70724 l -0.1555,-0.473 c -0.15283,-0.46473 -0.58157,-0.77681 -1.06695,-0.77681 h -3.60967 c -0.48556,0 -0.91431,0.31208 -1.06715,0.77661 l -0.15551,0.4732 c -0.44904,1.36562 -1.3964,2.47808 -2.66786,3.13267 -1.27947,0.65871 -2.73004,0.77206 -4.085,0.31911 -1.35456,-0.45271 -2.4539,-1.41732 -3.09519,-2.71613 -0.63942,-1.29489 -0.74425,-2.76 -0.29498,-4.12562 l 2.36466,-7.19167 c 0.726,-2.20821 2.7641,-3.69171 5.07155,-3.69171 h 11.46845 c 2.30746,0 4.34573,1.4835 5.07173,3.69171 l 2.36468,7.19167 c 0.3395,1.03287 0.36268,2.12981 0.0668,3.1726 z m -8.24897,-10.24411 c -0.57994,0 -1.05012,0.47402 -1.05012,1.0589 0,0.58467 0.47018,1.0587 1.05012,1.0587 0.58014,0 1.05033,-0.47403 1.05033,-1.0587 0,-0.58488 -0.47019,-1.0589 -1.05033,-1.0589 z m 0,6.35302 c 0.58014,0 1.05033,-0.474 1.05033,-1.0589 0,-0.58469 -0.47019,-1.0587 -1.05033,-1.0587 -0.57994,0 -1.05012,0.47401 -1.05012,1.0587 0,0.58468 0.47018,1.0589 1.05012,1.0589 z m -2.10044,-4.23542 c -0.57995,0 -1.05013,0.47402 -1.05013,1.05892 0,0.58487 0.47018,1.0589 1.05013,1.0589 0.58013,0 1.05032,-0.47403 1.05032,-1.0589 0,-0.5849 -0.47019,-1.05892 -1.05032,-1.05892 z m 4.2011,2.11782 c 0.57993,0 1.05013,-0.47403 1.05013,-1.0589 0,-0.5849 -0.4702,-1.05892 -1.05013,-1.05892 -0.58014,0 -1.05033,0.47402 -1.05033,1.05892 0,0.58465 0.47019,1.0589 1.05033,1.0589 z m -12.07796,2.1176 c 0.58016,0 1.05034,-0.474 1.05034,-1.0589 v -1.0587 h 1.05013 c 0.58013,0 1.05033,-0.47403 1.05033,-1.0589 0,-0.5849 -0.4702,-1.05892 -1.05033,-1.05892 h -1.05013 v -1.0587 c 0,-0.58488 -0.47018,-1.0589 -1.05034,-1.0589 -0.57992,0 -1.05011,0.47402 -1.05011,1.0589 v 1.0587 h -1.05033 c -0.57995,0 -1.05032,0.47402 -1.05032,1.05892 0,0.58487 0.47037,1.0589 1.05032,1.0589 h 1.05033 v 1.0587 c 0,0.58468 0.47019,1.0589 1.05011,1.0589 z"
       id="path2-36"
       style="fill:#f2f2f2;fill-opacity:1;stroke-width:0.0527311"
       sodipodi:nodetypes="cccccsscccccccsscsccccscccssccsccccssccccsssssssssssssssssssssscssscssscssscss" />
    <ellipse
       cx="442.05786"
       cy="535.22516"
       id="circle4-5"
       style="fill:#f2f2f2;fill-opacity:1;stroke-width:0.0548763"
       rx="0.81980193"
       ry="0.82649952" />
  </g>
</svg>
