<?xml version="1.0" encoding="UTF-8" standalone="no"?>
<svg
   width="64"
   version="1.1"
   height="64"
   id="svg17"
   sodipodi:docname="folder-Reddit.svg"
   inkscape:version="1.1.1 (3bf5ae0d25, 2021-09-20)"
   xmlns:inkscape="http://www.inkscape.org/namespaces/inkscape"
   xmlns:sodipodi="http://sodipodi.sourceforge.net/DTD/sodipodi-0.dtd"
   xmlns:xlink="http://www.w3.org/1999/xlink"
   xmlns="http://www.w3.org/2000/svg"
   xmlns:svg="http://www.w3.org/2000/svg"
   xmlns:rdf="http://www.w3.org/1999/02/22-rdf-syntax-ns#"
   xmlns:cc="http://creativecommons.org/ns#"
   xmlns:dc="http://purl.org/dc/elements/1.1/">
  <sodipodi:namedview
     pagecolor="#ffffff"
     bordercolor="#666666"
     borderopacity="1"
     objecttolerance="10"
     gridtolerance="10"
     guidetolerance="10"
     inkscape:pageopacity="0"
     inkscape:pageshadow="2"
     inkscape:window-width="1920"
     inkscape:window-height="1011"
     id="namedview19"
     showgrid="true"
     inkscape:zoom="9.8125004"
     inkscape:cx="33.936304"
     inkscape:cy="37.961782"
     inkscape:window-x="0"
     inkscape:window-y="0"
     inkscape:window-maximized="1"
     inkscape:current-layer="layer1"
     inkscape:document-rotation="0"
     inkscape:pagecheckerboard="0">
    <inkscape:grid
       type="xygrid"
       id="grid908" />
  </sodipodi:namedview>
  <defs
     id="defs5455">
    <linearGradient
       inkscape:collect="always"
       id="linearGradient842">
      <stop
         style="stop-color:#326e9a;stop-opacity:1"
         offset="0"
         id="stop838" />
      <stop
         style="stop-color:#339993;stop-opacity:1"
         offset="1"
         id="stop840" />
    </linearGradient>
    <linearGradient
       inkscape:collect="always"
       xlink:href="#linearGradient860"
       id="linearGradient862"
       x1="113.94677"
       y1="255.36646"
       x2="406.08289"
       y2="255.36646"
       gradientUnits="userSpaceOnUse"
       gradientTransform="matrix(0.20270273,0,0,0.18440695,363.86886,467.51047)" />
    <linearGradient
       inkscape:collect="always"
       id="linearGradient860">
      <stop
         style="stop-color:#78acd3;stop-opacity:1"
         offset="0"
         id="stop856" />
      <stop
         style="stop-color:#d98cbb;stop-opacity:1"
         offset="1"
         id="stop858" />
    </linearGradient>
    <linearGradient
       inkscape:collect="always"
       xlink:href="#linearGradient842"
       id="linearGradient844"
       x1="386.30626"
       y1="522.45407"
       x2="446.83023"
       y2="522.45407"
       gradientUnits="userSpaceOnUse"
       gradientTransform="matrix(0.99134277,0,0,0.99944183,3.6095126,0.30129674)" />
  </defs>
  <metadata
     id="metadata5458">
    <rdf:RDF>
      <cc:Work
         rdf:about="">
        <dc:format>image/svg+xml</dc:format>
        <dc:type
           rdf:resource="http://purl.org/dc/dcmitype/StillImage" />
      </cc:Work>
    </rdf:RDF>
  </metadata>
  <g
     inkscape:label="Capa 1"
     inkscape:groupmode="layer"
     id="layer1"
     transform="translate(-384.57143,-483.798)">
    <path
       style="fill:url(#linearGradient862);fill-opacity:1;stroke-width:0.179138"
       d="m 416.57459,496.95765 c -0.88032,0 -1.92237,-0.51649 -2.31692,-1.14784 l -1.7701,-2.83719 c -0.39274,-0.63133 -1.43479,-1.14667 -2.3148,-1.14782 l -20.40112,-0.0268 c -1.946,-0.003 -2.7662,0.93496 -2.79385,3.00415 l -0.0117,0.87228 v 2.56642 36.57158 c 0,0.70576 2.32071,2.56642 3.20071,2.56642 h 52.81515 c 0.88002,0 3.20071,-1.86066 3.20071,-2.56642 v -35.28836 c 0,-1.92482 -0.80004,-2.56643 -3.20071,-2.56643 z"
       id="path4-3"
       sodipodi:nodetypes="sccsssccsssssss" />
    <path
       style="fill:#f2f2f2;fill-opacity:1;stroke-width:0.176565"
       d="m 442.3495,510.65747 c 0,1.32548 -0.79577,2.40995 -2.61715,2.40995 h -46.19558 c -1.82139,0 -2.51852,-1.08447 -2.51852,-2.40995 v -7.22985 c 0,-1.32548 0.69713,-2.40996 2.51852,-2.40996 h 46.09645 c 1.82137,0 2.71628,1.08448 2.71628,2.40996 z"
       id="path8-6"
       sodipodi:nodetypes="sssssssss" />
    <path
       style="fill:url(#linearGradient844);fill-opacity:1;stroke-width:0.19334"
       d="m 443.32803,505.12949 h -53.5132 c -1.62182,0 -3.2434,1.47526 -3.2434,2.95052 v 28.76748 c 0,1.95107 1.25422,2.95051 3.2434,2.95051 h 53.5132 c 1.9955,0 3.2434,-0.99944 3.2434,-2.95051 v -28.76748 c 0,-1.47526 -1.62159,-2.95052 -3.2434,-2.95052 z"
       id="path10"
       sodipodi:nodetypes="sssssssss" />
    <path
       clip-rule="evenodd"
       d="m 435.4983,524.14913 c 0.0688,0 0.13443,0.014 0.19605,0.0342 1.41618,0.28817 2.6867,0.82164 3.72353,1.53269 0.42105,-0.3092 0.93698,-0.49304 1.49772,-0.49304 1.40746,0 2.54917,1.15028 2.54917,2.56999 0,0.96095 -0.5237,1.79732 -1.29761,2.23807 0.008,0.11075 0.023,0.21994 0.023,0.33194 0,3.54816 -3.99522,6.42499 -8.92209,6.42499 -4.92751,0 -8.92211,-2.87683 -8.92211,-6.42499 0,-0.112 0.0156,-0.22119 0.0234,-0.33194 -0.77423,-0.44075 -1.29793,-1.27712 -1.29793,-2.23807 0,-1.41971 1.14107,-2.56999 2.54917,-2.56999 0.5601,0 1.07699,0.18384 1.498,0.493 1.30382,-0.89569 2.98169,-1.50381 4.85031,-1.70022 0.007,-0.005 0.0131,-0.0124 0.0246,-0.0132 0.4898,-0.0468 0.92172,-0.38084 1.08538,-0.87151 l 0.68987,-2.59573 c 0.32299,-0.90179 1.25591,-1.42744 2.19225,-1.22493 l 1.05365,0.28503 c 7.4e-4,7.5e-4 -7.4e-4,0.003 7.4e-4,0.003 0.77614,0.20174 1.35091,0.91279 1.35091,1.7592 0,0.002 7.4e-4,0.002 7.4e-4,0.004 0,0.002 -7.4e-4,0.004 -7.4e-4,0.006 0,0.70949 0.57006,1.285 1.27458,1.285 0.70389,0 1.27458,-0.57551 1.27458,-1.285 0,-0.23592 -0.0672,-0.45412 -0.17768,-0.64406 l 0.005,-0.002 c -0.0532,-0.0942 -0.0865,-0.2017 -0.0865,-0.3178 0,-0.35433 0.28598,-0.64234 0.63729,-0.64234 0.23336,0 0.43407,0.1269 0.54548,0.31531 l 0.003,-0.002 c 0.22003,0.38008 0.34824,0.82084 0.34824,1.29283 0,1.41973 -1.14171,2.57 -2.54917,2.57 -1.4081,0 -2.54917,-1.15027 -2.54917,-2.57 0,-0.23828 -0.14968,-0.43923 -0.35847,-0.51874 l -1.02254,-0.27639 c -0.32084,-0.0741 -0.64291,0.10903 -0.74559,0.42369 l -0.66438,2.50221 c -0.3059,0.98588 -1.14856,1.66039 -2.11414,1.78177 -3.70952,0.35438 -6.56615,2.49146 -6.56615,5.08246 0,2.83855 3.42357,5.13999 7.64751,5.13999 4.2233,-5e-5 7.6475,-2.30149 7.6475,-5.14005 0,-2.34347 -2.33508,-4.31599 -5.52465,-4.93511 l 6.4e-4,-0.005 c -0.3012,-0.0507 -0.53054,-0.31386 -0.53054,-0.63166 -5e-5,-0.35502 0.28499,-0.64238 0.63725,-0.64238 z m -9.44114,2.44138 c -0.13694,-0.0506 -0.28288,-0.0826 -0.43659,-0.0826 -0.70453,0 -1.27458,0.57552 -1.27458,1.285 0,0.33036 0.12666,0.62836 0.33079,0.85678 0.28878,-0.75168 0.7599,-1.44563 1.38038,-2.05926 z m 15.80255,2.05926 c 0.20382,-0.22842 0.33048,-0.52642 0.33048,-0.85678 0,-0.70948 -0.5707,-1.285 -1.27459,-1.285 -0.15434,0 -0.30029,0.032 -0.43722,0.0826 0.62053,0.61363 1.09224,1.30758 1.38133,2.05926 z m -6.63493,0.42822 c 0,-0.68455 0.55014,-1.23982 1.22977,-1.23982 0.679,0 1.22914,0.55527 1.22914,1.23982 0,0.68454 -0.55014,1.23981 -1.22914,1.23981 -0.6796,0 -1.22977,-0.55527 -1.22977,-1.23981 z m -6.37294,0 c 0,-0.68455 0.55015,-1.23982 1.22978,-1.23982 0.67899,0 1.22914,0.55527 1.22914,1.23982 0,0.68454 -0.55015,1.23981 -1.22914,1.23981 -0.67958,0 -1.22978,-0.55527 -1.22978,-1.23981 z m 6.77156,3.15318 9.9e-4,7.4e-4 c 0.11607,-0.15813 0.3006,-0.26258 0.51063,-0.26258 0.35226,0 0.63729,0.28736 0.63729,0.6425 0,7.5e-4 0,10e-4 0,0.002 0,0.007 -0.002,0.0138 -0.002,0.021 -9.9e-4,0.038 -0.004,0.0763 -0.0124,0.112 -0.15156,0.82421 -1.65453,1.47048 -3.49017,1.47048 -1.79051,0 -3.26147,-0.61616 -3.47213,-1.41049 -0.0202,-0.0622 -0.0333,-0.12674 -0.0333,-0.19544 0,-0.35515 0.28503,-0.64251 0.6373,-0.64251 0.23181,0 0.43096,0.12614 0.54301,0.31154 l 0.006,-0.002 c 0.32828,0.37992 1.24128,0.65411 2.3189,0.65411 1.12181,0 2.065,-0.2974 2.35532,-0.70181 z m 4.01761,-12.14817 c -0.35226,0 -0.63729,-0.28736 -0.63729,-0.6425 0,-0.35514 0.28503,-0.6425 0.63729,-0.6425 0.35163,0 0.6373,0.28736 0.6373,0.6425 0,0.35514 -0.28567,0.6425 -0.6373,0.6425 z"
       fill-rule="evenodd"
       id="path2"
       style="fill:#f2f2f2;fill-opacity:1;stroke-width:0.0399932" />
  </g>
</svg>
