<?xml version="1.0" encoding="UTF-8" standalone="no"?>
<svg
   id="svg2"
   height="64"
   version="1.1"
   width="64"
   sodipodi:docname="folder-encrypted.svg"
   inkscape:version="1.1.1 (3bf5ae0d25, 2021-09-20)"
   xmlns:inkscape="http://www.inkscape.org/namespaces/inkscape"
   xmlns:sodipodi="http://sodipodi.sourceforge.net/DTD/sodipodi-0.dtd"
   xmlns:xlink="http://www.w3.org/1999/xlink"
   xmlns="http://www.w3.org/2000/svg"
   xmlns:svg="http://www.w3.org/2000/svg"
   xmlns:rdf="http://www.w3.org/1999/02/22-rdf-syntax-ns#"
   xmlns:cc="http://creativecommons.org/ns#"
   xmlns:dc="http://purl.org/dc/elements/1.1/">
  <sodipodi:namedview
     pagecolor="#ffffff"
     bordercolor="#666666"
     borderopacity="1"
     objecttolerance="10"
     gridtolerance="10"
     guidetolerance="10"
     inkscape:pageopacity="0"
     inkscape:pageshadow="2"
     inkscape:window-width="1920"
     inkscape:window-height="1006"
     id="namedview43"
     showgrid="true"
     inkscape:zoom="9.8125"
     inkscape:cx="13.044586"
     inkscape:cy="30.573248"
     inkscape:window-x="0"
     inkscape:window-y="0"
     inkscape:window-maximized="1"
     inkscape:current-layer="svg2"
     inkscape:document-rotation="0"
     inkscape:pagecheckerboard="0">
    <inkscape:grid
       type="xygrid"
       id="grid1109" />
  </sodipodi:namedview>
  <defs
     id="defs5455">
    <linearGradient
       id="linearGradient4172-5">
      <stop
         id="stop4174-6"
         style="stop-color:#3e3e3e" />
      <stop
         id="stop4176-6"
         style="stop-color:#494949"
         offset="1" />
    </linearGradient>
    <linearGradient
       gradientTransform="matrix(1,0,0,0.99967455,0,0.176455)"
       x2="0"
       gradientUnits="userSpaceOnUse"
       y2="499.78421"
       y1="541.79797"
       xlink:href="#linearGradient4172-5"
       id="linearGradient4178-3-3" />
    <linearGradient
       inkscape:collect="always"
       xlink:href="#linearGradient860-3"
       id="linearGradient862"
       x1="113.94677"
       y1="255.36646"
       x2="406.08289"
       y2="255.36646"
       gradientUnits="userSpaceOnUse"
       gradientTransform="matrix(0.20270273,0,0,0.18440695,-20.70257,-16.287523)" />
    <linearGradient
       inkscape:collect="always"
       id="linearGradient860-3">
      <stop
         style="stop-color:#78acd3;stop-opacity:1"
         offset="0"
         id="stop856-6" />
      <stop
         style="stop-color:#d98cbb;stop-opacity:1"
         offset="1"
         id="stop858-7" />
    </linearGradient>
    <linearGradient
       inkscape:collect="always"
       xlink:href="#linearGradient842-3"
       id="linearGradient844-5"
       x1="386.30627"
       y1="522.45404"
       x2="446.83023"
       y2="522.45404"
       gradientUnits="userSpaceOnUse"
       gradientTransform="matrix(0.99134277,0,0,0.99944183,-380.96192,-483.49673)" />
    <linearGradient
       inkscape:collect="always"
       id="linearGradient842-3">
      <stop
         style="stop-color:#326e9a;stop-opacity:1"
         offset="0"
         id="stop838-5" />
      <stop
         style="stop-color:#339993;stop-opacity:1"
         offset="1"
         id="stop840-6" />
    </linearGradient>
  </defs>
  <metadata
     id="metadata5458">
    <rdf:RDF>
      <cc:Work
         rdf:about="">
        <dc:format>image/svg+xml</dc:format>
        <dc:type
           rdf:resource="http://purl.org/dc/dcmitype/StillImage" />
      </cc:Work>
    </rdf:RDF>
  </metadata>
  <path
     style="fill:url(#linearGradient862);fill-opacity:1;stroke-width:0.179138"
     d="m 32.00316,13.159657 c -0.88032,0 -1.92237,-0.51649 -2.31692,-1.14784 l -1.7701,-2.8371898 c -0.39274,-0.63133 -1.43479,-1.14667 -2.3148,-1.14782 l -20.40112,-0.0268 c -1.946,-0.003 -2.7662,0.93496 -2.79385,3.0041498 l -0.0117,0.87228 v 2.56642 36.57158 c 0,0.70576 2.32071,2.56642 3.20071,2.56642 h 52.81515 c 0.88002,0 3.20071,-1.86066 3.20071,-2.56642 v -35.28836 c 0,-1.92482 -0.80004,-2.56643 -3.20071,-2.56643 z"
     id="path4-3-2"
     sodipodi:nodetypes="sccsssccsssssss" />
  <path
     style="fill:#f2f2f2;fill-opacity:1;stroke-width:0.176565"
     d="m 57.77807,26.859477 c 0,1.32548 -0.79577,2.40995 -2.61715,2.40995 H 8.96534 c -1.82139,0 -2.51852,-1.08447 -2.51852,-2.40995 v -7.22985 c 0,-1.32548 0.69713,-2.40996 2.51852,-2.40996 h 46.09645 c 1.82137,0 2.71628,1.08448 2.71628,2.40996 z"
     id="path8-6-9"
     sodipodi:nodetypes="sssssssss" />
  <path
     style="fill:url(#linearGradient844-5);fill-opacity:1;stroke-width:0.19334"
     d="M 58.7566,21.331497 H 5.2434 C 3.62158,21.331497 2,22.806757 2,24.282017 v 28.76748 c 0,1.95107 1.25422,2.95051 3.2434,2.95051 h 53.5132 c 1.9955,0 3.2434,-0.99944 3.2434,-2.95051 v -28.76748 c 0,-1.47526 -1.62159,-2.95052 -3.2434,-2.95052 z"
     id="path10-1"
     sodipodi:nodetypes="sssssssss" />
  <rect
     y="50.000004"
     x="6.9999995"
     height="4"
     width="4"
     id="rect4179-2-9-6-5-8-0-0-2-6-3"
     style="opacity:1;fill:#f2f2f2;fill-opacity:1;stroke:none;stroke-width:2;stroke-miterlimit:4;stroke-dasharray:none;stroke-opacity:1" />
  <rect
     y="50.000004"
     x="15.000002"
     height="4"
     width="4"
     id="rect4179-5-61-4-1-4-1-2-8-9-2-5"
     style="opacity:1;fill:#f2f2f2;fill-opacity:1;stroke:none;stroke-width:2;stroke-miterlimit:4;stroke-dasharray:none;stroke-opacity:1" />
  <rect
     y="50.000004"
     x="23.000004"
     height="4"
     width="4"
     id="rect4179-5-6-8-7-5-7-0-8-6-1-9-6"
     style="opacity:1;fill:#f2f2f2;fill-opacity:1;stroke:none;stroke-width:2;stroke-miterlimit:4;stroke-dasharray:none;stroke-opacity:1" />
  <rect
     y="50.000004"
     x="31.000004"
     height="4"
     width="4"
     id="rect4179-5-6-2-7-8-5-4-3-3-2-2-1-2"
     style="opacity:1;fill:#f2f2f2;fill-opacity:1;stroke:none;stroke-width:2;stroke-miterlimit:4;stroke-dasharray:none;stroke-opacity:1" />
  <rect
     y="46.000004"
     x="4"
     height="4"
     width="3"
     id="rect4179-7-3-5-7-4-0-3-3-9-7"
     style="opacity:1;fill:#f2f2f2;fill-opacity:1;stroke:none;stroke-width:2;stroke-miterlimit:4;stroke-dasharray:none;stroke-opacity:1" />
  <rect
     y="46.000004"
     x="11.000002"
     height="4"
     width="4"
     id="rect4179-5-5-6-6-8-4-9-9-6-3-0"
     style="opacity:1;fill:#f2f2f2;fill-opacity:1;stroke:none;stroke-width:2;stroke-miterlimit:4;stroke-dasharray:none;stroke-opacity:1" />
  <rect
     y="46.000004"
     x="19.000004"
     height="4"
     width="4"
     id="rect4179-5-6-9-1-9-6-7-1-2-0-6-9"
     style="opacity:1;fill:#f2f2f2;fill-opacity:1;stroke:none;stroke-width:2;stroke-miterlimit:4;stroke-dasharray:none;stroke-opacity:1" />
  <rect
     y="46.000004"
     x="27.000004"
     height="4"
     width="4"
     id="rect4179-5-6-2-2-0-3-8-6-9-8-6-0-3"
     style="opacity:1;fill:#f2f2f2;fill-opacity:1;stroke:none;stroke-width:2;stroke-miterlimit:4;stroke-dasharray:none;stroke-opacity:1" />
  <rect
     y="46.000004"
     x="34.999985"
     height="4"
     width="4"
     id="rect4179-5-6-2-9-2-6-7-8-3-6-3-2-6-6"
     style="opacity:1;fill:#f2f2f2;fill-opacity:1;stroke:none;stroke-width:2;stroke-miterlimit:4;stroke-dasharray:none;stroke-opacity:1" />
  <rect
     y="42.000004"
     x="7.3000178"
     height="4"
     width="4"
     id="rect4179-5-6-2-9-9-4-4-4-6-7-6-4-2-7-6"
     style="opacity:1;fill:#f2f2f2;fill-opacity:1;stroke:none;stroke-width:2;stroke-miterlimit:4;stroke-dasharray:none;stroke-opacity:1" />
  <rect
     y="42.000031"
     x="14.999971"
     height="4"
     width="4"
     id="rect4179-5-6-2-9-9-4-4-4-6-7-6-4-2-7-3-3-7"
     style="opacity:1;fill:#f2f2f2;fill-opacity:1;stroke:none;stroke-width:2;stroke-miterlimit:4;stroke-dasharray:none;stroke-opacity:1" />
  <path
     d="m 49.590685,49.624959 c 0.31008,0 0.5625,0.25158 0.5625,0.5625 0,0.310365 -0.25242,0.5625 -0.5625,0.5625 -0.31092,0 -0.562778,-0.252135 -0.562778,-0.5625 0,-0.31092 0.251895,-0.5625 0.562778,-0.5625 z M 49.027907,45.68743 c 0,-0.310928 0.251858,-0.5625 0.562778,-0.5625 0.31008,0 0.5625,0.251572 0.5625,0.5625 v 2.249467 c 0,0.310928 -0.25242,0.563062 -0.5625,0.563062 -0.31092,0 -0.562778,-0.252134 -0.562778,-0.563062 z m 7.874925,7.312567 H 43.402585 c -1.242555,0 -2.249715,-1.008 -2.249715,-2.250038 V 45.68743 c 0,-0.310928 0.251857,-0.5625 0.562785,-0.5625 0.310073,0 0.5625,0.251572 0.5625,0.5625 v 4.781279 c 0,0.776745 0.629505,1.405725 1.40625,1.405725 h 12.937177 c 0.776745,0 1.40685,-0.629017 1.40685,-1.405725 v -5.063092 c 0,-0.776183 -0.630105,-1.406115 -1.40685,-1.406115 h -10.124925 -0.281002 -5.7e-4 c -0.932445,0 -1.687215,-0.755295 -1.687215,-1.686968 v -0.281812 -1.405973 c 0,-3.106687 2.518102,-5.624752 5.625315,-5.624752 3.106583,0 5.624647,2.518065 5.624647,5.624752 v 0.5625 c 0,0.31092 -0.251572,0.5625 -0.5625,0.5625 -0.310357,0 -0.5625,-0.25158 -0.5625,-0.5625 v -0.5625 c 0,-2.485372 -2.014905,-4.500314 -4.499647,-4.500314 -2.485403,0 -4.50003,2.014912 -4.50003,4.500314 v 0.843473 0.21477 0.34773 c 0,0.466102 0.377647,0.844342 0.843502,0.844342 h 0.347731 0.214769 7.312425 0.28125 1.125 0.281813 0.843187 c 1.243126,0 2.250038,1.006913 2.250038,2.249865 v 5.62503 c 0,1.242038 -1.006912,2.250038 -2.250038,2.250038 z M 42.840085,43.999502 c -0.310073,0 -0.56193,-0.251573 -0.56193,-0.5625 0,-0.310073 0.251857,-0.561938 0.56193,-0.561938 0.310927,0 0.5625,0.251865 0.5625,0.561938 0,0.310927 -0.251573,0.5625 -0.5625,0.5625 z"
     id="path2"
     style="fill:#f2f2f2;fill-opacity:1;stroke-width:0.0351562" />
  <rect
     y="42"
     x="23.000004"
     height="4"
     width="4"
     id="rect4179-5-6-2-9-9-4-4-4-6-7-6-4-2-7-3-3-7-9"
     style="opacity:1;fill:#f2f2f2;fill-opacity:1;stroke:none;stroke-width:2;stroke-miterlimit:4;stroke-dasharray:none;stroke-opacity:1" />
  <rect
     y="42"
     x="31.000004"
     height="4"
     width="4"
     id="rect4179-5-6-2-9-9-4-4-4-6-7-6-4-2-7-3-3-7-9-2"
     style="opacity:1;fill:#f2f2f2;fill-opacity:1;stroke:none;stroke-width:2;stroke-miterlimit:4;stroke-dasharray:none;stroke-opacity:1" />
</svg>
