<?xml version="1.0" encoding="UTF-8" standalone="no"?>
<svg
   width="64"
   version="1.1"
   height="64"
   id="svg17"
   sodipodi:docname="folder-publicshare.svg"
   inkscape:version="1.1.1 (3bf5ae0d25, 2021-09-20)"
   xmlns:inkscape="http://www.inkscape.org/namespaces/inkscape"
   xmlns:sodipodi="http://sodipodi.sourceforge.net/DTD/sodipodi-0.dtd"
   xmlns:xlink="http://www.w3.org/1999/xlink"
   xmlns="http://www.w3.org/2000/svg"
   xmlns:svg="http://www.w3.org/2000/svg"
   xmlns:rdf="http://www.w3.org/1999/02/22-rdf-syntax-ns#"
   xmlns:cc="http://creativecommons.org/ns#"
   xmlns:dc="http://purl.org/dc/elements/1.1/">
  <sodipodi:namedview
     pagecolor="#ffffff"
     bordercolor="#666666"
     borderopacity="1"
     objecttolerance="10"
     gridtolerance="10"
     guidetolerance="10"
     inkscape:pageopacity="0"
     inkscape:pageshadow="2"
     inkscape:window-width="1920"
     inkscape:window-height="1006"
     id="namedview19"
     showgrid="true"
     inkscape:zoom="9.8125"
     inkscape:cx="29.757962"
     inkscape:cy="30.165605"
     inkscape:window-x="0"
     inkscape:window-y="0"
     inkscape:window-maximized="1"
     inkscape:current-layer="layer1"
     inkscape:document-rotation="0"
     inkscape:pagecheckerboard="0">
    <inkscape:grid
       type="xygrid"
       id="grid931" />
  </sodipodi:namedview>
  <defs
     id="defs5455">
    <linearGradient
       inkscape:collect="always"
       xlink:href="#linearGradient860-3"
       id="linearGradient862"
       x1="113.94677"
       y1="255.36646"
       x2="406.08289"
       y2="255.36646"
       gradientUnits="userSpaceOnUse"
       gradientTransform="matrix(0.20270273,0,0,0.18440695,363.86886,467.51048)" />
    <linearGradient
       inkscape:collect="always"
       id="linearGradient860-3">
      <stop
         style="stop-color:#78acd3;stop-opacity:1"
         offset="0"
         id="stop856-6" />
      <stop
         style="stop-color:#d98cbb;stop-opacity:1"
         offset="1"
         id="stop858-7" />
    </linearGradient>
    <linearGradient
       inkscape:collect="always"
       xlink:href="#linearGradient842-3"
       id="linearGradient844-5"
       x1="386.30627"
       y1="522.45404"
       x2="446.83023"
       y2="522.45404"
       gradientUnits="userSpaceOnUse"
       gradientTransform="matrix(0.99134277,0,0,0.99944183,3.60951,0.30122755)" />
    <linearGradient
       inkscape:collect="always"
       id="linearGradient842-3">
      <stop
         style="stop-color:#326e9a;stop-opacity:1"
         offset="0"
         id="stop838-5" />
      <stop
         style="stop-color:#339993;stop-opacity:1"
         offset="1"
         id="stop840-6" />
    </linearGradient>
  </defs>
  <metadata
     id="metadata5458">
    <rdf:RDF>
      <cc:Work
         rdf:about="">
        <dc:format>image/svg+xml</dc:format>
        <dc:type
           rdf:resource="http://purl.org/dc/dcmitype/StillImage" />
      </cc:Work>
    </rdf:RDF>
  </metadata>
  <g
     inkscape:label="Capa 1"
     inkscape:groupmode="layer"
     id="layer1"
     transform="translate(-384.57143,-483.798)">
    <path
       style="fill:url(#linearGradient862);fill-opacity:1;stroke-width:0.179138"
       d="m 416.57459,496.95766 c -0.88032,0 -1.92237,-0.51649 -2.31692,-1.14784 l -1.7701,-2.83719 c -0.39274,-0.63133 -1.43479,-1.14667 -2.3148,-1.14782 l -20.40112,-0.0268 c -1.946,-0.003 -2.7662,0.93496 -2.79385,3.00415 l -0.0117,0.87228 v 2.56642 36.57158 c 0,0.70576 2.32071,2.56642 3.20071,2.56642 h 52.81515 c 0.88002,0 3.20071,-1.86066 3.20071,-2.56642 v -35.28836 c 0,-1.92482 -0.80004,-2.56643 -3.20071,-2.56643 z"
       id="path4-3-2"
       sodipodi:nodetypes="sccsssccsssssss" />
    <path
       style="fill:#f2f2f2;fill-opacity:1;stroke-width:0.176565"
       d="m 442.3495,510.65748 c 0,1.32548 -0.79577,2.40995 -2.61715,2.40995 h -46.19558 c -1.82139,0 -2.51852,-1.08447 -2.51852,-2.40995 v -7.22985 c 0,-1.32548 0.69713,-2.40996 2.51852,-2.40996 h 46.09645 c 1.82137,0 2.71628,1.08448 2.71628,2.40996 z"
       id="path8-6-9"
       sodipodi:nodetypes="sssssssss" />
    <path
       style="fill:url(#linearGradient844-5);fill-opacity:1;stroke-width:0.19334"
       d="m 443.32803,505.1295 h -53.5132 c -1.62182,0 -3.2434,1.47526 -3.2434,2.95052 v 28.76748 c 0,1.95107 1.25422,2.95051 3.2434,2.95051 h 53.5132 c 1.9955,0 3.2434,-0.99944 3.2434,-2.95051 v -28.76748 c 0,-1.47526 -1.62159,-2.95052 -3.2434,-2.95052 z"
       id="path10-1"
       sodipodi:nodetypes="sssssssss" />
    <path
       d="m 440.95542,533.33636 h -0.69262 c -0.38261,0 -0.6919,-0.31031 -0.6919,-0.69158 0,-0.38266 0.30929,-0.69298 0.6919,-0.69298 h 0.69262 c 0.76389,0 1.38452,-0.61924 1.38452,-1.38455 v -2.07619 c 0,-0.0554 -0.0108,-0.11085 -0.0267,-0.16429 -0.005,-0.0203 -0.0152,-0.0399 -0.0233,-0.0608 -0.01,-0.0237 -0.0186,-0.048 -0.0311,-0.071 -0.15784,-0.32026 -0.54456,-0.62855 -1.02721,-0.71711 -0.61756,-0.22984 -1.44331,-0.37184 -2.35357,-0.37184 -0.8843,0 -1.68773,0.143 -2.29923,0.36677 -0.30928,0.0453 -0.58139,0.18354 -0.78552,0.35731 l -0.003,-0.005 c -0.11258,0.0997 -0.25961,0.16242 -0.42186,0.16242 -0.35224,0 -0.6382,-0.28647 -0.6382,-0.63837 0,-0.24977 0.14435,-0.46378 0.35225,-0.56823 0.37521,-0.27349 0.83085,-0.50908 1.3605,-0.68453 -0.56715,-0.56451 -0.94237,-1.32234 -1.01133,-2.16947 -0.009,-0.0936 -0.0142,-0.18795 -0.0142,-0.28327 v -2.07653 c 0,-1.52924 1.23948,-2.76912 2.76938,-2.76912 h 1.38451 c 1.52885,0 2.76903,1.23991 2.76903,2.76912 v 2.07653 c 0,0.38231 -0.31031,0.69263 -0.69258,0.69263 -0.38266,0 -0.69194,-0.31032 -0.69194,-0.69263 v -2.07653 c 0,-0.76497 -0.62062,-1.38456 -1.38451,-1.38456 h -1.38451 c -0.76493,0 -1.38486,0.61959 -1.38486,1.38456 v 2.07653 c 0,1.14728 0.93021,2.07718 2.07645,2.07718 2.55809,0 4.6477,1.13239 4.82855,2.56887 0.0108,0.0649 0.0179,0.13184 0.0179,0.2008 v 2.0762 c -5e-5,1.52989 -1.24022,2.76911 -2.76908,2.76911 z m -7.27784,-5.95117 c -0.008,0.024 -0.0169,0.0491 -0.0284,0.0724 -7.5e-4,6.9e-4 -7.5e-4,0.003 -0.002,0.004 h -7.5e-4 c -0.11223,0.23088 -0.34574,0.39144 -0.61954,0.39144 -0.38266,0 -0.69263,-0.31032 -0.69263,-0.69263 0,-0.099 0.0213,-0.19371 0.0588,-0.2782 l -0.002,-7.5e-4 c 0.16325,-0.35293 0.25691,-0.74437 0.25691,-1.15914 0,-0.15411 -0.0162,-0.30491 -0.0403,-0.45297 0.026,-0.12474 0.0403,-0.25488 0.0403,-0.38772 v -2.81817 c 0,-1.03773 -0.82644,-1.87946 -1.84621,-1.87946 h -1.84557 c -1.02012,0 -1.84658,0.84168 -1.84658,1.87946 v 2.81817 c 0,0.13284 0.0145,0.26298 0.0403,0.38772 -0.024,0.14806 -0.0403,0.29881 -0.0403,0.45297 0,1.52925 1.24018,2.76963 2.76939,2.76963 4.41383,0 8.01502,1.57857 8.28138,3.5703 0.0152,0.0771 0.026,0.15615 0.026,0.23663 v 1.73139 c 0,1.52928 -1.24017,2.76847 -2.76938,2.76847 h -11.07645 c -1.52894,0 -2.76912,-1.23923 -2.76912,-2.76847 v -1.73139 c 0,-0.0804 0.008,-0.15615 0.0196,-0.23121 0.0899,-0.6977 0.59186,-1.3406 1.38621,-1.88348 0.11258,-0.0954 0.25589,-0.1562 0.41472,-0.1562 0.35393,0 0.64087,0.286 0.64087,0.64028 0,0.22646 -0.1176,0.42319 -0.29508,0.53746 l 0.005,0.007 c -0.49991,0.33394 -0.78621,0.70444 -0.78621,1.0864 v 1.73139 c 0,0.76397 0.62059,1.38391 1.38452,1.38391 h 11.07646 c 0.76492,0 1.38451,-0.61994 1.38451,-1.38391 v -1.73139 c 0,-1.33861 -3.09964,-2.42232 -6.92257,-2.42232 -1.11171,0 -2.11937,-0.44012 -2.86469,-1.1513 -0.19709,-0.18796 -0.3779,-0.39686 -0.53474,-0.62064 -0.15348,-0.21819 -0.28631,-0.45279 -0.39582,-0.69885 -0.005,-0.009 -0.008,-0.0169 -0.0125,-0.0257 -0.0457,-0.10444 -0.0858,-0.21331 -0.12306,-0.32212 -0.008,-0.0247 -0.019,-0.048 -0.0267,-0.073 -0.0314,-0.097 -0.0554,-0.19773 -0.0794,-0.29845 -0.009,-0.0375 -0.0206,-0.074 -0.0287,-0.11259 -0.024,-0.11492 -0.0399,-0.23255 -0.055,-0.35021 -0.003,-0.0224 -0.008,-0.0439 -0.01,-0.0662 -0.0152,-0.14266 -0.0233,-0.28799 -0.0233,-0.43505 0,-0.0767 0.007,-0.15045 0.0118,-0.22647 -0.005,-0.0784 -0.0118,-0.15585 -0.0118,-0.23529 v -3.23021 c 0,-1.78479 1.39533,-3.23087 3.11516,-3.23087 h 2.0771 c 1.72083,0 3.11517,1.44608 3.11517,3.23087 v 3.23021 c 0,0.0794 -0.006,0.15684 -0.0115,0.23529 0.005,0.0761 0.0115,0.14975 0.0115,0.22647 0,0.59289 -0.13015,1.15368 -0.35492,1.66375 z m -8.99019,2.1436 z"
       id="path2"
       style="fill:#f2f2f2;fill-opacity:1;stroke-width:0.0432674"
       sodipodi:nodetypes="cssssssccccscccsscccsssssssssssssscscccccccssccscsssssscsscssssssccssccsssssssccccccccccscsssssscsccccccc" />
  </g>
</svg>
