<?xml version="1.0" encoding="UTF-8" standalone="no"?>
<svg
   width="64"
   version="1.1"
   height="64"
   id="svg17"
   sodipodi:docname="folder-Pop_OS.svg"
   inkscape:version="1.1.1 (3bf5ae0d25, 2021-09-20)"
   xmlns:inkscape="http://www.inkscape.org/namespaces/inkscape"
   xmlns:sodipodi="http://sodipodi.sourceforge.net/DTD/sodipodi-0.dtd"
   xmlns:xlink="http://www.w3.org/1999/xlink"
   xmlns="http://www.w3.org/2000/svg"
   xmlns:svg="http://www.w3.org/2000/svg"
   xmlns:rdf="http://www.w3.org/1999/02/22-rdf-syntax-ns#"
   xmlns:cc="http://creativecommons.org/ns#"
   xmlns:dc="http://purl.org/dc/elements/1.1/">
  <sodipodi:namedview
     pagecolor="#ffffff"
     bordercolor="#666666"
     borderopacity="1"
     objecttolerance="10"
     gridtolerance="10"
     guidetolerance="10"
     inkscape:pageopacity="0"
     inkscape:pageshadow="2"
     inkscape:window-width="1920"
     inkscape:window-height="1011"
     id="namedview19"
     showgrid="true"
     inkscape:zoom="9.8125004"
     inkscape:cx="21.910827"
     inkscape:cy="35.617833"
     inkscape:window-x="0"
     inkscape:window-y="0"
     inkscape:window-maximized="1"
     inkscape:current-layer="layer1"
     inkscape:document-rotation="0"
     inkscape:pagecheckerboard="0">
    <inkscape:grid
       type="xygrid"
       id="grid908" />
  </sodipodi:namedview>
  <defs
     id="defs5455">
    <linearGradient
       inkscape:collect="always"
       id="linearGradient842">
      <stop
         style="stop-color:#326e9a;stop-opacity:1"
         offset="0"
         id="stop838" />
      <stop
         style="stop-color:#339993;stop-opacity:1"
         offset="1"
         id="stop840" />
    </linearGradient>
    <linearGradient
       inkscape:collect="always"
       xlink:href="#linearGradient860"
       id="linearGradient862"
       x1="113.94677"
       y1="255.36646"
       x2="406.08289"
       y2="255.36646"
       gradientUnits="userSpaceOnUse"
       gradientTransform="matrix(0.20270273,0,0,0.18440695,363.86886,467.51047)" />
    <linearGradient
       inkscape:collect="always"
       id="linearGradient860">
      <stop
         style="stop-color:#78acd3;stop-opacity:1"
         offset="0"
         id="stop856" />
      <stop
         style="stop-color:#d98cbb;stop-opacity:1"
         offset="1"
         id="stop858" />
    </linearGradient>
    <linearGradient
       inkscape:collect="always"
       xlink:href="#linearGradient842"
       id="linearGradient844"
       x1="386.30626"
       y1="522.45407"
       x2="446.83023"
       y2="522.45407"
       gradientUnits="userSpaceOnUse"
       gradientTransform="matrix(0.99134277,0,0,0.99944183,3.6095126,0.30129674)" />
  </defs>
  <metadata
     id="metadata5458">
    <rdf:RDF>
      <cc:Work
         rdf:about="">
        <dc:format>image/svg+xml</dc:format>
        <dc:type
           rdf:resource="http://purl.org/dc/dcmitype/StillImage" />
      </cc:Work>
    </rdf:RDF>
  </metadata>
  <g
     inkscape:label="Capa 1"
     inkscape:groupmode="layer"
     id="layer1"
     transform="translate(-384.57143,-483.798)">
    <path
       style="fill:url(#linearGradient862);fill-opacity:1;stroke-width:0.179138"
       d="m 416.57459,496.95765 c -0.88032,0 -1.92237,-0.51649 -2.31692,-1.14784 l -1.7701,-2.83719 c -0.39274,-0.63133 -1.43479,-1.14667 -2.3148,-1.14782 l -20.40112,-0.0268 c -1.946,-0.003 -2.7662,0.93496 -2.79385,3.00415 l -0.0117,0.87228 v 2.56642 36.57158 c 0,0.70576 2.32071,2.56642 3.20071,2.56642 h 52.81515 c 0.88002,0 3.20071,-1.86066 3.20071,-2.56642 v -35.28836 c 0,-1.92482 -0.80004,-2.56643 -3.20071,-2.56643 z"
       id="path4-3"
       sodipodi:nodetypes="sccsssccsssssss" />
    <path
       style="fill:#f2f2f2;fill-opacity:1;stroke-width:0.176565"
       d="m 442.3495,510.65747 c 0,1.32548 -0.79577,2.40995 -2.61715,2.40995 h -46.19558 c -1.82139,0 -2.51852,-1.08447 -2.51852,-2.40995 v -7.22985 c 0,-1.32548 0.69713,-2.40996 2.51852,-2.40996 h 46.09645 c 1.82137,0 2.71628,1.08448 2.71628,2.40996 z"
       id="path8-6"
       sodipodi:nodetypes="sssssssss" />
    <path
       style="fill:url(#linearGradient844);fill-opacity:1;stroke-width:0.19334"
       d="m 443.32803,505.12949 h -53.5132 c -1.62182,0 -3.2434,1.47526 -3.2434,2.95052 v 28.76748 c 0,1.95107 1.25422,2.95051 3.2434,2.95051 h 53.5132 c 1.9955,0 3.2434,-0.99944 3.2434,-2.95051 v -28.76748 c 0,-1.47526 -1.62159,-2.95052 -3.2434,-2.95052 z"
       id="path10"
       sodipodi:nodetypes="sssssssss" />
    <path
       style="fill:#f2f2f2;fill-opacity:1;stroke-width:0.0252985"
       id="path2-3-3"
       d="m 440.66135,528.99103 c -0.0493,0.20285 -0.14951,0.38245 -0.32394,0.49543 -0.27432,0.1773 -0.60829,0.12578 -0.8451,-0.0898 -0.22183,-0.20024 -0.29665,-0.53894 -0.22689,-0.83181 0.072,-0.30564 0.30163,-0.57521 0.59579,-0.65998 0.65556,-0.18731 0.92735,0.54688 0.80014,1.08625 z m -0.4013,-2.08492 c -0.40623,-0.16701 -0.26675,-2.36212 0.10499,-5.02698 0.10504,-0.74467 0.28425,-1.0967 0.48617,-1.27649 0.28913,-0.254 0.81509,-0.26446 1.17144,-0.21052 0.40886,0.0592 0.80027,0.25693 1.09686,0.55212 0.26175,0.26214 0.29162,0.52891 0.20182,0.87572 -0.14693,0.55212 -0.39872,1.08103 -0.64062,1.5968 -0.056,0.12567 -0.5584,1.10401 -0.62558,1.22464 -1.20895,2.1928 -1.45076,2.40585 -1.79467,2.26471 z" />
    <path
       style="fill:#f2f2f2;fill-opacity:1;stroke-width:0.0252985"
       id="path4"
       d="m 432.05917,525.91753 c 0.23925,1.05295 0.21431,2.20822 0.007,3.04001 -0.19185,0.78566 -0.71281,1.48914 -1.5404,1.72534 -0.72553,0.20804 -1.57039,0.0556 -2.089,-0.45698 -0.85244,-0.84218 -1.35096,-2.81922 -1.12916,-4.25446 0.17955,-1.15256 0.78276,-2.62912 2.10644,-2.69348 0.0863,-0.003 0.1695,-0.002 0.25408,0.003 1.34866,0.12584 2.08397,1.29678 2.38816,2.63453 z m -2.43773,2.39552 c 0.0736,0.0147 0.14944,0.0147 0.22419,-0.007 0.25178,-0.0736 0.39639,-0.34413 0.46362,-0.60592 0.10297,-0.39801 0.088,-0.82678 -0.0475,-1.21708 -0.0685,-0.19774 -0.16678,-0.3903 -0.31911,-0.5341 -0.53578,-0.50574 -1.07154,0.0196 -1.16391,0.61879 -0.072,0.46737 0.0336,1.00908 0.31647,1.38657 0.13216,0.17459 0.32177,0.326 0.52368,0.36195 z" />
    <path
       style="fill:#f2f2f2;fill-opacity:1;stroke-width:0.0252985"
       id="path6"
       d="m 434.97812,528.14895 c -0.002,1.94339 0.18686,3.43003 -0.64321,3.60726 -0.67296,0.14112 -0.65047,-0.46732 -0.70296,-0.97827 -0.19929,-1.97946 -0.38125,-5.26835 -0.45865,-7.25851 0.0543,-0.85505 0.61082,-1.37877 1.18911,-1.50691 0.89239,-0.19777 1.8445,-0.1415 2.63475,0.36187 1.56295,0.99636 1.68759,2.82435 0.74036,4.31597 -0.51853,0.81395 -2.08639,1.40465 -2.7594,1.35306 z m 0.19933,-4.35715 c -0.0967,0.0164 -0.25669,0.0591 -0.30163,0.1589 -0.10717,0.22849 -0.1008,1.67952 0.088,2.28788 0.0318,0.10131 0.0956,0.19503 0.1944,0.23098 0.35398,0.13358 0.67309,-0.31331 0.81765,-0.58283 0.2019,-0.37482 0.2666,-0.81637 0.13953,-1.22736 -0.11996,-0.38243 -0.49103,-0.93716 -0.93721,-0.86757 z" />
    <path
       style="fill:#f2f2f2;fill-opacity:1;stroke-width:0.0252985"
       id="path8"
       d="m 426.03924,524.75701 c -0.58579,1.2763 -1.55796,2.29024 -2.90389,2.7911 0.38657,1.03985 0.78009,2.06695 1.16399,3.10403 0.21452,0.55965 0.41884,1.17334 0.23176,1.72535 -0.19442,0.56488 -0.95186,0.72146 -1.50291,0.12092 -1.05954,-1.16063 -4.64131,-8.51394 -4.90549,-9.06607 -0.22453,-0.47497 -0.56068,-0.98342 -0.55107,-1.53279 0.0176,-0.82684 1.25914,-1.66389 1.85439,-2.09244 0.83281,-0.59851 1.79484,-1.00679 2.82436,-1.00911 0.80277,0 1.48815,0.22618 2.09647,0.62632 0.93215,0.61651 1.5804,1.5995 1.81983,2.71128 0.20915,0.97835 0.16438,1.97995 -0.12737,2.62171 M 423.31,523.36043 c -0.20948,-0.7829 -0.68315,-1.50435 -1.27897,-2.01009 -0.12927,-0.11034 -0.26929,-0.21343 -0.43085,-0.26966 -1.11681,-0.37756 -0.63323,1.54556 -0.45124,2.03097 0.25169,0.68029 0.63323,1.54034 1.14402,2.05375 0.11183,0.11267 0.24434,0.21325 0.39625,0.24399 0.23188,0.0504 0.44616,-0.11857 0.56354,-0.31316 0.0955,-0.16181 0.13429,-0.35435 0.15704,-0.54165 0.0403,-0.39787 0.003,-0.80384 -0.10112,-1.19415 z" />
    <path
       style="fill:#f2f2f2;fill-opacity:1;stroke-width:0.0252985"
       id="path10-3"
       d="m 439.39354,534.53092 c -0.003,1.12726 -0.67301,2.25434 -2.1463,2.25434 -1.47308,0 -2.15857,-1.1091 -2.15857,-2.24148 0,-1.41213 0.95467,-2.28509 2.18856,-2.28509 1.43083,0.0145 2.12879,1.10659 2.11631,2.27223 z m -2.11631,-1.56097 c -0.92475,0 -1.44337,0.66249 -1.44826,1.56619 0,0.78568 0.42619,1.52254 1.43071,1.52254 1.00457,0 1.38845,-0.79843 1.38845,-1.53024 0.0145,-0.76006 -0.37879,-1.54052 -1.3709,-1.55849 z m 2.73442,3.2376 c 0,0.16697 0.003,-0.79336 0,-0.93964 h 0.67802 l 0.0494,0.58801 c 0.22194,0.13092 0.56585,0.22852 0.84752,0.22852 0.52355,0 1.06943,-0.13619 1.06943,-0.66252 -0.0177,-0.47756 -0.6257,-0.57509 -1.11672,-0.62654 -0.83506,-0.0882 -1.50806,-0.29766 -1.50806,-1.26315 0,-0.86018 0.94467,-1.28878 1.6476,-1.28878 0.56586,-0.0146 0.96717,0.0771 1.47812,0.50049 0,0.34679 -0.003,0.55213 -0.003,0.89867 h -0.65544 l -0.0403,-0.56986 c -0.26422,-0.13106 -0.53595,-0.16699 -0.74527,-0.16176 -0.45121,0.003 -0.93231,0.22327 -0.93231,0.61356 0,0.38251 0.3116,0.4878 0.86495,0.57005 0.90243,0.12332 1.77229,0.33368 1.77229,1.3248 -0.003,1.08342 -0.99209,1.36853 -1.83957,1.36853 -0.64558,0.002 -1.04943,-0.12099 -1.56039,-0.58038 z"
       inkscape:connector-curvature="0" />
    <path
       style="fill:#f2f2f2;fill-opacity:1;stroke-width:0.0252985"
       id="path12"
       d="m 434.17382,536.41563 c 0,0.19771 -0.15462,0.35679 -0.34641,0.35679 h -4.00583 c -0.19196,0 -0.34638,-0.15908 -0.34638,-0.35679 v -0.0324 c 0,-0.19777 0.15442,-0.35672 0.34638,-0.35672 h 4.00583 c 0.19179,0 0.34641,0.15895 0.34641,0.35672 z"
       inkscape:connector-curvature="0" />
  </g>
</svg>
