<?xml version="1.0" encoding="UTF-8" standalone="no"?>
<svg
   width="64"
   version="1.1"
   height="64"
   id="svg17"
   sodipodi:docname="folder-Neon.svg"
   inkscape:version="1.1.1 (3bf5ae0d25, 2021-09-20)"
   xmlns:inkscape="http://www.inkscape.org/namespaces/inkscape"
   xmlns:sodipodi="http://sodipodi.sourceforge.net/DTD/sodipodi-0.dtd"
   xmlns:xlink="http://www.w3.org/1999/xlink"
   xmlns="http://www.w3.org/2000/svg"
   xmlns:svg="http://www.w3.org/2000/svg"
   xmlns:rdf="http://www.w3.org/1999/02/22-rdf-syntax-ns#"
   xmlns:cc="http://creativecommons.org/ns#"
   xmlns:dc="http://purl.org/dc/elements/1.1/">
  <sodipodi:namedview
     pagecolor="#ffffff"
     bordercolor="#666666"
     borderopacity="1"
     objecttolerance="10"
     gridtolerance="10"
     guidetolerance="10"
     inkscape:pageopacity="0"
     inkscape:pageshadow="2"
     inkscape:window-width="1920"
     inkscape:window-height="1011"
     id="namedview19"
     showgrid="true"
     inkscape:zoom="9.8125004"
     inkscape:cx="35.668788"
     inkscape:cy="34.089171"
     inkscape:window-x="0"
     inkscape:window-y="0"
     inkscape:window-maximized="1"
     inkscape:current-layer="layer1"
     inkscape:document-rotation="0"
     inkscape:pagecheckerboard="0">
    <inkscape:grid
       type="xygrid"
       id="grid908" />
  </sodipodi:namedview>
  <defs
     id="defs5455">
    <linearGradient
       inkscape:collect="always"
       id="linearGradient842">
      <stop
         style="stop-color:#326e9a;stop-opacity:1"
         offset="0"
         id="stop838" />
      <stop
         style="stop-color:#339993;stop-opacity:1"
         offset="1"
         id="stop840" />
    </linearGradient>
    <linearGradient
       inkscape:collect="always"
       xlink:href="#linearGradient860"
       id="linearGradient862"
       x1="113.94677"
       y1="255.36646"
       x2="406.08289"
       y2="255.36646"
       gradientUnits="userSpaceOnUse"
       gradientTransform="matrix(0.20270273,0,0,0.18440695,363.86886,467.51047)" />
    <linearGradient
       inkscape:collect="always"
       id="linearGradient860">
      <stop
         style="stop-color:#78acd3;stop-opacity:1"
         offset="0"
         id="stop856" />
      <stop
         style="stop-color:#d98cbb;stop-opacity:1"
         offset="1"
         id="stop858" />
    </linearGradient>
    <linearGradient
       inkscape:collect="always"
       xlink:href="#linearGradient842"
       id="linearGradient844"
       x1="386.30626"
       y1="522.45407"
       x2="446.83023"
       y2="522.45407"
       gradientUnits="userSpaceOnUse"
       gradientTransform="matrix(0.99134277,0,0,0.99944183,3.6095126,0.30129674)" />
  </defs>
  <metadata
     id="metadata5458">
    <rdf:RDF>
      <cc:Work
         rdf:about="">
        <dc:format>image/svg+xml</dc:format>
        <dc:type
           rdf:resource="http://purl.org/dc/dcmitype/StillImage" />
      </cc:Work>
    </rdf:RDF>
  </metadata>
  <g
     inkscape:label="Capa 1"
     inkscape:groupmode="layer"
     id="layer1"
     transform="translate(-384.57143,-483.798)">
    <path
       style="fill:url(#linearGradient862);fill-opacity:1;stroke-width:0.179138"
       d="m 416.57459,496.95765 c -0.88032,0 -1.92237,-0.51649 -2.31692,-1.14784 l -1.7701,-2.83719 c -0.39274,-0.63133 -1.43479,-1.14667 -2.3148,-1.14782 l -20.40112,-0.0268 c -1.946,-0.003 -2.7662,0.93496 -2.79385,3.00415 l -0.0117,0.87228 v 2.56642 36.57158 c 0,0.70576 2.32071,2.56642 3.20071,2.56642 h 52.81515 c 0.88002,0 3.20071,-1.86066 3.20071,-2.56642 v -35.28836 c 0,-1.92482 -0.80004,-2.56643 -3.20071,-2.56643 z"
       id="path4-3"
       sodipodi:nodetypes="sccsssccsssssss" />
    <path
       style="fill:#f2f2f2;fill-opacity:1;stroke-width:0.176565"
       d="m 442.3495,510.65747 c 0,1.32548 -0.79577,2.40995 -2.61715,2.40995 h -46.19558 c -1.82139,0 -2.51852,-1.08447 -2.51852,-2.40995 v -7.22985 c 0,-1.32548 0.69713,-2.40996 2.51852,-2.40996 h 46.09645 c 1.82137,0 2.71628,1.08448 2.71628,2.40996 z"
       id="path8-6"
       sodipodi:nodetypes="sssssssss" />
    <path
       style="fill:url(#linearGradient844);fill-opacity:1;stroke-width:0.19334"
       d="m 443.32803,505.12949 h -53.5132 c -1.62182,0 -3.2434,1.47526 -3.2434,2.95052 v 28.76748 c 0,1.95107 1.25422,2.95051 3.2434,2.95051 h 53.5132 c 1.9955,0 3.2434,-0.99944 3.2434,-2.95051 v -28.76748 c 0,-1.47526 -1.62159,-2.95052 -3.2434,-2.95052 z"
       id="path10"
       sodipodi:nodetypes="sssssssss" />
    <path
       d="m 434.49415,525.45723 c -1.27974,0 -2.31721,1.04594 -2.31721,2.33615 0,1.29014 1.03747,2.3361 2.31721,2.3361 1.27971,0 2.3172,-1.04596 2.3172,-2.3361 0,-1.29021 -1.03749,-2.33616 -2.3172,-2.33615 z m -0.40207,0.75135 c -0.43438,0.11171 -0.80729,0.40408 -1.02282,0.80345 -0.0205,0.0382 -0.0598,0.0598 -0.1019,0.0598 -0.0186,0 -0.0373,-0.004 -0.055,-0.0148 -0.0557,-0.0318 -0.0763,-0.10192 -0.0476,-0.1585 0.24642,-0.45569 0.67272,-0.7903 1.16933,-0.91782 0.063,-0.017 0.12511,0.0212 0.14078,0.0847 0.0162,0.0625 -0.0211,0.12591 -0.084,0.14174 z"
       id="path2-6"
       style="fill:#f2f2f2;fill-opacity:1;stroke-width:0.19906" />
    <path
       d="m 435.30264,522.51126 c -0.0144,-0.43951 -0.36899,-0.7921 -0.80849,-0.7921 -0.43955,0 -0.79482,0.35259 -0.8085,0.7921 -2.54061,0.39394 -4.49227,2.61232 -4.49227,5.28212 0,2.6697 1.95183,4.88807 4.49227,5.28201 0.0144,0.43957 0.36895,0.79219 0.8085,0.79219 0.4395,0 0.79477,-0.35262 0.80849,-0.79219 2.54067,-0.39394 4.49233,-2.61231 4.49233,-5.28201 0,-2.6698 -1.95166,-4.88818 -4.49233,-5.28212 z m -0.0133,10.3885 c -0.0704,-0.37975 -0.39914,-0.66756 -0.79624,-0.66756 -0.39712,0 -0.72605,0.28755 -0.79621,0.66756 -2.45019,-0.3872 -4.33064,-2.529 -4.33064,-5.10638 0,-2.5774 1.88045,-4.71924 4.33086,-5.1064 0.0704,0.37976 0.3991,0.66758 0.79615,0.66758 0.39712,0 0.72604,-0.28762 0.79626,-0.66758 2.45002,0.38716 4.33049,2.529 4.33049,5.1064 0,2.57737 -1.88047,4.71918 -4.33067,5.10638 z"
       id="path4"
       style="fill:#f2f2f2;fill-opacity:1;stroke-width:0.19906" />
    <path
       d="m 443.41566,527.79338 c 0,-0.43553 -0.33825,-0.78793 -0.76409,-0.81288 -0.16238,-1.66979 -0.81985,-3.19503 -1.82159,-4.42487 0.28602,-0.32098 0.27889,-0.81327 -0.0283,-1.12225 -0.30629,-0.30883 -0.79477,-0.31623 -1.113,-0.0286 -1.21967,-1.0101 -2.73274,-1.67258 -4.38877,-1.83645 -0.0238,-0.42885 -0.37451,-0.77033 -0.80655,-0.77033 -0.43195,0 -0.78153,0.34148 -0.80626,0.77033 -1.65606,0.16371 -3.16895,0.82635 -4.38877,1.83645 -0.31827,-0.28862 -0.80689,-0.28119 -1.11343,0.0286 -0.30626,0.30898 -0.31359,0.80166 -0.0278,1.12248 -1.00192,1.22961 -1.65903,2.75505 -1.82158,4.42464 -0.42586,0.0238 -0.76409,0.37735 -0.76409,0.81288 0,0.43549 0.33823,0.78791 0.76409,0.8129 0.16238,1.66952 0.81966,3.1946 1.8214,4.42431 -0.28631,0.32111 -0.27896,0.81377 0.0281,1.1228 0.30652,0.30871 0.79499,0.31612 1.11363,0.0277 1.21965,1.01034 2.73273,1.67259 4.38881,1.83647 0.0236,0.42884 0.37427,0.77032 0.80627,0.77032 0.43198,0 0.78157,-0.34148 0.80627,-0.77032 1.65608,-0.16371 3.16898,-0.82613 4.38877,-1.83647 0.31868,0.28863 0.80697,0.2812 1.11344,-0.0277 0.30627,-0.30903 0.3136,-0.80169 0.0281,-1.12255 1.00224,-1.22959 1.65904,-2.75504 1.82159,-4.42457 0.42595,-0.0238 0.76408,-0.3774 0.76408,-0.81289 z m -0.93779,0.80486 c -0.16015,1.62759 -0.80095,3.11468 -1.77693,4.31507 -0.31704,-0.22988 -0.75988,-0.20379 -1.04496,0.0842 -0.28518,0.28762 -0.31138,0.7341 -0.0835,1.05351 -1.1905,0.98396 -2.66572,1.62996 -4.28052,1.79142 -0.0598,-0.39054 -0.39331,-0.68971 -0.79796,-0.68971 -0.40465,0 -0.73714,0.29917 -0.79802,0.68971 -1.61477,-0.16146 -3.08999,-0.80746 -4.28052,-1.79142 0.2282,-0.31983 0.20221,-0.76661 -0.0834,-1.05368 -0.28511,-0.2875 -0.72818,-0.31415 -1.04521,-0.0844 -0.97601,-1.20005 -1.61695,-2.68713 -1.77714,-4.31472 0.38739,-0.0608 0.68415,-0.39691 0.68415,-0.80487 0,-0.40799 -0.29676,-0.74318 -0.68415,-0.8049 0.16019,-1.62761 0.80091,-3.11448 1.77677,-4.31494 0.31719,0.23026 0.76047,0.20393 1.04537,-0.0841 0.28511,-0.2874 0.31109,-0.73434 0.0835,-1.05396 1.19069,-0.98371 2.66554,-1.62975 4.28031,-1.79126 0.0598,0.39052 0.39336,0.68973 0.798,0.68973 0.40462,0 0.73713,-0.29921 0.79799,-0.68973 1.61477,0.16151 3.08978,0.80755 4.28037,1.79126 -0.22806,0.31982 -0.20232,0.76632 0.0834,1.05376 0.28505,0.28739 0.72822,0.31363 1.04523,0.084 0.97593,1.20028 1.61672,2.68752 1.77698,4.31513 -0.38741,0.0607 -0.68413,0.39691 -0.68413,0.8049 0,0.40796 0.2969,0.74313 0.68447,0.80487 z"
       id="path6"
       style="fill:#f2f2f2;fill-opacity:1;stroke-width:0.19906" />
  </g>
</svg>
