<?xml version="1.0" encoding="UTF-8" standalone="no"?>
<svg
   width="64"
   version="1.1"
   height="64"
   id="svg17"
   sodipodi:docname="folder-downloads.svg"
   inkscape:version="1.1.1 (3bf5ae0d25, 2021-09-20)"
   xmlns:inkscape="http://www.inkscape.org/namespaces/inkscape"
   xmlns:sodipodi="http://sodipodi.sourceforge.net/DTD/sodipodi-0.dtd"
   xmlns:xlink="http://www.w3.org/1999/xlink"
   xmlns="http://www.w3.org/2000/svg"
   xmlns:svg="http://www.w3.org/2000/svg"
   xmlns:rdf="http://www.w3.org/1999/02/22-rdf-syntax-ns#"
   xmlns:cc="http://creativecommons.org/ns#"
   xmlns:dc="http://purl.org/dc/elements/1.1/">
  <sodipodi:namedview
     pagecolor="#ffffff"
     bordercolor="#666666"
     borderopacity="1"
     objecttolerance="10"
     gridtolerance="10"
     guidetolerance="10"
     inkscape:pageopacity="0"
     inkscape:pageshadow="2"
     inkscape:window-width="1920"
     inkscape:window-height="1011"
     id="namedview19"
     showgrid="true"
     inkscape:zoom="9.8125004"
     inkscape:cx="26.802547"
     inkscape:cy="33.579616"
     inkscape:window-x="0"
     inkscape:window-y="0"
     inkscape:window-maximized="1"
     inkscape:current-layer="layer1"
     inkscape:document-rotation="0"
     inkscape:pagecheckerboard="0"
     inkscape:lockguides="false">
    <inkscape:grid
       type="xygrid"
       id="grid908" />
  </sodipodi:namedview>
  <defs
     id="defs5455">
    <linearGradient
       inkscape:collect="always"
       id="linearGradient842">
      <stop
         style="stop-color:#326e9a;stop-opacity:1"
         offset="0"
         id="stop838" />
      <stop
         style="stop-color:#339993;stop-opacity:1"
         offset="1"
         id="stop840" />
    </linearGradient>
    <linearGradient
       inkscape:collect="always"
       xlink:href="#linearGradient860"
       id="linearGradient862"
       x1="113.94677"
       y1="255.36646"
       x2="406.08289"
       y2="255.36646"
       gradientUnits="userSpaceOnUse"
       gradientTransform="matrix(0.20270273,0,0,0.18440695,363.86886,467.51047)" />
    <linearGradient
       inkscape:collect="always"
       id="linearGradient860">
      <stop
         style="stop-color:#78acd3;stop-opacity:1"
         offset="0"
         id="stop856" />
      <stop
         style="stop-color:#d98cbb;stop-opacity:1"
         offset="1"
         id="stop858" />
    </linearGradient>
    <linearGradient
       inkscape:collect="always"
       xlink:href="#linearGradient842"
       id="linearGradient844"
       x1="386.30626"
       y1="522.45407"
       x2="446.83023"
       y2="522.45407"
       gradientUnits="userSpaceOnUse"
       gradientTransform="matrix(0.99134277,0,0,0.99944183,3.6095126,0.30129674)" />
  </defs>
  <metadata
     id="metadata5458">
    <rdf:RDF>
      <cc:Work
         rdf:about="">
        <dc:format>image/svg+xml</dc:format>
        <dc:type
           rdf:resource="http://purl.org/dc/dcmitype/StillImage" />
      </cc:Work>
    </rdf:RDF>
  </metadata>
  <g
     inkscape:label="Capa 1"
     inkscape:groupmode="layer"
     id="layer1"
     transform="translate(-384.57143,-483.798)">
    <path
       style="fill:url(#linearGradient862);fill-opacity:1;stroke-width:0.179138"
       d="m 416.57459,496.95765 c -0.88032,0 -1.92237,-0.51649 -2.31692,-1.14784 l -1.7701,-2.83719 c -0.39274,-0.63133 -1.43479,-1.14667 -2.3148,-1.14782 l -20.40112,-0.0268 c -1.946,-0.003 -2.7662,0.93496 -2.79385,3.00415 l -0.0117,0.87228 v 2.56642 36.57158 c 0,0.70576 2.32071,2.56642 3.20071,2.56642 h 52.81515 c 0.88002,0 3.20071,-1.86066 3.20071,-2.56642 v -35.28836 c 0,-1.92482 -0.80004,-2.56643 -3.20071,-2.56643 z"
       id="path4-3"
       sodipodi:nodetypes="sccsssccsssssss" />
    <path
       style="fill:#f2f2f2;fill-opacity:1;stroke-width:0.176565"
       d="m 442.3495,510.65747 c 0,1.32548 -0.79577,2.40995 -2.61715,2.40995 h -46.19558 c -1.82139,0 -2.51852,-1.08447 -2.51852,-2.40995 v -7.22985 c 0,-1.32548 0.69713,-2.40996 2.51852,-2.40996 h 46.09645 c 1.82137,0 2.71628,1.08448 2.71628,2.40996 z"
       id="path8-6"
       sodipodi:nodetypes="sssssssss" />
    <path
       style="fill:url(#linearGradient844);fill-opacity:1;stroke-width:0.19334"
       d="m 443.32803,505.12949 h -53.5132 c -1.62182,0 -3.2434,1.47526 -3.2434,2.95052 v 28.76748 c 0,1.95107 1.25422,2.95051 3.2434,2.95051 h 53.5132 c 1.9955,0 3.2434,-0.99944 3.2434,-2.95051 v -28.76748 c 0,-1.47526 -1.62159,-2.95052 -3.2434,-2.95052 z"
       id="path10"
       sodipodi:nodetypes="sssssssss" />
    <path
       fill-rule="evenodd"
       clip-rule="evenodd"
       d="m 437.838,523.85767 c 0,-0.31046 0.24961,-0.56218 0.55741,-0.56218 0.30785,0 0.55742,0.25172 0.55742,0.56218 0,0.31047 -0.24957,0.56219 -0.55742,0.56219 -0.3078,0 -0.55741,-0.25172 -0.55741,-0.56219 z m 4.93265,5.52552 -6.70059,6.75775 c -0.43534,0.43922 -1.00594,0.64701 -1.57656,0.64701 -0.57063,0 -1.14126,-0.2078 -1.5766,-0.64701 l -6.70072,-6.75775 c -0.46622,-0.47051 -0.67446,-1.09665 -0.64135,-1.71238 v 0.12217 c 0,-1.24187 0.99819,-2.24875 2.22965,-2.24875 h 1.11484 c 0.6157,0 1.11485,-0.50344 1.11485,-1.12437 v -3.37312 c 0,-1.24186 0.99822,-2.24874 2.22968,-2.24874 h 4.45936 c 1.23133,0 2.22969,1.00688 2.22969,2.24874 v 0.56219 c 0,0.31047 -0.24957,0.56219 -0.55742,0.56219 -0.30781,0 -0.55742,-0.25172 -0.55742,-0.56219 v -0.56219 c 0,-0.62093 -0.49914,-1.12437 -1.11481,-1.12437 h -4.45943 c -0.61567,0 -1.11485,0.50344 -1.11485,1.12437 v 3.37312 c 0,1.24187 -0.99819,2.24874 -2.22969,2.24874 h -1.1148 c -0.61565,0 -1.1148,0.50343 -1.1148,1.12438 0,0 -0.005,0.002 -0.0111,0.005 7.5e-4,0.2863 0.1094,0.57234 0.32605,0.79058 l 6.70058,6.75804 c 0.43548,0.43921 1.14122,0.43921 1.57673,0 l 6.7006,-6.75804 c 0.21663,-0.21852 0.32524,-0.50453 0.32604,-0.79114 -0.007,-0.002 -0.0112,-0.004 -0.0112,-0.004 0,-0.62095 -0.49915,-1.12438 -1.11481,-1.12438 h -0.55742 c -0.30785,0 -0.55742,-0.25172 -0.55742,-0.56218 0,-0.31047 0.24957,-0.56219 0.55742,-0.56219 h 0.55742 c 1.23131,0 2.22968,1.00688 2.22968,2.24875 v -0.12218 c 0.0331,0.61574 -0.17534,1.24188 -0.64159,1.71239 z"
       id="path2"
       style="fill:#f2f2f2;fill-opacity:1;stroke-width:0.0349939" />
  </g>
</svg>
