<?xml version="1.0" encoding="UTF-8" standalone="no"?>
<svg
   width="64"
   version="1.1"
   height="64"
   id="svg16"
   sodipodi:docname="folder-cloud.svg"
   inkscape:version="1.1.1 (3bf5ae0d25, 2021-09-20)"
   xmlns:inkscape="http://www.inkscape.org/namespaces/inkscape"
   xmlns:sodipodi="http://sodipodi.sourceforge.net/DTD/sodipodi-0.dtd"
   xmlns:xlink="http://www.w3.org/1999/xlink"
   xmlns="http://www.w3.org/2000/svg"
   xmlns:svg="http://www.w3.org/2000/svg"
   xmlns:rdf="http://www.w3.org/1999/02/22-rdf-syntax-ns#"
   xmlns:cc="http://creativecommons.org/ns#"
   xmlns:dc="http://purl.org/dc/elements/1.1/">
  <sodipodi:namedview
     pagecolor="#ffffff"
     bordercolor="#666666"
     borderopacity="1"
     objecttolerance="10"
     gridtolerance="10"
     guidetolerance="10"
     inkscape:pageopacity="0"
     inkscape:pageshadow="2"
     inkscape:window-width="1920"
     inkscape:window-height="1013"
     id="namedview18"
     showgrid="true"
     inkscape:zoom="9.8124999"
     inkscape:cx="17.630573"
     inkscape:cy="35.821656"
     inkscape:window-x="0"
     inkscape:window-y="0"
     inkscape:window-maximized="1"
     inkscape:current-layer="layer1"
     inkscape:document-rotation="0"
     inkscape:pagecheckerboard="0">
    <inkscape:grid
       type="xygrid"
       id="grid925" />
  </sodipodi:namedview>
  <defs
     id="defs5455">
    <linearGradient
       inkscape:collect="always"
       xlink:href="#linearGradient860"
       id="linearGradient862-3"
       x1="113.94677"
       y1="255.36646"
       x2="406.08289"
       y2="255.36646"
       gradientUnits="userSpaceOnUse"
       gradientTransform="matrix(0.20270273,0,0,0.18440695,363.86886,467.51047)" />
    <linearGradient
       inkscape:collect="always"
       id="linearGradient860">
      <stop
         style="stop-color:#78acd3;stop-opacity:1"
         offset="0"
         id="stop856" />
      <stop
         style="stop-color:#d98cbb;stop-opacity:1"
         offset="1"
         id="stop858" />
    </linearGradient>
    <linearGradient
       inkscape:collect="always"
       xlink:href="#linearGradient842"
       id="linearGradient844"
       x1="386.30627"
       y1="522.45404"
       x2="446.83023"
       y2="522.45404"
       gradientUnits="userSpaceOnUse"
       gradientTransform="matrix(0.99134277,0,0,0.99944183,3.6095131,0.30128005)" />
    <linearGradient
       inkscape:collect="always"
       id="linearGradient842">
      <stop
         style="stop-color:#326e9a;stop-opacity:1"
         offset="0"
         id="stop838" />
      <stop
         style="stop-color:#339993;stop-opacity:1"
         offset="1"
         id="stop840" />
    </linearGradient>
  </defs>
  <metadata
     id="metadata5458">
    <rdf:RDF>
      <cc:Work
         rdf:about="">
        <dc:format>image/svg+xml</dc:format>
        <dc:type
           rdf:resource="http://purl.org/dc/dcmitype/StillImage" />
      </cc:Work>
    </rdf:RDF>
  </metadata>
  <g
     inkscape:label="Capa 1"
     inkscape:groupmode="layer"
     id="layer1"
     transform="translate(-384.57143,-483.798)">
    <path
       style="fill:url(#linearGradient862-3);fill-opacity:1;stroke-width:0.179138"
       d="m 416.57459,496.95765 c -0.88032,0 -1.92237,-0.51649 -2.31692,-1.14784 l -1.7701,-2.83719 c -0.39274,-0.63133 -1.43479,-1.14667 -2.3148,-1.14782 l -20.40112,-0.0268 c -1.946,-0.003 -2.7662,0.93496 -2.79385,3.00415 l -0.0117,0.87228 v 2.56642 36.57158 c 0,0.70576 2.32071,2.56642 3.20071,2.56642 h 52.81515 c 0.88002,0 3.20071,-1.86066 3.20071,-2.56642 v -35.28836 c 0,-1.92482 -0.80004,-2.56643 -3.20071,-2.56643 z"
       id="path4-3"
       sodipodi:nodetypes="sccsssccsssssss" />
    <path
       style="fill:#f2f2f2;fill-opacity:1;stroke-width:0.176565"
       d="m 442.3495,510.65747 c 0,1.32548 -0.79577,2.40995 -2.61715,2.40995 h -46.19558 c -1.82139,0 -2.51852,-1.08447 -2.51852,-2.40995 v -7.22985 c 0,-1.32548 0.69713,-2.40996 2.51852,-2.40996 h 46.09645 c 1.82137,0 2.71628,1.08448 2.71628,2.40996 z"
       id="path8-6"
       sodipodi:nodetypes="sssssssss" />
    <path
       style="fill:url(#linearGradient844);fill-opacity:1;stroke-width:0.19334"
       d="m 443.32803,505.12949 h -53.5132 c -1.62182,0 -3.2434,1.47526 -3.2434,2.95052 v 28.76748 c 0,1.95107 1.25422,2.95051 3.2434,2.95051 h 53.5132 c 1.9955,0 3.2434,-0.99944 3.2434,-2.95051 v -28.76748 c 0,-1.47526 -1.62159,-2.95052 -3.2434,-2.95052 z"
       id="path10"
       sodipodi:nodetypes="sssssssss" />
    <g
       transform="translate(396.35043,-454.56418)"
       id="g4" />
    <path
       d="m 429.97677,521.81122 c 0.40953,0 0.74157,0.33476 0.74157,0.74764 0,0.41288 -0.33204,0.74763 -0.74157,0.74763 -1.63814,0 -2.96631,1.33901 -2.96631,2.99054 0,0.41288 -0.33203,0.74763 -0.74157,0.74763 -0.40954,0 -0.74158,-0.33475 -0.74158,-0.74763 0,-2.47729 1.99225,-4.48581 4.44946,-4.48581 z m 8.15732,14.95268 h -13.34835 c -2.86676,0 -5.19104,-2.34327 -5.19104,-5.23343 0,-0.41288 0.33205,-0.74764 0.74159,-0.74764 0.40953,0 0.74157,0.33476 0.74157,0.74764 0,2.0644 1.6602,3.73817 3.70788,3.73817 h 13.34835 c 2.04769,0 3.70789,-1.67377 3.70789,-3.73817 0,-1.56756 -0.96067,-2.90475 -2.31817,-3.45856 0.016,0.005 0.0311,0.006 0.0471,0.0128 -0.40772,-0.16681 -0.69523,-0.5695 -0.69523,-1.04004 0,-1.18425 -0.91357,-2.14361 -2.06723,-2.22683 -0.0452,-0.0102 -0.0967,-0.016 -0.15749,-0.016 -0.53662,0 -1.00696,-0.43258 -1.26735,-0.97359 0.006,0.0121 0.003,0.0212 0.002,0.0313 -0.92619,-2.08551 -2.99487,-3.54355 -5.40934,-3.54355 -3.27629,0 -5.93261,2.67803 -5.93261,5.98107 0,1.2065 0.35633,2.32795 0.96647,3.26762 l -0.002,0.002 c 0.092,0.12489 0.14845,0.27895 0.14845,0.44614 0,0.41288 -0.33204,0.74764 -0.74158,0.74764 -0.29764,0 -0.55182,-0.17667 -0.66987,-0.43149 -0.28315,-0.44427 -0.52323,-0.92103 -0.71043,-1.42298 -0.01,-0.0256 -0.0184,-0.0518 -0.0279,-0.0774 -0.0572,-0.15734 -0.10933,-0.31616 -0.15569,-0.47821 -0.18469,-0.65353 -0.29003,-1.33981 -0.29003,-2.05277 0,-4.12913 3.32007,-7.47635 7.41576,-7.47635 3.04235,0 5.65376,1.84937 6.79727,4.49166 1.90863,0.0632 3.45008,1.5796 3.57207,3.48846 1.75949,0.83781 2.97901,2.63787 2.97901,4.72967 0,2.89017 -2.32429,5.23344 -5.19103,5.23344 z m -17.05623,-6.7287 c -0.40953,0 -0.74157,-0.33476 -0.74157,-0.74763 0,-0.41288 0.33204,-0.74764 0.74157,-0.74764 0.40953,0 0.74157,0.33476 0.74157,0.74764 0,0.41287 -0.33204,0.74763 -0.74157,0.74763 z"
       id="path2-3"
       style="fill:#f2f2f2;fill-opacity:1;stroke:#00c5c5;stroke-width:0.0465374;stroke-opacity:1" />
  </g>
</svg>
