<?xml version="1.0" encoding="UTF-8" standalone="no"?>
<svg
   width="64"
   version="1.1"
   height="64"
   id="svg17"
   sodipodi:docname="folder-music.svg"
   inkscape:version="1.1.1 (3bf5ae0d25, 2021-09-20)"
   xmlns:inkscape="http://www.inkscape.org/namespaces/inkscape"
   xmlns:sodipodi="http://sodipodi.sourceforge.net/DTD/sodipodi-0.dtd"
   xmlns:xlink="http://www.w3.org/1999/xlink"
   xmlns="http://www.w3.org/2000/svg"
   xmlns:svg="http://www.w3.org/2000/svg"
   xmlns:rdf="http://www.w3.org/1999/02/22-rdf-syntax-ns#"
   xmlns:cc="http://creativecommons.org/ns#"
   xmlns:dc="http://purl.org/dc/elements/1.1/">
  <sodipodi:namedview
     pagecolor="#ffffff"
     bordercolor="#666666"
     borderopacity="1"
     objecttolerance="10"
     gridtolerance="10"
     guidetolerance="10"
     inkscape:pageopacity="0"
     inkscape:pageshadow="2"
     inkscape:window-width="1920"
     inkscape:window-height="1011"
     id="namedview19"
     showgrid="true"
     inkscape:zoom="9.8125004"
     inkscape:cx="33.528661"
     inkscape:cy="38.267514"
     inkscape:window-x="0"
     inkscape:window-y="0"
     inkscape:window-maximized="1"
     inkscape:current-layer="layer1"
     inkscape:document-rotation="0"
     inkscape:pagecheckerboard="0">
    <inkscape:grid
       type="xygrid"
       id="grid908" />
  </sodipodi:namedview>
  <defs
     id="defs5455">
    <linearGradient
       inkscape:collect="always"
       id="linearGradient842">
      <stop
         style="stop-color:#326e9a;stop-opacity:1"
         offset="0"
         id="stop838" />
      <stop
         style="stop-color:#339993;stop-opacity:1"
         offset="1"
         id="stop840" />
    </linearGradient>
    <linearGradient
       inkscape:collect="always"
       xlink:href="#linearGradient860"
       id="linearGradient862"
       x1="113.94677"
       y1="255.36646"
       x2="406.08289"
       y2="255.36646"
       gradientUnits="userSpaceOnUse"
       gradientTransform="matrix(0.20270273,0,0,0.18440695,363.86886,467.51047)" />
    <linearGradient
       inkscape:collect="always"
       id="linearGradient860">
      <stop
         style="stop-color:#78acd3;stop-opacity:1"
         offset="0"
         id="stop856" />
      <stop
         style="stop-color:#d98cbb;stop-opacity:1"
         offset="1"
         id="stop858" />
    </linearGradient>
    <linearGradient
       inkscape:collect="always"
       xlink:href="#linearGradient842"
       id="linearGradient844"
       x1="386.30626"
       y1="522.45407"
       x2="446.83023"
       y2="522.45407"
       gradientUnits="userSpaceOnUse"
       gradientTransform="matrix(0.99134277,0,0,0.99944183,3.6095126,0.30129674)" />
  </defs>
  <metadata
     id="metadata5458">
    <rdf:RDF>
      <cc:Work
         rdf:about="">
        <dc:format>image/svg+xml</dc:format>
        <dc:type
           rdf:resource="http://purl.org/dc/dcmitype/StillImage" />
      </cc:Work>
    </rdf:RDF>
  </metadata>
  <g
     inkscape:label="Capa 1"
     inkscape:groupmode="layer"
     id="layer1"
     transform="translate(-384.57143,-483.798)">
    <path
       style="fill:url(#linearGradient862);fill-opacity:1;stroke-width:0.179138"
       d="m 416.57459,496.95765 c -0.88032,0 -1.92237,-0.51649 -2.31692,-1.14784 l -1.7701,-2.83719 c -0.39274,-0.63133 -1.43479,-1.14667 -2.3148,-1.14782 l -20.40112,-0.0268 c -1.946,-0.003 -2.7662,0.93496 -2.79385,3.00415 l -0.0117,0.87228 v 2.56642 36.57158 c 0,0.70576 2.32071,2.56642 3.20071,2.56642 h 52.81515 c 0.88002,0 3.20071,-1.86066 3.20071,-2.56642 v -35.28836 c 0,-1.92482 -0.80004,-2.56643 -3.20071,-2.56643 z"
       id="path4-3"
       sodipodi:nodetypes="sccsssccsssssss" />
    <path
       style="fill:#f2f2f2;fill-opacity:1;stroke-width:0.176565"
       d="m 442.3495,510.65747 c 0,1.32548 -0.79577,2.40995 -2.61715,2.40995 h -46.19558 c -1.82139,0 -2.51852,-1.08447 -2.51852,-2.40995 v -7.22985 c 0,-1.32548 0.69713,-2.40996 2.51852,-2.40996 h 46.09645 c 1.82137,0 2.71628,1.08448 2.71628,2.40996 z"
       id="path8-6"
       sodipodi:nodetypes="sssssssss" />
    <path
       style="fill:url(#linearGradient844);fill-opacity:1;stroke-width:0.19334"
       d="m 443.32803,505.12949 h -53.5132 c -1.62182,0 -3.2434,1.47526 -3.2434,2.95052 v 28.76748 c 0,1.95107 1.25422,2.95051 3.2434,2.95051 h 53.5132 c 1.9955,0 3.2434,-0.99944 3.2434,-2.95051 v -28.76748 c 0,-1.47526 -1.62159,-2.95052 -3.2434,-2.95052 z"
       id="path10"
       sodipodi:nodetypes="sssssssss" />
    <path
       d="m 440.06953,535.66406 c -1.84771,0 -3.34523,-1.5095 -3.34523,-3.37255 0,-1.86284 1.49756,-3.37314 3.34523,-3.37314 0.30823,0 0.55819,0.25115 0.55819,0.56162 0,0.31075 -0.24996,0.56275 -0.55819,0.56275 -1.23154,0 -2.23053,1.00634 -2.23053,2.24877 0,1.24159 0.99899,2.24819 2.23053,2.24819 1.23236,0 2.23079,-1.0066 2.23079,-2.24819 v -2.50872 -1.14552 -2.53053 c 0,-0.30991 0.24969,-0.56195 0.55791,-0.56195 0.30796,0 0.55735,0.252 0.55735,0.56195 v 6.18477 c 0,1.86305 -1.49807,3.37255 -3.34605,3.37255 z m 1.81285,-10.88949 -9.06476,1.83974 c -0.31747,0.0673 -0.55436,0.34835 -0.55436,0.6871 v 6.1145 c 0,1.86301 -1.4981,3.37252 -3.34606,3.37252 -1.84769,0 -3.34577,-1.50951 -3.34577,-3.37255 0,-0.93112 0.37494,-1.77444 0.98021,-2.38492 l 0.002,0.002 c 0.10047,-0.10211 0.24069,-0.16496 0.39425,-0.16496 0.30822,0 0.55818,0.252 0.55818,0.56245 0,0.16224 -0.0697,0.30774 -0.1797,0.4104 -0.39508,0.40492 -0.63984,0.96106 -0.63984,1.57486 0,1.24183 0.999,2.24818 2.23052,2.24818 1.23181,0 2.23079,-1.00635 2.23079,-2.24818 v -2.50872 -0.86442 -2.67988 c 0,-0.88554 0.62463,-1.62397 1.4548,-1.79116 l 7.4e-4,-7.4e-4 0.18597,-0.0398 c 0.0108,-10e-4 0.0201,-10e-4 0.0311,-0.004 l 8.92235,-1.93251 c 0.30796,-0.0681 0.55735,-0.37498 0.55735,-0.68573 v -2.52955 c 0,-0.31074 -0.24939,-0.50701 -0.55735,-0.43949 l -8.92235,1.93308 c -0.30823,0.0673 -0.55736,0.37441 -0.55736,0.68489 v 1.30033 c 0,0.30991 -0.24995,0.5619 -0.55818,0.5619 -0.30795,0 -0.55708,-0.25199 -0.55708,-0.5619 v -1.3632 c 0,-0.82051 0.68641,-1.62482 1.53321,-1.79719 l 9.20117,-1.86716 c 0.84652,-0.17157 1.5332,0.35409 1.5332,1.17513 v 2.97126 c 0,0.82104 -0.68668,1.62564 -1.5332,1.79721 z m -12.96518,6.39254 c -0.30795,0 -0.5579,-0.25201 -0.5579,-0.56248 0,-0.31074 0.24995,-0.56189 0.5579,-0.56189 0.30824,0 0.55736,0.25115 0.55736,0.56189 0,0.31047 -0.24912,0.56248 -0.55736,0.56248 z"
       id="path2"
       style="fill:#f2f2f2;fill-opacity:1;stroke-width:0.0349939" />
  </g>
</svg>
