<?xml version="1.0" encoding="UTF-8" standalone="no"?>
<svg
   width="32"
   height="32"
   version="1.1"
   id="svg12"
   sodipodi:docname="amarok.svg"
   inkscape:version="1.1.1 (3bf5ae0d25, 2021-09-20)"
   xmlns:inkscape="http://www.inkscape.org/namespaces/inkscape"
   xmlns:sodipodi="http://sodipodi.sourceforge.net/DTD/sodipodi-0.dtd"
   xmlns="http://www.w3.org/2000/svg"
   xmlns:svg="http://www.w3.org/2000/svg"
   xmlns:rdf="http://www.w3.org/1999/02/22-rdf-syntax-ns#"
   xmlns:cc="http://creativecommons.org/ns#"
   xmlns:dc="http://purl.org/dc/elements/1.1/">
  <g
     id="22-22-amarok"
     transform="translate(32,10.000001)"
     style="fill:#d6dbf1;fill-opacity:1">
    <path
       style="opacity:0.00100002;fill:#d6dbf1;fill-opacity:1"
       d="M 0,0 V 22 H 22 V 0 Z"
       id="path4" />
    <path
       style="color:#d5c289;fill:#d6dbf1;fill-opacity:1;stroke-width:1"
       class="ColorScheme-Text"
       d="M 11,3 C 6.576,3 3,6.576 3,10.999999 3,15.424 6.576,19 11,19 15.423997,19 18.999997,15.424 18.999997,10.999998 18.999997,6.576 15.423997,3 11,3 Z m 0,1 c 3.870004,0 6.999997,3.129999 6.999997,6.999999 C 17.999997,14.869997 14.870004,18 11,18 7.130001,18 4,14.869996 4,10.999998 4,7.129999 7.130001,4 11,4 Z m 0.750001,5.718999 v 0 0 0 0 0 c 0,0 -0.03396,0.008 0,0 z m -0.781009,4.5 z"
       id="path58-9-3"
       sodipodi:nodetypes="ssssssssssccccccccccccccccc" />
    <path
       style="color:#d5c289;fill:#d6dbf1;fill-opacity:1;stroke-width:0.74222"
       class="ColorScheme-Text"
       d="m 14.849324,5.716 c -0.273659,0 -0.80446,0.648859 -1.003419,0.751251 -0.199318,0.102384 -1.774677,1.262611 -1.923717,1.467423 -0.149399,0.204778 -0.348482,0.29027 -0.563964,0.273213 C 11.14239,8.190867 10.461257,8.183597 10.2289,8.320118 9.996898,8.456695 8.936844,9.573212 8.671336,9.709682 8.406004,9.846174 8.05998,9.916012 7.894137,9.933092 7.72832,9.950142 7.178858,10.579938 7.029604,10.699424 6.880348,10.818911 5.70102,11.344146 5.535173,11.446463 c -0.165854,0.102405 1.209859,1.536419 1.408854,1.570539 0.199012,0.03417 -0.515849,0.486779 -0.520122,0.811221 -0.0042,0.323655 0.342456,1.287738 2.351949,2.422092 1.737226,0.980644 3.57217,0.508362 4.26479,0.308635 0.274795,-0.07925 0.173961,-0.989565 0.224814,-1.473386 0.03321,-0.30718 0.14922,-2.884215 0.580447,-3.566854 0.431173,-0.682564 1.663658,-1.502078 2.094867,-1.58737 0.431211,-0.08533 0.348269,-0.256086 0.348269,-0.4096436 0,-0.1535724 -0.06663,-0.4949014 -0.182727,-0.5460774 -0.116079,-0.05119 -0.569026,0.256279 -0.718281,0.290398 -0.149256,0.03413 -0.862131,0.08542 -0.961681,-0.08522 -0.09948,-0.170553 0.804296,-1.911485 0.920296,-2.11626 0.115999,-0.204814 0.166035,-0.477668 -0.04982,-0.767734 -0.215475,-0.290172 -0.36456,-0.580451 -0.44752,-0.580451 z m -3.779742,3.591402 c 0.112484,-0.0016 0.18904,0.0098 0.18904,0.0098 0.06296,0.1416804 -0.230484,0.587031 -0.503288,0.647789 -0.272726,0.06068 -0.9025,0.951593 -0.923456,0.749142 C 9.810828,10.511688 10.08389,9.843576 10.398649,9.5399164 10.595361,9.350112 10.882108,9.31035 11.069582,9.307382 Z"
       id="path58-5-1-6" />
  </g>
  <g
     id="amarok"
     style="fill:#d6dbf1;fill-opacity:1">
    <path
       style="opacity:0.00100002;fill:#d6dbf1;fill-opacity:1"
       d="M 0,0 V 32.000001 H 32 V 0 Z"
       id="path7" />
    <path
       style="color:#d5c289;fill:#d6dbf1;fill-opacity:1;stroke-width:1.5"
       class="ColorScheme-Text"
       d="M 16,4 C 9.364,4 4,9.364 4,15.999999 4,22.636 9.364,28.000001 16,28.000001 c 6.635997,0 11.999997,-5.364001 11.999997,-12.000003 C 27.999997,9.364 22.635997,4 16,4 Z m 0,1.5 c 5.805006,0 10.499997,4.694999 10.499997,10.499999 0,5.804997 -4.694991,10.500002 -10.499997,10.500002 -5.804998,0 -10.5,-4.695006 -10.5,-10.500003 C 5.5,10.194999 10.195002,5.5 16,5.5 Z m 1.125002,8.578499 v 0 0 0 0 0 c 0,0 -0.05094,0.012 0,0 z m -1.171513,6.75 z"
       id="path58-9"
       sodipodi:nodetypes="ssssssssssccccccccccccccccc" />
    <path
       style="color:#d5c289;fill:#d6dbf1;fill-opacity:1;stroke-width:1.11333"
       class="ColorScheme-Text"
       d="m 21.773986,8.074 c -0.410488,0 -1.20669,0.9732877 -1.505128,1.1268771 -0.298977,0.1535757 -2.662015,1.8939159 -2.885576,2.2011349 -0.224098,0.307166 -0.522723,0.435405 -0.845945,0.409819 -0.323752,-0.02553 -1.345451,-0.03644 -1.693987,0.168347 -0.348002,0.204865 -1.938083,1.879641 -2.336345,2.084345 -0.397998,0.204738 -0.917034,0.309496 -1.165799,0.335115 -0.248726,0.02557 -1.072918,0.97027 -1.2968,1.149498 -0.2238836,0.179231 -1.9928756,0.967084 -2.2416469,1.120559 -0.2487809,0.153608 1.814789,2.304629 2.1132818,2.355808 0.2985181,0.05126 -0.7737738,0.730169 -0.780183,1.216832 -0.00633,0.485483 0.5136828,1.931607 3.5279231,3.633139 2.605839,1.470965 5.358256,0.762542 6.397185,0.462952 0.412193,-0.118874 0.260942,-1.484348 0.337222,-2.21008 0.04981,-0.460769 0.223829,-4.326322 0.87067,-5.350281 0.646759,-1.023845 2.495488,-2.253117 3.142301,-2.381055 0.646816,-0.127989 0.522403,-0.384129 0.522403,-0.614466 0,-0.230357 -0.09995,-0.742351 -0.27409,-0.819115 -0.174119,-0.07678 -0.853539,0.384418 -1.077422,0.435597 -0.223883,0.05119 -1.293196,0.128135 -1.442521,-0.127836 -0.149221,-0.255829 1.206444,-2.867227 1.380444,-3.17439 0.173998,-0.3072217 0.249053,-0.7165034 -0.07473,-1.1516009 -0.323212,-0.4352583 -0.54684,-0.8706772 -0.671281,-0.8706772 z m -5.669612,5.387103 c 0.168726,-0.0024 0.28356,0.01476 0.28356,0.01476 0.09444,0.21252 -0.345727,0.880547 -0.754933,0.971684 -0.409088,0.09102 -1.353749,1.427389 -1.385183,1.123713 -0.03158,-0.303668 0.378017,-1.305835 0.850156,-1.761326 0.295068,-0.284705 0.725188,-0.344348 1.0064,-0.348801 z"
       id="path58-5-1" />
  </g>
  <metadata
     id="metadata18">
    <rdf:RDF>
      <cc:Work
         rdf:about="">
        <dc:format>image/svg+xml</dc:format>
        <dc:type
           rdf:resource="http://purl.org/dc/dcmitype/StillImage" />
      </cc:Work>
    </rdf:RDF>
  </metadata>
  <defs
     id="defs16">
    <linearGradient
       id="oomox"
       x1="0"
       x2="0"
       y1="0"
       y2="16"
       gradientUnits="userSpaceOnUse"
       gradientTransform="matrix(1.5000001,0,0,1.5000001,3.999995,3.9999999)">
      <stop
         offset="0%"
         style="stop-color:#303b3d; stop-opacity:1"
         id="stop18" />
      <stop
         offset="100%"
         style="stop-color:#bc985d; stop-opacity:1"
         id="stop20" />
    </linearGradient>
    <linearGradient
       id="oomox-3"
       x1="0.81322718"
       x2="0.81322718"
       y1="0.49186769"
       y2="15.247891"
       gradientTransform="matrix(0.98373494,0,0,1.016534,5.9966823,11.726037)"
       gradientUnits="userSpaceOnUse">
      <stop
         offset="0%"
         style="stop-color:#303b3d; stop-opacity:1"
         id="stop18-6" />
      <stop
         offset="100%"
         style="stop-color:#bc985d; stop-opacity:1"
         id="stop20-7" />
    </linearGradient>
  </defs>
  <sodipodi:namedview
     pagecolor="#ffffff"
     bordercolor="#000000"
     borderopacity="1"
     objecttolerance="10"
     gridtolerance="10"
     guidetolerance="10"
     inkscape:pageopacity="0"
     inkscape:pageshadow="2"
     inkscape:window-width="1920"
     inkscape:window-height="1006"
     id="namedview14"
     showgrid="false"
     inkscape:zoom="9.8125"
     inkscape:cx="26.496815"
     inkscape:cy="13.757962"
     inkscape:window-x="0"
     inkscape:window-y="0"
     inkscape:window-maximized="1"
     inkscape:current-layer="svg12"
     inkscape:document-rotation="0"
     inkscape:lockguides="true"
     inkscape:showpageshadow="false"
     inkscape:pagecheckerboard="0">
    <inkscape:grid
       type="xygrid"
       id="grid889"
       originx="32"
       originy="10.000001" />
  </sodipodi:namedview>
</svg>
