<?xml version="1.0" encoding="UTF-8" standalone="no"?>
<svg
   width="32"
   height="32"
   version="1.1"
   id="svg12"
   sodipodi:docname="choqok_offline.svg"
   inkscape:version="1.1.1 (3bf5ae0d25, 2021-09-20)"
   xmlns:inkscape="http://www.inkscape.org/namespaces/inkscape"
   xmlns:sodipodi="http://sodipodi.sourceforge.net/DTD/sodipodi-0.dtd"
   xmlns="http://www.w3.org/2000/svg"
   xmlns:svg="http://www.w3.org/2000/svg"
   xmlns:rdf="http://www.w3.org/1999/02/22-rdf-syntax-ns#"
   xmlns:cc="http://creativecommons.org/ns#"
   xmlns:dc="http://purl.org/dc/elements/1.1/">
  <g
     id="22-22-choqok_offline"
     transform="translate(32,10)">
    <rect
       style="opacity:0.00100002"
       width="22"
       height="22"
       x="0"
       y="0"
       id="rect2" />
    <path
       fill="none"
       stroke-width="0.69438"
       stroke-linecap="round"
       stroke-linejoin="round"
       stroke-miterlimit="10"
       d="m 19.074754,4.457625 v 9.293014 c 0,0.613282 -0.497166,1.110422 -1.110441,1.110422 h -7.70667 L 6.139041,18.652854 V 14.861061 H 4.057629 c -0.613271,0 -1.110439,-0.49714 -1.110439,-1.110422 V 4.457625 c 0,-0.613276 0.497168,-1.110435 1.110439,-1.110435 h 13.906684 c 0.613275,0 1.110441,0.497159 1.110441,1.110435 z"
       id="path2-67"
       style="stroke:#bf616a;stroke-opacity:1" />
    <path
       inkscape:connector-curvature="0"
       style="fill:#bf616a;fill-opacity:1;fill-rule:evenodd;stroke-width:0.296292"
       id="path4411-1-6-5"
       d="m 8.470305,11.55634 c 2.335666,2.226656 4.498559,2.144758 5.551549,0.874263 1.052998,-1.270492 0.265107,-2.355746 0.265107,-2.355746 z" />
    <path
       inkscape:connector-curvature="0"
       style="color:#000000;fill:#eff0f1;fill-opacity:1;stroke:#a8aeca;stroke-width:0.888859;stroke-linecap:round;stroke-linejoin:round;stroke-opacity:1"
       id="path4170-2-3"
       d="m 6.248081,5.9267041 c -0.50088,0 -0.961699,0.016726 -1.333333,0.2962995 v 3.7010999 c 0.371634,0.2795935 0.832453,0.4470465 1.333333,0.4470465 1.227298,0 2.527782,-0.550479 2.527782,-1.77778 0,-1.2272991 -1.300484,-2.6666659 -2.527782,-2.6666659 z" />
    <path
       inkscape:connector-curvature="0"
       style="color:#000000;fill:#eff0f1;fill-opacity:1;stroke:#a8aeca;stroke-width:0.888859;stroke-linecap:round;stroke-linejoin:round;stroke-opacity:1"
       id="path4170-8-9-5"
       d="m 14.099926,5.0378171 c -0.631845,0.7723195 -1.034636,1.7082063 -0.735365,2.6197403 0.418619,1.2751137 1.862826,1.4343672 3.048449,1.045106 0.124823,-0.041005 0.241829,-0.094626 0.353592,-0.1556722 V 5.0378171 Z" />
    <circle
       cx="6.840651"
       cy="8.1489248"
       style="color:#000000;fill:#1f252f;fill-opacity:1;stroke-width:0.888859;stroke-linecap:round;stroke-linejoin:round"
       r="1.0370365"
       id="path4267-1-6" />
    <circle
       cx="14.544363"
       cy="6.9637222"
       style="color:#000000;fill:#1f252f;fill-opacity:1;stroke-width:0.888859;stroke-linecap:round;stroke-linejoin:round"
       r="1.0370365"
       id="path4267-9-2-2" />
    <path
       inkscape:connector-curvature="0"
       style="fill:#1f252f;fill-opacity:1;fill-rule:evenodd;stroke-width:0.296292"
       id="path4411-7-9"
       d="m 8.766602,11.558313 c 1.774862,1.828758 4.113398,1.736429 4.913568,0.692963 0.80017,-1.043453 0.20145,-1.934779 0.20145,-1.934779 z" />
    <path
       inkscape:connector-curvature="0"
       style="fill:#bf616a;fill-opacity:1;fill-rule:evenodd;stroke-width:0.296292"
       id="path4284-9-1"
       d="m 8.470305,11.55634 c 0,0 0.424196,-1.279683 2.646175,-1.8568028 2.221984,-0.5771061 3.279101,0.3753198 3.279101,0.3753198 0.295872,0.861667 -2.567078,2.200483 -2.567078,2.200483 0,0 -3.169984,0.170632 -3.358198,-0.719 z" />
  </g>
  <metadata
     id="metadata18">
    <rdf:RDF>
      <cc:Work
         rdf:about="">
        <dc:format>image/svg+xml</dc:format>
        <dc:type
           rdf:resource="http://purl.org/dc/dcmitype/StillImage" />
      </cc:Work>
    </rdf:RDF>
  </metadata>
  <defs
     id="defs16" />
  <sodipodi:namedview
     pagecolor="#ffffff"
     bordercolor="#000000"
     borderopacity="1"
     objecttolerance="10"
     gridtolerance="10"
     guidetolerance="10"
     inkscape:pageopacity="0"
     inkscape:pageshadow="2"
     inkscape:window-width="1920"
     inkscape:window-height="1011"
     id="namedview14"
     showgrid="false"
     inkscape:zoom="9.8125"
     inkscape:cx="30.165605"
     inkscape:cy="27.464968"
     inkscape:window-x="0"
     inkscape:window-y="0"
     inkscape:window-maximized="1"
     inkscape:current-layer="svg12"
     inkscape:document-rotation="0"
     inkscape:lockguides="false"
     inkscape:showpageshadow="false"
     inkscape:pagecheckerboard="0">
    <inkscape:grid
       type="xygrid"
       id="grid941"
       originx="0"
       originy="0" />
  </sodipodi:namedview>
  <g
     id="choqok_offline">
    <rect
       style="opacity:0.00100002"
       width="32"
       height="32"
       x="0"
       y="0"
       id="rect7" />
    <path
       fill="none"
       stroke-width="1.04158"
       stroke-linecap="round"
       stroke-linejoin="round"
       stroke-miterlimit="10"
       d="m 28.062129,6.186443 v 13.939515 c 0,0.919917 -0.74574,1.665648 -1.665654,1.665648 H 14.836457 l -6.177896,5.687673 v -5.687673 h -3.12212 c -0.919911,0 -1.665651,-0.745731 -1.665651,-1.665648 V 6.186443 c 0,-0.919915 0.74574,-1.665653 1.665651,-1.665653 h 20.860034 c 0.919914,0 1.665654,0.745738 1.665654,1.665653 z"
       id="path2-3"
       style="stroke:#bf616a;stroke-opacity:1" />
    <path
       inkscape:connector-curvature="0"
       style="fill:#bf616a;fill-opacity:1;fill-rule:evenodd;stroke-width:0.444444"
       id="path4411-1-6"
       d="m 12.155451,16.834512 c 3.5035,3.33999 6.74784,3.21715 8.32734,1.3114 1.57949,-1.90574 0.39764,-3.53362 0.39764,-3.53362 z" />
    <path
       inkscape:connector-curvature="0"
       style="color:#000000;fill:#eff0f1;fill-opacity:1;stroke:#a8aeca;stroke-width:1.33333;stroke-linecap:round;stroke-linejoin:round;stroke-opacity:1"
       id="path4170-2"
       d="m 8.822121,8.3900619 c -0.75132,0 -1.44254,0.0251 -2,0.44445 v 5.5516501 c 0.55746,0.41939 1.24868,0.67057 2,0.67057 1.84094,0 3.79167,-0.82572 3.79167,-2.66667 0,-1.84095 -1.95073,-4.0000001 -3.79167,-4.0000001 z" />
    <path
       inkscape:connector-curvature="0"
       style="color:#000000;fill:#eff0f1;fill-opacity:1;stroke:#a8aeca;stroke-width:1.33333;stroke-linecap:round;stroke-linejoin:round;stroke-opacity:1"
       id="path4170-8-9"
       d="m 20.599901,7.056732 c -0.94777,1.1584799 -1.55197,2.5623098 -1.10307,3.92961 0.62795,1.91267 2.79425,2.15155 4.57268,1.56766 0.18723,-0.0615 0.36275,-0.14194 0.53039,-0.23351 v -5.26376 z" />
    <circle
       cx="9.7110147"
       cy="11.723391"
       style="color:#000000;fill:#1f252f;fill-opacity:1;stroke-width:1.33333;stroke-linecap:round;stroke-linejoin:round"
       r="1.5555556"
       id="path4267-1" />
    <circle
       cx="21.266558"
       cy="9.945591"
       style="color:#000000;fill:#1f252f;fill-opacity:1;stroke-width:1.33333;stroke-linecap:round;stroke-linejoin:round"
       r="1.5555556"
       id="path4267-9-2" />
    <path
       inkscape:connector-curvature="0"
       style="fill:#1f252f;fill-opacity:1;fill-rule:evenodd;stroke-width:0.444444"
       id="path4411-7"
       d="m 12.599901,16.837472 c 2.66229,2.74314 6.1701,2.60465 7.37035,1.03945 1.20025,-1.56518 0.30217,-2.90217 0.30217,-2.90217 z" />
    <path
       inkscape:connector-curvature="0"
       style="fill:#bf616a;fill-opacity:1;fill-rule:evenodd;stroke:#bf616a;stroke-width:0.444444;stroke-opacity:1"
       id="path4284-9"
       d="m 12.155451,16.834512 c 0,0 0.63631,-1.91952 3.96927,-2.7852 3.33297,-0.86566 4.91864,0.56298 4.91864,0.56298 0.44383,1.2925 -3.85061,3.30073 -3.85061,3.30073 0,0 -4.75497,0.25594 -5.0373,-1.07851 z" />
  </g>
</svg>
