<?xml version="1.0" encoding="UTF-8" standalone="no"?>
<svg
   id="svg2"
   width="32"
   height="32"
   version="1.0"
   inkscape:version="1.1.1 (3bf5ae0d25, 2021-09-20)"
   sodipodi:docname="computer.svg"
   xmlns:inkscape="http://www.inkscape.org/namespaces/inkscape"
   xmlns:sodipodi="http://sodipodi.sourceforge.net/DTD/sodipodi-0.dtd"
   xmlns="http://www.w3.org/2000/svg"
   xmlns:svg="http://www.w3.org/2000/svg"
   xmlns:rdf="http://www.w3.org/1999/02/22-rdf-syntax-ns#"
   xmlns:cc="http://creativecommons.org/ns#"
   xmlns:dc="http://purl.org/dc/elements/1.1/">
  <g
     id="22-22-computer-laptop"
     transform="translate(32,-22.941122)">
    <rect
       style="opacity:0.00100002"
       width="22"
       height="22"
       x="0"
       y="0"
       id="rect2" />
    <circle
       style="opacity:0.3;fill:#3b5a87;fill-opacity:1;stroke:none;stroke-width:1.32431;stroke-linecap:round;stroke-linejoin:round;stroke-miterlimit:4;stroke-dasharray:none;stroke-opacity:1;paint-order:stroke fill markers"
       id="path858-2"
       cx="11"
       cy="11"
       r="11" />
    <path
       d="m 11.00005,13.179685 c -0.415792,0 -0.752345,0.310846 -0.752345,0.693098 0,0.382239 0.337418,0.693113 0.752345,0.693113 0.414921,0 0.75234,-0.310852 0.75234,-0.693113 0,-0.382365 -0.337271,-0.693098 -0.75234,-0.693098 z m 0,0.905129 c -0.12726,0 -0.230155,-0.09479 -0.230155,-0.212038 0,-0.117236 0.102891,-0.212024 0.230155,-0.212024 0.127263,0 0.230151,0.09479 0.230151,0.212024 0,0.117251 -0.103764,0.212038 -0.230151,0.212038 z"
       id="path14-7"
       style="fill:#c0c5d9;fill-opacity:1;stroke-width:0.0358596" />
    <path
       d="M 16.04568,5.133333 H 5.9551594 c -0.856989,0 -1.55516,0.642545 -1.55516,1.431918 v 7.40708 c 0,0.789517 0.698318,1.432705 1.55516,1.432705 h 1.213493 c -0.136893,0.128538 -0.235404,0.297951 -0.235404,0.534062 0,0.511574 0.452405,0.927569 1.006846,0.927569 h 6.1197726 c 0.555295,0 1.006849,-0.416785 1.006849,-0.927569 0,-0.236095 -0.09764,-0.405639 -0.235409,-0.534062 h 1.214392 C 16.90269,15.405036 17.6,14.761707 17.6,13.972331 V 6.565251 C 17.6,5.775739 16.90269,5.133333 16.045699,5.133333 Z M 5.9551594,5.776565 H 16.04568 c 0.472546,0 0.8561,0.353351 0.8561,0.788686 v 5.806571 H 5.0971234 V 6.565251 c 0,-0.435231 0.385269,-0.788686 0.857849,-0.788686 z M 14.059181,16.224607 H 7.9394144 c -0.170024,0 -0.308666,-0.127722 -0.308666,-0.284365 0,-0.08349 0.06799,-0.134188 0.367046,-0.273064 l 0.102011,-0.04812 c 0.251898,-0.119659 0.371422,-0.170223 0.430668,-0.195231 0.01229,-0.0054 0.02432,-0.01289 0.03662,-0.01757 h 4.8662996 c 0.01228,0.0062 0.02438,0.01289 0.03661,0.01757 0.05925,0.02488 0.177902,0.07476 0.428907,0.195231 l 0.102019,0.04738 c 0.299906,0.139693 0.367917,0.190378 0.367917,0.273879 -1.49e-4,0.155828 -0.138641,0.284364 -0.309547,0.284364 z m 1.986722,-1.462562 H 5.9553834 c -0.472543,0 -0.856989,-0.354131 -0.856989,-0.789513 V 13.016054 H 16.903049 v 0.956478 c -6.58e-4,0.435343 -0.384411,0.789513 -0.856995,0.789513 z"
       id="path16-0"
       style="fill:#d6dbf1;fill-opacity:1;stroke-width:0.0358596" />
    <rect
       style="fill:#d6dbf1;fill-opacity:0.50196081;stroke:none;stroke-width:0.230739"
       id="center-3-9"
       width="11.879998"
       height="7.1703663"
       x="5.0599966"
       y="5.7851849"
       ry="0.85472977" />
  </g>
  <g
     id="computer-laptop"
     transform="translate(32.000008)">
    <rect
       style="opacity:0.00100002;fill:#000000;fill-opacity:1;stroke:none;stroke-width:4;stroke-linecap:round;stroke-linejoin:round;stroke-miterlimit:4;stroke-dasharray:none;stroke-opacity:1"
       id="rect4228"
       width="32"
       height="32"
       x="-1.8621763e-13"
       y="0" />
    <circle
       style="opacity:0.3;fill:#3b5a87;fill-opacity:1;stroke:none;stroke-width:1.80588;stroke-linecap:round;stroke-linejoin:round;stroke-miterlimit:4;stroke-dasharray:none;stroke-opacity:1;paint-order:stroke fill markers"
       id="path858-3"
       cx="16"
       cy="16"
       r="15" />
    <path
       d="m 16.000071,18.972299 c -0.566989,0 -1.025925,0.42388 -1.025925,0.945134 0,0.521234 0.460115,0.945154 1.025925,0.945154 0.565802,0 1.025918,-0.42389 1.025918,-0.945154 0,-0.521407 -0.459914,-0.945134 -1.025918,-0.945134 z m 0,1.234267 c -0.173536,0 -0.313847,-0.129256 -0.313847,-0.289143 0,-0.159867 0.140305,-0.289124 0.313847,-0.289124 0.173541,0 0.313843,0.129257 0.313843,0.289124 0,0.159887 -0.141497,0.289143 -0.313843,0.289143 z"
       id="path14-6"
       style="fill:#c0c5d9;fill-opacity:1;stroke-width:0.0488995" />
    <path
       d="M 22.880475,8.0000006 H 9.1206758 c -1.168622,0 -2.120673,0.876197 -2.120673,1.952615 V 20.053179 c 0,1.076615 0.952252,1.953689 2.120673,1.953689 h 1.6547632 c -0.186672,0.17528 -0.321006,0.406297 -0.321006,0.728267 0,0.6976 0.616916,1.264866 1.372972,1.264866 h 8.34514 c 0.75723,0 1.37298,-0.568344 1.37298,-1.264866 0,-0.321948 -0.13315,-0.553145 -0.32101,-0.728267 h 1.65599 c 1.16862,0 2.1195,-0.877267 2.1195,-1.953689 V 9.9526156 c 0,-1.076607 -0.95088,-1.952615 -2.1195,-1.952615 z M 9.1206758,8.8771346 H 22.880475 c 0.64438,0 1.16741,0.481843 1.16741,1.075481 V 17.870667 H 7.9506268 V 9.9526156 c 0,-0.593497 0.525367,-1.075481 1.169795,-1.075481 z M 20.171615,23.124465 h -8.345137 c -0.231851,0 -0.420908,-0.174167 -0.420908,-0.38777 0,-0.11385 0.09272,-0.182984 0.500517,-0.372361 l 0.139106,-0.06562 c 0.343497,-0.163172 0.506484,-0.232123 0.587274,-0.266224 0.01676,-0.0074 0.03317,-0.01758 0.04993,-0.02396 h 6.635858 c 0.0168,0.0085 0.0332,0.01758 0.0499,0.02396 0.0808,0.03393 0.2426,0.101946 0.58488,0.266224 l 0.13911,0.06461 c 0.40897,0.19049 0.50171,0.259606 0.50171,0.373472 -2e-4,0.212491 -0.18906,0.387768 -0.42211,0.387768 z m 2.70917,-1.994403 H 9.1209808 c -0.644376,0 -1.168621,-0.482906 -1.168621,-1.076608 V 18.749165 H 24.049615 v 1.304289 c -9e-4,0.593649 -0.5242,1.076608 -1.16863,1.076608 z"
       id="path16-7"
       style="fill:#d6dbf1;fill-opacity:1;stroke-width:0.0488995" />
    <rect
       style="fill:#d6dbf1;fill-opacity:0.50196081;stroke:none;stroke-width:0.314644"
       id="center-3-5"
       width="16.199997"
       height="9.7777719"
       x="7.9000025"
       y="8.8888903"
       ry="1.1655406" />
  </g>
  <sodipodi:namedview
     pagecolor="#ffffff"
     bordercolor="#666666"
     borderopacity="1"
     objecttolerance="10"
     gridtolerance="10"
     guidetolerance="10"
     inkscape:pageopacity="0"
     inkscape:pageshadow="2"
     inkscape:window-width="1920"
     inkscape:window-height="1006"
     id="namedview24"
     showgrid="false"
     inkscape:zoom="5.71"
     inkscape:cx="44.658494"
     inkscape:cy="1.4010508"
     inkscape:window-x="0"
     inkscape:window-y="0"
     inkscape:window-maximized="1"
     inkscape:current-layer="svg2"
     inkscape:document-rotation="0"
     inkscape:pagecheckerboard="0"
     inkscape:lockguides="false">
    <inkscape:grid
       type="xygrid"
       id="grid862"
       originx="-3.7060547e-07"
       originy="0" />
  </sodipodi:namedview>
  <metadata
     id="metadata7">
    <rdf:RDF>
      <cc:Work
         rdf:about="">
        <dc:format>image/svg+xml</dc:format>
        <dc:type
           rdf:resource="http://purl.org/dc/dcmitype/StillImage" />
      </cc:Work>
    </rdf:RDF>
  </metadata>
  <defs
     id="defs5">
    <style
       id="current-color-scheme"
       type="text/css" />
  </defs>
  <g
     style="fill:none;stroke:#ffffff"
     id="g4171"
     transform="translate(-102.11178,-18.990758)">
    <g
       transform="translate(-38.38147,-1006.1003)"
       style="stroke-width:0.5"
       id="g4173" />
    <g
       transform="translate(-39.59798,-1004.3622)"
       style="stroke-width:0.4"
       id="g4175" />
  </g>
  <g
     id="computer"
     transform="translate(32.000008)">
    <rect
       y="0"
       x="-32.000008"
       height="32"
       width="32"
       id="rect4171"
       style="opacity:0.00100002;fill:#000000;fill-opacity:1;stroke:none;stroke-width:4;stroke-linecap:round;stroke-linejoin:round;stroke-miterlimit:4;stroke-dasharray:none;stroke-opacity:1" />
    <circle
       style="opacity:0.3;fill:#3b5a87;fill-opacity:1;stroke:none;stroke-width:1.80588;stroke-linecap:round;stroke-linejoin:round;stroke-miterlimit:4;stroke-dasharray:none;stroke-opacity:1;paint-order:stroke fill markers"
       id="path858"
       cx="-16.000008"
       cy="16"
       r="15" />
    <path
       d="m -15.999941,18.972298 c -0.566989,0 -1.025925,0.42388 -1.025925,0.945134 0,0.521234 0.460115,0.945154 1.025925,0.945154 0.565802,0 1.025918,-0.42389 1.025918,-0.945154 0,-0.521407 -0.459914,-0.945134 -1.025918,-0.945134 z m 0,1.234267 c -0.173536,0 -0.313847,-0.129256 -0.313847,-0.289143 0,-0.159867 0.140305,-0.289124 0.313847,-0.289124 0.173541,0 0.313843,0.129257 0.313843,0.289124 0,0.159887 -0.141497,0.289143 -0.313843,0.289143 z"
       id="path14"
       style="fill:#c0c5d9;fill-opacity:1;stroke-width:0.0488995" />
    <path
       d="M -9.1195356,8 H -22.879336 c -1.168622,0 -2.120673,0.8761966 -2.120673,1.9526154 V 20.053178 c 0,1.076615 0.952252,1.953689 2.120673,1.953689 h 1.654763 c -0.186672,0.17528 -0.321006,0.406297 -0.321006,0.728267 0,0.6976 0.616916,1.264866 1.372972,1.264866 h 8.345144 c 0.757221,0 1.372976,-0.568344 1.372976,-1.264866 0,-0.321948 -0.133146,-0.553145 -0.321012,-0.728267 h 1.6559894 c 1.168624,0 2.119501,-0.877267 2.119501,-1.953689 V 9.9526154 C -7.0000086,8.876008 -7.9508856,8 -9.1195096,8 Z M -22.879336,8.8771338 h 13.7598004 c 0.64438,0 1.167409,0.481843 1.167409,1.0754816 V 17.870666 H -24.049385 V 9.9526154 c 0,-0.5934974 0.525367,-1.0754816 1.169795,-1.0754816 z m 11.050938,14.2473302 h -8.345136 c -0.231851,0 -0.420908,-0.174167 -0.420908,-0.38777 0,-0.11385 0.09272,-0.182984 0.500517,-0.372361 l 0.139106,-0.06562 c 0.343497,-0.163172 0.506484,-0.232123 0.587274,-0.266224 0.01676,-0.0074 0.03317,-0.01758 0.04993,-0.02396 h 6.635862 c 0.01675,0.0085 0.03324,0.01758 0.04992,0.02396 0.08079,0.03393 0.242594,0.101946 0.584873,0.266224 l 0.139117,0.06461 c 0.408963,0.19049 0.501705,0.259606 0.501705,0.373472 -2.03e-4,0.212491 -0.189056,0.387768 -0.422109,0.387768 z m 2.7091664,-1.994403 H -22.879031 c -0.644376,0 -1.168621,-0.482906 -1.168621,-1.076608 v -1.304289 h 16.0972554 v 1.304289 c -8.97e-4,0.593649 -0.524196,1.076608 -1.168629,1.076608 z"
       id="path16"
       style="fill:#d6dbf1;fill-opacity:1;stroke-width:0.0488995" />
    <rect
       style="fill:#d6dbf1;fill-opacity:0.50196081;stroke:none;stroke-width:0.314644"
       id="center-3"
       width="16.199997"
       height="9.7777719"
       x="-24.100012"
       y="8.8888903"
       ry="1.1655406" />
  </g>
  <g
     id="22-22-computer"
     transform="translate(32,-22.941122)">
    <rect
       style="opacity:0.00100002"
       width="22"
       height="22"
       x="-32"
       y="9.2651368e-07"
       id="rect7" />
    <circle
       style="opacity:0.3;fill:#3b5a87;fill-opacity:1;stroke:none;stroke-width:1.32431;stroke-linecap:round;stroke-linejoin:round;stroke-miterlimit:4;stroke-dasharray:none;stroke-opacity:1;paint-order:stroke fill markers"
       id="path858-35"
       cx="-21.00005"
       cy="11"
       r="11" />
    <path
       d="m -21,13.179686 c -0.415792,0 -0.752345,0.310845 -0.752345,0.693098 0,0.382238 0.337418,0.693112 0.752345,0.693112 0.414921,0 0.75234,-0.310853 0.75234,-0.693112 0,-0.382365 -0.337271,-0.693098 -0.75234,-0.693098 z m 0,0.905129 c -0.12726,0 -0.230155,-0.09479 -0.230155,-0.212038 0,-0.117236 0.102891,-0.212024 0.230155,-0.212024 0.127263,0 0.230151,0.09479 0.230151,0.212024 0,0.11725 -0.103764,0.212038 -0.230151,0.212038 z"
       id="path14-62"
       style="fill:#c0c5d9;fill-opacity:1;stroke-width:0.0358596" />
    <path
       d="m -15.95437,5.1333336 h -10.09052 c -0.856989,0 -1.55516,0.642545 -1.55516,1.431918 v 7.4070794 c 0,0.789517 0.698318,1.432705 1.55516,1.432705 h 1.213493 c -0.136893,0.128538 -0.235404,0.297951 -0.235404,0.534062 0,0.511573 0.452405,0.927568 1.006846,0.927568 h 6.119772 c 0.555295,0 1.006849,-0.416785 1.006849,-0.927568 0,-0.236095 -0.09764,-0.40564 -0.235409,-0.534062 h 1.214392 c 0.856991,0 1.554301,-0.64333 1.554301,-1.432705 V 6.5652516 c 0,-0.789512 -0.69731,-1.431918 -1.554301,-1.431918 z m -10.09052,0.643232 h 10.09052 c 0.472546,0 0.8561,0.353351 0.8561,0.788686 V 12.371822 H -26.902926 V 6.5652516 c 0,-0.435231 0.385269,-0.788686 0.85785,-0.788686 z m 8.104021,10.4480414 h -6.119766 c -0.170024,0 -0.308666,-0.127722 -0.308666,-0.284364 0,-0.08349 0.068,-0.134188 0.367046,-0.273066 l 0.102011,-0.04812 c 0.251898,-0.11966 0.371422,-0.170224 0.430668,-0.195231 0.01229,-0.0054 0.02432,-0.01289 0.03661,-0.01757 h 4.866299 c 0.01228,0.0062 0.02438,0.01289 0.03661,0.01757 0.05925,0.02488 0.177902,0.07476 0.428907,0.195231 l 0.102019,0.04738 c 0.299906,0.139692 0.367917,0.190377 0.367917,0.273879 -1.49e-4,0.155827 -0.138641,0.284363 -0.309547,0.284363 z m 1.986722,-1.462562 h -10.090519 c -0.472543,0 -0.856989,-0.354132 -0.856989,-0.789512 v -0.956479 h 11.804654 v 0.956479 c -6.58e-4,0.435343 -0.384411,0.789512 -0.856995,0.789512 z"
       id="path16-9"
       style="fill:#d6dbf1;fill-opacity:1;stroke-width:0.0358596" />
    <rect
       style="fill:#d6dbf1;fill-opacity:0.50196081;stroke:none;stroke-width:0.230739"
       id="center-3-1"
       width="11.879998"
       height="7.1703663"
       x="-26.940052"
       y="5.7851863"
       ry="0.85472977" />
  </g>
</svg>
