<?xml version="1.0" encoding="UTF-8" standalone="no"?>
<svg
   width="32"
   height="32"
   version="1.1"
   id="svg12"
   sodipodi:docname="device.svg"
   inkscape:version="1.1.2 (0a00cf5339, 2022-02-04)"
   xmlns:inkscape="http://www.inkscape.org/namespaces/inkscape"
   xmlns:sodipodi="http://sodipodi.sourceforge.net/DTD/sodipodi-0.dtd"
   xmlns="http://www.w3.org/2000/svg"
   xmlns:svg="http://www.w3.org/2000/svg"
   xmlns:rdf="http://www.w3.org/1999/02/22-rdf-syntax-ns#"
   xmlns:cc="http://creativecommons.org/ns#"
   xmlns:dc="http://purl.org/dc/elements/1.1/">
  <g
     id="22-22-device-notifier"
     transform="translate(32,10.000001)">
    <rect
       style="opacity:0.00100002"
       width="22"
       height="22"
       x="0"
       y="-4.6325681e-08"
       id="rect2" />
    <path
       d="M 13.74209,5.4900098 V 3 H 9.2869712 V 5.4900098 C 8.009827,5.5404809 7,6.1461618 7,6.8864347 V 17.603575 c 0,0.773922 1.0989307,1.396335 2.465174,1.396358 L 13.534185,19 c 1.366246,2.3e-5 2.465176,-0.622503 2.465176,-1.396425 V 6.8864347 C 16.029061,6.1461618 15.019234,5.5404836 13.74209,5.4900098 Z M 11.544231,3.3081031 h 1.787015 V 5.4900098 H 11.544231 V 4.3964249 h 0.178207 v -0.319664 h -0.178207 z m -1.8763178,0 h 1.8169128 v 0.8023067 h 0.178212 V 4.3459511 H 11.484826 V 5.4731858 H 9.6679132 Z M 15.511808,17.271649 c 0.130497,1.03715 -1.372924,1.309915 -1.848117,1.305511 l -4.4371,-0.04112 c -0.3786776,0.0045 -1.7382213,-0.2715 -1.73889,-1.146555 L 7.4796912,6.9381227 C 7.4791249,6.1983662 8.6121313,5.9726596 9.0873449,5.9743938 l 4.9110751,0.017911 c 0.445517,0.0016 1.554456,0.3372578 1.551481,1.1293955 z"
       id="path4-3-3-3"
       style="fill:#d6dbf1;fill-opacity:1;stroke-width:0.223542"
       sodipodi:nodetypes="ccccssssscccccccccccccccccccccscsssssc" />
    <path
       d="M 12.653335,8 H 10.333333 C 10.146666,8 10,8.1607706 10,8.3653884 v 7.7900876 c 0,0.204618 0.146666,0.365389 0.333333,0.365389 h 2.333334 C 12.853335,16.520865 13,16.360094 13,16.155476 V 8.3653884 C 13,8.1607706 12.84,8 12.653335,8 Z m 0.108266,8.097552 c 0,0.16077 -0.01461,0.162159 -0.147933,0.162159 h -2.227457 c -0.146668,0 -0.147936,-0.01601 -0.147936,-0.162159 v -7.6742 c 0,-0.1607707 0.0146,-0.1621591 0.147936,-0.1621591 h 2.227457 c 0.146665,0 0.147933,0.07392 0.147933,0.2200737 z"
       id="path6-6-6"
       style="fill:#d6dbf1;fill-opacity:1;stroke-width:0.139596"
       sodipodi:nodetypes="ssssssssssssssssss" />
    <path
       d="M 12.275132,9 H 10.749624 C 10.508753,9 10.3,9.1753867 10.3,9.4092356 v 3.1861904 c 0,0.219233 0.192695,0.409235 0.449624,0.409235 h 1.525508 c 0.240869,0 0.449622,-0.175387 0.449622,-0.409235 V 9.4092356 C 12.724754,9.1753867 12.53206,9 12.275132,9 Z m 0.240869,0.7746249 c 0,0.1169236 -0.112406,0.2192321 -0.240869,0.2192321 h -1.461277 c -0.128466,0 -0.240868,-0.1023085 -0.240868,-0.2192321 v -0.073075 c 0,-0.1169245 0.112402,-0.2192329 0.240868,-0.2192329 h 1.461277 c 0.128463,0 0.240869,0.1023084 0.240869,0.2192329 z"
       id="path8-7-7"
       style="fill:#489ab1;fill-opacity:1;stroke-width:0.153198" />
    <rect
       x="10"
       y="4"
       width="1"
       height="1"
       id="rect10-53"
       style="fill:#d6dbf1;fill-opacity:1;stroke-width:0.376887" />
    <rect
       x="12"
       y="4"
       width="1"
       height="1"
       id="rect12-5"
       style="fill:#d6dbf1;fill-opacity:1;stroke-width:0.376886" />
  </g>
  <metadata
     id="metadata18">
    <rdf:RDF>
      <cc:Work
         rdf:about="">
        <dc:format>image/svg+xml</dc:format>
        <dc:type
           rdf:resource="http://purl.org/dc/dcmitype/StillImage" />
      </cc:Work>
    </rdf:RDF>
  </metadata>
  <defs
     id="defs16" />
  <sodipodi:namedview
     pagecolor="#ffffff"
     bordercolor="#000000"
     borderopacity="1"
     objecttolerance="10"
     gridtolerance="10"
     guidetolerance="10"
     inkscape:pageopacity="0"
     inkscape:pageshadow="2"
     inkscape:window-width="1920"
     inkscape:window-height="1013"
     id="namedview14"
     showgrid="false"
     inkscape:zoom="9.1462202"
     inkscape:cx="24.873663"
     inkscape:cy="25.092333"
     inkscape:window-x="0"
     inkscape:window-y="0"
     inkscape:window-maximized="1"
     inkscape:current-layer="svg12"
     inkscape:document-rotation="0"
     inkscape:lockguides="true"
     inkscape:pagecheckerboard="0"
     inkscape:showpageshadow="false">
    <inkscape:grid
       type="xygrid"
       id="grid849"
       originx="0"
       originy="-4.6325683e-08" />
  </sodipodi:namedview>
  <g
     id="g26"
     transform="matrix(0.02245078,0,0,0.02245078,4.88152,4.7085942)">
    <g
       transform="matrix(0.1,0,0,-0.1,0,512)"
       id="g16" />
  </g>
  <g
     id="g27"
     transform="matrix(0.01632784,0,0,0.01632784,34.907742,12.825068)">
    <g
       transform="matrix(0.1,0,0,-0.1,0,512)"
       id="g953" />
  </g>
  <g
     id="device-notifier"
     transform="translate(32,10.000001)">
    <rect
       style="opacity:0.00100002"
       width="32"
       height="32"
       x="-32"
       y="-10.000001"
       id="rect7" />
    <path
       d="m -12.261426,-2.264986 v -3.735015 h -6.435169 v 3.735015 C -20.541364,-2.1892756 -22,-1.2807584 -22,-0.17034795 V 15.905362 c 0,1.160883 1.587341,2.094502 3.560809,2.094536 l 5.877459,1.01e-4 c 1.973466,3.4e-5 3.5608091,-0.933754 3.5608091,-2.094637 V -0.17034795 C -8.958015,-1.2807584 -10.416661,-2.1892759 -12.261426,-2.264986 Z m -3.174688,-3.173015 h 2.480632 v 3.173015 h -2.480632 v -1.640378 h 0.257413 v -0.479495 h -0.257413 z m -2.609487,0 h 2.523684 v 1.1036154 h 0.257416 v 0.353312 h -0.257416 v 1.6908521 h -2.523684 z m 8.139161,20.745 c 0.1884994,1.555726 -1.882815,1.865968 -2.569203,1.859 l -6.107137,-0.062 c -0.546981,0.0068 -2.510912,-0.307418 -2.511863,-1.62 l -0.01107,-15.277 c -8.04e-4,-1.109635 1.735916,-1.5477078 2.422333,-1.545 l 6.591,0.026 c 0.643521,0.00254 2.2456383,0.40679446 2.2412624,1.595 z"
       id="path4-3-3"
       style="fill:#d6dbf1;fill-opacity:1;stroke-width:0.329046"
       sodipodi:nodetypes="ccccssssscccccccccccccccccccccscsssssc" />
    <path
       d="m -13.577778,1.635976 h -3.866668 C -17.755557,1.635976 -18,1.877131 -18,2.184057 v 11.685132 c 0,0.306927 0.244443,0.548084 0.555554,0.548084 h 3.888889 C -13.244442,14.417273 -13,14.176116 -13,13.869189 V 2.184057 c 0,-0.306926 -0.266666,-0.548081 -0.577778,-0.548081 z m 0.180444,12.146327 c 0,0.241156 -0.02435,0.243239 -0.246559,0.243239 h -3.712422 c -0.244446,0 -0.246558,-0.02401 -0.246558,-0.243239 V 2.271004 c 0,-0.241157 0.02435,-0.243239 0.246558,-0.243239 h 3.712422 c 0.244446,0 0.246559,0.110878 0.246559,0.330109 z"
       id="path6-6"
       style="fill:#d6dbf1;fill-opacity:1;stroke-width:0.220722"
       sodipodi:nodetypes="ssssssssssssssssss" />
    <path
       d="m -14.556291,2.999999 h -1.887417 C -16.741722,2.999999 -17,3.26308 -17,3.613853 v 4.779285 c 0,0.32885 0.238409,0.613853 0.556292,0.613853 h 1.887417 C -14.258279,9.006991 -14,8.74391 -14,8.393138 V 3.613853 c 0,-0.350773 -0.238409,-0.613854 -0.556291,-0.613854 z m 0.298012,1.161937 c 0,0.175387 -0.139072,0.328849 -0.298012,0.328849 h -1.807946 c -0.158945,0 -0.298013,-0.153462 -0.298013,-0.328849 V 4.05232 c 0,-0.175388 0.139068,-0.32885 0.298013,-0.32885 h 1.807946 c 0.15894,0 0.298012,0.153462 0.298012,0.32885 z"
       id="path8-7"
       style="fill:#489ab1;fill-opacity:1;stroke-width:0.208701" />
    <rect
       x="-17.690001"
       y="-5.000001"
       width="1.42"
       height="1"
       id="rect10"
       style="fill:#d6dbf1;fill-opacity:1;stroke-width:0.449117" />
    <rect
       x="-14.703"
       y="-5.000001"
       width="1.4195762"
       height="1"
       id="rect12"
       style="fill:#d6dbf1;fill-opacity:1;stroke-width:0.44905" />
  </g>
</svg>
