<?xml version="1.0" encoding="UTF-8" standalone="no"?>
<svg
   width="32"
   height="32"
   version="1.1"
   id="svg78"
   sodipodi:docname="disk.svg"
   inkscape:version="1.1.2 (0a00cf5339, 2022-02-04)"
   xmlns:inkscape="http://www.inkscape.org/namespaces/inkscape"
   xmlns:sodipodi="http://sodipodi.sourceforge.net/DTD/sodipodi-0.dtd"
   xmlns="http://www.w3.org/2000/svg"
   xmlns:svg="http://www.w3.org/2000/svg">
  <g
     id="22-22-disk-quota-missing"
     transform="translate(128,-22)">
    <rect
       style="opacity:0.00100002;fill:#d6dbf1;fill-opacity:1"
       width="22"
       height="22"
       x="0"
       y="0"
       id="rect34" />
    <path
       d="M 15.77551,3 H 6.22449 C 5.55102,3 5,3.6 5,4.333333 V 17.666664 C 5,18.400001 5.55102,19 6.22449,19 h 9.55102 C 16.44898,19 17,18.400001 17,17.666664 V 4.333333 C 17,3.6 16.44898,3 15.77551,3 Z m 0.22451,15 v 0 h -10 v 0 L 5.99502,3.99714 6.00002,4 h 10 v 0 z"
       id="path2-6-8-84"
       style="fill:#d6dbf1;fill-opacity:0.3;stroke-width:0.31944"
       sodipodi:nodetypes="sssssssssccccccccc" />
    <path
       d="m 11,6.333333 c -1.86275,0 -3.33333,1.470591 -3.33333,3.333336 C 7.66667,11.529415 9.13725,13 11,13 12.86275,13 14.33333,11.529415 14.33333,9.666669 14.33333,7.803924 12.86275,6.333333 11,6.333333 Z m 0.0454,3.333336 z"
       id="path6-3-75-7-5"
       style="fill:#d6dbf1;fill-opacity:0.3;stroke-width:0.98038"
       sodipodi:nodetypes="ssssscccc" />
    <path
       d="m 7.92518,17 h 6.25756 c 0.22893,0 0.38155,-0.2 0.38155,-0.5 0,-0.300001 -0.15262,-0.5 -0.38155,-0.5 H 7.92518 c -0.22893,0 -0.38155,0.199999 -0.38155,0.5 0,0.3 0.15262,0.5 0.38155,0.5 z"
       id="path10-35-9-0"
       style="fill:#d6dbf1;fill-opacity:0.3;stroke-width:0.436782" />
    <path
       d="m 10.98372,8.491666 c -0.66808,0 -1.1955,0.518383 -1.1955,1.175001 0,0.656618 0.52742,1.174999 1.1955,1.174999 0.66808,0 1.1955,-0.518381 1.1955,-1.174999 0,-0.656618 -0.52742,-1.175001 -1.1955,-1.175001 z m 0.0163,1.175001 z"
       id="path6-3-7-3-6-2-36"
       style="fill:#000000;fill-opacity:0.3;stroke-width:0.348591"
       sodipodi:nodetypes="ssssscccc" />
  </g>
  <sodipodi:namedview
     id="namedview80"
     pagecolor="#ffffff"
     bordercolor="#666666"
     borderopacity="1.0"
     inkscape:pageshadow="2"
     inkscape:pageopacity="0.0"
     inkscape:pagecheckerboard="0"
     showgrid="false"
     inkscape:zoom="4.859375"
     inkscape:cx="73.77492"
     inkscape:cy="-2.2636656"
     inkscape:window-width="1920"
     inkscape:window-height="1009"
     inkscape:window-x="0"
     inkscape:window-y="0"
     inkscape:window-maximized="1"
     inkscape:current-layer="svg78"
     inkscape:lockguides="true">
    <inkscape:grid
       type="xygrid"
       id="grid1005"
       originx="0"
       originy="0" />
  </sodipodi:namedview>
  <defs
     id="nova">
    <style
       id="current-color-scheme"
       type="text/css">
   .ColorScheme-Background {color:#181818; } .ColorScheme-ButtonBackground { color:#343434; } .ColorScheme-Highlight { color:#4285f4; } .ColorScheme-Text { color:#dfdfdf; } .ColorScheme-ViewBackground { color:#242424; } .ColorScheme-NegativeText { color:#f44336; } .ColorScheme-PositiveText { color:#4caf50; } .ColorScheme-NeutralText { color:#ff9800; }
  </style>
  </defs>
  <g
     id="disk-quota">
    <rect
       style="opacity:0.00100002;fill:#d6dbf1;fill-opacity:1"
       width="32"
       height="32"
       x="0"
       y="0"
       id="rect41" />
    <path
       d="M 23.163264,4 H 8.8367346 C 7.8265306,4 7,4.9 7,5.9999995 V 25.999996 C 7,27.100001 7.8265306,28 8.8367346,28 H 23.163264 C 24.173467,28 25,27.100001 25,25.999996 V 5.9999995 C 25,4.9 24.173467,4 23.163264,4 Z M 24,25.999996 c 0,0.549998 -0.331636,0.999998 -0.836736,0.999998 H 8.8367346 C 8.3316337,26.999994 8,26.549994 8,25.999996 V 5.9999995 C 8,5.4499991 8.3316337,4.9999991 8.8367346,4.9999991 H 23.163264 c 0.5051,0 0.836736,0.45 0.836736,1.0000004 z"
       id="path2"
       style="fill:#d6dbf1;fill-opacity:1;stroke-width:0.47916"
       sodipodi:nodetypes="ssssssssssssssssss" />
    <path
       d="M 16.000001,9 C 13.205875,9 11,11.205886 11,14.000003 11,16.794123 13.205875,19 16.000001,19 18.794119,19 21,16.794123 21,14.000003 21,11.205886 18.794119,9 16.000001,9 Z m 0.06809,5.000003 z"
       id="path6-3"
       style="fill:#d6dbf1;fill-opacity:1;stroke-width:1.47057"
       sodipodi:nodetypes="ssssscccc" />
    <path
       d="m 11.387774,24 h 9.386329 c 0.343401,0 0.572335,-0.2 0.572335,-0.5 0,-0.300002 -0.228934,-0.5 -0.572335,-0.5 h -9.386329 c -0.343401,0 -0.572336,0.199998 -0.572336,0.5 0,0.3 0.228935,0.5 0.572336,0.5 z"
       id="path10"
       style="fill:#d6dbf1;fill-opacity:1;stroke-width:0.534947" />
    <path
       d="m 15.97558,12.237499 c -1.002116,0 -1.793256,0.777575 -1.793256,1.762501 0,0.984927 0.79114,1.762499 1.793256,1.762499 1.002113,0 1.793255,-0.777572 1.793255,-1.762499 0,-0.984926 -0.791142,-1.762501 -1.793255,-1.762501 z M 16,14 Z"
       id="path6-3-7-3"
       style="fill:#000000;fill-opacity:1;stroke-width:0.522886"
       sodipodi:nodetypes="ssssscccc" />
  </g>
  <g
     id="disk-quota-low"
     transform="translate(32)">
    <rect
       style="opacity:0.00100002"
       width="32"
       height="32"
       x="0"
       y="0"
       id="rect48" />
    <path
       d="M 23.163264,4 H 8.836735 C 7.826531,4 7,4.9 7,6 V 25.999996 C 7,27.100001 7.826531,28 8.836735,28 H 23.163264 C 24.173467,28 25,27.100001 25,25.999996 V 6 C 25,4.9 24.173467,4 23.163264,4 Z M 24,25.999996 c 0,0.549998 -0.331636,0.999998 -0.836736,0.999998 H 8.836735 C 8.331634,26.999994 8,26.549994 8,25.999996 V 6 C 8,5.449999 8.331634,4.999999 8.836735,4.999999 H 23.163264 C 23.668364,4.999999 24,5.449999 24,6 Z"
       id="path2-6"
       style="fill:#d6dbf1;fill-opacity:1;stroke-width:0.47916"
       sodipodi:nodetypes="ssssssssssssssssss" />
    <path
       d="M 16.000001,9 C 13.205875,9 11,11.205886 11,14.000003 11,16.794123 13.205875,19 16.000001,19 18.794119,19 21,16.794123 21,14.000003 21,11.205886 18.794119,9 16.000001,9 Z m 0.06809,5.000003 z"
       id="path6-3-75"
       style="fill:#5f8dd3;fill-opacity:1;stroke-width:1.47057"
       sodipodi:nodetypes="ssssscccc" />
    <path
       d="m 11.387774,24 h 9.386329 c 0.343401,0 0.572335,-0.2 0.572335,-0.5 0,-0.300002 -0.228934,-0.5 -0.572335,-0.5 h -9.386329 c -0.343401,0 -0.572336,0.199998 -0.572336,0.5 0,0.3 0.228935,0.5 0.572336,0.5 z"
       id="path10-35"
       style="fill:#5f8dd3;fill-opacity:1;stroke-width:0.534947" />
    <path
       d="m 15.97558,12.237499 c -1.002116,0 -1.793256,0.777575 -1.793256,1.762501 0,0.984927 0.79114,1.762499 1.793256,1.762499 1.002113,0 1.793255,-0.777572 1.793255,-1.762499 0,-0.984926 -0.791142,-1.762501 -1.793255,-1.762501 z M 16,14 Z"
       id="path6-3-7-3-6"
       style="fill:#000000;fill-opacity:1;stroke-width:0.522886"
       sodipodi:nodetypes="ssssscccc" />
  </g>
  <g
     id="disk-quota-high"
     transform="translate(64)">
    <rect
       style="opacity:0.00100002"
       width="32"
       height="32"
       x="0"
       y="0"
       id="rect55" />
    <path
       d="M 23.16326,4 H 8.836735 C 7.826531,4 7,4.9 7,6 V 25.999996 C 7,27.100001 7.826531,28 8.836735,28 H 23.16326 C 24.17347,28 25,27.100001 25,25.999996 V 6 C 25,4.9 24.17347,4 23.16326,4 Z M 24,25.999996 c 0,0.549998 -0.33164,0.999998 -0.83674,0.999998 H 8.836735 C 8.331634,26.999994 8,26.549994 8,25.999996 V 6 C 8,5.449999 8.331634,4.999999 8.836735,4.999999 H 23.16326 C 23.66836,4.999999 24,5.449999 24,6 Z"
       id="path2-2"
       style="fill:#d6dbf1;fill-opacity:1;stroke-width:0.47916"
       sodipodi:nodetypes="ssssssssssssssssss" />
    <path
       d="M 16,9 C 13.205875,9 11,11.205886 11,14.000003 11,16.794123 13.205875,19 16,19 18.79412,19 21,16.794123 21,14.000003 21,11.205886 18.79412,9 16,9 Z m 0.0681,5.000003 z"
       id="path6-3-9"
       style="fill:#ff9955;fill-opacity:1;stroke-width:1.47057"
       sodipodi:nodetypes="ssssscccc" />
    <path
       d="M 11.387774,24 H 20.7741 c 0.3434,0 0.57234,-0.2 0.57234,-0.5 0,-0.300002 -0.22894,-0.5 -0.57234,-0.5 h -9.386326 c -0.343401,0 -0.572336,0.199998 -0.572336,0.5 0,0.3 0.228935,0.5 0.572336,0.5 z"
       id="path10-1"
       style="fill:#ff9955;fill-opacity:1;stroke-width:0.534947" />
    <path
       d="m 15.97558,12.237499 c -1.002116,0 -1.793256,0.777575 -1.793256,1.762501 0,0.984927 0.79114,1.762499 1.793256,1.762499 1.00211,0 1.79325,-0.777572 1.79325,-1.762499 0,-0.984926 -0.79114,-1.762501 -1.79325,-1.762501 z M 16,14 Z"
       id="path6-3-7-3-2"
       style="fill:#000000;fill-opacity:1;stroke-width:0.522886"
       sodipodi:nodetypes="ssssscccc" />
  </g>
  <g
     id="disk-quota-critical"
     transform="translate(96)">
    <rect
       style="opacity:0.00100002"
       width="32"
       height="32"
       x="0"
       y="0"
       id="rect64" />
    <path
       d="M 23.16326,4 H 8.83673 C 7.82653,4 7,4.9 7,6 V 25.999996 C 7,27.100001 7.82653,28 8.83673,28 H 23.16326 C 24.17347,28 25,27.100001 25,25.999996 V 6 C 25,4.9 24.17347,4 23.16326,4 Z M 24,25.999996 c 0,0.549998 -0.33164,0.999998 -0.83674,0.999998 H 8.83673 C 8.33163,26.999994 8,26.549994 8,25.999996 V 6 C 8,5.449999 8.33163,4.999999 8.83673,4.999999 H 23.16326 C 23.66836,4.999999 24,5.449999 24,6 Z"
       id="path2-7"
       style="fill:#d6dbf1;fill-opacity:1;stroke-width:0.47916"
       sodipodi:nodetypes="ssssssssssssssssss" />
    <path
       d="M 16,9 C 13.20587,9 11,11.205886 11,14.000003 11,16.794123 13.20587,19 16,19 18.79412,19 21,16.794123 21,14.000003 21,11.205886 18.79412,9 16,9 Z m 0.0681,5.000003 z"
       id="path6-3-0"
       style="fill:#bf616a;fill-opacity:1;stroke-width:1.47057"
       sodipodi:nodetypes="ssssscccc" />
    <path
       d="m 11.38777,24 h 9.38633 c 0.3434,0 0.57234,-0.2 0.57234,-0.5 0,-0.300002 -0.22894,-0.5 -0.57234,-0.5 h -9.38633 c -0.3434,0 -0.57233,0.199998 -0.57233,0.5 0,0.3 0.22893,0.5 0.57233,0.5 z"
       id="path10-9"
       style="fill:#bf616a;fill-opacity:1;stroke-width:0.534947" />
    <path
       d="m 15.97558,12.237499 c -1.00212,0 -1.79326,0.777575 -1.79326,1.762501 0,0.984927 0.79114,1.762499 1.79326,1.762499 1.00211,0 1.79325,-0.777572 1.79325,-1.762499 0,-0.984926 -0.79114,-1.762501 -1.79325,-1.762501 z M 16,14 Z"
       id="path6-3-7-3-3"
       style="fill:#000000;fill-opacity:1;stroke-width:0.522886"
       sodipodi:nodetypes="ssssscccc" />
  </g>
  <g
     id="disk-quota-missing"
     transform="translate(128)">
    <rect
       style="opacity:0.00100002;fill:#d6dbf1;fill-opacity:1"
       width="32"
       height="32"
       x="0"
       y="0"
       id="rect71" />
    <path
       d="M 23.16326,4 H 8.83673 C 7.82653,4 7,4.9 7,6 V 25.999996 C 7,27.100001 7.82653,28 8.83673,28 H 23.16326 C 24.17347,28 25,27.100001 25,25.999996 V 6 C 25,4.9 24.17347,4 23.16326,4 Z M 24,25.999996 c 0,0.549998 -0.33164,0.999998 -0.83674,0.999998 H 8.83673 C 8.33163,26.999994 8,26.549994 8,25.999996 V 6 C 8,5.449999 8.33163,4.999999 8.83673,4.999999 H 23.16326 C 23.66836,4.999999 24,5.449999 24,6 Z"
       id="path2-60"
       style="fill:#d6dbf1;fill-opacity:0.3;stroke-width:0.47916"
       sodipodi:nodetypes="ssssssssssssssssss" />
    <path
       d="M 16,9 C 13.20587,9 11,11.205886 11,14.000003 11,16.794123 13.20587,19 16,19 18.79412,19 21,16.794123 21,14.000003 21,11.205886 18.79412,9 16,9 Z m 0.0681,5.000003 z"
       id="path6-3-6"
       style="fill:#d6dbf1;fill-opacity:0.301961;stroke-width:1.47057"
       sodipodi:nodetypes="ssssscccc" />
    <path
       d="m 11.38777,24 h 9.38633 c 0.3434,0 0.57234,-0.2 0.57234,-0.5 0,-0.300002 -0.22894,-0.5 -0.57234,-0.5 h -9.38633 c -0.3434,0 -0.57233,0.199998 -0.57233,0.5 0,0.3 0.22893,0.5 0.57233,0.5 z"
       id="path10-2"
       style="fill:#d6dbf1;fill-opacity:0.301961;stroke-width:0.534947" />
    <path
       d="m 15.97558,12.237499 c -1.00212,0 -1.79326,0.777575 -1.79326,1.762501 0,0.984927 0.79114,1.762499 1.79326,1.762499 1.00211,0 1.79325,-0.777572 1.79325,-1.762499 0,-0.984926 -0.79114,-1.762501 -1.79325,-1.762501 z M 16,14 Z"
       id="path6-3-7-3-61"
       style="fill:#000000;fill-opacity:0.3;stroke-width:0.522886"
       sodipodi:nodetypes="ssssscccc" />
  </g>
  <g
     id="22-22-disk-quota"
     transform="translate(0,-22)">
    <rect
       style="opacity:0.00100002;fill:#d6dbf1;fill-opacity:1"
       width="22"
       height="22"
       x="0"
       y="0"
       id="rect4" />
    <path
       d="M 15.77549,3 H 6.22447 C 5.551,3 4.99998,3.6 4.99998,4.333333 V 17.666664 C 4.99998,18.400001 5.551,19 6.22447,19 h 9.55102 c 0.67347,0 1.22449,-0.599999 1.22449,-1.333336 V 4.333333 C 16.99998,3.6 16.44896,3 15.77549,3 Z M 16,18 v 0 H 6 v 0 L 5.9949672,3.9971396 6,4 h 10 v 0 z"
       id="path2-6-8"
       style="fill:#d6dbf1;fill-opacity:1;stroke-width:0.31944"
       sodipodi:nodetypes="sssssssssccccccccc" />
    <path
       d="m 10.99998,6.333333 c -1.86275,0 -3.33333,1.470591 -3.33333,3.333336 0,1.862746 1.47058,3.333331 3.33333,3.333331 1.86275,0 3.33333,-1.470585 3.33333,-3.333331 0,-1.862745 -1.47058,-3.333336 -3.33333,-3.333336 z m 0.0454,3.333336 z"
       id="path6-3-75-7"
       style="fill:#d6dbf1;fill-opacity:1;stroke-width:0.98038"
       sodipodi:nodetypes="ssssscccc" />
    <path
       d="m 7.92516,17 h 6.25756 c 0.22893,0 0.38155,-0.2 0.38155,-0.5 0,-0.300001 -0.15262,-0.5 -0.38155,-0.5 H 7.92516 c -0.22893,0 -0.38155,0.199999 -0.38155,0.5 0,0.3 0.15262,0.5 0.38155,0.5 z"
       id="path10-35-9"
       style="fill:#d6dbf1;fill-opacity:1;stroke-width:0.436782" />
    <path
       d="m 10.9837,8.491666 c -0.66808,0 -1.1955,0.518383 -1.1955,1.175001 0,0.656618 0.52742,1.174999 1.1955,1.174999 0.66808,0 1.1955,-0.518381 1.1955,-1.174999 0,-0.656618 -0.52742,-1.175001 -1.1955,-1.175001 z M 11,9.666667 Z"
       id="path6-3-7-3-6-2"
       style="fill:#000000;fill-opacity:1;stroke-width:0.348591"
       sodipodi:nodetypes="ssssscccc" />
  </g>
  <g
     id="22-22-disk-quota-low"
     transform="translate(32,-22)">
    <rect
       style="opacity:0.00100002"
       width="22"
       height="22"
       x="0"
       y="0"
       id="rect11" />
    <path
       d="M 15.77551,3 H 6.22449 C 5.55102,3 5,3.6 5,4.333333 V 17.666664 C 5,18.400001 5.55102,19 6.22449,19 h 9.55102 C 16.44898,19 17,18.400001 17,17.666664 V 4.333333 C 17,3.6 16.44898,3 15.77551,3 Z m 0.22451,15 v 0 h -10 v 0 L 5.99502,3.99714 6.00002,4 h 10 v 0 z"
       id="path2-6-8-8"
       style="fill:#d6dbf1;fill-opacity:1;stroke-width:0.31944"
       sodipodi:nodetypes="sssssssssccccccccc" />
    <path
       d="m 11,6.333333 c -1.86275,0 -3.33333,1.470591 -3.33333,3.333336 C 7.66667,11.529415 9.13725,13 11,13 12.86275,13 14.33333,11.529415 14.33333,9.666669 14.33333,7.803924 12.86275,6.333333 11,6.333333 Z m 0.0454,3.333336 z"
       id="path6-3-75-7-9"
       style="fill:#5f8dd3;fill-opacity:1;stroke-width:0.98038"
       sodipodi:nodetypes="ssssscccc" />
    <path
       d="m 7.92518,17 h 6.25756 c 0.22893,0 0.38155,-0.2 0.38155,-0.5 0,-0.300001 -0.15262,-0.5 -0.38155,-0.5 H 7.92518 c -0.22893,0 -0.38155,0.199999 -0.38155,0.5 0,0.3 0.15262,0.5 0.38155,0.5 z"
       id="path10-35-9-7"
       style="fill:#5f8dd3;fill-opacity:1;stroke-width:0.436782" />
    <path
       d="m 10.98372,8.491666 c -0.66808,0 -1.1955,0.518383 -1.1955,1.175001 0,0.656618 0.52742,1.174999 1.1955,1.174999 0.66808,0 1.1955,-0.518381 1.1955,-1.174999 0,-0.656618 -0.52742,-1.175001 -1.1955,-1.175001 z m 0.0163,1.175001 z"
       id="path6-3-7-3-6-2-3"
       style="fill:#000000;fill-opacity:1;stroke-width:0.348591"
       sodipodi:nodetypes="ssssscccc" />
  </g>
  <g
     id="22-22-disk-quota-high"
     transform="translate(64,-22)">
    <rect
       style="opacity:0.00100002"
       width="22"
       height="22"
       x="0"
       y="0"
       id="rect18" />
    <path
       d="M 15.77551,3 H 6.22449 C 5.55102,3 5,3.6 5,4.333333 V 17.666664 C 5,18.400001 5.55102,19 6.22449,19 h 9.55102 C 16.44898,19 17,18.400001 17,17.666664 V 4.333333 C 17,3.6 16.44898,3 15.77551,3 Z m 0.22451,15 v 0 h -10 v 0 L 5.99502,3.99714 6.00002,4 h 10 v 0 z"
       id="path2-6-8-6"
       style="fill:#d6dbf1;fill-opacity:1;stroke-width:0.31944"
       sodipodi:nodetypes="sssssssssccccccccc" />
    <path
       d="m 11,6.333333 c -1.86275,0 -3.33333,1.470591 -3.33333,3.333336 C 7.66667,11.529415 9.13725,13 11,13 12.86275,13 14.33333,11.529415 14.33333,9.666669 14.33333,7.803924 12.86275,6.333333 11,6.333333 Z m 0.0454,3.333336 z"
       id="path6-3-75-7-1"
       style="fill:#ff9955;fill-opacity:1;stroke-width:0.98038"
       sodipodi:nodetypes="ssssscccc" />
    <path
       d="m 7.92518,17 h 6.25756 c 0.22893,0 0.38155,-0.2 0.38155,-0.5 0,-0.300001 -0.15262,-0.5 -0.38155,-0.5 H 7.92518 c -0.22893,0 -0.38155,0.199999 -0.38155,0.5 0,0.3 0.15262,0.5 0.38155,0.5 z"
       id="path10-35-9-2"
       style="fill:#ff9955;fill-opacity:1;stroke-width:0.436782" />
    <path
       d="m 10.98372,8.491666 c -0.66808,0 -1.1955,0.518383 -1.1955,1.175001 0,0.656618 0.52742,1.174999 1.1955,1.174999 0.66808,0 1.1955,-0.518381 1.1955,-1.174999 0,-0.656618 -0.52742,-1.175001 -1.1955,-1.175001 z m 0.0163,1.175001 z"
       id="path6-3-7-3-6-2-9"
       style="fill:#000000;fill-opacity:1;stroke-width:0.348591"
       sodipodi:nodetypes="ssssscccc" />
  </g>
  <g
     id="22-22-disk-quota-critical"
     transform="translate(96,-22)">
    <rect
       style="opacity:0.00100002"
       width="22"
       height="22"
       x="0"
       y="0"
       id="rect27" />
    <path
       d="M 15.77551,3 H 6.22449 C 5.55102,3 5,3.6 5,4.333333 V 17.666664 C 5,18.400001 5.55102,19 6.22449,19 h 9.55102 C 16.44898,19 17,18.400001 17,17.666664 V 4.333333 C 17,3.6 16.44898,3 15.77551,3 Z m 0.22451,15 v 0 h -10 v 0 l -0.005,-14.00286 0.005,0.0029 h 10 v 0 z"
       id="path2-6-8-3"
       style="fill:#d6dbf1;fill-opacity:1;stroke-width:0.31944"
       sodipodi:nodetypes="sssssssssccccccccc" />
    <path
       d="m 11,6.333333 c -1.86275,0 -3.33333,1.470591 -3.33333,3.333336 C 7.66667,11.529415 9.13725,13 11,13 12.86275,13 14.33333,11.529415 14.33333,9.666669 14.33333,7.803924 12.86275,6.333333 11,6.333333 Z m 0.0454,3.333336 z"
       id="path6-3-75-7-19"
       style="fill:#bf616a;fill-opacity:1;stroke-width:0.98038"
       sodipodi:nodetypes="ssssscccc" />
    <path
       d="m 7.92518,17 h 6.25756 c 0.22893,0 0.38155,-0.2 0.38155,-0.5 0,-0.300001 -0.15262,-0.5 -0.38155,-0.5 H 7.92518 c -0.22893,0 -0.38155,0.199999 -0.38155,0.5 0,0.3 0.15262,0.5 0.38155,0.5 z"
       id="path10-35-9-4"
       style="fill:#bf616a;fill-opacity:1;stroke-width:0.436782" />
    <path
       d="m 10.98372,8.491666 c -0.66808,0 -1.1955,0.518383 -1.1955,1.175001 0,0.656618 0.52742,1.174999 1.1955,1.174999 0.66808,0 1.1955,-0.518381 1.1955,-1.174999 0,-0.656618 -0.52742,-1.175001 -1.1955,-1.175001 z m 0.0163,1.175001 z"
       id="path6-3-7-3-6-2-7"
       style="fill:#000000;fill-opacity:1;stroke-width:0.348591"
       sodipodi:nodetypes="ssssscccc" />
  </g>
</svg>
