<?xml version="1.0" encoding="UTF-8" standalone="no"?>
<svg
   width="32"
   height="32"
   version="1.1"
   id="svg12"
   sodipodi:docname="drive.svg"
   inkscape:version="1.1.1 (3bf5ae0d25, 2021-09-20)"
   xmlns:inkscape="http://www.inkscape.org/namespaces/inkscape"
   xmlns:sodipodi="http://sodipodi.sourceforge.net/DTD/sodipodi-0.dtd"
   xmlns="http://www.w3.org/2000/svg"
   xmlns:svg="http://www.w3.org/2000/svg"
   xmlns:rdf="http://www.w3.org/1999/02/22-rdf-syntax-ns#"
   xmlns:cc="http://creativecommons.org/ns#"
   xmlns:dc="http://purl.org/dc/elements/1.1/">
  <metadata
     id="metadata18">
    <rdf:RDF>
      <cc:Work
         rdf:about="">
        <dc:format>image/svg+xml</dc:format>
        <dc:type
           rdf:resource="http://purl.org/dc/dcmitype/StillImage" />
      </cc:Work>
    </rdf:RDF>
  </metadata>
  <defs
     id="defs16" />
  <sodipodi:namedview
     pagecolor="#ffffff"
     bordercolor="#666666"
     borderopacity="1"
     objecttolerance="10"
     gridtolerance="10"
     guidetolerance="10"
     inkscape:pageopacity="0"
     inkscape:pageshadow="2"
     inkscape:window-width="1920"
     inkscape:window-height="1006"
     id="namedview14"
     showgrid="false"
     inkscape:zoom="9.8125"
     inkscape:cx="32"
     inkscape:cy="16.611465"
     inkscape:window-x="0"
     inkscape:window-y="0"
     inkscape:window-maximized="1"
     inkscape:current-layer="svg12"
     inkscape:document-rotation="0"
     inkscape:lockguides="false"
     showguides="false"
     inkscape:pagecheckerboard="0">
    <inkscape:grid
       type="xygrid"
       id="grid875"
       originx="0"
       originy="-4.6325683e-08" />
  </sodipodi:namedview>
  <g
     id="drive-harddisk"
     transform="translate(32,10.000001)"
     style="fill:#a8aeca;fill-opacity:1">
    <rect
       style="opacity:0.00100002;fill:#a8aeca;fill-opacity:1"
       width="32"
       height="32"
       x="-32"
       y="-10.000001"
       id="rect7" />
    <path
       d="m -16.061394,2.318638 a 3.1999994,3.1999994 0 1 0 3.200021,3.199994 3.1999994,3.1999994 0 0 0 -3.200021,-3.199994 z m 0,4.8 a 1.6000006,1.6000006 0 1 1 1.600015,-1.600006 1.6000006,1.6000006 0 0 1 -1.600015,1.600006 z"
       id="path6"
       style="fill:#489ab1;fill-opacity:1;stroke-width:0.799994" />
    <path
       d="m -8.96394,-6.000001 h -14.080807 c -0.992879,0 -1.805253,0.9 -1.805253,1.9999989 V 15.999998 c 0,1.100001 0.812374,2.000001 1.805253,2.000001 H -8.96394 c 0.992879,0 1.80523,-0.9 1.80523,-2.000001 V -4.0000021 c 0,-1.0999989 -0.812351,-1.9999989 -1.80523,-1.9999989 z m 0.902623,21.999999 c 0,0.549992 -0.406204,0.999992 -0.902623,0.999992 h -14.080807 c -0.496462,0 -0.902626,-0.45 -0.902626,-0.999992 V -4.0000021 c 0,-0.5499985 0.406164,-0.9999984 0.902626,-0.9999984 H -8.96394 c 0.496419,0 0.902623,0.4499999 0.902623,0.9999984 z"
       id="path2"
       style="fill:#d6dbf1;fill-opacity:1;stroke-width:0.475028" />
    <path
       d="m -16.010709,10.027963 c -2.557804,0 -4.638664,-2.080851 -4.638664,-4.638687 0,-0.920733 0.272897,-1.809687 0.778875,-2.566899 h -0.429478 c -0.192855,0 -0.349397,-0.156548 -0.349397,-0.349433 v -4.9755537 c 0,-0.1928743 0.156542,-0.349418 0.349397,-0.349418 h 8.577825 c 0.19326,0 0.349433,0.1565437 0.349433,0.349418 V 2.472577 c 0,0.19289 -0.156173,0.349434 -0.349433,0.349434 h -0.429441 c 0.505977,0.757578 0.778874,1.646532 0.778874,2.566931 0,2.55817 -2.08049,4.639021 -4.637991,4.639021 z m -3.939832,-7.904821 h 0.800926 c 0.139054,0 0.264837,0.08239 0.320417,0.210043 0.05548,0.127516 0.02996,0.275676 -0.06468,0.377702 -0.681394,0.732784 -1.056684,1.683921 -1.056684,2.678389 0,2.172413 1.767434,3.939832 3.939829,3.939832 2.172078,0 3.939127,-1.767754 3.939127,-3.939832 0,-0.993761 -0.375271,-1.944939 -1.056321,-2.678719 -0.09473,-0.101975 -0.119858,-0.250216 -0.06469,-0.377372 0.05548,-0.127535 0.181713,-0.210043 0.32043,-0.210043 h 0.800538 V -2.15318 h -7.878884 z"
       id="path4"
       style="fill:#d6dbf1;fill-opacity:1;stroke-width:0.349426" />
    <path
       d="m -13.178319,14.498892 h -5.368394 c -0.2208,0 -0.400006,-0.179206 -0.400006,-0.400006 0,-0.2208 0.179206,-0.399979 0.400006,-0.399979 h 5.368394 c 0.221206,0 0.400006,0.179179 0.400006,0.399979 0,0.2208 -0.1788,0.400006 -0.400006,0.400006 z"
       id="path6-3"
       style="fill:#d6dbf1;fill-opacity:1;stroke-width:0.400006" />
  </g>
  <g
     id="22-22-drive-harddisk"
     transform="translate(32,10.000001)"
     style="fill:#a8aeca;fill-opacity:1">
    <rect
       style="opacity:0.00100002;fill:#a8aeca;fill-opacity:1"
       width="22"
       height="22"
       x="0"
       y="-4.6325681e-08"
       id="rect2" />
    <path
       d="m 11.00908,8.545759 a 2.1333336,2.1333336 0 1 0 2.133328,2.133329 2.1333336,2.1333336 0 0 0 -2.133328,-2.133329 z m 0,3.2 a 1.0666666,1.0666666 0 1 1 1.066661,-1.066671 1.0666666,1.0666666 0 0 1 -1.066661,1.066671 z"
       id="path6-6"
       style="fill:#489ab1;fill-opacity:1;stroke-width:0.533336" />
    <path
       d="M 15.7407,3 H 6.353489 C 5.69157,3 5.15,3.6 5.15,4.3333332 V 17.666666 C 5.15,18.4 5.69157,19 6.353489,19 H 15.7407 c 0.661919,0 1.203488,-0.6 1.203488,-1.333334 V 4.3333332 C 16.944188,3.6 16.402619,3 15.7407,3 Z m 0.601745,14.666666 c 0,0.366661 -0.270784,0.666661 -0.601745,0.666661 H 6.353489 c -0.3309548,0 -0.601744,-0.3 -0.601744,-0.666661 V 4.3333332 c 0,-0.3666674 0.2707892,-0.6666674 0.601744,-0.6666674 H 15.7407 c 0.330961,0 0.601745,0.3 0.601745,0.6666674 z"
       id="path2-7"
       style="fill:#d6dbf1;fill-opacity:1;stroke-width:0.31669" />
    <path
       d="m 11.042872,13.68531 c -1.705229,0 -3.092472,-1.387236 -3.092472,-3.092459 0,-0.613823 0.181936,-1.206458 0.5192598,-1.7112712 H 8.18336 C 8.054765,8.8815798 7.9504,8.777205 7.9504,8.648627 V 5.331598 c 0,-0.1285858 0.1043995,-0.2329492 0.23296,-0.2329492 h 5.718551 c 0.128817,0 0.232953,0.1043614 0.232953,0.2329492 v 3.3167958 c 0,0.128591 -0.10413,0.2329554 -0.232953,0.2329554 h -0.286303 c 0.337319,0.5050438 0.519256,1.0976788 0.519256,1.7112778 0,1.705447 -1.387014,3.092683 -3.091992,3.092683 z M 8.41632,8.415439 h 0.53392 c 0.092692,0 0.1765858,0.054978 0.213614,0.1400098 0.03712,0.085022 0.02,0.183793 -0.04306,0.2518172 -0.4542624,0.48851 -0.7044694,1.122607 -0.7044694,1.785585 0,1.448276 1.1782814,2.626554 2.6265474,2.626554 1.448048,0 2.626097,-1.178503 2.626097,-2.626554 0,-0.662507 -0.250199,-1.29662 -0.704219,-1.785813 -0.06308,-0.06802 -0.07989,-0.1668 -0.04309,-0.2515892 0.03708,-0.085029 0.121136,-0.1400098 0.213614,-0.1400098 H 13.66898 V 5.5645528 H 8.4163902 Z"
       id="path4-5"
       style="fill:#d6dbf1;fill-opacity:1;stroke-width:0.232946" />
    <path
       d="M 12.931121,16.665929 H 9.35218 c -0.147201,0 -0.266659,-0.11947 -0.266659,-0.26667 0,-0.1472 0.119458,-0.266655 0.266659,-0.266655 h 3.578941 c 0.147464,0 0.266664,0.119455 0.266664,0.266655 0,0.1472 -0.1192,0.26667 -0.266664,0.26667 z"
       id="path6-3-3"
       style="fill:#d6dbf1;fill-opacity:1;stroke-width:0.266664" />
  </g>
</svg>
