<?xml version="1.0" encoding="UTF-8" standalone="no"?>
<svg
   width="32"
   height="32"
   version="1.1"
   id="svg12"
   sodipodi:docname="drive.svg"
   inkscape:version="1.1.2 (0a00cf5339, 2022-02-04)"
   xmlns:inkscape="http://www.inkscape.org/namespaces/inkscape"
   xmlns:sodipodi="http://sodipodi.sourceforge.net/DTD/sodipodi-0.dtd"
   xmlns="http://www.w3.org/2000/svg"
   xmlns:svg="http://www.w3.org/2000/svg"
   xmlns:rdf="http://www.w3.org/1999/02/22-rdf-syntax-ns#"
   xmlns:cc="http://creativecommons.org/ns#"
   xmlns:dc="http://purl.org/dc/elements/1.1/">
  <metadata
     id="metadata18">
    <rdf:RDF>
      <cc:Work
         rdf:about="">
        <dc:format>image/svg+xml</dc:format>
        <dc:type
           rdf:resource="http://purl.org/dc/dcmitype/StillImage" />
      </cc:Work>
    </rdf:RDF>
  </metadata>
  <defs
     id="defs16" />
  <sodipodi:namedview
     pagecolor="#ffffff"
     bordercolor="#666666"
     borderopacity="1"
     objecttolerance="10"
     gridtolerance="10"
     guidetolerance="10"
     inkscape:pageopacity="0"
     inkscape:pageshadow="2"
     inkscape:window-width="1920"
     inkscape:window-height="1002"
     id="namedview14"
     showgrid="false"
     inkscape:zoom="11.313709"
     inkscape:cx="19.401242"
     inkscape:cy="16.042485"
     inkscape:window-x="0"
     inkscape:window-y="0"
     inkscape:window-maximized="1"
     inkscape:current-layer="svg12"
     inkscape:document-rotation="0"
     inkscape:lockguides="false"
     showguides="false"
     inkscape:pagecheckerboard="0">
    <inkscape:grid
       type="xygrid"
       id="grid875"
       originx="0"
       originy="-4.6325683e-08" />
  </sodipodi:namedview>
  <g
     id="drive-harddisk"
     style="fill:#a8aeca;fill-opacity:1"
     transform="translate(32,10.000001)">
    <rect
       style="opacity:0.00100002;fill:#a8aeca;fill-opacity:1"
       width="32"
       height="32"
       x="-32"
       y="-10.000001"
       id="rect7" />
    <path
       d="m -16.061394,2.099999 a 3.1999994,3.1999994 0 1 0 3.200021,3.199994 3.1999994,3.1999994 0 0 0 -3.200021,-3.199994 z m 0,4.8 a 1.6000006,1.6000006 0 1 1 1.600015,-1.600006 1.6000006,1.6000006 0 0 1 -1.600015,1.600006 z"
       id="path6"
       style="fill:#489ab1;fill-opacity:1;stroke-width:0.799994" />
    <path
       d="M -8.8367311,-6.000001 H -23.163246 c -1.010204,0 -1.836754,0.9 -1.836754,1.9999989 V 15.999998 c 0,1.100001 0.82655,2.000001 1.836754,2.000001 H -8.8367311 C -7.8265264,17.999999 -7,17.099999 -7,15.999998 V -4.0000021 C -7,-5.100001 -7.8265264,-6.000001 -8.8367311,-6.000001 Z M -8,15.999998 c 0,0.549992 -0.3316497,0.999992 -0.8367311,0.999992 H -23.163246 C -23.668371,16.99999 -24,16.54999 -24,15.999998 V -4.0000021 c 0,-0.5499985 0.331629,-0.9999984 0.836754,-0.9999984 H -8.8367311 C -8.3316497,-5.0000005 -8,-4.5500006 -8,-4.0000021 Z"
       id="path2"
       style="fill:#d6dbf1;fill-opacity:1;stroke-width:0.479154"
       sodipodi:nodetypes="ssssssssssssssssss" />
    <path
       d="M -15.999635,9.999999 C -18.756886,9.999999 -21,7.8997596 -21,5.318091 c 0,-0.9293118 0.294178,-1.8265488 0.839607,-2.590816 h -0.462969 C -20.831255,2.727275 -21,2.5692683 -21,2.3745861 v -5.0219134 c 0,-0.1946714 0.168745,-0.3526737 0.376638,-0.3526737 h 9.24668 c 0.208337,0 0.376682,0.1580023 0.376682,0.3526737 v 5.021543 c 0,0.1946872 -0.168345,0.3526898 -0.376682,0.3526898 h -0.462924 C -11.294178,3.4915422 -11,4.3887792 -11,5.3177539 c 0,2.5820057 -2.242715,4.6822451 -4.999635,4.6822451 z m -4.000365,-8 h 0.616701 c 0.149897,0 0.285489,0.1046838 0.345402,0.2335259 0.05982,0.1287042 0.03227,0.2782446 -0.06974,0.3812213 -0.734528,0.7396117 -1.13908,1.6996109 -1.13908,2.7033448 0,2.1926545 1.905247,3.9765414 4.247035,3.9765414 2.341447,0 4.246279,-1.784225 4.246279,-3.9765414 0,-1.0030203 -0.40453,-1.9630609 -1.138688,-2.7036779 -0.102103,-0.1029252 -0.129203,-0.2525474 -0.06975,-0.3808882 0.05982,-0.1287233 0.195883,-0.2335259 0.345415,-0.2335259 H -12 v -4 h -8 z"
       id="path4"
       style="fill:#d6dbf1;fill-opacity:1;stroke-width:0.36448"
       sodipodi:nodetypes="sscsssssssscsscsccsssccscccc" />
    <path
       d="m -13.389085,15 h -5.22183 C -18.825687,15 -19,14.775988 -19,14.499983 -19,14.223978 -18.825687,14 -18.610915,14 h 5.22183 C -13.173919,14 -13,14.223978 -13,14.499983 -13,14.775988 -13.173919,15 -13.389085,15 Z"
       id="path6-3"
       style="fill:#d6dbf1;fill-opacity:1;stroke-width:0.441077" />
  </g>
  <g
     id="22-22-drive-harddisk"
     style="fill:#a8aeca;fill-opacity:1"
     transform="translate(32,10.000001)">
    <rect
       style="opacity:0.00100002;fill:#a8aeca;fill-opacity:1"
       width="22"
       height="22"
       x="0"
       y="-4.6325681e-08"
       id="rect2" />
    <path
       d="m 11.00908,8.545759 a 2.1333336,2.1333336 0 1 0 2.133328,2.133329 2.1333336,2.1333336 0 0 0 -2.133328,-2.133329 z m 0,3.2 a 1.0666666,1.0666666 0 1 1 1.066661,-1.066671 1.0666666,1.0666666 0 0 1 -1.066661,1.066671 z"
       id="path6-6"
       style="fill:#489ab1;fill-opacity:1;stroke-width:0.533336" />
    <path
       d="M 15.775511,3 H 6.2244903 C 5.5510205,3 5,3.6 5,4.3333332 V 17.666666 C 5,18.4 5.5510205,19 6.2244903,19 H 15.775511 C 16.44898,19 17,18.4 17,17.666666 V 4.3333332 C 17,3.6 16.44898,3 15.775511,3 Z M 16,17.666666 C 16,17.999999 15.775511,18 15.775511,18 H 6.2244903 C 6.2244903,18 6,17.999999 6,17.666666 V 4.3333332 C 6,3.999999 6.2244903,4 6.2244903,4 H 15.775511 C 15.775511,4 16,3.999999 16,4.3333332 Z"
       id="path2-7"
       style="fill:#d6dbf1;fill-opacity:1;stroke-width:0.319441"
       sodipodi:nodetypes="ssssssssssccssccss" />
    <path
       d="M 11.000233,13.68531 C 9.3458657,13.68531 8,12.298074 8,10.592851 8,9.979028 8.1765094,9.386393 8.5037718,8.8815798 H 8.2260115 C 8.1012521,8.8815798 8,8.777205 8,8.648627 V 5.331598 C 8,5.2030122 8.1012856,5 8.2260115,5 H 13.773995 C 13.89897,5 14,5.2030104 14,5.3315982 V 8.648394 c 0,0.128591 -0.101024,0.2329554 -0.226005,0.2329554 H 13.496232 C 13.823489,9.3863932 14,9.9790282 14,10.592627 14,12.298074 12.654356,13.68531 11.000233,13.68531 Z M 8.452023,8.415439 h 0.5179948 c 0.089927,0 0.1713188,0.054978 0.2072426,0.1400098 0.036013,0.085022 0.019403,0.183793 -0.041776,0.2518172 -0.4407131,0.48851 -0.6834571,1.122607 -0.6834571,1.785585 0,1.448276 1.1431368,2.626554 2.5482057,2.626554 1.404857,0 2.547768,-1.178503 2.547768,-2.626554 0,-0.662507 -0.242736,-1.29662 -0.683214,-1.785813 -0.06119,-0.06802 -0.07751,-0.1668 -0.04181,-0.2515892 C 12.858957,8.4704198 12.9405,8.415439 13.03022,8.415439 h 0.517787 V 5.5645528 H 8.4520911 Z"
       id="path4-5"
       style="fill:#d6dbf1;fill-opacity:1;stroke-width:0.229445"
       sodipodi:nodetypes="sscsssssssscsscsccsssccscccc" />
    <path
       d="M 12.740616,17 H 9.2593793 C 9.1161968,17 9,16.77599 9,16.499987 9,16.223981 9.1161968,16 9.2593793,16 H 12.740616 C 12.884054,16 13,16.223981 13,16.499987 13,16.77599 12.884054,17 12.740616,17 Z"
       id="path6-3-3"
       style="fill:#d6dbf1;fill-opacity:1;stroke-width:0.360127" />
  </g>
</svg>
