<?xml version="1.0" encoding="UTF-8" standalone="no"?>
<svg
   sodipodi:docname="kdeconnect.svg"
   height="31.999973"
   width="32.000015"
   inkscape:version="1.1.2 (0a00cf5339, 2022-02-04)"
   version="1.1"
   id="svg"
   viewBox="0 0 32.000012 31.999973"
   xmlns:inkscape="http://www.inkscape.org/namespaces/inkscape"
   xmlns:sodipodi="http://sodipodi.sourceforge.net/DTD/sodipodi-0.dtd"
   xmlns="http://www.w3.org/2000/svg"
   xmlns:svg="http://www.w3.org/2000/svg"
   xmlns:rdf="http://www.w3.org/1999/02/22-rdf-syntax-ns#"
   xmlns:cc="http://creativecommons.org/ns#"
   xmlns:dc="http://purl.org/dc/elements/1.1/">
  <style
     id="current-color-scheme"
     type="text/css">.ColorScheme-Text { color:#d6dbf1; }
</style>
  <g
     id="22-22-kdeconnect"
     transform="translate(5,37.966368)">
    <rect
       style="fill:#000000;fill-opacity:0;stroke:none"
       id="rect3841"
       width="22"
       height="22"
       x="0"
       y="0" />
    <path
       d="m 6,4.9775867 c -0.1235383,0 -0.3,0.08126 -0.3,0.181454 v 0.356276 c 0,0.101702 0.17739,0.181454 0.3,0.181454 v 0.53923 c -0.1235383,0 -0.3,0.07976 -0.3,0.178196 v 0.722441 c 0,0.09694 0.17739,0.178071 0.3,0.178071 v 0.359518 c -0.1235383,0 -0.3,0.07976 -0.3,0.178196 v 0.722313 c 0,0.09706 0.17739,0.178196 0.3,0.178196 V 18.101251 C 6,18.597079 6.3858751,19 7,19 h 7.887823 C 15.501674,19 16,18.597592 16,18.101251 V 3.978 C 16,3.482301 15.627522,3 15.042953,3 h -0.376332 c 0,-0.09995 -0.09904,-0.4 -0.221198,-0.4 H 12.665598 C 12.545625,2.6 12.444402,2.900679 12.444402,3 H 7.3345179 C 6.7206763,3 6,3.5821087 6,4.0784497 Z m 4.333211,13.0337163 c 0,-0.34748 0.349086,-0.629149 0.777862,-0.629149 0.429518,0 0.777692,0.282404 0.777692,0.629149 0,0.34748 -0.349086,0.629278 -0.777692,0.629278 -0.429689,0 -0.777862,-0.282405 -0.777862,-0.629278 z M 7,4 h 8 V 17 H 7 Z"
       fill-rule="evenodd"
       id="path76-5"
       style="fill:currentColor;fill-opacity:1;stroke-width:0.0356918"
       sodipodi:nodetypes="cssccssccsscsssssscsscsccsssssccccc"
       class="ColorScheme-Text" />
    <path
       style="fill:currentColor;fill-opacity:1;stroke-width:0.374543"
       d="m 11.377933,7.9333417 -1.129909,0.1967117 v 3.8888516 l 1.124055,-0.144789 -0.0058,-1.752838 1.326029,1.940037 1.302611,-0.187199 L 12.496145,9.866067 14,8.1812422 12.681291,7.9384581 11.366239,9.6232892 Z M 9.0017663,8.9263932 c -0.010871,7.04e-4 -0.021075,0.0056 -0.029287,0.01387 L 8.5846242,9.3322227 c -0.016859,0.01694 -0.019667,0.04338 -0.00647,0.063623 l 0.4683547,0.7188333 c -0.088344,0.15668 -0.155104,0.328474 -0.1983159,0.508226 L 8.0395553,10.821078 C 8.0171444,10.826585 8,10.84684 8,10.870092 v 0.25521 0.255211 c 0,0.02325 0.017102,0.04352 0.039554,0.04903 l 0.8086364,0.198169 c 0.043201,0.179755 0.1099651,0.351549 0.1983219,0.508231 L 8.578159,12.854767 c -0.013086,0.02025 -0.010277,0.04669 0.00647,0.06362 l 0.3878583,0.391957 c 0.016328,0.01654 0.04175,0.01785 0.061436,0.0058 l 0.7339958,-0.449723 c 0.1439999,0.08383 0.3692569,0.151274 0.5334879,0.195976 l 0.171976,0.829977 c 0.0051,0.02395 0.02385,0.04093 0.04754,0.04093 h 0.289058 0.289064 c 0.02378,0 0.04277,-0.01694 0.04754,-0.04093 l 0.171975,-0.829977 c 0.164231,-0.04473 0.389485,-0.112151 0.533487,-0.195979 l 0.734002,0.449725 c 0.01977,0.01197 0.04508,0.01066 0.06142,-0.0058 l 0.387863,-0.391958 c 0.01686,-0.01694 0.01969,-0.04338 0.0065,-0.06362 l -0.39005,-0.598899 -0.0483,0.007 -0.273698,-0.400734 c -0.279536,0.585556 -0.870705,0.958712 -1.519954,0.959416 -0.9311999,0 -1.6860819,-0.754321 -1.6860819,-1.684826 6.791e-4,-0.639535 0.3633877,-1.2236285 0.9367059,-1.5078645 V 9.2611542 C 9.9535839,9.296741 9.8485712,9.336934 9.7677373,9.3840095 L 9.0338554,8.9343078 c -0.00984,-0.00603 -0.021308,-0.0089 -0.032223,-0.00793 z"
       class="ColorScheme-Text"
       id="path10-0" />
  </g>
  <defs
     id="defs81">
    <style
       type="text/css"
       id="style7" />
    <style
       id="current-color-scheme-9"
       type="text/css" />
    <linearGradient
       id="oomox"
       x1="448.98987"
       x2="448.98987"
       y1="94.879333"
       y2="107.52991"
       gradientTransform="matrix(1.1859917,0,0,1.8971464,-523.99826,-176)"
       gradientUnits="userSpaceOnUse">
      <stop
         offset="0%"
         style="stop-color:#303b3d; stop-opacity:1"
         id="stop18" />
      <stop
         offset="100%"
         style="stop-color:#bc985d; stop-opacity:1"
         id="stop20" />
    </linearGradient>
    <linearGradient
       id="oomox-3"
       x1="0"
       x2="0"
       y1="0"
       y2="1">
      <stop
         offset="0%"
         style="stop-color:#303b3d; stop-opacity:1"
         id="stop18-6" />
      <stop
         offset="100%"
         style="stop-color:#bc985d; stop-opacity:1"
         id="stop20-7" />
    </linearGradient>
  </defs>
  <metadata
     id="metadata34">
    <rdf:RDF>
      <cc:Work
         rdf:about="">
        <dc:format>image/svg+xml</dc:format>
        <dc:type
           rdf:resource="http://purl.org/dc/dcmitype/StillImage" />
      </cc:Work>
    </rdf:RDF>
  </metadata>
  <sodipodi:namedview
     inkscape:document-rotation="0"
     fit-margin-bottom="0"
     fit-margin-right="0"
     fit-margin-left="0"
     fit-margin-top="0"
     inkscape:snap-bbox-midpoints="true"
     inkscape:snap-bbox="true"
     inkscape:guide-bbox="true"
     showguides="false"
     borderlayer="false"
     inkscape:current-layer="svg"
     inkscape:window-maximized="1"
     inkscape:window-y="0"
     inkscape:window-x="0"
     inkscape:cy="28"
     inkscape:cx="26.125"
     inkscape:zoom="8"
     showgrid="false"
     id="namedview32"
     inkscape:window-height="1009"
     inkscape:window-width="1920"
     inkscape:pageshadow="2"
     inkscape:pageopacity="0.11372549"
     guidetolerance="10"
     gridtolerance="10"
     objecttolerance="10"
     borderopacity="1"
     bordercolor="#000000"
     pagecolor="#ffffff"
     inkscape:lockguides="false"
     inkscape:showpageshadow="false"
     inkscape:pagecheckerboard="0">
    <inkscape:grid
       type="xygrid"
       id="grid3688"
       originx="4.9999995"
       originy="37.966368" />
  </sodipodi:namedview>
  <g
     id="kdeconnect">
    <rect
       width="32.000015"
       height="31.999973"
       rx="0"
       ry="0"
       x="-4.4677737e-09"
       y="9.5214844e-08"
       id="rect3860"
       style="opacity:0.01;fill:#a8aeca;fill-opacity:1;stroke:none" />
    <path
       d="m 9,6.9663675 c -0.1890129,0 -0.3,0.121887 -0.3,0.272181 v 0.534415 C 8.7,7.9255155 8.8124047,8 9,8 v 0.8539895 c -0.1890129,0 -0.3,0.119634 -0.3,0.267294 v 1.0836595 c 0,0.145403 0.1124047,0.267107 0.3,0.267107 v 0.539277 c -0.1890129,0 -0.3,0.119634 -0.3,0.267294 v 1.083469 c 0,0.145589 0.1124047,0.267294 0.3,0.267294 v 14.022479 c 0,0.743741 0.8018808,1.348123 1.741487,1.348123 H 22.29837 C 23.237564,27.999986 24,27.396374 24,26.651863 V 5.218 C 24,4.4744525 23.49963,4 22.798,4 h -0.838071 c 0,-0.149918 -0.151526,-0.5 -0.338432,-0.5 h -2.723132 c -0.18356,0 -0.33843,0.351021 -0.33843,0.5 H 10.342 C 9.4028284,4 9,4.4734895 9,5.218 Z M 15.329813,26.51694 c 0,-0.52122 0.534102,-0.943724 1.190131,-0.943724 0.65716,0 1.189868,0.423607 1.189868,0.943724 0,0.52122 -0.534103,0.943917 -1.189868,0.943917 -0.657424,0 -1.190131,-0.423607 -1.190131,-0.943917 z M 10,6 H 23 V 25 H 10 Z m 4.989774,-0.7863461 c 0,-0.07449 0.07552,-0.1348695 0.17336,-0.1348695 h 2.713356 c 0.09594,0 0.17336,0.06264 0.17336,0.1348695 0,0.07449 -0.07552,0.1348702 -0.17336,0.1348702 h -2.713356 c -0.09554,0 -0.17336,-0.06264 -0.17336,-0.1348702 z"
       fill-rule="evenodd"
       id="path76"
       style="fill:currentColor;fill-opacity:1;stroke-width:0.0540706"
       sodipodi:nodetypes="cssccssccsscsssssscsscsccssssscccccsssssss"
       class="ColorScheme-Text" />
    <path
       style="fill:currentColor;fill-opacity:1;stroke-width:0.530408"
       d="m 16.78191,11.4 -1.599518,0.278674 v 5.509201 l 1.591231,-0.205119 -0.0083,-2.483183 1.877148,2.748384 1.843997,-0.265201 -2.12163,-2.844731 2.128881,-2.386833 -1.866786,-0.343945 -1.86161,2.386842 z m -3.363739,1.406821 c -0.01539,9.97e-4 -0.02984,0.008 -0.04146,0.01965 l -0.549054,0.555274 c -0.02387,0.024 -0.02784,0.06145 -0.0092,0.09014 l 0.663011,1.018342 c -0.125077,0.221964 -0.219576,0.465339 -0.280748,0.719988 L 12.056,15.49096 C 12.02428,15.49876 12,15.52746 12,15.5604 v 0.361548 0.361548 c 0,0.03292 0.02421,0.06163 0.056,0.06945 l 1.144719,0.280739 c 0.06115,0.254652 0.155669,0.498029 0.280748,0.719991 l -0.66301,1.018337 c -0.01853,0.02868 -0.01453,0.06613 0.0092,0.09013 l 0.549058,0.555273 c 0.02311,0.02341 0.0591,0.02528 0.08697,0.0083 l 1.03906,-0.637107 c 0.203848,0.118758 0.522723,0.214305 0.755211,0.277635 l 0.243454,1.175798 c 0.0072,0.03393 0.03376,0.058 0.0673,0.058 h 0.409199 0.409203 c 0.03366,0 0.06055,-0.02402 0.06731,-0.058 l 0.243452,-1.175798 c 0.23249,-0.06335 0.55136,-0.158884 0.755212,-0.27764 l 1.039064,0.63711 c 0.02797,0.01695 0.06383,0.01509 0.08696,-0.0083 l 0.549063,-0.555274 c 0.02387,-0.02401 0.02785,-0.06145 0.0093,-0.09013 l -0.552163,-0.848441 -0.06838,0.01011 -0.38745,-0.567705 c -0.395715,0.829537 -1.232584,1.358173 -2.151672,1.35917 -1.318213,0 -2.386837,-1.06862 -2.386837,-2.386833 9.62e-4,-0.906007 0.514418,-1.733472 1.326017,-2.136139 v -0.521038 c -0.151291,0.05041 -0.299948,0.107355 -0.414378,0.174045 l -1.039002,-0.637076 c -0.01401,-0.0085 -0.03017,-0.01267 -0.04562,-0.0113 z"
       class="ColorScheme-Text "
       id="path10" />
  </g>
</svg>
