<?xml version="1.0" encoding="UTF-8" standalone="no"?>
<svg
   width="32"
   height="32"
   version="1.1"
   id="svg12"
   sodipodi:docname="keyboard.svg"
   inkscape:version="1.1.2 (0a00cf5339, 2022-02-04)"
   xmlns:inkscape="http://www.inkscape.org/namespaces/inkscape"
   xmlns:sodipodi="http://sodipodi.sourceforge.net/DTD/sodipodi-0.dtd"
   xmlns="http://www.w3.org/2000/svg"
   xmlns:svg="http://www.w3.org/2000/svg"
   xmlns:rdf="http://www.w3.org/1999/02/22-rdf-syntax-ns#"
   xmlns:cc="http://creativecommons.org/ns#"
   xmlns:dc="http://purl.org/dc/elements/1.1/">
  <g
     id="22-22-keyboard-layout"
     transform="translate(32,10)">
    <rect
       style="opacity:0.00100002;fill:#d6dbf1;fill-opacity:1"
       width="22"
       height="22"
       x="0"
       y="0"
       id="rect2" />
    <path
       d="m 19.683161,9.1711708 h -1.133593 c -0.130257,0 -0.23589,0.09977 -0.23589,0.222497 v 1.0683952 c 0,0.122847 0.105529,0.222622 0.23589,0.222622 h 1.13346 c 0.130244,0 0.235891,-0.09976 0.235891,-0.222622 V 9.3936678 c 1.32e-4,-0.12298 -0.105522,-0.222497 -0.235763,-0.222497 z m -0.23628,0.445263 z"
       id="path98-2-5-3-5-29"
       style="fill:#d6dbf1;fill-opacity:1;stroke-width:0.0320314"
       sodipodi:nodetypes="csssssscccccccc" />
    <path
       d="m 16.472678,9.1711708 h -1.133594 c -0.130241,0 -0.235891,0.09977 -0.235891,0.222497 v 1.0683952 c 0,0.122847 0.105529,0.222622 0.235891,0.222622 h 1.13346 c 0.130255,0 0.235891,-0.09977 0.235891,-0.222622 V 9.3936678 c 1.33e-4,-0.12298 -0.105518,-0.222497 -0.235761,-0.222497 z m -0.236281,0.445263 z"
       id="path98-2-5-6-3"
       style="fill:#d6dbf1;fill-opacity:1;stroke-width:0.0320314"
       sodipodi:nodetypes="csssssscccccccc" />
    <path
       d="m 13.262193,9.1711708 h -1.133592 c -0.130255,0 -0.235892,0.09977 -0.235892,0.222497 v 1.0683952 c 0,0.122847 0.10553,0.222622 0.235892,0.222622 h 1.133458 c 0.130245,0 0.235892,-0.09977 0.235892,-0.222622 V 9.3936678 c 1.32e-4,-0.12298 -0.105518,-0.222497 -0.235762,-0.222497 z m -0.236279,0.445263 z"
       id="path98-2-7-2-1"
       style="fill:#d6dbf1;fill-opacity:1;stroke-width:0.0320314"
       sodipodi:nodetypes="csssssscccccccc" />
    <path
       d="M 10.05171,9.1711708 H 8.918118 c -0.130243,0 -0.235891,0.09977 -0.235891,0.222497 v 1.0683952 c 0,0.122847 0.105519,0.222622 0.235891,0.222622 h 1.133461 c 0.130255,0 0.235892,-0.09977 0.235892,-0.222622 V 9.3936678 c 1.29e-4,-0.12298 -0.105522,-0.222497 -0.235765,-0.222497 z m -0.23628,0.445263 z"
       id="path98-2-6-9-9"
       style="fill:#d6dbf1;fill-opacity:1;stroke-width:0.0320314"
       sodipodi:nodetypes="csssssscccccccc" />
    <path
       d="M 6.841227,9.1711708 H 5.707636 c -0.130257,0 -0.235891,0.09977 -0.235891,0.222497 v 1.0683952 c 0,0.122847 0.105517,0.222622 0.235891,0.222622 h 1.133459 c 0.130244,0 0.235891,-0.09977 0.235891,-0.222622 V 9.3936678 c 1.3e-4,-0.12298 -0.105515,-0.222497 -0.235763,-0.222497 z m -0.23628,0.445263 z"
       id="path98-2-3-1-4"
       style="fill:#d6dbf1;fill-opacity:1;stroke-width:0.0320314"
       sodipodi:nodetypes="csssssscccccccc" />
    <path
       d="M 3.630744,9.1711708 H 2.497152 c -0.130243,0 -0.235891,0.09977 -0.235891,0.222497 v 1.0683952 c 0,0.122851 0.105516,0.222622 0.235891,0.222622 h 1.13346 c 0.130256,0 0.235891,-0.09977 0.235891,-0.222622 V 9.3936678 c 1.31e-4,-0.12298 -0.105516,-0.222497 -0.235762,-0.222497 z m -0.23628,0.445263 z"
       id="path98-2-2-7"
       style="fill:#d6dbf1;fill-opacity:1;stroke-width:0.0320314"
       sodipodi:nodetypes="csssssscccccccc" />
    <path
       d="m 19.683161,12.198198 h -1.133593 c -0.130257,0 -0.23589,0.09977 -0.23589,0.222496 v 1.068396 c 0,0.122847 0.105529,0.22262 0.23589,0.22262 h 1.13346 c 0.130244,0 0.235891,-0.09976 0.235891,-0.22262 v -1.068396 c 1.32e-4,-0.122979 -0.105522,-0.222496 -0.235763,-0.222496 z m -0.23628,0.445265 z"
       id="path98-2-5-3-8"
       style="fill:#d6dbf1;fill-opacity:1;stroke-width:0.0320314"
       sodipodi:nodetypes="csssssscccccccc" />
    <path
       d="m 16.472678,12.198198 h -1.133594 c -0.130241,0 -0.235891,0.09977 -0.235891,0.222496 v 1.068396 c 0,0.122847 0.105529,0.22262 0.235891,0.22262 h 1.13346 c 0.130255,0 0.235891,-0.09976 0.235891,-0.22262 v -1.068396 c 1.33e-4,-0.122976 -0.105518,-0.222496 -0.235761,-0.222496 z m -0.236281,0.445265 z"
       id="path98-2-5-4"
       style="fill:#d6dbf1;fill-opacity:1;stroke-width:0.0320314"
       sodipodi:nodetypes="csssssscccccccc" />
    <path
       d="m 13.262193,12.198198 h -1.133592 c -0.130255,0 -0.235892,0.09977 -0.235892,0.222496 v 1.068396 c 0,0.122847 0.10553,0.22262 0.235892,0.22262 h 1.133458 c 0.130245,0 0.235892,-0.09976 0.235892,-0.22262 v -1.068396 c 1.32e-4,-0.122976 -0.105518,-0.222496 -0.235762,-0.222496 z m -0.236279,0.445265 z"
       id="path98-2-7-5"
       style="fill:#d6dbf1;fill-opacity:1;stroke-width:0.0320314"
       sodipodi:nodetypes="csssssscccccccc" />
    <path
       d="M 10.05171,12.198198 H 8.918118 c -0.130243,0 -0.235891,0.09977 -0.235891,0.222496 v 1.068396 c 0,0.122847 0.105519,0.22262 0.235891,0.22262 h 1.133461 c 0.130255,0 0.235892,-0.09976 0.235892,-0.22262 v -1.068396 c 1.29e-4,-0.122976 -0.105522,-0.222496 -0.235765,-0.222496 z m -0.23628,0.445265 z"
       id="path98-2-6-0"
       style="fill:#d6dbf1;fill-opacity:1;stroke-width:0.0320314"
       sodipodi:nodetypes="csssssscccccccc" />
    <path
       d="M 6.841227,12.198198 H 5.707636 c -0.130257,0 -0.235891,0.09977 -0.235891,0.222496 v 1.068396 c 0,0.122847 0.105517,0.22262 0.235891,0.22262 h 1.133459 c 0.130244,0 0.235891,-0.09976 0.235891,-0.22262 v -1.068396 c 1.3e-4,-0.122979 -0.105515,-0.222496 -0.235763,-0.222496 z m -0.23628,0.445265 z"
       id="path98-2-3-3-3"
       style="fill:#d6dbf1;fill-opacity:1;stroke-width:0.0320314"
       sodipodi:nodetypes="csssssscccccccc" />
    <path
       d="m 16.472492,15.225225 h -1.13296 c -0.1308,0 -0.236339,0.09982 -0.236339,0.222735 v 1.068164 c 0,0.122922 0.105557,0.222615 0.236339,0.222615 h 1.13296 c 0.130281,0 0.235943,-0.09958 0.235943,-0.222615 V 15.44796 c 0,-0.122922 -0.105668,-0.222735 -0.235943,-0.222735 z m -0.235944,0.445572 z"
       id="path68-6-6"
       style="fill:#d6dbf1;fill-opacity:1;stroke-width:0.0320428"
       sodipodi:nodetypes="sssssssssccccc" />
    <path
       d="m 19.68269,15.225225 h -1.132793 c -0.130733,0 -0.236219,0.09982 -0.236219,0.222735 v 1.068164 c 0,0.122922 0.105504,0.222615 0.236219,0.222615 h 1.132793 c 0.13022,0 0.236229,-0.09957 0.236229,-0.222615 V 15.44796 c 1.32e-4,-0.122924 -0.106126,-0.222735 -0.236229,-0.222735 z m -0.235841,0.445572 z"
       id="path74-7-1"
       style="fill:#d6dbf1;fill-opacity:1;stroke-width:0.032035"
       sodipodi:nodetypes="ssssssscsccccc" />
    <path
       d="m 13.262003,15.225225 h -1.133345 c -0.130279,0 -0.235949,0.09982 -0.235949,0.222735 v 1.068164 c 0,0.122922 0.105555,0.222615 0.235949,0.222615 h 1.133345 c 0.130284,0 0.235948,-0.09958 0.235948,-0.222615 V 15.44796 c 0,-0.122922 -0.105546,-0.222735 -0.235948,-0.222735 z m -0.236332,0.445572 z"
       id="path80-5-0"
       style="fill:#d6dbf1;fill-opacity:1;stroke-width:0.0320431"
       sodipodi:nodetypes="sssssssssccccc" />
    <path
       d="M 10.839899,15.225225 H 4.91932 c -0.138464,0 -0.250196,0.09982 -0.250196,0.222735 v 1.068164 c 0,0.122922 0.111723,0.222615 0.250196,0.222615 h 5.920579 c 0.137921,0 0.250192,-0.09958 0.250192,-0.222615 V 15.44796 c 0,-0.122922 -0.112113,-0.222735 -0.250192,-0.222735 z m -0.249785,1.068425 z"
       id="path94-5-3-6"
       style="fill:#d6dbf1;fill-opacity:1;stroke-width:0.032969"
       sodipodi:nodetypes="sssssssssccccc" />
    <path
       d="M 3.630744,12.198198 H 2.497152 c -0.130243,0 -0.235891,0.09977 -0.235891,0.222496 v 1.068396 c 0,0.122847 0.105517,0.22262 0.235891,0.22262 h 1.13346 c 0.130256,0 0.235891,-0.09976 0.235891,-0.22262 V 12.420694 C 3.866634,12.297715 3.760987,12.198198 3.630741,12.198198 Z m -0.23628,0.445265 z"
       id="path98-2-56-3"
       style="fill:#d6dbf1;fill-opacity:1;stroke-width:0.0320314"
       sodipodi:nodetypes="csssssscccccccc" />
    <path
       d="M 3.630744,15.225225 H 2.497152 c -0.130243,0 -0.235891,0.09982 -0.235891,0.222735 v 1.068164 c 0,0.122925 0.105516,0.222615 0.235891,0.222615 h 1.13346 c 0.130256,0 0.235891,-0.09958 0.235891,-0.222615 V 15.44796 C 3.866634,15.325036 3.760988,15.225225 3.630741,15.225225 Z m -0.236279,0.445572 z"
       id="path100-9-2-2"
       style="fill:#d6dbf1;fill-opacity:1;stroke-width:0.0320389"
       sodipodi:nodetypes="csssssscccccccc" />
    <path
       d="m 20.077129,7.1111098 h -4.230433 v -7.77e-4 c 0,7.77e-4 -0.259583,-0.345044 -0.588562,-0.37538 -0.02972,-0.11293 -0.382754,-1.401204 -1.377172,-1.858918 -0.542252,-0.250184 -1.155034,-0.204665 -1.818337,0.137265 0,2.91e-4 -0.0014,0 -0.0014,2.91e-4 -0.01211,0.0063 -1.246387,0.629047 -2.213199,0.254051 -0.435249,-0.16861 -0.748054,-0.5111 -0.955125,-1.046419 -0.06955,-0.179476 -0.268449,-0.267355 -0.446395,-0.196939 -0.176525,0.07103 -0.263243,0.273802 -0.194122,0.453569 0.27957,0.719215 0.734694,1.205402 1.353925,1.444593 0.307868,0.118653 0.627266,0.163874 0.935277,0.163874 0.946416,0 1.784574,-0.424956 1.829874,-0.448844 0.467765,-0.240738 0.879673,-0.283959 1.223577,-0.125239 0.538722,0.246901 0.831526,0.913999 0.945009,1.234456 -0.299,0.05595 -0.528454,0.364415 -0.528454,0.364415 v 0 H 2.104475 C 1.495082,7.1111088 1,7.6430328 1,8.2622208 V 16.879023 C 1,17.496884 1.495082,18 2.104475,18 h 17.972213 c 0.608949,1e-6 1.103492,-0.503072 1.103492,-1.120976 V 8.2622228 c 1.44e-4,-0.619158 -0.494398,-1.151113 -1.103359,-1.151113 z m -5.550123,0.232552 c 0,-0.05177 0.06122,-0.09604 0.133169,-0.09604 H 15.1989 c 0.07137,0 0.132606,0.0442 0.132606,0.09604 v 0.106345 h -0.804212 v -0.106345 z m 5.877012,9.5353002 c 0,0.232868 -0.09745,0.343257 -0.326927,0.34326 l -17.972214,3.25e-4 c -0.229458,4e-6 -0.328726,-0.110839 -0.328726,-0.343585 V 8.4169998 c 0,-0.233587 0.09965,-0.528111 0.329093,-0.528111 h 17.816779 c 0.229455,0 0.481995,0.294548 0.481995,0.528111 z"
       id="path102-1-9-0"
       style="fill:#d6dbf1;fill-opacity:1;stroke-width:0.0363376"
       sodipodi:nodetypes="ccccccccccccscccsccsssssccccssscccccssccsscc" />
  </g>
  <g
     id="keyboard-layout">
    <rect
       style="opacity:0.00100002;fill:#d6dbf1;fill-opacity:1"
       width="32"
       height="32"
       x="0"
       y="0"
       id="rect7" />
    <path
       d="M 26.706264,13 H 25.293901 C 25.131621,13 25,13.131831 25,13.294013 v 1.411808 C 25,14.868159 25.131461,15 25.293901,15 h 1.412198 C 26.868379,15 27,14.868159 27,14.705821 V 13.294013 C 27.000163,13.131505 26.868539,13 26.706259,13 Z m -0.294386,0.588384 z"
       id="path98-2-5-3-5-3"
       style="fill:#d6dbf1;fill-opacity:1;stroke-width:0.0410998"
       sodipodi:nodetypes="csssssscccccccc" />
    <path
       d="M 22.706264,13 H 21.293901 C 21.131621,13 21,13.131831 21,13.294013 v 1.411808 C 21,14.868159 21.131461,15 21.293901,15 h 1.412198 C 22.868379,15 23,14.868159 23,14.705821 V 13.294013 C 23.000163,13.131505 22.868539,13 22.706259,13 Z m -0.294386,0.588384 z"
       id="path98-2-5-6-6"
       style="fill:#d6dbf1;fill-opacity:1;stroke-width:0.0410998"
       sodipodi:nodetypes="csssssscccccccc" />
    <path
       d="M 18.706264,13 H 17.293901 C 17.131621,13 17,13.131831 17,13.294013 v 1.411808 C 17,14.868159 17.131461,15 17.293901,15 h 1.412198 C 18.868379,15 19,14.868159 19,14.705821 V 13.294013 C 19.000163,13.131505 18.868539,13 18.706259,13 Z m -0.294386,0.588384 z"
       id="path98-2-7-2-7"
       style="fill:#d6dbf1;fill-opacity:1;stroke-width:0.0410998"
       sodipodi:nodetypes="csssssscccccccc" />
    <path
       d="M 14.706264,13 H 13.293901 C 13.131621,13 13,13.131831 13,13.294013 v 1.411808 C 13,14.868159 13.131461,15 13.293901,15 h 1.412198 C 14.868379,15 15,14.868159 15,14.705821 V 13.294013 C 15.000164,13.131505 14.868539,13 14.706259,13 Z m -0.294386,0.588384 z"
       id="path98-2-6-9-5"
       style="fill:#d6dbf1;fill-opacity:1;stroke-width:0.0410998"
       sodipodi:nodetypes="csssssscccccccc" />
    <path
       d="M 10.706264,13 H 9.293901 C 9.131621,13 9,13.131831 9,13.294013 v 1.411808 C 9,14.868159 9.131461,15 9.293901,15 h 1.412198 C 10.868379,15 11,14.868159 11,14.705821 V 13.294013 C 11.000163,13.131505 10.868539,13 10.706259,13 Z m -0.294386,0.588384 z"
       id="path98-2-3-1-3"
       style="fill:#d6dbf1;fill-opacity:1;stroke-width:0.0410998"
       sodipodi:nodetypes="csssssscccccccc" />
    <path
       d="M 6.706264,13 H 5.293901 C 5.131621,13 5,13.131831 5,13.294013 v 1.411808 C 5,14.868159 5.131461,15 5.293901,15 H 6.706099 C 6.868379,15 7,14.868159 7,14.705821 V 13.294013 C 7.000163,13.131505 6.868539,13 6.706259,13 Z m -0.294386,0.588384 z"
       id="path98-2-2-5"
       style="fill:#d6dbf1;fill-opacity:1;stroke-width:0.0410998"
       sodipodi:nodetypes="csssssscccccccc" />
    <path
       d="M 26.706264,17 H 25.293901 C 25.131621,17 25,17.131831 25,17.294013 v 1.411808 C 25,18.868159 25.131461,19 25.293901,19 h 1.412198 C 26.868379,19 27,18.868159 27,18.705821 V 17.294013 C 27.000163,17.131505 26.868539,17 26.706259,17 Z m -0.294386,0.588384 z"
       id="path98-2-5-3-6"
       style="fill:#d6dbf1;fill-opacity:1;stroke-width:0.0410998"
       sodipodi:nodetypes="csssssscccccccc" />
    <path
       d="M 22.706264,17 H 21.293901 C 21.131621,17 21,17.131831 21,17.294013 v 1.411808 C 21,18.868159 21.131461,19 21.293901,19 h 1.412198 C 22.868379,19 23,18.868159 23,18.705821 V 17.294013 C 23.000163,17.131505 22.868539,17 22.706259,17 Z m -0.294386,0.588384 z"
       id="path98-2-5-2"
       style="fill:#d6dbf1;fill-opacity:1;stroke-width:0.0410998"
       sodipodi:nodetypes="csssssscccccccc" />
    <path
       d="M 18.706264,17 H 17.293901 C 17.131621,17 17,17.131831 17,17.294013 v 1.411808 C 17,18.868159 17.131461,19 17.293901,19 h 1.412198 C 18.868379,19 19,18.868159 19,18.705821 V 17.294013 C 19.000163,17.131505 18.868539,17 18.706259,17 Z m -0.294386,0.588384 z"
       id="path98-2-7-9"
       style="fill:#d6dbf1;fill-opacity:1;stroke-width:0.0410998"
       sodipodi:nodetypes="csssssscccccccc" />
    <path
       d="M 14.706264,17 H 13.293901 C 13.131621,17 13,17.131831 13,17.294013 v 1.411808 C 13,18.868159 13.131461,19 13.293901,19 h 1.412198 C 14.868379,19 15,18.868159 15,18.705821 V 17.294013 C 15.000164,17.131505 14.868539,17 14.706259,17 Z m -0.294386,0.588384 z"
       id="path98-2-6-1"
       style="fill:#d6dbf1;fill-opacity:1;stroke-width:0.0410998"
       sodipodi:nodetypes="csssssscccccccc" />
    <path
       d="M 10.706264,17 H 9.293901 C 9.131621,17 9,17.131831 9,17.294013 v 1.411808 C 9,18.868159 9.131461,19 9.293901,19 h 1.412198 C 10.868379,19 11,18.868159 11,18.705821 V 17.294013 C 11.000163,17.131505 10.868539,17 10.706259,17 Z m -0.294386,0.588384 z"
       id="path98-2-3-3"
       style="fill:#d6dbf1;fill-opacity:1;stroke-width:0.0410998"
       sodipodi:nodetypes="csssssscccccccc" />
    <path
       d="M 22.706034,21 H 21.294457 C 21.131494,21 21,21.131897 21,21.294329 V 22.70583 C 21,22.868264 21.13149,23 21.294457,23 h 1.411577 C 22.868351,23 23,22.868423 23,22.70583 V 21.294329 C 23,21.131897 22.868351,21 22.706034,21 Z m -0.293968,0.588791 z"
       id="path68-6"
       style="fill:#d6dbf1;fill-opacity:1;stroke-width:0.0411146"
       sodipodi:nodetypes="sssssssssccccc" />
    <path
       d="M 26.70568,21 H 25.294309 C 25.131432,21 25,21.131897 25,21.294329 V 22.70583 C 25,22.868264 25.131429,23 25.294309,23 H 26.70568 C 26.867923,23 27,22.868423 27,22.70583 V 21.294329 C 27.000163,21.131897 26.867764,21 26.70568,21 Z m -0.293833,0.588791 z"
       id="path74-7"
       style="fill:#d6dbf1;fill-opacity:1;stroke-width:0.0411049"
       sodipodi:nodetypes="ssssssscsccccc" />
    <path
       d="M 18.706028,21 H 17.293972 C 17.13165,21 17,21.131897 17,21.294329 V 22.70583 C 17,22.868264 17.131492,23 17.293972,23 h 1.412056 C 18.868349,23 19,22.868423 19,22.70583 V 21.294329 C 19,21.131897 18.868507,21 18.706028,21 Z m -0.294455,0.588791 z"
       id="path80-5"
       style="fill:#d6dbf1;fill-opacity:1;stroke-width:0.0411149"
       sodipodi:nodetypes="sssssssssccccc" />
    <path
       d="M 15.688282,21 H 8.311724 C 8.139209,21 8,21.131897 8,21.294329 V 22.70583 C 8,22.868264 8.139204,23 8.311724,23 h 7.376558 C 15.860121,23 16,22.868423 16,22.70583 V 21.294329 C 16,21.131897 15.860294,21 15.688282,21 Z m -0.311208,1.411847 z"
       id="path94-5-3"
       style="fill:#d6dbf1;fill-opacity:1;stroke-width:0.0423031"
       sodipodi:nodetypes="sssssssssccccc" />
    <path
       d="M 6.706264,17 H 5.293901 C 5.131621,17 5,17.131831 5,17.294013 v 1.411808 C 5,18.868159 5.131461,19 5.293901,19 H 6.706099 C 6.868379,19 7,18.868159 7,18.705821 V 17.294013 C 7.000163,17.131505 6.868539,17 6.706259,17 Z m -0.294386,0.588384 z"
       id="path98-2-56"
       style="fill:#d6dbf1;fill-opacity:1;stroke-width:0.0410998"
       sodipodi:nodetypes="csssssscccccccc" />
    <path
       d="M 6.706264,21 H 5.2939 C 5.131621,21 5,21.131897 5,21.294329 V 22.70583 C 5,22.868264 5.131461,23 5.2939,23 H 6.706099 C 6.868379,23 7,22.868423 7,22.70583 V 21.294329 C 7.000164,21.131897 6.86854,21 6.706259,21 Z m -0.294385,0.588791 z"
       id="path100-9-2"
       style="fill:#d6dbf1;fill-opacity:1;stroke-width:0.0411098"
       sodipodi:nodetypes="csssssscccccccc" />
    <path
       d="m 27.578836,11 h -5.450455 v -10e-4 c 0,10e-4 -0.334443,-0.443629 -0.7583,-0.482632 C 21.331811,10.371177 20.876945,8.71482 19.595747,8.126331 18.89711,7.804666 18.107609,7.86319 17.253013,8.302814 c 0,3.75e-4 -0.0018,0 -0.0018,3.75e-4 -0.0156,0.0081 -1.605838,0.808774 -2.851471,0.326637 -0.560785,-0.216784 -0.9638,-0.657129 -1.230589,-1.345396 -0.0896,-0.230755 -0.345869,-0.343743 -0.575132,-0.253208 -0.227434,0.09132 -0.33916,0.352032 -0.250106,0.583162 0.360197,0.924704 0.946575,1.549801 1.744387,1.857332 0.396654,0.152548 0.808166,0.210696 1.205005,0.210696 1.219353,0 2.299229,-0.546372 2.357592,-0.577085 0.602666,-0.30952 1.133364,-0.36509 1.576448,-0.16102 0.694087,0.317444 1.071334,1.175142 1.217543,1.587158 C 20.059661,10.603405 19.764035,11 19.764035,11 v 0 H 4.422996 C 3.63786,11 3,11.683901 3,12.48 V 23.558743 C 3,24.353138 3.63786,25 4.422996,25 H 27.578257 C 28.362837,25 29,24.353191 29,23.558743 V 12.48 C 29.000186,11.683941 28.363023,11 27.578443,11 Z m -7.150733,0.298994 c 0,-0.06656 0.0789,-0.123479 0.171574,-0.123479 h 0.694087 c 0.09195,0 0.17085,0.05683 0.17085,0.123479 v 0.136721 H 20.428475 V 11.298994 Z M 28,23.558663 C 28,23.858066 27.87443,23.999995 27.578789,24 L 4.423528,24.000415 C 4.127897,24.00042 4,23.857894 4,23.558663 V 12.679 C 4,12.378674 4.128392,12 4.424,12 H 27.379 C 27.674631,12 28,12.378704 28,12.679 Z"
       id="path102-1-9"
       style="fill:#d6dbf1;fill-opacity:1;stroke-width:0.0467684"
       sodipodi:nodetypes="ccccccccccccscccsccsssssccccssscccccssccsscc" />
  </g>
  <metadata
     id="metadata18">
    <rdf:RDF>
      <cc:Work
         rdf:about="">
        <dc:format>image/svg+xml</dc:format>
        <dc:type
           rdf:resource="http://purl.org/dc/dcmitype/StillImage" />
      </cc:Work>
    </rdf:RDF>
  </metadata>
  <defs
     id="defs16">
    <linearGradient
       id="oomox"
       x1="0"
       x2="0"
       y1="0"
       y2="1">
      <stop
         offset="0%"
         style="stop-color:#303b3d; stop-opacity:1"
         id="stop18" />
      <stop
         offset="100%"
         style="stop-color:#bc985d; stop-opacity:1"
         id="stop20" />
    </linearGradient>
  </defs>
  <sodipodi:namedview
     pagecolor="#ffffff"
     bordercolor="#000000"
     borderopacity="1"
     objecttolerance="10"
     gridtolerance="10"
     guidetolerance="10"
     inkscape:pageopacity="0"
     inkscape:pageshadow="2"
     inkscape:window-width="1920"
     inkscape:window-height="1009"
     id="namedview14"
     showgrid="false"
     inkscape:zoom="9.8125003"
     inkscape:cx="31.745222"
     inkscape:cy="18.751592"
     inkscape:window-x="0"
     inkscape:window-y="0"
     inkscape:window-maximized="1"
     inkscape:current-layer="svg12"
     inkscape:document-rotation="0"
     inkscape:lockguides="true"
     inkscape:showpageshadow="false"
     inkscape:pagecheckerboard="0">
    <inkscape:grid
       type="xygrid"
       id="grid950"
       originx="0"
       originy="0" />
  </sodipodi:namedview>
</svg>
