<?xml version="1.0" encoding="UTF-8" standalone="no"?>
<svg
   width="32"
   height="32"
   version="1.1"
   id="svg12"
   sodipodi:docname="kget.svg"
   inkscape:version="1.1.1 (3bf5ae0d25, 2021-09-20)"
   xmlns:inkscape="http://www.inkscape.org/namespaces/inkscape"
   xmlns:sodipodi="http://sodipodi.sourceforge.net/DTD/sodipodi-0.dtd"
   xmlns:xlink="http://www.w3.org/1999/xlink"
   xmlns="http://www.w3.org/2000/svg"
   xmlns:svg="http://www.w3.org/2000/svg"
   xmlns:rdf="http://www.w3.org/1999/02/22-rdf-syntax-ns#"
   xmlns:cc="http://creativecommons.org/ns#"
   xmlns:dc="http://purl.org/dc/elements/1.1/">
  <g
     id="22-22-kget"
     transform="translate(32,9.9978008)"
     style="fill:#d6dbf1;fill-opacity:1">
    <rect
       style="opacity:0.00100002;fill:#d6dbf1;fill-opacity:1"
       width="22"
       height="22"
       x="0"
       y="2.7026367e-08"
       id="rect2" />
    <path
       d="m 13.333213,3 h -4.66652 c -0.221066,0 -0.4,0.178933 -0.4,0.399999 V 9.562287 H 6.670626 c -0.154286,0 -0.295353,0.08911 -0.361246,0.228573 -0.0664,0.13946 -0.04607,0.30464 0.0516,0.42428 l 4.3291,5.304687 c 0.07589,0.09339 0.18946,0.14732 0.309813,0.14732 0.12036,0 0.233934,-0.05393 0.30982,-0.14732 l 4.329281,-5.304687 c 0.09768,-0.119467 0.11804,-0.28482 0.0516,-0.42428 -0.06607,-0.1394672 -0.20696,-0.228573 -0.361247,-0.228573 H 13.73328 l -1.86e-4,-6.161828 c 0,-0.221072 -0.178927,-0.4 -0.400001,-0.4 z M 14.486767,10.362287 11,14.63406 7.513233,10.362287 h 1.153554 c 0.221073,0 0.4,-0.178934 0.4,-0.4 V 3.799999 h 3.866426 v 6.162288 c 0,0.221066 0.178927,0.4 0.4,0.4 z"
       id="path49-3"
       style="fill:#d6dbf1;fill-opacity:1;stroke-width:0.0457143" />
    <path
       d="m 2.999953,18.6 c 0,0.221067 0.178933,0.4 0.4,0.4 h 15.200001 c 0.221066,0 0.4,-0.178933 0.4,-0.4 0,-0.221067 -0.178934,-0.4 -0.4,-0.4 H 3.399953 c -0.221067,0 -0.4,0.178933 -0.4,0.4 z"
       id="path55-6"
       style="fill:#d6dbf1;fill-opacity:1;stroke-width:0.0457143" />
  </g>
  <metadata
     id="metadata18">
    <rdf:RDF>
      <cc:Work
         rdf:about="">
        <dc:format>image/svg+xml</dc:format>
        <dc:type
           rdf:resource="http://purl.org/dc/dcmitype/StillImage" />
      </cc:Work>
    </rdf:RDF>
  </metadata>
  <defs
     id="defs16">
    <linearGradient
       id="c"
       y1="13"
       y2="33"
       x2="0"
       gradientUnits="userSpaceOnUse"
       gradientTransform="matrix(1,0,0,-1,384.57,547.8)">
      <stop
         stop-color="#197cf1"
         id="stop12" />
      <stop
         offset="1"
         stop-color="#20bcfa"
         id="stop14" />
    </linearGradient>
    <linearGradient
       xlink:href="#c"
       id="d"
       y1="14"
       y2="33"
       x2="0"
       gradientUnits="userSpaceOnUse"
       gradientTransform="matrix(1,0,0,-1,-8,37)" />
    <linearGradient
       id="linearGradient917"
       y1="13"
       y2="33"
       x2="0"
       gradientUnits="userSpaceOnUse"
       gradientTransform="matrix(1,0,0,-1,384.57,547.8)">
      <stop
         stop-color="#197cf1"
         id="stop913" />
      <stop
         offset="1"
         stop-color="#20bcfa"
         id="stop915" />
    </linearGradient>
  </defs>
  <sodipodi:namedview
     pagecolor="#ffffff"
     bordercolor="#666666"
     borderopacity="1"
     objecttolerance="10"
     gridtolerance="10"
     guidetolerance="10"
     inkscape:pageopacity="0"
     inkscape:pageshadow="2"
     inkscape:window-width="1920"
     inkscape:window-height="1006"
     id="namedview14"
     showgrid="false"
     inkscape:zoom="6.9384853"
     inkscape:cx="29.112982"
     inkscape:cy="17.438965"
     inkscape:window-x="0"
     inkscape:window-y="0"
     inkscape:window-maximized="1"
     inkscape:current-layer="svg12"
     inkscape:document-rotation="0"
     inkscape:pagecheckerboard="0"
     inkscape:lockguides="true">
    <inkscape:grid
       type="xygrid"
       id="grid849"
       originx="0"
       originy="2.7026367e-08" />
  </sodipodi:namedview>
  <g
     id="kget"
     style="fill:#d6dbf1;fill-opacity:1">
    <rect
       style="opacity:0.00100002;fill:#d6dbf1;fill-opacity:1"
       width="32"
       height="32"
       x="0"
       y="0"
       id="rect7" />
    <path
       d="m 19.49989,4 h -6.99978 c -0.331599,0 -0.6,0.2684 -0.6,0.599999 v 9.243431 h -2.3941 c -0.231429,0 -0.44303,0.13366 -0.541869,0.34286 -0.0996,0.20919 -0.0691,0.45696 0.0774,0.63642 l 6.493649,7.95703 c 0.11384,0.14009 0.28419,0.22098 0.46472,0.22098 0.18054,0 0.350901,-0.0809 0.46473,-0.22098 l 6.493921,-7.95703 c 0.14652,-0.1792 0.17706,-0.42723 0.0774,-0.63642 -0.0991,-0.2092 -0.31044,-0.34286 -0.54187,-0.34286 H 20.09999 l -2.79e-4,-9.242741 c 0,-0.331609 -0.26839,-0.6 -0.600001,-0.6 z m 1.730331,11.04343 -5.230151,6.40766 -5.23015,-6.40766 h 1.730331 c 0.33161,0 0.6,-0.2684 0.6,-0.6 V 5.199999 h 5.799639 v 9.243431 c 0,0.3316 0.26839,0.6 0.6,0.6 z"
       id="path49"
       style="fill:#d6dbf1;fill-opacity:1;stroke-width:0.0685714" />
    <path
       d="M 4,27.4 C 4,27.7316 4.2684,28 4.6,28 h 22.800001 c 0.331599,0 0.6,-0.2684 0.6,-0.6 0,-0.3316 -0.268401,-0.6 -0.6,-0.6 H 4.6 C 4.2684,26.8 4,27.0684 4,27.4 Z"
       id="path55"
       style="fill:#d6dbf1;fill-opacity:1;stroke-width:0.0685714" />
  </g>
</svg>
