<?xml version="1.0" encoding="UTF-8" standalone="no"?>
<svg
   id="svg4153"
   version="1.1"
   inkscape:version="1.1.2 (0a00cf5339, 2022-02-04)"
   width="32.000004"
   height="32"
   sodipodi:docname="klipper.svg"
   viewBox="0 0 32.000004 32"
   xmlns:inkscape="http://www.inkscape.org/namespaces/inkscape"
   xmlns:sodipodi="http://sodipodi.sourceforge.net/DTD/sodipodi-0.dtd"
   xmlns="http://www.w3.org/2000/svg"
   xmlns:svg="http://www.w3.org/2000/svg"
   xmlns:rdf="http://www.w3.org/1999/02/22-rdf-syntax-ns#"
   xmlns:cc="http://creativecommons.org/ns#"
   xmlns:dc="http://purl.org/dc/elements/1.1/">
  <g
     id="22-22-klipper"
     transform="translate(31.999853,10)">
    <rect
       style="fill:none;fill-opacity:1;stroke:none;stroke-width:0.1;stroke-linecap:square;stroke-linejoin:miter;stroke-miterlimit:4;stroke-dasharray:none;stroke-dashoffset:0;stroke-opacity:1"
       id="rect4148"
       width="22"
       height="22"
       x="1.3415527e-07"
       y="0" />
    <path
       d="m 7.170845,10 h 4.658294 C 11.923489,10 12,9.776123 12,9.4999983 12,9.2238768 11.9235,9 11.829139,9 H 7.170845 C 7.076495,9 7,9.2238768 7,9.4999983 7,9.776123 7.0764903,10 7.170845,10 Z"
       id="path4-3-36"
       style="fill:#d6dbf1;fill-opacity:1;stroke-width:0.292278" />
    <path
       d="M 7.1543639,7 H 10.845636 C 10.930845,7 11,6.7761221 11,6.5000008 11,6.2238763 10.930944,6 10.845636,6 H 7.1543639 C 7.0690198,6 7,6.2238763 7,6.5000008 7,6.7761221 7.0690598,7 7.1543639,7 Z"
       id="path6-6-7"
       style="fill:#d6dbf1;fill-opacity:1;stroke-width:0.277819" />
    <path
       d="M 7.2527033,13 H 12.747296 C 12.886856,13 13,12.776123 13,12.500001 13,12.223878 12.886856,12 12.747296,12 H 7.2527033 C 7.113144,12 7,12.223878 7,12.500001 7,12.776123 7.113142,13 7.2527033,13 Z"
       id="path8-5"
       style="fill:#d6dbf1;fill-opacity:1;stroke-width:0.355461" />
    <path
       d="M 13.777063,15 H 7.22292 C 7.0998131,15 7,15.223879 7,15.500001 7,15.776123 7.0998131,16 7.22292,16 h 6.554143 C 13.900171,16 14,15.776123 14,15.500001 14,15.223879 13.900171,15 13.777063,15 Z"
       id="path10-7-3"
       style="fill:#d6dbf1;fill-opacity:1;stroke-width:0.333861" />
    <path
       d="M 15.000205,6 C 14.44868,6 14,6.549164 14,7.224117 v 1.004262 0.785591 5.192474 c 0,0.0234 0.004,0.04534 0.01174,0.06539 2.61e-4,7.33e-4 1.42e-4,0.0016 4.34e-4,0.0024 l 0.868159,2.298613 c 0.02157,0.0572 0.0684,0.09382 0.119862,0.09382 0.05147,0 0.09826,-0.03661 0.119855,-0.09383 L 15.566401,15.391 c 3.59e-4,-8.67e-4 9.68e-4,-0.0015 9.68e-4,-0.0024 2.91e-4,-7.33e-4 1.87e-4,-0.0015 4.6e-4,-0.0023 l 0.419988,-1.112058 c 2.91e-4,-7.34e-4 1.55e-4,-0.0016 4.36e-4,-0.0024 0.0072,-0.02006 0.01175,-0.04199 0.01175,-0.06539 V 9.013982 8.228392 7.22413 c 0,-0.674954 -0.448683,-1.224117 -1.000138,-1.224117 z m -1.09e-4,8 v 0 -4.666666 0 z m 0.380427,1.112834 c -0.244414,-0.09945 -0.51869,-0.09886 -0.760644,7.8e-5 L 14.338546,14.36806 H 15.66181 Z M 15.000096,14 v -4.666666 0 z m 0.736153,-5.143333 h -1.472158 v 0 z m -0.736044,7.26321 -0.268268,-0.710267 c 0.171713,-0.06281 0.362691,-0.06317 0.536496,4e-5 z M 15.736249,8 H 14.264091 V 7.224117 c 0,-0.496765 0.330239,-0.900885 0.736114,-0.900885 0.405873,0 0.736044,0.40412 0.736044,0.900885 z"
       id="path12-5-5"
       style="fill:#6eb1c4;fill-opacity:1;stroke-width:0.146085"
       sodipodi:nodetypes="csccscccsccccccsccsccccccccccccccccccccccccssccss" />
    <path
       d="M 16.571432,3 H 5.428586 C 4.6428719,3 4,3.6000136 4,4.3333623 V 17.666998 c 0,0.733352 0.6428719,1.333365 1.428586,1.333365 H 16.571432 C 17.357147,19.000363 18,18.40035 18,17.666998 V 4.3333623 C 18,3.6000136 17.357147,3 16.571432,3 Z M 17.064,17.467 C 17.065814,17.833667 16.763838,18 16.371,18 H 5.629 C 5.236126,18 5,17.833671 5,17.467 V 4.533 C 5,4.1663266 5.236126,4 5.629,4 H 16.371 C 16.763842,4 16.998186,4.1663311 17,4.533 Z"
       id="path2-3-6"
       style="fill:#d6dbf1;fill-opacity:1;stroke-width:0.345035"
       sodipodi:nodetypes="ssssssssssssssssss" />
  </g>
  <metadata
     id="metadata4159">
    <rdf:RDF>
      <cc:Work
         rdf:about="">
        <dc:format>image/svg+xml</dc:format>
        <dc:type
           rdf:resource="http://purl.org/dc/dcmitype/StillImage" />
      </cc:Work>
    </rdf:RDF>
  </metadata>
  <defs
     id="defs4157">
    <style
       type="text/css"
       id="current-color-scheme" />
    <linearGradient
       id="oomox"
       x1="33"
       x2="33"
       y1="81"
       y2="95"
       gradientUnits="userSpaceOnUse">
      <stop
         offset="0%"
         style="stop-color:#303b3d; stop-opacity:1"
         id="stop18" />
      <stop
         offset="100%"
         style="stop-color:#bc985d; stop-opacity:1"
         id="stop20" />
    </linearGradient>
  </defs>
  <sodipodi:namedview
     pagecolor="#ffffff"
     bordercolor="#000000"
     borderopacity="1"
     objecttolerance="10"
     gridtolerance="10000"
     guidetolerance="10"
     inkscape:pageopacity="0"
     inkscape:pageshadow="2"
     inkscape:window-width="1920"
     inkscape:window-height="1009"
     id="namedview4155"
     inkscape:document-units="px"
     showgrid="false"
     inkscape:showpageshadow="false"
     borderlayer="false"
     inkscape:zoom="8.0000004"
     inkscape:cx="31.687499"
     inkscape:cy="12.624999"
     inkscape:window-x="0"
     inkscape:window-y="0"
     inkscape:window-maximized="1"
     inkscape:current-layer="svg4153"
     fit-margin-top="0"
     fit-margin-left="0"
     fit-margin-right="0"
     fit-margin-bottom="0"
     inkscape:snap-bbox="true"
     inkscape:bbox-nodes="true"
     inkscape:document-rotation="0"
     showguides="false"
     inkscape:lockguides="false"
     inkscape:pagecheckerboard="0">
    <inkscape:grid
       type="xygrid"
       id="grid4140"
       originx="1.3415527e-07"
       originy="0" />
    <sodipodi:guide
       position="2.0000001,29.999999"
       orientation="28,0"
       id="guide4186"
       inkscape:locked="false" />
    <sodipodi:guide
       position="2.0000001,1.999999"
       orientation="0,28.000004"
       id="guide4188"
       inkscape:locked="false" />
    <sodipodi:guide
       position="30.000004,1.999999"
       orientation="-28,0"
       id="guide4190"
       inkscape:locked="false" />
    <sodipodi:guide
       position="30.000004,29.999999"
       orientation="0,-28.000004"
       id="guide4192"
       inkscape:locked="false" />
    <sodipodi:guide
       position="1.3415527e-07,31.999999"
       orientation="32,0"
       id="guide4194"
       inkscape:locked="false" />
    <sodipodi:guide
       position="1.3415527e-07,-1e-06"
       orientation="0,32.000004"
       id="guide4196"
       inkscape:locked="false" />
    <sodipodi:guide
       position="32.000004,-1e-06"
       orientation="-32,0"
       id="guide4198"
       inkscape:locked="false" />
    <sodipodi:guide
       position="32.000004,31.999999"
       orientation="0,-32.000004"
       id="guide4200"
       inkscape:locked="false" />
  </sodipodi:namedview>
  <inkscape:clipboard
     style="opacity:0.01000001;fill:#00000f;fill-opacity:0;stroke-width:1;stroke-linecap:butt;stroke-linejoin:miter;stroke-miterlimit:4;stroke-dasharray:none;stroke-dashoffset:0;stroke-opacity:1;stroke:none"
     min="0,0"
     max="22,22" />
  <g
     id="klipper"
     transform="translate(31.999853,10)">
    <g
       id="g7533">
      <rect
         y="-10"
         x="-31.999853"
         height="32"
         width="32.000004"
         id="rect4230"
         style="fill:none;fill-opacity:1;stroke:none" />
      <path
         d="m -22.76067,4 h 6.52161 c 0.132093,0 0.239207,-0.223877 0.239207,-0.500001 C -15.999853,3.223877 -16.106956,3 -16.23906,3 h -6.52161 c -0.13209,0 -0.239183,0.223877 -0.239183,0.499999 0,0.276124 0.107086,0.500001 0.239183,0.500001 z"
         id="path4-3"
         style="fill:#d6dbf1;fill-opacity:1;stroke-width:0.34583" />
      <path
         d="m -22.806898,0 h 4.61409 c 0.106512,0 0.192955,-0.2238768 0.192955,-0.4999994 C -17.999853,-0.7761232 -18.086176,-1 -18.192808,-1 h -4.61409 c -0.10668,0 -0.192955,0.2238768 -0.192955,0.5000006 0,0.2761226 0.08632,0.4999994 0.192955,0.4999994 z"
         id="path6-6"
         style="fill:#d6dbf1;fill-opacity:1;stroke-width:0.310613" />
      <path
         d="m -22.620799,8 h 8.24189 c 0.20934,0 0.379056,-0.223877 0.379056,-0.499999 C -13.999853,7.223877 -14.169568,7 -14.378909,7 h -8.24189 c -0.209338,0 -0.379054,0.223877 -0.379054,0.500001 0,0.276122 0.169713,0.499999 0.379054,0.499999 z"
         id="path8"
         style="fill:#d6dbf1;fill-opacity:1;stroke-width:0.435349" />
      <path
         d="M -12.350182,12 H -22.64955 c -0.193454,0 -0.350303,0.223878 -0.350303,0.500001 0,0.276122 0.156849,0.499999 0.350303,0.499999 h 10.299368 c 0.193455,0 0.350329,-0.223877 0.350329,-0.499999 C -11.999853,12.223878 -12.156727,12 -12.350182,12 Z"
         id="path10-7"
         style="fill:#d6dbf1;fill-opacity:1;stroke-width:0.418517" />
      <path
         d="m -9.9996401,-2 c -1.1029409,0 -2.0002129,0.8237446 -2.0002129,1.8361751 v 1.5063929 1.178386 7.788712 c 0,0.0351 0.008,0.06801 0.02351,0.09809 5.21e-4,0.0011 2.83e-4,0.0024 8.7e-4,0.0036 l 1.736147,3.44792 C -10.196166,13.945075 -10.102519,14 -9.9996271,14 c 0.102895,0 0.196505,-0.05492 0.239688,-0.140743 l 0.892588,-1.772756 c 7.18e-4,-0.0013 0.0018,-0.0023 0.0023,-0.0036 5.8e-4,-0.0011 3.7e-4,-0.0023 9.18e-4,-0.0034 l 0.839896,-1.668088 c 5.79e-4,-0.0011 3.08e-4,-0.0024 8.72e-4,-0.0036 0.014665,-0.03009 0.023512,-0.06299 0.023512,-0.09809 V 2.521018 1.342632 -0.1637608 c 0,-1.0124305 -0.897277,-1.8361752 -2.000082,-1.8361752 z m -2.13e-4,12 v 0 -7 0 z m 0.760775,1.66925 c -0.488778,-0.149178 -1.0372779,-0.14829 -1.5211379,1.18e-4 l -0.562609,-1.117278 h 2.6462669 z M -9.9998531,10 V 3 3 Z m 1.472159,-7.715 h -2.9440299 v 0 z m -1.471946,10.894815 -0.5364809,-1.065401 c 0.343392,-0.09422 0.7253099,-0.09475 1.0728859,6e-5 z M -8.5276941,1 h -2.9440299 v -1.1638249 c 0,-0.7451472 0.660415,-1.3513267 1.4720839,-1.3513267 0.811668,0 1.471946,0.6061795 1.471946,1.3513267 z"
         id="path12-5"
         style="fill:#6eb1c4;fill-opacity:1;stroke-width:0.253015"
         sodipodi:nodetypes="csccscccsccccccsccsccccccccccccccccccccccccssccss" />
      <path
         d="M -7.2447451,-5.999998 H -24.754932 c -1.234694,0 -2.244921,0.9 -2.244921,1.999998 v 19.999999 c 0,1.100003 1.010227,2.000003 2.244921,2.000003 h 17.5101869 c 1.234695,0 2.244892,-0.9 2.244892,-2.000003 V -4 c 0,-1.099998 -1.010197,-1.999998 -2.244892,-1.999998 z m 1.244892,21.999997 c 0,0.549995 -0.627569,0.999995 -1.244892,0.999995 H -24.754932 c -0.617373,0 -1.244921,-0.45 -1.244921,-0.999995 V -4 c 0,-0.549998 0.627548,-0.999998 1.244921,-0.999998 h 17.5101869 c 0.617323,0 1.244892,0.45 1.244892,0.999998 z"
         id="path2-3"
         style="fill:#d6dbf1;fill-opacity:1;stroke-width:0.529727"
         sodipodi:nodetypes="ssssssssssssssssss" />
    </g>
  </g>
</svg>
