<?xml version="1.0" encoding="UTF-8" standalone="no"?>
<svg
   width="32"
   height="32"
   version="1.1"
   id="svg12"
   sodipodi:docname="konv_message.svg"
   inkscape:version="1.1.1 (3bf5ae0d25, 2021-09-20)"
   xmlns:inkscape="http://www.inkscape.org/namespaces/inkscape"
   xmlns:sodipodi="http://sodipodi.sourceforge.net/DTD/sodipodi-0.dtd"
   xmlns="http://www.w3.org/2000/svg"
   xmlns:svg="http://www.w3.org/2000/svg"
   xmlns:rdf="http://www.w3.org/1999/02/22-rdf-syntax-ns#"
   xmlns:cc="http://creativecommons.org/ns#"
   xmlns:dc="http://purl.org/dc/elements/1.1/">
  <g
     id="22-22-konv_message"
     transform="translate(32,10)">
    <rect
       style="opacity:0.00100002"
       width="22"
       height="22"
       x="0"
       y="0"
       id="rect2" />
    <path
       fill="none"
       stroke-width="0.718244"
       stroke-linecap="round"
       stroke-linejoin="round"
       stroke-miterlimit="10"
       d="m 19.640877,4.4678269 v 9.2785211 c 0,0.612322 -0.532737,1.108702 -1.189907,1.108702 H 10.192751 L 5.779399,18.64092 V 14.85505 H 3.5490255 c -0.6571635,0 -1.1899035,-0.49638 -1.1899035,-1.108702 V 4.4678269 c 0,-0.61232 0.53274,-1.1087049 1.1899035,-1.1087049 H 18.45097 c 0.65717,0 1.189907,0.4963849 1.189907,1.1087049 z"
       id="path2-3-3"
       style="stroke:#d6dbf1;stroke-opacity:1" />
    <path
       d="M 7.8109773,11.094125 V 7.2425935 c -0.338241,0.025038 -0.7024381,0.049995 -1.0406801,0.025038 l -0.052007,-8.48e-5 c -1.1187296,0 -2.0292691,0.8253584 -2.0292691,1.9008556 0,1.1004487 0.9626307,1.9258077 2.0812698,1.9008567 0.3642876,0 0.7024402,0 1.0406803,0.02495 z"
       id="path19-6"
       style="fill:#489ab1;fill-opacity:1;stroke-width:0.0218646" />
    <path
       d="m 17.176833,9.1683601 c 0,-0.7753652 -0.572388,-1.400581 -1.326831,-1.5256925 V 6.0420289 c 0,-1.1505293 -1.378833,-1.7757452 -2.315373,-1.0754982 -1.430924,1.0504573 -3.017811,1.8507775 -4.7348849,2.1508655 v 4.1017108 c 1.7170739,0.325172 3.3041389,1.100452 4.7348849,2.150868 0.936586,0.700332 2.315373,0.07503 2.315373,-1.075499 v -1.600724 c 0.754443,-0.124944 1.326831,-0.750156 1.326831,-1.5255217 z"
       id="path21-7"
       style="fill:#489ab1;fill-opacity:1;stroke-width:0.0218646" />
  </g>
  <metadata
     id="metadata18">
    <rdf:RDF>
      <cc:Work
         rdf:about="">
        <dc:format>image/svg+xml</dc:format>
        <dc:type
           rdf:resource="http://purl.org/dc/dcmitype/StillImage" />
      </cc:Work>
    </rdf:RDF>
  </metadata>
  <defs
     id="defs16" />
  <sodipodi:namedview
     pagecolor="#ffffff"
     bordercolor="#000000"
     borderopacity="1"
     objecttolerance="10"
     gridtolerance="10"
     guidetolerance="10"
     inkscape:pageopacity="0"
     inkscape:pageshadow="2"
     inkscape:window-width="1920"
     inkscape:window-height="1006"
     id="namedview14"
     showgrid="false"
     inkscape:zoom="6.9384853"
     inkscape:cx="27.527622"
     inkscape:cy="22.483293"
     inkscape:window-x="0"
     inkscape:window-y="0"
     inkscape:window-maximized="1"
     inkscape:current-layer="svg12"
     inkscape:document-rotation="0"
     inkscape:pagecheckerboard="false"
     inkscape:showpageshadow="false"
     inkscape:lockguides="false">
    <inkscape:grid
       type="xygrid"
       id="grid896"
       originx="0"
       originy="0" />
  </sodipodi:namedview>
  <g
     id="konv_message">
    <rect
       style="opacity:0.00100002;fill:#eff0f1;fill-opacity:1"
       width="32"
       height="32"
       x="0"
       y="0"
       id="rect7" />
    <path
       fill="none"
       stroke-width="1.05727"
       stroke-linecap="round"
       stroke-linejoin="round"
       stroke-miterlimit="10"
       d="m 28.471365,6.19315 v 13.929989 c 0,0.919287 -0.768902,1.664511 -1.717391,1.664511 H 14.8349 L 8.4651159,27.471436 V 21.78765 H 5.2460222 c -0.948484,0 -1.7173869,-0.745224 -1.7173869,-1.664511 V 6.19315 c 0,-0.9192852 0.7689029,-1.6645147 1.7173869,-1.6645147 H 26.753974 c 0.948489,0 1.717391,0.7452295 1.717391,1.6645147 z"
       id="path2-3"
       style="stroke:#d6dbf1;stroke-opacity:1" />
    <path
       d="M 11.397289,16.141316 V 10.35895 c -0.488183,0.03759 -1.013829,0.07506 -1.502012,0.03759 l -0.07506,-1.29e-4 c -1.61466,0 -2.92884,1.239125 -2.92884,2.853784 0,1.652123 1.389364,2.891248 3.003895,2.853785 0.525775,0 1.013829,0 1.502012,0.03747 z"
       id="path19"
       style="fill:#489ab1;fill-opacity:1;stroke-width:0.0321851" />
    <path
       d="m 24.91501,13.250133 c 0,-1.164069 -0.826125,-2.102714 -1.91501,-2.290546 V 8.5565234 c 0,-1.727308 -1.990066,-2.665953 -3.341774,-1.614661 -2.06525,1.577068 -4.355603,2.778601 -6.833852,3.2291266 v 6.157966 c 2.478249,0.488183 4.768859,1.652123 6.833852,3.229126 C 21.009998,20.609502 23,19.670729 23,17.943421 v -2.403193 c 1.088885,-0.187578 1.91501,-1.12622 1.91501,-2.290289 z"
       id="path21"
       style="fill:#489ab1;fill-opacity:1;stroke-width:0.0321851" />
  </g>
</svg>
