<?xml version="1.0" encoding="UTF-8" standalone="no"?>
<svg
   width="32"
   height="32"
   version="1.1"
   id="svg12"
   sodipodi:docname="kopete.svg"
   inkscape:version="1.1.1 (3bf5ae0d25, 2021-09-20)"
   xmlns:inkscape="http://www.inkscape.org/namespaces/inkscape"
   xmlns:sodipodi="http://sodipodi.sourceforge.net/DTD/sodipodi-0.dtd"
   xmlns="http://www.w3.org/2000/svg"
   xmlns:svg="http://www.w3.org/2000/svg"
   xmlns:rdf="http://www.w3.org/1999/02/22-rdf-syntax-ns#"
   xmlns:cc="http://creativecommons.org/ns#"
   xmlns:dc="http://purl.org/dc/elements/1.1/">
  <metadata
     id="metadata18">
    <rdf:RDF>
      <cc:Work
         rdf:about="">
        <dc:format>image/svg+xml</dc:format>
        <dc:type
           rdf:resource="http://purl.org/dc/dcmitype/StillImage" />
      </cc:Work>
    </rdf:RDF>
  </metadata>
  <defs
     id="defs16" />
  <sodipodi:namedview
     pagecolor="#ffffff"
     bordercolor="#000000"
     borderopacity="1"
     objecttolerance="10"
     gridtolerance="10"
     guidetolerance="10"
     inkscape:pageopacity="0"
     inkscape:pageshadow="2"
     inkscape:window-width="1920"
     inkscape:window-height="1006"
     id="namedview14"
     showgrid="false"
     inkscape:zoom="9.8125"
     inkscape:cx="27.617834"
     inkscape:cy="17.426752"
     inkscape:window-x="0"
     inkscape:window-y="0"
     inkscape:window-maximized="1"
     inkscape:current-layer="svg12"
     inkscape:lockguides="false"
     inkscape:document-rotation="0"
     inkscape:showpageshadow="false"
     inkscape:pagecheckerboard="0">
    <inkscape:grid
       type="xygrid"
       id="grid863"
       originx="0"
       originy="0" />
  </sodipodi:namedview>
  <g
     id="kopete"
     transform="translate(32,10)">
    <rect
       style="opacity:0.00100002"
       width="32"
       height="32"
       x="-32"
       y="-10"
       id="rect7" />
    <path
       fill="none"
       stroke-width="0.954345"
       stroke-linecap="round"
       stroke-linejoin="round"
       stroke-miterlimit="10"
       d="M -4.477172,-2.9233964 V 10.461921 c 0,0.88334 -0.710421,1.599431 -1.586769,1.599431 h -11.012544 l -5.885315,5.461536 v -5.461536 h -2.974257 c -0.87635,0 -1.58677,-0.716091 -1.58677,-1.599431 V -2.9233964 c 0,-0.8833414 0.71042,-1.5994311 1.58677,-1.5994311 h 19.872116 c 0.876348,0 1.586769,0.7160897 1.586769,1.5994311 z"
       id="path2"
       style="stroke:#d6dbf1;stroke-opacity:1" />
    <path
       style="fill:#d6dbf1;fill-opacity:1"
       d="M -15.5,-1.7 A 5,5.5 0 0 0 -16.490234,-1.5867188 5,5.5 0 0 1 -12.5,3.8 5,5.5 0 0 1 -16.509766,9.186719 5,5.5 0 0 0 -15.5,9.3 a 5,5.5 0 0 0 5,-5.5 5,5.5 0 0 0 -5,-5.5 z m -5,1.5 a 1,1 0 0 0 -1,1 1,1 0 0 0 1,1 1,1 0 0 0 1,-1 1,1 0 0 0 -1,-1 z m 2,3 c -0.554,0 -1,0.446 -1,1 0,0.554 0.446,1 1,1 h 3 c 0.554,0 1,-0.446 1,-1 0,-0.554 -0.446,-1 -1,-1 z m -2,3 c -0.5523,0 -1,0.447715 -1,1 0,0.552285 0.447715,1 1,1 0.353485,0 0.5,1 0.5,1 0,0 0.5,-1.8012 0.5,-2 0,-0.5523 -0.447715,-1 -1,-1 z"
       id="path12" />
  </g>
  <g
     id="22-22-kopete"
     transform="translate(32,10)">
    <rect
       style="opacity:0.00100002"
       width="22"
       height="22"
       x="0"
       y="0"
       id="rect2" />
    <path
       fill="none"
       stroke-width="0.636233"
       stroke-linecap="round"
       stroke-linejoin="round"
       stroke-miterlimit="10"
       d="m 18.681883,4.6844055 v 8.9235435 c 0,0.588887 -0.473609,1.066283 -1.057848,1.066283 h -7.341694 l -3.9235365,3.641023 v -3.641023 h -1.98284 c -0.584241,0 -1.057848,-0.477396 -1.057848,-1.066283 V 4.6844055 c 0,-0.588905 0.473607,-1.066289 1.057848,-1.066289 H 17.624035 c 0.584239,0 1.057848,0.477384 1.057848,1.066289 z"
       id="path2-7"
       style="stroke:#d6dbf1;stroke-opacity:1" />
    <path
       style="fill:#d6dbf1;fill-opacity:1;stroke-width:0.666667"
       d="m 11.333333,5.4499985 a 3.3333338,3.6666671 0 0 0 -0.660155,0.0755 3.3333338,3.6666671 0 0 1 2.660155,3.591151 3.3333338,3.6666671 0 0 1 -2.673181,3.5911405 3.3333338,3.6666671 0 0 0 0.673181,0.0755 3.3333338,3.6666671 0 0 0 3.333333,-3.6666635 3.3333338,3.6666671 0 0 0 -3.333333,-3.666668 z m -3.3333335,1.000001 a 0.66666673,0.66666673 0 0 0 -0.666667,0.666665 0.66666673,0.66666673 0 0 0 0.666667,0.666668 0.66666673,0.66666673 0 0 0 0.666666,-0.666668 0.66666673,0.66666673 0 0 0 -0.666666,-0.666665 z m 1.333334,2 c -0.369334,0 -0.666668,0.297333 -0.666668,0.666666 0,0.369334 0.297334,0.6666675 0.666668,0.6666675 h 1.9999995 c 0.369332,0 0.666666,-0.2973335 0.666666,-0.6666675 0,-0.369333 -0.297334,-0.666666 -0.666666,-0.666666 z m -1.333334,1.9999995 c -0.368196,0 -0.666667,0.298485 -0.666667,0.666666 0,0.368189 0.298477,0.666668 0.666667,0.666668 0.235656,0 0.333333,0.666666 0.333333,0.666666 0,0 0.333333,-1.200799 0.333333,-1.333334 0,-0.368198 -0.298476,-0.666666 -0.666666,-0.666666 z"
       id="path12-5" />
  </g>
</svg>
