<?xml version="1.0" encoding="UTF-8" standalone="no"?>
<svg
   width="8.4666662mm"
   height="8.4666662mm"
   viewBox="0 0 31.999999 31.999999"
   version="1.1"
   id="svg881"
   inkscape:version="1.1.1 (3bf5ae0d25, 2021-09-20)"
   sodipodi:docname="notification.svg"
   xmlns:inkscape="http://www.inkscape.org/namespaces/inkscape"
   xmlns:sodipodi="http://sodipodi.sourceforge.net/DTD/sodipodi-0.dtd"
   xmlns="http://www.w3.org/2000/svg"
   xmlns:svg="http://www.w3.org/2000/svg"
   xmlns:rdf="http://www.w3.org/1999/02/22-rdf-syntax-ns#"
   xmlns:cc="http://creativecommons.org/ns#"
   xmlns:dc="http://purl.org/dc/elements/1.1/">
  <defs
     id="defs875" />
  <sodipodi:namedview
     id="base"
     pagecolor="#ffffff"
     bordercolor="#000000"
     borderopacity="1"
     inkscape:pageopacity="0.0"
     inkscape:pageshadow="2"
     inkscape:zoom="3.9999998"
     inkscape:cx="31.500002"
     inkscape:cy="-27.500001"
     inkscape:document-units="px"
     inkscape:current-layer="layer1"
     showgrid="false"
     inkscape:window-width="1920"
     inkscape:window-height="1006"
     inkscape:window-x="0"
     inkscape:window-y="0"
     inkscape:window-maximized="1"
     inkscape:lockguides="true"
     inkscape:document-rotation="0"
     inkscape:pagecheckerboard="0"
     inkscape:showpageshadow="false">
    <inkscape:grid
       type="xygrid"
       id="grid866"
       originx="5.000012"
       originy="-34.999992" />
  </sodipodi:namedview>
  <metadata
     id="metadata878">
    <rdf:RDF>
      <cc:Work
         rdf:about="">
        <dc:format>image/svg+xml</dc:format>
        <dc:type
           rdf:resource="http://purl.org/dc/dcmitype/StillImage" />
      </cc:Work>
    </rdf:RDF>
  </metadata>
  <g
     inkscape:label="Layer 1"
     inkscape:groupmode="layer"
     id="layer1"
     transform="translate(-204.82493,-721.24546)">
    <g
       id="notification-progress-active"
       transform="translate(248.82493,685.24546)">
      <path
         style="fill:none"
         inkscape:connector-curvature="0"
         id="empty-rectangle"
         d="M 1,1 H 23 V 23 H 1 Z" />
      <circle
         id="circle-blue"
         cx="12"
         cy="12"
         r="8"
         class="ColorScheme-ButtonFocus"
         style="fill:#489ab1;fill-opacity:1" />
    </g>
    <g
       id="notification-progress-inactive"
       transform="translate(248.82493,725.24546)">
      <path
         style="fill:none"
         inkscape:connector-curvature="0"
         id="path10"
         d="M 1,1 H 23 V 23 H 1 Z" />
      <circle
         id="circle-transparent"
         cx="12"
         cy="12"
         r="8"
         class="ColorScheme-Text"
         style="opacity:0.4;fill:#489ab1;fill-opacity:1" />
    </g>
    <path
       inkscape:connector-curvature="0"
       id="expander-bottom"
       d="m 191.82493,709.24546 2,-2 2,2 z"
       class="ColorScheme-Text"
       style="fill:#489ab1;fill-opacity:1" />
    <path
       inkscape:connector-curvature="0"
       id="expander-top"
       d="m 191.82493,703.24546 2,2 2,-2 z"
       class="ColorScheme-Text"
       style="fill:#489ab1;fill-opacity:1" />
    <path
       inkscape:connector-curvature="0"
       id="expander-right"
       d="m 196.82493,704.24546 -2,2 2,2 z"
       class="ColorScheme-Text"
       style="fill:#489ab1;fill-opacity:1" />
    <path
       inkscape:connector-curvature="0"
       id="expander-left"
       d="m 190.82493,704.24546 2,2 -2,2 z"
       class="ColorScheme-Text"
       style="fill:#489ab1;fill-opacity:1" />
    <g
       id="notification-empty"
       transform="translate(248.82493,645.24546)">
      <path
         style="fill:none"
         inkscape:connector-curvature="0"
         id="path31"
         d="M 1,1 H 23 V 23 H 1 Z" />
      <path
         inkscape:connector-curvature="0"
         id="circle-outline"
         d="m 12,4 a 8,8 0 0 0 -8,8 8,8 0 0 0 8,8 8,8 0 0 0 8,-8 8,8 0 0 0 -8,-8 z m 0,1 a 7,7 0 0 1 7,7 7,7 0 0 1 -7,7 7,7 0 0 1 -7,-7 7,7 0 0 1 7,-7 z"
         class="ColorScheme-Text"
         style="fill:#d6dbf1;fill-opacity:1" />
    </g>
    <g
       id="notification-disabled">
      <path
         style="fill:none;stroke-width:1.45455"
         inkscape:connector-curvature="0"
         d="m 204.82493,641.24546 h 32 v 32 h -32 z"
         id="path25" />
      <path
         d="m 220.91712,645.24546 c 1.01451,0 1.46936,0.76975 1.46936,1.6793 2.20413,0.38488 4.37311,1.67931 4.65298,4.12832 0.52482,5.14284 0.80472,8.85124 4.93283,12.48979 0.07,1.43439 -0.41987,1.99418 -1.64429,2.65881 h -18.82191 c -1.25943,-0.6648 -1.71427,-1.25944 -1.6793,-2.65881 4.16333,-3.70845 4.40826,-7.2771 4.93283,-12.48979 0.2799,-2.44905 2.48403,-3.74346 4.68812,-4.12832 0,-0.90955 0.41986,-1.6793 1.46935,-1.6793 z m -9.55108,18.9269 c 0.10496,0.20993 0.3149,0.38487 0.48985,0.48985 h 18.08733 c 0.17495,-0.10496 0.41987,-0.27991 0.48986,-0.48985 -3.98835,-3.67348 -4.37312,-7.83681 -4.89812,-12.90936 -1.04949,-3.95338 -8.22167,-3.95338 -9.23609,0 -0.90955,5.28297 -0.48985,8.85124 -4.93283,12.90936 z"
         fill-rule="evenodd"
         id="path67"
         style="fill:#bf616a;fill-opacity:1;stroke-width:0.0428569" />
      <path
         d="m 222.94598,666.62163 c 0.41986,1.22442 -0.69977,2.62383 -2.02919,2.62383 -1.32942,0 -2.44906,-1.39937 -2.0292,-2.62383 z"
         fill-rule="evenodd"
         id="path69"
         style="fill:#bf616a;fill-opacity:1;stroke-width:0.0428569" />
    </g>
    <g
       id="notification-inactive">
      <path
         style="fill:none"
         inkscape:connector-curvature="0"
         d="m 209.82493,686.24546 h 22 v 22 h -22 z"
         id="path6" />
      <path
         d="m 220.86973,689.24546 c 0.67634,0 0.97957,0.51317 0.97957,1.11953 1.46942,0.25659 2.91541,1.11954 3.10198,2.75222 0.34988,3.42855 0.53648,5.90082 3.28856,8.32652 0.0466,0.95626 -0.27992,1.32945 -1.0962,1.77254 h -12.54793 c -0.83963,-0.4432 -1.14285,-0.83963 -1.11954,-1.77254 2.77556,-2.4723 2.93884,-4.8514 3.28856,-8.32652 0.1866,-1.63271 1.65601,-2.49565 3.12541,-2.75222 0,-0.60636 0.27991,-1.11953 0.97956,-1.11953 z m -6.36739,12.61793 c 0.07,0.13995 0.20993,0.25658 0.32657,0.32657 h 12.05822 c 0.11663,-0.07 0.27991,-0.1866 0.32657,-0.32657 -2.6589,-2.44899 -2.91542,-5.22454 -3.26542,-8.60624 -0.69965,-2.63559 -5.48111,-2.63559 -6.15739,0 -0.60637,3.52198 -0.32657,5.90083 -3.28855,8.60624 z"
         fill-rule="evenodd"
         id="path67-3"
         style="fill:#d6dbf1;fill-opacity:1;stroke-width:0.0285712" />
      <path
         d="m 222.2223,703.49624 c 0.2799,0.81628 -0.46652,1.74922 -1.3528,1.74922 -0.88628,0 -1.6327,-0.93291 -1.35279,-1.74922 z"
         fill-rule="evenodd"
         id="path69-6"
         style="fill:#d6dbf1;fill-opacity:1;stroke-width:0.0285712" />
    </g>
    <g
       id="notification-active">
      <path
         style="fill:none;stroke-width:1.45455"
         inkscape:connector-curvature="0"
         d="m 204.82493,721.24546 h 32 v 32 h -32 z"
         id="path14" />
      <path
         d="m 211.93222,725.34411 c 0.84134,-0.29704 1.7321,0.0988 2.029,0.89077 0,0.0988 0.0495,0.14851 0.0495,0.24741 2.2764,-0.44524 4.89916,0 6.03744,2.27639 2.42474,4.84973 4.05776,8.36273 9.40208,10.39167 0.5938,1.3855 0.34638,2.12775 -0.64339,3.21652 l -18.40864,6.87859 c -1.43506,-0.14849 -2.07843,-0.59377 -2.57326,-1.97949 l 0.14851,-0.29699 c 2.57328,-4.75034 1.38545,-8.85779 0.0988,-13.70756 -0.64337,-2.47418 1.03913,-4.55276 3.06795,-5.74038 -0.0495,-0.0495 -0.0495,-0.0988 -0.0988,-0.19781 -0.29703,-0.79172 0.0988,-1.68249 0.89076,-1.97954 z m -2.2266,7.91753 c 1.28657,4.94838 2.37513,9.10511 -0.14852,14.05386 0.1978,0.19788 0.44523,0.24744 0.64336,0.297 l 17.71555,-6.63093 c 0.0989,-0.14849 0.24747,-0.39593 0.29703,-0.59383 -5.29504,-2.17734 -7.17529,-6.08663 -9.55036,-10.88668 -2.47416,-3.46387 -9.45193,-0.84116 -9.05593,3.41461 l 0.099,0.34631 z"
         fill-rule="evenodd"
         id="path67-7"
         style="fill:#d6dbf1;fill-opacity:1;stroke-width:0.0428582" />
      <path
         d="m 223.26468,744.94038 c 0.0989,0.14852 0.19791,0.34639 0.29703,0.54427 0.49484,1.33613 -0.14852,2.87013 -1.48469,3.365 -1.33607,0.54425 -2.82053,-0.14851 -3.31536,-1.43503 -0.0989,-0.19789 -0.14852,-0.44535 -0.19793,-0.64339 l 4.70104,-1.83101 z"
         fill-rule="evenodd"
         id="path69-5"
         style="fill:#d6dbf1;fill-opacity:1;stroke-width:0.0428582" />
      <path
         d="m 224.32593,727.38988 c 3.80625,1.5009 5.57519,4.82493 6.21869,8.68452 l 1.17941,-0.16089 c -0.69701,-4.34235 -2.73407,-7.93415 -6.91563,-9.64973 l -0.48243,1.12572 z"
         id="path71"
         style="fill:#489ab1;fill-opacity:1;stroke-width:0.0464297" />
      <path
         d="m 228.02539,726.58579 c 2.46598,0.96499 3.59171,3.05554 3.96693,5.57514 l 0.80417,-0.10708 c -0.48246,-2.78781 -1.76903,-5.09285 -4.44958,-6.21876 l -0.32175,0.75055 z"
         id="path73"
         style="fill:#489ab1;fill-opacity:1;stroke-width:0.0464297" />
      <path
         d="m 230.49122,725.78144 c 1.76905,0.69698 2.5732,2.19809 2.84123,4.02079 l 0.5361,-0.10717 c -0.32171,-1.98351 -1.23309,-3.64551 -3.16297,-4.4496 z"
         id="path75"
         style="fill:#489ab1;fill-opacity:1;stroke-width:0.0464297" />
    </g>
  </g>
</svg>
