<?xml version="1.0" encoding="UTF-8" standalone="no"?>
<svg
   width="32"
   height="32"
   version="1.1"
   id="svg12"
   sodipodi:docname="printer.svg"
   inkscape:version="1.1.1 (3bf5ae0d25, 2021-09-20)"
   xmlns:inkscape="http://www.inkscape.org/namespaces/inkscape"
   xmlns:sodipodi="http://sodipodi.sourceforge.net/DTD/sodipodi-0.dtd"
   xmlns:xlink="http://www.w3.org/1999/xlink"
   xmlns="http://www.w3.org/2000/svg"
   xmlns:svg="http://www.w3.org/2000/svg"
   xmlns:rdf="http://www.w3.org/1999/02/22-rdf-syntax-ns#"
   xmlns:cc="http://creativecommons.org/ns#"
   xmlns:dc="http://purl.org/dc/elements/1.1/">
  <metadata
     id="metadata18">
    <rdf:RDF>
      <cc:Work
         rdf:about="">
        <dc:format>image/svg+xml</dc:format>
        <dc:type
           rdf:resource="http://purl.org/dc/dcmitype/StillImage" />
      </cc:Work>
    </rdf:RDF>
  </metadata>
  <defs
     id="defs16">
    <linearGradient
       inkscape:collect="always"
       id="linearGradient1126">
      <stop
         style="stop-color:#489ab1;stop-opacity:1"
         id="stop1122" />
      <stop
         offset="1"
         style="stop-color:#2c5f6d;stop-opacity:1"
         id="stop1124" />
    </linearGradient>
    <linearGradient
       inkscape:collect="always"
       id="linearGradient4930"
       xlink:href="#linearGradient4191"
       y1="533.79797"
       y2="537.79797"
       gradientUnits="userSpaceOnUse"
       x2="0"
       gradientTransform="matrix(0.51281992,0,0,0.46153843,-199.18191,-226.69382)" />
    <linearGradient
       inkscape:collect="always"
       id="linearGradient4386"
       xlink:href="#linearGradient4903"
       y1="505.798"
       y2="503.798"
       gradientUnits="userSpaceOnUse"
       x2="0"
       gradientTransform="matrix(0.46153843,0,0,0.46153843,-178.22976,-232.23228)" />
    <linearGradient
       inkscape:collect="always"
       id="linearGradient4930-5"
       xlink:href="#linearGradient4191"
       y1="533.79797"
       y2="537.79797"
       gradientUnits="userSpaceOnUse"
       x2="0"
       gradientTransform="matrix(0.34187994,0,0,0.30769228,-132.3546,-149.85521)" />
    <linearGradient
       inkscape:collect="always"
       id="linearGradient4386-3"
       xlink:href="#linearGradient4903"
       y1="505.798"
       y2="503.798"
       gradientUnits="userSpaceOnUse"
       x2="0"
       gradientTransform="matrix(0.30769228,0,0,0.30769228,-118.3865,-153.54752)" />
    <linearGradient
       inkscape:collect="always"
       xlink:href="#linearGradient1126"
       id="linearGradient887"
       x1="-23.453617"
       y1="15.307763"
       x2="-8.6844177"
       y2="15.307763"
       gradientUnits="userSpaceOnUse"
       gradientTransform="translate(32,10.000001)" />
    <linearGradient
       inkscape:collect="always"
       xlink:href="#linearGradient1126"
       id="linearGradient895"
       x1="6.1309228"
       y1="18.145844"
       x2="15.977055"
       y2="18.145844"
       gradientUnits="userSpaceOnUse" />
  </defs>
  <sodipodi:namedview
     pagecolor="#ffffff"
     bordercolor="#000000"
     borderopacity="1"
     objecttolerance="10"
     gridtolerance="10"
     guidetolerance="10"
     inkscape:pageopacity="0"
     inkscape:pageshadow="2"
     inkscape:window-width="1920"
     inkscape:window-height="1006"
     id="namedview14"
     showgrid="false"
     inkscape:zoom="13.876971"
     inkscape:cx="17.29484"
     inkscape:cy="18.087521"
     inkscape:window-x="0"
     inkscape:window-y="0"
     inkscape:window-maximized="1"
     inkscape:current-layer="svg12"
     inkscape:document-rotation="0"
     inkscape:lockguides="false"
     inkscape:pagecheckerboard="0"
     inkscape:showpageshadow="false">
    <inkscape:grid
       type="xygrid"
       id="grid908"
       originx="-1e-06"
       originy="-4.6325681e-08" />
  </sodipodi:namedview>
  <g
     id="printer">
    <rect
       style="opacity:0.00100002"
       width="32"
       height="32"
       x="0"
       y="4.6325681e-08"
       id="rect7"
       ry="2.173614" />
    <rect
       width="23.999989"
       x="3.9310131"
       y="11.461615"
       rx="0"
       height="12.923076"
       style="fill:#d6dbf1;fill-opacity:1;stroke-width:0.923077;stroke-linecap:round;stroke-linejoin:round"
       id="rect4288"
       ry="2.3511491" />
    <rect
       width="24.000004"
       x="3.9309998"
       y="24.384705"
       height="0.92306489"
       style="fill:#737b81;stroke-width:0.923077;stroke-linecap:round;stroke-linejoin:round"
       id="rect4290"
       ry="0.39116549" />
    <rect
       width="18.461515"
       x="6.7002296"
       y="23.461603"
       height="3.2307689"
       style="fill:url(#linearGradient4930);stroke-width:0.230769;stroke-linecap:round;stroke-linejoin:round"
       id="rect4868" />
    <rect
       width="16.615362"
       x="7.6233063"
       y="23.461603"
       height="4.6153603"
       style="fill:#eff0f1;stroke-width:0.230769;stroke-linecap:round;stroke-linejoin:round"
       id="rect4299"
       ry="0.52202606" />
    <rect
       width="16.615383"
       x="7.6233063"
       y="3.9866757"
       height="9.3210926"
       style="fill:#d5dadc;fill-opacity:1;stroke-width:0.259267;stroke-linecap:round;stroke-linejoin:round"
       id="rect4868-5"
       ry="1.2465721" />
    <rect
       width="14.76923"
       x="8.5463829"
       y="4.0769997"
       height="7.384613"
       style="fill:url(#linearGradient4386);stroke-width:0.230769;stroke-linecap:round;stroke-linejoin:round"
       id="rect4299-2"
       ry="0.92307663" />
    <rect
       width="14.769199"
       x="8.5463829"
       y="23.461603"
       height="3.6923211"
       style="fill:url(#linearGradient887);fill-opacity:1;stroke-width:0.230769;stroke-linecap:round;stroke-linejoin:round"
       id="rect4299-3"
       ry="0.54380208" />
    <path
       inkscape:connector-curvature="0"
       style="opacity:0.2;fill:url(#linearGradient4950);fill-rule:evenodd;stroke-width:0.461538;stroke-linecap:round"
       id="path4942"
       d="M 6.700225,23.461615 11.315609,28.077 h 11.076922 v -1.384616 h 0.923077 v -3.230769 z" />
    <rect
       width="14.76923"
       x="8.5463829"
       y="5.0000763"
       height="5.5384612"
       style="fill:#f1f2f4;fill-opacity:1;stroke-width:0.230769;stroke-linecap:round;stroke-linejoin:round"
       id="rect4299-2-2-8"
       ry="0.43310368" />
    <rect
       width="14.76923"
       x="8.5463829"
       y="5.9231534"
       height="7.3846149"
       style="fill:url(#linearGradient4394);stroke-width:0.230769;stroke-linecap:round;stroke-linejoin:round"
       id="rect4299-2-2" />
    <path
       inkscape:connector-curvature="0"
       style="fill:url(#linearGradient4545);stroke-width:0.923077;stroke-linecap:round;stroke-linejoin:round"
       id="rect4512"
       d="M 3.931003,12.384705 V 22.538552 H 4.85408 c 0.511394,0 0.923077,-0.411683 0.923077,-0.923076 v -8.307695 c 0,-0.511393 -0.461538,-0.923076 -0.923077,-0.923076 z" />
    <path
       inkscape:connector-curvature="0"
       style="fill:url(#linearGradient4545-5);stroke-width:0.923077;stroke-linecap:round;stroke-linejoin:round"
       id="rect4512-0"
       d="m 27.931002,12.384705 v 10.153847 h -0.923077 c -0.511394,0 -0.923077,-0.411683 -0.923077,-0.923076 v -8.307695 c 0,-0.511393 0.461538,-0.923076 0.923077,-0.923076 z" />
    <circle
       cx="27.007921"
       cy="21.61545"
       style="fill:#e50060;fill-opacity:1;stroke-width:0.923077;stroke-linecap:round;stroke-linejoin:round"
       r="0.46153843"
       id="path4292" />
    <rect
       width="20.307692"
       x="5.777153"
       y="20.692373"
       height="0.46153843"
       style="fill:#ffffff;fill-opacity:1;stroke-width:0.923077;stroke-linecap:round;stroke-linejoin:bevel"
       id="rect4826"
       ry="0.16564459" />
    <path
       inkscape:connector-curvature="0"
       style="fill:url(#linearGradient4852);stroke-width:0.923077;stroke-linecap:round;stroke-linejoin:bevel"
       id="rect4841"
       d="m 7.62332,13.307758 v 4.615387 c 0,0.511385 0.411692,0.923077 0.923077,0.923077 h 14.76923 c 0.511384,0 0.923076,-0.411692 0.923076,-0.923077 v -4.615387 z" />
    <path
       inkscape:connector-curvature="0"
       style="opacity:0.2;fill:url(#linearGradient4950-6);fill-rule:evenodd;stroke-width:0.461538"
       id="path4942-8"
       d="m 7.623301,13.307768 6.461539,6.46154 h 10.153845 v -6.46154 z" />
    <path
       inkscape:connector-curvature="0"
       style="fill:#489ab1;fill-opacity:1;stroke-width:1.6115"
       id="rect4119"
       d="m 14.3115,14 c -0.223152,0 -0.402875,0.179696 -0.402875,0.402875 0,0.223199 0.179732,0.402875 0.402875,0.402875 0.223152,0 0.402875,-0.179684 0.402875,-0.402875 C 14.714375,14.179675 14.534643,14 14.3115,14 Z m 2.820125,0 -0.80575,0.80575 1.208625,1.208625 -0.402875,0.402875 -0.402875,0.402875 -0.402875,0.402875 0.80575,0.80575 L 17.5345,17.625875 17.937375,17.223 18.340249,16.820125 19.146,16.014375 Z m -3.827312,2.41725 c -0.334751,0 -0.604313,0.26952 -0.604313,0.604312 0,0.334792 0.269511,0.604313 0.604313,0.604313 0.33475,0 0.604312,-0.26952 0.604312,-0.604312 0,-0.334792 -0.269511,-0.604313 -0.604312,-0.604313 z m 1.812936,2.41725 c -0.446385,0 -0.805749,0.359365 -0.805749,0.80575 0,0.446386 0.359364,0.80575 0.805749,0.80575 0.446387,0 0.805751,-0.359364 0.805751,-0.80575 0,-0.446385 -0.359364,-0.80575 -0.805751,-0.80575 z" />
  </g>
  <g
     id="22-22-printer"
     transform="translate(32,10.000001)">
    <rect
       style="opacity:0.00100002"
       width="22"
       height="22"
       x="0"
       y="0"
       id="rect2" />
    <rect
       width="15.999991"
       x="3.0540094"
       y="8.9150763"
       rx="0"
       height="8.6153841"
       style="fill:#d6dbf1;fill-opacity:1;stroke-width:0.615385;stroke-linecap:round;stroke-linejoin:round"
       id="rect4288-9"
       ry="1.2965589" />
    <rect
       width="16.000002"
       x="3.0539999"
       y="17.53047"
       height="0.61537659"
       style="fill:#737b81;stroke-width:0.615385;stroke-linecap:round;stroke-linejoin:round"
       id="rect4290-1"
       ry="0.3076883" />
    <rect
       width="12.307677"
       x="4.9001536"
       y="16.91507"
       height="2.153846"
       style="fill:url(#linearGradient4930-5);stroke-width:0.153846;stroke-linejoin:round"
       id="rect4868-2" />
    <rect
       width="11.076908"
       x="5.5155382"
       y="16.91507"
       height="3.0769067"
       style="fill:#eff0f1;stroke-width:0.153846;stroke-linejoin:round"
       id="rect4299-7"
       ry="0.45578319" />
    <rect
       width="11.076922"
       x="5.5155382"
       y="4.1844049"
       height="5.9614406"
       style="fill:#d4d9dd;fill-opacity:1;stroke-width:0.169295;stroke-linejoin:round"
       id="rect4868-5-0"
       ry="0.58748615" />
    <rect
       width="9.8461533"
       x="6.1309228"
       y="3.9920001"
       height="4.9230752"
       style="fill:url(#linearGradient4386-3);stroke-width:0.153846;stroke-linejoin:round"
       id="rect4299-2-9" />
    <rect
       width="9.8461323"
       x="6.1309228"
       y="16.91507"
       height="2.4615474"
       style="opacity:1;fill:url(#linearGradient895);fill-opacity:1;stroke-width:0.153846;stroke-linejoin:round"
       id="rect4299-3-3"
       ry="0.52072859" />
    <path
       inkscape:connector-curvature="0"
       style="opacity:0.2;fill:url(#linearGradient4950);fill-rule:evenodd;stroke-width:0.307692"
       id="path4942-6"
       d="M 4.9001502,16.915077 7.977073,19.992 h 7.384615 v -0.923077 h 0.615384 v -2.153846 z" />
    <rect
       width="9.8461533"
       x="6.1309228"
       y="4.6073847"
       height="3.6923075"
       style="fill:#f1f2f4;fill-opacity:1;stroke-width:0.153846;stroke-linejoin:round"
       id="rect4299-2-2-8-0" />
    <rect
       width="9.8461533"
       x="6.1309228"
       y="5.2227693"
       height="4.9230766"
       style="fill:url(#linearGradient4394);stroke-width:0.153846;stroke-linejoin:round"
       id="rect4299-2-2-6" />
    <path
       inkscape:connector-curvature="0"
       style="fill:url(#linearGradient4545);stroke-width:0.615385;stroke-linecap:round;stroke-linejoin:round"
       id="rect4512-2"
       d="m 3.0540026,9.5304699 v 6.7692321 h 0.6153846 c 0.3409292,0 0.6153845,-0.274456 0.6153845,-0.615385 v -5.538463 c 0,-0.3409287 -0.3076922,-0.6153841 -0.6153845,-0.6153841 z" />
    <path
       inkscape:connector-curvature="0"
       style="fill:url(#linearGradient4545-5);stroke-width:0.615385;stroke-linecap:round;stroke-linejoin:round"
       id="rect4512-0-6"
       d="m 19.054001,9.5304699 v 6.7692321 h -0.615384 c -0.34093,0 -0.615385,-0.274456 -0.615385,-0.615385 v -5.538463 c 0,-0.3409287 0.307692,-0.6153841 0.615385,-0.6153841 z" />
    <circle
       cx="18.438614"
       cy="15.684299"
       style="fill:#e50060;fill-opacity:1;stroke-width:0.615385;stroke-linecap:round;stroke-linejoin:round"
       r="0.30769229"
       id="path4292-1" />
    <rect
       width="13.538461"
       x="4.2847691"
       y="15.068915"
       height="0.30769229"
       style="fill:#ffffff;fill-opacity:1;stroke-width:0.615385;stroke-linecap:round;stroke-linejoin:bevel"
       id="rect4826-8"
       ry="0.15384614" />
    <path
       inkscape:connector-curvature="0"
       style="fill:url(#linearGradient4852);stroke-width:0.615385;stroke-linecap:round;stroke-linejoin:bevel"
       id="rect4841-7"
       d="m 5.515547,10.145839 v 3.076924 c 0,0.340923 0.2744615,0.615385 0.6153846,0.615385 h 9.8461534 c 0.340923,0 0.615384,-0.274462 0.615384,-0.615385 v -3.076924 z" />
    <path
       inkscape:connector-curvature="0"
       style="opacity:0.2;fill:url(#linearGradient4950-6);fill-rule:evenodd;stroke-width:0.307692"
       id="path4942-8-9"
       d="m 5.5155347,10.145845 4.3076919,4.307694 h 6.7692304 v -4.307694 z" />
    <path
       inkscape:connector-curvature="0"
       style="fill:#489ab1;fill-opacity:1;stroke-width:1.00387"
       id="rect4119-2"
       d="m 10.00775,10.599999 c -0.139522,0 -0.25193,0.11156 -0.25193,0.249993 0,0.138439 0.112425,0.249967 0.25193,0.249967 0.139512,0 0.25193,-0.11156 0.25193,-0.249967 0,-0.138461 -0.112425,-0.249993 -0.25193,-0.249993 z m 1.763562,0 -0.503875,0.5 0.755812,0.75 -0.251931,0.249967 -0.251904,0.250028 -0.25193,0.249967 0.503873,0.5 0.25194,-0.250002 0.25193,-0.249993 0.251905,-0.249967 0.503901,-0.5 z m -2.3934058,1.5 C 9.1685813,12.099999 9,12.26723 9,12.474999 c 0,0.207716 0.1685228,0.375 0.3779062,0.375 0.2092938,0 0.3779058,-0.167231 0.3779058,-0.375 0,-0.207685 -0.168527,-0.375 -0.3779058,-0.375 z m 1.1337188,1.5 c -0.27915,0 -0.503875,0.222954 -0.503875,0.5 0,0.277003 0.224682,0.5 0.503875,0.5 0.27915,0 0.503874,-0.223072 0.503874,-0.5 0,-0.277003 -0.224682,-0.5 -0.503874,-0.5 z" />
  </g>
</svg>
