<?xml version="1.0" encoding="UTF-8" standalone="no"?>
<svg
   width="32"
   height="32"
   version="1"
   id="svg14"
   sodipodi:docname="strawberry.svg"
   inkscape:version="1.2.2 (b0a8486541, 2022-12-01)"
   xmlns:inkscape="http://www.inkscape.org/namespaces/inkscape"
   xmlns:sodipodi="http://sodipodi.sourceforge.net/DTD/sodipodi-0.dtd"
   xmlns="http://www.w3.org/2000/svg"
   xmlns:svg="http://www.w3.org/2000/svg">
  <sodipodi:namedview
     id="namedview16"
     pagecolor="#cccccc"
     bordercolor="#111111"
     borderopacity="1"
     inkscape:showpageshadow="2"
     inkscape:pageopacity="0"
     inkscape:pagecheckerboard="0"
     inkscape:deskcolor="#808080"
     showgrid="false"
     inkscape:zoom="10.429825"
     inkscape:cx="17.354078"
     inkscape:cy="20.853658"
     inkscape:window-width="1920"
     inkscape:window-height="1002"
     inkscape:window-x="0"
     inkscape:window-y="0"
     inkscape:window-maximized="1"
     inkscape:current-layer="svg14">
    <inkscape:grid
       type="xygrid"
       id="grid247"
       originx="0"
       originy="0" />
  </sodipodi:namedview>
  <defs
     id="defs5">
    <style
       id="current-color-scheme"
       type="text/css">
   .ColorScheme-Background {color:#181818; } .ColorScheme-ButtonBackground { color:#343434; } .ColorScheme-Highlight { color:#4285f4; } .ColorScheme-Text { color:#dfdfdf; } .ColorScheme-ViewBackground { color:#242424; } .ColorScheme-NegativeText { color:#f44336; } .ColorScheme-PositiveText { color:#4caf50; } .ColorScheme-NeutralText { color:#ff9800; }
  </style>
  </defs>
  <g
     id="strawberry">
    <rect
       style="opacity:0.00100002"
       width="32"
       height="32"
       x="0"
       y="0"
       id="rect9" />
    <path
       style="fill:#d6dbf1;stroke-width:0.939158;fill-opacity:1"
       class="ColorScheme-Text"
       d="m 4.1246366,17.944888 c 0.037294,0.116103 0.2849116,0.07668 0.5734287,-0.09116 0,0 0.9264756,-0.511628 1.2111432,-2.116972 0.1648735,-1.10631 0.4398386,-1.19079 1.0335422,-0.313636 0.2586872,0.382126 0.6577388,0.820986 0.8860908,0.974509 0.3766186,0.253207 0.446853,0.09551 0.7692141,-1.69024 0.1954526,-1.082779 0.4444,-2.184012 0.5531884,-2.448917 0.1888714,-0.459926 0.2374797,-0.458137 1.060237,0.07091 0.9185,0.590637 2.770871,1.052624 3.417851,0.852628 0.349775,-0.108128 0.328702,-0.270899 -0.202494,-1.547089 C 13.10006,10.849832 12.72876,9.988817 12.602969,9.7221453 l -0.228941,-0.4851307 1.78338,-0.470808 c 0.98038,-0.2594657 2.049176,-0.4633937 2.37634,-0.4519515 0.327161,0.011437 0.626368,-0.033487 0.665182,-0.1008064 C 17.362344,7.930033 16.57539,7.223594 15.67787,6.8493474 14.760297,6.466738 14.732569,6.4334523 15.134761,6.1674681 15.790563,5.4876802 16.425845,5.0786013 16.906415,4.1898063 16.872849,4.0348837 16.64334,3.9803781 16.217035,4.0061072 14.90458,4.0853014 13.777758,4.6078222 12.76204,5.6094379 12.21472,6.1491721 11.288664,6.8001099 10.702752,7.0545997 10.116849,7.3091145 9.4445005,7.6371935 9.209846,7.7837495 8.8532711,8.006445 8.5620553,7.8790048 7.4379237,7.0044343 6.157952,6.0086239 5.5558137,5.8340196 5.3863447,6.4126423 5.3442397,6.556407 5.7883294,7.1080967 6.3730015,7.6387191 6.9576714,8.1693387 7.4766588,8.7307265 7.526595,8.8861899 7.5765299,9.04165 7.2619422,9.6760763 6.8269669,10.294752 c -0.7559728,1.075194 -0.8582705,1.144992 -2.3369237,1.602082 -1.4049964,0.434316 -1.541463,0.519071 -1.47753,0.924669 0.051684,0.32785 0.2720197,0.460317 0.8269044,0.494944 0.4157227,0.02592 0.7786341,0.117046 0.806458,0.203671 0.027832,0.08666 -0.093943,1.071503 -0.2691529,2.188892 -0.1752689,1.117191 -0.2881156,2.12371 -0.2520861,2.235878 z m 1.5407485,1.468448 c 0.04886,0.11359 0.065073,0.178746 0.1261885,0.312874 1.3717997,3.010597 4.3422734,4.957715 9.9296724,6.508147 1.687089,0.468142 3.854811,1.069812 4.816541,1.337405 4.051443,1.127281 7.466426,-0.03053 8.177603,-2.773084 0.459645,-1.772531 0.36982,-3.319735 -0.32252,-5.599718 -0.348003,-1.145996 -0.79448,-2.843243 -0.992182,-3.77179 -0.551603,-2.590685 -0.658404,-2.904742 -1.565994,-4.567714 -1.01579,-1.8612481 -2.298126,-3.1416594 -3.97306,-3.9714993 -0.864797,-0.4284591 -2.532957,-0.7769131 -3.955627,-0.9334552 -0.01874,0.021547 -0.03719,0.04413 -0.05586,0.06594 0.09525,0.074746 0.228638,0.1170173 0.318296,0.1973379 0.238397,0.2135553 0.462731,0.434222 0.676975,0.8033372 0.214251,0.3691146 0.566028,1.1302554 0.0359,2.0496764 -0.480163,0.8327616 -0.898134,0.8296653 -1.123021,0.90867 -0.224785,0.07931 -0.373849,0.102493 -0.51731,0.12437 -0.286931,0.04376 -0.537254,0.05413 -0.815705,0.04439 0.328639,0.01149 -0.118792,0.01802 -0.494964,0.08938 -0.268463,0.05095 -0.601524,0.132456 -0.922476,0.2103 0.0793,0.18812 0.127136,0.286947 0.207683,0.480473 0.272594,0.654914 0.460243,0.960192 0.551212,1.654545 0.04545,0.347177 0.026,0.998709 -0.403127,1.556486 -0.429134,0.557778 -0.943026,0.714525 -1.174273,0.786007 -1.265943,0.391334 -1.865692,0.10831 -2.68906,-0.09711 -0.310404,-0.07746 -0.595957,-0.26003 -0.899995,-0.365673 -0.03566,0.18168 -0.07205,0.336652 -0.105327,0.521081 C 10.331309,15.89014 10.32316,16.298991 9.9947773,17.01939 9.9126833,17.199469 9.8035991,17.424582 9.53227,17.695785 9.260948,17.966982 8.7435114,18.259502 8.2408648,18.313977 7.4678041,18.397767 7.1365199,18.199979 6.9135909,18.039222 6.8310665,18.16241 6.7933384,18.399206 6.7088577,18.50306 6.2690842,19.043691 5.702794,19.390516 5.6653997,19.413341 Z m 4.8753309,-0.399018 c -0.101108,-0.269984 -0.114143,-0.541764 0.01055,-0.766923 0.332525,-0.600429 1.516786,-0.639975 2.209387,-0.301142 0.692596,0.338832 0.983454,1.100029 0.650932,1.700457 -0.332525,0.600428 -1.162767,0.813164 -1.855366,0.474332 -0.432866,-0.211771 -0.846995,-0.656749 -1.015502,-1.106725 z m 5.641639,4.964317 c -0.101109,-0.269985 -0.114149,-0.54177 0.01056,-0.766931 0.332525,-0.600424 1.516793,-0.639968 2.209391,-0.301137 0.692593,0.338828 0.983456,1.100034 0.650934,1.700458 -0.33253,0.600428 -1.162766,0.813169 -1.855365,0.474333 -0.432877,-0.211768 -0.847001,-0.656744 -1.015508,-1.106723 z M 15.70264,19.335299 c -0.101109,-0.269985 -0.114141,-0.54177 0.01056,-0.766931 0.332523,-0.600427 1.516784,-0.639972 2.209382,-0.301138 0.692598,0.338831 0.98346,1.100033 0.650938,1.700457 -0.332525,0.600425 -1.162765,0.813169 -1.855363,0.474333 -0.432877,-0.211772 -0.847006,-0.65675 -1.015516,-1.106725 z m 0.801012,-6.95589 c -0.101098,-0.269987 -0.11414,-0.541769 0.01056,-0.76693 0.332528,-0.60043 1.516783,-0.639968 2.209383,-0.30114 0.692599,0.338834 0.983463,1.100033 0.650939,1.700462 -0.332525,0.600424 -1.162765,0.813165 -1.855366,0.474327 -0.432874,-0.211767 -0.846999,-0.656743 -1.015507,-1.106722 z m 5.761011,11.635693 c -0.101109,-0.269985 -0.114141,-0.541769 0.01056,-0.766927 0.332525,-0.600429 1.516787,-0.639971 2.209387,-0.301141 0.692598,0.338829 0.983458,1.100035 0.650934,1.700461 -0.332526,0.600426 -1.162768,0.813166 -1.855361,0.47433 C 22.8473,24.910059 22.433174,24.465082 22.26467,24.015102 Z m 0.160648,-5.79961 c -0.101109,-0.269988 -0.11414,-0.541773 0.01056,-0.766931 0.332526,-0.600428 1.516789,-0.63997 2.209387,-0.301141 0.692599,0.338833 0.983458,1.100035 0.650937,1.700462 -0.332526,0.600425 -1.162767,0.813165 -1.855362,0.474336 -0.432871,-0.211767 -0.846999,-0.656747 -1.015508,-1.106721 z M 21.665585,12.700385 C 21.564486,12.4304 21.55144,12.15862 21.67614,11.933459 c 0.332519,-0.600427 1.516784,-0.639976 2.209385,-0.301139 0.692596,0.338831 0.983454,1.100028 0.65093,1.700454 -0.332526,0.600433 -1.162763,0.813167 -1.855362,0.474332 -0.432878,-0.211772 -0.847002,-0.656745 -1.015509,-1.106726 z"
       id="path11" />
  </g>
  <g
     id="22-22-strawberry"
     transform="translate(32,10)">
    <rect
       style="opacity:0.00100002"
       width="22"
       height="22"
       x="0"
       y="0"
       id="rect4" />
    <path
       style="color:#dfdfdf;fill:#d6dbf1;stroke-width:0.63803;fill-opacity:1"
       class="ColorScheme-Text"
       d="m 2.7785948,12.29659 c 0.025813,0.07741 0.1972463,0.05113 0.3969882,-0.06077 0,0 0.6414069,-0.341086 0.8384841,-1.411315 0.1141433,-0.73754 0.3045034,-0.79386 0.7155296,-0.209091 0.1790912,0.254751 0.4553572,0.547324 0.6134474,0.649673 0.2607357,0.168805 0.3093585,0.06367 0.5325323,-1.126828 C 6.0108897,9.4164088 6.1832381,8.6822526 6.2585525,8.5056494 6.3893094,8.1990325 6.4229616,8.2002245 6.992563,8.5529194 7.6284471,8.9466773 8.9108576,9.2546695 9.3587666,9.1213385 9.6009192,9.0492485 9.5863297,8.9407395 9.2185785,8.0899453 8.9923478,7.5665523 8.7352942,6.9925422 8.6482077,6.8147602 L 8.4897105,6.4913401 9.724358,6.177468 c 0.678724,-0.172977 1.418661,-0.3089291 1.645158,-0.3013011 0.226495,0.0076 0.433639,-0.02233 0.460508,-0.0672 0.113137,-0.188944 -0.431679,-0.6599031 -1.053039,-0.9094012 -0.635242,-0.2550731 -0.65444,-0.2772641 -0.376,-0.4545862 0.454017,-0.4531921 0.89383,-0.7259121 1.22653,-1.3184422 C 11.604274,3.0232562 11.445386,2.9869192 11.150254,3.0040712 10.241631,3.0568612 9.4615234,3.4052153 8.7583346,4.0729594 8.3794209,4.4327816 7.7383049,4.8667407 7.3326736,5.0364007 6.9270486,5.2060768 6.4615767,5.4247958 6.299123,5.5224998 6.0522643,5.6709639 5.8506531,5.5860098 5.0724084,5.0029567 4.1862741,4.3390835 3.7694096,4.2226805 3.6520853,4.6084286 3.6229356,4.7042686 3.9303813,5.0720657 4.3351541,5.4258138 4.7399253,5.7795599 5.0992246,6.153818 5.1337962,6.257461 5.1683664,6.361101 4.9505752,6.7840521 4.649438,7.1965022 4.1260721,7.9132983 4.0552514,7.9598304 3.031568,8.2645574 2.0588789,8.5541016 1.9644016,8.6106047 2.0086629,8.8810036 c 0.035776,0.2185671 0.1883223,0.3068781 0.5724726,0.3299631 0.2878078,0.01728 0.5390541,0.07803 0.5583175,0.1357799 0.019264,0.05777 -0.065037,0.7143364 -0.1863374,1.4592624 -0.1213399,0.744794 -0.1994646,1.415806 -0.1745208,1.490585 z m 1.0666713,0.978965 c 0.033823,0.07573 0.045047,0.119165 0.087364,0.208584 0.9497072,2.007065 3.0061888,3.305144 6.8743889,4.338766 1.167986,0.312094 2.668712,0.713207 3.334528,0.891603 2.804845,0.751521 5.169062,-0.02035 5.661413,-1.848724 0.318217,-1.181687 0.256034,-2.213156 -0.223279,-3.733144 C 19.338753,12.368642 19.029653,11.237143 18.892786,10.618111 18.510904,8.8909876 18.436965,8.6816165 17.808637,7.5729683 17.105396,6.3321361 16.217626,5.4785278 15.058056,4.9253017 14.459352,4.6396616 13.304472,4.4073595 12.319547,4.3029976 c -0.01296,0.01437 -0.02572,0.02942 -0.03869,0.04396 0.06596,0.049828 0.158286,0.07801 0.220358,0.131558 0.165043,0.1423711 0.320353,0.2894821 0.468677,0.5355592 0.148327,0.2460761 0.391863,0.7535032 0.02486,1.3664513 -0.332421,0.5551741 -0.621782,0.55311 -0.777474,0.6057802 -0.155621,0.05287 -0.258818,0.06833 -0.358139,0.08291 -0.198644,0.02917 -0.371942,0.036089 -0.564716,0.02959 0.227518,0.0077 -0.08226,0.01201 -0.342669,0.05959 -0.185862,0.03397 -0.41644,0.088301 -0.638638,0.1402002 0.05489,0.1254131 0.08803,0.1912981 0.143782,0.3203152 0.188716,0.4366101 0.31863,0.6401281 0.381608,1.1030302 0.03147,0.231452 0.018,0.6658062 -0.279091,1.0376581 -0.29709,0.371853 -0.6528607,0.476352 -0.812955,0.524006 -0.8764219,0.26089 -1.2916335,0.07221 -1.8616574,-0.06474 C 7.6699015,10.167226 7.4722119,10.045513 7.2617241,9.9750838 7.2370403,10.096204 7.2118475,10.199519 7.1888037,10.322472 7.0755099,10.926757 7.0698688,11.199324 6.8425268,11.67959 6.78569,11.799643 6.7101728,11.949718 6.5223295,12.13052 6.3344909,12.311318 5.9762652,12.506332 5.62828,12.542647 c -0.535196,0.05586 -0.7645465,-0.076 -0.9188815,-0.18317 -0.057123,0.08213 -0.083252,0.23999 -0.1417384,0.309226 -0.3044595,0.36042 -0.6965056,0.591638 -0.7223942,0.606854 z m 3.3752285,-0.266011 c -0.070004,-0.179989 -0.079017,-0.361177 0.00727,-0.511283 0.23021,-0.400286 1.0500824,-0.42665 1.5295753,-0.20076 0.4794898,0.225887 0.6808526,0.733352 0.4506455,1.133638 C 8.9777742,13.831423 8.402992,13.973248 7.9235,13.74736 7.623824,13.606178 7.3371194,13.309528 7.2204608,13.009544 Z m 3.9057464,3.309545 c -0.07001,-0.179991 -0.07904,-0.36118 0.007,-0.511287 0.230208,-0.400283 1.050086,-0.426646 1.529578,-0.200758 0.479488,0.225886 0.680854,0.733356 0.450646,1.133638 -0.230212,0.400286 -0.804991,0.542113 -1.284482,0.316221 -0.299684,-0.141177 -0.586387,-0.437827 -0.703046,-0.737814 z m -0.332109,-3.095558 c -0.07001,-0.179991 -0.07903,-0.36118 0.007,-0.511288 0.230209,-0.400283 1.050083,-0.426648 1.529573,-0.200758 0.479491,0.225888 0.680858,0.733356 0.450649,1.133638 -0.23021,0.400283 -0.80499,0.542113 -1.284481,0.316222 -0.299682,-0.141181 -0.586391,-0.437833 -0.70305,-0.737817 z m 0.554547,-4.6372604 c -0.07,-0.1799921 -0.07903,-0.3611802 0.007,-0.5112872 0.230214,-0.4002871 1.050082,-0.426645 1.529574,-0.20076 0.479492,0.2258891 0.680858,0.7333552 0.450651,1.1336411 -0.230169,0.4002833 -0.804952,0.5421103 -1.284444,0.3162182 -0.299682,-0.141178 -0.586384,-0.4378283 -0.703044,-0.737814 z m 3.988393,7.7571304 c -0.07001,-0.179991 -0.07902,-0.36118 0.007,-0.511285 0.23021,-0.400286 1.050085,-0.426648 1.529576,-0.200761 0.47949,0.225886 0.680856,0.733357 0.450646,1.133642 -0.230211,0.400283 -0.804994,0.54211 -1.284481,0.316219 -0.299648,-0.141178 -0.586349,-0.437828 -0.703006,-0.737815 z m 0.111219,-3.866407 c -0.07001,-0.179992 -0.07902,-0.361183 0.007,-0.511289 0.230212,-0.400285 1.050085,-0.426646 1.529577,-0.200759 0.479489,0.225887 0.680854,0.733355 0.450648,1.133641 -0.23021,0.400282 -0.804993,0.54211 -1.284482,0.316224 -0.299603,-0.141179 -0.586306,-0.437831 -0.702966,-0.737814 z M 14.922327,8.8002546 c -0.07,-0.17999 -0.07903,-0.3611771 0.007,-0.5112841 0.230207,-0.4002852 1.050082,-0.4266511 1.529574,-0.2007603 0.479488,0.2258881 0.680854,0.7333524 0.450645,1.1336365 C 16.6796,9.6221359 16.104821,9.7639586 15.625328,9.5380688 15.325644,9.3968867 15.038945,9.1002387 14.922284,8.8002506 Z"
       id="path11-3" />
  </g>
</svg>
