<?xml version="1.0" encoding="UTF-8" standalone="no"?>
<svg
   width="32"
   height="32"
   version="1.1"
   id="svg12"
   sodipodi:docname="TeamViewer.svg"
   inkscape:version="1.2 (dc2aedaf03, 2022-05-15)"
   xmlns:inkscape="http://www.inkscape.org/namespaces/inkscape"
   xmlns:sodipodi="http://sodipodi.sourceforge.net/DTD/sodipodi-0.dtd"
   xmlns="http://www.w3.org/2000/svg"
   xmlns:svg="http://www.w3.org/2000/svg"
   xmlns:rdf="http://www.w3.org/1999/02/22-rdf-syntax-ns#"
   xmlns:cc="http://creativecommons.org/ns#"
   xmlns:dc="http://purl.org/dc/elements/1.1/">
  <g
     id="22-22-TeamViewer"
     transform="translate(32,10.000001)">
    <rect
       style="opacity:0.00100002"
       width="22"
       height="22"
       x="0"
       y="-4.6325681e-08"
       id="rect2" />
    <polygon
       points="24.95,28.72 24.95,9.22 10.03,9.22 10.03,10.85 23.32,10.85 23.32,28.64 20.91,26.23 19.76,27.38 24.17,31.79 28.59,27.38 27.43,26.23 "
       id="polygon8-7-3-3"
       transform="matrix(0,0.37715517,-0.35445281,0,19.268055,5.2171326)"
       style="fill:#489ab1;fill-opacity:1" />
    <polygon
       points="21.97,22.78 21.97,21.15 8.68,21.15 8.68,3.28 11.16,5.77 12.31,4.62 7.9,0.21 3.49,4.62 4.64,5.77 7.05,3.36 7.05,22.78 "
       id="polygon10-5-6-6"
       transform="matrix(0,0.37878788,-0.35445281,0,14.074433,4.6780293)"
       style="fill:#d6dbf1;fill-opacity:1" />
    <path
       d="M 17.367351,3 H 4.63267 C 3.734711,3 3,3.6 3,4.333333 V 17.666665 C 3,18.4 3.734711,19 4.63267,19 H 17.367351 C 18.265311,19 19,18.4 19,17.666665 V 4.333333 C 19,3.6 18.265311,3 17.367351,3 Z M 18,17.466999 c 0,0.366663 -0.284038,0.533 -0.733,0.533 H 4.733 c -0.448999,0 -0.733,-0.166337 -0.733,-0.533 v -12.934 c 0,-0.366666 0.284001,-0.533 0.733,-0.533 h 12.534 c 0.448962,0 0.733,0.166334 0.733,0.533 z"
       id="path2-7"
       style="fill:#d6dbf1;fill-opacity:1;stroke-width:0.368855"
       sodipodi:nodetypes="ssssssssssssssssss" />
  </g>
  <metadata
     id="metadata18">
    <rdf:RDF>
      <cc:Work
         rdf:about="">
        <dc:format>image/svg+xml</dc:format>
        <dc:type
           rdf:resource="http://purl.org/dc/dcmitype/StillImage" />
      </cc:Work>
    </rdf:RDF>
  </metadata>
  <defs
     id="defs16">
    <linearGradient
       id="oomox"
       x1="0.45854774"
       x2="0.45854774"
       y1="0.20984644"
       y2="15.209846"
       gradientUnits="userSpaceOnUse">
      <stop
         offset="0%"
         style="stop-color:#303b3d; stop-opacity:1"
         id="stop18" />
      <stop
         offset="100%"
         style="stop-color:#bc985d; stop-opacity:1"
         id="stop20" />
    </linearGradient>
  </defs>
  <sodipodi:namedview
     pagecolor="#ffffff"
     bordercolor="#000000"
     borderopacity="1"
     objecttolerance="10"
     gridtolerance="10"
     guidetolerance="10"
     inkscape:pageopacity="0"
     inkscape:pageshadow="2"
     inkscape:window-width="1920"
     inkscape:window-height="1000"
     id="namedview14"
     showgrid="false"
     inkscape:zoom="13.876971"
     inkscape:cx="21.798705"
     inkscape:cy="15.205047"
     inkscape:window-x="0"
     inkscape:window-y="0"
     inkscape:window-maximized="1"
     inkscape:current-layer="svg12"
     inkscape:document-rotation="0"
     inkscape:showpageshadow="false"
     inkscape:pagecheckerboard="0"
     inkscape:lockguides="true"
     inkscape:deskcolor="#d1d1d1">
    <inkscape:grid
       type="xygrid"
       id="grid864"
       originx="0"
       originy="-4.6325683e-08" />
  </sodipodi:namedview>
  <g
     id="TeamViewer"
     transform="translate(32,10.000001)">
    <rect
       style="opacity:0.00100002"
       width="32"
       height="32"
       x="-32"
       y="-10.000001"
       id="rect7" />
    <polygon
       points="28.59,27.38 27.43,26.23 24.95,28.72 24.95,9.22 10.03,9.22 10.03,10.85 23.32,10.85 23.32,28.64 20.91,26.23 19.76,27.38 24.17,31.79 "
       id="polygon8-7-3"
       transform="matrix(0,0.59267241,-0.55383252,0,-2.8936642,-2.8445053)"
       style="fill:#489ab1;fill-opacity:1" />
    <polygon
       points="21.97,22.78 21.97,21.15 8.68,21.15 8.68,3.28 11.16,5.77 12.31,4.62 7.9,0.21 3.49,4.62 4.64,5.77 7.05,3.36 7.05,22.78 "
       id="polygon10-5-6"
       transform="matrix(0,0.5952381,-0.5449712,0,-11.585556,-3.177382)"
       style="fill:#d6dbf1;fill-opacity:1" />
    <path
       d="m -6.448973,-6.000001 h -19.102022 c -1.346939,0 -2.449005,0.9 -2.449005,1.9999987 V 15.999996 c 0,1.100003 1.102066,2.000003 2.449005,2.000003 h 19.102022 c 1.34694,0 2.448973,-0.9 2.448973,-2.000003 V -4.0000023 C -4,-5.100001 -5.102033,-6.000001 -6.448973,-6.000001 Z M -5,15.999996 c 0,0.549995 -0.77553,0.999995 -1.448973,0.999995 h -19.102022 c -0.673498,0 -1.449005,-0.45 -1.449005,-0.999995 V -4.0000023 c 0,-0.5499987 0.775507,-0.9999987 1.449005,-0.9999987 h 19.102022 c 0.673443,0 1.448973,0.45 1.448973,0.9999987 z"
       id="path2"
       style="fill:#d6dbf1;fill-opacity:1;stroke-width:0.553282"
       sodipodi:nodetypes="ssssssssssssssssss" />
  </g>
</svg>
