<?xml version="1.0" encoding="UTF-8" standalone="no"?>
<svg
   width="32"
   height="32"
   version="1.1"
   id="svg12"
   sodipodi:docname="video.svg"
   inkscape:version="1.2 (dc2aedaf03, 2022-05-15)"
   xmlns:inkscape="http://www.inkscape.org/namespaces/inkscape"
   xmlns:sodipodi="http://sodipodi.sourceforge.net/DTD/sodipodi-0.dtd"
   xmlns="http://www.w3.org/2000/svg"
   xmlns:svg="http://www.w3.org/2000/svg"
   xmlns:rdf="http://www.w3.org/1999/02/22-rdf-syntax-ns#"
   xmlns:cc="http://creativecommons.org/ns#"
   xmlns:dc="http://purl.org/dc/elements/1.1/">
  <metadata
     id="metadata18">
    <rdf:RDF>
      <cc:Work
         rdf:about="">
        <dc:format>image/svg+xml</dc:format>
        <dc:type
           rdf:resource="http://purl.org/dc/dcmitype/StillImage" />
      </cc:Work>
    </rdf:RDF>
  </metadata>
  <defs
     id="defs16" />
  <sodipodi:namedview
     pagecolor="#ffffff"
     bordercolor="#666666"
     borderopacity="1"
     objecttolerance="10"
     gridtolerance="10"
     guidetolerance="10"
     inkscape:pageopacity="0"
     inkscape:pageshadow="2"
     inkscape:window-width="1920"
     inkscape:window-height="1002"
     id="namedview14"
     showgrid="false"
     inkscape:zoom="6.9384855"
     inkscape:cx="37.472154"
     inkscape:cy="23.348035"
     inkscape:window-x="0"
     inkscape:window-y="0"
     inkscape:window-maximized="1"
     inkscape:current-layer="svg12"
     inkscape:document-rotation="0"
     inkscape:pagecheckerboard="0"
     inkscape:lockguides="true"
     inkscape:showpageshadow="2"
     inkscape:deskcolor="#d1d1d1">
    <inkscape:grid
       type="xygrid"
       id="grid988"
       originx="0"
       originy="0" />
  </sodipodi:namedview>
  <g
     id="video-display-brightness">
    <rect
       style="opacity:0.00100002;fill:#d6dbf1;fill-opacity:1"
       width="32"
       height="32"
       x="0"
       y="0"
       id="rect7" />
    <path
       d="M 26.400145,5 H 5.5998549 C 4.1663023,5 3,6.1411815 3,7.5441606 V 20.900428 C 3,22.303407 4.1663023,23 5.5998549,23 h 7.9349741 c -0.08914,1.13343 -0.429811,3 -0.981464,3 h -1.218138 c -0.322253,0 -0.583534,0.184651 -0.583534,0.5 0,0.315325 0.261281,0.5 0.583534,0.5 h 8.798327 c 0.322246,0 0.58351,-0.184675 0.58351,-0.5 0,-0.315349 -0.261264,-0.5 -0.58351,-0.5 h -1.218168 c -0.549438,0 -0.890501,-1.866583 -0.980771,-3 h 8.244014 C 27.73439,23 29,22.206113 29,20.683782 V 7.5441606 C 29,6.1411815 27.833685,5 26.400145,5 Z M 4,9 H 28 V 19 H 4 Z M 5.5998549,6 H 26.400145 C 27.190207,6 28,6.770859 28,7.544 V 8 H 4 V 7.5441606 C 4,6.7710196 4.8097849,6 5.5998549,6 Z M 17.326469,26 h -3.184163 c 0.386851,-0.780028 0.518084,-2.368007 0.561833,-3 h 2.060497 c 0.04371,0.631993 0.174983,2.219972 0.561833,3 z m 8.85216,-4 H 5.5998549 C 4.8097849,22 4,21.673566 4,20.900428 V 20 h 24 v 0.683782 C 28,21.576269 27.090773,22 26.178629,22 Z"
       id="path4-3"
       style="fill:#d6dbf1;fill-opacity:1;stroke-width:0.288621"
       sodipodi:nodetypes="ssssscsssssssscsssscccccsssccsscccccsssccss" />
    <path
       d="m 18.482768,14.372895 a 0.6117608,0.5965437 0 0 1 0,-0.704161 l 0.544974,-0.722781 A 0.6117608,0.5965437 0 0 0 18.46777,11.999986 l -0.912877,0.09709 A 0.6117608,0.5965437 0 0 1 16.926794,11.742332 L 16.5562,10.922583 a 0.6117608,0.5965437 0 0 0 -1.119979,0 l -0.370594,0.819749 a 0.6117608,0.5965437 0 0 1 -0.625408,0.352088 l -0.91287,-0.09711 a 0.6117608,0.5965437 0 0 0 -0.559979,0.945967 l 0.54501,0.722773 a 0.6117608,0.5965437 0 0 1 0,0.704147 l -0.54501,0.722767 a 0.6117608,0.5965437 0 0 0 0.559979,0.945967 l 0.91287,-0.09693 a 0.6117608,0.5965437 0 0 1 0.625408,0.352092 l 0.370594,0.81975 a 0.6117608,0.5965437 0 0 0 1.119979,0 l 0.370594,-0.81975 a 0.6117608,0.5965437 0 0 1 0.625373,-0.352092 l 0.912876,0.09693 a 0.6117608,0.5965437 0 0 0 0.559972,-0.945967 z m -2.483848,1.186442 a 1.5777707,1.5385248 0 1 1 1.573695,-1.53854 1.5777707,1.5385248 0 0 1 -1.573695,1.53854 z m 1.70177,-3.949962 -0.427843,-0.240476 0.506876,-0.858263 0.427809,0.24047 z m -4.684279,2.139079 V 14.2294 L 12,14.221091 v -0.481063 z m 5.959564,0.558012 0.0076,-0.480978 L 20,13.842058 19.9924,14.323015 Z M 14.752231,11.36358 14.32169,11.600097 13.818937,10.736482 14.249472,10.5 Z m -0.47958,5.038073 0.426443,0.244486 -0.515021,0.854282 -0.425082,-0.244459 z m 3.062899,0.22455 0.42236,-0.249776 0.527293,0.846299 -0.422394,0.249781 z"
       id="path4"
       style="fill:#d6dbf1;fill-opacity:1;stroke-width:0.134546" />
  </g>
  <g
     id="22-22-video-display-brightness">
    <rect
       style="opacity:0.00100002;fill:#d6dbf1;fill-opacity:1"
       width="22"
       height="22"
       x="32"
       y="10.000003"
       id="rect2" />
    <path
       d="m 44.861967,19.766186 a 0.45881063,0.42607703 0 0 1 0,-0.502943 l 0.408727,-0.516237 a 0.45881063,0.42607703 0 0 0 -0.419972,-0.67565 l -0.684641,0.06933 a 0.45881063,0.42607703 0 0 1 -0.471066,-0.253361 l -0.277939,-0.5855 a 0.45881063,0.42607703 0 0 0 -0.839966,0 l -0.277942,0.5855 a 0.45881063,0.42607703 0 0 1 -0.469041,0.251481 l -0.684638,-0.06934 a 0.45881063,0.42607703 0 0 0 -0.419975,0.67565 l 0.408746,0.516233 a 0.45881063,0.42607703 0 0 1 0,0.502942 l -0.408746,0.516222 a 0.45881063,0.42607703 0 0 0 0.419975,0.675651 l 0.684638,-0.06927 a 0.45881063,0.42607703 0 0 1 0.469041,0.251469 l 0.277942,0.5855 a 0.45881063,0.42607703 0 0 0 0.839966,0 l 0.277939,-0.5855 a 0.45881063,0.42607703 0 0 1 0.469022,-0.251469 l 0.68464,0.06927 a 0.45881063,0.42607703 0 0 0 0.419972,-0.67565 z m -1.862841,0.847407 a 1.1833023,1.0988803 0 1 1 1.180243,-1.098888 1.1833023,1.0988803 0 0 1 -1.180243,1.098888 z m 1.276298,-2.821229 -0.320874,-0.171757 0.380146,-0.613012 0.320852,0.171756 z m -3.513128,1.527819 v 0.343513 L 40,19.657316 v -0.343584 z m 4.469572,0.398556 0.0058,-0.343531 L 46,19.387028 45.99417,19.73055 Z m -3.16774,-2.10193 -0.322897,0.168926 L 41.364174,17.168908 41.68707,17 Z m -0.359677,3.598406 0.319828,0.174619 L 41.638023,22 41.319212,21.825396 Z m 2.297122,0.16038 0.316765,-0.178401 0.39546,0.604467 -0.316785,0.178403 z"
       id="path4-5"
       style="fill:#d6dbf1;fill-opacity:1;stroke-width:0.098472" />
    <path
       d="M 51.000116,13.000003 H 34.999888 c -1.102732,0 -1.999888,0.729652 -1.999888,1.75 v 9.65 c 0,1.020348 0.897156,1.6 1.999888,1.6 h 6.103828 c -0.06857,0.824312 -0.330625,2.272728 -0.754974,2.272728 h -0.937029 c -0.247888,0 -0.448872,0.134291 -0.448872,0.363636 0,0.229328 0.200984,0.363636 0.448872,0.363636 h 6.767941 c 0.247888,0 0.448861,-0.134308 0.448861,-0.363636 0,-0.229345 -0.200973,-0.363636 -0.448861,-0.363636 h -0.93705 c -0.422642,0 -0.685001,-1.448426 -0.754437,-2.272728 H 51 c 1.196732,0 2,-0.49285 2,-1.6 v -9.65 c 0,-1.020348 -0.897167,-1.75 -1.999884,-1.75 z m -17.000116,3 18,9e-4 v 6.9991 H 34 Z m 1.1,-2 h 15.8 c 0.607733,0 1.1,0.08772 1.1,0.65 v 0.35 H 34 v -0.25 c 0,-0.562284 0.492254,-0.75 1.1,-0.75 z m 8.920363,14.272728 H 41.571004 C 41.868583,27.705437 41.96635,26.459633 42,26.000003 h 1.588182 c 0.03365,0.45963 0.134603,1.705434 0.432181,2.272728 z M 50.9,25.000003 H 35.1 c -0.607746,0 -1.1,-0.07372 -1.1,-0.636 v -0.364 h 18 v 0.364 c 0,0.649081 -0.398353,0.636 -1.1,0.636 z"
       id="path4-3-36"
       style="fill:#d6dbf1;fill-opacity:1;stroke-width:0.215876"
       sodipodi:nodetypes="ssssscsssssssscsssscccccsssccsscccccsssccss" />
  </g>
</svg>
