<?xml version="1.0" encoding="UTF-8" standalone="no"?>
<svg
   width="32"
   height="32"
   version="1.1"
   style="enable-background:new"
   id="svg43"
   sodipodi:docname="view.svg"
   inkscape:version="1.1.1 (3bf5ae0d25, 2021-09-20)"
   xmlns:inkscape="http://www.inkscape.org/namespaces/inkscape"
   xmlns:sodipodi="http://sodipodi.sourceforge.net/DTD/sodipodi-0.dtd"
   xmlns="http://www.w3.org/2000/svg"
   xmlns:svg="http://www.w3.org/2000/svg"
   xmlns:rdf="http://www.w3.org/1999/02/22-rdf-syntax-ns#"
   xmlns:cc="http://creativecommons.org/ns#"
   xmlns:dc="http://purl.org/dc/elements/1.1/">
  <metadata
     id="metadata47">
    <rdf:RDF>
      <cc:Work
         rdf:about="">
        <dc:format>image/svg+xml</dc:format>
        <dc:type
           rdf:resource="http://purl.org/dc/dcmitype/StillImage" />
      </cc:Work>
    </rdf:RDF>
  </metadata>
  <sodipodi:namedview
     pagecolor="#ffffff"
     bordercolor="#000000"
     borderopacity="1"
     objecttolerance="10"
     gridtolerance="10"
     guidetolerance="10"
     inkscape:pageopacity="0"
     inkscape:pageshadow="2"
     inkscape:window-width="1920"
     inkscape:window-height="1006"
     id="namedview45"
     showgrid="false"
     inkscape:zoom="8.0000001"
     inkscape:cx="16.25"
     inkscape:cy="15.875"
     inkscape:window-x="0"
     inkscape:window-y="0"
     inkscape:window-maximized="1"
     inkscape:current-layer="svg43"
     inkscape:lockguides="false"
     inkscape:pagecheckerboard="0"
     showguides="false">
    <inkscape:grid
       type="xygrid"
       id="grid833" />
  </sodipodi:namedview>
  <defs
     id="defs4">
    <linearGradient
       id="linearGradient5606"
       inkscape:swatch="solid">
      <stop
         id="stop5608"
         offset="0"
         style="stop-color:#000000" />
    </linearGradient>
  </defs>
  <g
     id="view-refresh"
     transform="translate(-250.00021,54.000004)">
    <path
       d="m 282.00021,-38.000004 h 16 v 16 h -16 z"
       style="opacity:0;fill:#ff0000"
       id="path6" />
    <g
       transform="translate(281.97246,-37.000109)"
       style="enable-background:new"
       id="g11">
      <g
         id="layer12-0"
         transform="translate(-485.03396,-41.017475)">
        <path
           d="m 499.06185,49.01758 c 0,3.31371 -2.68629,6 -6,6 -3.28006,0 -5.94034,-2.63316 -5.99414,-5.90039 a 1,1 0 0 1 -0.006,-0.09961 1,1 0 0 1 1,-1 1,1 0 0 1 1,1 c 0,2.20914 1.79086,4 4,4 2.20914,0 4,-1.79086 4,-4 0,-2.20914 -1.79086,-4 -4,-4 v 2 l -4,-3 4,-3 v 2 c 3.31371,0 6,2.68629 6,6 z"
           style="fill:#d6dbf1;fill-opacity:1"
           id="path8" />
      </g>
    </g>
  </g>
  <g
     id="view-history">
    <rect
       width="32"
       height="32"
       x="0"
       y="0"
       style="opacity:0.00100002"
       id="rect14" />
    <path
       style="opacity:0.3;fill:#3b5a87;fill-opacity:1;stroke-width:1.36364"
       d="M 16.003001,1.0677966 C 7.72651,1.0677966 1.003,7.7913137 1.003,16.067796 c 0,8.276489 6.72351,15.000002 15.000001,15.000001 8.276488,0 15.000003,-6.723512 14.999999,-15.000001 0,-8.2764823 -6.723511,-14.9999994 -14.999999,-14.9999994 z"
       id="path24"
       inkscape:connector-curvature="0" />
    <path
       d="M 16,7 9.63597,9.6359701 7,16 9.63597,22.36403 16,25 22.36403,22.36403 25,16 22.36049,9.6395101 Z M 16,25 9.63597,22.36403 7,16 9.63597,9.6359701 16,7 22.36049,9.6395101 25,16 22.36403,22.36403 Z M 16,7 C 13.61314,7 11.32399,7.94821 9.63597,9.6359701 7.94821,11.32399 7,13.61314 7,16 7,18.38686 7.94821,20.67601 9.63597,22.36403 11.32399,24.05179 13.61314,25 16,25 18.38686,25 20.676011,24.05179 22.36403,22.36403 24.05179,20.67601 25,18.38686 25,16 24.997,13.61391 24.04754,11.32675 22.36049,9.6395101 20.673251,7.95252 18.38609,7.00328 16,7 Z m 4.173811,13.17407 c -0.212691,0.21018 -0.49971,0.32796 -0.79881,0.32796 -0.2991,0 -0.586111,-0.11777 -0.798811,-0.32796 l -3.375,-3.375 c -0.20718,-0.21445 -0.32395,-0.50048 -0.3262,-0.79881 v -5.625 c 0,-0.4020399 0.21445,-0.77342 0.5625,-0.9743199 0.34805,-0.2008901 0.77695,-0.2008901 1.125,0 0.34804,0.2008999 0.5625,0.57229 0.5625,0.9743199 v 5.16368 l 3.04881,3.0375 c 0.21068,0.21245 0.328961,0.49947 0.328961,0.79882 0,0.29934 -0.118271,0.58635 -0.328961,0.79881 z"
       id="path2-3"
       sodipodi:nodetypes="ccccccccccccccccccccccscscccccscccssssccscc"
       style="fill:#d6dbf1;fill-opacity:1;stroke-width:0.0642857" />
  </g>
</svg>
