<?xml version="1.0" encoding="UTF-8" standalone="no"?>
<svg
   inkscape:version="1.1.1 (3bf5ae0d25, 2021-09-20)"
   sodipodi:docname="window.svg"
   viewBox="0 0 32 32"
   version="1.1"
   height="32"
   width="32"
   id="svg"
   xmlns:inkscape="http://www.inkscape.org/namespaces/inkscape"
   xmlns:sodipodi="http://sodipodi.sourceforge.net/DTD/sodipodi-0.dtd"
   xmlns="http://www.w3.org/2000/svg"
   xmlns:svg="http://www.w3.org/2000/svg"
   xmlns:rdf="http://www.w3.org/1999/02/22-rdf-syntax-ns#"
   xmlns:cc="http://creativecommons.org/ns#"
   xmlns:dc="http://purl.org/dc/elements/1.1/">
  <metadata
     id="metadata60">
    <rdf:RDF>
      <cc:Work
         rdf:about="">
        <dc:format>image/svg+xml</dc:format>
        <dc:type
           rdf:resource="http://purl.org/dc/dcmitype/StillImage" />
      </cc:Work>
    </rdf:RDF>
  </metadata>
  <sodipodi:namedview
     inkscape:document-rotation="0"
     inkscape:lockguides="false"
     inkscape:current-layer="svg"
     inkscape:window-maximized="1"
     inkscape:window-y="0"
     inkscape:window-x="0"
     inkscape:cy="18.561552"
     inkscape:cx="30.582367"
     inkscape:zoom="5.6568545"
     showgrid="false"
     id="namedview58"
     inkscape:window-height="1006"
     inkscape:window-width="1920"
     inkscape:pageshadow="2"
     inkscape:pageopacity="0"
     guidetolerance="10"
     gridtolerance="10"
     objecttolerance="10"
     borderopacity="1"
     bordercolor="#000000"
     pagecolor="#ffffff"
     inkscape:showpageshadow="false"
     inkscape:pagecheckerboard="0">
    <inkscape:grid
       id="grid863"
       type="xygrid"
       originx="-1e-06"
       originy="-2e-06" />
  </sodipodi:namedview>
  <defs
     id="defs4">
    <linearGradient
       id="linearGradient5606"
       inkscape:swatch="solid">
      <stop
         style="stop-color:#000000"
         offset="0"
         id="stop5608" />
    </linearGradient>
  </defs>
  <rect
     id="rect16"
     y="13.769998"
     x="-38.329987"
     height="22"
     width="22"
     style="fill:#cfd8dc;fill-opacity:0" />
  <g
     transform="translate(32,10)"
     id="22-22-window-close"
     style="fill:#d6dbf1;fill-opacity:1">
    <rect
       id="rect18"
       y="0"
       x="0"
       height="22"
       width="22"
       style="opacity:0.00100002;fill:#d6dbf1;fill-opacity:1" />
    <g
       id="g24"
       transform="matrix(1.7493122,0,0,1.7499488,-107.95048,-909.47286)"
       style="fill:#d6dbf1;fill-opacity:1">
      <g
         id="g22"
         transform="translate(19,-242)"
         style="fill:#d6dbf1;fill-opacity:1">
        <path
           id="path20"
           d="m 45.571203,764.57141 h 0.857142 c 0.0089,-1.1e-4 0.01782,-4e-4 0.02679,0 0.21853,0.01 0.437032,0.11021 0.589286,0.26785 l 1.955357,1.95536 1.982143,-1.95536 c 0.227678,-0.19757 0.382861,-0.26185 0.589285,-0.26785 h 0.857143 v 0.85714 c 0,0.24555 -0.02943,0.47199 -0.214285,0.64286 l -1.955357,1.95535 1.928571,1.92858 c 0.161304,0.16128 0.241064,0.38867 0.241071,0.61607 v 0.85714 h -0.857143 c -0.2274,-10e-6 -0.454788,-0.0798 -0.616071,-0.24107 l -1.955357,-1.95536 -1.955357,1.95536 c -0.161288,0.1613 -0.388684,0.24107 -0.616076,0.24107 h -0.857142 v -0.85714 c -3e-6,-0.22739 0.07977,-0.45479 0.241071,-0.61607 l 1.955357,-1.92858 -1.955357,-1.95535 c -0.180636,-0.16683 -0.259851,-0.40222 -0.241071,-0.64286 z"
           style="fill:#d6dbf1;fill-opacity:1" />
      </g>
    </g>
  </g>
  <g
     transform="translate(54,31.999998)"
     id="16-16-window-close"
     style="fill:#d6dbf1;fill-opacity:1">
    <rect
       id="rect27"
       y="-16"
       x="0"
       height="16"
       width="16"
       style="opacity:0.00100002;fill:#d6dbf1;fill-opacity:1" />
    <g
       id="g33"
       transform="matrix(1.2495087,0,0,1.2499635,-76.964626,-665.48065)"
       style="fill:#d6dbf1;fill-opacity:1">
      <g
         id="g31"
         transform="translate(19,-242)"
         style="fill:#d6dbf1;fill-opacity:1">
        <path
           id="path29"
           d="m 45.000045,763.99995 h 0.999997 c 0.0103,-10e-5 0.02083,-3.7e-4 0.0312,0 0.254951,0.009 0.509869,0.12866 0.687499,0.3126 l 2.281251,2.2812 2.3125,-2.2812 c 0.265626,-0.2306 0.446671,-0.3056 0.687501,-0.3126 h 0.999999 v 1 c 0,0.28658 -0.03427,0.55072 -0.249999,0.75 l -2.281252,2.28129 2.250003,2.25 c 0.188185,0.18819 0.281241,0.45347 0.281248,0.71874 v 1.00001 h -0.999993 c -0.2653,-10e-6 -0.530586,-0.0925 -0.71875,-0.28124 l -2.281252,-2.28122 -2.281251,2.28122 c -0.188161,0.18818 -0.453456,0.28124 -0.718748,0.28124 h -0.999999 v -1.00001 c -3e-6,-0.26526 0.09305,-0.53055 0.28126,-0.71874 l 2.281251,-2.25 -2.281251,-2.28129 c -0.210734,-0.1945 -0.303168,-0.4692 -0.28126,-0.75 z"
           style="fill:#d6dbf1;fill-opacity:1;stroke-width:1.25" />
      </g>
    </g>
  </g>
  <g
     id="window-close"
     style="fill:#d6dbf1;fill-opacity:1">
    <rect
       id="rect36"
       style="opacity:0.00100002;fill:#d6dbf1;fill-opacity:1"
       y="0"
       x="0"
       height="32"
       width="32" />
    <g
       id="g46"
       transform="matrix(1.7493122,0,0,1.7499488,-102.95048,-903.47286)"
       style="opacity:0.2;fill:#d6dbf1;fill-opacity:1">
      <g
         id="g44"
         transform="translate(19,-242)"
         style="fill:#d6dbf1;fill-opacity:1" />
    </g>
    <g
       id="g52"
       style="fill:#d6dbf1;fill-opacity:1"
       transform="matrix(1.7493122,0,0,1.7499488,-102.95048,-904.47286)">
      <g
         id="g50"
         style="fill:#d6dbf1;fill-opacity:1"
         transform="translate(19,-242)">
        <path
           id="path48"
           style="fill:#d6dbf1;fill-opacity:1;stroke-width:1.5"
           d="m 43.857588,762.85718 h 1.285713 c 0.01335,-1.6e-4 0.02673,-6e-4 0.04019,0 0.327795,0.015 0.655548,0.16532 0.883929,0.40178 l 2.933035,2.93304 2.973214,-2.93304 c 0.341516,-0.29636 0.574291,-0.39278 0.883927,-0.40178 h 1.285714 v 1.28571 c 0,0.36833 -0.04415,0.70799 -0.321427,0.96429 l -2.933035,2.93303 2.892856,2.89287 c 0.241956,0.24192 0.361596,0.583 0.361606,0.9241 v 1.28571 h -1.285714 c -0.3411,-10e-6 -0.682182,-0.1197 -0.924106,-0.3616 l -2.933035,-2.93304 -2.933035,2.93304 c -0.241932,0.24195 -0.583026,0.3616 -0.924114,0.3616 h -1.285713 v -1.28571 c -4e-6,-0.34108 0.119655,-0.68218 0.361607,-0.9241 l 2.933034,-2.89287 -2.933034,-2.93303 c -0.270954,-0.25024 -0.389777,-0.60333 -0.361607,-0.96429 z" />
      </g>
    </g>
  </g>
  <g
     id="window-unpin"
     transform="translate(10,-22)">
    <path
       id="path1140-0"
       d="M 14.5,2.7929688 13.792969,3.5 l 0.5,1.5 -4.705078,4.7050781 C 8.6974945,9.2438844 7.7097777,9.002145 6.707031,9 H 6 L 5.646484,9.3535156 8.792969,12.5 3,18.292969 V 19 H 3.707031 L 9.5,13.207031 12.646484,16.353516 13,16 v -0.707031 c -0.0021,-1.002747 -0.243884,-1.990463 -0.705078,-2.88086 L 17,7.7070312 l 1.5,0.5 L 19.207031,7.5 Z"
       class="ColorScheme-ButtonFocus"
       stroke-linecap="square"
       stroke-miterlimit="0"
       style="fill:#489ab1;fill-opacity:1" />
    <path
       id="rect838-6"
       d="M 0,0 H 22 V 22 H 0 Z"
       fill="none" />
  </g>
  <g
     id="window-pin"
     transform="translate(-22,10)">
    <path
       id="path1140"
       d="M 14.5,2.7929688 13.792969,3.5 l 0.5,1.5 -4.705078,4.7050781 C 8.6974945,9.2438844 7.7097777,9.002145 6.707031,9 H 6 L 5.646484,9.3535156 8.792969,12.5 3,18.292969 V 19 H 3.707031 L 9.5,13.207031 12.646484,16.353516 13,16 v -0.707031 c -0.0021,-1.002747 -0.243884,-1.990463 -0.705078,-2.88086 L 17,7.7070312 l 1.5,0.5 L 19.207031,7.5 Z"
       class="ColorScheme-Text"
       stroke-linecap="square"
       stroke-miterlimit="0"
       style="fill:#d6dbf1;fill-opacity:1" />
    <path
       id="rect838"
       d="M 0,0 H 22 V 22 H 0 Z"
       fill="none" />
  </g>
</svg>
