<?xml version="1.0" encoding="UTF-8" standalone="no"?>
<svg
   height="48"
   width="48"
   version="1.1"
   id="svg6"
   sodipodi:docname="dconf-editor.svg"
   inkscape:version="1.2.2 (b0a8486541, 2022-12-01)"
   xmlns:inkscape="http://www.inkscape.org/namespaces/inkscape"
   xmlns:sodipodi="http://sodipodi.sourceforge.net/DTD/sodipodi-0.dtd"
   xmlns="http://www.w3.org/2000/svg"
   xmlns:svg="http://www.w3.org/2000/svg"
   xmlns:rdf="http://www.w3.org/1999/02/22-rdf-syntax-ns#"
   xmlns:cc="http://creativecommons.org/ns#"
   xmlns:dc="http://purl.org/dc/elements/1.1/">
  <metadata
     id="metadata12">
    <rdf:RDF>
      <cc:Work
         rdf:about="">
        <dc:format>image/svg+xml</dc:format>
        <dc:type
           rdf:resource="http://purl.org/dc/dcmitype/StillImage" />
      </cc:Work>
    </rdf:RDF>
  </metadata>
  <defs
     id="defs10" />
  <sodipodi:namedview
     pagecolor="#ffffff"
     bordercolor="#666666"
     borderopacity="1"
     objecttolerance="10"
     gridtolerance="10"
     guidetolerance="10"
     inkscape:pageopacity="0"
     inkscape:pageshadow="2"
     inkscape:window-width="1920"
     inkscape:window-height="1002"
     id="namedview8"
     showgrid="false"
     inkscape:zoom="6.6880518"
     inkscape:cx="-47.472718"
     inkscape:cy="23.698979"
     inkscape:window-x="0"
     inkscape:window-y="0"
     inkscape:window-maximized="1"
     inkscape:current-layer="svg6"
     inkscape:document-rotation="0"
     inkscape:showpageshadow="2"
     inkscape:pagecheckerboard="0"
     inkscape:deskcolor="#d1d1d1" />
  <path
     d="M 44.999996,23.999999 A 20.999998,21.000001 0 0 1 23.999998,45 20.999998,21.000001 0 0 1 3,23.999999 20.999998,21.000001 0 0 1 23.999998,3 20.999998,21.000001 0 0 1 44.999996,23.999999 Z"
     opacity="0.99"
     id="path2"
     style="fill:#303650;fill-opacity:1;stroke-width:1.06438" />
  <path
     d="m 22.260701,10.509987 c -0.469059,-0.206733 -1.013108,0.0044 -1.21984,0.473515 l -0.507996,1.152606 a 7.3892823,7.4710644 23.784845 0 0 -1.981023,-0.02193 l -0.464267,-1.196014 c -0.09275,-0.238928 -0.272147,-0.418153 -0.488575,-0.513541 -0.216426,-0.09539 -0.469751,-0.106882 -0.70868,-0.01414 l -1.724931,0.669581 c -0.477856,0.185494 -0.713167,0.719397 -0.527674,1.197254 l 0.467967,1.205546 a 7.3892823,7.4710644 23.784845 0 0 -1.434557,1.350528 L 12.501982,14.29811 c -0.469058,-0.206732 -1.013107,0.0044 -1.219839,0.473516 l -0.746325,1.693355 c -0.206732,0.46906 0.0045,1.013109 0.473516,1.21984 l 1.10465,0.48686 a 7.3892823,7.4710644 23.784845 0 0 -0.105014,2.053026 l -1.064977,0.413401 c -0.477857,0.185495 -0.713168,0.719399 -0.527675,1.197255 l 0.669581,1.724931 c 0.185493,0.477856 0.719397,0.713167 1.197255,0.527674 l 0.957765,-0.371784 a 7.3892823,7.4710644 23.784845 0 0 1.476594,1.614535 l -0.39357,0.892981 c -0.206731,0.469059 0.0044,1.013108 0.473516,1.21984 l 1.693355,0.746324 c 0.46906,0.206731 1.013108,-0.0044 1.21984,-0.473516 l 0.378993,-0.859907 a 7.3892823,7.4710644 23.784845 0 0 2.22933,0.03658 l 0.344963,0.888672 c 0.185495,0.477857 0.719399,0.713169 1.197256,0.527674 l 1.72493,-0.66958 c 0.477856,-0.185494 0.713167,-0.719398 0.527674,-1.197255 L 23.742942,25.48715 a 7.3892823,7.4710644 23.784845 0 0 1.521006,-1.51979 l 0.985584,0.434384 c 0.46906,0.206731 1.013108,-0.0044 1.21984,-0.473516 l 0.746324,-1.693356 c 0.206732,-0.469059 -0.0044,-1.013107 -0.473516,-1.219839 l -1.046771,-0.461351 a 7.3892823,7.4710644 23.784845 0 0 0.01378,-2.065587 l 1.098333,-0.426349 c 0.477857,-0.185495 0.713168,-0.719399 0.527675,-1.197255 l -0.669581,-1.72493 c -0.185497,-0.47786 -0.719401,-0.713172 -1.197258,-0.527678 l -1.129305,0.438372 a 7.3892823,7.4710644 23.784845 0 0 -1.408548,-1.446304 l 0.497064,-1.127801 c 0.206732,-0.469059 -0.0044,-1.013107 -0.473516,-1.219839 z m -0.762583,4.024458 a 5.2624377,5.2624377 0 0 1 2.693118,6.937839 5.2624377,5.2624377 0 0 1 -6.937838,2.69312 5.2624377,5.2624377 0 0 1 -2.69312,-6.937839 5.2624377,5.2624377 0 0 1 6.93784,-2.69312 z"
     id="path4"
     style="fill:#ffffff;fill-opacity:0.69999999;stroke-width:0.925264" />
  <path
     d="m 34.650976,21.856011 c -0.46906,-0.206731 -1.013108,0.0044 -1.21984,0.473516 l -0.373163,0.846678 a 5.7271247,5.7271247 0 0 0 -1.684,-0.03717 l -0.33479,-0.862466 c -0.185494,-0.477855 -0.719398,-0.713166 -1.197255,-0.527672 l -0.862465,0.33479 c -0.477857,0.185494 -0.713169,0.719398 -0.527675,1.197256 l 0.335716,0.864846 a 5.7271247,5.7271247 0 0 0 -1.217155,1.161961 l -0.848332,-0.37389 c -0.46906,-0.206732 -1.013107,0.0044 -1.21984,0.473515 l -0.373162,0.846678 c -0.206731,0.469059 0.0044,1.013108 0.473516,1.21984 l 0.846678,0.373161 a 5.7271247,5.7271247 0 0 0 -0.03717,1.684002 l -0.862465,0.33479 c -0.477858,0.185493 -0.713169,0.719398 -0.527675,1.197254 l 0.33479,0.862466 c 0.185494,0.477856 0.719398,0.713168 1.197256,0.527674 l 0.864846,-0.335715 a 5.7271247,5.7271247 0 0 0 1.161961,1.217155 l -0.373888,0.848335 c -0.206731,0.469058 0.0044,1.013107 0.473516,1.219839 l 0.846678,0.373162 c 0.469059,0.206732 1.013108,-0.0044 1.21984,-0.473516 l 0.373161,-0.846677 a 5.7271247,5.7271247 0 0 0 1.684002,0.03717 l 0.33479,0.862465 c 0.185493,0.477856 0.719398,0.713168 1.197254,0.527674 l 0.862466,-0.33479 c 0.477856,-0.185494 0.713167,-0.719399 0.527674,-1.197255 l -0.335715,-0.86485 a 5.7271247,5.7271247 0 0 0 1.217155,-1.161961 l 0.848332,0.373891 c 0.469058,0.206732 1.013107,-0.0044 1.219839,-0.473516 l 0.373162,-0.846677 c 0.206732,-0.46906 -0.0044,-1.013108 -0.473515,-1.21984 l -0.846678,-0.373163 a 5.7271247,5.7271247 0 0 0 0.03717,-1.684 l 0.862465,-0.33479 c 0.477856,-0.185494 0.713168,-0.719398 0.527674,-1.197255 l -0.33479,-0.862465 C 38.63585,25.228602 38.101945,24.99329 37.624089,25.178784 L 36.759242,25.5145 a 5.7271247,5.7271247 0 0 0 -1.161961,-1.217155 l 0.373891,-0.848332 c 0.206732,-0.46906 -0.0044,-1.013107 -0.473516,-1.21984 z m -1.220907,3.917254 a 3.3251667,3.3251667 0 0 1 1.701696,4.3838 3.3251667,3.3251667 0 0 1 -4.383799,1.701696 3.3251667,3.3251667 0 0 1 -1.701697,-4.383799 3.3251667,3.3251667 0 0 1 4.3838,-1.701697 z"
     id="path6"
     style="fill:#ffffff;stroke-width:0.925264" />
  <path
     d="m 20.84016,28.960741 c -0.326387,-0.143851 -0.704953,0.0031 -0.848803,0.329485 l -0.259658,0.589145 a 3.9851117,3.9851117 0 0 0 -1.17178,-0.02586 l -0.232958,-0.60013 c -0.129072,-0.332509 -0.50058,-0.496245 -0.833086,-0.367172 l -0.600131,0.232956 c -0.332507,0.129073 -0.496245,0.500581 -0.367172,0.833088 l 0.233601,0.601787 a 3.9851117,3.9851117 0 0 0 -0.846934,0.80853 l -0.590295,-0.260166 c -0.326387,-0.143849 -0.704953,0.0031 -0.848804,0.329488 l -0.259657,0.589144 c -0.143851,0.326387 0.0031,0.704953 0.329487,0.848804 l 0.589144,0.259656 a 3.9851117,3.9851117 0 0 0 -0.02586,1.17178 l -0.600131,0.232959 c -0.332507,0.129071 -0.496244,0.500579 -0.367171,0.833086 l 0.232957,0.600131 c 0.129072,0.332507 0.50058,0.496244 0.833087,0.367172 l 0.601787,-0.233601 a 3.9851117,3.9851117 0 0 0 0.808529,0.846933 l -0.260165,0.590295 c -0.14385,0.326387 0.0031,0.704953 0.329488,0.848804 l 0.589144,0.259658 c 0.326386,0.143851 0.704953,-0.0031 0.848804,-0.329488 l 0.259655,-0.589145 a 3.9851117,3.9851117 0 0 0 1.17178,0.02586 l 0.232959,0.600131 c 0.129071,0.332508 0.500579,0.496245 0.833087,0.367173 l 0.600129,-0.232959 c 0.332509,-0.129071 0.496245,-0.500578 0.367173,-0.833087 L 21.354765,37.053411 A 3.9851117,3.9851117 0 0 0 22.2017,36.244882 l 0.590295,0.260166 c 0.326386,0.14385 0.704951,-0.0031 0.848802,-0.329488 l 0.259658,-0.589144 c 0.14385,-0.326386 -0.0031,-0.704952 -0.329487,-0.848803 l -0.589145,-0.259658 a 3.9851117,3.9851117 0 0 0 0.02586,-1.17178 l 0.600131,-0.232958 c 0.332508,-0.129071 0.496245,-0.500579 0.367173,-0.833087 L 23.742029,31.64 C 23.612958,31.307493 23.24145,31.143756 22.908943,31.27283 l -0.601788,0.2336 a 3.9851117,3.9851117 0 0 0 -0.808529,-0.846935 l 0.260165,-0.590296 c 0.143851,-0.326385 -0.0031,-0.704951 -0.329487,-0.848801 z m -0.849545,2.725747 a 2.3137545,2.3137545 0 0 1 1.184093,3.050383 2.3137545,2.3137545 0 0 1 -3.050383,1.184094 2.3137545,2.3137545 0 0 1 -1.184094,-3.050384 2.3137545,2.3137545 0 0 1 3.050384,-1.184093 z"
     id="path8"
     style="fill:#ffffff;fill-opacity:0.64999998;stroke-width:0.925264" />
</svg>
