<?xml version="1.0" encoding="UTF-8" standalone="no"?>
<svg
   width="48"
   height="48"
   id="svg2"
   version="1.1"
   sodipodi:docname="preferences-system-symbolic.svg"
   inkscape:version="1.4 (e7c3feb100, 2024-10-09)"
   xmlns:inkscape="http://www.inkscape.org/namespaces/inkscape"
   xmlns:sodipodi="http://sodipodi.sourceforge.net/DTD/sodipodi-0.dtd"
   xmlns:xlink="http://www.w3.org/1999/xlink"
   xmlns="http://www.w3.org/2000/svg"
   xmlns:svg="http://www.w3.org/2000/svg"
   xmlns:rdf="http://www.w3.org/1999/02/22-rdf-syntax-ns#"
   xmlns:cc="http://creativecommons.org/ns#"
   xmlns:dc="http://purl.org/dc/elements/1.1/">
  <metadata
     id="metadata44">
    <rdf:RDF>
      <cc:Work
         rdf:about="">
        <dc:format>image/svg+xml</dc:format>
        <dc:type
           rdf:resource="http://purl.org/dc/dcmitype/StillImage" />
      </cc:Work>
    </rdf:RDF>
  </metadata>
  <sodipodi:namedview
     pagecolor="#ffffff"
     bordercolor="#666666"
     borderopacity="1"
     objecttolerance="10"
     gridtolerance="10"
     guidetolerance="10"
     inkscape:pageopacity="0"
     inkscape:pageshadow="2"
     inkscape:window-width="1920"
     inkscape:window-height="998"
     id="namedview42"
     showgrid="false"
     inkscape:zoom="9.8333334"
     inkscape:cx="19.525424"
     inkscape:cy="25.830508"
     inkscape:window-x="0"
     inkscape:window-y="0"
     inkscape:window-maximized="1"
     inkscape:current-layer="svg2"
     inkscape:showpageshadow="2"
     inkscape:pagecheckerboard="0"
     inkscape:deskcolor="#d1d1d1" />
  <defs
     id="defs4">
    <linearGradient
       id="linearGradient4298">
      <stop
         offset="0"
         id="stop4300"
         stop-color="#000"
         stop-opacity="1" />
      <stop
         offset="1"
         id="stop4302"
         stop-color="#000"
         stop-opacity="0" />
    </linearGradient>
    <linearGradient
       id="linearGradient4214">
      <stop
         offset="0"
         id="stop4216"
         stop-color="#fff"
         stop-opacity="1" />
      <stop
         offset="1"
         id="stop4218"
         stop-color="#fff"
         stop-opacity="0" />
    </linearGradient>
    <linearGradient
       id="a"
       y1="547.634"
       y2="499.679"
       x2="388.865"
       gradientUnits="userSpaceOnUse"
       gradientTransform="translate(-384.57 -499.8)"
       x1="428.816">
      <stop
         stop-color="#2a2c2f"
         id="stop7" />
      <stop
         offset="1"
         stop-color="#536161"
         id="stop9" />
    </linearGradient>
    <linearGradient
       id="b"
       y1="44"
       y2="12"
       x2="14"
       gradientUnits="userSpaceOnUse"
       x1="36">
      <stop
         stop-color="#bfc9c9"
         id="stop12"
         stop-opacity="1" />
      <stop
         offset="1"
         stop-color="#fbfbfb"
         id="stop14"
         stop-opacity="1" />
    </linearGradient>
    <linearGradient
       id="c"
       y1="529.8"
       x1="418.57"
       y2="539.825"
       x2="419.974"
       gradientUnits="userSpaceOnUse"
       gradientTransform="translate(-384.57 -499.8)">
      <stop
         stop-color="#292c2f"
         id="stop17" />
      <stop
         offset="1"
         stop-opacity="0"
         id="stop19" />
    </linearGradient>
    <linearGradient
       xlink:href="#linearGradient4214"
       id="linearGradient4220"
       x1="1"
       y1="0"
       x2="25"
       y2="27"
       gradientUnits="userSpaceOnUse" />
    <linearGradient
       id="c-6"
       y1="527.014"
       x1="406.501"
       y2="539.825"
       x2="419.974"
       gradientUnits="userSpaceOnUse"
       gradientTransform="translate(-404.99 -523.8)">
      <stop
         stop-color="#292c2f"
         id="stop17-7" />
      <stop
         offset="1"
         stop-opacity="0"
         id="stop19-5" />
    </linearGradient>
    <linearGradient
       xlink:href="#linearGradient4298"
       id="linearGradient4304"
       x1="26.929"
       y1="5.995"
       x2="47.121"
       y2="37.127"
       gradientUnits="userSpaceOnUse" />
    <linearGradient
       xlink:href="#linearGradient4298"
       id="linearGradient890"
       gradientUnits="userSpaceOnUse"
       x1="26.929"
       y1="5.995"
       x2="47.121"
       y2="37.127"
       gradientTransform="matrix(1.0999986,0,0,1.0999986,-0.39999251,-0.39999253)" />
    <linearGradient
       xlink:href="#linearGradient4214"
       id="linearGradient907"
       gradientUnits="userSpaceOnUse"
       x1="1"
       y1="0"
       x2="25"
       y2="27"
       gradientTransform="matrix(1.0999986,0,0,1.0999986,-0.39999251,-0.39999253)" />
    <style
       id="current-color-scheme"
       type="text/css" />
    <linearGradient
       inkscape:collect="always"
       xlink:href="#linearGradient4298"
       id="linearGradient881"
       gradientUnits="userSpaceOnUse"
       x1="26.929"
       y1="5.995"
       x2="47.121"
       y2="37.127"
       gradientTransform="matrix(1.0999986,0,0,1.0999986,-0.39999251,-0.39999253)" />
    <linearGradient
       inkscape:collect="always"
       xlink:href="#linearGradient4214"
       id="linearGradient883"
       gradientUnits="userSpaceOnUse"
       x1="1"
       y1="0"
       x2="25"
       y2="27"
       gradientTransform="matrix(1.0999986,0,0,1.0999986,-0.39999251,-0.39999253)" />
  </defs>
  <g
     id="g1"
     transform="translate(-1.9999775,-1.9999775)">
    <rect
       id="rect23"
       height="43.999943"
       rx="6.5999918"
       y="4.0000014"
       x="4.0000014"
       width="43.999943"
       ry="6.5999918"
       style="fill:#2d3033;fill-opacity:1;stroke-width:1.1" />
    <path
       style="color:#000000;clip-rule:nonzero;display:inline;overflow:visible;visibility:visible;opacity:0.4;isolation:auto;mix-blend-mode:normal;color-interpolation:sRGB;color-interpolation-filters:linearRGB;solid-color:#000000;solid-opacity:1;fill:url(#linearGradient881);fill-opacity:1;fill-rule:evenodd;stroke:none;stroke-width:1.1;stroke-linecap:butt;stroke-linejoin:miter;stroke-miterlimit:4;stroke-dasharray:none;stroke-dashoffset:0;stroke-opacity:1;color-rendering:auto;image-rendering:auto;shape-rendering:auto;text-rendering:auto"
       d="m 47.557754,43.599959 c 0.246399,-0.693 0.439999,-1.414599 0.439999,-2.193398 L 47.995553,29.16246 37.034059,18.180078 9.8090997,21.316182 19.39999,30.907058 9.7529998,32.256771 21.099481,43.599959 Z"
       id="path893"
       display="inline"
       overflow="visible"
       visibility="visible"
       stroke-miterlimit="4"
       inkscape:connector-curvature="0" />
    <rect
       style="color:#000000;clip-rule:nonzero;display:inline;overflow:visible;visibility:visible;opacity:0.194;isolation:auto;mix-blend-mode:normal;color-interpolation:sRGB;color-interpolation-filters:linearRGB;solid-color:#000000;solid-opacity:1;fill:#ffffff;fill-opacity:1;fill-rule:evenodd;stroke:none;stroke-width:1.1;stroke-linecap:butt;stroke-linejoin:miter;stroke-miterlimit:4;stroke-dasharray:none;stroke-dashoffset:0;stroke-opacity:1;marker:none;color-rendering:auto;image-rendering:auto;shape-rendering:auto;text-rendering:auto"
       id="rect4159"
       width="32.999962"
       height="2.1999941"
       x="9.4999952"
       y="19.399984"
       rx="1.099997"
       ry="1.0515982"
       display="inline"
       overflow="visible"
       visibility="visible"
       stroke-miterlimit="4" />
    <path
       id="path4172"
       d="m 10.55709,19.386784 c -0.6126956,0 -1.1054952,0.4928 -1.1054952,1.106599 0,0.612691 0.4927996,1.105491 1.1054952,1.105491 h 23.16268 v -2.21209 z"
       style="color:#000000;clip-rule:nonzero;display:inline;overflow:visible;visibility:visible;opacity:1;isolation:auto;mix-blend-mode:normal;color-interpolation:sRGB;color-interpolation-filters:linearRGB;solid-color:#000000;solid-opacity:1;fill:#3daee9;fill-opacity:1;fill-rule:evenodd;stroke:none;stroke-width:1.1;stroke-linecap:butt;stroke-linejoin:miter;stroke-miterlimit:4;stroke-dasharray:none;stroke-dashoffset:0;stroke-opacity:1;marker:none;color-rendering:auto;image-rendering:auto;shape-rendering:auto;text-rendering:auto"
       display="inline"
       overflow="visible"
       visibility="visible"
       stroke-miterlimit="4"
       inkscape:connector-curvature="0" />
    <path
       style="color:#000000;clip-rule:nonzero;display:inline;overflow:visible;visibility:visible;opacity:0.3;isolation:auto;mix-blend-mode:normal;color-interpolation:sRGB;color-interpolation-filters:linearRGB;solid-color:#000000;solid-opacity:1;fill:#ffffff;fill-opacity:1;fill-rule:evenodd;stroke:none;stroke-width:1.1;stroke-linecap:butt;stroke-linejoin:miter;stroke-miterlimit:4;stroke-dasharray:none;stroke-dashoffset:0;stroke-opacity:1;marker:none;color-rendering:auto;image-rendering:auto;shape-rendering:auto;text-rendering:auto"
       d="m 10.555993,19.386784 c -0.6115986,0 -1.1054982,0.493891 -1.1054982,1.106599 0,0.104539 0.033,0.196892 0.060497,0.2926 A 1.0867989,1.0867989 0 0 1 10.55599,19.971984 h 23.163774 v -0.5852 z"
       id="path4242"
       display="inline"
       overflow="visible"
       visibility="visible"
       stroke-miterlimit="4"
       inkscape:connector-curvature="0" />
    <circle
       r="3.2031929"
       cy="20.432882"
       cx="34.769176"
       id="circle4174"
       style="color:#000000;clip-rule:nonzero;display:inline;overflow:visible;visibility:visible;opacity:1;isolation:auto;mix-blend-mode:normal;color-interpolation:sRGB;color-interpolation-filters:linearRGB;solid-color:#000000;solid-opacity:1;fill:#fafafa;fill-opacity:1;fill-rule:evenodd;stroke:none;stroke-width:1.1;stroke-linecap:butt;stroke-linejoin:miter;stroke-miterlimit:4;stroke-dasharray:none;stroke-dashoffset:0;stroke-opacity:1;marker:none;color-rendering:auto;image-rendering:auto;shape-rendering:auto;text-rendering:auto"
       display="inline"
       overflow="visible"
       visibility="visible"
       stroke-miterlimit="4" />
    <rect
       ry="0.90529901"
       rx="1.099997"
       y="30.399969"
       x="9.4999952"
       height="2.1999941"
       width="32.999962"
       id="rect4225"
       style="color:#000000;clip-rule:nonzero;display:inline;overflow:visible;visibility:visible;opacity:0.194;isolation:auto;mix-blend-mode:normal;color-interpolation:sRGB;color-interpolation-filters:linearRGB;solid-color:#000000;solid-opacity:1;fill:#ffffff;fill-opacity:1;fill-rule:evenodd;stroke:none;stroke-width:1.1;stroke-linecap:butt;stroke-linejoin:miter;stroke-miterlimit:4;stroke-dasharray:none;stroke-dashoffset:0;stroke-opacity:1;marker:none;color-rendering:auto;image-rendering:auto;shape-rendering:auto;text-rendering:auto"
       display="inline"
       overflow="visible"
       visibility="visible"
       stroke-miterlimit="4" />
    <path
       style="color:#000000;clip-rule:nonzero;display:inline;overflow:visible;visibility:visible;opacity:1;isolation:auto;mix-blend-mode:normal;color-interpolation:sRGB;color-interpolation-filters:linearRGB;solid-color:#000000;solid-opacity:1;fill:#3daee9;fill-opacity:1;fill-rule:evenodd;stroke:none;stroke-width:1.1;stroke-linecap:butt;stroke-linejoin:miter;stroke-miterlimit:4;stroke-dasharray:none;stroke-dashoffset:0;stroke-opacity:1;marker:none;color-rendering:auto;image-rendering:auto;shape-rendering:auto;text-rendering:auto"
       d="m 10.55709,30.386773 c -0.6126956,0 -1.1054952,0.4928 -1.1054952,1.106599 0,0.612685 0.4927996,1.105484 1.1054952,1.105484 h 12.162691 v -2.212083 z"
       id="path4227"
       display="inline"
       overflow="visible"
       visibility="visible"
       stroke-miterlimit="4"
       inkscape:connector-curvature="0" />
    <path
       id="path4247"
       d="m 10.555993,30.386773 c -0.6115986,0 -1.1054982,0.493885 -1.1054982,1.106599 0,0.104537 0.033,0.196885 0.060497,0.2926 A 1.0867989,1.0867989 0 0 1 10.55599,30.971973 h 12.163786 v -0.5852 z"
       style="color:#000000;clip-rule:nonzero;display:inline;overflow:visible;visibility:visible;opacity:0.3;isolation:auto;mix-blend-mode:normal;color-interpolation:sRGB;color-interpolation-filters:linearRGB;solid-color:#000000;solid-opacity:1;fill:#ffffff;fill-opacity:1;fill-rule:evenodd;stroke:none;stroke-width:1.1;stroke-linecap:butt;stroke-linejoin:miter;stroke-miterlimit:4;stroke-dasharray:none;stroke-dashoffset:0;stroke-opacity:1;marker:none;color-rendering:auto;image-rendering:auto;shape-rendering:auto;text-rendering:auto"
       display="inline"
       overflow="visible"
       visibility="visible"
       stroke-miterlimit="4"
       inkscape:connector-curvature="0" />
    <circle
       style="color:#000000;clip-rule:nonzero;display:inline;overflow:visible;visibility:visible;opacity:1;isolation:auto;mix-blend-mode:normal;color-interpolation:sRGB;color-interpolation-filters:linearRGB;solid-color:#000000;solid-opacity:1;fill:#fafafa;fill-opacity:1;fill-rule:evenodd;stroke:none;stroke-width:1.1;stroke-linecap:butt;stroke-linejoin:miter;stroke-miterlimit:4;stroke-dasharray:none;stroke-dashoffset:0;stroke-opacity:1;marker:none;color-rendering:auto;image-rendering:auto;shape-rendering:auto;text-rendering:auto"
       id="circle4229"
       cx="21.569183"
       cy="31.432869"
       r="3.2031929"
       display="inline"
       overflow="visible"
       visibility="visible"
       stroke-miterlimit="4" />
    <path
       style="color:#000000;clip-rule:nonzero;display:inline;overflow:visible;visibility:visible;opacity:0.15;isolation:auto;mix-blend-mode:normal;color-interpolation:sRGB;color-interpolation-filters:linearRGB;solid-color:#000000;solid-opacity:1;fill:#000000;fill-opacity:1;fill-rule:evenodd;stroke:none;stroke-width:1.1;stroke-linecap:butt;stroke-linejoin:miter;stroke-miterlimit:4;stroke-dasharray:none;stroke-dashoffset:0;stroke-opacity:1;marker:none;color-rendering:auto;image-rendering:auto;shape-rendering:auto;text-rendering:auto"
       d="m 37.964651,20.197475 a 3.2031964,3.2031964 0 0 1 -3.194397,3.027196 3.2031964,3.2031964 0 0 1 -3.195482,-2.969996 3.2031964,3.2031964 0 0 0 -0.0076,0.1782 3.2031964,3.2031964 0 0 0 3.203196,3.204305 3.2031964,3.2031964 0 0 0 3.203197,-3.204305 3.2031964,3.2031964 0 0 0 -0.0086,-0.2354 z"
       id="circle4231"
       display="inline"
       overflow="visible"
       visibility="visible"
       stroke-miterlimit="4"
       inkscape:connector-curvature="0" />
    <path
       id="path4240"
       d="m 24.764667,31.197458 a 3.2031964,3.2031964 0 0 1 -3.194393,3.027197 3.2031964,3.2031964 0 0 1 -3.195489,-2.969997 3.2031964,3.2031964 0 0 0 -0.0076,0.1782 3.2031964,3.2031964 0 0 0 3.203197,3.204311 3.2031964,3.2031964 0 0 0 3.203196,-3.204311 3.2031964,3.2031964 0 0 0 -0.0086,-0.2354 z"
       style="color:#000000;clip-rule:nonzero;display:inline;overflow:visible;visibility:visible;opacity:0.15;isolation:auto;mix-blend-mode:normal;color-interpolation:sRGB;color-interpolation-filters:linearRGB;solid-color:#000000;solid-opacity:1;fill:#000000;fill-opacity:1;fill-rule:evenodd;stroke:none;stroke-width:1.1;stroke-linecap:butt;stroke-linejoin:miter;stroke-miterlimit:4;stroke-dasharray:none;stroke-dashoffset:0;stroke-opacity:1;marker:none;color-rendering:auto;image-rendering:auto;shape-rendering:auto;text-rendering:auto"
       display="inline"
       overflow="visible"
       visibility="visible"
       stroke-miterlimit="4"
       inkscape:connector-curvature="0" />
    <path
       d="M 10.599993,4.000002 A 6.5812923,6.5812923 0 0 0 4.5170013,8.0259963 c -0.0473,0.1143999 -0.033,0.2562998 -0.0748,0.3739997 H 47.557754 C 47.514806,8.2822961 47.530292,8.1403962 47.481892,8.0259963 A 6.5812923,6.5812923 0 0 0 43.972845,4.5170013 6.6109922,6.6109922 0 0 0 41.399961,4.000002 Z"
       id="path864"
       stroke-miterlimit="4"
       inkscape:connector-curvature="0"
       style="opacity:0.3;vector-effect:none;fill:#ffffff;fill-opacity:1;fill-rule:nonzero;stroke:none;stroke-width:1.1;stroke-linecap:round;stroke-linejoin:round;stroke-miterlimit:4;stroke-dasharray:none;stroke-dashoffset:0;stroke-opacity:1;paint-order:stroke fill markers" />
    <path
       d="M 10.599993,47.999953 A 6.5812923,6.5812923 0 0 1 4.5170013,43.973958 c -0.047297,-0.1144 -0.033,-0.256313 -0.0748,-0.373999 H 47.557754 c -0.04291,0.117686 -0.02749,0.259599 -0.07589,0.373999 A 6.5812923,6.5812923 0 0 1 43.972885,47.482954 6.6109922,6.6109922 0 0 1 41.4,47.999953 Z"
       id="path864-3"
       stroke-miterlimit="4"
       inkscape:connector-curvature="0"
       style="opacity:0.3;vector-effect:none;fill:#000000;fill-opacity:1;fill-rule:nonzero;stroke:none;stroke-width:1.1;stroke-linecap:round;stroke-linejoin:round;stroke-miterlimit:4;stroke-dasharray:none;stroke-dashoffset:0;stroke-opacity:1;paint-order:stroke fill markers" />
    <path
       d="M 10.599993,4.000002 A 6.5812923,6.5812923 0 0 0 4.5170013,8.0259963 6.6109922,6.6109922 0 0 0 4.000002,10.599993 v 30.799968 a 6.5812923,6.5812923 0 0 0 4.0259943,6.082993 6.6109922,6.6109922 0 0 0 2.5739967,0.516999 h 30.799968 a 6.5812923,6.5812923 0 0 0 6.082993,-4.025995 6.6109922,6.6109922 0 0 0 0.516999,-2.573997 V 10.599993 A 6.5812923,6.5812923 0 0 0 43.973958,4.5170013 6.6109922,6.6109922 0 0 0 41.399961,4.000002 Z"
       id="path899"
       style="opacity:0.276;fill:url(#linearGradient883);fill-opacity:1;stroke-width:1.1"
       inkscape:connector-curvature="0" />
    <rect
       ry="6.5999918"
       width="43.999943"
       x="4.0000014"
       y="4.0000014"
       rx="6.5999918"
       height="43.999943"
       id="rect851"
       style="fill:#2d3033;fill-opacity:1;stroke-width:1.1" />
    <path
       stroke-miterlimit="4"
       visibility="visible"
       overflow="visible"
       display="inline"
       id="path853"
       d="m 47.557754,43.599959 c 0.246399,-0.693 0.439999,-1.414599 0.439999,-2.193398 L 47.995553,29.16246 37.034059,18.180078 9.8090997,21.316182 19.39999,30.907058 9.7529998,32.256771 21.099481,43.599959 Z"
       style="color:#000000;clip-rule:nonzero;display:inline;overflow:visible;visibility:visible;opacity:0.4;isolation:auto;mix-blend-mode:normal;color-interpolation:sRGB;color-interpolation-filters:linearRGB;solid-color:#000000;solid-opacity:1;fill:url(#linearGradient890);fill-opacity:1;fill-rule:evenodd;stroke:none;stroke-width:1.1;stroke-linecap:butt;stroke-linejoin:miter;stroke-miterlimit:4;stroke-dasharray:none;stroke-dashoffset:0;stroke-opacity:1;color-rendering:auto;image-rendering:auto;shape-rendering:auto;text-rendering:auto"
       inkscape:connector-curvature="0" />
    <rect
       stroke-miterlimit="4"
       visibility="visible"
       overflow="visible"
       display="inline"
       ry="1.0515982"
       rx="1.099997"
       y="19.399984"
       x="9.4999952"
       height="2.1999941"
       width="32.999962"
       id="rect855"
       style="color:#000000;clip-rule:nonzero;display:inline;overflow:visible;visibility:visible;opacity:0.194;isolation:auto;mix-blend-mode:normal;color-interpolation:sRGB;color-interpolation-filters:linearRGB;solid-color:#000000;solid-opacity:1;fill:#ffffff;fill-opacity:1;fill-rule:evenodd;stroke:none;stroke-width:1.1;stroke-linecap:butt;stroke-linejoin:miter;stroke-miterlimit:4;stroke-dasharray:none;stroke-dashoffset:0;stroke-opacity:1;marker:none;color-rendering:auto;image-rendering:auto;shape-rendering:auto;text-rendering:auto" />
    <path
       stroke-miterlimit="4"
       visibility="visible"
       overflow="visible"
       display="inline"
       style="color:#000000;clip-rule:nonzero;display:inline;overflow:visible;visibility:visible;opacity:1;isolation:auto;mix-blend-mode:normal;color-interpolation:sRGB;color-interpolation-filters:linearRGB;solid-color:#000000;solid-opacity:1;fill:#3daee9;fill-opacity:1;fill-rule:evenodd;stroke:none;stroke-width:1.1;stroke-linecap:butt;stroke-linejoin:miter;stroke-miterlimit:4;stroke-dasharray:none;stroke-dashoffset:0;stroke-opacity:1;marker:none;color-rendering:auto;image-rendering:auto;shape-rendering:auto;text-rendering:auto"
       d="m 10.55709,19.386784 c -0.6126956,0 -1.1054952,0.4928 -1.1054952,1.106599 0,0.612691 0.4927996,1.105491 1.1054952,1.105491 h 23.16268 v -2.21209 z"
       id="path857"
       inkscape:connector-curvature="0" />
    <path
       stroke-miterlimit="4"
       visibility="visible"
       overflow="visible"
       display="inline"
       id="path859"
       d="m 10.555993,19.386784 c -0.6115986,0 -1.1054982,0.493891 -1.1054982,1.106599 0,0.104539 0.033,0.196892 0.060497,0.2926 A 1.0867989,1.0867989 0 0 1 10.55599,19.971984 h 23.163774 v -0.5852 z"
       style="color:#000000;clip-rule:nonzero;display:inline;overflow:visible;visibility:visible;opacity:0.3;isolation:auto;mix-blend-mode:normal;color-interpolation:sRGB;color-interpolation-filters:linearRGB;solid-color:#000000;solid-opacity:1;fill:#ffffff;fill-opacity:1;fill-rule:evenodd;stroke:none;stroke-width:1.1;stroke-linecap:butt;stroke-linejoin:miter;stroke-miterlimit:4;stroke-dasharray:none;stroke-dashoffset:0;stroke-opacity:1;marker:none;color-rendering:auto;image-rendering:auto;shape-rendering:auto;text-rendering:auto"
       inkscape:connector-curvature="0" />
    <circle
       stroke-miterlimit="4"
       visibility="visible"
       overflow="visible"
       display="inline"
       style="color:#000000;clip-rule:nonzero;display:inline;overflow:visible;visibility:visible;opacity:1;isolation:auto;mix-blend-mode:normal;color-interpolation:sRGB;color-interpolation-filters:linearRGB;solid-color:#000000;solid-opacity:1;fill:#fafafa;fill-opacity:1;fill-rule:evenodd;stroke:none;stroke-width:1.1;stroke-linecap:butt;stroke-linejoin:miter;stroke-miterlimit:4;stroke-dasharray:none;stroke-dashoffset:0;stroke-opacity:1;marker:none;color-rendering:auto;image-rendering:auto;shape-rendering:auto;text-rendering:auto"
       id="circle861"
       cx="34.769176"
       cy="20.432882"
       r="3.2031929" />
    <rect
       stroke-miterlimit="4"
       visibility="visible"
       overflow="visible"
       display="inline"
       style="color:#000000;clip-rule:nonzero;display:inline;overflow:visible;visibility:visible;opacity:0.194;isolation:auto;mix-blend-mode:normal;color-interpolation:sRGB;color-interpolation-filters:linearRGB;solid-color:#000000;solid-opacity:1;fill:#ffffff;fill-opacity:1;fill-rule:evenodd;stroke:none;stroke-width:1.1;stroke-linecap:butt;stroke-linejoin:miter;stroke-miterlimit:4;stroke-dasharray:none;stroke-dashoffset:0;stroke-opacity:1;marker:none;color-rendering:auto;image-rendering:auto;shape-rendering:auto;text-rendering:auto"
       id="rect863"
       width="32.999962"
       height="2.1999941"
       x="9.4999952"
       y="30.399969"
       rx="1.099997"
       ry="0.90529901" />
    <path
       stroke-miterlimit="4"
       visibility="visible"
       overflow="visible"
       display="inline"
       id="path865"
       d="m 10.55709,30.386773 c -0.6126956,0 -1.1054952,0.4928 -1.1054952,1.106599 0,0.612685 0.4927996,1.105484 1.1054952,1.105484 h 12.162691 v -2.212083 z"
       style="color:#000000;clip-rule:nonzero;display:inline;overflow:visible;visibility:visible;opacity:1;isolation:auto;mix-blend-mode:normal;color-interpolation:sRGB;color-interpolation-filters:linearRGB;solid-color:#000000;solid-opacity:1;fill:#3daee9;fill-opacity:1;fill-rule:evenodd;stroke:none;stroke-width:1.1;stroke-linecap:butt;stroke-linejoin:miter;stroke-miterlimit:4;stroke-dasharray:none;stroke-dashoffset:0;stroke-opacity:1;marker:none;color-rendering:auto;image-rendering:auto;shape-rendering:auto;text-rendering:auto"
       inkscape:connector-curvature="0" />
    <path
       stroke-miterlimit="4"
       visibility="visible"
       overflow="visible"
       display="inline"
       style="color:#000000;clip-rule:nonzero;display:inline;overflow:visible;visibility:visible;opacity:0.3;isolation:auto;mix-blend-mode:normal;color-interpolation:sRGB;color-interpolation-filters:linearRGB;solid-color:#000000;solid-opacity:1;fill:#ffffff;fill-opacity:1;fill-rule:evenodd;stroke:none;stroke-width:1.1;stroke-linecap:butt;stroke-linejoin:miter;stroke-miterlimit:4;stroke-dasharray:none;stroke-dashoffset:0;stroke-opacity:1;marker:none;color-rendering:auto;image-rendering:auto;shape-rendering:auto;text-rendering:auto"
       d="m 10.555993,30.386773 c -0.6115986,0 -1.1054982,0.493885 -1.1054982,1.106599 0,0.104537 0.033,0.196885 0.060497,0.2926 A 1.0867989,1.0867989 0 0 1 10.55599,30.971973 h 12.163786 v -0.5852 z"
       id="path867"
       inkscape:connector-curvature="0" />
    <circle
       stroke-miterlimit="4"
       visibility="visible"
       overflow="visible"
       display="inline"
       r="3.2031929"
       cy="31.432869"
       cx="21.569183"
       id="circle869"
       style="color:#000000;clip-rule:nonzero;display:inline;overflow:visible;visibility:visible;opacity:1;isolation:auto;mix-blend-mode:normal;color-interpolation:sRGB;color-interpolation-filters:linearRGB;solid-color:#000000;solid-opacity:1;fill:#fafafa;fill-opacity:1;fill-rule:evenodd;stroke:none;stroke-width:1.1;stroke-linecap:butt;stroke-linejoin:miter;stroke-miterlimit:4;stroke-dasharray:none;stroke-dashoffset:0;stroke-opacity:1;marker:none;color-rendering:auto;image-rendering:auto;shape-rendering:auto;text-rendering:auto" />
    <path
       stroke-miterlimit="4"
       visibility="visible"
       overflow="visible"
       display="inline"
       id="path871"
       d="m 37.964651,20.197475 a 3.2031964,3.2031964 0 0 1 -3.194397,3.027196 3.2031964,3.2031964 0 0 1 -3.195482,-2.969996 3.2031964,3.2031964 0 0 0 -0.0076,0.1782 3.2031964,3.2031964 0 0 0 3.203196,3.204305 3.2031964,3.2031964 0 0 0 3.203197,-3.204305 3.2031964,3.2031964 0 0 0 -0.0086,-0.2354 z"
       style="color:#000000;clip-rule:nonzero;display:inline;overflow:visible;visibility:visible;opacity:0.15;isolation:auto;mix-blend-mode:normal;color-interpolation:sRGB;color-interpolation-filters:linearRGB;solid-color:#000000;solid-opacity:1;fill:#000000;fill-opacity:1;fill-rule:evenodd;stroke:none;stroke-width:1.1;stroke-linecap:butt;stroke-linejoin:miter;stroke-miterlimit:4;stroke-dasharray:none;stroke-dashoffset:0;stroke-opacity:1;marker:none;color-rendering:auto;image-rendering:auto;shape-rendering:auto;text-rendering:auto"
       inkscape:connector-curvature="0" />
    <path
       stroke-miterlimit="4"
       visibility="visible"
       overflow="visible"
       display="inline"
       style="color:#000000;clip-rule:nonzero;display:inline;overflow:visible;visibility:visible;opacity:0.15;isolation:auto;mix-blend-mode:normal;color-interpolation:sRGB;color-interpolation-filters:linearRGB;solid-color:#000000;solid-opacity:1;fill:#000000;fill-opacity:1;fill-rule:evenodd;stroke:none;stroke-width:1.1;stroke-linecap:butt;stroke-linejoin:miter;stroke-miterlimit:4;stroke-dasharray:none;stroke-dashoffset:0;stroke-opacity:1;marker:none;color-rendering:auto;image-rendering:auto;shape-rendering:auto;text-rendering:auto"
       d="m 24.764667,31.197458 a 3.2031964,3.2031964 0 0 1 -3.194393,3.027197 3.2031964,3.2031964 0 0 1 -3.195489,-2.969997 3.2031964,3.2031964 0 0 0 -0.0076,0.1782 3.2031964,3.2031964 0 0 0 3.203197,3.204311 3.2031964,3.2031964 0 0 0 3.203196,-3.204311 3.2031964,3.2031964 0 0 0 -0.0086,-0.2354 z"
       id="path873"
       inkscape:connector-curvature="0" />
    <path
       stroke-miterlimit="4"
       id="path875"
       d="M 10.599993,4.000002 A 6.5812923,6.5812923 0 0 0 4.5170013,8.0259963 c -0.0473,0.1143999 -0.033,0.2562998 -0.0748,0.3739997 H 47.557754 C 47.514806,8.2822961 47.530292,8.1403962 47.481892,8.0259963 A 6.5812923,6.5812923 0 0 0 43.972845,4.5170013 6.6109922,6.6109922 0 0 0 41.399961,4.000002 Z"
       inkscape:connector-curvature="0"
       style="opacity:0.3;vector-effect:none;fill:#ffffff;fill-opacity:1;fill-rule:nonzero;stroke:none;stroke-width:1.1;stroke-linecap:round;stroke-linejoin:round;stroke-miterlimit:4;stroke-dasharray:none;stroke-dashoffset:0;stroke-opacity:1;paint-order:stroke fill markers" />
    <path
       stroke-miterlimit="4"
       id="path877"
       d="M 10.599993,47.999953 A 6.5812923,6.5812923 0 0 1 4.5170013,43.973958 c -0.047297,-0.1144 -0.033,-0.256313 -0.0748,-0.373999 H 47.557754 c -0.04291,0.117686 -0.02749,0.259599 -0.07589,0.373999 A 6.5812923,6.5812923 0 0 1 43.972885,47.482954 6.6109922,6.6109922 0 0 1 41.4,47.999953 Z"
       inkscape:connector-curvature="0"
       style="opacity:0.3;vector-effect:none;fill:#000000;fill-opacity:1;fill-rule:nonzero;stroke:none;stroke-width:1.1;stroke-linecap:round;stroke-linejoin:round;stroke-miterlimit:4;stroke-dasharray:none;stroke-dashoffset:0;stroke-opacity:1;paint-order:stroke fill markers" />
    <path
       id="path879"
       d="M 10.599993,4.000002 A 6.5812923,6.5812923 0 0 0 4.5170013,8.0259963 6.6109922,6.6109922 0 0 0 4.000002,10.599993 v 30.799968 a 6.5812923,6.5812923 0 0 0 4.0259943,6.082993 6.6109922,6.6109922 0 0 0 2.5739967,0.516999 h 30.799968 a 6.5812923,6.5812923 0 0 0 6.082993,-4.025995 6.6109922,6.6109922 0 0 0 0.516999,-2.573997 V 10.599993 A 6.5812923,6.5812923 0 0 0 43.973958,4.5170013 6.6109922,6.6109922 0 0 0 41.399961,4.000002 Z"
       style="opacity:0.276;fill:url(#linearGradient907);fill-opacity:1;stroke-width:1.1"
       inkscape:connector-curvature="0" />
  </g>
</svg>
