<?xml version="1.0" encoding="UTF-8" standalone="no"?>
<svg
   width="32"
   height="32"
   version="1.1"
   id="svg12"
   sodipodi:docname="applications.svg"
   inkscape:version="1.1.1 (3bf5ae0d25, 2021-09-20)"
   xmlns:inkscape="http://www.inkscape.org/namespaces/inkscape"
   xmlns:sodipodi="http://sodipodi.sourceforge.net/DTD/sodipodi-0.dtd"
   xmlns="http://www.w3.org/2000/svg"
   xmlns:svg="http://www.w3.org/2000/svg"
   xmlns:rdf="http://www.w3.org/1999/02/22-rdf-syntax-ns#"
   xmlns:cc="http://creativecommons.org/ns#"
   xmlns:dc="http://purl.org/dc/elements/1.1/">
  <metadata
     id="metadata18">
    <rdf:RDF>
      <cc:Work
         rdf:about="">
        <dc:format>image/svg+xml</dc:format>
        <dc:type
           rdf:resource="http://purl.org/dc/dcmitype/StillImage" />
      </cc:Work>
    </rdf:RDF>
  </metadata>
  <defs
     id="defs16" />
  <sodipodi:namedview
     pagecolor="#ffffff"
     bordercolor="#000000"
     borderopacity="1"
     objecttolerance="10"
     gridtolerance="10"
     guidetolerance="10"
     inkscape:pageopacity="0"
     inkscape:pageshadow="2"
     inkscape:window-width="1920"
     inkscape:window-height="1013"
     id="namedview14"
     showgrid="false"
     inkscape:zoom="9.8125004"
     inkscape:cx="28.738852"
     inkscape:cy="16.254776"
     inkscape:window-x="0"
     inkscape:window-y="0"
     inkscape:window-maximized="1"
     inkscape:current-layer="svg12"
     inkscape:document-rotation="0"
     showguides="false"
     inkscape:lockguides="true"
     inkscape:showpageshadow="false"
     inkscape:pagecheckerboard="0">
    <inkscape:grid
       type="xygrid"
       id="grid942"
       originx="0"
       originy="0" />
  </sodipodi:namedview>
  <g
     id="applications-other">
    <path
       style="clip-rule:evenodd;fill:#ffffc1;fill-opacity:0;fill-rule:evenodd;stroke-width:1.00213;stroke-linejoin:round;stroke-miterlimit:1.41421"
       d="M 0,0 V 32 H 32 V 0 Z"
       id="rect817"
       inkscape:connector-curvature="0" />
    <circle
       cx="16.000002"
       cy="16"
       r="15"
       style="opacity:1;fill:#434c5e;fill-opacity:1;stroke-width:1.07143"
       id="circle6" />
    <path
       style="fill:#d6dbf1;fill-opacity:1;fill-rule:evenodd;stroke-width:1"
       d="M 11,7 A 4,4 0 0 0 7.0000007,11 4,4 0 0 0 11,15 4,4 0 0 0 15.000001,11 4,4 0 0 0 11,7 Z M 21.000001,7 A 4,4 0 0 0 17,11 a 4,4 0 0 0 4.000001,4 4,4 0 0 0 4,-4 4,4 0 0 0 -4,-4 z M 11,17 A 4,4 0 0 0 7.0000007,21 4,4 0 0 0 11,25 4,4 0 0 0 15.000001,21 4,4 0 0 0 11,17 Z m 10.000001,0 A 4,4 0 0 0 17,21 a 4,4 0 0 0 4.000001,4 4,4 0 0 0 4,-4 4,4 0 0 0 -4,-4 z"
       id="path10" />
  </g>
  <g
     id="22-22-applications-other"
     transform="translate(32,9.9999997)">
    <path
       style="clip-rule:evenodd;fill:#ffffc1;fill-opacity:0;fill-rule:evenodd;stroke-width:0.688964;stroke-linejoin:round;stroke-miterlimit:1.41421"
       d="M 0,0 V 22 H 22 V 0 Z"
       id="rect817-5"
       inkscape:connector-curvature="0" />
    <circle
       cx="11"
       cy="11"
       r="11"
       style="opacity:1;fill:#434c5e;fill-opacity:1;stroke-width:0.785716"
       id="circle6-6" />
    <path
       style="fill:#d6dbf1;fill-opacity:1;fill-rule:evenodd;stroke-width:0.733334"
       d="M 7.3333326,4.3999999 A 2.9333334,2.9333334 0 0 0 4.4,7.3333325 2.9333334,2.9333334 0 0 0 7.3333326,10.266666 2.9333334,2.9333334 0 0 0 10.266666,7.3333325 2.9333334,2.9333334 0 0 0 7.3333326,4.3999999 Z m 7.3333334,0 A 2.9333334,2.9333334 0 0 0 11.733333,7.3333325 2.9333334,2.9333334 0 0 0 14.666666,10.266666 2.9333334,2.9333334 0 0 0 17.6,7.3333325 2.9333334,2.9333334 0 0 0 14.666666,4.3999999 Z M 7.3333326,11.733333 A 2.9333334,2.9333334 0 0 0 4.4,14.666666 2.9333334,2.9333334 0 0 0 7.3333326,17.6 2.9333334,2.9333334 0 0 0 10.266666,14.666666 2.9333334,2.9333334 0 0 0 7.3333326,11.733333 Z m 7.3333334,0 A 2.9333334,2.9333334 0 0 0 11.733333,14.666666 2.9333334,2.9333334 0 0 0 14.666666,17.6 2.9333334,2.9333334 0 0 0 17.6,14.666666 2.9333334,2.9333334 0 0 0 14.666666,11.733333 Z"
       id="path10-7" />
  </g>
</svg>
