<?xml version="1.0" encoding="UTF-8" standalone="no"?>
<svg
   width="32"
   height="32"
   version="1.1"
   id="svg12"
   sodipodi:docname="apport.svg"
   inkscape:version="1.1.1 (3bf5ae0d25, 2021-09-20)"
   xmlns:inkscape="http://www.inkscape.org/namespaces/inkscape"
   xmlns:sodipodi="http://sodipodi.sourceforge.net/DTD/sodipodi-0.dtd"
   xmlns="http://www.w3.org/2000/svg"
   xmlns:svg="http://www.w3.org/2000/svg"
   xmlns:rdf="http://www.w3.org/1999/02/22-rdf-syntax-ns#"
   xmlns:cc="http://creativecommons.org/ns#"
   xmlns:dc="http://purl.org/dc/elements/1.1/">
  <metadata
     id="metadata18">
    <rdf:RDF>
      <cc:Work
         rdf:about="">
        <dc:format>image/svg+xml</dc:format>
        <dc:type
           rdf:resource="http://purl.org/dc/dcmitype/StillImage" />
      </cc:Work>
    </rdf:RDF>
  </metadata>
  <defs
     id="defs16" />
  <sodipodi:namedview
     pagecolor="#ffffff"
     bordercolor="#666666"
     borderopacity="1"
     objecttolerance="10"
     gridtolerance="10"
     guidetolerance="10"
     inkscape:pageopacity="0"
     inkscape:pageshadow="2"
     inkscape:window-width="1920"
     inkscape:window-height="1006"
     id="namedview14"
     showgrid="false"
     inkscape:zoom="6.9384853"
     inkscape:cx="23.348035"
     inkscape:cy="15.997728"
     inkscape:window-x="0"
     inkscape:window-y="0"
     inkscape:window-maximized="1"
     inkscape:current-layer="svg12"
     inkscape:document-rotation="0"
     inkscape:pagecheckerboard="0">
    <inkscape:grid
       type="xygrid"
       id="grid844"
       originx="0"
       originy="1e-06" />
  </sodipodi:namedview>
  <g
     id="g2434"
     transform="translate(32.000001)" />
  <g
     id="apport">
    <path
       style="opacity:0.00100002;fill:#232627;fill-opacity:1"
       d="M 0,0 V 32.000001 H 32.000001 V 0 Z"
       id="path7" />
    <path
       style="fill:#232627;fill-opacity:1;stroke-width:0.0246479"
       inkscape:connector-curvature="0"
       id="path4"
       d="m 15.295212,8.0652032 h -0.587946 c -0.486231,0 -0.883153,0.3893763 -0.883153,0.8718143 V 14.403 c 0,0.479987 0.394443,0.871814 0.883153,0.871814 h 0.587946 c 0.486232,0 0.883156,-0.389379 0.883156,-0.871814 V 8.9370175 C 16.175835,8.4545795 15.781444,8.0652032 15.295212,8.0652032 Z M 19.118082,4 H 10.881916 C 7.6321003,4 5,6.6007508 5,9.8063821 v 8.3508069 c 0,3.208081 2.6345811,5.588428 5.881916,5.588428 h 1.175885 c 0.840984,1.442413 2.227735,3.857046 2.354255,4.065202 0.148848,0.249789 0.439097,0.254687 0.587942,0 0.168693,-0.286522 1.528157,-2.654626 2.354256,-4.065202 h 1.763828 C 22.367897,23.745617 25,21.36527 25,18.157189 V 9.8063821 C 25,6.6007508 22.367897,4 19.118082,4 Z m 4.706032,13.598836 C 24,21.000001 21.395434,22.582382 18.530141,22.582382 H 16.76631 c -0.726866,1.239152 -1.617466,3.232571 -1.76383,3.484808 -0.131481,0.222853 -0.456463,0.220403 -0.587943,0 -0.109156,-0.183668 -1.022081,-2.216269 -1.763829,-3.484808 h -1.768792 c -2.8677758,0 -4.7060289,-2.164842 -4.7060289,-4.983546 V 10.26433 C 6.1758871,7.4456254 8,5.1632356 11.365665,5.1632356 h 7.266187 c 3.368148,0 5.189778,2.2848404 5.189778,5.1010944 v 7.334506 z M 15.295212,16.776 h -0.587946 c -0.486231,0 -0.883153,0.389378 -0.883153,0.871814 v 0.580394 c 0,0.479987 0.394443,0.871814 0.883153,0.871814 h 0.587946 c 0.486232,0 0.883156,-0.389378 0.883156,-0.871814 V 17.647814 C 16.175835,17.165378 15.781444,16.776 15.295212,16.776 Z"
       sodipodi:nodetypes="ssssssscssssssccccsssscsccccssssssccssssssscs" />
  </g>
  <g
     id="22-22-apport"
     style="fill:#232627;fill-opacity:1">
    <path
       style="opacity:0.00100002;fill:#232627;fill-opacity:1;stroke-width:0.6875"
       d="m 32.000001,10 v 22 h 22 V 10 Z"
       id="path7-3" />
    <path
       style="fill:#232627;fill-opacity:1;stroke-width:0.0163268"
       inkscape:connector-curvature="0"
       id="path4-6"
       d="m 43.200332,15.693144 h -0.386931 c -0.319992,0 -0.581204,0.259575 -0.581204,0.581194 v 3.643993 c 0,0.319988 0.259593,0.581218 0.581204,0.581218 h 0.386931 c 0.319993,0 0.581222,-0.259593 0.581222,-0.581218 v -3.643993 c -0.0023,-0.321619 -0.261229,-0.581194 -0.581222,-0.581194 z m 2.515854,-2.710143 h -5.420262 c -2.13872,0 -3.870923,1.73384 -3.870923,3.870923 v 5.567206 c 0,2.13872 1.73384,3.725614 3.870923,3.725614 h 0.77385 c 0.553458,0.961609 1.466084,2.571364 1.549359,2.710135 0.09796,0.166526 0.288973,0.169791 0.386915,0 0.111033,-0.191015 1.005702,-1.769752 1.549359,-2.710135 h 1.160779 c 2.138721,0 3.870932,-1.586894 3.870932,-3.725614 v -5.567206 c 0,-2.137083 -1.732211,-3.870923 -3.870932,-3.870923 z m 3.097061,9.065888 c 0,1.879143 -1.598316,3.322362 -3.483992,3.322362 h -1.160784 c -0.47835,0.826105 -1.064462,2.15505 -1.160786,2.323208 -0.08655,0.148568 -0.300392,0.146935 -0.386924,0 -0.07179,-0.122444 -0.67264,-1.477512 -1.160796,-2.323208 h -1.164041 c -1.887309,0 -3.097072,-1.443219 -3.097072,-3.322362 v -4.889662 c 0,-1.879148 1.529755,-3.40074 3.415428,-3.40074 h 4.781918 c 1.887292,0 3.415427,1.52323 3.415427,3.40074 v 4.889662 z m -5.612915,-0.548548 h -0.386931 c -0.319992,0 -0.581204,0.259577 -0.581204,0.581197 v 0.386935 c 0,0.319994 0.259593,0.581206 0.581204,0.581206 h 0.386931 c 0.319993,0 0.581222,-0.259576 0.581222,-0.581206 v -0.386935 c -0.0023,-0.32162 -0.261229,-0.581197 -0.581222,-0.581197 z" />
  </g>
</svg>
