<?xml version="1.0" encoding="UTF-8" standalone="no"?>
<svg
   id="svg50"
   width="32"
   height="32"
   version="1.1"
   sodipodi:docname="audio.svg"
   inkscape:version="1.1.1 (3bf5ae0d25, 2021-09-20)"
   xmlns:inkscape="http://www.inkscape.org/namespaces/inkscape"
   xmlns:sodipodi="http://sodipodi.sourceforge.net/DTD/sodipodi-0.dtd"
   xmlns="http://www.w3.org/2000/svg"
   xmlns:svg="http://www.w3.org/2000/svg"
   xmlns:rdf="http://www.w3.org/1999/02/22-rdf-syntax-ns#"
   xmlns:cc="http://creativecommons.org/ns#"
   xmlns:dc="http://purl.org/dc/elements/1.1/">
  <g
     id="22-22-audio-volume-medium"
     transform="translate(32.000001,-22)"
     style="fill:#232627;fill-opacity:1">
    <path
       style="opacity:0.00100002;fill:#232627;fill-opacity:1"
       d="M 0,0 H 22 V 22 H 0 Z"
       id="path12" />
    <path
       d="m 13.54824,4.5171321 a 0.43646681,0.43646681 0 0 0 -0.580496,0.415261 v 0.02936 a 0.44207852,0.44207852 0 0 0 0.298667,0.415892 5.8555138,5.8555138 0 0 1 0,11.0538349 0.44207852,0.44207852 0 0 0 -0.298667,0.41589 v 0.02931 a 0.43646681,0.43646681 0 0 0 0.580496,0.415891 6.7614935,6.7614935 0 0 0 0,-12.7753869 z"
       id="path6-5-6-6-8"
       style="opacity:0.4;fill:#232627;fill-opacity:1;stroke-width:0.0623529" />
    <path
       d="m 10.925079,3.1796721 -3.749252,3.595867 v 0.0055 c -0.02308,0 -0.04607,-0.0041 -0.06978,-0.0041 H 4.607575 C 4.189199,6.7769391 4.3040701,7.561175 3.85,7.6074701 2e-6,8 2e-6,14 3.85,14.357739 c 0.4569456,0.04246 0.339199,0.830534 0.757575,0.830534 h 2.498472 c 0.023312,-8e-6 0.046606,-0.0013 0.06978,-0.0038 v 0.03928 l 3.749252,3.596546 c 0.410728,0.393811 1.093126,0.102649 1.093038,-0.466372 V 3.6460951 c 1.09e-4,-0.5690329 -0.682301,-0.8602155 -1.093038,-0.466396 z m 0.03487,14.0953839 -2.72605,-2.589495 V 7.3816061 l 2.72605,-2.65871 z"
       id="path8-3-7-7-7"
       style="fill:#232627;fill-opacity:1;stroke-width:0.0623529"
       sodipodi:nodetypes="cccsssssccccccccccccc" />
    <path
       d="m 13.659236,14.237247 a 4.0641296,4.0641296 0 0 0 0,-6.6654759 0.43958441,0.43958441 0 0 0 -0.694611,0.357282 v 0.03245 a 0.44581965,0.44581965 0 0 0 0.191426,0.36227 3.1606435,3.1606435 0 0 1 0,5.1615359 0.44581965,0.44581965 0 0 0 -0.191426,0.36289 v 0.0318 a 0.43646681,0.43646681 0 0 0 0.694611,0.357281 z"
       id="path4-367-3-3-9"
       style="fill:#232627;fill-opacity:1;stroke-width:0.0623529" />
  </g>
  <g
     id="22-22-audio-volume-low"
     transform="translate(64.000002,-22)"
     style="fill:#232627;fill-opacity:1">
    <path
       style="opacity:0.00100002;fill:#232627;fill-opacity:1"
       d="M 0,0 H 22 V 22 H 0 Z"
       id="path19" />
    <path
       d="m 13.659236,14.237247 a 4.0641296,4.0641296 0 0 0 0,-6.6654759 0.43958441,0.43958441 0 0 0 -0.694611,0.357282 v 0.03245 a 0.44581965,0.44581965 0 0 0 0.191426,0.36227 3.1606435,3.1606435 0 0 1 0,5.1615359 0.44581965,0.44581965 0 0 0 -0.191426,0.36289 v 0.0318 a 0.43646681,0.43646681 0 0 0 0.694611,0.357281 z"
       id="path4-367-3-5"
       style="opacity:0.4;fill:#232627;fill-opacity:1;stroke-width:0.0623529" />
    <path
       d="m 13.54824,4.5171321 a 0.43646681,0.43646681 0 0 0 -0.580496,0.415261 v 0.02936 a 0.44207852,0.44207852 0 0 0 0.298667,0.415892 5.8555138,5.8555138 0 0 1 0,11.0538349 0.44207852,0.44207852 0 0 0 -0.298667,0.41589 v 0.02931 a 0.43646681,0.43646681 0 0 0 0.580496,0.415891 6.7614935,6.7614935 0 0 0 0,-12.7753869 z"
       id="path6-5-6-3"
       style="opacity:0.4;fill:#232627;fill-opacity:1;stroke-width:0.0623529" />
    <path
       d="m 10.925079,3.1796721 -3.749252,3.595867 v 0.0055 c -0.02308,0 -0.04607,-0.0041 -0.06978,-0.0041 H 4.607575 C 4.189199,6.7769391 4.3040701,7.561175 3.85,7.6074701 1e-6,8 1e-6,14 3.85,14.357739 c 0.4569456,0.04246 0.339199,0.830534 0.757575,0.830534 h 2.498472 c 0.023312,-8e-6 0.046606,-0.0013 0.06978,-0.0038 v 0.03928 l 3.749252,3.596546 c 0.410728,0.393811 1.093126,0.102649 1.093038,-0.466372 V 3.6460951 c 1.09e-4,-0.5690329 -0.682301,-0.8602155 -1.093038,-0.466396 z m 0.03487,14.0953839 -2.72605,-2.589495 V 7.3816061 l 2.72605,-2.65871 z"
       id="path8-3-7-5"
       style="fill:#232627;fill-opacity:1;stroke-width:0.0623529"
       sodipodi:nodetypes="cccsssssccccccccccccc" />
  </g>
  <g
     id="22-22-audio-volume-high"
     transform="translate(32.000001,-22)"
     style="fill:#232627;fill-opacity:1">
    <path
       style="opacity:0.00100002;fill:#232627;fill-opacity:1"
       d="m -32.000001,0 h 22 v 22 h -22 z"
       id="path7" />
    <path
       d="m -18.340765,14.237247 a 4.0641296,4.0641296 0 0 0 0,-6.6654759 0.43958441,0.43958441 0 0 0 -0.694611,0.357282 v 0.03245 a 0.44581965,0.44581965 0 0 0 0.191426,0.36227 3.1606435,3.1606435 0 0 1 0,5.1615359 0.44581965,0.44581965 0 0 0 -0.191426,0.36289 v 0.0318 a 0.43646681,0.43646681 0 0 0 0.694611,0.357281 z"
       id="path4-367-3"
       style="fill:#232627;fill-opacity:1;stroke-width:0.0623529" />
    <path
       d="m -18.451761,4.5171321 a 0.43646681,0.43646681 0 0 0 -0.580496,0.415261 v 0.02936 a 0.44207852,0.44207852 0 0 0 0.298667,0.415892 5.8555138,5.8555138 0 0 1 0,11.0538349 0.44207852,0.44207852 0 0 0 -0.298667,0.41589 v 0.02931 a 0.43646681,0.43646681 0 0 0 0.580496,0.415891 6.7614935,6.7614935 0 0 0 0,-12.7753869 z"
       id="path6-5-6"
       style="fill:#232627;fill-opacity:1;stroke-width:0.0623529" />
    <path
       d="m -21.074922,3.1796721 -3.749252,3.595867 v 0.0055 c -0.02308,0 -0.04607,-0.0041 -0.06978,-0.0041 h -2.498472 c -0.418376,0 -0.303505,0.7842359 -0.757575,0.830531 -3.849997,0.3925299 -3.849997,6.3925299 0,6.7502689 0.456946,0.04246 0.339199,0.830534 0.757575,0.830534 h 2.498472 c 0.02331,-8e-6 0.04661,-0.0013 0.06978,-0.0038 v 0.03928 l 3.749252,3.596546 c 0.410728,0.393811 1.093126,0.102649 1.093038,-0.466372 V 3.6460951 c 1.09e-4,-0.5690329 -0.682301,-0.8602155 -1.093038,-0.466396 z m 0.03487,14.0953839 -2.72605,-2.589495 V 7.3816061 l 2.72605,-2.65871 z"
       id="path8-3-7"
       style="fill:#232627;fill-opacity:1;stroke-width:0.0623529"
       sodipodi:nodetypes="cccsssssccccccccccccc" />
  </g>
  <g
     id="audio-volume-low"
     transform="translate(96.000003)"
     style="fill:#232627;fill-opacity:1">
    <path
       style="opacity:0.00100002;fill:#232627;fill-opacity:1"
       d="M -32.000001,0 H 0 v 32.000001 h -32.000001 z"
       id="path38" />
    <path
       d="m -11.985965,20.856044 a 6.0962424,6.0962424 0 0 0 0,-9.998287 0.65938184,0.65938184 0 0 0 -1.041917,0.535923 v 0.04864 a 0.66873478,0.66873478 0 0 0 0.287135,0.543405 4.7410022,4.7410022 0 0 1 0,7.742359 0.66873478,0.66873478 0 0 0 -0.287135,0.54434 v 0.0477 a 0.65470538,0.65470538 0 0 0 1.041917,0.535924 z"
       id="path4-367-7"
       style="opacity:0.4;fill:#232627;fill-opacity:1;stroke-width:0.0935293" />
    <path
       d="m -12.152448,6.2757549 a 0.65470538,0.65470538 0 0 0 -0.870758,0.622905 v 0.04396 a 0.66312302,0.66312302 0 0 0 0.448006,0.623841 8.7833403,8.7833403 0 0 1 0,16.5808811 0.66312302,0.66312302 0 0 0 -0.448006,0.623841 v 0.04396 a 0.65470538,0.65470538 0 0 0 0.870758,0.62384 10.142322,10.142322 0 0 0 0,-19.1632261 z"
       id="path6-5-0"
       style="opacity:0.4;fill:#232627;fill-opacity:1;stroke-width:0.0935293" />
    <path
       d="m -16.087227,4.2695499 -5.623919,5.393837 v 0.0075 c -0.03461,0 -0.06921,-0.0056 -0.104753,-0.0056 h -3.747721 c -0.627581,0 -0.472695,1.0777441 -1.136381,1.2458111 C -31,12 -31,20 -26.700001,21.036584 c 0.669206,0.161323 0.5088,1.245811 1.136381,1.245811 h 3.747721 c 0.03499,2.4e-5 0.06996,-0.0018 0.104753,-0.0056 v 0.05892 l 5.623919,5.394772 c 0.61611,0.590732 1.639732,0.153956 1.639569,-0.699599 V 4.9691499 c 1.64e-4,-0.8535553 -1.023459,-1.2903325 -1.639569,-0.6996 z m 0.05238,21.1432431 -4.089103,-3.884273 V 10.572493 l 4.089103,-3.9880911 z"
       id="path8-3-9"
       style="fill:#232627;fill-opacity:1;stroke-width:0.0935293"
       sodipodi:nodetypes="cccssssscccccccccccc" />
  </g>
  <metadata
     id="metadata67">
    <rdf:RDF>
      <cc:Work
         rdf:about="">
        <dc:format>image/svg+xml</dc:format>
        <dc:type
           rdf:resource="http://purl.org/dc/dcmitype/StillImage" />
      </cc:Work>
    </rdf:RDF>
  </metadata>
  <defs
     id="defs65" />
  <sodipodi:namedview
     pagecolor="#ffffff"
     bordercolor="#000000"
     borderopacity="1"
     objecttolerance="10"
     gridtolerance="10"
     guidetolerance="10"
     inkscape:pageopacity="0"
     inkscape:pageshadow="2"
     inkscape:window-width="1920"
     inkscape:window-height="1006"
     id="namedview63"
     showgrid="false"
     inkscape:zoom="3.4692425"
     inkscape:cx="68.602872"
     inkscape:cy="-4.9002052"
     inkscape:window-x="0"
     inkscape:window-y="0"
     inkscape:window-maximized="1"
     inkscape:current-layer="svg50"
     inkscape:document-rotation="0"
     inkscape:lockguides="false"
     inkscape:showpageshadow="false"
     inkscape:pagecheckerboard="0">
    <inkscape:grid
       type="xygrid"
       id="grid902"
       originx="96.000003"
       originy="0" />
  </sodipodi:namedview>
  <g
     id="audio-volume-high"
     transform="translate(96.000003)"
     style="fill:#232627;fill-opacity:1">
    <path
       style="opacity:0.00100002;fill:#232627;fill-opacity:1"
       d="m -96.000003,0 h 32.000001 v 32.000001 h -32.000001 z"
       id="path2" />
    <path
       d="m -75.985967,20.856044 a 6.0962424,6.0962424 0 0 0 0,-9.998287 0.65938184,0.65938184 0 0 0 -1.041917,0.535923 v 0.04864 a 0.66873478,0.66873478 0 0 0 0.287135,0.543405 4.7410022,4.7410022 0 0 1 0,7.742359 0.66873478,0.66873478 0 0 0 -0.287135,0.54434 v 0.0477 a 0.65470538,0.65470538 0 0 0 1.041917,0.535924 z"
       id="path4-367"
       style="fill:#232627;fill-opacity:1;stroke-width:0.0935293" />
    <path
       d="m -76.15245,6.2757549 a 0.65470538,0.65470538 0 0 0 -0.870758,0.622905 v 0.04396 a 0.66312302,0.66312302 0 0 0 0.448006,0.623841 8.7833403,8.7833403 0 0 1 0,16.5808811 0.66312302,0.66312302 0 0 0 -0.448006,0.623841 v 0.04396 a 0.65470538,0.65470538 0 0 0 0.870758,0.62384 10.142322,10.142322 0 0 0 0,-19.1632261 z"
       id="path6-5"
       style="fill:#232627;fill-opacity:1;stroke-width:0.0935293" />
    <path
       d="m -80.087229,4.2695499 -5.623919,5.393837 v 0.0075 c -0.03461,0 -0.06921,-0.0056 -0.104753,-0.0056 h -3.747721 c -0.627581,0 -0.472696,1.0777441 -1.136381,1.2458111 C -95,12 -95,20 -90.700003,21.036584 c 0.669206,0.161323 0.5088,1.245811 1.136381,1.245811 h 3.747721 c 0.03499,2.4e-5 0.06996,-0.0018 0.104753,-0.0056 v 0.05892 l 5.623919,5.394772 c 0.61611,0.590732 1.639732,0.153956 1.639569,-0.699599 V 4.9691499 c 1.64e-4,-0.8535553 -1.023459,-1.2903325 -1.639569,-0.6996 z m 0.05238,21.1432431 -4.089103,-3.884273 V 10.572493 l 4.089103,-3.9880911 z"
       id="path8-3"
       style="fill:#232627;fill-opacity:1;stroke-width:0.0935293"
       sodipodi:nodetypes="cccssssscccccccccccc" />
  </g>
  <g
     id="audio-volume-medium"
     transform="translate(32.000001)"
     style="fill:#232627;fill-opacity:1">
    <path
       style="opacity:0.00100002;fill:#232627;fill-opacity:1"
       d="M 0,0 H 32.000001 V 32.000001 H 0 Z"
       id="path31" />
    <path
       d="m 20.014036,20.856044 a 6.0962424,6.0962424 0 0 0 0,-9.998287 0.65938184,0.65938184 0 0 0 -1.041917,0.535923 v 0.04864 a 0.66873478,0.66873478 0 0 0 0.287135,0.543405 4.7410022,4.7410022 0 0 1 0,7.742359 0.66873478,0.66873478 0 0 0 -0.287135,0.54434 v 0.0477 a 0.65470538,0.65470538 0 0 0 1.041917,0.535924 z"
       id="path4-367-5-9"
       style="fill:#232627;fill-opacity:1;stroke-width:0.0935293" />
    <path
       d="m 19.847553,6.2757549 a 0.65470538,0.65470538 0 0 0 -0.870758,0.622905 v 0.04396 a 0.66312302,0.66312302 0 0 0 0.448006,0.623841 8.7833403,8.7833403 0 0 1 0,16.5808811 0.66312302,0.66312302 0 0 0 -0.448006,0.623841 v 0.04396 a 0.65470538,0.65470538 0 0 0 0.870758,0.62384 10.142322,10.142322 0 0 0 0,-19.1632261 z"
       id="path6-5-6-1"
       style="opacity:0.4;fill:#232627;fill-opacity:1;stroke-width:0.0935293" />
    <path
       d="m 15.912774,4.2695499 -5.623919,5.393837 v 0.0075 c -0.03461,0 -0.06921,-0.0056 -0.104753,-0.0056 H 6.436381 C 5.8088,9.6652869 5.9636857,10.743031 5.3,10.911098 1.000002,12 1.000002,20 5.3,21.036584 c 0.6692058,0.161323 0.5088,1.245811 1.136381,1.245811 h 3.747721 c 0.03499,2.4e-5 0.06996,-0.0018 0.104753,-0.0056 v 0.05892 l 5.623919,5.394772 c 0.61611,0.590732 1.639732,0.153956 1.639569,-0.699599 V 4.9691499 c 1.64e-4,-0.8535553 -1.023459,-1.2903325 -1.639569,-0.6996 z M 15.965154,25.412793 11.876051,21.52852 V 10.572493 l 4.089103,-3.9880911 z"
       id="path8-3-2-2"
       style="fill:#232627;fill-opacity:1;stroke-width:0.0935293"
       sodipodi:nodetypes="cccssssscccccccccccc" />
  </g>
  <g
     id="audio-volume-muted"
     transform="translate(96.000003)">
    <path
       style="opacity:0.00100002"
       d="M 0,0 H 31.999997 V 32.000001 H 0 Z"
       id="path45" />
    <path
       d="M 15.612774,4.2695499 9.988855,9.663387 v 0.0075 c -0.03461,0 -0.06921,-0.0056 -0.104753,-0.0056 H 6.136381 C 5.5088,9.665287 5.6605951,10.731267 5,10.911098 1,12 1,20 5,21.036584 c 0.6663642,0.172686 0.5088,1.245811 1.136381,1.245811 h 3.747721 c 0.034993,2.4e-5 0.069962,-0.0018 0.104753,-0.0056 v 0.05892 l 5.623919,5.394772 c 0.61611,0.590732 1.639732,0.153956 1.639569,-0.699599 V 4.9691499 c 1.64e-4,-0.8535553 -1.023459,-1.2903325 -1.639569,-0.6996 z M 15.665154,25.412793 11.576051,21.52852 V 10.572493 l 4.089103,-3.9880911 z"
       id="path8-3-9-0"
       style="fill:#232627;fill-opacity:1;stroke-width:0.0935293"
       sodipodi:nodetypes="cccssssscccccccccccc" />
    <path
       d="m 22.00316,12.000172 h 0.999618 c 0.01084,-1.4e-4 0.02077,-3.05e-4 0.03119,0 0.254856,0.01615 0.509673,0.12849 0.687246,0.312408 l 2.280347,2.281421 2.311595,-2.281421 c 0.265525,-0.230274 0.446488,-0.305418 0.687225,-0.312408 h 0.99961 v 0.999888 c 0,0.286519 -0.03433,0.550861 -0.249902,0.75006 l -2.280348,2.281366 2.249115,2.249903 c 0.188104,0.188003 0.281125,0.453449 0.281135,0.71857 v 1.00004 h -0.999589 c -0.265197,-1.5e-5 -0.530388,-0.09087 -0.71848,-0.28119 l -2.280351,-2.281309 -2.28035,2.281309 c -0.188084,0.188004 -0.45328,0.28119 -0.718474,0.28119 h -0.999604 v -1.00004 c 0,-0.26512 0.0931,-0.530567 0.281153,-0.71857 l 2.280358,-2.249903 -2.280358,-2.281366 c -0.210658,-0.194636 -0.303049,-0.46928 -0.281153,-0.75006 z"
       style="fill:#bf616a;fill-opacity:1;stroke-width:1.16643"
       id="path48"
       inkscape:connector-curvature="0" />
  </g>
  <g
     id="22-22-audio-volume-muted"
     transform="translate(96.000003,-22)">
    <path
       style="opacity:0.00100002"
       d="M 0,0 H 21.999997 V 22 H 0 Z"
       id="path26" />
    <path
       d="m 13.593167,8.3001199 h 0.687248 c 0.007,-9.7e-5 0.01427,-2.125e-4 0.02144,0 0.175211,0.01111 0.350395,0.08835 0.472482,0.214778 l 1.567732,1.5684791 1.589226,-1.5684791 c 0.182545,-0.158312 0.306959,-0.2099765 0.472469,-0.214778 h 0.68723 v 0.687425 c 0,0.1969769 -0.02358,0.3787134 -0.171805,0.5156634 l -1.567739,1.5684317 1.546269,1.546815 c 0.12932,0.129254 0.193271,0.311749 0.193275,0.494019 V 13.8 h -0.687212 c -0.182323,-8e-6 -0.364645,-0.0625 -0.493956,-0.193315 l -1.567742,-1.5684 -1.567746,1.5684 C 14.645032,13.735935 14.462708,13.8 14.280389,13.8 h -0.68723 v -0.687526 c 0,-0.18227 0.06405,-0.364765 0.1933,-0.494019 L 15.354202,11.07164 13.786459,9.5032083 c -0.144826,-0.133815 -0.208349,-0.32263 -0.1933,-0.5156634 z"
       style="fill:#bf616a;fill-opacity:1;stroke-width:0.801921"
       id="path48-9"
       inkscape:connector-curvature="0" />
    <path
       d="m 10.525079,3.1796721 -3.749252,3.595867 v 0.0055 c -0.02308,0 -0.04607,-0.0041 -0.06978,-0.0041 H 4.207575 C 3.789199,6.7769391 3.9034981,7.5558725 3.45,7.6074701 0,8 0,14 3.45,14.357739 c 0.4564666,0.04733 0.339199,0.830534 0.757575,0.830534 h 2.498472 c 0.023312,-8e-6 0.046606,-0.0013 0.06978,-0.0038 v 0.03928 l 3.749252,3.596546 c 0.410728,0.393811 1.093126,0.102649 1.093038,-0.466372 V 3.6460951 c 1.09e-4,-0.5690329 -0.682301,-0.8602155 -1.093038,-0.466396 z m 0.03487,14.0953839 -2.72605,-2.589495 V 7.3816061 l 2.72605,-2.65871 z"
       id="path8-3-7-7-6"
       style="fill:#232627;fill-opacity:1;stroke-width:0.0623529"
       sodipodi:nodetypes="cccsssssccccccccccccc" />
  </g>
</svg>
