<?xml version="1.0" encoding="UTF-8" standalone="no"?>
<svg
   width="32"
   height="32"
   version="1.1"
   id="svg12"
   sodipodi:docname="compass.svg"
   inkscape:version="1.1.1 (3bf5ae0d25, 2021-09-20)"
   xmlns:inkscape="http://www.inkscape.org/namespaces/inkscape"
   xmlns:sodipodi="http://sodipodi.sourceforge.net/DTD/sodipodi-0.dtd"
   xmlns="http://www.w3.org/2000/svg"
   xmlns:svg="http://www.w3.org/2000/svg"
   xmlns:rdf="http://www.w3.org/1999/02/22-rdf-syntax-ns#"
   xmlns:cc="http://creativecommons.org/ns#"
   xmlns:dc="http://purl.org/dc/elements/1.1/">
  <metadata
     id="metadata18">
    <rdf:RDF>
      <cc:Work
         rdf:about="">
        <dc:format>image/svg+xml</dc:format>
        <dc:type
           rdf:resource="http://purl.org/dc/dcmitype/StillImage" />
      </cc:Work>
    </rdf:RDF>
  </metadata>
  <defs
     id="defs16" />
  <sodipodi:namedview
     pagecolor="#ffffff"
     bordercolor="#000000"
     borderopacity="1"
     objecttolerance="10"
     gridtolerance="10"
     guidetolerance="10"
     inkscape:pageopacity="0"
     inkscape:pageshadow="2"
     inkscape:window-width="1920"
     inkscape:window-height="1013"
     id="namedview14"
     showgrid="false"
     inkscape:zoom="5.6568543"
     inkscape:cx="31.996582"
     inkscape:cy="20.594485"
     inkscape:window-x="0"
     inkscape:window-y="0"
     inkscape:window-maximized="1"
     inkscape:current-layer="svg12"
     inkscape:document-rotation="0"
     inkscape:lockguides="true"
     inkscape:showpageshadow="false"
     inkscape:pagecheckerboard="0"
     showguides="false">
    <inkscape:grid
       type="xygrid"
       id="grid880"
       originx="32"
       originy="9.9999997" />
  </sodipodi:namedview>
  <g
     id="compass">
    <path
       style="clip-rule:evenodd;fill:#ffffc1;fill-opacity:0;fill-rule:evenodd;stroke-width:1.00213;stroke-linejoin:round;stroke-miterlimit:1.41421"
       d="M 0,0 V 32 H 32 V 0 Z"
       id="rect817"
       inkscape:connector-curvature="0" />
    <path
       style="opacity:1;fill:#434c5e;fill-opacity:1;stroke-width:1.36365;enable-background:new"
       d="M 16.000001,1 C 7.723516,1 1,7.723519 1,15.999999 1,24.276487 7.723516,31.000001 16.000001,31 24.276487,31 31.000002,24.276487 31,15.999999 31,7.723519 24.276487,1 16.000001,1 Z"
       id="path24-5"
       inkscape:connector-curvature="0" />
    <path
       d="M 27,16 19.666673,12.333332 16,5 12.333333,12.333332 5,16 12.333333,19.666673 16,27 19.666673,19.666673 Z M 19.811127,13.2258 25.360273,16 H 17.036927 Z M 16,6.6397323 V 14.963073 L 13.2258,12.188867 Z M 12.188867,18.7742 6.639733,16 h 8.32334 z M 16,25.360273 v -8.323346 l 2.7742,2.7742 z"
       id="path10-5-7"
       style="fill:#d6dbf1;fill-opacity:1;stroke-width:0.733327" />
  </g>
  <g
     id="22-22-compass"
     transform="translate(32,9.9999997)">
    <path
       style="clip-rule:evenodd;fill:#ffffc1;fill-opacity:0;fill-rule:evenodd;stroke-width:0.688964;stroke-linejoin:round;stroke-miterlimit:1.41421"
       d="M 0,0 V 22 H 22 V 0 Z"
       id="rect817-5"
       inkscape:connector-curvature="0" />
    <path
       style="opacity:1;fill:#434c5e;fill-opacity:1;stroke-width:1.00001;enable-background:new"
       d="M 11.000001,0 C 4.9305784,0 0,4.9305806 0,10.999999 0,17.069424 4.9305784,22.000001 11.000001,22 17.069424,22 22.000001,17.069424 22,10.999999 22,4.9305806 17.069424,0 11.000001,0 Z"
       id="path24-5-6"
       inkscape:connector-curvature="0" />
    <path
       d="M 19.066667,11 13.688893,8.3111101 11,2.9333333 8.3111108,8.3111101 2.9333333,11 8.3111108,13.688893 11,19.066667 13.688893,13.688893 Z M 13.794826,8.9655866 17.8642,11 H 11.760413 Z M 11,4.1358037 V 10.239587 L 8.9655866,8.2051691 Z M 8.2051691,13.034413 4.1358042,11 H 10.239587 Z M 11,17.8642 v -6.103787 l 2.034413,2.034413 z"
       id="path10-5-7-7"
       style="fill:#d6dbf1;fill-opacity:1;stroke-width:0.537773" />
  </g>
</svg>
