<?xml version="1.0" encoding="UTF-8" standalone="no"?>
<svg
   width="32"
   height="32"
   version="1.1"
   id="svg12"
   sodipodi:docname="device.svg"
   inkscape:version="1.1.1 (3bf5ae0d25, 2021-09-20)"
   xmlns:inkscape="http://www.inkscape.org/namespaces/inkscape"
   xmlns:sodipodi="http://sodipodi.sourceforge.net/DTD/sodipodi-0.dtd"
   xmlns="http://www.w3.org/2000/svg"
   xmlns:svg="http://www.w3.org/2000/svg"
   xmlns:rdf="http://www.w3.org/1999/02/22-rdf-syntax-ns#"
   xmlns:cc="http://creativecommons.org/ns#"
   xmlns:dc="http://purl.org/dc/elements/1.1/">
  <g
     id="22-22-device-notifier"
     transform="translate(32,10.000001)">
    <rect
       style="opacity:0.00100002"
       width="22"
       height="22"
       x="0"
       y="-4.6325681e-08"
       id="rect2" />
    <path
       d="M 13.208855,5.4900098 V 3 H 8.8087369 V 5.4900098 C 7.54736,5.5404809 6.55,6.1461618 6.55,6.8864347 V 17.603575 c 0,0.773922 1.0853636,1.396335 2.4347396,1.396358 L 13.003516,19 c 1.349378,2.3e-5 2.434742,-0.622503 2.434742,-1.396425 V 6.8864347 C 15.467591,6.1461618 14.47023,5.5404836 13.208855,5.4900098 Z M 11.038128,3.3081031 h 1.764955 V 5.4900098 H 11.038128 V 4.3964249 h 0.176008 v -0.319664 h -0.176008 z m -1.853152,0 h 1.794482 v 0.8023067 h 0.176011 V 4.3459511 H 10.979458 V 5.4731858 H 9.184976 Z m 5.771747,13.9635459 c 0.128887,1.03715 -1.355973,1.309915 -1.8253,1.305511 L 8.7491022,18.53604 C 8.3750996,18.540573 7.0323404,18.26454 7.03168,17.389485 L 7.0237689,6.9381227 C 7.0232098,6.1983662 8.1422284,5.9726596 8.6115751,5.9743938 l 4.8504449,0.017911 c 0.440016,0.0016 1.535264,0.3372578 1.532326,1.1293955 z"
       id="path4-3-3-3"
       style="fill:#d6dbf1;fill-opacity:1;stroke-width:0.222158"
       sodipodi:nodetypes="ccccssssscccccccccccccccccccccscsssssc" />
    <path
       d="M 12.497528,8.0906507 H 9.7034364 c -0.2248106,0 -0.4014488,0.1607706 -0.4014488,0.3653884 v 7.7900879 c 0,0.204618 0.1766382,0.365389 0.4014488,0.365389 h 2.8101486 c 0.224812,0 0.401449,-0.160771 0.401449,-0.365389 V 8.4560391 c 0,-0.2046178 -0.192694,-0.3653884 -0.417506,-0.3653884 z m 0.130388,8.0975523 c 0,0.16077 -0.01761,0.162159 -0.178162,0.162159 H 9.7671227 c -0.17664,0 -0.1781663,-0.01601 -0.1781663,-0.162159 V 8.5140027 c 0,-0.1607707 0.017609,-0.1621591 0.1781663,-0.1621591 h 2.6826313 c 0.176637,0 0.178162,0.07392 0.178162,0.2200737 z"
       id="path6-6-6"
       style="fill:#d6dbf1;fill-opacity:1;stroke-width:0.153198"
       sodipodi:nodetypes="ssssssssssssssssss" />
    <path
       d="m 11.854879,8.7339102 h -1.525508 c -0.240871,0 -0.4496243,0.1753867 -0.4496243,0.4092356 v 3.1861902 c 0,0.219233 0.1926953,0.409235 0.4496243,0.409235 h 1.525508 c 0.240869,0 0.449622,-0.175387 0.449622,-0.409235 V 9.1431458 c 0,-0.2338489 -0.192694,-0.4092356 -0.449622,-0.4092356 z m 0.240869,0.7746249 c 0,0.1169236 -0.112406,0.219232 -0.240869,0.219232 h -1.461277 c -0.128466,0 -0.240868,-0.1023084 -0.240868,-0.219232 v -0.073075 c 0,-0.1169245 0.112402,-0.2192329 0.240868,-0.2192329 h 1.461277 c 0.128463,0 0.240869,0.1023084 0.240869,0.2192329 z"
       id="path8-7-7"
       style="fill:#489ab1;fill-opacity:1;stroke-width:0.153198" />
    <rect
       x="9.6429996"
       y="3.8067422"
       width="0.97642803"
       height="0.61099392"
       id="rect10-53"
       style="fill:#d6dbf1;fill-opacity:1;stroke-width:0.291106" />
    <rect
       x="11.372"
       y="3.8067422"
       width="0.97642815"
       height="0.61099392"
       id="rect12-5"
       style="fill:#d6dbf1;fill-opacity:1;stroke-width:0.291106" />
  </g>
  <metadata
     id="metadata18">
    <rdf:RDF>
      <cc:Work
         rdf:about="">
        <dc:format>image/svg+xml</dc:format>
        <dc:type
           rdf:resource="http://purl.org/dc/dcmitype/StillImage" />
      </cc:Work>
    </rdf:RDF>
  </metadata>
  <defs
     id="defs16" />
  <sodipodi:namedview
     pagecolor="#ffffff"
     bordercolor="#000000"
     borderopacity="1"
     objecttolerance="10"
     gridtolerance="10"
     guidetolerance="10"
     inkscape:pageopacity="0"
     inkscape:pageshadow="2"
     inkscape:window-width="1920"
     inkscape:window-height="1006"
     id="namedview14"
     showgrid="false"
     inkscape:zoom="9.1462202"
     inkscape:cx="25.475004"
     inkscape:cy="12.901504"
     inkscape:window-x="0"
     inkscape:window-y="0"
     inkscape:window-maximized="1"
     inkscape:current-layer="svg12"
     inkscape:document-rotation="0"
     inkscape:lockguides="false"
     inkscape:pagecheckerboard="0"
     inkscape:showpageshadow="false">
    <inkscape:grid
       type="xygrid"
       id="grid849"
       originx="0"
       originy="-4.6325683e-08" />
  </sodipodi:namedview>
  <g
     id="g26"
     transform="matrix(0.02245078,0,0,0.02245078,4.88152,4.7085942)">
    <g
       transform="matrix(0.1,0,0,-0.1,0,512)"
       id="g16" />
  </g>
  <g
     id="g27"
     transform="matrix(0.01632784,0,0,0.01632784,34.907742,12.825068)">
    <g
       transform="matrix(0.1,0,0,-0.1,0,512)"
       id="g953" />
  </g>
  <g
     id="device-notifier"
     transform="translate(32,10.000001)">
    <rect
       style="opacity:0.00100002"
       width="32"
       height="32"
       x="-32"
       y="-10.000001"
       id="rect7" />
    <path
       d="m -12.769051,-2.264986 v -3.735015 h -6.397091 v 3.735015 C -20.999995,-2.1892756 -22.45,-1.2807584 -22.45,-0.17034795 V 15.905362 c 0,1.160883 1.577948,2.094502 3.539739,2.094536 l 5.84268,1.01e-4 c 1.96179,3.4e-5 3.53974,-0.933754 3.53974,-2.094637 V -0.17034795 c 0.042654,-1.11041045 -1.407361,-2.01892795 -3.24121,-2.09463805 z m -3.155903,-3.173015 H -13.459 v 3.173015 h -2.465954 v -1.640378 h 0.25589 v -0.479495 h -0.25589 z m -2.594046,0 h 2.508751 v 1.1036154 h 0.255893 v 0.353312 h -0.255893 v 1.6908521 H -18.519 Z m 8.091,20.745 c 0.187384,1.555726 -1.871674,1.865968 -2.554,1.859 l -6.071,-0.062 c -0.543745,0.0068 -2.496055,-0.307418 -2.497,-1.62 l -0.011,-15.277 c -7.99e-4,-1.109635 1.725644,-1.5477078 2.408,-1.545 l 6.552,0.026 c 0.639712,0.00254 2.23235,0.40679446 2.228,1.595 z"
       id="path4-3-3"
       style="fill:#232627;fill-opacity:1;stroke-width:0.328071"
       sodipodi:nodetypes="ccccssssscccccccccccccccccccccscsssssc" />
    <path
       d="m -13.80321,1.635976 h -4.062178 c -0.326841,0 -0.583644,0.241155 -0.583644,0.548081 v 11.685132 c 0,0.306927 0.256803,0.548084 0.583644,0.548084 h 4.085523 c 0.326845,0 0.583647,-0.241157 0.583647,-0.548084 V 2.184057 c 0,-0.306926 -0.280149,-0.548081 -0.606992,-0.548081 z m 0.189567,12.146327 c 0,0.241156 -0.02559,0.243239 -0.259025,0.243239 H -17.7728 c -0.256806,0 -0.259024,-0.02401 -0.259024,-0.243239 V 2.271004 c 0,-0.241157 0.02559,-0.243239 0.259024,-0.243239 h 3.900132 c 0.256806,0 0.259025,0.110878 0.259025,0.330109 z"
       id="path6-6"
       style="fill:#232627;fill-opacity:1;stroke-width:0.226234"
       sodipodi:nodetypes="ssssssssssssssssss" />
    <path
       d="m -14.737522,2.600864 h -2.217854 c -0.35019,0 -0.653684,0.263081 -0.653684,0.613854 v 4.779285 c 0,0.32885 0.280149,0.613853 0.653684,0.613853 h 2.217854 c 0.350188,0 0.653683,-0.263081 0.653683,-0.613853 V 3.214718 c 0,-0.350773 -0.280149,-0.613854 -0.653683,-0.613854 z m 0.350188,1.161937 c 0,0.175387 -0.163421,0.328849 -0.350188,0.328849 h -2.12447 c -0.186772,0 -0.350188,-0.153462 -0.350188,-0.328849 V 3.653185 c 0,-0.175388 0.163416,-0.32885 0.350188,-0.32885 h 2.12447 c 0.186767,0 0.350188,0.153462 0.350188,0.32885 z"
       id="path8-7"
       style="fill:#232627;fill-opacity:1;stroke-width:0.226234" />
    <rect
       x="-17.99"
       y="-4.789887"
       width="1.419576"
       height="0.91649085"
       id="rect10"
       style="fill:#232627;fill-opacity:1;stroke-width:0.429891" />
    <rect
       x="-15.403"
       y="-4.789887"
       width="1.4195762"
       height="0.91649085"
       id="rect12"
       style="fill:#232627;fill-opacity:1;stroke-width:0.429891" />
  </g>
</svg>
