<?xml version="1.0" encoding="UTF-8" standalone="no"?>
<svg
   width="32"
   height="32"
   version="1.1"
   id="svg12"
   sodipodi:docname="device.svg"
   inkscape:version="1.1.2 (0a00cf5339, 2022-02-04)"
   xmlns:inkscape="http://www.inkscape.org/namespaces/inkscape"
   xmlns:sodipodi="http://sodipodi.sourceforge.net/DTD/sodipodi-0.dtd"
   xmlns="http://www.w3.org/2000/svg"
   xmlns:svg="http://www.w3.org/2000/svg"
   xmlns:rdf="http://www.w3.org/1999/02/22-rdf-syntax-ns#"
   xmlns:cc="http://creativecommons.org/ns#"
   xmlns:dc="http://purl.org/dc/elements/1.1/">
  <g
     id="22-22-device-notifier"
     style="fill:#232627;fill-opacity:1">
    <rect
       style="opacity:0.00100002;fill:#232627;fill-opacity:1"
       width="22"
       height="22"
       x="32"
       y="10.000001"
       id="rect2" />
    <path
       d="m 46,16.000001 v -3 h -5 v 3 c -1.277129,0.05047 -2,0.845727 -2,1.586 v 9.818 c 0,0.773922 0.856465,1.596 2.121465,1.596 h 4.412623 c 1.366226,0 2.465139,-0.822078 2.465139,-1.596 v -9.818 C 48.028937,16.845728 47.277125,16.050474 46,16.000001 Z M 43.544161,13.666668 H 45 v 2.333333 h -1.455839 v -1.603575 h 0.178208 v -0.319664 h -0.178208 z m -1.544161,0 h 1.48476 v 0.443743 h 0.17821 v 0.235541 h -0.17821 l -5.7e-5,1.654049 H 42 Z m 5,13.238333 c 0.130496,1.03715 -0.931104,1.095 -1.406313,1.095 H 41.166 C 40.787327,28.004501 40,27.780055 40,26.905001 v -8.915 c 0,-0.739757 0.820879,-0.99 1.296087,-0.99 H 45.6 c 0.445512,0 1.4,0.196856 1.4,0.989 z"
       id="path4-3-3-36"
       style="fill:#232627;fill-opacity:1;stroke-width:0.223541"
       sodipodi:nodetypes="ccccssssscccccccccccccccccccccscsssssc" />
    <path
       d="m 44.653332,18 h -2.32 C 42.146666,18 42,18.108968 42,18.297845 v 7.375393 C 42,25.862115 42.146666,26 42.333332,26 h 2.360067 C 44.880068,26 45,25.862115 45,25.673238 V 18.297845 C 45,18.108968 44.839999,18 44.653332,18 Z m -0.253333,7.384612 v 0 H 42.6 v 0 -6.769228 0 h 1.792999 0.0072 z"
       id="path6-6-7"
       style="fill:#232627;fill-opacity:1;stroke-width:0.134119"
       sodipodi:nodetypes="sssssssssccccccccc" />
    <path
       d="m 44.066226,20.000001 h -1.132451 c -0.178807,0 -0.333775,0.175183 -0.333775,0.40876 v 3.182481 c 0,0.218977 0.143046,0.408759 0.333775,0.408759 h 1.132451 c 0.178808,0 0.333774,-0.175183 0.333774,-0.408759 v -3.182481 c 0,-0.233577 -0.143044,-0.40876 -0.333774,-0.40876 z m 0.178808,0.773724 c 0,0.116787 -0.08344,0.218976 -0.178808,0.218976 h -1.084769 c -0.09536,0 -0.178807,-0.102189 -0.178807,-0.218976 v -0.073 c 0,-0.116791 0.08343,-0.218978 0.178807,-0.218978 h 1.084769 c 0.09537,0 0.178808,0.102187 0.178808,0.218978 z"
       id="path8-7-5"
       style="fill:#489ab1;fill-opacity:1;stroke-width:0.131917"
       sodipodi:nodetypes="ssssssssssssssssss" />
    <rect
       x="42.200001"
       y="14.000001"
       width="1"
       height="1"
       id="rect10-3"
       style="fill:#232627;fill-opacity:1;stroke-width:0.37689" />
    <rect
       x="43.799999"
       y="14.000001"
       width="1"
       height="1"
       id="rect12-56"
       style="fill:#232627;fill-opacity:1;stroke-width:0.37689" />
  </g>
  <metadata
     id="metadata18">
    <rdf:RDF>
      <cc:Work
         rdf:about="">
        <dc:format>image/svg+xml</dc:format>
        <dc:type
           rdf:resource="http://purl.org/dc/dcmitype/StillImage" />
      </cc:Work>
    </rdf:RDF>
  </metadata>
  <defs
     id="defs16" />
  <sodipodi:namedview
     pagecolor="#ffffff"
     bordercolor="#000000"
     borderopacity="1"
     objecttolerance="10"
     gridtolerance="10"
     guidetolerance="10"
     inkscape:pageopacity="0"
     inkscape:pageshadow="2"
     inkscape:window-width="1920"
     inkscape:window-height="1002"
     id="namedview14"
     showgrid="false"
     inkscape:zoom="9.1462202"
     inkscape:cx="34.823128"
     inkscape:cy="22.249628"
     inkscape:window-x="0"
     inkscape:window-y="0"
     inkscape:window-maximized="1"
     inkscape:current-layer="svg12"
     inkscape:document-rotation="0"
     inkscape:lockguides="false"
     inkscape:pagecheckerboard="0"
     inkscape:showpageshadow="false">
    <inkscape:grid
       type="xygrid"
       id="grid849"
       originx="0"
       originy="-4.6325683e-08" />
  </sodipodi:namedview>
  <g
     id="g26"
     transform="matrix(0.02245078,0,0,0.02245078,4.88152,4.7085942)">
    <g
       transform="matrix(0.1,0,0,-0.1,0,512)"
       id="g16" />
  </g>
  <g
     id="g27"
     transform="matrix(0.01632784,0,0,0.01632784,34.907742,12.825068)">
    <g
       transform="matrix(0.1,0,0,-0.1,0,512)"
       id="g953" />
  </g>
  <g
     id="device-notifier"
     transform="translate(32,10.000001)">
    <rect
       style="opacity:0.00100002"
       width="32"
       height="32"
       x="-32"
       y="-10.000001"
       id="rect7" />
    <path
       d="m -12,-2.000001 v -4 h -7 v 4 c -1.844769,0.07571 -3,0.7192426 -3,1.82965305 V 15.905362 c 0,1.160883 1.587341,2.094502 3.560809,2.094536 l 5.877459,1.01e-4 c 1.973466,3.4e-5 3.5608091,-0.933754 3.5608091,-2.094637 V -0.17034795 C -8.958015,-1.2807584 -10.155235,-1.9242909 -12,-2.000001 Z m -3.436114,-3 H -13 v 3 h -2.436114 v -1.905363 h 0.257413 v -0.479495 h -0.257413 z m -2.563886,0 h 2.478083 v 0.6656154 h 0.257416 v 0.353312 h -0.257416 L -15.522,-2.000001 H -18 Z m 8,20.307 c 0.1884994,1.555726 -1.78922,1.693 -2.475643,1.693 H -18.58278 C -19.129761,17.006799 -21,16.796581 -21,15.483999 v -15.277 c 0,-1.10963529 1.630198,-1.207 2.31662,-1.207 h 6.591 c 0.643526,0 2.09238,0.0947864 2.09238,1.283 z"
       id="path4-3-3"
       style="fill:#232627;fill-opacity:1;stroke-width:0.329046"
       sodipodi:nodetypes="ccccssssscccccccccccccccccccccscsssssc" />
    <path
       d="m -13.577778,0.999999 h -3.866668 C -17.755557,0.999999 -18,1.177073 -18,1.483999 v 11.985 c 0,0.306927 0.244443,0.531 0.555554,0.531 H -13.511 c 0.311115,0 0.511,-0.224073 0.511,-0.531 v -11.985 c 0,-0.306926 -0.266666,-0.484 -0.577778,-0.484 z m -0.422222,12 v 0 h -3 v 0 -11 0 h 2.988334 0.01167 z"
       id="path6-6"
       style="fill:#232627;fill-opacity:1;stroke-width:0.220722"
       sodipodi:nodetypes="sssssssssccccccccc" />
    <path
       d="m -14.556291,2.999999 h -1.887417 C -16.741722,2.999999 -17,3.26308 -17,3.613853 v 4.779285 c 0,0.32885 0.238409,0.613853 0.556292,0.613853 h 1.887417 C -14.258279,9.006991 -14,8.74391 -14,8.393138 V 3.613853 c 0,-0.350773 -0.238409,-0.613854 -0.556291,-0.613854 z m 0.298012,1.161937 c 0,0.175387 -0.139072,0.328849 -0.298012,0.328849 h -1.807946 c -0.158945,0 -0.298013,-0.153462 -0.298013,-0.328849 V 4.05232 c 0,-0.175388 0.139068,-0.32885 0.298013,-0.32885 h 1.807946 c 0.15894,0 0.298012,0.153462 0.298012,0.32885 z"
       id="path8-7"
       style="fill:#489ab1;fill-opacity:1;stroke-width:0.208701" />
    <rect
       x="-17.5"
       y="-4.000001"
       width="1.5"
       height="1"
       id="rect10"
       style="fill:#232627;fill-opacity:1;stroke-width:0.461595" />
    <rect
       x="-15"
       y="-4.000001"
       width="1.5"
       height="1"
       id="rect12"
       style="fill:#232627;fill-opacity:1;stroke-width:0.461595" />
  </g>
</svg>
