<?xml version="1.0" encoding="UTF-8" standalone="no"?>
<svg
   width="32"
   height="32"
   version="1.1"
   id="svg78"
   sodipodi:docname="disk.svg"
   inkscape:version="1.1.1 (3bf5ae0d25, 2021-09-20)"
   xmlns:inkscape="http://www.inkscape.org/namespaces/inkscape"
   xmlns:sodipodi="http://sodipodi.sourceforge.net/DTD/sodipodi-0.dtd"
   xmlns="http://www.w3.org/2000/svg"
   xmlns:svg="http://www.w3.org/2000/svg">
  <g
     id="disk-quota-high"
     transform="translate(64)">
    <rect
       style="opacity:0.00100002"
       width="32"
       height="32"
       x="0"
       y="0"
       id="rect55" />
    <path
       d="M 23.163264,4 H 8.836735 C 7.826531,4 7,4.9 7,6 V 25.999996 C 7,27.100001 7.826531,28 8.836735,28 H 23.163264 C 24.173467,28 25,27.100001 25,25.999996 V 6 C 25,4.9 24.173467,4 23.163264,4 Z m 0.918367,21.999996 c 0,0.549998 -0.413267,0.999998 -0.918367,0.999998 H 8.836735 c -0.505101,0 -0.918367,-0.45 -0.918367,-0.999998 V 6 c 0,-0.550001 0.413266,-1.000001 0.918367,-1.000001 h 14.326529 c 0.5051,0 0.918367,0.45 0.918367,1.000001 z"
       id="path2-3-3"
       style="fill:#232627;fill-opacity:1;stroke-width:0.47916" />
    <path
       d="m 16.157052,10.5625 c -2.959542,0 -5.341614,2.341217 -5.341614,5.250001 0,2.908767 2.382072,5.249999 5.341614,5.249999 2.959525,0 5.341612,-2.341232 5.341612,-5.249999 0,-2.908784 -2.382087,-5.250001 -5.341612,-5.250001 z m 0,9.324001 c -1.084598,0 -1.874988,-0.278636 -2.562787,-0.791017 -0.937235,-0.698197 -1.582307,-1.830395 -1.582307,-3.282983 0,-1.337649 0.559025,-2.27226 1.361575,-2.977804 0.708516,-0.622872 1.581987,-0.97953 2.783519,-0.97953 1.092311,0 1.790561,0.309846 2.480074,0.82922 0.928061,0.699055 1.54631,1.683119 1.54631,3.128114 0,1.117715 -0.439229,2.054667 -1.025588,2.7471 -0.716266,0.845874 -1.591733,1.3269 -3.000796,1.3269 z"
       id="path4-6-5"
       style="fill:#ff9955;fill-opacity:1;stroke-width:0.357822"
       sodipodi:nodetypes="ssssssssssssss" />
    <path
       d="m 16.080743,14.124999 c -1.002116,0 -1.793256,0.777575 -1.793256,1.762501 0,0.984927 0.79114,1.762499 1.793256,1.762499 1.002113,0 1.793255,-0.777572 1.793255,-1.762499 0,-0.984926 -0.791142,-1.762501 -1.793255,-1.762501 z m 0.02442,1.762501 z"
       id="path6-3-7-6"
       style="fill:#ff9955;fill-opacity:1;stroke-width:0.522886"
       sodipodi:nodetypes="ssssscccc" />
    <path
       d="m 11.387753,23.875 h 9.385979 c 0.343388,0 0.572314,-0.225 0.572314,-0.5625 0,-0.337501 -0.228926,-0.562499 -0.572314,-0.562499 h -9.385979 c -0.343388,0 -0.572315,0.224998 -0.572315,0.562499 0,0.3375 0.228927,0.5625 0.572315,0.5625 z"
       id="path10-5-2"
       style="fill:#ff9955;fill-opacity:1;stroke-width:0.567387" />
  </g>
  <sodipodi:namedview
     id="namedview80"
     pagecolor="#ffffff"
     bordercolor="#666666"
     borderopacity="1.0"
     inkscape:pageshadow="2"
     inkscape:pageopacity="0.0"
     inkscape:pagecheckerboard="0"
     showgrid="false"
     inkscape:zoom="3.436097"
     inkscape:cx="85.271167"
     inkscape:cy="23.864286"
     inkscape:window-width="1920"
     inkscape:window-height="1006"
     inkscape:window-x="0"
     inkscape:window-y="0"
     inkscape:window-maximized="1"
     inkscape:current-layer="svg78">
    <inkscape:grid
       type="xygrid"
       id="grid1005"
       originx="0"
       originy="0" />
  </sodipodi:namedview>
  <defs
     id="nova">
    <style
       id="current-color-scheme"
       type="text/css">
   .ColorScheme-Background {color:#181818; } .ColorScheme-ButtonBackground { color:#343434; } .ColorScheme-Highlight { color:#4285f4; } .ColorScheme-Text { color:#dfdfdf; } .ColorScheme-ViewBackground { color:#242424; } .ColorScheme-NegativeText { color:#f44336; } .ColorScheme-PositiveText { color:#4caf50; } .ColorScheme-NeutralText { color:#ff9800; }
  </style>
  </defs>
  <g
     id="disk-quota"
     style="fill:#d6dbf1;fill-opacity:1">
    <rect
       style="opacity:0.00100002;fill:#d6dbf1;fill-opacity:1"
       width="32"
       height="32"
       x="0"
       y="0"
       id="rect41" />
    <path
       d="M 23.163264,4 H 8.8367346 C 7.8265306,4 7,4.9 7,5.9999995 V 25.999996 C 7,27.100001 7.8265306,28 8.8367346,28 H 23.163264 C 24.173467,28 25,27.100001 25,25.999996 V 5.9999995 C 25,4.9 24.173467,4 23.163264,4 Z m 0.918367,21.999996 c 0,0.549998 -0.413267,0.999998 -0.918367,0.999998 H 8.8367346 c -0.5051009,0 -0.9183664,-0.45 -0.9183664,-0.999998 V 5.9999995 c 0,-0.5500004 0.4132655,-1.0000004 0.9183664,-1.0000004 H 23.163264 c 0.5051,0 0.918367,0.45 0.918367,1.0000004 z"
       id="path2"
       style="fill:#232627;fill-opacity:1;stroke-width:0.47916" />
    <path
       d="m 16.157052,10.5625 c -2.959542,0 -5.341614,2.341217 -5.341614,5.250001 0,2.908767 2.382072,5.249999 5.341614,5.249999 2.959525,0 5.341612,-2.341232 5.341612,-5.249999 0,-2.908784 -2.382087,-5.250001 -5.341612,-5.250001 z m 0,9.324001 c -1.084598,0 -1.874988,-0.278636 -2.562787,-0.791017 -0.937235,-0.698197 -1.582307,-1.830395 -1.582307,-3.282983 0,-1.337649 0.559025,-2.27226 1.361575,-2.977804 0.708516,-0.622872 1.581987,-0.97953 2.783519,-0.97953 1.092311,0 1.790561,0.309846 2.480074,0.82922 0.928061,0.699055 1.54631,1.683119 1.54631,3.128114 0,1.117715 -0.439229,2.054667 -1.025588,2.7471 -0.716266,0.845874 -1.591733,1.3269 -3.000796,1.3269 z"
       id="path4"
       style="fill:#232627;fill-opacity:1;stroke-width:0.357822"
       sodipodi:nodetypes="ssssssssssssss" />
    <path
       d="m 16.080743,14.124999 c -1.002116,0 -1.793256,0.777575 -1.793256,1.762501 0,0.984927 0.79114,1.762499 1.793256,1.762499 1.002113,0 1.793255,-0.777572 1.793255,-1.762499 0,-0.984926 -0.791142,-1.762501 -1.793255,-1.762501 z m 0.02442,1.762501 z"
       id="path6-3"
       style="fill:#232627;fill-opacity:1;stroke-width:0.522886"
       sodipodi:nodetypes="ssssscccc" />
    <path
       d="m 11.387753,23.875 h 9.385979 c 0.343388,0 0.572314,-0.225 0.572314,-0.5625 0,-0.337501 -0.228926,-0.562499 -0.572314,-0.562499 h -9.385979 c -0.343388,0 -0.572315,0.224998 -0.572315,0.562499 0,0.3375 0.228927,0.5625 0.572315,0.5625 z"
       id="path10"
       style="fill:#232627;fill-opacity:1;stroke-width:0.567387" />
  </g>
  <g
     id="disk-quota-low"
     transform="translate(32)">
    <rect
       style="opacity:0.00100002"
       width="32"
       height="32"
       x="0"
       y="0"
       id="rect48" />
    <path
       d="M 23.163264,4 H 8.836735 C 7.826531,4 7,4.9 7,6 V 25.999996 C 7,27.100001 7.826531,28 8.836735,28 H 23.163264 C 24.173467,28 25,27.100001 25,25.999996 V 6 C 25,4.9 24.173467,4 23.163264,4 Z m 0.918367,21.999996 c 0,0.549998 -0.413267,0.999998 -0.918367,0.999998 H 8.836735 c -0.505101,0 -0.918367,-0.45 -0.918367,-0.999998 V 6 c 0,-0.550001 0.413266,-1.000001 0.918367,-1.000001 h 14.326529 c 0.5051,0 0.918367,0.45 0.918367,1.000001 z"
       id="path2-3"
       style="fill:#232627;fill-opacity:1;stroke-width:0.47916" />
    <path
       d="m 16.157052,10.5625 c -2.959542,0 -5.341614,2.341217 -5.341614,5.250001 0,2.908767 2.382072,5.249999 5.341614,5.249999 2.959525,0 5.341612,-2.341232 5.341612,-5.249999 0,-2.908784 -2.382087,-5.250001 -5.341612,-5.250001 z m 0,9.324001 c -1.084598,0 -1.874988,-0.278636 -2.562787,-0.791017 -0.937235,-0.698197 -1.582307,-1.830395 -1.582307,-3.282983 0,-1.337649 0.559025,-2.27226 1.361575,-2.977804 0.708516,-0.622872 1.581987,-0.97953 2.783519,-0.97953 1.092311,0 1.790561,0.309846 2.480074,0.82922 0.928061,0.699055 1.54631,1.683119 1.54631,3.128114 0,1.117715 -0.439229,2.054667 -1.025588,2.7471 -0.716266,0.845874 -1.591733,1.3269 -3.000796,1.3269 z"
       id="path4-6"
       style="fill:#5f8dd3;fill-opacity:1;stroke-width:0.357822"
       sodipodi:nodetypes="ssssssssssssss" />
    <path
       d="m 16.080743,14.124999 c -1.002116,0 -1.793256,0.777575 -1.793256,1.762501 0,0.984927 0.79114,1.762499 1.793256,1.762499 1.002113,0 1.793255,-0.777572 1.793255,-1.762499 0,-0.984926 -0.791142,-1.762501 -1.793255,-1.762501 z m 0.02442,1.762501 z"
       id="path6-3-7"
       style="fill:#5f8dd3;fill-opacity:1;stroke-width:0.522886"
       sodipodi:nodetypes="ssssscccc" />
    <path
       d="m 11.387753,23.875 h 9.385979 c 0.343388,0 0.572314,-0.225 0.572314,-0.5625 0,-0.337501 -0.228926,-0.562499 -0.572314,-0.562499 h -9.385979 c -0.343388,0 -0.572315,0.224998 -0.572315,0.562499 0,0.3375 0.228927,0.5625 0.572315,0.5625 z"
       id="path10-5"
       style="fill:#5f8dd3;fill-opacity:1;stroke-width:0.567387" />
  </g>
  <g
     id="disk-quota-critical"
     transform="translate(96)">
    <rect
       style="opacity:0.00100002"
       width="32"
       height="32"
       x="0"
       y="0"
       id="rect64" />
    <path
       d="M 23.163264,4 H 8.836735 C 7.826531,4 7,4.9 7,6 V 25.999996 C 7,27.100001 7.826531,28 8.836735,28 H 23.163264 C 24.173467,28 25,27.100001 25,25.999996 V 6 C 25,4.9 24.173467,4 23.163264,4 Z m 0.918367,21.999996 c 0,0.549998 -0.413267,0.999998 -0.918367,0.999998 H 8.836735 c -0.505101,0 -0.918367,-0.45 -0.918367,-0.999998 V 6 c 0,-0.550001 0.413266,-1.000001 0.918367,-1.000001 h 14.326529 c 0.5051,0 0.918367,0.45 0.918367,1.000001 z"
       id="path2-9"
       style="fill:#232627;fill-opacity:1;stroke-width:0.47916" />
    <path
       d="m 16.157052,10.5625 c -2.959542,0 -5.341614,2.341217 -5.341614,5.250001 0,2.908767 2.382072,5.249999 5.341614,5.249999 2.959525,0 5.341612,-2.341232 5.341612,-5.249999 0,-2.908784 -2.382087,-5.250001 -5.341612,-5.250001 z m 0,9.324001 c -1.084598,0 -1.874988,-0.278636 -2.562787,-0.791017 -0.937235,-0.698197 -1.582307,-1.830395 -1.582307,-3.282983 0,-1.337649 0.559025,-2.27226 1.361575,-2.977804 0.708516,-0.622872 1.581987,-0.97953 2.783519,-0.97953 1.092311,0 1.790561,0.309846 2.480074,0.82922 0.928061,0.699055 1.54631,1.683119 1.54631,3.128114 0,1.117715 -0.439229,2.054667 -1.025588,2.7471 -0.716266,0.845874 -1.591733,1.3269 -3.000796,1.3269 z"
       id="path4-1"
       style="fill:#bf616a;fill-opacity:1;stroke-width:0.357822"
       sodipodi:nodetypes="ssssssssssssss" />
    <path
       d="m 16.080743,14.124999 c -1.002116,0 -1.793256,0.777575 -1.793256,1.762501 0,0.984927 0.79114,1.762499 1.793256,1.762499 1.002113,0 1.793255,-0.777572 1.793255,-1.762499 0,-0.984926 -0.791142,-1.762501 -1.793255,-1.762501 z m 0.02442,1.762501 z"
       id="path6-3-2"
       style="fill:#bf616a;fill-opacity:1;stroke-width:0.522886"
       sodipodi:nodetypes="ssssscccc" />
    <path
       d="m 11.387753,23.875 h 9.385979 c 0.343388,0 0.572314,-0.225 0.572314,-0.5625 0,-0.337501 -0.228926,-0.562499 -0.572314,-0.562499 h -9.385979 c -0.343388,0 -0.572315,0.224998 -0.572315,0.562499 0,0.3375 0.228927,0.5625 0.572315,0.5625 z"
       id="path10-7"
       style="fill:#bf616a;fill-opacity:1;stroke-width:0.567387" />
  </g>
  <g
     id="disk-quota-missing"
     transform="translate(128)"
     style="fill:#d6dbf1;fill-opacity:1">
    <rect
       style="opacity:0.00100002;fill:#d6dbf1;fill-opacity:1"
       width="32"
       height="32"
       x="0"
       y="0"
       id="rect71" />
    <g
       transform="matrix(1.5,0,0,1.5,4,4.0003)"
       id="g75"
       style="fill:#d6dbf1;fill-opacity:1" />
    <path
       d="M 23.163264,4 H 8.8367346 C 7.826531,4 7,4.9 7,6 V 25.999996 C 7,27.100001 7.826531,28 8.8367346,28 H 23.163264 C 24.173467,28 25,27.100001 25,25.999996 V 6 C 25,4.9 24.173467,4 23.163264,4 Z m 0.918367,21.999996 c 0,0.549998 -0.413267,0.999998 -0.918367,0.999998 H 8.8367346 c -0.5051009,0 -0.9183666,-0.45 -0.9183666,-0.999998 V 6 c 0,-0.550001 0.4132657,-1.000001 0.9183666,-1.000001 H 23.163264 c 0.5051,0 0.918367,0.45 0.918367,1.000001 z"
       id="path2-0"
       style="opacity:0.3;fill:#232627;fill-opacity:1;stroke-width:0.47916" />
    <path
       d="m 16.157052,10.5625 c -2.959542,0 -5.341614,2.341217 -5.341614,5.250001 0,2.908767 2.382072,5.249999 5.341614,5.249999 2.959525,0 5.341612,-2.341232 5.341612,-5.249999 0,-2.908784 -2.382087,-5.250001 -5.341612,-5.250001 z m 0,9.324001 c -1.084598,0 -1.874988,-0.278636 -2.562787,-0.791017 -0.937235,-0.698197 -1.582307,-1.830395 -1.582307,-3.282983 0,-1.337649 0.559025,-2.27226 1.361575,-2.977804 0.708516,-0.622872 1.581987,-0.97953 2.783519,-0.97953 1.092311,0 1.790561,0.309846 2.480074,0.82922 0.928061,0.699055 1.54631,1.683119 1.54631,3.128114 0,1.117715 -0.439229,2.054667 -1.025588,2.7471 -0.716266,0.845874 -1.591733,1.3269 -3.000796,1.3269 z"
       id="path4-9"
       style="opacity:0.3;fill:#232627;fill-opacity:1;stroke-width:0.357822"
       sodipodi:nodetypes="ssssssssssssss" />
    <path
       d="m 16.080743,14.124999 c -1.002116,0 -1.793256,0.777575 -1.793256,1.762501 0,0.984927 0.79114,1.762499 1.793256,1.762499 1.002113,0 1.793255,-0.777572 1.793255,-1.762499 0,-0.984926 -0.791142,-1.762501 -1.793255,-1.762501 z m 0.02442,1.762501 z"
       id="path6-3-3"
       style="opacity:0.3;fill:#232627;fill-opacity:1;stroke-width:0.522886"
       sodipodi:nodetypes="ssssscccc" />
    <path
       d="m 11.387753,23.875 h 9.385979 c 0.343388,0 0.572314,-0.225 0.572314,-0.5625 0,-0.337501 -0.228926,-0.562499 -0.572314,-0.562499 h -9.385979 c -0.343388,0 -0.572315,0.224998 -0.572315,0.562499 0,0.3375 0.228927,0.5625 0.572315,0.5625 z"
       id="path10-6"
       style="opacity:0.3;fill:#232627;fill-opacity:1;stroke-width:0.567387" />
  </g>
  <g
     id="22-22-disk-quota"
     transform="translate(0,-22)"
     style="fill:#d6dbf1;fill-opacity:1">
    <g
       id="g1276"
       style="fill:#d6dbf1;fill-opacity:1">
      <rect
         style="opacity:0.00100002;fill:#d6dbf1;fill-opacity:1"
         width="22"
         height="22"
         x="0"
         y="0"
         id="rect4" />
      <path
         d="M 15.77551,3 H 6.22449 C 5.55102,3 5,3.6 5,4.333333 V 17.666664 C 5,18.400001 5.55102,19 6.22449,19 h 9.55102 C 16.44898,19 17,18.400001 17,17.666664 V 4.333333 C 17,3.6 16.44898,3 15.77551,3 Z m 0.61224,14.666664 c 0,0.366665 -0.27551,0.666665 -0.61224,0.666665 H 6.22449 c -0.33674,0 -0.61224,-0.3 -0.61224,-0.666665 V 4.333333 c 0,-0.366667 0.2755,-0.666667 0.61224,-0.666667 h 9.55102 c 0.33673,0 0.61224,0.3 0.61224,0.666667 z"
         id="path2-36"
         style="fill:#232627;fill-opacity:1;stroke-width:0.31944" />
      <path
         d="m 11.1047,7.375 c -1.97303,0 -3.56107,1.560811 -3.56107,3.500001 0,1.939178 1.58804,3.499999 3.56107,3.499999 1.97302,0 3.56107,-1.560821 3.56107,-3.499999 0,-1.93919 -1.58805,-3.500001 -3.56107,-3.500001 z m 0,6.216001 c -0.72307,0 -1.24999,-0.185758 -1.70852,-0.527345 -0.62483,-0.465465 -1.05487,-1.220263 -1.05487,-2.188655 0,-0.891766 0.37268,-1.51484 0.90771,-1.985203 0.47235,-0.415248 1.05466,-0.65302 1.85568,-0.65302 0.72821,0 1.19371,0.206564 1.65339,0.552813 0.6187,0.466037 1.03087,1.12208 1.03087,2.08541 0,0.745143 -0.29282,1.369778 -0.68373,1.8314 -0.47751,0.563916 -1.06116,0.8846 -2.00053,0.8846 z"
         id="path4-7"
         style="fill:#232627;fill-opacity:1;stroke-width:0.238548"
         sodipodi:nodetypes="ssssssssssssss" />
      <path
         d="m 11.05383,9.749999 c -0.66808,0 -1.1955,0.518384 -1.1955,1.175001 0,0.656618 0.52742,1.174999 1.1955,1.174999 0.66808,0 1.1955,-0.518381 1.1955,-1.174999 0,-0.656617 -0.52742,-1.175001 -1.1955,-1.175001 z m 0.0163,1.175001 z"
         id="path6-3-5"
         style="fill:#232627;fill-opacity:1;stroke-width:0.348591"
         sodipodi:nodetypes="ssssscccc" />
      <path
         d="m 7.92517,16.25 h 6.25732 c 0.22892,0 0.38154,-0.15 0.38154,-0.375 0,-0.225001 -0.15262,-0.374999 -0.38154,-0.374999 H 7.92517 c -0.22893,0 -0.38154,0.149998 -0.38154,0.374999 0,0.225 0.15261,0.375 0.38154,0.375 z"
         id="path10-3"
         style="fill:#232627;fill-opacity:1;stroke-width:0.378258" />
    </g>
  </g>
  <g
     id="22-22-disk-quota-low"
     transform="translate(32,-22)">
    <rect
       style="opacity:0.00100002"
       width="22"
       height="22"
       x="0"
       y="0"
       id="rect11" />
    <path
       d="M 15.775509,3 H 6.22449 C 5.551021,3 5,3.6 5,4.333333 V 17.666664 C 5,18.400001 5.551021,19 6.22449,19 h 9.551019 C 16.448978,19 17,18.400001 17,17.666664 V 4.333333 C 17,3.6 16.448978,3 15.775509,3 Z m 0.612245,14.666664 c 0,0.366665 -0.275511,0.666665 -0.612245,0.666665 H 6.22449 c -0.336734,0 -0.612245,-0.3 -0.612245,-0.666665 V 4.333333 c 0,-0.366667 0.275511,-0.666667 0.612245,-0.666667 h 9.551019 c 0.336734,0 0.612245,0.3 0.612245,0.666667 z"
       id="path2-3-5"
       style="fill:#232627;fill-opacity:1;stroke-width:0.31944" />
    <path
       d="m 11.104701,7.375 c -1.973028,0 -3.561076,1.560811 -3.561076,3.500001 0,1.939178 1.588048,3.499999 3.561076,3.499999 1.973017,0 3.561075,-1.560821 3.561075,-3.499999 0,-1.93919 -1.588058,-3.500001 -3.561075,-3.500001 z m 0,6.216001 c -0.723065,0 -1.249992,-0.185758 -1.708524,-0.527345 -0.624824,-0.465465 -1.054872,-1.220263 -1.054872,-2.188655 0,-0.891766 0.372684,-1.51484 0.907717,-1.985203 0.472344,-0.415248 1.054658,-0.65302 1.855679,-0.65302 0.728208,0 1.193708,0.206564 1.653383,0.552813 0.618707,0.466037 1.030873,1.12208 1.030873,2.08541 0,0.745143 -0.292819,1.369778 -0.683725,1.8314 -0.477511,0.563916 -1.061155,0.8846 -2.000531,0.8846 z"
       id="path4-6-6"
       style="fill:#5f8dd3;fill-opacity:1;stroke-width:0.238548"
       sodipodi:nodetypes="ssssssssssssss" />
    <path
       d="m 11.053829,9.749999 c -0.668078,0 -1.195504,0.518384 -1.195504,1.175001 0,0.656618 0.527426,1.174999 1.195504,1.174999 0.668075,0 1.195503,-0.518381 1.195503,-1.174999 0,-0.656617 -0.527428,-1.175001 -1.195503,-1.175001 z m 0.01628,1.175001 z"
       id="path6-3-7-2"
       style="fill:#5f8dd3;fill-opacity:1;stroke-width:0.348591"
       sodipodi:nodetypes="ssssscccc" />
    <path
       d="m 7.925169,16.25 h 6.257319 c 0.228925,0 0.381543,-0.15 0.381543,-0.375 0,-0.225001 -0.152618,-0.374999 -0.381543,-0.374999 H 7.925169 c -0.228926,0 -0.381544,0.149998 -0.381544,0.374999 0,0.225 0.152618,0.375 0.381544,0.375 z"
       id="path10-5-9"
       style="fill:#5f8dd3;fill-opacity:1;stroke-width:0.378258" />
  </g>
  <g
     id="22-22-disk-quota-high"
     transform="translate(64,-22)">
    <rect
       style="opacity:0.00100002"
       width="22"
       height="22"
       x="0"
       y="0"
       id="rect18" />
    <path
       d="M 15.775509,3 H 6.22449 C 5.551021,3 5,3.6 5,4.333333 V 17.666664 C 5,18.400001 5.551021,19 6.22449,19 h 9.551019 C 16.448978,19 17,18.400001 17,17.666664 V 4.333333 C 17,3.6 16.448978,3 15.775509,3 Z m 0.612245,14.666664 c 0,0.366665 -0.275511,0.666665 -0.612245,0.666665 H 6.22449 c -0.336734,0 -0.612245,-0.3 -0.612245,-0.666665 V 4.333333 c 0,-0.366667 0.275511,-0.666667 0.612245,-0.666667 h 9.551019 c 0.336734,0 0.612245,0.3 0.612245,0.666667 z"
       id="path2-3-3-1"
       style="fill:#232627;fill-opacity:1;stroke-width:0.31944" />
    <path
       d="m 11.104701,7.375 c -1.973028,0 -3.561076,1.560811 -3.561076,3.500001 0,1.939178 1.588048,3.499999 3.561076,3.499999 1.973017,0 3.561075,-1.560821 3.561075,-3.499999 0,-1.93919 -1.588058,-3.500001 -3.561075,-3.500001 z m 0,6.216001 c -0.723065,0 -1.249992,-0.185758 -1.708524,-0.527345 -0.624824,-0.465465 -1.054872,-1.220263 -1.054872,-2.188655 0,-0.891766 0.372684,-1.51484 0.907717,-1.985203 0.472344,-0.415248 1.054658,-0.65302 1.855679,-0.65302 0.728208,0 1.193708,0.206564 1.653383,0.552813 0.618707,0.466037 1.030873,1.12208 1.030873,2.08541 0,0.745143 -0.292819,1.369778 -0.683725,1.8314 -0.477511,0.563916 -1.061155,0.8846 -2.000531,0.8846 z"
       id="path4-6-5-2"
       style="fill:#ff9955;fill-opacity:1;stroke-width:0.238548"
       sodipodi:nodetypes="ssssssssssssss" />
    <path
       d="m 11.053829,9.749999 c -0.668078,0 -1.195504,0.518384 -1.195504,1.175001 0,0.656618 0.527426,1.174999 1.195504,1.174999 0.668075,0 1.195503,-0.518381 1.195503,-1.174999 0,-0.656617 -0.527428,-1.175001 -1.195503,-1.175001 z m 0.01628,1.175001 z"
       id="path6-3-7-6-7"
       style="fill:#ff9955;fill-opacity:1;stroke-width:0.348591"
       sodipodi:nodetypes="ssssscccc" />
    <path
       d="m 7.925169,16.25 h 6.257319 c 0.228925,0 0.381543,-0.15 0.381543,-0.375 0,-0.225001 -0.152618,-0.374999 -0.381543,-0.374999 H 7.925169 c -0.228926,0 -0.381544,0.149998 -0.381544,0.374999 0,0.225 0.152618,0.375 0.381544,0.375 z"
       id="path10-5-2-0"
       style="fill:#ff9955;fill-opacity:1;stroke-width:0.378258" />
  </g>
  <g
     id="22-22-disk-quota-critical"
     transform="translate(96,-22)">
    <rect
       style="opacity:0.00100002"
       width="22"
       height="22"
       x="0"
       y="0"
       id="rect27" />
    <path
       d="M 15.77551,3 H 6.22449 C 5.55102,3 5,3.6 5,4.333333 V 17.666664 C 5,18.400001 5.55102,19 6.22449,19 h 9.55102 C 16.44898,19 17,18.400001 17,17.666664 V 4.333333 C 17,3.6 16.44898,3 15.77551,3 Z m 0.61224,14.666664 c 0,0.366665 -0.27551,0.666665 -0.61224,0.666665 H 6.22449 c -0.33673,0 -0.61224,-0.3 -0.61224,-0.666665 V 4.333333 c 0,-0.366667 0.27551,-0.666667 0.61224,-0.666667 h 9.55102 c 0.33673,0 0.61224,0.3 0.61224,0.666667 z"
       id="path2-9-9"
       style="fill:#232627;fill-opacity:1;stroke-width:0.31944" />
    <path
       d="m 11.1047,7.375 c -1.97303,0 -3.56108,1.560811 -3.56108,3.500001 0,1.939178 1.58805,3.499999 3.56108,3.499999 1.97302,0 3.56108,-1.560821 3.56108,-3.499999 0,-1.93919 -1.58806,-3.500001 -3.56108,-3.500001 z m 0,6.216001 c -0.72306,0 -1.24999,-0.185758 -1.70852,-0.527345 -0.62483,-0.465465 -1.05487,-1.220263 -1.05487,-2.188655 0,-0.891766 0.37268,-1.51484 0.90771,-1.985203 0.47235,-0.415248 1.05466,-0.65302 1.85568,-0.65302 0.72821,0 1.19371,0.206564 1.65338,0.552813 0.61871,0.466037 1.03088,1.12208 1.03088,2.08541 0,0.745143 -0.29282,1.369778 -0.68373,1.8314 -0.47751,0.563916 -1.06115,0.8846 -2.00053,0.8846 z"
       id="path4-1-3"
       style="fill:#bf616a;fill-opacity:1;stroke-width:0.238548"
       sodipodi:nodetypes="ssssssssssssss" />
    <path
       d="m 11.05383,9.749999 c -0.66808,0 -1.1955,0.518384 -1.1955,1.175001 0,0.656618 0.52742,1.174999 1.1955,1.174999 0.66807,0 1.1955,-0.518381 1.1955,-1.174999 0,-0.656617 -0.52743,-1.175001 -1.1955,-1.175001 z m 0.0163,1.175001 z"
       id="path6-3-2-6"
       style="fill:#bf616a;fill-opacity:1;stroke-width:0.348591"
       sodipodi:nodetypes="ssssscccc" />
    <path
       d="m 7.92517,16.25 h 6.25732 c 0.22892,0 0.38154,-0.15 0.38154,-0.375 0,-0.225001 -0.15262,-0.374999 -0.38154,-0.374999 H 7.92517 c -0.22893,0 -0.38155,0.149998 -0.38155,0.374999 0,0.225 0.15262,0.375 0.38155,0.375 z"
       id="path10-7-0"
       style="fill:#bf616a;fill-opacity:1;stroke-width:0.378258" />
  </g>
  <g
     id="22-22-disk-quota-missing"
     style="fill:#d6dbf1;fill-opacity:1">
    <rect
       style="opacity:0.00100002;fill:#d6dbf1;fill-opacity:1"
       width="22"
       height="22"
       x="128"
       y="-22"
       id="rect34" />
    <path
       d="m 143.77551,-19 h -9.55102 C 133.55102,-19 133,-18.4 133,-17.666667 V -4.333336 C 133,-3.599999 133.55102,-3 134.22449,-3 h 9.55102 C 144.44898,-3 145,-3.599999 145,-4.333336 V -17.666667 C 145,-18.4 144.44898,-19 143.77551,-19 Z m 0.61224,14.666664 c 0,0.366665 -0.27551,0.666665 -0.61224,0.666665 h -9.55102 c -0.33673,0 -0.61225,-0.3 -0.61225,-0.666665 v -13.333331 c 0,-0.366667 0.27552,-0.666667 0.61225,-0.666667 h 9.55102 c 0.33673,0 0.61224,0.3 0.61224,0.666667 z"
       id="path2-0-6"
       style="opacity:0.3;fill:#232627;fill-opacity:1;stroke-width:0.31944" />
    <path
       d="m 139.1047,-14.625 c -1.97303,0 -3.56108,1.560811 -3.56108,3.500001 0,1.939178 1.58805,3.499999 3.56108,3.499999 1.97302,0 3.56108,-1.560821 3.56108,-3.499999 0,-1.93919 -1.58806,-3.500001 -3.56108,-3.500001 z m 0,6.216001 c -0.72306,0 -1.24999,-0.185758 -1.70852,-0.527345 -0.62483,-0.465465 -1.05488,-1.220263 -1.05488,-2.188655 0,-0.891766 0.37269,-1.51484 0.90772,-1.985203 0.47235,-0.415248 1.05466,-0.65302 1.85568,-0.65302 0.72821,0 1.19371,0.206564 1.65338,0.552813 0.61871,0.466037 1.03088,1.12208 1.03088,2.08541 0,0.745143 -0.29282,1.369778 -0.68373,1.8314 -0.47751,0.563916 -1.06115,0.8846 -2.00053,0.8846 z"
       id="path4-9-2"
       style="opacity:0.3;fill:#232627;fill-opacity:1;stroke-width:0.238548"
       sodipodi:nodetypes="ssssssssssssss" />
    <path
       d="m 139.05383,-12.250001 c -0.66808,0 -1.19551,0.518384 -1.19551,1.175001 0,0.656618 0.52743,1.174999 1.19551,1.174999 0.66807,0 1.1955,-0.518381 1.1955,-1.174999 0,-0.656617 -0.52743,-1.175001 -1.1955,-1.175001 z m 0.0163,1.175001 z"
       id="path6-3-3-6"
       style="opacity:0.3;fill:#232627;fill-opacity:1;stroke-width:0.348591"
       sodipodi:nodetypes="ssssscccc" />
    <path
       d="m 135.92517,-5.75 h 6.25732 c 0.22892,0 0.38154,-0.15 0.38154,-0.375 0,-0.225001 -0.15262,-0.374999 -0.38154,-0.374999 h -6.25732 c -0.22893,0 -0.38155,0.149998 -0.38155,0.374999 0,0.225 0.15262,0.375 0.38155,0.375 z"
       id="path10-6-1"
       style="opacity:0.3;fill:#232627;fill-opacity:1;stroke-width:0.378258" />
  </g>
</svg>
