<?xml version="1.0" encoding="UTF-8" standalone="no"?>
<svg
   width="32"
   height="32"
   version="1"
   id="svg12"
   sodipodi:docname="kate.svg"
   inkscape:version="1.1.1 (3bf5ae0d25, 2021-09-20)"
   xmlns:inkscape="http://www.inkscape.org/namespaces/inkscape"
   xmlns:sodipodi="http://sodipodi.sourceforge.net/DTD/sodipodi-0.dtd"
   xmlns="http://www.w3.org/2000/svg"
   xmlns:svg="http://www.w3.org/2000/svg"
   xmlns:rdf="http://www.w3.org/1999/02/22-rdf-syntax-ns#"
   xmlns:cc="http://creativecommons.org/ns#"
   xmlns:dc="http://purl.org/dc/elements/1.1/">
  <g
     id="22-22-kate"
     transform="translate(32,10)"
     style="fill:#232627;fill-opacity:1">
    <rect
       style="opacity:0.00100002;fill:#232627;fill-opacity:1"
       width="22"
       height="22"
       x="0"
       y="0"
       id="rect2" />
    <path
       style="fill:#232627;fill-opacity:1;stroke:none;stroke-width:0.038418;stroke-linecap:butt;stroke-linejoin:miter;stroke-miterlimit:4;stroke-dasharray:none;stroke-opacity:1"
       d="M 4.528797,8.437512 C 4.064221,6.895201 1.438846,7.269443 1,7.235962 1.492552,6.991461 1.937672,6.789922 2.953089,6.054349 4.909219,4.637315 6.98024,4.946347 8.017353,5.509089 5.18204,5.616871 5.722189,7.161556 6.139801,7.975456 5.60872,8.129719 4.770368,8.362589 4.528797,8.437512 Z"
       id="path905-3-3"
       inkscape:connector-curvature="0" />
    <path
       sodipodi:nodetypes="cssscccccsssc"
       inkscape:connector-curvature="0"
       id="path907-6-6"
       d="m 11.527523,6.315217 c -1.020994,1.348618 -2.71851,3.170692 -4.57635,3.410699 -1.857836,0.24002 -3.628979,-0.02585 -4.039248,1.357748 -0.37782,1.274197 0.951013,2.463858 2.329232,2.177131 1.472381,-0.306311 1.154397,-1.975136 0.349063,-3.111571 0.611727,-0.0351 0.497942,-0.02597 1.535291,-0.07828 1.546231,1.317993 2.058738,1.693767 4.760098,3.616705 C 9.80389,13.469618 9.046239,13.269443 7.553165,12.376353 7.93995,13.347216 8.766657,15.550695 8.94573,17.260417 8.084587,16.023006 7.758124,15.568262 6.423547,14.675553 4.714044,13.532047 3.32955,13.493333 2.528219,11.80861 1.728623,10.127518 2.786996,8.916571 4.680876,8.392145 7.387372,7.642699 9.719371,6.932156 11.527523,6.31522 Z"
       style="fill:#232627;fill-opacity:1;stroke:none;stroke-width:0.038418;stroke-linecap:butt;stroke-linejoin:miter;stroke-miterlimit:4;stroke-dasharray:none;stroke-opacity:1" />
    <path
       sodipodi:nodetypes="cccc"
       inkscape:connector-curvature="0"
       id="path909-7-7"
       d="m 5.59022,10.149224 c 0.611727,-0.0351 0.497942,-0.02597 1.535291,-0.07828 1.546231,1.317993 2.058738,1.693767 4.760098,3.616705 C 9.170379,13.493412 7.115968,12.692617 5.59022,10.149224 Z"
       style="fill:#232627;fill-opacity:1;stroke:none;stroke-width:0.038418;stroke-linecap:butt;stroke-linejoin:miter;stroke-miterlimit:4;stroke-dasharray:none;stroke-opacity:1" />
    <path
       style="fill:#232627;fill-opacity:1;stroke:none;stroke-width:0.038418;stroke-linecap:butt;stroke-linejoin:miter;stroke-miterlimit:4;stroke-dasharray:none;stroke-opacity:1"
       d="m 11.527523,6.315217 c -1.020994,1.348618 -2.71851,3.170692 -4.57635,3.410699 -1.857836,0.24002 -3.628979,-0.02585 -4.039248,1.357748 -0.37782,1.274197 0.951013,2.463858 2.329232,2.177131 1.472381,-0.306311 1.154397,-1.975136 0.349063,-3.111571 0.611727,-0.0351 0.497942,-0.02597 1.535291,-0.07828 1.546231,1.317993 2.058738,1.693767 4.760098,3.616705 C 9.80389,13.469618 9.046239,13.269443 7.553165,12.376353 7.93995,13.347216 8.766657,15.550695 8.94573,17.260417 8.084587,16.023006 7.758124,15.568262 6.423547,14.675553 4.714044,13.532047 3.32955,13.493333 2.528219,11.80861 1.728623,10.127518 2.786996,8.916571 4.680876,8.392145 7.387372,7.642699 9.719371,6.932156 11.527523,6.31522 Z"
       id="path911-53-5"
       inkscape:connector-curvature="0"
       sodipodi:nodetypes="cssscccccsssc" />
    <path
       style="fill:#232627;fill-opacity:1;stroke:none;stroke-width:0.038418;stroke-linecap:butt;stroke-linejoin:miter;stroke-miterlimit:4;stroke-dasharray:none;stroke-opacity:1"
       d="m 5.59022,10.149224 c 0.611727,-0.0351 0.497942,-0.02597 1.535291,-0.07828 1.546231,1.317993 2.058738,1.693767 4.760098,3.616705 C 9.170379,13.493412 7.115968,12.692617 5.59022,10.149224 Z"
       id="path913-5-3"
       inkscape:connector-curvature="0"
       sodipodi:nodetypes="cccc" />
    <path
       sodipodi:nodetypes="ccccc"
       inkscape:connector-curvature="0"
       id="path915-6-5"
       d="M 1,7.235962 C 1.492552,6.991461 1.937672,6.789922 2.953089,6.054349 4.909219,4.637315 6.98024,4.946347 8.017353,5.509089 5.18204,5.616871 5.547361,6.181804 5.536899,6.624677 3.653111,6.227596 3.103081,6.767862 1,7.235962 Z"
       style="fill:#232627;fill-opacity:1;stroke:none;stroke-width:0.038418;stroke-linecap:butt;stroke-linejoin:miter;stroke-miterlimit:4;stroke-dasharray:none;stroke-opacity:1" />
    <path
       inkscape:connector-curvature="0"
       id="path917-2-6"
       d="M 8.017353,5.509089 C 5.18204,5.616871 5.722189,7.161556 6.139801,7.975456 5.80894,8.071556 5.450331,8.181049 5.008031,8.298097 3.2234,5.118196 6.560785,4.704512 8.017353,5.509089 Z"
       style="fill:#232627;fill-opacity:1;stroke:none;stroke-width:0.038418;stroke-linecap:butt;stroke-linejoin:miter;stroke-miterlimit:4;stroke-dasharray:none;stroke-opacity:1"
       sodipodi:nodetypes="cccc" />
    <path
       sodipodi:nodetypes="cscc"
       style="fill:#232627;fill-opacity:1;stroke:none;stroke-width:0.038418;stroke-linecap:butt;stroke-linejoin:miter;stroke-miterlimit:4;stroke-dasharray:none;stroke-opacity:1"
       d="M 3.03877,12.600799 C 1.651321,10.814286 1.907499,9.176795 4.624321,8.326008 7.305379,7.486414 9.719371,6.932153 11.527523,6.315217 6.647993,8.174427 0.537866,9.416741 3.03877,12.600799 Z"
       id="path919-9-2"
       inkscape:connector-curvature="0" />
    <path
       d="m 10.108989,4.01865 h 10.389149 a 0.37104109,0.509325 0 0 0 0,-1.01865 H 10.108989 a 0.37104109,0.509325 0 0 0 0,1.01865 z"
       id="path4-9"
       style="fill:#232627;fill-opacity:1;stroke-width:0.217361" />
    <path
       d="m 20.210542,6.746984 h -8.066881 a 0.65852181,0.509325 0 0 0 0,1.01865 h 8.066881 a 0.65852181,0.509325 0 0 0 0,-1.01865 z"
       id="path6-1"
       style="fill:#232627;fill-opacity:1;stroke-width:0.289569" />
    <path
       d="m 20.210542,10.490675 h -8.066881 a 0.65852123,0.509325 0 0 0 0,1.01865 h 8.066881 a 0.65852123,0.509325 0 0 0 0,-1.01865 z"
       id="path8-2"
       style="fill:#232627;fill-opacity:1;stroke-width:0.289569" />
    <path
       d="m 20.210542,14.237659 h -8.066881 a 0.65852123,0.509325 0 0 0 0,1.01865 h 8.066881 a 0.65852123,0.509325 0 0 0 0,-1.01865 z"
       id="path10-7"
       style="fill:#232627;fill-opacity:1;stroke-width:0.289569" />
    <path
       d="M 20.210542,17.98135 H 1.771957 a 0.65852123,0.509325 0 0 0 0,1.01865 h 18.438585 a 0.65852123,0.509325 0 0 0 0,-1.01865 z"
       id="path12-0"
       style="fill:#232627;fill-opacity:1;stroke-width:0.289569" />
  </g>
  <metadata
     id="metadata18">
    <rdf:RDF>
      <cc:Work
         rdf:about="">
        <dc:format>image/svg+xml</dc:format>
        <dc:type
           rdf:resource="http://purl.org/dc/dcmitype/StillImage" />
      </cc:Work>
    </rdf:RDF>
  </metadata>
  <defs
     id="defs16" />
  <sodipodi:namedview
     pagecolor="#ffffff"
     bordercolor="#000000"
     borderopacity="1"
     objecttolerance="10"
     gridtolerance="10"
     guidetolerance="10"
     inkscape:pageopacity="0"
     inkscape:pageshadow="2"
     inkscape:window-width="1920"
     inkscape:window-height="1006"
     id="namedview14"
     showgrid="false"
     inkscape:zoom="6.9384853"
     inkscape:cx="25.50989"
     inkscape:cy="21.474428"
     inkscape:window-x="0"
     inkscape:window-y="0"
     inkscape:window-maximized="1"
     inkscape:current-layer="svg12"
     inkscape:document-rotation="0"
     inkscape:showpageshadow="false"
     inkscape:lockguides="true"
     inkscape:pagecheckerboard="0">
    <inkscape:grid
       type="xygrid"
       id="grid1003"
       originx="0"
       originy="0" />
  </sodipodi:namedview>
  <g
     id="kate"
     style="fill:#232627;fill-opacity:1">
    <rect
       style="opacity:0.00100002;fill:#232627;fill-opacity:1"
       width="32"
       height="32"
       x="0"
       y="0"
       id="rect7" />
    <path
       style="fill:#232627;fill-opacity:1;stroke:none;stroke-width:0.056572;stroke-linecap:butt;stroke-linejoin:miter;stroke-miterlimit:4;stroke-dasharray:none;stroke-opacity:1"
       d="M 6.5292477,12.006943 C 5.8451424,9.735831 1.9791778,10.286917 1.332961,10.237614 2.0582632,9.877578 2.7137195,9.580804 4.2089577,8.4976442 7.0894339,6.411008 10.139091,6.8660698 11.666279,7.6947284 7.4911743,7.8534407 8.2865632,10.128049 8.9015131,11.326548 8.1194762,11.553706 6.8849696,11.896616 6.5292477,12.006943 Z"
       id="path905-3"
       inkscape:connector-curvature="0" />
    <path
       sodipodi:nodetypes="cssscccccsssc"
       inkscape:connector-curvature="0"
       id="path907-6"
       d="m 16.835138,8.8817819 c -1.503453,1.9858921 -4.00311,4.6689651 -6.738849,5.0223841 -2.7357342,0.353438 -5.3438088,-0.03807 -5.9479464,1.999335 -0.5563532,1.876304 1.4004037,3.628124 3.4298829,3.205909 2.1681369,-0.451056 1.6998932,-2.908464 0.5140083,-4.581907 0.9007911,-0.05169 0.7332379,-0.03824 2.2607742,-0.115274 2.276883,1.940794 3.03157,2.494135 7.009425,5.325734 C 14.297023,19.416905 13.181352,19.12214 10.982744,17.807031 11.5523,19.236663 12.769657,22.48137 13.03335,24.999 11.765283,23.176865 11.284554,22.507237 9.3193387,21.19269 6.8020324,19.508834 4.7633122,19.451826 3.5833214,16.971007 2.4058861,14.495536 3.9643805,12.712371 6.7531909,11.940134 10.738608,10.836546 14.172565,9.790244 16.835138,8.8817819 Z"
       style="fill:#232627;fill-opacity:1;stroke:none;stroke-width:0.056572;stroke-linecap:butt;stroke-linejoin:miter;stroke-miterlimit:4;stroke-dasharray:none;stroke-opacity:1" />
    <path
       sodipodi:nodetypes="cccc"
       inkscape:connector-curvature="0"
       id="path909-7"
       d="m 8.0922338,14.527503 c 0.9007911,-0.05169 0.7332379,-0.03824 2.2607742,-0.115274 2.276883,1.940794 3.03157,2.494135 7.009425,5.325734 C 13.364154,19.451942 10.338955,18.272741 8.0922338,14.5275 Z"
       style="fill:#232627;fill-opacity:1;stroke:none;stroke-width:0.056572;stroke-linecap:butt;stroke-linejoin:miter;stroke-miterlimit:4;stroke-dasharray:none;stroke-opacity:1" />
    <path
       style="fill:#232627;fill-opacity:1;stroke:none;stroke-width:0.056572;stroke-linecap:butt;stroke-linejoin:miter;stroke-miterlimit:4;stroke-dasharray:none;stroke-opacity:1"
       d="m 16.835138,8.8817819 c -1.503453,1.9858921 -4.00311,4.6689651 -6.738849,5.0223841 -2.7357342,0.353438 -5.3438088,-0.03807 -5.9479464,1.999335 -0.5563532,1.876304 1.4004037,3.628124 3.4298829,3.205909 2.1681369,-0.451056 1.6998932,-2.908464 0.5140083,-4.581907 0.9007911,-0.05169 0.7332379,-0.03824 2.2607742,-0.115274 2.276883,1.940794 3.03157,2.494135 7.009425,5.325734 C 14.297023,19.416905 13.181352,19.12214 10.982744,17.807031 11.5523,19.236663 12.769657,22.48137 13.03335,24.999 11.765283,23.176865 11.284554,22.507237 9.3193387,21.19269 6.8020324,19.508834 4.7633122,19.451826 3.5833214,16.971007 2.4058861,14.495536 3.9643805,12.712371 6.7531909,11.940134 10.738608,10.836546 14.172565,9.790244 16.835138,8.8817819 Z"
       id="path911-53"
       inkscape:connector-curvature="0"
       sodipodi:nodetypes="cssscccccsssc" />
    <path
       style="fill:#232627;fill-opacity:1;stroke:none;stroke-width:0.056572;stroke-linecap:butt;stroke-linejoin:miter;stroke-miterlimit:4;stroke-dasharray:none;stroke-opacity:1"
       d="m 8.0922338,14.527503 c 0.9007911,-0.05169 0.7332379,-0.03824 2.2607742,-0.115274 2.276883,1.940794 3.03157,2.494135 7.009425,5.325734 C 13.364154,19.451942 10.338955,18.272741 8.0922338,14.5275 Z"
       id="path913-5"
       inkscape:connector-curvature="0"
       sodipodi:nodetypes="cccc" />
    <path
       sodipodi:nodetypes="ccccc"
       inkscape:connector-curvature="0"
       id="path915-6"
       d="M 1.332961,10.237614 C 2.0582632,9.877578 2.7137195,9.580804 4.2089577,8.4976442 7.0894339,6.411008 10.139091,6.8660698 11.666279,7.6947284 7.4911743,7.8534407 8.0291226,8.6853271 8.0137164,9.3374736 5.2397683,8.7527583 4.4298283,9.548319 1.332961,10.237614 Z"
       style="fill:#232627;fill-opacity:1;stroke:none;stroke-width:0.056572;stroke-linecap:butt;stroke-linejoin:miter;stroke-miterlimit:4;stroke-dasharray:none;stroke-opacity:1" />
    <path
       inkscape:connector-curvature="0"
       id="path917-2"
       d="M 11.666279,7.6947284 C 7.4911743,7.8534407 8.2865632,10.128049 8.9015131,11.326548 8.414307,11.46806 7.886242,11.629291 7.2349383,11.801649 4.6070024,7.1191237 9.5214266,6.5099579 11.666279,7.6947284 Z"
       style="fill:#232627;fill-opacity:1;stroke:none;stroke-width:0.056572;stroke-linecap:butt;stroke-linejoin:miter;stroke-miterlimit:4;stroke-dasharray:none;stroke-opacity:1"
       sodipodi:nodetypes="cccc" />
    <path
       sodipodi:nodetypes="cscc"
       style="fill:#232627;fill-opacity:1;stroke:none;stroke-width:0.056572;stroke-linecap:butt;stroke-linejoin:miter;stroke-miterlimit:4;stroke-dasharray:none;stroke-opacity:1"
       d="M 4.3351275,18.13754 C 2.2920563,15.506832 2.6692878,13.095564 6.669911,11.842748 10.61787,10.606414 14.172565,9.790244 16.835138,8.8817819 9.649845,11.61954 0.6524514,13.448894 4.3351275,18.13754 Z"
       id="path919-9"
       inkscape:connector-curvature="0" />
    <path
       d="m 14.746293,5.5 h 15.298414 a 0.54637181,0.75000001 0 0 0 0,-1.5 H 14.746293 a 0.54637181,0.75000001 0 0 0 0,1.5 z"
       id="path4"
       style="fill:#232627;fill-opacity:1;stroke-width:0.320073" />
    <path
       d="M 29.621212,9.5175757 H 17.742424 a 0.96969804,0.75000015 0 0 0 0,1.5000003 h 11.878788 a 0.96969804,0.75000015 0 0 0 0,-1.5000003 z"
       id="path6"
       style="fill:#232627;fill-opacity:1;stroke-width:0.426401" />
    <path
       d="M 29.621212,15.030303 H 17.742424 a 0.969697,0.75 0 0 0 0,1.5 h 11.878788 a 0.969697,0.75 0 0 0 0,-1.5 z"
       id="path8"
       style="fill:#232627;fill-opacity:1;stroke-width:0.426401" />
    <path
       d="M 29.621212,20.547879 H 17.742424 a 0.969697,0.75 0 0 0 0,1.5 h 11.878788 a 0.969697,0.75 0 0 0 0,-1.5 z"
       id="path10"
       style="fill:#232627;fill-opacity:1;stroke-width:0.426401" />
    <path
       d="M 29.621212,26.060606 H 2.469697 a 0.969697,0.75 0 0 0 0,1.5 h 27.151515 a 0.969697,0.75 0 0 0 0,-1.5 z"
       id="path12"
       style="fill:#232627;fill-opacity:1;stroke-width:0.426401" />
  </g>
</svg>
