<?xml version="1.0" encoding="UTF-8" standalone="no"?>
<svg
   sodipodi:docname="kdeconnect.svg"
   height="31.999973"
   width="32.000015"
   inkscape:version="1.1.1 (3bf5ae0d25, 2021-09-20)"
   version="1.1"
   id="svg"
   viewBox="0 0 32.000013 31.999973"
   xmlns:inkscape="http://www.inkscape.org/namespaces/inkscape"
   xmlns:sodipodi="http://sodipodi.sourceforge.net/DTD/sodipodi-0.dtd"
   xmlns="http://www.w3.org/2000/svg"
   xmlns:svg="http://www.w3.org/2000/svg"
   xmlns:rdf="http://www.w3.org/1999/02/22-rdf-syntax-ns#"
   xmlns:cc="http://creativecommons.org/ns#"
   xmlns:dc="http://purl.org/dc/elements/1.1/">
  <defs
     id="defs81">
    <style
       type="text/css"
       id="current-color-scheme" />
    <style
       id="current-color-scheme-9"
       type="text/css" />
    <linearGradient
       id="oomox"
       x1="448.98987"
       x2="448.98987"
       y1="94.879333"
       y2="107.52991"
       gradientTransform="matrix(1.1859917,0,0,1.8971464,-523.99826,-176)"
       gradientUnits="userSpaceOnUse">
      <stop
         offset="0%"
         style="stop-color:#303b3d; stop-opacity:1"
         id="stop18" />
      <stop
         offset="100%"
         style="stop-color:#bc985d; stop-opacity:1"
         id="stop20" />
    </linearGradient>
    <linearGradient
       id="oomox-3"
       x1="0"
       x2="0"
       y1="0"
       y2="1">
      <stop
         offset="0%"
         style="stop-color:#303b3d; stop-opacity:1"
         id="stop18-6" />
      <stop
         offset="100%"
         style="stop-color:#bc985d; stop-opacity:1"
         id="stop20-7" />
    </linearGradient>
  </defs>
  <metadata
     id="metadata34">
    <rdf:RDF>
      <cc:Work
         rdf:about="">
        <dc:format>image/svg+xml</dc:format>
        <dc:type
           rdf:resource="http://purl.org/dc/dcmitype/StillImage" />
      </cc:Work>
    </rdf:RDF>
  </metadata>
  <sodipodi:namedview
     inkscape:document-rotation="0"
     fit-margin-bottom="0"
     fit-margin-right="0"
     fit-margin-left="0"
     fit-margin-top="0"
     inkscape:snap-bbox-midpoints="true"
     inkscape:snap-bbox="true"
     inkscape:guide-bbox="true"
     showguides="false"
     borderlayer="false"
     inkscape:current-layer="svg"
     inkscape:window-maximized="1"
     inkscape:window-y="0"
     inkscape:window-x="0"
     inkscape:cy="42.603182"
     inkscape:cx="22.804193"
     inkscape:zoom="5.6568545"
     showgrid="false"
     id="namedview32"
     inkscape:window-height="1006"
     inkscape:window-width="1920"
     inkscape:pageshadow="2"
     inkscape:pageopacity="0.11372549"
     guidetolerance="10"
     gridtolerance="10"
     objecttolerance="10"
     borderopacity="1"
     bordercolor="#000000"
     pagecolor="#ffffff"
     inkscape:lockguides="false"
     inkscape:showpageshadow="false"
     inkscape:pagecheckerboard="0">
    <inkscape:grid
       spacingy="1.0666667"
       spacingx="1.0666666"
       originy="-31.966645"
       originx="-51.166647"
       snapvisiblegridlinesonly="true"
       enabled="true"
       visible="true"
       empspacing="5"
       id="grid3046"
       type="xygrid" />
  </sodipodi:namedview>
  <g
     id="kdeconnect"
     style="fill:#232627;fill-opacity:1">
    <rect
       width="32.000015"
       height="31.999973"
       rx="0"
       ry="0"
       x="-4.4677737e-09"
       y="9.5214844e-08"
       id="rect3860"
       style="opacity:0.01;fill:#232627;fill-opacity:1;stroke:none" />
    <path
       d="M 21.969392,4 H 10.030629 C 9.188791,4 8.5,4.9 8.5,5.999999 V 25.999998 C 8.5,27.1 9.188791,28 10.030629,28 H 21.969392 C 22.811229,28 23.5,27.1 23.5,25.999998 V 5.999999 C 23.5,4.9 22.811229,4 21.969392,4 Z m 0.765311,21.999998 c 0,0.549994 -0.344409,0.999994 -0.765311,0.999994 H 10.030629 c -0.420938,0 -0.765313,-0.45 -0.765313,-0.999994 V 5.999999 C 9.265316,5.45 9.609691,5 10.030629,5 h 11.938763 c 0.420902,0 0.765311,0.45 0.765311,0.999999 z"
       id="path2"
       style="fill:#232627;fill-opacity:1;stroke-width:0.437407" />
    <path
       d="m 22.421702,16.229851 h -2.554634 c -0.0193,1.057888 -0.169926,2.075114 -0.439484,2.987981 h 2.131398 c 0.514668,-0.884265 0.8243,-1.902326 0.86269,-2.987981 z"
       id="path67"
       style="fill:#232627;fill-opacity:1;stroke-width:0.0525971" />
    <path
       d="m 21.525446,12.725838 h -2.115398 c 0.279828,0.927235 0.43722,1.96418 0.456734,3.043851 h 2.554634 c -0.03918,-1.108647 -0.361196,-2.146599 -0.89599,-3.043851 z"
       id="path71"
       style="fill:#232627;fill-opacity:1;stroke-width:0.0525971" />
    <path
       d="m 16.240502,22.4 c 0.796584,-0.102724 1.547294,-0.73656 2.134282,-1.811484 0.1543,-0.282507 0.291752,-0.587826 0.413382,-0.910406 H 16.24068 Z"
       id="path73"
       style="fill:#232627;fill-opacity:1;stroke-width:0.0525971" />
    <path
       d="m 14.309672,22.185936 c -0.393452,-0.340854 -0.754028,-0.803162 -1.067353,-1.376779 -0.190051,-0.348042 -0.356263,-0.72774 -0.498854,-1.130842 h -1.985537 c 0.846287,1.204994 2.096099,2.106772 3.551714,2.50762 z"
       id="path77"
       style="fill:#232627;fill-opacity:1;stroke-width:0.0525971" />
    <path
       d="m 21.26404,19.678109 h -1.986166 c -0.142582,0.403112 -0.308598,0.782798 -0.498856,1.130831 -0.313118,0.573627 -0.67387,1.035905 -1.067342,1.376996 1.455664,-0.400848 2.70584,-1.302626 3.552344,-2.507827 z"
       id="path79"
       style="fill:#232627;fill-opacity:1;stroke-width:0.0525971" />
    <path
       d="m 16.240502,19.217891 h 2.705488 c 0.281678,-0.903198 0.440496,-1.922266 0.460632,-2.987994 h -3.165874 z"
       id="path81"
       style="fill:#232627;fill-opacity:1;stroke-width:0.0525971" />
    <path
       d="m 15.780284,12.725838 h -2.688393 c -0.292776,0.916766 -0.457563,1.956137 -0.478101,3.043851 h 3.166504 z"
       id="path83"
       style="fill:#232627;fill-opacity:1;stroke-width:0.0525971" />
    <path
       d="m 15.780284,9.6 c -0.796752,0.1027288 -1.547304,0.736567 -2.1345,1.811339 -0.14526,0.266064 -0.275514,0.552477 -0.391808,0.854075 h 2.526298 z"
       id="path85"
       style="fill:#232627;fill-opacity:1;stroke-width:0.0525971" />
    <path
       d="m 16.240502,15.76963 h 3.165864 c -0.02038,-1.087703 -0.185118,-2.127074 -0.477882,-3.04384 h -2.687982 z"
       id="path87"
       style="fill:#232627;fill-opacity:1;stroke-width:0.0525971" />
    <path
       d="m 16.240502,9.6 v 2.665415 h 2.525864 C 18.650084,11.963796 18.520026,11.677369 18.374558,11.411339 17.78758,10.336567 17.037022,9.7027751 16.240492,9.6 Z"
       id="path89"
       style="fill:#232627;fill-opacity:1;stroke-width:0.0525971" />
    <path
       d="m 19.258516,12.26562 h 1.965814 c -0.84545,-1.17686 -2.079418,-2.056651 -3.51227,-2.4511285 0.393452,0.3408555 0.753822,0.8031555 1.067146,1.3763575 0.181208,0.332023 0.34105,0.692385 0.47933,1.074771 z"
       id="path91"
       style="fill:#232627;fill-opacity:1;stroke-width:0.0525971" />
    <path
       d="m 15.780284,16.229851 h -3.166503 c 0.01989,1.065726 0.178953,2.084782 0.460632,2.987981 h 2.705861 z"
       id="path93"
       style="fill:#232627;fill-opacity:1;stroke-width:0.0525971" />
    <path
       d="m 13.241945,11.19106 c 0.313117,-0.573204 0.673713,-1.035531 1.067136,-1.376148 -1.432625,0.394478 -2.66619,1.274268 -3.511691,2.451133 h 1.965185 C 12.900648,11.88347 13.06049,11.5231 13.241916,11.19106 Z"
       id="path99"
       style="fill:#232627;fill-opacity:1;stroke-width:0.0525971" />
    <path
       d="m 9.600128,15.76963 h 2.554058 c 0.0196,-1.07966 0.1769,-2.116402 0.456728,-3.04384 h -2.114755 c -0.534815,0.897251 -0.856764,1.935192 -0.895991,3.04384 z"
       id="path107"
       style="fill:#232627;fill-opacity:1;stroke-width:0.0525971" />
    <path
       d="m 10.462721,19.217891 h 2.130805 c -0.269352,-0.913034 -0.420154,-1.93026 -0.439468,-2.987994 H 9.6 c 0.0384,1.085656 0.347841,2.10367 0.862691,2.987994 z"
       id="path109"
       style="fill:#232627;fill-opacity:1;stroke-width:0.0525971" />
    <path
       d="m 15.780284,22.4 v -2.72189 h -2.547849 c 0.121411,0.322364 0.258864,0.627692 0.41337,0.910406 0.587196,1.074972 1.337757,1.70877 2.134499,1.811484 z"
       id="path111"
       style="fill:#232627;fill-opacity:1;stroke-width:0.0525971" />
    <rect
       x="15.033336"
       y="24.883356"
       width="2"
       height="1.5"
       id="rect14"
       style="fill:#232627;fill-opacity:1" />
  </g>
  <g
     id="22-22-kdeconnect">
    <rect
       style="fill:#000000;fill-opacity:0;stroke:none"
       id="rect3841"
       width="22"
       height="22"
       x="5.2620001"
       y="38.381004" />
    <path
       d="m 20.241595,41.381004 h -7.959176 c -0.561225,0 -1.020419,0.6 -1.020419,1.333332 v 13.333333 c 0,0.733335 0.459194,1.333335 1.020419,1.333335 h 7.959176 c 0.561224,0 1.020405,-0.6 1.020405,-1.333335 V 42.714336 c 0,-0.733332 -0.459181,-1.333332 -1.020405,-1.333332 z m 0.510207,14.666665 c 0,0.366663 -0.229606,0.666663 -0.510207,0.666663 h -7.959176 c -0.280625,0 -0.510208,-0.3 -0.510208,-0.666663 V 42.714336 c 0,-0.366666 0.229583,-0.666666 0.510208,-0.666666 h 7.959176 c 0.280601,0 0.510207,0.3 0.510207,0.666666 z"
       id="path2-3"
       style="fill:#232627;fill-opacity:1;stroke-width:0.291605" />
    <path
       d="m 20.543135,49.534238 h -1.70309 c -0.01287,0.705259 -0.113284,1.383409 -0.292989,1.991987 h 1.420932 c 0.343112,-0.58951 0.549533,-1.268217 0.575127,-1.991987 z"
       id="path67-6"
       style="fill:#232627;fill-opacity:1;stroke-width:0.0350647" />
    <path
       d="m 19.945631,47.198229 h -1.410266 c 0.186552,0.618157 0.29148,1.309454 0.30449,2.029234 h 1.703089 c -0.02612,-0.739098 -0.240797,-1.431066 -0.597327,-2.029234 z"
       id="path71-7"
       style="fill:#232627;fill-opacity:1;stroke-width:0.0350647" />
    <path
       d="m 16.422335,53.647671 c 0.531056,-0.06848 1.031529,-0.49104 1.422854,-1.207656 0.102867,-0.188338 0.194502,-0.391884 0.275588,-0.606938 h -1.698324 z"
       id="path73-5"
       style="fill:#232627;fill-opacity:1;stroke-width:0.0350647" />
    <path
       d="m 15.135115,53.504961 c -0.262302,-0.227236 -0.502686,-0.535441 -0.711569,-0.917852 -0.126701,-0.232028 -0.237509,-0.48516 -0.332569,-0.753895 h -1.323692 c 0.564192,0.803329 1.3974,1.404515 2.36781,1.671747 z"
       id="path77-3"
       style="fill:#232627;fill-opacity:1;stroke-width:0.0350647" />
    <path
       d="m 19.77136,51.833077 h -1.324111 c -0.09505,0.268741 -0.205732,0.521865 -0.33257,0.753887 -0.208746,0.382418 -0.449247,0.690603 -0.711562,0.917997 0.970443,-0.267232 1.803894,-0.868417 2.36823,-1.671884 z"
       id="path79-5"
       style="fill:#232627;fill-opacity:1;stroke-width:0.0350647" />
    <path
       d="m 16.422335,51.526265 h 1.803658 c 0.187786,-0.602132 0.293664,-1.281511 0.307088,-1.991996 h -2.110582 z"
       id="path81-6"
       style="fill:#232627;fill-opacity:1;stroke-width:0.0350647" />
    <path
       d="m 16.115523,47.198229 h -1.792262 c -0.195184,0.611178 -0.305042,1.304092 -0.318734,2.029234 h 2.111002 z"
       id="path83-2"
       style="fill:#232627;fill-opacity:1;stroke-width:0.0350647" />
    <path
       d="m 16.115523,45.114337 c -0.531168,0.06849 -1.031536,0.491045 -1.423,1.20756 -0.09684,0.177376 -0.183676,0.368318 -0.261206,0.569383 h 1.684199 z"
       id="path85-9"
       style="fill:#232627;fill-opacity:1;stroke-width:0.0350647" />
    <path
       d="m 16.422335,49.227424 h 2.110576 c -0.01359,-0.725135 -0.123412,-1.418049 -0.318588,-2.029227 h -1.791988 z"
       id="path87-1"
       style="fill:#232627;fill-opacity:1;stroke-width:0.0350647" />
    <path
       d="m 16.422335,45.114337 v 1.776944 h 1.683909 c -0.07752,-0.20108 -0.164227,-0.392031 -0.261205,-0.569384 -0.391319,-0.716515 -0.891691,-1.139043 -1.422711,-1.20756 z"
       id="path89-2"
       style="fill:#232627;fill-opacity:1;stroke-width:0.0350647" />
    <path
       d="m 18.434344,46.891417 h 1.310543 c -0.563634,-0.784573 -1.386279,-1.3711 -2.341514,-1.634085 0.262302,0.227237 0.502548,0.535437 0.711431,0.917571 0.120805,0.221349 0.227367,0.46159 0.319553,0.716514 z"
       id="path91-7"
       style="fill:#232627;fill-opacity:1;stroke-width:0.0350647" />
    <path
       d="m 16.115523,49.534238 h -2.111002 c 0.01326,0.710484 0.119302,1.389855 0.307088,1.991987 h 1.803907 z"
       id="path93-0"
       style="fill:#232627;fill-opacity:1;stroke-width:0.0350647" />
    <path
       d="m 14.423297,46.175044 c 0.208744,-0.382136 0.449142,-0.690354 0.711424,-0.917432 -0.955084,0.262985 -1.77746,0.849512 -2.341128,1.634089 h 1.310124 c 0.09205,-0.25505 0.19861,-0.495297 0.31956,-0.716657 z"
       id="path99-9"
       style="fill:#232627;fill-opacity:1;stroke-width:0.0350647" />
    <path
       d="m 11.995419,49.227424 h 1.702705 c 0.01307,-0.719773 0.117933,-1.410935 0.304485,-2.029227 h -1.409836 c -0.356544,0.598168 -0.571176,1.290128 -0.597328,2.029227 z"
       id="path107-3"
       style="fill:#232627;fill-opacity:1;stroke-width:0.0350647" />
    <path
       d="m 12.570481,51.526265 h 1.420536 c -0.179568,-0.60869 -0.280102,-1.28684 -0.292978,-1.991996 h -1.702706 c 0.0256,0.72377 0.231894,1.402446 0.575128,1.991996 z"
       id="path109-6"
       style="fill:#232627;fill-opacity:1;stroke-width:0.0350647" />
    <path
       d="m 16.115523,53.647671 v -1.814594 h -1.698566 c 0.08094,0.21491 0.172576,0.418462 0.27558,0.606938 0.391464,0.716648 0.891838,1.13918 1.422999,1.207656 z"
       id="path111-0"
       style="fill:#232627;fill-opacity:1;stroke-width:0.0350647" />
    <rect
       x="15.617556"
       y="55.303246"
       width="1.3333334"
       height="1"
       id="rect14-6"
       style="fill:#232627;fill-opacity:1;stroke-width:0.666667" />
  </g>
  <g
     id="16-16-kdeconnect">
    <rect
       style="fill:#566060;fill-opacity:0;stroke:none"
       id="rect3889"
       width="16"
       height="16"
       x="8.0624752"
       y="73.081215"
       ry="2.9278411e-07" />
    <path
       d="m 19.097171,75.081215 h -5.969382 c -0.420918,0 -0.765314,0.45 -0.765314,0.999999 v 10 c 0,0.550001 0.344396,1.000001 0.765314,1.000001 h 5.969382 c 0.420918,0 0.765304,-0.45 0.765304,-1.000001 v -10 c 0,-0.549999 -0.344386,-0.999999 -0.765304,-0.999999 z m 0.382655,10.999999 c 0,0.274997 -0.172204,0.499997 -0.382655,0.499997 h -5.969382 c -0.210469,0 -0.382656,-0.225 -0.382656,-0.499997 v -10 c 0,-0.275 0.172188,-0.499999 0.382656,-0.499999 h 5.969382 c 0.210451,0 0.382655,0.224999 0.382655,0.499999 z"
       id="path2-3-2"
       style="fill:#232627;fill-opacity:1;stroke-width:0.218704" />
    <path
       d="m 19.323326,81.196141 h -1.277317 c -0.0097,0.528944 -0.08496,1.037556 -0.219742,1.49399 h 1.065699 c 0.257334,-0.442133 0.41215,-0.951163 0.431345,-1.493991 z"
       id="path67-6-6"
       style="fill:#232627;fill-opacity:1;stroke-width:0.0262985" />
    <path
       d="m 18.875198,79.444134 h -1.057699 c 0.139914,0.463618 0.21861,0.98209 0.228367,1.521925 h 1.277317 c -0.01959,-0.554323 -0.180598,-1.073299 -0.447995,-1.521925 z"
       id="path71-7-1"
       style="fill:#232627;fill-opacity:1;stroke-width:0.0262985" />
    <path
       d="m 16.232726,84.281215 c 0.398292,-0.05136 0.773647,-0.36828 1.067141,-0.905742 0.07715,-0.141253 0.145876,-0.293913 0.206691,-0.455203 h -1.273743 z"
       id="path73-5-8"
       style="fill:#232627;fill-opacity:1;stroke-width:0.0262985" />
    <path
       d="m 15.267311,84.174183 c -0.196726,-0.170427 -0.377014,-0.401581 -0.533676,-0.688389 -0.09503,-0.174021 -0.178132,-0.36387 -0.249427,-0.565421 h -0.992769 c 0.423144,0.602496 1.04805,1.053386 1.775857,1.25381 z"
       id="path77-3-7"
       style="fill:#232627;fill-opacity:1;stroke-width:0.0262985" />
    <path
       d="m 18.744495,82.92027 h -0.993083 c -0.07129,0.201556 -0.154299,0.391399 -0.249428,0.565415 -0.156559,0.286814 -0.336935,0.517952 -0.533671,0.688498 0.727832,-0.200424 1.35292,-0.651313 1.776172,-1.253913 z"
       id="path79-5-9"
       style="fill:#232627;fill-opacity:1;stroke-width:0.0262985" />
    <path
       d="m 16.232726,82.690161 h 1.352744 c 0.140839,-0.451599 0.220248,-0.961133 0.230316,-1.493997 h -1.582937 z"
       id="path81-6-2"
       style="fill:#232627;fill-opacity:1;stroke-width:0.0262985" />
    <path
       d="m 16.002617,79.444134 h -1.344196 c -0.146388,0.458383 -0.228782,0.978069 -0.239051,1.521925 h 1.583252 z"
       id="path83-2-0"
       style="fill:#232627;fill-opacity:1;stroke-width:0.0262985" />
    <path
       d="m 16.002617,77.881215 c -0.398376,0.05137 -0.773652,0.368284 -1.06725,0.90567 -0.07263,0.133032 -0.137757,0.276238 -0.195904,0.427037 h 1.263149 z"
       id="path85-9-2"
       style="fill:#232627;fill-opacity:1;stroke-width:0.0262985" />
    <path
       d="m 16.232726,80.96603 h 1.582932 c -0.01019,-0.543851 -0.09256,-1.063537 -0.238941,-1.52192 h -1.343991 z"
       id="path87-1-3"
       style="fill:#232627;fill-opacity:1;stroke-width:0.0262985" />
    <path
       d="m 16.232726,77.881215 v 1.332708 h 1.262932 c -0.05814,-0.15081 -0.12317,-0.294023 -0.195904,-0.427038 -0.293489,-0.537386 -0.668768,-0.854282 -1.067033,-0.90567 z"
       id="path89-2-7"
       style="fill:#232627;fill-opacity:1;stroke-width:0.0262985" />
    <path
       d="m 17.741733,79.214025 h 0.982907 c -0.422725,-0.58843 -1.039709,-1.028325 -1.756135,-1.225564 0.196726,0.170428 0.376911,0.401578 0.533573,0.688178 0.0906,0.166012 0.170525,0.346193 0.239665,0.537386 z"
       id="path91-7-5"
       style="fill:#232627;fill-opacity:1;stroke-width:0.0262985" />
    <path
       d="m 16.002617,81.196141 h -1.583251 c 0.0099,0.532863 0.08948,1.042391 0.230316,1.49399 h 1.35293 z"
       id="path93-0-9"
       style="fill:#232627;fill-opacity:1;stroke-width:0.0262985" />
    <path
       d="m 14.733448,78.676745 c 0.156558,-0.286602 0.336856,-0.517765 0.533568,-0.688074 -0.716313,0.197239 -1.333095,0.637134 -1.755846,1.225567 h 0.982593 c 0.06904,-0.191288 0.148957,-0.371473 0.23967,-0.537493 z"
       id="path99-9-2"
       style="fill:#232627;fill-opacity:1;stroke-width:0.0262985" />
    <path
       d="m 12.912539,80.96603 h 1.277029 c 0.0098,-0.53983 0.08845,-1.058201 0.228364,-1.52192 h -1.057377 c -0.267408,0.448626 -0.428382,0.967596 -0.447996,1.52192 z"
       id="path107-3-2"
       style="fill:#232627;fill-opacity:1;stroke-width:0.0262985" />
    <path
       d="m 13.343836,82.690161 h 1.065402 c -0.134676,-0.456518 -0.210077,-0.96513 -0.219734,-1.493997 h -1.277029 c 0.0192,0.542827 0.17392,1.051834 0.431346,1.493997 z"
       id="path109-6-8"
       style="fill:#232627;fill-opacity:1;stroke-width:0.0262985" />
    <path
       d="M 16.002617,84.281215 V 82.92027 h -1.273924 c 0.0607,0.161182 0.129432,0.313846 0.206685,0.455203 0.293598,0.537486 0.668878,0.854385 1.067249,0.905742 z"
       id="path111-0-9"
       style="fill:#232627;fill-opacity:1;stroke-width:0.0262985" />
    <rect
       x="15.629138"
       y="85.522896"
       width="1"
       height="0.75"
       id="rect14-6-7"
       style="fill:#232627;fill-opacity:1;stroke-width:0.5" />
  </g>
</svg>
