<?xml version="1.0" encoding="UTF-8" standalone="no"?>
<svg
   sodipodi:docname="kdeconnect.svg"
   height="31.999973"
   width="32.000015"
   inkscape:version="1.1.2 (0a00cf5339, 2022-02-04)"
   version="1.1"
   id="svg"
   viewBox="0 0 32.000012 31.999973"
   xmlns:inkscape="http://www.inkscape.org/namespaces/inkscape"
   xmlns:sodipodi="http://sodipodi.sourceforge.net/DTD/sodipodi-0.dtd"
   xmlns="http://www.w3.org/2000/svg"
   xmlns:svg="http://www.w3.org/2000/svg"
   xmlns:rdf="http://www.w3.org/1999/02/22-rdf-syntax-ns#"
   xmlns:cc="http://creativecommons.org/ns#"
   xmlns:dc="http://purl.org/dc/elements/1.1/">
  <g
     id="22-22-kdeconnect">
    <rect
       style="fill:#000000;fill-opacity:0;stroke:none"
       id="rect3841"
       width="22"
       height="22"
       x="4.9619999"
       y="37.981003" />
    <path
       d="m 20.737515,40.981003 h -9.551013 c -0.67347,0 -1.2245021,0.466667 -1.2245021,1.2 v 13.600001 c 0,0.733335 0.5510321,1.2 1.2245021,1.2 h 9.551013 c 0.673465,0 1.224485,-0.466665 1.224485,-1.2 V 42.181003 c 0,-0.733333 -0.55102,-1.2 -1.224485,-1.2 z m 0.224485,14.467 c 0,0.366663 -0.08728,0.533 -0.424,0.533 h -9.151 c -0.33675,0 -0.425,-0.166337 -0.425,-0.533 v -12.934 c 0,-0.366666 0.18725,-0.533 0.524,-0.533 h 9.051506 c 0.336722,0 0.424494,0.166334 0.424494,0.533 z"
       id="path2-36"
       style="fill:#232627;fill-opacity:1;stroke-width:0.319438"
       sodipodi:nodetypes="ssssssssssssssssss" />
    <path
       d="m 19.837,48.124651 h -1.593948 c -0.01201,0.661189 -0.106007,1.296948 -0.274202,1.867498 h 1.329867 c 0.321127,-0.552667 0.514316,-1.188953 0.538263,-1.867498 z"
       id="path67-7"
       style="fill:#232627;fill-opacity:1;stroke-width:0.0328448" />
    <path
       d="m 19.277782,45.934645 h -1.31987 c 0.174583,0.579523 0.272794,1.227616 0.284974,1.902406 h 1.593927 c -0.02444,-0.692893 -0.225357,-1.341613 -0.559042,-1.902406 z"
       id="path71-5"
       style="fill:#232627;fill-opacity:1;stroke-width:0.0328448" />
    <path
       d="m 15.980286,51.981003 c 0.497027,-0.06421 0.965423,-0.460359 1.331666,-1.132185 0.09633,-0.176568 0.18205,-0.367382 0.257933,-0.568996 h -1.589489 z"
       id="path73-3"
       style="fill:#232627;fill-opacity:1;stroke-width:0.0328448" />
    <path
       d="M 14.775559,51.847204 C 14.530079,51.63417 14.305094,51.345235 14.1096,50.986719 13.991018,50.769199 13.887307,50.531888 13.798336,50.279943 H 12.55948 c 0.528041,0.75312 1.307845,1.316739 2.21606,1.567261 z"
       id="path77-5"
       style="fill:#232627;fill-opacity:1;stroke-width:0.0328448" />
    <path
       d="m 19.114692,50.279822 h -1.23925 c -0.08897,0.251938 -0.192561,0.48924 -0.311269,0.706761 -0.195368,0.358526 -0.420448,0.64744 -0.665952,0.860621 0.908248,-0.250522 1.688286,-0.81414 2.216445,-1.567382 z"
       id="path79-6"
       style="fill:#232627;fill-opacity:1;stroke-width:0.0328448" />
    <path
       d="m 15.980286,49.992177 h 1.688067 c 0.175757,-0.564498 0.274846,-1.201409 0.287407,-1.867488 h -1.975313 z"
       id="path81-2"
       style="fill:#232627;fill-opacity:1;stroke-width:0.0328448" />
    <path
       d="m 15.693139,45.934645 h -1.677397 c -0.182683,0.572983 -0.285502,1.222591 -0.298307,1.902406 h 1.975711 z"
       id="path83-9"
       style="fill:#232627;fill-opacity:1;stroke-width:0.0328448" />
    <path
       d="m 15.693139,43.981003 c -0.497136,0.0642 -0.96543,0.460357 -1.331799,1.132088 -0.09064,0.166285 -0.171906,0.345301 -0.244466,0.533792 h 1.576258 z"
       id="path85-1"
       style="fill:#232627;fill-opacity:1;stroke-width:0.0328448" />
    <path
       d="m 15.980286,47.837023 h 1.975318 c -0.01272,-0.679822 -0.115507,-1.329421 -0.298169,-1.902399 h -1.677149 z"
       id="path87-2"
       style="fill:#232627;fill-opacity:1;stroke-width:0.0328448" />
    <path
       d="m 15.980286,43.981003 v 1.66588 h 1.575996 c -0.07255,-0.188506 -0.153709,-0.36752 -0.244465,-0.533792 -0.366236,-0.671731 -0.834546,-1.067853 -1.331538,-1.132088 z"
       id="path89-7"
       style="fill:#232627;fill-opacity:1;stroke-width:0.0328448" />
    <path
       d="m 17.863361,45.647017 h 1.226556 c -0.527521,-0.73554 -1.297437,-1.28541 -2.191457,-1.531957 0.245491,0.213033 0.470341,0.501975 0.665837,0.860223 0.11307,0.207519 0.212798,0.432738 0.299066,0.671734 z"
       id="path91-0"
       style="fill:#232627;fill-opacity:1;stroke-width:0.0328448" />
    <path
       d="m 15.693139,48.124651 h -1.975711 c 0.01241,0.66608 0.111652,1.302997 0.287403,1.867498 h 1.688301 z"
       id="path93-9"
       style="fill:#232627;fill-opacity:1;stroke-width:0.0328448" />
    <path
       d="m 14.10936,44.975417 c 0.195366,-0.358254 0.420364,-0.647208 0.665837,-0.860094 -0.893878,0.246548 -1.66355,0.79642 -2.191098,1.53196 h 1.226162 c 0.08615,-0.239116 0.185889,-0.46434 0.299088,-0.671866 z"
       id="path99-3"
       style="fill:#232627;fill-opacity:1;stroke-width:0.0328448" />
    <path
       d="m 11.83708,47.837023 h 1.593581 c 0.01227,-0.674785 0.110379,-1.322756 0.284974,-1.902399 h -1.319478 c -0.333698,0.560779 -0.534576,1.20949 -0.55905,1.902399 z"
       id="path107-6"
       style="fill:#232627;fill-opacity:1;stroke-width:0.0328448" />
    <path
       d="m 12.375284,49.992177 h 1.329507 C 13.536722,49.42153 13.44264,48.785764 13.430581,48.124689 H 11.837 c 0.02396,0.678526 0.217032,1.314793 0.538275,1.867488 z"
       id="path109-0"
       style="fill:#232627;fill-opacity:1;stroke-width:0.0328448" />
    <path
       d="m 15.693139,51.981003 v -1.701181 h -1.589705 c 0.07575,0.201469 0.161516,0.392307 0.25792,0.568996 0.366369,0.671864 0.83468,1.067981 1.331798,1.132185 z"
       id="path111-6"
       style="fill:#232627;fill-opacity:1;stroke-width:0.0328448" />
    <rect
       x="13.962"
       y="53.981003"
       width="4"
       height="1"
       id="rect14-2"
       style="fill:#232627;fill-opacity:1;stroke-width:1.1547" />
  </g>
  <defs
     id="defs81">
    <style
       type="text/css"
       id="current-color-scheme" />
    <style
       id="current-color-scheme-9"
       type="text/css" />
    <linearGradient
       id="oomox"
       x1="448.98987"
       x2="448.98987"
       y1="94.879333"
       y2="107.52991"
       gradientTransform="matrix(1.1859917,0,0,1.8971464,-523.99826,-176)"
       gradientUnits="userSpaceOnUse">
      <stop
         offset="0%"
         style="stop-color:#303b3d; stop-opacity:1"
         id="stop18" />
      <stop
         offset="100%"
         style="stop-color:#bc985d; stop-opacity:1"
         id="stop20" />
    </linearGradient>
    <linearGradient
       id="oomox-3"
       x1="0"
       x2="0"
       y1="0"
       y2="1">
      <stop
         offset="0%"
         style="stop-color:#303b3d; stop-opacity:1"
         id="stop18-6" />
      <stop
         offset="100%"
         style="stop-color:#bc985d; stop-opacity:1"
         id="stop20-7" />
    </linearGradient>
  </defs>
  <metadata
     id="metadata34">
    <rdf:RDF>
      <cc:Work
         rdf:about="">
        <dc:format>image/svg+xml</dc:format>
        <dc:type
           rdf:resource="http://purl.org/dc/dcmitype/StillImage" />
      </cc:Work>
    </rdf:RDF>
  </metadata>
  <sodipodi:namedview
     inkscape:document-rotation="0"
     fit-margin-bottom="0"
     fit-margin-right="0"
     fit-margin-left="0"
     fit-margin-top="0"
     inkscape:snap-bbox-midpoints="true"
     inkscape:snap-bbox="true"
     inkscape:guide-bbox="true"
     showguides="false"
     borderlayer="false"
     inkscape:current-layer="svg"
     inkscape:window-maximized="1"
     inkscape:window-y="0"
     inkscape:window-x="0"
     inkscape:cy="36.812498"
     inkscape:cx="1.0624999"
     inkscape:zoom="8.0000004"
     showgrid="false"
     id="namedview32"
     inkscape:window-height="1002"
     inkscape:window-width="1920"
     inkscape:pageshadow="2"
     inkscape:pageopacity="0.11372549"
     guidetolerance="10"
     gridtolerance="10"
     objecttolerance="10"
     borderopacity="1"
     bordercolor="#000000"
     pagecolor="#ffffff"
     inkscape:lockguides="true"
     inkscape:showpageshadow="false"
     inkscape:pagecheckerboard="0">
    <inkscape:grid
       type="xygrid"
       id="grid2735"
       originx="4.9619994"
       originy="37.981002" />
  </sodipodi:namedview>
  <g
     id="kdeconnect"
     transform="translate(4.9619999,37.981003)"
     style="fill:#232627;fill-opacity:1">
    <rect
       width="32.000015"
       height="31.999973"
       rx="0"
       ry="0"
       x="-4.9619999"
       y="-37.981003"
       id="rect3860"
       style="opacity:0.01;fill:#232627;fill-opacity:1;stroke:none" />
    <path
       d="M 17.405352,-33.981004 H 4.6706689 c -0.897959,0 -1.632669,0.700001 -1.632669,1.8 v 20.4 c 0,1.100002 0.73471,1.7999997 1.632669,1.7999997 H 17.405352 c 0.897957,0 1.632648,-0.6999977 1.632648,-1.7999997 v -20.4 c 0,-1.099999 -0.734691,-1.8 -1.632648,-1.8 z M 18.038,-11.981006 c 0,0.549994 -0.183686,0.999994 -0.632648,0.999994 H 4.6706689 c -0.448999,0 -0.632669,-0.45 -0.632669,-0.999994 v -19.999999 c 0,-0.549999 0.18367,-0.999999 0.632669,-0.999999 H 17.405352 c 0.448962,0 0.632648,0.45 0.632648,0.999999 z"
       id="path2"
       style="fill:#232627;fill-opacity:1;stroke-width:0.451752"
       sodipodi:nodetypes="ssssssssssssssssss" />
    <path
       d="m 16.538,-23.283481 h -2.191678 c -0.01657,0.909132 -0.14577,1.783302 -0.377036,2.567807 h 1.828576 c 0.441543,-0.759921 0.707183,-1.63481 0.740108,-2.567807 z"
       id="path67"
       style="fill:#232627;fill-opacity:1;stroke-width:0.0451618" />
    <path
       d="m 15.769081,-26.294744 h -1.814835 c 0.24006,0.796843 0.375099,1.68797 0.391839,2.615811 h 2.191665 c -0.0336,-0.952731 -0.309878,-1.844721 -0.768689,-2.615811 z"
       id="path71"
       style="fill:#232627;fill-opacity:1;stroke-width:0.0451618" />
    <path
       d="m 11.235024,-17.981004 c 0.683402,-0.08831 1.327451,-0.632988 1.831042,-1.556748 0.132385,-0.242781 0.250308,-0.505152 0.35465,-0.782372 h -2.185541 z"
       id="path73"
       style="fill:#232627;fill-opacity:1;stroke-width:0.0451618" />
    <path
       d="m 9.5785239,-18.164972 c -0.337544,-0.29292 -0.646893,-0.690212 -0.915699,-1.183167 -0.16305,-0.29909 -0.305653,-0.625396 -0.427987,-0.971816 h -1.703428 c 0.726055,1.035542 1.798287,1.81051 3.047084,2.154982 z"
       id="path77"
       style="fill:#232627;fill-opacity:1;stroke-width:0.0451618" />
    <path
       d="m 15.544819,-20.320125 h -1.703966 c -0.122324,0.346416 -0.264767,0.67271 -0.427991,0.971801 -0.268632,0.492969 -0.578122,0.890231 -0.915686,1.183352 1.248846,-0.344472 2.321388,-1.11944 3.047623,-2.155153 z"
       id="path79"
       style="fill:#232627;fill-opacity:1;stroke-width:0.0451618" />
    <path
       d="m 11.235024,-20.715633 h 2.321091 c 0.241655,-0.776186 0.37791,-1.651942 0.39518,-2.567802 h -2.716061 z"
       id="path81"
       style="fill:#232627;fill-opacity:1;stroke-width:0.0451618" />
    <path
       d="M 10.840187,-26.294744 H 8.5337689 c -0.251187,0.78785 -0.392564,1.681061 -0.41017,2.615811 h 2.7165981 z"
       id="path83"
       style="fill:#232627;fill-opacity:1;stroke-width:0.0451618" />
    <path
       d="m 10.840187,-28.981004 c -0.683551,0.08828 -1.3274611,0.63299 -1.8312231,1.556621 -0.12462,0.228642 -0.236366,0.474789 -0.336137,0.733964 h 2.1673501 z"
       id="path85"
       style="fill:#232627;fill-opacity:1;stroke-width:0.0451618" />
    <path
       d="m 11.235024,-23.678974 h 2.716051 c -0.01747,-0.934755 -0.158814,-1.827955 -0.40997,-2.6158 h -2.306081 z"
       id="path87"
       style="fill:#232627;fill-opacity:1;stroke-width:0.0451618" />
    <path
       d="m 11.235024,-28.981004 v 2.290585 h 2.166989 c -0.09976,-0.259195 -0.211345,-0.50534 -0.336137,-0.733964 -0.50358,-0.923631 -1.147496,-1.468298 -1.830862,-1.556621 z"
       id="path89"
       style="fill:#232627;fill-opacity:1;stroke-width:0.0451618" />
    <path
       d="m 13.824245,-26.690234 h 1.686512 c -0.725332,-1.011368 -1.783975,-1.76744 -3.013251,-2.106441 0.337544,0.29292 0.646719,0.690214 0.915525,1.182806 0.155464,0.28534 0.292593,0.595015 0.411217,0.923635 z"
       id="path91"
       style="fill:#232627;fill-opacity:1;stroke-width:0.0451618" />
    <path
       d="M 10.840187,-23.283481 H 8.1235899 c 0.01706,0.915858 0.153522,1.791616 0.395178,2.567807 h 2.3214091 z"
       id="path93"
       style="fill:#232627;fill-opacity:1;stroke-width:0.0451618" />
    <path
       d="m 8.6624949,-27.613684 c 0.268627,-0.4926 0.577996,-0.889912 0.915529,-1.18263 -1.229086,0.339003 -2.287385,1.095078 -3.012763,2.106445 h 1.685973 c 0.118453,-0.328785 0.255597,-0.638467 0.411246,-0.923815 z"
       id="path99"
       style="fill:#232627;fill-opacity:1;stroke-width:0.0451618" />
    <path
       d="m 5.5381099,-23.678974 h 2.191175 c 0.01687,-0.92783 0.15177,-1.81879 0.391839,-2.6158 h -1.814284 c -0.458833,0.771071 -0.73504,1.66305 -0.768693,2.6158 z"
       id="path107"
       style="fill:#232627;fill-opacity:1;stroke-width:0.0451618" />
    <path
       d="m 6.2781389,-20.715633 h 1.828074 c -0.231096,-0.78464 -0.360458,-1.65882 -0.377038,-2.567802 h -2.191175 c 0.03294,0.93298 0.298419,1.80784 0.740127,2.567802 z"
       id="path109"
       style="fill:#232627;fill-opacity:1;stroke-width:0.0451618" />
    <path
       d="m 10.840187,-17.981004 v -2.33912 H 8.6543469 c 0.104159,0.277022 0.222084,0.53942 0.354638,0.782372 0.503762,0.923808 1.1476811,1.468473 1.8312221,1.556748 z"
       id="path111"
       style="fill:#232627;fill-opacity:1;stroke-width:0.0451618" />
    <rect
       x="9.0380001"
       y="-13.981005"
       width="4"
       height="2"
       id="rect14"
       style="fill:#232627;fill-opacity:1;stroke-width:1.63301" />
  </g>
</svg>
