<?xml version="1.0" encoding="UTF-8" standalone="no"?>
<svg
   width="32"
   height="32"
   version="1.1"
   id="svg12"
   sodipodi:docname="kgpg.svg"
   inkscape:version="1.1.1 (3bf5ae0d25, 2021-09-20)"
   xmlns:inkscape="http://www.inkscape.org/namespaces/inkscape"
   xmlns:sodipodi="http://sodipodi.sourceforge.net/DTD/sodipodi-0.dtd"
   xmlns="http://www.w3.org/2000/svg"
   xmlns:svg="http://www.w3.org/2000/svg"
   xmlns:rdf="http://www.w3.org/1999/02/22-rdf-syntax-ns#"
   xmlns:cc="http://creativecommons.org/ns#"
   xmlns:dc="http://purl.org/dc/elements/1.1/">
  <g
     id="22-22-kgpg"
     transform="translate(32,10.000001)"
     style="fill:#232627;fill-opacity:1">
    <rect
       style="opacity:0.00100002;fill:#232627;fill-opacity:1"
       width="22"
       height="22"
       x="0"
       y="0"
       id="rect2" />
    <path
       d="M 11.006534,3 C 8.653551,3 6.739252,4.914299 6.739252,7.267282 V 9.946023 H 5.577083 C 5.203741,9.946023 4.9,10.249763 4.9,10.623106 v 7.699811 C 4.9,18.696259 5.203741,19 5.577083,19 h 10.858902 c 0.373342,0 0.677083,-0.303741 0.677083,-0.677083 v -7.699811 c 0,-0.373343 -0.303741,-0.677083 -0.677083,-0.677083 H 15.273816 V 7.267282 C 15.273816,4.914299 13.359517,3 11.006534,3 Z M 7.2241,7.267282 c 0,-2.085701 1.696733,-3.782433 3.782434,-3.782433 2.085701,0 3.782434,1.696732 3.782434,3.782433 V 9.946023 H 7.2241 Z m 9.404119,3.355824 v 7.699811 c 0,0.10606 -0.08617,0.192234 -0.192234,0.192234 H 5.577083 c -0.10606,0 -0.192234,-0.08617 -0.192234,-0.192234 v -7.699811 c 0,-0.106061 0.08617,-0.192235 0.192234,-0.192235 h 1.404593 8.049716 1.404593 c 0.10606,0 0.192234,0.08617 0.192234,0.192235 z"
       id="path2-36"
       style="fill:#232627;fill-opacity:1;stroke-width:0.242424" />
    <path
       d="m 11.006534,12.364347 c -0.829782,0 -1.504971,0.675189 -1.504971,1.505208 0,0.464488 0.212831,0.89678 0.575284,1.181344 v 1.288353 c 0,0.133996 0.108428,0.242424 0.242424,0.242424 h 1.37429 c 0.133996,0 0.242424,-0.108428 0.242424,-0.242424 v -1.288115 c 0.362689,-0.284802 0.57552,-0.71733 0.57552,-1.181582 0,-0.830019 -0.675189,-1.505208 -1.504971,-1.505208 z m 0.554687,2.359374 c -0.06866,0.04475 -0.110085,0.121213 -0.110085,0.203126 v 1.16998 H 10.561695 V 14.92661 c 0,-0.08191 -0.04143,-0.158381 -0.110085,-0.203125 -0.29143,-0.189631 -0.465199,-0.50876 -0.465199,-0.85393 0,-0.562737 0.457623,-1.02036 1.020123,-1.02036 0.5625,0 1.020123,0.457623 1.020123,1.02036 0,0.344934 -0.174006,0.664299 -0.465436,0.854166 z"
       id="path4-7"
       style="fill:#232627;fill-opacity:1;stroke-width:0.242424" />
  </g>
  <metadata
     id="metadata18">
    <rdf:RDF>
      <cc:Work
         rdf:about="">
        <dc:format>image/svg+xml</dc:format>
        <dc:type
           rdf:resource="http://purl.org/dc/dcmitype/StillImage" />
      </cc:Work>
    </rdf:RDF>
  </metadata>
  <defs
     id="defs16">
    <linearGradient
       id="oomox"
       x1="2.8236918"
       x2="2.8236918"
       y1="0"
       y2="13.423561"
       gradientTransform="matrix(1.2584592,0,0,1.7879013,3.9965,3.9999533)"
       gradientUnits="userSpaceOnUse">
      <stop
         offset="0%"
         style="stop-color:#303b3d; stop-opacity:1"
         id="stop18" />
      <stop
         offset="100%"
         style="stop-color:#bc985d; stop-opacity:1"
         id="stop20" />
    </linearGradient>
  </defs>
  <sodipodi:namedview
     pagecolor="#ffffff"
     bordercolor="#000000"
     borderopacity="1"
     objecttolerance="10"
     gridtolerance="10"
     guidetolerance="10"
     inkscape:pageopacity="0"
     inkscape:pageshadow="2"
     inkscape:window-width="1920"
     inkscape:window-height="1006"
     id="namedview14"
     showgrid="false"
     inkscape:zoom="6.9384856"
     inkscape:cx="30.842465"
     inkscape:cy="28.536486"
     inkscape:window-x="0"
     inkscape:window-y="0"
     inkscape:window-maximized="1"
     inkscape:current-layer="svg12"
     inkscape:document-rotation="0"
     inkscape:lockguides="true"
     inkscape:showpageshadow="false"
     inkscape:pagecheckerboard="0">
    <inkscape:grid
       type="xygrid"
       id="grid871"
       originx="-1e-06"
       originy="0" />
  </sodipodi:namedview>
  <g
     id="kgpg"
     style="fill:#232627;fill-opacity:1">
    <rect
       style="opacity:0.00100002;fill:#232627;fill-opacity:1"
       width="32"
       height="32"
       x="0"
       y="0"
       id="rect7" />
    <path
       d="M 16.009801,4 C 12.480327,4 9.608878,6.8714489 9.608878,10.400923 v 4.018111 H 7.865625 C 7.305611,14.419034 6.85,14.874645 6.85,15.434659 V 26.984375 C 6.85,27.544389 7.305611,28 7.865625,28 h 16.288352 c 0.560014,0 1.015625,-0.455611 1.015625,-1.015625 V 15.434659 c 0,-0.560014 -0.455611,-1.015625 -1.015625,-1.015625 H 22.410724 V 10.400923 C 22.410724,6.8714489 19.539275,4 16.009801,4 Z m -5.673651,6.400923 c 0,-3.1285509 2.5451,-5.6736503 5.673651,-5.6736503 3.128551,0 5.673651,2.5450994 5.673651,5.6736503 v 4.018111 H 10.33615 Z m 14.106179,5.033736 v 11.549716 c 0,0.159091 -0.129261,0.288352 -0.288352,0.288352 H 7.865625 c -0.159091,0 -0.288352,-0.129261 -0.288352,-0.288352 V 15.434659 c 0,-0.159091 0.129261,-0.288352 0.288352,-0.288352 h 2.106889 12.074574 2.106889 c 0.159091,0 0.288352,0.129261 0.288352,0.288352 z"
       id="path2"
       style="fill:#232627;fill-opacity:1;stroke-width:0.363636" />
    <path
       d="m 16.009801,18.04652 c -1.244673,0 -2.257457,1.012784 -2.257457,2.257812 0,0.696733 0.319247,1.345171 0.862926,1.772017 v 1.932529 c 0,0.200994 0.162642,0.363636 0.363636,0.363636 h 2.061435 c 0.200994,0 0.363636,-0.162642 0.363636,-0.363636 v -1.932173 c 0.544034,-0.427202 0.863281,-1.075995 0.863281,-1.772373 0,-1.245028 -1.012784,-2.257812 -2.257457,-2.257812 z m 0.832031,3.539062 c -0.102983,0.06712 -0.165128,0.181819 -0.165128,0.304688 v 1.754971 h -1.334162 v -1.755326 c 0,-0.12287 -0.06214,-0.237571 -0.165127,-0.304688 -0.437145,-0.284446 -0.697799,-0.763139 -0.697799,-1.280895 0,-0.844105 0.686435,-1.530539 1.530185,-1.530539 0.84375,0 1.530185,0.686434 1.530185,1.530539 0,0.517401 -0.261009,0.996449 -0.698154,1.28125 z"
       id="path4"
       style="fill:#232627;fill-opacity:1;stroke-width:0.363636" />
  </g>
</svg>
