<?xml version="1.0" encoding="UTF-8" standalone="no"?>
<svg
   id="svg4153"
   version="1.1"
   inkscape:version="1.1.2 (0a00cf5339, 2022-02-04)"
   width="32.000004"
   height="32"
   sodipodi:docname="klipper.svg"
   viewBox="0 0 32.000004 32"
   xmlns:inkscape="http://www.inkscape.org/namespaces/inkscape"
   xmlns:sodipodi="http://sodipodi.sourceforge.net/DTD/sodipodi-0.dtd"
   xmlns="http://www.w3.org/2000/svg"
   xmlns:svg="http://www.w3.org/2000/svg"
   xmlns:rdf="http://www.w3.org/1999/02/22-rdf-syntax-ns#"
   xmlns:cc="http://creativecommons.org/ns#"
   xmlns:dc="http://purl.org/dc/elements/1.1/">
  <g
     id="22-22-klipper"
     transform="translate(31.999853,10)">
    <rect
       style="fill:none;fill-opacity:1;stroke:none;stroke-width:0.1;stroke-linecap:square;stroke-linejoin:miter;stroke-miterlimit:4;stroke-dasharray:none;stroke-dashoffset:0;stroke-opacity:1"
       id="rect4148"
       width="22"
       height="22"
       x="1.3415527e-07"
       y="0" />
    <path
       d="m 6.188542,9.992138 h 4.223503 c 0.08555,0 0.154915,-0.132566 0.154915,-0.296069 C 10.56696,9.532566 10.4976,9.4 10.412045,9.4 H 6.188542 c -0.08554,0 -0.154899,0.132566 -0.154899,0.296069 0,0.163503 0.06935,0.296069 0.154899,0.296069 z"
       id="path4-3-3"
       style="fill:#232627;fill-opacity:1;stroke-width:0.214157" />
    <path
       d="m 6.157134,6.992138 h 2.953002 c 0.06817,0 0.123491,-0.132566 0.123491,-0.296069 C 9.233627,6.532566 9.178377,6.4 9.110136,6.4 H 6.157134 c -0.06827,0 -0.123491,0.132566 -0.123491,0.296069 0,0.163503 0.05525,0.296069 0.123491,0.296069 z"
       id="path6-6-6"
       style="fill:#232627;fill-opacity:1;stroke-width:0.191213" />
    <path
       d="m 6.280731,12.992138 h 5.372475 c 0.136458,0 0.247087,-0.132566 0.247087,-0.296069 C 11.900293,12.532566 11.789665,12.4 11.653206,12.4 H 6.280731 c -0.136458,0 -0.247088,0.132566 -0.247088,0.296069 0,0.163503 0.110628,0.296069 0.247088,0.296069 z"
       id="path8-7"
       style="fill:#232627;fill-opacity:1;stroke-width:0.270472" />
    <path
       d="M 13.00429,15.4 H 6.261987 c -0.126642,0 -0.22932,0.132567 -0.22932,0.296069 0,0.163503 0.102678,0.296069 0.22932,0.296069 h 6.742303 c 0.126641,0 0.229337,-0.132566 0.229337,-0.296069 C 13.233627,15.532567 13.130931,15.4 13.00429,15.4 Z"
       id="path10-7-5"
       style="fill:#232627;fill-opacity:1;stroke-width:0.260569" />
    <path
       d="M 14.500214,6 C 13.67306,6 13.000147,6.5663279 13.000147,7.2623781 v 1.0356525 0.8101454 5.354777 c 0,0.02413 0.006,0.04677 0.01764,0.06744 3.9e-4,7.58e-4 2.11e-4,0.0016 6.5e-4,0.0024 l 1.302032,2.37046 c 0.03237,0.059 0.102599,0.09675 0.179754,0.09675 0.07717,0 0.147373,-0.03775 0.179756,-0.09676 l 0.669402,-1.218777 c 5.37e-4,-8.95e-4 0.0012,-0.0015 0.0019,-0.0024 4.37e-4,-7.56e-4 2.8e-4,-0.0015 6.89e-4,-0.0023 l 0.629885,-1.146819 c 4.35e-4,-7.56e-4 2.3e-4,-0.0016 6.52e-4,-0.0024 0.01104,-0.0207 0.01764,-0.04331 0.01764,-0.06744 V 9.1081864 8.2980409 7.2623885 c 0,-0.6960503 -0.672916,-1.2623792 -1.499971,-1.2623792 z m 1.103892,8.296285 H 14.69825 V 9.2748438 h 0.905856 z m -0.533505,1.101387 c -0.366561,-0.102564 -0.77791,-0.101945 -1.140784,8.1e-5 l -0.42193,-0.768132 h 1.984578 z M 13.396218,14.296285 V 9.2748438 h 0.90596 V 14.296285 Z M 15.604106,8.9415082 H 13.396218 V 8.4646984 h 2.207888 z m -1.103892,7.4946848 -0.402336,-0.732468 c 0.257529,-0.06478 0.543949,-0.06514 0.804615,4.1e-5 z M 15.604106,8.1313628 H 13.396218 V 7.2623781 c 0,-0.5122917 0.495281,-0.9290426 1.103996,-0.9290426 0.608713,0 1.103892,0.4167509 1.103892,0.9290426 z"
       id="path12-5-3"
       style="fill:#232627;fill-opacity:1;stroke-width:0.181676" />
    <path
       d="M 16.870072,3 H 5.196614 C 4.373485,3 3.7,3.6 3.7,4.333332 V 17.666665 C 3.7,18.4 4.373485,19 5.196614,19 h 11.673458 c 0.82313,0 1.496595,-0.6 1.496595,-1.333335 V 4.333332 C 18.366667,3.6 17.693202,3 16.870072,3 Z m 0.748304,14.666665 c 0,0.366663 -0.336755,0.666663 -0.748304,0.666663 H 5.196614 c -0.411582,0 -0.748305,-0.3 -0.748305,-0.666663 V 4.333332 c 0,-0.366665 0.336723,-0.666665 0.748305,-0.666665 h 11.673458 c 0.411549,0 0.748304,0.3 0.748304,0.666665 z"
       id="path2-3-5"
       style="fill:#232627;fill-opacity:1;stroke-width:0.353151" />
  </g>
  <metadata
     id="metadata4159">
    <rdf:RDF>
      <cc:Work
         rdf:about="">
        <dc:format>image/svg+xml</dc:format>
        <dc:type
           rdf:resource="http://purl.org/dc/dcmitype/StillImage" />
      </cc:Work>
    </rdf:RDF>
  </metadata>
  <defs
     id="defs4157">
    <style
       type="text/css"
       id="current-color-scheme" />
    <linearGradient
       id="oomox"
       x1="33"
       x2="33"
       y1="81"
       y2="95"
       gradientUnits="userSpaceOnUse">
      <stop
         offset="0%"
         style="stop-color:#303b3d; stop-opacity:1"
         id="stop18" />
      <stop
         offset="100%"
         style="stop-color:#bc985d; stop-opacity:1"
         id="stop20" />
    </linearGradient>
  </defs>
  <sodipodi:namedview
     pagecolor="#ffffff"
     bordercolor="#000000"
     borderopacity="1"
     objecttolerance="10"
     gridtolerance="10000"
     guidetolerance="10"
     inkscape:pageopacity="0"
     inkscape:pageshadow="2"
     inkscape:window-width="1920"
     inkscape:window-height="1013"
     id="namedview4155"
     inkscape:document-units="px"
     showgrid="false"
     inkscape:showpageshadow="false"
     borderlayer="false"
     inkscape:zoom="11.313709"
     inkscape:cx="37.388269"
     inkscape:cy="17.36831"
     inkscape:window-x="0"
     inkscape:window-y="0"
     inkscape:window-maximized="1"
     inkscape:current-layer="svg4153"
     fit-margin-top="0"
     fit-margin-left="0"
     fit-margin-right="0"
     fit-margin-bottom="0"
     inkscape:snap-bbox="true"
     inkscape:bbox-nodes="true"
     inkscape:document-rotation="0"
     showguides="false"
     inkscape:lockguides="true"
     inkscape:pagecheckerboard="0">
    <inkscape:grid
       type="xygrid"
       id="grid4140"
       originx="0"
       originy="0" />
    <sodipodi:guide
       position="2.0000001,29.999999"
       orientation="28,0"
       id="guide4186"
       inkscape:locked="true" />
    <sodipodi:guide
       position="2.0000001,1.999999"
       orientation="0,28.000004"
       id="guide4188"
       inkscape:locked="true" />
    <sodipodi:guide
       position="30.000004,1.999999"
       orientation="-28,0"
       id="guide4190"
       inkscape:locked="true" />
    <sodipodi:guide
       position="30.000004,29.999999"
       orientation="0,-28.000004"
       id="guide4192"
       inkscape:locked="true" />
    <sodipodi:guide
       position="1.3415527e-07,31.999999"
       orientation="32,0"
       id="guide4194"
       inkscape:locked="true" />
    <sodipodi:guide
       position="1.3415527e-07,-1e-06"
       orientation="0,32.000004"
       id="guide4196"
       inkscape:locked="true" />
    <sodipodi:guide
       position="32.000004,-1e-06"
       orientation="-32,0"
       id="guide4198"
       inkscape:locked="true" />
    <sodipodi:guide
       position="32.000004,31.999999"
       orientation="0,-32.000004"
       id="guide4200"
       inkscape:locked="true" />
  </sodipodi:namedview>
  <inkscape:clipboard
     style="opacity:0.01000001;fill:#00000f;fill-opacity:0;stroke-width:1;stroke-linecap:butt;stroke-linejoin:miter;stroke-miterlimit:4;stroke-dasharray:none;stroke-dashoffset:0;stroke-opacity:1;stroke:none"
     min="0,0"
     max="22,22" />
  <g
     id="klipper">
    <rect
       y="0"
       x="0"
       height="32"
       width="32.000004"
       id="rect4230"
       style="fill:none;fill-opacity:1;stroke:none" />
    <path
       d="m 8.732814,14 h 6.335278 c 0.128319,0 0.232373,-0.223877 0.232373,-0.500001 C 15.300465,13.223877 15.196422,13 15.068092,13 H 8.732814 C 8.6044985,13 8.5004651,13.223877 8.5004651,13.499999 8.5004651,13.776123 8.6044915,14 8.732814,14 Z"
       id="path4-3"
       style="fill:#232627;fill-opacity:1;stroke-width:0.340854" />
    <path
       d="M 8.6857011,10 H 13.115204 C 13.217455,10 13.30044,9.7761232 13.30044,9.5000006 13.30044,9.2238768 13.21757,9 13.115204,9 H 8.6857011 C 8.5832891,9 8.5004651,9.2238768 8.5004651,9.5000006 8.5004651,9.7761232 8.5833351,10 8.6857011,10 Z"
       id="path6-6"
       style="fill:#232627;fill-opacity:1;stroke-width:0.304336" />
    <path
       d="M 8.8710951,18 H 16.929809 C 17.134496,18 17.30044,17.776123 17.30044,17.500001 17.30044,17.223877 17.134497,17 16.929809,17 H 8.8710951 c -0.204686,0 -0.37063,0.223877 -0.37063,0.500001 0,0.276122 0.165941,0.499999 0.37063,0.499999 z"
       id="path8"
       style="fill:#232627;fill-opacity:1;stroke-width:0.430484" />
    <path
       d="M 18.955041,22 H 8.8429342 C 8.6529976,22 8.4990001,22.223878 8.4990001,22.500001 8.4990001,22.776123 8.6529976,23 8.8429342,23 H 18.955041 C 19.144978,23 19.299,22.776123 19.299,22.500001 19.299,22.223878 19.144978,22 18.955041,22 Z"
       id="path10-7"
       style="fill:#232627;fill-opacity:1;stroke-width:0.414695" />
    <path
       d="M 22.053027,8 C 20.920964,8 20,8.823112 20,9.834765 v 1.505236 1.177481 7.782731 c 0,0.03507 0.0082,0.06795 0.02414,0.09802 5.35e-4,0.0011 2.9e-4,0.0024 8.93e-4,0.0036 l 1.781989,3.445272 c 0.04429,0.08575 0.140409,0.140635 0.246018,0.140635 0.105612,0 0.201694,-0.05488 0.246017,-0.140635 l 0.916157,-1.771395 c 7.36e-4,-0.0013 0.0018,-0.0023 0.0024,-0.0036 5.95e-4,-0.0011 3.8e-4,-0.0023 9.43e-4,-0.0034 l 0.862072,-1.666807 c 5.95e-4,-0.0011 3.16e-4,-0.0024 8.95e-4,-0.0036 0.01505,-0.03007 0.02414,-0.06295 0.02414,-0.09802 V 12.517546 11.340065 9.834829 c 0,-1.011653 -0.920969,-1.834765 -2.052892,-1.834765 z m 1.510811,12.057975 H 22.324064 V 12.75972 h 1.239774 z m -0.730167,1.600777 c -0.501684,-0.149063 -1.064667,-0.148176 -1.561303,1.18e-4 l -0.577463,-1.116419 h 2.716139 z M 20.542074,20.057975 V 12.75972 h 1.239915 v 7.298255 z m 3.021764,-7.782731 h -3.021764 v -0.693005 h 3.021764 z m -1.510811,10.892913 -0.550646,-1.064582 c 0.352459,-0.09415 0.744461,-0.09468 1.101215,5.9e-5 z M 23.563838,11.097763 H 20.542074 V 9.834765 c 0,-0.744575 0.677852,-1.350289 1.510953,-1.350289 0.833099,0 1.510811,0.605714 1.510811,1.350289 z"
       id="path12-5"
       style="fill:#232627;fill-opacity:1;stroke-width:0.256235" />
    <path
       d="M 24.755108,4.000002 H 7.2449211 c -1.234694,0 -2.244921,0.9 -2.244921,1.999998 v 19.999999 c 0,1.100003 1.010227,2.000003 2.244921,2.000003 H 24.755108 c 1.234695,0 2.244892,-0.9 2.244892,-2.000003 V 6 C 27,4.900002 25.989803,4.000002 24.755108,4.000002 Z m 1.122456,21.999997 c 0,0.549995 -0.505133,0.999995 -1.122456,0.999995 H 7.2449211 c -0.617373,0 -1.122457,-0.45 -1.122457,-0.999995 V 6 c 0,-0.549998 0.505084,-0.999998 1.122457,-0.999998 H 24.755108 c 0.617323,0 1.122456,0.45 1.122456,0.999998 z"
       id="path2-3"
       style="fill:#232627;fill-opacity:1;stroke-width:0.529727" />
  </g>
</svg>
