<?xml version="1.0" encoding="UTF-8" standalone="no"?>
<svg
   width="32"
   height="32"
   version="1.1"
   id="svg12"
   sodipodi:docname="kruler.svg"
   inkscape:version="1.1.1 (3bf5ae0d25, 2021-09-20)"
   xmlns:inkscape="http://www.inkscape.org/namespaces/inkscape"
   xmlns:sodipodi="http://sodipodi.sourceforge.net/DTD/sodipodi-0.dtd"
   xmlns="http://www.w3.org/2000/svg"
   xmlns:svg="http://www.w3.org/2000/svg"
   xmlns:rdf="http://www.w3.org/1999/02/22-rdf-syntax-ns#"
   xmlns:cc="http://creativecommons.org/ns#"
   xmlns:dc="http://purl.org/dc/elements/1.1/">
  <metadata
     id="metadata18">
    <rdf:RDF>
      <cc:Work
         rdf:about="">
        <dc:format>image/svg+xml</dc:format>
        <dc:type
           rdf:resource="http://purl.org/dc/dcmitype/StillImage" />
      </cc:Work>
    </rdf:RDF>
  </metadata>
  <defs
     id="defs16" />
  <sodipodi:namedview
     pagecolor="#ffffff"
     bordercolor="#666666"
     borderopacity="1"
     objecttolerance="10"
     gridtolerance="10"
     guidetolerance="10"
     inkscape:pageopacity="0"
     inkscape:pageshadow="2"
     inkscape:window-width="1920"
     inkscape:window-height="1006"
     id="namedview14"
     showgrid="false"
     inkscape:zoom="9.8125"
     inkscape:cx="23.643312"
     inkscape:cy="5.4012739"
     inkscape:window-x="0"
     inkscape:window-y="0"
     inkscape:window-maximized="1"
     inkscape:current-layer="svg12"
     inkscape:document-rotation="0"
     inkscape:pagecheckerboard="0">
    <inkscape:grid
       type="xygrid"
       id="grid843"
       originx="-1e-06"
       originy="-4.6325683e-08" />
  </sodipodi:namedview>
  <g
     id="g890"
     style="fill:#232627;fill-opacity:1">
    <rect
       style="opacity:0.00100002;fill:#232627;fill-opacity:1"
       width="32"
       height="32"
       x="0"
       y="0"
       id="rect7" />
    <path
       d="M 31.5,24.005891 V 7.9941088 A 0.78813559,0.99410898 0 0 0 30.711864,6.9999998 H 1.288135 A 0.78813559,0.99410898 0 0 0 0.499999,7.9941088 V 24.005891 A 0.78813559,0.99410898 0 0 0 1.288135,25 H 30.711864 A 0.78813559,0.99410898 0 0 0 31.5,24.005891 Z M 2.07627,19.187776 V 8.9882178 h 1.665594 v 4.7253312 a 0.78813559,0.99410898 0 0 0 1.576271,0 V 8.9882178 h 1.702373 v 2.0346092 a 0.78813559,0.99410898 0 0 0 1.576271,0 V 8.9882178 h 1.697119 v 4.7253312 a 0.78813559,0.99410898 0 0 0 1.576271,0 V 8.9882178 h 1.702373 v 2.0346092 a 0.78813559,0.99410898 0 1 0 1.576271,0 V 8.9882178 h 1.702373 v 4.7253312 a 0.78813559,0.99410898 0 0 0 1.576271,0 V 8.9882178 h 1.702373 v 2.0346092 a 0.78813559,0.99410898 0 0 0 1.576271,0 V 8.9882178 h 1.697119 v 4.7253312 a 0.7881356,0.99410899 0 0 0 1.576271,0 V 8.9882178 h 1.702373 v 2.0346092 a 0.7881356,0.99410899 0 0 0 1.576271,0 V 8.9882178 h 1.665593 V 19.187776 Z"
       id="path2"
       style="fill:#232627;fill-opacity:1;stroke-width:0.590101" />
  </g>
  <g
     id="g895"
     style="fill:#232627;fill-opacity:1">
    <rect
       style="opacity:0.00100002;fill:#232627;fill-opacity:1"
       width="22"
       height="22"
       x="32"
       y="10.000001"
       id="rect2" />
    <path
       d="M 53.8,26.509651 V 15.390353 A 0.54661033,0.69035346 0 0 0 53.253398,14.700001 H 32.846606 A 0.54661033,0.69035346 0 0 0 32.3,15.390353 v 11.119298 a 0.54661033,0.69035346 0 0 0 0.546606,0.69035 H 53.253398 A 0.54661033,0.69035346 0 0 0 53.8,26.509651 Z M 33.393223,23.163732 v -7.083026 h 1.15517 v 3.281483 a 0.546612,0.69035567 0 0 0 1.093224,0 v -3.281483 h 1.180674 v 1.412927 a 0.54661133,0.69035476 0 0 0 1.093222,0 v -1.412927 h 1.177024 v 3.281483 a 0.54661175,0.69035535 0 0 0 1.093223,0 v -3.281483 h 1.180684 v 1.412927 a 0.54661117,0.69035454 0 1 0 1.093221,0 v -1.412927 h 1.180676 v 3.281483 a 0.54661133,0.69035476 0 0 0 1.093221,0 v -3.281483 h 1.180674 v 1.412927 a 0.54661167,0.69035522 0 0 0 1.093223,0 v -1.412927 h 1.177037 v 3.281483 a 0.54661191,0.69035558 0 0 0 1.093223,0 v -3.281483 h 1.180673 v 1.412927 a 0.54661071,0.69035404 0 0 0 1.093221,0 v -1.412927 h 1.15517 v 7.083026 z"
       id="path2-3"
       style="fill:#232627;fill-opacity:1;stroke-width:0.409527" />
  </g>
</svg>
