<?xml version="1.0" encoding="UTF-8" standalone="no"?>
<svg
   width="32"
   height="32"
   version="1.1"
   id="svg12"
   sodipodi:docname="ktorrent.svg"
   inkscape:version="1.1.1 (3bf5ae0d25, 2021-09-20)"
   xmlns:inkscape="http://www.inkscape.org/namespaces/inkscape"
   xmlns:sodipodi="http://sodipodi.sourceforge.net/DTD/sodipodi-0.dtd"
   xmlns:xlink="http://www.w3.org/1999/xlink"
   xmlns="http://www.w3.org/2000/svg"
   xmlns:svg="http://www.w3.org/2000/svg"
   xmlns:rdf="http://www.w3.org/1999/02/22-rdf-syntax-ns#"
   xmlns:cc="http://creativecommons.org/ns#"
   xmlns:dc="http://purl.org/dc/elements/1.1/">
  <metadata
     id="metadata18">
    <rdf:RDF>
      <cc:Work
         rdf:about="">
        <dc:format>image/svg+xml</dc:format>
        <dc:type
           rdf:resource="http://purl.org/dc/dcmitype/StillImage" />
      </cc:Work>
    </rdf:RDF>
  </metadata>
  <defs
     id="defs16">
    <linearGradient
       id="linearGradient1214"
       x1="0"
       x2="0"
       y1="0"
       y2="1">
      <stop
         offset="0%"
         style="stop-color:#489ab1;stop-opacity:1"
         id="stop1210" />
      <stop
         offset="100%"
         style="stop-color:#00ffff;stop-opacity:0"
         id="stop1212" />
    </linearGradient>
    <linearGradient
       id="linearGradient861"
       x1="0"
       x2="0"
       y1="0"
       y2="1">
      <stop
         offset="0%"
         style="stop-color:#cce0ff;stop-opacity:1"
         id="stop857" />
      <stop
         offset="100%"
         style="stop-color:#00ffff;stop-opacity:0"
         id="stop859" />
    </linearGradient>
    <linearGradient
       id="linearGradient924"
       x1="0"
       x2="0"
       y1="0"
       y2="1">
      <stop
         offset="0%"
         style="stop-color:#0062f7;stop-opacity:1"
         id="stop920" />
      <stop
         offset="100%"
         style="stop-color:#00ffff;stop-opacity:1"
         id="stop922" />
    </linearGradient>
    <linearGradient
       id="linearGradient900"
       x1="0"
       x2="0"
       y1="0"
       y2="1">
      <stop
         offset="0%"
         style="stop-color:#00ffff;stop-opacity:1"
         id="stop896" />
      <stop
         offset="100%"
         style="stop-color:#00ffff;stop-opacity:0.4678033"
         id="stop898" />
    </linearGradient>
    <linearGradient
       id="oomox"
       x1="0"
       x2="0"
       y1="0"
       y2="1">
      <stop
         offset="0%"
         style="stop-color:#303b3d; stop-opacity:1"
         id="stop18" />
      <stop
         offset="100%"
         style="stop-color:#bc985d; stop-opacity:1"
         id="stop20" />
    </linearGradient>
    <linearGradient
       inkscape:collect="always"
       xlink:href="#linearGradient1214"
       id="linearGradient929"
       x1="8.9449377"
       y1="0"
       x2="8.9449377"
       y2="7.4051056"
       gradientTransform="matrix(0.97250978,0,0,2.4306516,3.699423,4)"
       gradientUnits="userSpaceOnUse" />
    <linearGradient
       inkscape:collect="always"
       xlink:href="#linearGradient924"
       id="linearGradient931"
       x1="6.1104064"
       y1="2.8908513"
       x2="6.1104064"
       y2="7.949378"
       gradientTransform="matrix(1.4236433,0,0,1.6604106,3.699423,4)"
       gradientUnits="userSpaceOnUse" />
    <linearGradient
       inkscape:collect="always"
       xlink:href="#linearGradient1214"
       id="linearGradient975"
       gradientUnits="userSpaceOnUse"
       gradientTransform="matrix(0.64833986,0,0,1.6204344,2.899615,3)"
       x1="8.9449377"
       y1="0"
       x2="8.9449377"
       y2="7.4051056" />
    <linearGradient
       inkscape:collect="always"
       xlink:href="#linearGradient924"
       id="linearGradient977"
       gradientUnits="userSpaceOnUse"
       gradientTransform="matrix(0.94909554,0,0,1.1069404,2.899615,3)"
       x1="6.1104064"
       y1="2.8908513"
       x2="6.1104064"
       y2="7.949378" />
  </defs>
  <sodipodi:namedview
     pagecolor="#ffffff"
     bordercolor="#000000"
     borderopacity="1"
     objecttolerance="10"
     gridtolerance="10"
     guidetolerance="10"
     inkscape:pageopacity="0"
     inkscape:pageshadow="2"
     inkscape:window-width="1920"
     inkscape:window-height="1006"
     id="namedview14"
     showgrid="false"
     inkscape:zoom="6.9384853"
     inkscape:cx="33.148445"
     inkscape:cy="21.906799"
     inkscape:window-x="0"
     inkscape:window-y="0"
     inkscape:window-maximized="1"
     inkscape:current-layer="svg12"
     inkscape:document-rotation="0"
     inkscape:lockguides="true"
     inkscape:showpageshadow="false"
     inkscape:pagecheckerboard="0">
    <inkscape:grid
       type="xygrid"
       id="grid848"
       originx="0"
       originy="0" />
  </sodipodi:namedview>
  <g
     id="ktorrent">
    <rect
       style="opacity:0.00100002"
       width="32"
       height="32"
       x="0"
       y="0"
       id="rect7" />
    <path
       style="color:#d5c289;isolation:isolate;fill:#232627;fill-opacity:1;stroke-width:1.53748"
       class="ColorScheme-Text"
       d="M 7.6,18.4 15.999231,28 24.398463,18.4 19.6,18.4015 v -3.602307 c 0,1.200769 -1.200769,1.200769 -1.200769,1.200769 0,0 -1.200768,0 -1.200768,-1.200769 0,-1.199231 -1.199232,-1.199231 -1.199232,-1.199231 0,0 -1.199231,0 -1.199231,1.199231 0,1.200769 -1.200769,1.200769 -1.200769,1.200769 0,0 -1.200768,0 -1.200768,-1.200769 v 3.600769 z"
       id="path58" />
    <path
       style="isolation:isolate;fill:url(#linearGradient929);stroke-width:1.53748"
       class="ColorScheme-Text"
       d="M 15.999231,4 C 15.999231,4 14.8,4 14.8,5.1992313 14.8,6.4 13.599231,6.4 13.599231,6.4 c 0,0 -1.200769,0.00154 -1.200769,-1.2007687 V 21.999232 H 19.6 V 5.1992313 C 19.6,6.4 18.399231,6.4 18.399231,6.4 c 0,0 -1.200769,0 -1.200769,-1.2007687 C 17.198462,4 15.999231,4 15.999231,4 Z"
       id="path60" />
    <path
       style="isolation:isolate;fill:url(#linearGradient931);fill-opacity:1;stroke-width:1.53748"
       class="ColorScheme-Text"
       d="m 13.599231,8.8000001 c 0,0 -1.200769,-0.00154 -1.200769,1.1992313 V 17.199231 H 19.6 V 9.9992314 c 0,-1.1992313 -1.200769,-1.1992313 -1.200769,-1.1992313 0,0 -1.200769,0 -1.200769,1.1992313 C 17.198462,11.2 15.999231,11.2 15.999231,11.2 c 0,0 -1.199231,0 -1.199231,-1.2007686 0,-1.1992313 -1.200769,-1.1992313 -1.200769,-1.1992313 z"
       id="path64" />
  </g>
  <g
     id="22-22-ktorrent"
     transform="translate(32,10.000001)">
    <rect
       style="opacity:0.00100002"
       width="22"
       height="22"
       x="0"
       y="0"
       id="rect2" />
    <path
       style="color:#d5c289;isolation:isolate;fill:#232627;fill-opacity:1;stroke-width:1.02499"
       class="ColorScheme-Text"
       d="M 5.5,12.6 11.099487,19 16.698975,12.6 13.5,12.601 v -2.401538 c 0,0.800512 -0.800513,0.800512 -0.800513,0.800512 0,0 -0.800512,0 -0.800512,-0.800512 0,-0.7994873 -0.799488,-0.7994873 -0.799488,-0.7994873 0,0 -0.799487,0 -0.799487,0.7994873 0,0.800512 -0.800513,0.800512 -0.800513,0.800512 0,0 -0.800512,0 -0.800512,-0.800512 v 2.400512 z"
       id="path58-3" />
    <path
       style="isolation:isolate;fill:url(#linearGradient975);stroke-width:1.02499;fill-opacity:1.0"
       class="ColorScheme-Text"
       d="M 11.099487,3 C 11.099487,3 10.3,3 10.3,3.799487 10.3,4.6 9.499487,4.6 9.499487,4.6 c 0,0 -0.800512,0.001 -0.800512,-0.800513 V 14.999488 H 13.5 V 3.799487 C 13.5,4.6 12.699487,4.6 12.699487,4.6 c 0,0 -0.800512,0 -0.800512,-0.800513 C 11.898975,3 11.099487,3 11.099487,3 Z"
       id="path60-5" />
    <path
       style="isolation:isolate;fill:url(#linearGradient977);fill-opacity:1;stroke-width:1.02499"
       class="ColorScheme-Text"
       d="m 9.499487,6.2 c 0,0 -0.800512,-0.001 -0.800512,0.799488 v 4.799999 H 13.5 V 6.999488 C 13.5,6.2 12.699487,6.2 12.699487,6.2 c 0,0 -0.800512,0 -0.800512,0.799488 C 11.898975,7.8 11.099487,7.8 11.099487,7.8 11.099487,7.8 10.3,7.8 10.3,6.999488 10.3,6.2 9.499487,6.2 9.499487,6.2 Z"
       id="path64-6" />
  </g>
</svg>
