<?xml version="1.0" encoding="UTF-8" standalone="no"?>
<svg
   version="1.1"
   viewBox="0 0 32 16"
   id="svg11"
   sodipodi:docname="mobile.svg"
   inkscape:version="1.1.1 (3bf5ae0d25, 2021-09-20)"
   xmlns:inkscape="http://www.inkscape.org/namespaces/inkscape"
   xmlns:sodipodi="http://sodipodi.sourceforge.net/DTD/sodipodi-0.dtd"
   xmlns="http://www.w3.org/2000/svg"
   xmlns:svg="http://www.w3.org/2000/svg"
   xmlns:rdf="http://www.w3.org/1999/02/22-rdf-syntax-ns#"
   xmlns:cc="http://creativecommons.org/ns#"
   xmlns:dc="http://purl.org/dc/elements/1.1/">
  <metadata
     id="metadata15">
    <rdf:RDF>
      <cc:Work
         rdf:about="">
        <dc:format>image/svg+xml</dc:format>
        <dc:type
           rdf:resource="http://purl.org/dc/dcmitype/StillImage" />
      </cc:Work>
    </rdf:RDF>
  </metadata>
  <sodipodi:namedview
     pagecolor="#ffffff"
     bordercolor="#000000"
     borderopacity="1"
     objecttolerance="10"
     gridtolerance="10"
     guidetolerance="10"
     inkscape:pageopacity="0"
     inkscape:pageshadow="2"
     inkscape:window-width="1920"
     inkscape:window-height="1006"
     id="namedview13"
     showgrid="false"
     inkscape:zoom="12.109204"
     inkscape:cx="18.498326"
     inkscape:cy="8.8362538"
     inkscape:window-x="0"
     inkscape:window-y="0"
     inkscape:window-maximized="1"
     inkscape:current-layer="svg11"
     inkscape:document-rotation="0"
     inkscape:pagecheckerboard="0"
     inkscape:showpageshadow="false" />
  <defs
     id="defs3">
    <style
       id="current-color-scheme"
       type="text/css" />
  </defs>
  <g
     id="mobile-task-switcher"
     transform="matrix(3.7803186,0,0,3.7803186,-0.00289876,-0.00254929)"
     class="ColorScheme-Text"
     fill="currentColor"
     style="fill:#232627;fill-opacity:1">
    <path
       class="ColorScheme-Text"
       d="m 1.0815353,0.5297303 c -0.30537362,0 -0.55112919,0.24575557 -0.55112919,0.5511292 v 2.0727416 c 0,0.3053733 0.24575557,0.5511292 0.55112919,0.5511292 h 2.0727416 c 0.3053734,0 0.5511292,-0.2457559 0.5511292,-0.5511292 V 1.0808595 c 0,-0.30537363 -0.2457558,-0.5511292 -0.5511292,-0.5511292 z m 0.064595,0.32995387 h 1.9466512 c 0.1571218,0 0.2834453,0.126582 0.2834453,0.28370373 v 1.9497516 c 0,0.1571218 -0.1263235,0.2837038 -0.2834453,0.2837038 H 1.1461307 c -0.15712152,0 -0.28370352,-0.126582 -0.28370352,-0.2837038 V 1.1433879 c 0,-0.15712173 0.126582,-0.28370373 0.28370312,-0.28370373 z"
       stroke-opacity="0"
       stroke-width="0.132292"
       id="path5"
       style="fill:#232627;fill-opacity:1" />
  </g>
  <g
     id="mobile-close-app"
     transform="matrix(3.7734101,0,0,3.7734101,0.05466992,0.00852106)"
     fill="currentColor"
     style="fill:#232627;fill-opacity:1">
    <path
       class="ColorScheme-Text"
       d="M 4.9144465,0.68618254 7.7770266,3.5487626 m -2.8625801,0 2.8625801,-2.86258006"
       stroke-linecap="round"
       stroke-width="0.3175"
       id="path8"
       style="fill:#232627;fill-opacity:1;stroke:#232627;stroke-opacity:1" />
  </g>
</svg>
