<?xml version="1.0" encoding="UTF-8" standalone="no"?>
<svg
   width="32"
   height="32"
   viewBox="0 0 8.4666662 8.4666666"
   version="1.1"
   id="svg830"
   inkscape:version="1.2.1 (9c6d41e410, 2022-07-14)"
   sodipodi:docname="notifications.svg"
   xmlns:inkscape="http://www.inkscape.org/namespaces/inkscape"
   xmlns:sodipodi="http://sodipodi.sourceforge.net/DTD/sodipodi-0.dtd"
   xmlns="http://www.w3.org/2000/svg"
   xmlns:svg="http://www.w3.org/2000/svg"
   xmlns:rdf="http://www.w3.org/1999/02/22-rdf-syntax-ns#"
   xmlns:cc="http://creativecommons.org/ns#"
   xmlns:dc="http://purl.org/dc/elements/1.1/">
  <defs
     id="defs824" />
  <sodipodi:namedview
     id="base"
     pagecolor="#ffffff"
     bordercolor="#000000"
     borderopacity="1"
     inkscape:pageopacity="0.0"
     inkscape:pageshadow="2"
     inkscape:zoom="3.9999998"
     inkscape:cx="25.875001"
     inkscape:cy="39.875002"
     inkscape:document-units="px"
     inkscape:current-layer="layer1"
     showgrid="false"
     units="px"
     inkscape:snap-intersection-paths="true"
     inkscape:object-paths="true"
     inkscape:snap-smooth-nodes="true"
     inkscape:object-nodes="true"
     inkscape:window-width="1920"
     inkscape:window-height="1002"
     inkscape:window-x="0"
     inkscape:window-y="0"
     inkscape:window-maximized="1"
     inkscape:snap-global="true"
     showguides="true"
     inkscape:document-rotation="0"
     inkscape:lockguides="false"
     inkscape:pagecheckerboard="0"
     inkscape:showpageshadow="true"
     inkscape:deskcolor="#d1d1d1">
    <inkscape:grid
       type="xygrid"
       id="grid252"
       originx="-2.1064588"
       originy="14.289827" />
  </sodipodi:namedview>
  <metadata
     id="metadata827">
    <rdf:RDF>
      <cc:Work
         rdf:about="">
        <dc:format>image/svg+xml</dc:format>
        <dc:type
           rdf:resource="http://purl.org/dc/dcmitype/StillImage" />
      </cc:Work>
    </rdf:RDF>
  </metadata>
  <style
     type="text/css"
     id="current-color-scheme" />
  <g
     inkscape:label="Layer 1"
     inkscape:groupmode="layer"
     id="layer1"
     transform="translate(-2.1166666,-282.71249)">
    <g
       id="notifications-disabled">
      <rect
         ry="1.2988289e-06"
         y="274.2334"
         x="2.1166668"
         height="8.4666662"
         width="8.4666662"
         id="rect891-7-2"
         style="opacity:0.003;fill:#050505;fill-opacity:1;stroke:none;stroke-width:0.10795;stroke-miterlimit:4;stroke-dasharray:none;stroke-opacity:1" />
      <path
         d="m 6.3540061,275.29173 c 0.2665575,0 0.3860675,0.20409 0.3860675,0.44524 0.5791253,0.10204 1.1490152,0.44524 1.2225499,1.09457 0.1378944,1.36356 0.2114371,2.34678 1.2960795,3.3115 0.018392,0.3803 -0.1103194,0.52872 -0.4320302,0.70494 H 3.8812995 c -0.3309094,-0.17626 -0.4504165,-0.33392 -0.4412277,-0.70494 1.0938956,-0.98326 1.1582504,-1.92942 1.2960784,-3.3115 0.073545,-0.64934 0.6526679,-0.99253 1.2317832,-1.09457 0,-0.24115 0.1103164,-0.44524 0.3860647,-0.44524 z m -2.5095032,5.0182 c 0.027577,0.0557 0.082742,0.10204 0.1287057,0.12988 H 8.725574 c 0.045969,-0.0278 0.1103184,-0.0743 0.1287078,-0.12988 -1.0479213,-0.97397 -1.1490172,-2.07782 -1.2869594,-3.42274 -0.2757482,-1.04818 -2.1602063,-1.04818 -2.426741,0 -0.2389804,1.40071 -0.1287058,2.34679 -1.2960785,3.42274 z"
         fill-rule="evenodd"
         id="path67"
         style="fill:#bf616a;fill-opacity:1;stroke-width:0.0113115" />
      <path
         d="m 6.8870804,280.9475 c 0.1103164,0.32397 -0.1838619,0.69423 -0.5331608,0.69423 -0.3492998,0 -0.6434801,-0.37025 -0.5331637,-0.69423 z"
         fill-rule="evenodd"
         id="path69"
         style="fill:#bf616a;fill-opacity:1;stroke-width:0.0112997" />
    </g>
    <g
       id="notifications">
      <rect
         ry="1.2988289e-06"
         y="282.71249"
         x="2.1166666"
         height="8.4666662"
         width="8.4666662"
         id="rect891-7"
         style="opacity:0.003;fill:#050505;fill-opacity:1;stroke:none;stroke-width:0.10795;stroke-miterlimit:4;stroke-dasharray:none;stroke-opacity:1" />
      <path
         d="m 6.3540056,283.77082 c 0.266558,0 0.386068,0.20409 0.386068,0.44524 0.579125,0.10204 1.149015,0.44524 1.222549,1.09457 0.137895,1.36356 0.211438,2.34678 1.29608,3.3115 0.01839,0.3803 -0.110319,0.52872 -0.43203,0.70494 h -4.945374 c -0.330909,-0.17626 -0.450416,-0.33392 -0.441227,-0.70494 1.093895,-0.98326 1.15825,-1.92942 1.296078,-3.3115 0.07354,-0.64934 0.652668,-0.99253 1.231783,-1.09457 0,-0.24115 0.110317,-0.44524 0.386065,-0.44524 z m -2.509503,5.0182 c 0.02758,0.0557 0.08274,0.10204 0.128706,0.12988 h 4.752365 c 0.04597,-0.0278 0.110318,-0.0743 0.128708,-0.12988 -1.047922,-0.97397 -1.149017,-2.07782 -1.28696,-3.42274 -0.275748,-1.04818 -2.160206,-1.04818 -2.426741,0 -0.23898,1.40071 -0.128705,2.34679 -1.296078,3.42274 z"
         fill-rule="evenodd"
         id="path67-3"
         style="fill:#232627;fill-opacity:1;stroke-width:0.0113115" />
      <path
         d="m 6.8870796,289.42659 c 0.110317,0.32397 -0.183862,0.69423 -0.53316,0.69423 -0.3493,0 -0.643481,-0.37025 -0.533164,-0.69423 z"
         fill-rule="evenodd"
         id="path69-6"
         style="fill:#232627;fill-opacity:1;stroke-width:0.0112997" />
    </g>
    <g
       id="22-22-notifications-disabled">
      <rect
         ry="1.2988282e-06"
         y="291.18149"
         x="0.010207531"
         height="5.8208332"
         width="5.8208332"
         id="rect1383"
         style="opacity:0.003;fill:#ff1f1f;fill-opacity:1;stroke:none;stroke-width:0.10795;stroke-miterlimit:4;stroke-dasharray:none;stroke-opacity:1" />
      <path
         d="m 2.9192479,291.97524 c 0.1789482,0 0.2591778,0.13606 0.2591778,0.29682 0.3887841,0.0681 0.7713687,0.29684 0.8207327,0.72971 0.09257,0.90904 0.141943,1.56453 0.870098,2.20767 0.01233,0.25353 -0.07406,0.35248 -0.290037,0.46997 H 1.2592468 c -0.2221521,-0.11752 -0.30237898,-0.22262 -0.29621158,-0.46997 0.73436688,-0.6555 0.77756798,-1.28628 0.87009808,-2.20767 0.049371,-0.43288 0.4381526,-0.66167 0.8269314,-0.72971 0,-0.16076 0.07406,-0.29682 0.2591752,-0.29682 z m -1.6847052,3.34548 c 0.018521,0.0371 0.055544,0.0756 0.086405,0.0941 h 3.1904037 c 0.03086,-0.0185 0.07406,-0.0571 0.0864,-0.0941 -0.7035005,-0.64933 -0.7713714,-1.38523 -0.8639756,-2.28183 -0.1851157,-0.69879 -1.4502103,-0.69879 -1.6291427,0 -0.1604353,0.9338 -0.086405,1.56451 -0.8700954,2.28183 z"
         fill-rule="evenodd"
         id="path67-3-7"
         style="fill:#bf616a;fill-opacity:1;stroke-width:0.00756735"
         sodipodi:nodetypes="sccccccccsscccccccc" />
      <path
         d="m 3.2771153,295.74576 c 0.074057,0.21597 -0.1234334,0.46282 -0.3579283,0.46282 -0.2344949,0 -0.4319852,-0.24684 -0.3579257,-0.46282 z"
         fill-rule="evenodd"
         id="path69-6-5"
         style="fill:#bf616a;fill-opacity:1;stroke-width:0.00755946" />
    </g>
    <g
       id="22-22-notifications">
      <rect
         ry="1.2988282e-06"
         y="297.00232"
         x="0.01020753"
         height="5.8208332"
         width="5.8208332"
         id="rect1383-2"
         style="opacity:0.003;fill:#ff1f1f;fill-opacity:1;stroke:none;stroke-width:0.10795;stroke-miterlimit:4;stroke-dasharray:none;stroke-opacity:1" />
      <path
         d="m 2.9192473,297.79607 c 0.178949,0 0.259178,0.13578 0.259178,0.29621 0.388784,0.0679 0.771369,0.29621 0.820733,0.72819 0.09257,0.90714 0.141943,1.56126 0.8700979,2.20306 0.01233,0.25301 -0.07406,0.35947 -0.290037,0.47671 h -3.319973 c -0.222152,-0.11727 -0.30237891,-0.22988 -0.29621092,-0.47671 0.73436692,-0.65413 0.77756792,-1.2836 0.87009792,-2.20306 0.04937,-0.43199 0.438153,-0.6603 0.826931,-0.72819 0,-0.16043 0.07406,-0.29621 0.259176,-0.29621 z m -1.684705,3.3385 c 0.01852,0.037 0.05554,0.0826 0.08641,0.10108 h 3.190404 c 0.03086,-0.0185 0.07406,-0.0641 0.08641,-0.1011 -0.7035,-0.64797 -0.771371,-1.38233 -0.863976,-2.27707 -0.185115,-0.69733 -1.45021,-0.69733 -1.629142,0 -0.1604361,0.93186 -0.0864,1.56126 -0.8700961,2.27707 z"
         fill-rule="evenodd"
         id="path67-3-3"
         style="fill:#232627;fill-opacity:1;stroke-width:0.00755946"
         sodipodi:nodetypes="sccccccccsscccccccc" />
      <path
         d="m 3.2903445,301.56659 c 0.07406,0.21597 -0.123433,0.46282 -0.357928,0.46282 -0.234495,0 -0.431986,-0.24684 -0.357926,-0.46282 z"
         fill-rule="evenodd"
         id="path69-6-56"
         style="fill:#232627;fill-opacity:1;stroke-width:0.00755946" />
    </g>
  </g>
</svg>
