<?xml version="1.0" encoding="UTF-8" standalone="no"?>
<svg
   width="32"
   height="32"
   version="1.1"
   id="svg32"
   sodipodi:docname="quassel.svg"
   inkscape:version="1.1.1 (3bf5ae0d25, 2021-09-20)"
   xmlns:inkscape="http://www.inkscape.org/namespaces/inkscape"
   xmlns:sodipodi="http://sodipodi.sourceforge.net/DTD/sodipodi-0.dtd"
   xmlns="http://www.w3.org/2000/svg"
   xmlns:svg="http://www.w3.org/2000/svg"
   xmlns:rdf="http://www.w3.org/1999/02/22-rdf-syntax-ns#"
   xmlns:cc="http://creativecommons.org/ns#"
   xmlns:dc="http://purl.org/dc/elements/1.1/">
  <metadata
     id="metadata38">
    <rdf:RDF>
      <cc:Work
         rdf:about="">
        <dc:format>image/svg+xml</dc:format>
        <dc:type
           rdf:resource="http://purl.org/dc/dcmitype/StillImage" />
      </cc:Work>
    </rdf:RDF>
  </metadata>
  <defs
     id="defs36" />
  <sodipodi:namedview
     pagecolor="#ffffff"
     bordercolor="#666666"
     borderopacity="1"
     objecttolerance="10"
     gridtolerance="10"
     guidetolerance="10"
     inkscape:pageopacity="0"
     inkscape:pageshadow="2"
     inkscape:window-width="1920"
     inkscape:window-height="1006"
     id="namedview34"
     showgrid="false"
     inkscape:zoom="4.90625"
     inkscape:cx="23.235669"
     inkscape:cy="10.394904"
     inkscape:window-x="0"
     inkscape:window-y="0"
     inkscape:window-maximized="1"
     inkscape:current-layer="svg32"
     inkscape:document-rotation="0"
     showguides="false"
     inkscape:lockguides="false"
     inkscape:pagecheckerboard="0">
    <inkscape:grid
       type="xygrid"
       id="grid948"
       originx="-32"
       originy="0" />
  </sodipodi:namedview>
  <g
     id="g4"
     transform="matrix(0.20660017,0,0,0.20660017,-84.3303,3.075656)" />
  <g
     id="quassel-message"
     transform="translate(-32)">
    <rect
       style="opacity:0.00100002"
       width="32"
       height="32"
       x="32"
       y="0"
       id="rect22" />
    <path
       d="M 56.485297,7.514746 C 54.218817,5.248193 51.2051,4 48,4 44.7949,4 41.78117,5.248193 39.5149,7.514746 37.24821,9.781298 36,12.794774 36,16.000001 c 0,3.205227 1.24821,6.218695 3.5149,8.485253 2.26627,2.266409 5.28,3.514747 8.4851,3.514747 3.2053,0 6.218817,-1.248338 8.485297,-3.514747 2.26634,-2.266558 3.5147,-5.280026 3.5147,-8.485253 0,-3.205227 -1.24836,-6.21885 -3.5147,-8.485255 z M 55.115,23.814651 c -2.209523,1.874207 -3.991502,2.760223 -7.115,2.73735 -3.315977,-0.02428 -4.545955,-0.647314 -7.115,-2.738 -2.08741,-2.087255 -3.437,-4.862044 -3.437,-7.814 0,-2.952097 1.392416,-6.09043 3.437,-7.815001 2.293791,-2.015595 4.205681,-2.714962 7.115,-2.737 2.951865,-0.02236 4.927587,0.91947 7.115,2.737205 2.08737,2.087403 3.437,4.862699 3.437,7.814796 0,2.951956 -1.34963,5.727395 -3.437,7.81465 z"
       id="path2-36-912-3-5-5"
       style="fill:#489ab1;fill-opacity:1;stroke-width:0.0374999"
       sodipodi:nodetypes="cscscscsccscscscsc" />
    <path
       d="m 50,14 a 6,6 0 0 0 -6,6 6,6 0 0 0 6,6 6,6 0 0 0 2.4042,-0.51 3.2308,3.2308 0 0 1 -0.558,0.04846 3.2308,3.2308 0 0 1 -3.2308,-3.2308 3.2308,3.2308 0 0 1 3.2308,-3.2308 3.2308,3.2308 0 0 1 3.2308,3.2308 3.2308,3.2308 0 0 1 -0.24969,1.2438 6,6 0 0 0 1.173,-3.551 6,6 0 0 0 -6,-6 z"
       id="path10-3"
       style="fill:#489ab1;fill-opacity:1" />
  </g>
  <g
     id="quassel-inactive"
     transform="translate(-32)"
     style="fill:#232627;fill-opacity:1">
    <rect
       style="opacity:0.00100002;fill:#232627;fill-opacity:1"
       width="32"
       height="32"
       x="64"
       y="0"
       id="rect27" />
    <path
       d="M 88.485297,7.514746 C 86.218817,5.248193 83.2051,4 80,4 76.7949,4 73.78117,5.248193 71.5149,7.514746 69.24821,9.781298 68,12.794774 68,16.000001 c 0,3.205227 1.24821,6.218695 3.5149,8.485253 2.26627,2.266409 5.28,3.514747 8.4851,3.514747 3.2053,0 6.218817,-1.248338 8.485297,-3.514747 2.26634,-2.266558 3.5147,-5.280026 3.5147,-8.485253 0,-3.205227 -1.24836,-6.21885 -3.5147,-8.485255 z M 87.115,23.814651 c -2.209523,1.874207 -3.991502,2.760223 -7.115,2.73735 -3.315977,-0.02428 -4.545955,-0.647314 -7.115,-2.738 -2.08741,-2.087255 -3.437,-4.862044 -3.437,-7.814 0,-2.952097 1.392416,-6.09043 3.437,-7.815001 2.293791,-2.015595 4.205681,-2.714962 7.115,-2.737 2.951865,-0.02236 4.927587,0.91947 7.115,2.737205 2.08737,2.087403 3.437,4.862699 3.437,7.814796 0,2.951956 -1.34963,5.727395 -3.437,7.81465 z"
       id="path2-36-912-3-5-56"
       style="opacity:0.5;fill:#232627;fill-opacity:1;stroke-width:0.0374999"
       sodipodi:nodetypes="cscscscsccscscscsc" />
    <path
       d="m 82,14 a 6,6 0 0 0 -6,6 6,6 0 0 0 6,6 6,6 0 0 0 2.4042,-0.51 3.2308,3.2308 0 0 1 -0.558,0.04846 3.2308,3.2308 0 0 1 -3.2308,-3.2308 3.2308,3.2308 0 0 1 3.2308,-3.2308 3.2308,3.2308 0 0 1 3.2308,3.2308 3.2308,3.2308 0 0 1 -0.24969,1.2438 6,6 0 0 0 1.173,-3.551 6,6 0 0 0 -6,-6 z"
       id="path10-6"
       style="opacity:0.5;fill:#232627;fill-opacity:1" />
  </g>
  <g
     id="quassel"
     transform="translate(-32)"
     style="fill:#232627;fill-opacity:1">
    <rect
       style="opacity:0.00100002;fill:#232627;fill-opacity:1"
       width="32"
       height="32"
       x="0"
       y="0"
       id="rect17" />
    <path
       d="M 24.485297,7.514746 C 22.218817,5.248193 19.2051,4 16,4 12.7949,4 9.78117,5.248193 7.5149,7.514746 5.24821,9.781298 4,12.794774 4,16.000001 c 0,3.205227 1.24821,6.218695 3.5149,8.485253 2.26627,2.266409 5.28,3.514747 8.4851,3.514747 3.2053,0 6.218817,-1.248338 8.485297,-3.514747 2.26634,-2.266558 3.5147,-5.280026 3.5147,-8.485253 0,-3.205227 -1.24836,-6.21885 -3.5147,-8.485255 z M 23.115,23.814651 c -2.209523,1.874207 -3.991502,2.760223 -7.115,2.73735 -3.315977,-0.02428 -4.545955,-0.647314 -7.115,-2.738 -2.08741,-2.087255 -3.437,-4.862044 -3.437,-7.814 0,-2.952097 1.392416,-6.09043 3.437,-7.815001 2.293791,-2.015595 4.205681,-2.714962 7.115,-2.737 2.951865,-0.02236 4.927587,0.91947 7.115,2.737205 2.08737,2.087403 3.437,4.862699 3.437,7.814796 0,2.951956 -1.34963,5.727395 -3.437,7.81465 z"
       id="path2-36-912-3-5"
       style="fill:#232627;fill-opacity:1;stroke-width:0.0374999"
       sodipodi:nodetypes="cscscscsccscscscsc" />
    <path
       d="m 18,14 a 6,6 0 0 0 -6,6 6,6 0 0 0 6,6 6,6 0 0 0 2.4042,-0.51 3.2308,3.2308 0 0 1 -0.558,0.04846 3.2308,3.2308 0 0 1 -3.2308,-3.2308 3.2308,3.2308 0 0 1 3.2308,-3.2308 3.2308,3.2308 0 0 1 3.2308,3.2308 3.2308,3.2308 0 0 1 -0.24969,1.2438 6,6 0 0 0 1.173,-3.551 6,6 0 0 0 -6,-6 z"
       id="path10"
       style="fill:#232627;fill-opacity:1" />
  </g>
  <g
     id="22-22-quassel"
     transform="translate(-32)"
     style="fill:#232627;fill-opacity:1">
    <rect
       style="opacity:0.00100002;fill:#232627;fill-opacity:1"
       width="22"
       height="22"
       x="0"
       y="-22"
       id="rect2" />
    <path
       d="M 16.656866,-16.656843 C 15.14588,-18.167876 13.136732,-19 10.999999,-19 8.863267,-19 6.854114,-18.167876 5.343267,-16.656843 3.83214,-15.145803 3,-13.136823 3,-11 3,-8.863177 3.83214,-6.854197 5.343267,-5.343158 6.854114,-3.832234 8.863267,-3 10.999999,-3 c 2.136868,0 4.145881,-0.832234 5.656867,-2.343158 1.510894,-1.511039 2.34313,-3.520019 2.34313,-5.656842 0,-2.136823 -0.832237,-4.145894 -2.34313,-5.656843 z M 15.743332,-5.79023 C 14.27032,-4.540758 13.082331,-3.950087 10.999999,-3.965341 8.789348,-3.981571 7.969363,-4.39688 6.256666,-5.790659 4.86506,-7.18216 3.965334,-9.032032 3.965334,-11 c 0,-1.968072 0.928276,-4.06028 2.291332,-5.21 1.529195,-1.343726 2.803788,-1.809971 4.743333,-1.824659 1.967911,-0.01497 3.285057,0.612979 4.743334,1.824804 1.39158,1.391588 2.291328,3.241783 2.291328,5.209855 0,1.967968 -0.899748,3.818269 -2.291329,5.20977 z"
       id="path2-36-912-3-5-7"
       style="fill:#232627;fill-opacity:1;stroke-width:0.0249998"
       sodipodi:nodetypes="cscscscsccscscscsc" />
    <path
       d="m 12.333333,-12.333341 a 3.9999998,3.9999998 0 0 0 -4,4 3.9999998,3.9999998 0 0 0 4,3.999999 3.9999998,3.9999998 0 0 0 1.602799,-0.34 2.1538658,2.1538658 0 0 1 -0.371999,0.03235 2.1538658,2.1538658 0 0 1 -2.153868,-2.153863 2.1538658,2.1538658 0 0 1 2.153868,-2.153861 2.1538658,2.1538658 0 0 1 2.153867,2.153861 2.1538658,2.1538658 0 0 1 -0.166457,0.8292 3.9999998,3.9999998 0 0 0 0.781996,-2.367337 3.9999998,3.9999998 0 0 0 -3.999999,-4 z"
       id="path10-5"
       style="fill:#232627;fill-opacity:1;stroke-width:0.666659" />
  </g>
  <g
     id="22-22-quassel-message"
     transform="translate(-32)">
    <rect
       style="opacity:0.00100002"
       width="22"
       height="22"
       x="32"
       y="-22"
       id="rect7" />
    <path
       d="M 48.656866,-16.656843 C 47.14588,-18.167876 45.136732,-19 43,-19 c -2.136733,0 -4.145887,0.832124 -5.656733,2.343157 C 35.83214,-15.145803 35,-13.136823 35,-11 c 0,2.136823 0.83214,4.145803 2.343267,5.656842 C 38.854113,-3.832234 40.863267,-3 43,-3 c 2.136867,0 4.14588,-0.832234 5.656866,-2.343158 1.510894,-1.511039 2.34313,-3.520019 2.34313,-5.656842 0,-2.136823 -0.832236,-4.145894 -2.34313,-5.656843 z M 47.743333,-5.79023 C 46.27032,-4.540758 45.082331,-3.950087 43,-3.965341 40.789348,-3.981571 39.969363,-4.39688 38.256666,-5.790659 36.86506,-7.18216 35.965334,-9.032032 35.965334,-11 c 0,-1.968072 0.928276,-4.06028 2.291332,-5.21 1.529195,-1.343726 2.803788,-1.809971 4.743334,-1.824659 1.96791,-0.01497 3.285056,0.612979 4.743333,1.824804 1.391581,1.391588 2.291329,3.241783 2.291329,5.209855 0,1.967968 -0.899748,3.818269 -2.291329,5.20977 z"
       id="path2-36-912-3-5-7-3"
       style="fill:#489ab1;fill-opacity:1;stroke-width:0.0249998"
       sodipodi:nodetypes="cscscscsccscscscsc" />
    <path
       d="m 44.333334,-12.333341 a 3.9999998,3.9999998 0 0 0 -4.000001,4 3.9999998,3.9999998 0 0 0 4.000001,3.999999 3.9999998,3.9999998 0 0 0 1.602798,-0.34 2.1538658,2.1538658 0 0 1 -0.371999,0.03235 2.1538658,2.1538658 0 0 1 -2.153868,-2.153863 2.1538658,2.1538658 0 0 1 2.153868,-2.153861 2.1538658,2.1538658 0 0 1 2.153867,2.153861 2.1538658,2.1538658 0 0 1 -0.166457,0.8292 3.9999998,3.9999998 0 0 0 0.781996,-2.367337 3.9999998,3.9999998 0 0 0 -3.999999,-4 z"
       id="path10-5-5"
       style="fill:#489ab1;fill-opacity:1;stroke-width:0.666659" />
  </g>
  <g
     id="22-22-quassel-inactive"
     transform="translate(-32)"
     style="fill:#232627;fill-opacity:1">
    <rect
       style="opacity:0.00100002;fill:#232627;fill-opacity:1"
       width="22"
       height="22"
       x="64"
       y="-22"
       id="rect12" />
    <path
       d="M 80.656866,-16.656843 C 79.14588,-18.167876 77.136732,-19 75,-19 c -2.136733,0 -4.145887,0.832124 -5.656733,2.343157 C 67.83214,-15.145803 67,-13.136823 67,-11 c 0,2.136823 0.83214,4.145803 2.343267,5.656842 C 70.854113,-3.832234 72.863267,-3 75,-3 c 2.136867,0 4.14588,-0.832234 5.656866,-2.343158 1.510894,-1.511039 2.34313,-3.520019 2.34313,-5.656842 0,-2.136823 -0.832236,-4.145894 -2.34313,-5.656843 z M 79.743333,-5.79023 C 78.27032,-4.540758 77.082331,-3.950087 75,-3.965341 72.789348,-3.981571 71.969363,-4.39688 70.256666,-5.790659 68.86506,-7.18216 67.965334,-9.032032 67.965334,-11 c 0,-1.968072 0.928276,-4.06028 2.291332,-5.21 1.529195,-1.343726 2.803788,-1.809971 4.743334,-1.824659 1.96791,-0.01497 3.285056,0.612979 4.743333,1.824804 1.391581,1.391588 2.291329,3.241783 2.291329,5.209855 0,1.967968 -0.899748,3.818269 -2.291329,5.20977 z"
       id="path2-36-912-3-5-7-6"
       style="opacity:0.5;fill:#232627;fill-opacity:1;stroke-width:0.0249998"
       sodipodi:nodetypes="cscscscsccscscscsc" />
    <path
       d="m 76.333333,-12.333341 a 3.9999998,3.9999998 0 0 0 -4,4 3.9999998,3.9999998 0 0 0 4,3.999999 3.9999998,3.9999998 0 0 0 1.602799,-0.34 2.1538658,2.1538658 0 0 1 -0.371999,0.03235 2.1538658,2.1538658 0 0 1 -2.153868,-2.153863 2.1538658,2.1538658 0 0 1 2.153868,-2.153861 2.1538658,2.1538658 0 0 1 2.153867,2.153861 2.1538658,2.1538658 0 0 1 -0.166457,0.8292 3.9999998,3.9999998 0 0 0 0.781996,-2.367337 3.9999998,3.9999998 0 0 0 -3.999999,-4 z"
       id="path10-5-2"
       style="opacity:0.5;fill:#232627;fill-opacity:1;stroke-width:0.666659" />
  </g>
</svg>
