<?xml version="1.0" encoding="UTF-8" standalone="no"?>
<svg
   id="svg12"
   width="32"
   height="32"
   version="1.1"
   sodipodi:docname="start.svg"
   inkscape:version="1.1.1 (3bf5ae0d25, 2021-09-20)"
   xmlns:inkscape="http://www.inkscape.org/namespaces/inkscape"
   xmlns:sodipodi="http://sodipodi.sourceforge.net/DTD/sodipodi-0.dtd"
   xmlns:xlink="http://www.w3.org/1999/xlink"
   xmlns="http://www.w3.org/2000/svg"
   xmlns:svg="http://www.w3.org/2000/svg"
   xmlns:rdf="http://www.w3.org/1999/02/22-rdf-syntax-ns#"
   xmlns:cc="http://creativecommons.org/ns#"
   xmlns:dc="http://purl.org/dc/elements/1.1/">
  <g
     id="22-22-start-here-kde"
     transform="translate(-22,10)">
    <rect
       id="rect2"
       style="opacity:0.00100002"
       width="22"
       height="22"
       x="0"
       y="0" />
    <path
       id="rect4328-7"
       d="m 4.196433,1 h 13.607134 c 1.770823,0 3.196432,1.445138 3.196432,3.240219 V 17.759781 C 20.999999,19.554863 19.57439,21 17.803567,21 H 4.196433 C 2.425609,21 1,19.554863 1,17.759781 V 4.240219 C 1,2.445138 2.425609,1 4.196433,1 Z"
       style="opacity:0.3;fill:#3b5a87;fill-opacity:1;fill-rule:nonzero;stroke:none;stroke-width:0;stroke-linecap:round;stroke-linejoin:round;stroke-miterlimit:4;stroke-dasharray:none;stroke-opacity:1"
       inkscape:connector-curvature="0" />
    <path
       class="fil0"
       d="m 16.165217,9.582633 c 0,0.616246 -0.127536,1.109244 -0.382608,1.478992 C 15.336231,15.745099 6.6,10.938375 3.666667,18.333333 5.197101,7.733893 15.655072,12.663865 16.165217,9.582633 Z"
       id="path6-5"
       style="fill:url(#linearGradient869);fill-opacity:1;stroke-width:0.0626874;image-rendering:optimizeQuality;shape-rendering:geometricPrecision;text-rendering:geometricPrecision" />
    <path
       class="fil0"
       d="m 18.333333,3.666667 c 0,0.677871 -0.191304,1.170868 -0.446375,1.540616 -0.06377,0.985995 -0.573915,1.602242 -1.339132,1.910364 -0.06377,0.308124 -0.191303,0.554622 -0.318841,0.80112 C 15.782609,12.602242 7.046375,7.733893 4.113044,15.190478 4.495652,12.663865 5.324637,11.061625 6.408696,9.952381 9.150725,2.619048 17.823189,6.5014 18.333333,3.666667 Z m -4.4,2.64986 c 0,0.369747 -0.06377,0.677871 -0.255072,0.862744 -0.255072,2.711485 -5.292754,-0.06162 -7.014493,4.252102 0.892755,-6.162466 6.950725,-3.327732 7.269565,-5.114846 z"
       id="path8-3"
       style="fill:url(#linearGradient871);fill-opacity:1;fill-rule:evenodd;stroke-width:0.0626874;image-rendering:optimizeQuality;shape-rendering:geometricPrecision;text-rendering:geometricPrecision" />
  </g>
  <metadata
     id="metadata19">
    <rdf:RDF>
      <cc:Work
         rdf:about="">
        <dc:format>image/svg+xml</dc:format>
        <dc:type
           rdf:resource="http://purl.org/dc/dcmitype/StillImage" />
      </cc:Work>
    </rdf:RDF>
  </metadata>
  <defs
     id="g17">
    <linearGradient
       id="linearGradient865"
       x1="0"
       x2="0"
       y1="0"
       y2="1">
      <stop
         offset="0%"
         style="stop-color:#096b83;stop-opacity:1"
         id="stop861" />
      <stop
         offset="100%"
         style="stop-color:#11c3ee;stop-opacity:1"
         id="stop863" />
    </linearGradient>
    <clipPath
       id="_clipPath_gNaW6PK2HuleaAjec1GHnM0Z84ZMay60">
      <rect
         width="16"
         height="16"
         id="rect56"
         x="0"
         y="0" />
    </clipPath>
    <linearGradient
       id="oomox"
       x1="0"
       x2="0"
       y1="0"
       y2="1">
      <stop
         offset="0%"
         style="stop-color:#303b3d; stop-opacity:1"
         id="stop18" />
      <stop
         offset="100%"
         style="stop-color:#bc985d; stop-opacity:1"
         id="stop20" />
    </linearGradient>
    <linearGradient
       id="oomox-3"
       x1="15.097227"
       x2="0"
       y1="0.76177037"
       y2="16.018156"
       gradientTransform="matrix(1.874518,0,0,1.7041711,1.699976,1.701813)"
       gradientUnits="userSpaceOnUse"
       spreadMethod="pad">
      <stop
         offset="0%"
         style="stop-color:#303b3d; stop-opacity:1"
         id="stop18-6" />
      <stop
         offset="100%"
         style="stop-color:#bc985d; stop-opacity:1"
         id="stop20-7" />
    </linearGradient>
    <linearGradient
       inkscape:collect="always"
       xlink:href="#linearGradient865"
       id="linearGradient868"
       x1="25"
       y1="21"
       x2="3"
       y2="21"
       gradientUnits="userSpaceOnUse"
       gradientTransform="matrix(0.8755852,0,0,0.84615373,1.9354513,2.461538)" />
    <linearGradient
       inkscape:collect="always"
       xlink:href="#linearGradient865"
       id="linearGradient860"
       x1="17"
       y1="13"
       x2="28.626051"
       y2="13.214286"
       gradientUnits="userSpaceOnUse"
       gradientTransform="matrix(0.8755852,0,0,0.84615373,1.9354513,2.461538)" />
    <linearGradient
       inkscape:collect="always"
       xlink:href="#linearGradient865"
       id="linearGradient869"
       gradientUnits="userSpaceOnUse"
       gradientTransform="matrix(0.58372347,0,0,0.56410249,1.623634,1.974359)"
       x1="25"
       y1="21"
       x2="3"
       y2="21" />
    <linearGradient
       inkscape:collect="always"
       xlink:href="#linearGradient865"
       id="linearGradient871"
       gradientUnits="userSpaceOnUse"
       gradientTransform="matrix(0.58372347,0,0,0.56410249,1.623634,1.974359)"
       x1="17"
       y1="13"
       x2="28.626051"
       y2="13.214286" />
  </defs>
  <sodipodi:namedview
     pagecolor="#ffffff"
     bordercolor="#666666"
     borderopacity="1"
     objecttolerance="10"
     gridtolerance="10"
     guidetolerance="10"
     inkscape:pageopacity="0"
     inkscape:pageshadow="2"
     inkscape:window-width="1920"
     inkscape:window-height="1006"
     id="namedview15"
     showgrid="false"
     inkscape:zoom="10.092342"
     inkscape:cx="12.583799"
     inkscape:cy="18.33073"
     inkscape:window-x="0"
     inkscape:window-y="0"
     inkscape:window-maximized="1"
     inkscape:current-layer="svg12"
     inkscape:document-rotation="0"
     inkscape:lockguides="false"
     inkscape:pagecheckerboard="0">
    <inkscape:grid
       type="xygrid"
       id="grid1122"
       originx="0"
       originy="0" />
  </sodipodi:namedview>
  <g
     id="g16"
     transform="matrix(0.046875,0,0,0.046875,-59.692605,-9.860676)">
    <g
       id="g857" />
  </g>
  <g
     id="start-here-kde">
    <rect
       id="rect7"
       style="opacity:0.00100002"
       width="32"
       height="32"
       x="0"
       y="0" />
    <path
       id="rect4328"
       d="M 5.794649,1 H 26.20535 c 2.656235,0 4.794649,2.1677066 4.794649,4.8603289 V 26.139671 C 30.999999,28.832295 28.861585,31 26.20535,31 H 5.794649 C 3.138413,31 1,28.832295 1,26.139671 V 5.8603289 C 1,3.1677066 3.138413,1 5.794649,1 Z"
       style="opacity:0.3;fill:#3b5a87;fill-opacity:1;fill-rule:nonzero;stroke:none;stroke-width:0;stroke-linecap:round;stroke-linejoin:round;stroke-miterlimit:4;stroke-dasharray:none;stroke-opacity:1"
       inkscape:connector-curvature="0" />
    <path
       class="fil0"
       d="m 23.747826,13.873949 c 0,0.92437 -0.191305,1.663867 -0.573913,2.218489 C 22.504347,23.117649 9.4000002,15.907563 5,27 7.295652,11.10084 22.982608,18.495798 23.747826,13.873949 Z"
       id="path6"
       style="fill:url(#linearGradient868);fill-opacity:1;stroke-width:0.0940311;image-rendering:optimizeQuality;shape-rendering:geometricPrecision;text-rendering:geometricPrecision" />
    <path
       class="fil0"
       d="m 27,5 c 0,1.016807 -0.286956,1.7563027 -0.669563,2.310924 -0.09565,1.4789925 -0.860873,2.4033626 -2.008698,2.865547 -0.09565,0.462185 -0.286955,0.831932 -0.478262,1.20168 C 23.173913,18.403363 10.069563,11.10084 5.6695656,22.285717 6.243478,18.495798 7.4869558,16.092438 9.1130436,14.428572 13.226087,3.4285719 26.234783,9.2521001 27,5 Z m -6.600001,3.9747902 c 0,0.5546209 -0.09566,1.0168069 -0.382607,1.2941168 -0.382608,4.067227 -7.939131,-0.09243 -10.5217397,6.378152 C 10.834784,7.4033606 19.921739,11.655462 20.399999,8.9747902 Z"
       id="path8"
       style="fill:url(#linearGradient860);fill-opacity:1;fill-rule:evenodd;stroke-width:0.0940311;image-rendering:optimizeQuality;shape-rendering:geometricPrecision;text-rendering:geometricPrecision" />
  </g>
</svg>
