<?xml version="1.0" encoding="UTF-8" standalone="no"?>
<svg
   width="32"
   height="32"
   version="1.1"
   id="svg12"
   sodipodi:docname="TeamViewer.svg"
   inkscape:version="1.2 (dc2aedaf03, 2022-05-15)"
   xmlns:inkscape="http://www.inkscape.org/namespaces/inkscape"
   xmlns:sodipodi="http://sodipodi.sourceforge.net/DTD/sodipodi-0.dtd"
   xmlns="http://www.w3.org/2000/svg"
   xmlns:svg="http://www.w3.org/2000/svg"
   xmlns:rdf="http://www.w3.org/1999/02/22-rdf-syntax-ns#"
   xmlns:cc="http://creativecommons.org/ns#"
   xmlns:dc="http://purl.org/dc/elements/1.1/">
  <g
     id="22-22-TeamViewer"
     transform="translate(32,10.000001)">
    <rect
       style="opacity:0.00100002"
       width="22"
       height="22"
       x="0"
       y="-4.6325681e-08"
       id="rect2" />
    <polygon
       points="23.32,10.85 23.32,28.64 20.91,26.23 19.76,27.38 24.17,31.79 28.59,27.38 27.43,26.23 24.95,28.72 24.95,9.22 10.03,9.22 10.03,10.85 "
       id="polygon8-7-3-3-3"
       transform="matrix(0,0.37715517,-0.35445281,0,19.268056,5.2171333)"
       style="fill:#489ab1;fill-opacity:1" />
    <polygon
       points="11.16,5.77 12.31,4.62 7.9,0.21 3.49,4.62 4.64,5.77 7.05,3.36 7.05,22.78 21.97,22.78 21.97,21.15 8.68,21.15 8.68,3.28 "
       id="polygon10-5-6-6-5"
       transform="matrix(0,0.37878788,-0.35445281,0,14.074436,4.6780293)"
       style="fill:#232627;fill-opacity:1" />
    <path
       d="M 17.367346,3.0000003 H 4.63267 C 3.734711,3.0000003 3,3.6000003 3,4.3333333 V 17.666665 C 3,18.4 3.734711,19 4.63267,19 h 12.734676 c 0.89796,0 1.63265,-0.6 1.63265,-1.333335 V 4.3333333 c 0,-0.733333 -0.73469,-1.333333 -1.63265,-1.333333 z m 0.63265,14.4669987 c 0,0.366663 -0.28403,0.533 -0.733,0.533 H 4.733 C 4.284001,17.999999 4,17.833662 4,17.466999 V 4.5329993 c 0,-0.366666 0.284001,-0.533 0.733,-0.533 h 12.533996 c 0.44897,0 0.733,0.166334 0.733,0.533 z"
       id="path2-7-6"
       style="fill:#232627;fill-opacity:1;stroke-width:0.368855"
       sodipodi:nodetypes="ssssssssssssssssss" />
  </g>
  <g
     id="TeamViewer">
    <rect
       style="opacity:0.00100002"
       width="32"
       height="32"
       x="0"
       y="4.6325681e-08"
       id="rect7" />
    <polygon
       points="24.95,28.72 24.95,9.22 10.03,9.22 10.03,10.85 23.32,10.85 23.32,28.64 20.91,26.23 19.76,27.38 24.17,31.79 28.59,27.38 27.43,26.23 "
       id="polygon8-7-3-36"
       transform="matrix(0,0.59267241,-0.55383252,0,29.106332,7.155496)"
       style="fill:#489ab1;fill-opacity:1" />
    <polygon
       points="8.68,21.15 8.68,3.28 11.16,5.77 12.31,4.62 7.9,0.21 3.49,4.62 4.64,5.77 7.05,3.36 7.05,22.78 21.97,22.78 21.97,21.15 "
       id="polygon10-5-6-7"
       transform="matrix(0,0.5952381,-0.5449712,0,20.414442,6.822619)"
       style="fill:#232627;fill-opacity:1" />
    <path
       d="M 25.551022,4 H 6.449003 C 5.102064,4 3.999998,4.9 3.999998,5.999999 V 25.999997 C 3.999998,27.1 5.102064,28 6.449003,28 h 19.102019 c 1.34694,0 2.44898,-0.9 2.44898,-2.000003 V 5.999999 C 28.000002,4.9 26.897962,4 25.551022,4 Z m 1.44898,21.999997 c 0,0.549995 -0.77553,0.999995 -1.44898,0.999995 H 6.449003 c -0.673498,0 -1.449005,-0.45 -1.449005,-0.999995 V 5.999999 C 4.999998,5.45 5.775505,5 6.449003,5 h 19.102019 c 0.67345,0 1.44898,0.45 1.44898,0.999999 z"
       id="path2-5"
       style="fill:#232627;fill-opacity:1;stroke-width:0.553282"
       sodipodi:nodetypes="ssssssssssssssssss" />
  </g>
  <metadata
     id="metadata18">
    <rdf:RDF>
      <cc:Work
         rdf:about="">
        <dc:format>image/svg+xml</dc:format>
        <dc:type
           rdf:resource="http://purl.org/dc/dcmitype/StillImage" />
      </cc:Work>
    </rdf:RDF>
  </metadata>
  <defs
     id="defs16">
    <linearGradient
       id="oomox"
       x1="0.45854774"
       x2="0.45854774"
       y1="0.20984644"
       y2="15.209846"
       gradientUnits="userSpaceOnUse">
      <stop
         offset="0%"
         style="stop-color:#303b3d; stop-opacity:1"
         id="stop18" />
      <stop
         offset="100%"
         style="stop-color:#bc985d; stop-opacity:1"
         id="stop20" />
    </linearGradient>
  </defs>
  <sodipodi:namedview
     pagecolor="#ffffff"
     bordercolor="#000000"
     borderopacity="1"
     objecttolerance="10"
     gridtolerance="10"
     guidetolerance="10"
     inkscape:pageopacity="0"
     inkscape:pageshadow="2"
     inkscape:window-width="1920"
     inkscape:window-height="1000"
     id="namedview14"
     showgrid="false"
     inkscape:zoom="6.9384855"
     inkscape:cx="32.644011"
     inkscape:cy="21.258241"
     inkscape:window-x="0"
     inkscape:window-y="0"
     inkscape:window-maximized="1"
     inkscape:current-layer="svg12"
     inkscape:document-rotation="0"
     inkscape:showpageshadow="false"
     inkscape:pagecheckerboard="0"
     inkscape:lockguides="true"
     inkscape:deskcolor="#d1d1d1">
    <inkscape:grid
       type="xygrid"
       id="grid864"
       originx="0"
       originy="-4.6325681e-08" />
  </sodipodi:namedview>
</svg>
