<?xml version="1.0" encoding="UTF-8" standalone="no"?>
<svg
   width="32"
   height="32"
   version="1.1"
   id="svg12"
   sodipodi:docname="video.svg"
   inkscape:version="1.1.1 (3bf5ae0d25, 2021-09-20)"
   xmlns:inkscape="http://www.inkscape.org/namespaces/inkscape"
   xmlns:sodipodi="http://sodipodi.sourceforge.net/DTD/sodipodi-0.dtd"
   xmlns="http://www.w3.org/2000/svg"
   xmlns:svg="http://www.w3.org/2000/svg"
   xmlns:rdf="http://www.w3.org/1999/02/22-rdf-syntax-ns#"
   xmlns:cc="http://creativecommons.org/ns#"
   xmlns:dc="http://purl.org/dc/elements/1.1/">
  <metadata
     id="metadata18">
    <rdf:RDF>
      <cc:Work
         rdf:about="">
        <dc:format>image/svg+xml</dc:format>
        <dc:type
           rdf:resource="http://purl.org/dc/dcmitype/StillImage" />
      </cc:Work>
    </rdf:RDF>
  </metadata>
  <defs
     id="defs16" />
  <sodipodi:namedview
     pagecolor="#ffffff"
     bordercolor="#666666"
     borderopacity="1"
     objecttolerance="10"
     gridtolerance="10"
     guidetolerance="10"
     inkscape:pageopacity="0"
     inkscape:pageshadow="2"
     inkscape:window-width="1920"
     inkscape:window-height="1006"
     id="namedview14"
     showgrid="false"
     inkscape:zoom="13.876971"
     inkscape:cx="21.18618"
     inkscape:cy="17.799273"
     inkscape:window-x="0"
     inkscape:window-y="0"
     inkscape:window-maximized="1"
     inkscape:current-layer="svg12"
     inkscape:document-rotation="0"
     inkscape:pagecheckerboard="0">
    <inkscape:grid
       type="xygrid"
       id="grid988" />
  </sodipodi:namedview>
  <g
     id="video-display-brightness"
     style="fill:#232627;fill-opacity:1">
    <rect
       style="opacity:0.00100002;fill:#232627;fill-opacity:1"
       width="32"
       height="32"
       x="0"
       y="0"
       id="rect7" />
    <path
       d="M 25.508696,6.701 H 6.449265 C 5.13569,6.701 4.067,7.7695607 4.067,9.083259 v 12.506319 c 0,1.313701 1.06869,2.382256 2.382265,2.382256 h 7.270858 c -0.08174,1.061302 -0.393819,2.259822 -0.899319,2.259822 h -1.11619 c -0.29527,0 -0.534683,0.239413 -0.534683,0.534686 0,0.295263 0.239413,0.534658 0.534683,0.534658 h 8.06198 c 0.295263,0 0.534658,-0.239395 0.534658,-0.534658 0,-0.295273 -0.239395,-0.534686 -0.534658,-0.534686 h -1.116221 c -0.503459,0 -0.815972,-1.198533 -0.898691,-2.259822 h 7.554039 c 1.425568,0 2.585249,-1.159661 2.585249,-2.585112 V 9.083259 C 27.89097,7.7695607 26.822271,6.701 25.508696,6.701 Z M 5.136344,10.39932 h 21.685282 v 9.327255 H 5.136344 Z M 6.449265,7.7703439 h 19.059431 c 0.723954,0 1.31293,0.5889743 1.31293,1.3129151 V 9.329976 H 5.136344 V 9.083259 c 0,-0.7239408 0.588974,-1.3129151 1.312921,-1.3129151 z M 17.194433,26.231656 h -2.917665 c 0.354472,-0.730384 0.474716,-1.668051 0.51481,-2.259822 h 1.888046 c 0.04002,0.591771 0.160338,1.529438 0.514809,2.259822 z M 25.305721,22.90249 H 6.449265 c -0.723947,0 -1.312921,-0.58897 -1.312921,-1.312912 v -0.793659 h 21.685282 v 0.590803 c 0,0.835689 -0.680097,1.515768 -1.515905,1.515768 z"
       id="path4-3"
       style="fill:#232627;fill-opacity:1;stroke-width:0.267344" />
    <path
       d="m 18.036811,15.478098 a 0.50277089,0.50277089 0 0 1 0,-0.59347 l 0.447887,-0.609162 a 0.50277089,0.50277089 0 0 0 -0.460211,-0.797267 l -0.750241,0.0818 a 0.50277089,0.50277089 0 0 1 -0.516199,-0.298974 l -0.304572,-0.69089 a 0.50277089,0.50277089 0 0 0 -0.920444,0 l -0.304572,0.69089 a 0.50277089,0.50277089 0 0 1 -0.513982,0.296737 l -0.750234,-0.08181 a 0.50277089,0.50277089 0 0 0 -0.460217,0.797267 l 0.447909,0.609155 a 0.50277089,0.50277089 0 0 1 0,0.593467 l -0.447909,0.609147 a 0.50277089,0.50277089 0 0 0 0.460217,0.797267 l 0.750234,-0.0817 a 0.50277089,0.50277089 0 0 1 0.513982,0.296741 l 0.304572,0.69089 a 0.50277089,0.50277089 0 0 0 0.920444,0 l 0.304572,-0.69089 a 0.50277089,0.50277089 0 0 1 0.513959,-0.296741 l 0.75024,0.0817 a 0.50277089,0.50277089 0 0 0 0.460211,-0.797267 z m -2.041329,0.999943 a 1.2966787,1.2966787 0 1 1 1.293329,-1.29669 1.2966787,1.2966787 0 0 1 -1.293329,1.29669 z m 1.398586,-3.32905 -0.351616,-0.202676 0.416567,-0.723352 0.351594,0.202671 z m -3.849737,1.802824 v 0.405347 L 12.709,15.350162 V 14.94472 Z m 4.897821,0.470298 0.0063,-0.405369 0.835342,0.01393 -0.0063,0.405353 z m -3.47125,-2.48028 -0.353839,0.199333 -0.413184,-0.727856 0.353834,-0.19931 z m -0.394143,4.246122 0.350472,0.206048 -0.423267,0.719997 -0.349352,-0.206032 z m 2.517218,0.189248 0.347117,-0.210513 0.433351,0.713269 -0.347139,0.210518 z"
       id="path4"
       style="fill:#232627;fill-opacity:1;stroke-width:0.111976" />
  </g>
  <g
     id="22-22-video-display-brightness"
     style="fill:#232627;fill-opacity:1">
    <g
       id="g1013"
       style="fill:#232627;fill-opacity:1">
      <rect
         style="opacity:0.00100002;fill:#232627;fill-opacity:1"
         width="22"
         height="22"
         x="32"
         y="10.000003"
         id="rect2" />
      <path
         d="M 49.983881,13.824003 H 36.10566 c -0.956486,0 -1.73466,0.778078 -1.73466,1.734654 v 9.106541 c 0,0.956582 0.778174,1.734655 1.73466,1.734655 h 5.294314 c -0.05951,0.77279 -0.286758,1.645502 -0.654845,1.645502 h -0.81276 c -0.214997,0 -0.389334,0.17433 -0.389334,0.389333 0,0.214997 0.174337,0.389315 0.389334,0.389315 h 5.870375 c 0.214993,0 0.389316,-0.174318 0.389316,-0.389315 0,-0.215003 -0.174323,-0.389333 -0.389316,-0.389333 h -0.812779 c -0.366597,0 -0.594156,-0.87272 -0.654389,-1.645502 h 5.500512 c 1.038036,0 1.882467,-0.844414 1.882467,-1.882368 v -8.958828 c 0,-0.956576 -0.778179,-1.734654 -1.734674,-1.734654 z m -14.834233,2.692952 h 15.790259 v 6.791687 H 35.149648 Z m 0.956012,-1.914304 h 13.878221 c 0.527154,0 0.956026,0.428865 0.956026,0.956006 v 0.179649 H 35.149648 v -0.179649 c 0,-0.527141 0.42887,-0.956006 0.956012,-0.956006 z m 7.824153,13.442704 h -2.124517 c 0.258113,-0.531828 0.345672,-1.214602 0.374866,-1.645502 h 1.374789 c 0.02914,0.4309 0.116748,1.113674 0.374862,1.645502 z m 5.906275,-2.42415 H 36.10566 c -0.527142,0 -0.956012,-0.428866 -0.956012,-0.956007 V 24.08729 h 15.790259 v 0.430195 c 0,0.608514 -0.495226,1.10372 -1.103819,1.10372 z"
         id="path4-3-3"
         style="fill:#232627;fill-opacity:1;stroke-width:0.194667" />
      <path
         d="m 44.218073,20.183946 a 0.34086163,0.34086163 0 0 1 0,-0.402353 l 0.303658,-0.412987 a 0.34086163,0.34086163 0 0 0 -0.312011,-0.54052 l -0.508637,0.05543 a 0.34086163,0.34086163 0 0 1 -0.349968,-0.202688 l -0.20649,-0.4684 a 0.34086163,0.34086163 0 0 0 -0.624029,0 l -0.20649,0.4684 a 0.34086163,0.34086163 0 0 1 -0.348458,0.201184 l -0.508634,-0.05544 a 0.34086163,0.34086163 0 0 0 -0.312013,0.54052 l 0.303665,0.412983 a 0.34086163,0.34086163 0 0 1 0,0.402352 l -0.303665,0.412982 a 0.34086163,0.34086163 0 0 0 0.312013,0.540521 l 0.508634,-0.0554 a 0.34086163,0.34086163 0 0 1 0.348458,0.201177 l 0.20649,0.4684 a 0.34086163,0.34086163 0 0 0 0.624029,0 l 0.20649,-0.4684 a 0.34086163,0.34086163 0 0 1 0.34845,-0.201177 l 0.508636,0.0554 a 0.34086163,0.34086163 0 0 0 0.31201,-0.54052 z m -1.383948,0.677927 a 0.87910425,0.87910425 0 1 1 0.87683,-0.879108 0.87910425,0.87910425 0 0 1 -0.87683,0.879108 z m 0.948191,-2.256979 -0.23838,-0.137407 0.282413,-0.490412 0.238372,0.137406 z m -2.609987,1.222249 v 0.274813 L 40.606,20.096856 v -0.274874 z m 3.320555,0.318846 0.0044,-0.274821 0.566332,0.0095 -0.0044,0.274817 z m -2.353389,-1.68154 -0.239892,0.135136 -0.280127,-0.493457 0.239891,-0.135128 z m -0.267219,2.878726 0.237612,0.139689 -0.286961,0.488136 -0.236853,-0.139684 z m 1.706587,0.1283 0.235336,-0.142721 0.293796,0.483577 -0.235344,0.142723 z"
         id="path4-5"
         style="fill:#232627;fill-opacity:1;stroke-width:0.0759153" />
    </g>
  </g>
</svg>
