<?xml version="1.0" encoding="UTF-8" standalone="no"?>
<svg
   width="32"
   height="32"
   version="1.1"
   id="svg12"
   sodipodi:docname="video.svg"
   inkscape:version="1.1.2 (0a00cf5339, 2022-02-04)"
   xmlns:inkscape="http://www.inkscape.org/namespaces/inkscape"
   xmlns:sodipodi="http://sodipodi.sourceforge.net/DTD/sodipodi-0.dtd"
   xmlns="http://www.w3.org/2000/svg"
   xmlns:svg="http://www.w3.org/2000/svg"
   xmlns:rdf="http://www.w3.org/1999/02/22-rdf-syntax-ns#"
   xmlns:cc="http://creativecommons.org/ns#"
   xmlns:dc="http://purl.org/dc/elements/1.1/">
  <metadata
     id="metadata18">
    <rdf:RDF>
      <cc:Work
         rdf:about="">
        <dc:format>image/svg+xml</dc:format>
        <dc:type
           rdf:resource="http://purl.org/dc/dcmitype/StillImage" />
      </cc:Work>
    </rdf:RDF>
  </metadata>
  <defs
     id="defs16" />
  <sodipodi:namedview
     pagecolor="#ffffff"
     bordercolor="#666666"
     borderopacity="1"
     objecttolerance="10"
     gridtolerance="10"
     guidetolerance="10"
     inkscape:pageopacity="0"
     inkscape:pageshadow="2"
     inkscape:window-width="1920"
     inkscape:window-height="1002"
     id="namedview14"
     showgrid="false"
     inkscape:zoom="9.8125003"
     inkscape:cx="22.87898"
     inkscape:cy="23.999999"
     inkscape:window-x="0"
     inkscape:window-y="0"
     inkscape:window-maximized="1"
     inkscape:current-layer="svg12"
     inkscape:document-rotation="0"
     inkscape:pagecheckerboard="0"
     inkscape:lockguides="false">
    <inkscape:grid
       type="xygrid"
       id="grid988"
       originx="0"
       originy="0" />
  </sodipodi:namedview>
  <g
     id="video-display-brightness">
    <rect
       style="opacity:0.00100002;fill:#d6dbf1;fill-opacity:1"
       width="32"
       height="32"
       x="0"
       y="0"
       id="rect7" />
    <path
       d="M 26.400145,5 H 5.5998549 C 4.1663023,5 3,6.1411815 3,7.5441606 V 20.900428 C 3,22.303407 4.1663023,23 5.5998549,23 h 7.9349741 c -0.08914,1.13343 -0.429811,3 -0.981464,3 h -1.218138 c -0.322253,0 -0.583534,0.184651 -0.583534,0.5 0,0.315325 0.261281,0.5 0.583534,0.5 h 8.798327 c 0.322246,0 0.58351,-0.184675 0.58351,-0.5 0,-0.315349 -0.261264,-0.5 -0.58351,-0.5 h -1.218168 c -0.549438,0 -0.890501,-1.866583 -0.980771,-3 h 8.244014 C 27.73439,23 29,22.206113 29,20.683782 V 7.5441606 C 29,6.1411815 27.833685,5 26.400145,5 Z M 4,9 H 28 V 19 H 4 Z M 5.5998549,6 H 26.400145 C 27.190207,6 28,6.770859 28,7.544 V 8 H 4 V 7.5441606 C 4,6.7710196 4.8097849,6 5.5998549,6 Z M 17.326469,26 h -3.184163 c 0.386851,-0.780028 0.518084,-2.368007 0.561833,-3 h 2.060497 c 0.04371,0.631993 0.174983,2.219972 0.561833,3 z m 8.85216,-4 H 5.5998549 C 4.8097849,22 4,21.673566 4,20.900428 V 20 h 24 v 0.683782 C 28,21.576269 27.090773,22 26.178629,22 Z"
       id="path4-3"
       style="fill:#232627;fill-opacity:1;stroke-width:0.288621"
       sodipodi:nodetypes="ssssscsssssssscsssscccccsssccsscccccsssccss" />
    <path
       d="m 18.118113,14.319422 a 0.51129243,0.51129243 0 0 1 0,-0.603529 l 0.455478,-0.619487 a 0.51129243,0.51129243 0 0 0 -0.468011,-0.81078 l -0.762957,0.08319 a 0.51129243,0.51129243 0 0 1 -0.524948,-0.304042 l -0.309734,-0.7026 a 0.51129243,0.51129243 0 0 0 -0.936045,0 l -0.309734,0.7026 a 0.51129243,0.51129243 0 0 1 -0.522694,0.301767 l -0.76295,-0.0832 a 0.51129243,0.51129243 0 0 0 -0.468017,0.81078 l 0.455501,0.61948 a 0.51129243,0.51129243 0 0 1 0,0.603525 l -0.455501,0.619472 a 0.51129243,0.51129243 0 0 0 0.468017,0.81078 l 0.76295,-0.08308 a 0.51129243,0.51129243 0 0 1 0.522694,0.301771 l 0.309734,0.7026 a 0.51129243,0.51129243 0 0 0 0.936045,0 l 0.309734,-0.7026 a 0.51129243,0.51129243 0 0 1 0.52267,-0.301771 l 0.762956,0.08308 a 0.51129243,0.51129243 0 0 0 0.468011,-0.81078 z m -2.075928,1.016891 a 1.3186563,1.3186563 0 1 1 1.31525,-1.318668 1.3186563,1.3186563 0 0 1 -1.31525,1.318668 z m 1.422291,-3.385475 -0.357576,-0.206111 0.423628,-0.735612 0.357553,0.206106 z m -3.914987,1.833381 v 0.412217 L 12.7,14.189317 v -0.412314 z m 4.980835,0.478269 0.0064,-0.41224 0.8495,0.01417 -0.0064,0.412224 z M 15.000239,11.740169 14.640403,11.942881 14.220216,11.202688 14.580047,11 Z M 14.599416,16.058259 14.955828,16.2678 14.525387,17 14.170114,16.790476 Z m 2.559883,0.192456 0.353,-0.214081 0.440696,0.725358 -0.353023,0.214086 z"
       id="path4"
       style="fill:#232627;fill-opacity:1;stroke-width:0.113874" />
  </g>
  <g
     id="22-22-video-display-brightness">
    <rect
       style="opacity:0.00100002;fill:#d6dbf1;fill-opacity:1"
       width="22"
       height="22"
       x="32"
       y="10.000003"
       id="rect2" />
    <path
       d="m 43.912073,19.712949 a 0.34086163,0.34086163 0 0 1 0,-0.402353 l 0.303658,-0.412987 a 0.34086163,0.34086163 0 0 0 -0.312011,-0.54052 l -0.508637,0.05543 a 0.34086163,0.34086163 0 0 1 -0.349968,-0.202688 l -0.20649,-0.4684 a 0.34086163,0.34086163 0 0 0 -0.624029,0 l -0.20649,0.4684 a 0.34086163,0.34086163 0 0 1 -0.348458,0.201184 l -0.508634,-0.05544 a 0.34086163,0.34086163 0 0 0 -0.312013,0.54052 l 0.303665,0.412983 a 0.34086163,0.34086163 0 0 1 0,0.402352 l -0.303665,0.412982 a 0.34086163,0.34086163 0 0 0 0.312013,0.540521 l 0.508634,-0.0554 a 0.34086163,0.34086163 0 0 1 0.348458,0.201177 l 0.20649,0.4684 a 0.34086163,0.34086163 0 0 0 0.624029,0 l 0.20649,-0.4684 a 0.34086163,0.34086163 0 0 1 0.34845,-0.201177 l 0.508636,0.0554 a 0.34086163,0.34086163 0 0 0 0.31201,-0.54052 z m -1.383948,0.677927 a 0.87910425,0.87910425 0 1 1 0.87683,-0.879108 0.87910425,0.87910425 0 0 1 -0.87683,0.879108 z m 0.948191,-2.256979 -0.23838,-0.137407 0.282413,-0.490412 0.238372,0.137406 z m -2.609987,1.222249 v 0.274813 L 40.3,19.625859 v -0.274874 z m 3.320555,0.318846 0.0044,-0.274821 0.566332,0.0095 -0.0044,0.274817 z m -2.353389,-1.68154 -0.239892,0.135136 -0.280127,-0.493457 0.239891,-0.135128 z m -0.267219,2.878726 0.237612,0.139689 -0.286961,0.488136 -0.236853,-0.139684 z m 1.706587,0.1283 0.235336,-0.142721 0.293796,0.483577 -0.235344,0.142723 z"
       id="path4-5"
       style="fill:#232627;fill-opacity:1;stroke-width:0.0759153" />
    <path
       d="M 51.000116,13.000003 H 34.999888 c -1.102732,0 -1.999888,0.729652 -1.999888,1.75 v 9.65 c 0,1.020348 0.897156,1.6 1.999888,1.6 h 6.103828 c -0.06857,0.824312 -0.330625,2.272728 -0.754974,2.272728 h -0.937029 c -0.247888,0 -0.448872,0.134291 -0.448872,0.363636 0,0.229328 0.200984,0.363636 0.448872,0.363636 h 6.767941 c 0.247888,0 0.448861,-0.134308 0.448861,-0.363636 0,-0.229345 -0.200973,-0.363636 -0.448861,-0.363636 h -0.93705 c -0.422642,0 -0.685001,-1.448426 -0.754437,-2.272728 H 51 c 1.196732,0 2,-0.49285 2,-1.6 v -9.65 c 0,-1.020348 -0.897167,-1.75 -1.999884,-1.75 z m -17.000116,3 18,9e-4 v 6.9991 H 34 Z m 1.1,-2 h 15.8 c 0.607733,0 1.1,0.08772 1.1,0.65 v 0.35 H 34 v -0.25 c 0,-0.562284 0.492254,-0.75 1.1,-0.75 z m 8.920363,14.272728 H 41.571004 C 41.868583,27.705437 41.96635,26.459633 42,26.000003 h 1.588182 c 0.03365,0.45963 0.134603,1.705434 0.432181,2.272728 z M 50.9,25.000003 H 35.1 c -0.607746,0 -1.1,-0.07372 -1.1,-0.636 v -0.364 h 18 v 0.364 c 0,0.649081 -0.398353,0.636 -1.1,0.636 z"
       id="path4-3-36"
       style="fill:#232627;fill-opacity:1;stroke-width:0.215876"
       sodipodi:nodetypes="ssssscsssssssscsssscccccsssccsscccccsssccss" />
  </g>
</svg>
