<?xml version="1.0" encoding="UTF-8" standalone="no"?>
<svg
   width="32"
   height="32"
   version="1.1"
   style="enable-background:new"
   id="svg43"
   sodipodi:docname="view.svg"
   inkscape:version="1.2.2 (b0a8486541, 2022-12-01)"
   xmlns:inkscape="http://www.inkscape.org/namespaces/inkscape"
   xmlns:sodipodi="http://sodipodi.sourceforge.net/DTD/sodipodi-0.dtd"
   xmlns="http://www.w3.org/2000/svg"
   xmlns:svg="http://www.w3.org/2000/svg"
   xmlns:rdf="http://www.w3.org/1999/02/22-rdf-syntax-ns#"
   xmlns:cc="http://creativecommons.org/ns#"
   xmlns:dc="http://purl.org/dc/elements/1.1/">
  <metadata
     id="metadata47">
    <rdf:RDF>
      <cc:Work
         rdf:about="">
        <dc:format>image/svg+xml</dc:format>
        <dc:type
           rdf:resource="http://purl.org/dc/dcmitype/StillImage" />
      </cc:Work>
    </rdf:RDF>
  </metadata>
  <sodipodi:namedview
     pagecolor="#ffffff"
     bordercolor="#000000"
     borderopacity="1"
     objecttolerance="10"
     gridtolerance="10"
     guidetolerance="10"
     inkscape:pageopacity="0"
     inkscape:pageshadow="2"
     inkscape:window-width="1920"
     inkscape:window-height="1002"
     id="namedview45"
     showgrid="false"
     inkscape:zoom="8.0000001"
     inkscape:cx="8.4999999"
     inkscape:cy="16.0625"
     inkscape:window-x="0"
     inkscape:window-y="0"
     inkscape:window-maximized="1"
     inkscape:current-layer="svg43"
     inkscape:lockguides="false"
     inkscape:pagecheckerboard="0"
     showguides="false"
     inkscape:showpageshadow="2"
     inkscape:deskcolor="#d1d1d1">
    <inkscape:grid
       type="xygrid"
       id="grid833"
       originx="0"
       originy="0" />
  </sodipodi:namedview>
  <defs
     id="defs4">
    <linearGradient
       id="linearGradient5606"
       inkscape:swatch="solid">
      <stop
         id="stop5608"
         offset="0"
         style="stop-color:#000000" />
    </linearGradient>
  </defs>
  <g
     id="layer12-0"
     transform="translate(-453.06171,-24.01758)" />
  <g
     id="view-history">
    <rect
       width="32"
       height="32"
       x="0"
       y="0"
       style="opacity:0.00100002"
       id="rect14" />
    <path
       style="opacity:1;fill:#434c5e;fill-opacity:1;stroke-width:1.36364"
       d="M 16.003001,1.0677966 C 7.72651,1.0677966 1.003,7.7913137 1.003,16.067796 c 0,8.276489 6.72351,15.000002 15.000001,15.000001 8.276488,0 15.000003,-6.723512 14.999999,-15.000001 0,-8.2764823 -6.723511,-14.9999994 -14.999999,-14.9999994 z"
       id="path24"
       inkscape:connector-curvature="0" />
    <path
       d="M 16,7 9.63597,9.6359701 7,16 9.63597,22.36403 16,25 22.36403,22.36403 25,16 22.36049,9.6395101 Z M 16,25 9.63597,22.36403 7,16 9.63597,9.6359701 16,7 22.36049,9.6395101 25,16 22.36403,22.36403 Z M 16,7 C 13.61314,7 11.32399,7.94821 9.63597,9.6359701 7.94821,11.32399 7,13.61314 7,16 7,18.38686 7.94821,20.67601 9.63597,22.36403 11.32399,24.05179 13.61314,25 16,25 18.38686,25 20.676011,24.05179 22.36403,22.36403 24.05179,20.67601 25,18.38686 25,16 24.997,13.61391 24.04754,11.32675 22.36049,9.6395101 20.673251,7.95252 18.38609,7.00328 16,7 Z m 4.173811,13.17407 c -0.212691,0.21018 -0.49971,0.32796 -0.79881,0.32796 -0.2991,0 -0.586111,-0.11777 -0.798811,-0.32796 l -3.375,-3.375 c -0.20718,-0.21445 -0.32395,-0.50048 -0.3262,-0.79881 v -5.625 c 0,-0.4020399 0.21445,-0.77342 0.5625,-0.9743199 0.34805,-0.2008901 0.77695,-0.2008901 1.125,0 0.34804,0.2008999 0.5625,0.57229 0.5625,0.9743199 v 5.16368 l 3.04881,3.0375 c 0.21068,0.21245 0.328961,0.49947 0.328961,0.79882 0,0.29934 -0.118271,0.58635 -0.328961,0.79881 z"
       id="path2-3"
       sodipodi:nodetypes="ccccccccccccccccccccccscscccccscccssssccscc"
       style="fill:#d6dbf1;fill-opacity:1;stroke-width:0.0642857" />
  </g>
  <g
     id="view-refresh"
     transform="translate(32,16)">
    <path
       d="M 0,0 H 16 V 16 H 0 Z"
       style="opacity:0;fill:#ff0000"
       id="path6" />
    <path
       style="color:#000000;overflow:visible;fill:#4a5568;fill-opacity:1;stroke-width:0.533333"
       id="path984"
       overflow="visible"
       d="M 8,0 C 3.585707,0 0,3.585707 0,8 c 0,4.414293 3.585707,8 8,8 4.41376,0 8,-3.585707 8,-8 C 16,3.58624 12.414293,0 8,0 Z"
       inkscape:connector-curvature="0" />
    <path
       d="M 12.498136,5.3802237 C 12.308837,5.0772638 11.917452,4.9762638 11.601895,5.1530636 11.286323,5.34237 11.197925,5.7463242 11.387324,6.0618901 c 0.441831,0.7195337 0.656391,1.5778276 0.567989,2.4992679 -0.189301,1.943846 -1.792412,3.483834 -3.7362795,3.62268 C 5.8586068,12.347961 3.8894868,10.454571 3.9147344,8.1319977 3.9399967,5.9734896 5.7071403,4.1811239 7.8655998,4.1432639 h 0.025266 v 0.9592936 c 0,0.2776928 0.3029676,0.4544066 0.5427266,0.3029598 L 11.02122,3.7898231 c 0.22716,-0.1388457 0.22716,-0.467006 0,-0.6058534 L 8.4462087,1.5556093 C 8.2063624,1.4041693 7.9034896,1.5808708 7.9034896,1.8585762 V 2.8305374 C 4.8362031,2.8558004 2.3874232,5.4560303 2.6146298,8.573805 c 0.1893,2.612873 2.2973069,4.720849 4.9101797,4.910185 3.1304025,0.239848 5.7432765,-2.246822 5.7432765,-5.326726 0.01259,-1.0098264 -0.277707,-1.9690998 -0.769987,-2.7769663 z"
       id="path76"
       style="fill:#d6dbf1;fill-opacity:1;stroke-width:0.0225395" />
  </g>
</svg>
