<?xml version="1.0" encoding="UTF-8" standalone="no"?>
<svg
   width="32"
   height="32"
   version="1.1"
   id="svg22"
   sodipodi:docname="wallet.svg"
   inkscape:version="1.1.1 (3bf5ae0d25, 2021-09-20)"
   xmlns:inkscape="http://www.inkscape.org/namespaces/inkscape"
   xmlns:sodipodi="http://sodipodi.sourceforge.net/DTD/sodipodi-0.dtd"
   xmlns="http://www.w3.org/2000/svg"
   xmlns:svg="http://www.w3.org/2000/svg"
   xmlns:rdf="http://www.w3.org/1999/02/22-rdf-syntax-ns#"
   xmlns:cc="http://creativecommons.org/ns#"
   xmlns:dc="http://purl.org/dc/elements/1.1/">
  <metadata
     id="metadata28">
    <rdf:RDF>
      <cc:Work
         rdf:about="">
        <dc:format>image/svg+xml</dc:format>
        <dc:type
           rdf:resource="http://purl.org/dc/dcmitype/StillImage" />
      </cc:Work>
    </rdf:RDF>
  </metadata>
  <defs
     id="defs26" />
  <sodipodi:namedview
     pagecolor="#ffffff"
     bordercolor="#666666"
     borderopacity="1"
     objecttolerance="10"
     gridtolerance="10"
     guidetolerance="10"
     inkscape:pageopacity="0"
     inkscape:pageshadow="2"
     inkscape:window-width="1920"
     inkscape:window-height="1006"
     id="namedview24"
     showgrid="false"
     inkscape:zoom="5.6568543"
     inkscape:cx="64.346717"
     inkscape:cy="7.7781745"
     inkscape:window-x="0"
     inkscape:window-y="0"
     inkscape:window-maximized="1"
     inkscape:current-layer="svg22"
     inkscape:document-rotation="0"
     inkscape:pagecheckerboard="0">
    <inkscape:grid
       type="xygrid"
       id="grid930"
       originx="-0.032002"
       originy="-0.05732" />
  </sodipodi:namedview>
  <g
     id="g871"
     transform="translate(9.967997,-22.057321)" />
  <g
     id="wallet-open"
     style="fill:#232627;fill-opacity:1">
    <rect
       style="opacity:0.00100002;fill:#232627;fill-opacity:1"
       width="32"
       height="32"
       x="0"
       y="0"
       id="rect12-5-7" />
    <path
       style="color:#000000;text-indent:0;text-transform:none;direction:ltr;baseline-shift:baseline;fill:#232627;fill-opacity:1;stroke-width:0.307694;enable-background:accumulate"
       d="m 19.670854,15.039441 c -0.604588,0 -1.038467,0.530316 -1.038467,1.086565 v 5.182733 c 0,0.556218 0.433879,1.086529 1.038467,1.086529 h 8.87506 c 0.606464,0 1.028835,-0.530311 1.028835,-1.086529 v -5.182733 c 0,-0.556249 -0.422371,-1.086565 -1.028835,-1.086565 z m 2.692321,1.826938 c 1.01179,0 1.836563,0.834373 1.836563,1.846163 0,1.01182 -0.824773,1.846194 -1.836563,1.846194 -1.011728,0 -1.855763,-0.832466 -1.855763,-1.846194 0,-1.013697 0.844004,-1.846163 1.855763,-1.846163 z"
       fill-opacity="1"
       fill-rule="evenodd"
       stroke="none"
       marker="none"
       visibility="visible"
       display="inline"
       overflow="visible"
       id="path2" />
    <path
       style="color:#000000;text-indent:0;text-transform:none;direction:ltr;baseline-shift:baseline;fill:#232627;fill-opacity:1;stroke-width:0.307694;enable-background:accumulate"
       d="M 15.632372,4.000924 A 0.6153892,0.6153892 0 0 0 15.276617,4.183618 L 9.1900333,10.24134 h -2.721152 a 0.6153892,0.6153892 0 1 0 0,1.230775 H 26.670889 c 0.256924,0 0.432679,0.189075 0.432679,0.375002 v 1.788471 a 0.6153892,0.6153892 0 1 0 1.230775,0 v -1.788471 c 0,-0.898555 -0.76908,-1.605777 -1.663454,-1.605777 h -0.0096 l 0.0096,-1.576931 a 0.6153892,0.6153892 0 0 0 0,-0.01923 C 26.648397,7.965696 26.264764,7.410133 25.8055,7.068248 25.346236,6.726364 24.80011,6.549015 24.267031,6.549015 h -3.163493 a 0.6153892,0.6153892 0 1 0 0,1.230775 h 3.163493 c 0.227324,0 0.563941,0.10453 0.798065,0.278848 0.232278,0.172896 0.364833,0.366466 0.375018,0.615388 l -0.0096,1.567315 H 22.23819 L 16.141975,4.183619 a 0.6153892,0.6153892 0 0 0 -0.442279,-0.182694 0.6153892,0.6153892 0 0 0 -0.06732,0 z"
       fill-opacity="1"
       fill-rule="evenodd"
       stroke="none"
       marker="none"
       visibility="visible"
       display="inline"
       overflow="visible"
       id="path4" />
    <path
       style="color:#000000;text-indent:0;text-transform:none;direction:ltr;baseline-shift:baseline;fill:#232627;fill-opacity:1;stroke-width:0.307694;enable-background:accumulate"
       d="m 4.3989633,6.550263 c -1.113205,0 -1.898963,1.039067 -1.898963,2.171549 v 17.106642 c 0,1.132498 0.785758,2.171549 1.898963,2.171549 H 26.462026 c 1.113206,0 1.895979,-1.040528 1.895979,-2.171549 v -1.66047 a 0.6153892,0.6153892 0 1 0 -1.230683,0 v 1.66047 c 0,0.578434 -0.368556,0.940866 -0.665296,0.940866 H 4.3989633 c -0.29674,0 -0.668372,-0.363909 -0.668372,-0.940866 V 8.721812 c 0,-0.57695 0.371632,-0.940964 0.668372,-0.940964 h 6.0675987 a 0.6153892,0.6153892 0 1 0 0,-1.230585 z"
       fill-opacity="1"
       fill-rule="evenodd"
       stroke="none"
       marker="none"
       visibility="visible"
       display="inline"
       overflow="visible"
       id="path6" />
  </g>
  <g
     id="wallet-closed"
     style="fill:#232627;fill-opacity:1">
    <rect
       style="opacity:0.00100002;fill:#232627;fill-opacity:1"
       width="32"
       height="32"
       x="32.09"
       y="9.7737734e-07"
       id="rect12-5" />
    <path
       style="color:#000000;text-indent:0;text-transform:none;direction:ltr;baseline-shift:baseline;fill:#232627;fill-opacity:1;stroke-width:0.307694;enable-background:accumulate"
       d="m 52.275676,14.99043 c -0.604588,0 -1.038467,0.530316 -1.038467,1.086565 v 5.182733 c 0,0.556218 0.433879,1.086529 1.038467,1.086529 h 8.875059 c 0.606465,0 1.028836,-0.530311 1.028836,-1.086529 v -5.182733 c 0,-0.556249 -0.422371,-1.086565 -1.028836,-1.086565 z m 2.692321,1.826938 c 1.01179,0 1.836563,0.834373 1.836563,1.846163 0,1.01182 -0.824773,1.846194 -1.836563,1.846194 -1.011728,0 -1.855763,-0.832466 -1.855763,-1.846194 0,-1.013697 0.844004,-1.846163 1.855763,-1.846163 z"
       fill-opacity="1"
       fill-rule="evenodd"
       stroke="none"
       marker="none"
       visibility="visible"
       display="inline"
       overflow="visible"
       id="path2-6" />
    <path
       style="color:#000000;text-indent:0;text-transform:none;direction:ltr;baseline-shift:baseline;fill:#232627;fill-opacity:1;stroke-width:0.307694;enable-background:accumulate"
       d="m 41.794855,10.192329 v 0 0 h -2.721152 c -0.822353,-0.0018 -0.822353,1.232615 0,1.230775 h 20.202008 c 0.256924,0 0.432679,0.189075 0.432679,0.375002 v 1.788471 c -0.0018,0.822354 1.232614,0.822354 1.230775,0 v -1.788471 c 0,-0.898555 -0.769081,-1.605777 -1.663454,-1.605777 h -0.0096 l 0.0096,-1.5769309 c 10e-5,-0.0064 10e-5,-0.012831 0,-0.019231 C 59.253218,7.9166838 58.869586,7.3611211 58.410322,7.0192363 57.951058,6.6773516 57.404932,6.500003 56.871853,6.500003 H 43.008 l 0.1,1.2307753 h 13.763853 c 0.227324,0 0.563941,0.1045298 0.798065,0.2788475 0.232278,0.1728963 0.364833,0.3664665 0.375017,0.6153877 l -0.0096,1.5673155 h -3.192323 v 0 0 z"
       fill-opacity="1"
       fill-rule="evenodd"
       stroke="none"
       marker="none"
       visibility="visible"
       display="inline"
       overflow="visible"
       id="path4-7"
       sodipodi:nodetypes="cccccssccsscccssccsccccccc" />
    <path
       style="color:#000000;text-indent:0;text-transform:none;direction:ltr;baseline-shift:baseline;fill:#232627;fill-opacity:1;stroke-width:0.307694;enable-background:accumulate"
       d="m 37.003785,6.5012522 c -1.113205,0 -1.898963,1.0390667 -1.898963,2.1715492 V 25.779443 c 0,1.132498 0.785758,2.171549 1.898963,2.171549 h 22.063063 c 1.113206,0 1.895979,-1.040528 1.895979,-2.171549 v -1.66047 c 0.01034,-0.830735 -1.241027,-0.830735 -1.230683,0 v 1.66047 c 0,0.578434 -0.368556,0.940866 -0.665296,0.940866 H 37.003785 c -0.29674,0 -0.668372,-0.363909 -0.668372,-0.940866 V 8.6728014 c 0,-0.5769505 0.371632,-0.9409646 0.668372,-0.9409646 h 6.067599 V 6.5012522 Z"
       fill-opacity="1"
       fill-rule="evenodd"
       stroke="none"
       marker="none"
       visibility="visible"
       display="inline"
       overflow="visible"
       id="path6-5"
       sodipodi:nodetypes="ssssssccssssssccs" />
  </g>
  <g
     id="22-22-wallet-open"
     style="fill:#232627;fill-opacity:1">
    <rect
       style="opacity:0.00100002;fill:#232627;fill-opacity:1;stroke-width:0.6875"
       width="22"
       height="22"
       x="-0.055000305"
       y="-22.017908"
       id="rect12-7" />
    <path
       style="color:#000000;text-indent:0;text-transform:none;direction:ltr;baseline-shift:baseline;fill:#232627;fill-opacity:1;stroke-width:0.205129;enable-background:accumulate"
       d="m 13.342234,-11.658281 c -0.403058,0 -0.692311,0.353545 -0.692311,0.724377 v 3.455155 c 0,0.370813 0.289253,0.724353 0.692311,0.724353 h 5.916706 c 0.40431,0 0.68589,-0.35354 0.68589,-0.724353 v -3.455155 c 0,-0.370832 -0.28158,-0.724377 -0.68589,-0.724377 z m 1.794881,1.217959 c 0.674526,0 1.224375,0.556248 1.224375,1.230776 0,0.674546 -0.549849,1.230795 -1.224375,1.230795 -0.674486,0 -1.237176,-0.554977 -1.237176,-1.230795 0,-0.675799 0.562669,-1.230776 1.237176,-1.230776 z"
       fill-opacity="1"
       fill-rule="evenodd"
       stroke="none"
       marker="none"
       visibility="visible"
       display="inline"
       overflow="visible"
       id="path2-62" />
    <path
       style="color:#000000;text-indent:0;text-transform:none;direction:ltr;baseline-shift:baseline;fill:#232627;fill-opacity:1;stroke-width:0.205129;enable-background:accumulate"
       d="m 10.649913,-19.017292 a 0.41025947,0.41025947 0 0 0 -0.237171,0.121796 l -4.0577217,4.038481 h -1.814101 a 0.41025947,0.41025947 0 1 0 0,0.820517 H 18.008924 c 0.171282,0 0.288452,0.12605 0.288452,0.250001 v 1.192314 a 0.41025947,0.41025947 0 1 0 0.820517,0 v -1.192314 c 0,-0.599037 -0.512721,-1.070518 -1.108969,-1.070518 h -0.0064 l 0.0064,-1.051287 a 0.41025947,0.41025947 0 0 0 0,-0.01282 c -0.015,-0.452989 -0.27075,-0.823364 -0.576926,-1.051287 -0.306176,-0.227923 -0.67026,-0.346156 -1.025646,-0.346156 h -2.108996 a 0.41025947,0.41025947 0 1 0 0,0.820517 h 2.108996 c 0.151549,0 0.37596,0.06969 0.532044,0.185898 0.154852,0.115265 0.243221,0.244311 0.250011,0.410259 l -0.0064,1.044877 h -2.128216 l -4.064103,-4.038482 a 0.41025947,0.41025947 0 0 0 -0.294853,-0.121795 0.41025947,0.41025947 0 0 0 -0.04488,0 z"
       fill-opacity="1"
       fill-rule="evenodd"
       stroke="none"
       marker="none"
       visibility="visible"
       display="inline"
       overflow="visible"
       id="path4-91" />
    <path
       style="color:#000000;text-indent:0;text-transform:none;direction:ltr;baseline-shift:baseline;fill:#232627;fill-opacity:1;stroke-width:0.205129;enable-background:accumulate"
       d="m 3.1609743,-17.317733 c -0.742138,0 -1.265976,0.692712 -1.265976,1.4477 v 11.404428 c 0,0.754998 0.523838,1.447699 1.265976,1.447699 H 17.869682 c 0.742137,0 1.263986,-0.693686 1.263986,-1.447699 v -1.10698 a 0.41025947,0.41025947 0 1 0 -0.820456,0 v 1.10698 c 0,0.385622 -0.245703,0.627244 -0.44353,0.627244 H 3.1609743 c -0.197827,0 -0.445582,-0.242606 -0.445582,-0.627244 v -11.404428 c 0,-0.384634 0.247755,-0.62731 0.445582,-0.62731 h 4.045065 a 0.41025947,0.41025947 0 1 0 0,-0.82039 z"
       fill-opacity="1"
       fill-rule="evenodd"
       stroke="none"
       marker="none"
       visibility="visible"
       display="inline"
       overflow="visible"
       id="path6-2" />
  </g>
  <g
     id="22-22-wallet-closed"
     style="fill:#232627;fill-opacity:1">
    <rect
       style="opacity:0.00100002;fill:#232627;fill-opacity:1;stroke-width:0.6875"
       width="22"
       height="22"
       x="32.016998"
       y="-21.888319"
       id="rect12-7-6" />
    <path
       style="color:#000000;text-indent:0;text-transform:none;direction:ltr;baseline-shift:baseline;fill:#232627;fill-opacity:1;stroke-width:0.20512;enable-background:accumulate"
       d="m 45.463705,-11.730293 c -0.40304,0 -0.692279,0.353528 -0.692279,0.724343 v 3.4549963 c 0,0.3707949 0.289239,0.7243188 0.692279,0.7243188 h 5.916432 c 0.404291,0 0.685859,-0.3535239 0.685859,-0.7243188 V -11.00595 c 0,-0.370815 -0.281568,-0.724343 -0.685859,-0.724343 z m 1.794797,1.217903 c 0.674496,0 1.224319,0.5562227 1.224319,1.2307179 0,0.6745158 -0.549823,1.230739 -1.224319,1.230739 -0.674454,0 -1.237118,-0.5549515 -1.237118,-1.230739 0,-0.6757669 0.562644,-1.2307179 1.237118,-1.2307179 z"
       fill-opacity="1"
       fill-rule="evenodd"
       stroke="none"
       marker="none"
       visibility="visible"
       display="inline"
       overflow="visible"
       id="path2-6-06" />
    <path
       style="color:#000000;text-indent:0;text-transform:none;direction:ltr;baseline-shift:baseline;fill:#232627;fill-opacity:1;stroke-width:0.20512;enable-background:accumulate"
       d="m 38.476814,-14.728562 v 0 0 h -1.814018 c -0.54821,-0.0012 -0.54821,0.821706 0,0.820479 h 13.467383 c 0.171275,0 0.288439,0.126044 0.288439,0.24999 v 1.192258 c -0.0012,0.548211 0.821705,0.548211 0.820479,0 v -1.192258 c 0,-0.599009 -0.512697,-1.070469 -1.108918,-1.070469 h -0.0064 l 0.0064,-1.051239 c 6.7e-5,-0.0043 6.7e-5,-0.0086 0,-0.01282 -0.01499,-0.452968 -0.270738,-0.823326 -0.576899,-1.051238 -0.306162,-0.227913 -0.670229,-0.34614 -1.025599,-0.34614 H 39.319 v 0.820479 h 9.208681 c 0.151542,0 0.375943,0.06968 0.532019,0.18589 0.154845,0.115259 0.24321,0.2443 0.25,0.410239 l -0.0064,1.044829 h -2.128117 v 0 0 z"
       fill-opacity="1"
       fill-rule="evenodd"
       stroke="none"
       marker="none"
       visibility="visible"
       display="inline"
       overflow="visible"
       id="path4-7-2"
       sodipodi:nodetypes="cccccssccsscccssccsccccccc" />
    <path
       style="color:#000000;text-indent:0;text-transform:none;direction:ltr;baseline-shift:baseline;fill:#232627;fill-opacity:1;stroke-width:0.20512;enable-background:accumulate"
       d="m 35.282915,-17.189255 c -0.742103,0 -1.265917,0.692679 -1.265917,1.447632 v 11.4038905 c 0,0.7549637 0.523814,1.4476326 1.265917,1.4476326 h 14.708029 c 0.742102,0 1.263927,-0.6936535 1.263927,-1.4476326 v -1.1069287 c 0.0069,-0.5537664 -0.827282,-0.5537664 -0.820418,0 v 1.1069287 c 0,0.3856046 -0.245692,0.6272151 -0.443509,0.6272151 H 35.282915 c -0.197818,0 -0.445561,-0.2425951 -0.445561,-0.6272151 V -15.741623 c 0,-0.384616 0.247743,-0.627281 0.445561,-0.627281 h 4.044879 v -0.820351 z"
       fill-opacity="1"
       fill-rule="evenodd"
       stroke="none"
       marker="none"
       visibility="visible"
       display="inline"
       overflow="visible"
       id="path6-5-6"
       sodipodi:nodetypes="ssssssccssssssccs" />
  </g>
</svg>
