<?xml version="1.0" encoding="UTF-8" standalone="no"?>
<svg
   version="1.1"
   viewBox="0 0 32 32"
   id="svg7"
   sodipodi:docname="system-reboot.svg"
   inkscape:version="1.1.1 (3bf5ae0d25, 2021-09-20)"
   xmlns:inkscape="http://www.inkscape.org/namespaces/inkscape"
   xmlns:sodipodi="http://sodipodi.sourceforge.net/DTD/sodipodi-0.dtd"
   xmlns="http://www.w3.org/2000/svg"
   xmlns:svg="http://www.w3.org/2000/svg">
  <sodipodi:namedview
     id="namedview9"
     pagecolor="#ffffff"
     bordercolor="#666666"
     borderopacity="1.0"
     inkscape:pageshadow="2"
     inkscape:pageopacity="0.0"
     inkscape:pagecheckerboard="0"
     showgrid="false"
     inkscape:zoom="9.71875"
     inkscape:cx="-8.9517685"
     inkscape:cy="7.6141479"
     inkscape:window-width="1920"
     inkscape:window-height="1006"
     inkscape:window-x="0"
     inkscape:window-y="0"
     inkscape:window-maximized="1"
     inkscape:current-layer="svg7" />
  <defs
     id="defs3">
    <style
       type="text/css"
       id="current-color-scheme">
            .ColorScheme-Text {
                color:#eff0f1;
            }
        </style>
  </defs>
  <path
     style="color:#000000;overflow:visible;opacity:0.3;fill:#3b5a87;fill-opacity:1;stroke-width:0.8"
     id="path984"
     overflow="visible"
     d="M 16,4 C 9.37856,4 4,9.37856 4,16 4,22.62144 9.37856,28 16,28 22.62064,28 28,22.62144 28,16 28,9.37936 22.62144,4 16,4 Z"
     inkscape:connector-curvature="0" />
  <path
     d="m 21.477759,13.456267 c -0.22716,-0.363552 -0.696823,-0.484752 -1.075495,-0.272592 -0.37868,0.227168 -0.484759,0.711912 -0.257488,1.090592 0.5302,0.86344 0.787672,1.893392 0.681592,2.99912 -0.22716,2.332608 -2.150887,4.1806 -4.483534,4.347216 -2.832512,0.196944 -5.195455,-2.07512 -5.165159,-4.862208 0.03032,-2.590208 2.150888,-4.741048 4.741039,-4.78648 h 0.03032 v 1.151152 c 0,0.333232 0.36356,0.545288 0.651271,0.363552 l 3.105151,-1.938832 c 0.272592,-0.166616 0.272592,-0.560407 0,-0.727023 L 16.615449,8.8667314 c -0.287815,-0.181728 -0.651263,0.03032 -0.651263,0.36356 v 1.1663526 c -3.680744,0.03032 -6.619278,3.150591 -6.34663,6.891919 0.22716,3.135448 2.756767,5.665016 5.892214,5.892224 3.756478,0.287816 6.891925,-2.696184 6.891925,-6.392072 0.01512,-1.211792 -0.33324,-2.36292 -0.923975,-3.33236 z"
     id="path76"
     style="fill:#c0c5d9;fill-opacity:1;stroke-width:0.0270484" />
</svg>
