<?xml version="1.0" encoding="UTF-8" standalone="no"?>
<svg
   viewBox="0 0 32 32"
   version="1.1"
   id="svg6"
   sodipodi:docname="system-log-out.svg"
   inkscape:version="1.1.1 (3bf5ae0d25, 2021-09-20)"
   xmlns:inkscape="http://www.inkscape.org/namespaces/inkscape"
   xmlns:sodipodi="http://sodipodi.sourceforge.net/DTD/sodipodi-0.dtd"
   xmlns="http://www.w3.org/2000/svg"
   xmlns:svg="http://www.w3.org/2000/svg">
  <sodipodi:namedview
     id="namedview8"
     pagecolor="#ffffff"
     bordercolor="#666666"
     borderopacity="1.0"
     inkscape:pageshadow="2"
     inkscape:pageopacity="0.0"
     inkscape:pagecheckerboard="0"
     showgrid="false"
     inkscape:zoom="9.71875"
     inkscape:cx="4.4244373"
     inkscape:cy="14.610932"
     inkscape:window-width="1920"
     inkscape:window-height="1006"
     inkscape:window-x="0"
     inkscape:window-y="0"
     inkscape:window-maximized="1"
     inkscape:current-layer="svg6" />
  <defs
     id="defs3051">
    <style
       type="text/css"
       id="current-color-scheme">
      .ColorScheme-Text {
        color:#eff0f1;
      }
      </style>
  </defs>
  <path
     style="color:#000000;overflow:visible;opacity:0.3;fill:#3b5a87;fill-opacity:1;stroke-width:0.8"
     id="path1105"
     overflow="visible"
     d="M 16,4 C 9.37928,4 4,9.37928 4,16 4,22.62072 9.37928,28 16,28 22.62072,28 28,22.62072 28,16 28,9.37928 22.62072,4 16,4 Z"
     inkscape:connector-curvature="0" />
  <path
     d="m 22.266448,16.278001 -4.136232,3.605463 C 18.044716,19.958084 17.928776,20 17.807864,20 17.558896,19.9943 17.406928,19.861675 17.351872,19.60251 v -1.618154 h -7.29588 c -0.1209202,0 -0.2369522,-0.04156 -0.3224482,-0.116346 -0.0855,-0.0745 -0.133544,-0.17572 -0.133544,-0.28104 v -3.179827 c 0,-0.105437 0.048,-0.206529 0.133544,-0.28104 0.0855,-0.07463 0.201528,-0.116461 0.3224482,-0.116461 h 7.29588 v -1.618148 c 0.0032,-0.104156 0.0524,-0.203261 0.13772,-0.276241 0.08518,-0.07302 0.199704,-0.114372 0.319192,-0.115248 0.119592,-5.03e-4 0.234808,0.03891 0.321432,0.110532 l 4.13624,3.60546 c 0.0855,0.07452 0.133544,0.175547 0.133544,0.280964 0,0.10542 -0.048,0.206455 -0.133544,0.280964 z"
     id="path2"
     style="fill:#c0c5d9;fill-opacity:1;stroke-width:0.0243273" />
</svg>
