<?xml version="1.0" encoding="UTF-8" standalone="no"?>
<svg
   width="32"
   version="1.1"
   height="32"
   viewBox="0 0 32 32"
   id="svg2"
   inkscape:version="1.1.1 (3bf5ae0d25, 2021-09-20)"
   sodipodi:docname="favorites.svg"
   xmlns:inkscape="http://www.inkscape.org/namespaces/inkscape"
   xmlns:sodipodi="http://sodipodi.sourceforge.net/DTD/sodipodi-0.dtd"
   xmlns:xlink="http://www.w3.org/1999/xlink"
   xmlns="http://www.w3.org/2000/svg"
   xmlns:svg="http://www.w3.org/2000/svg"
   xmlns:rdf="http://www.w3.org/1999/02/22-rdf-syntax-ns#"
   xmlns:cc="http://creativecommons.org/ns#"
   xmlns:dc="http://purl.org/dc/elements/1.1/">
  <sodipodi:namedview
     pagecolor="#ffffff"
     bordercolor="#666666"
     borderopacity="1"
     objecttolerance="10"
     gridtolerance="10"
     guidetolerance="10"
     inkscape:pageopacity="0"
     inkscape:pageshadow="2"
     inkscape:window-width="1920"
     inkscape:window-height="1006"
     id="namedview19"
     showgrid="false"
     inkscape:zoom="7.375"
     inkscape:cx="-16.813559"
     inkscape:cy="5.1525424"
     inkscape:window-x="0"
     inkscape:window-y="0"
     inkscape:window-maximized="1"
     inkscape:current-layer="layer1"
     inkscape:document-rotation="0"
     inkscape:pagecheckerboard="0" />
  <defs
     id="defs5455">
    <linearGradient
       inkscape:collect="always"
       xlink:href="#linearGradient860-6"
       id="linearGradient862-3"
       x1="113.94677"
       y1="255.36646"
       x2="406.08289"
       y2="255.36646"
       gradientUnits="userSpaceOnUse"
       gradientTransform="matrix(0.10135135,0,0,0.09220346,374.22014,507.65423)" />
    <linearGradient
       inkscape:collect="always"
       id="linearGradient860-6">
      <stop
         style="stop-color:#78acd3;stop-opacity:1"
         offset="0"
         id="stop856-7" />
      <stop
         style="stop-color:#d98cbb;stop-opacity:1"
         offset="1"
         id="stop858-5" />
    </linearGradient>
    <linearGradient
       inkscape:collect="always"
       xlink:href="#linearGradient842"
       id="linearGradient844-3"
       x1="386.30627"
       y1="522.45404"
       x2="446.83023"
       y2="522.45404"
       gradientUnits="userSpaceOnUse"
       gradientTransform="matrix(0.49567132,0,0,0.49972085,194.0905,274.04968)" />
    <linearGradient
       inkscape:collect="always"
       id="linearGradient842">
      <stop
         style="stop-color:#326e9a;stop-opacity:1"
         offset="0"
         id="stop838" />
      <stop
         style="stop-color:#339993;stop-opacity:1"
         offset="1"
         id="stop840" />
    </linearGradient>
  </defs>
  <metadata
     id="metadata5458">
    <rdf:RDF>
      <cc:Work
         rdf:about="">
        <dc:format>image/svg+xml</dc:format>
        <dc:type
           rdf:resource="http://purl.org/dc/dcmitype/StillImage" />
      </cc:Work>
    </rdf:RDF>
  </metadata>
  <g
     inkscape:label="Capa 1"
     inkscape:groupmode="layer"
     id="layer1"
     transform="translate(-384.57143,-515.798)">
    <path
       style="fill:url(#linearGradient862-3);fill-opacity:1;stroke-width:0.089569"
       d="m 400.57301,522.37782 c -0.44016,0 -0.96119,-0.25824 -1.15846,-0.57392 l -0.88505,-1.41859 c -0.19637,-0.31567 -0.7174,-0.57334 -1.1574,-0.57391 l -10.20056,-0.0134 c -0.973,-10e-4 -1.3831,0.46748 -1.39693,1.50207 l -0.006,0.43614 v 1.28321 18.28579 c 0,0.35288 1.16036,1.28321 1.60036,1.28321 h 26.40757 c 0.44001,0 1.60036,-0.93033 1.60036,-1.28321 v -17.64418 c 0,-0.96241 -0.40002,-1.28321 -1.60036,-1.28321 z"
       id="path4-3-5"
       sodipodi:nodetypes="sccsssccsssssss" />
    <path
       style="fill:#f2f2f2;fill-opacity:1;stroke-width:0.0882825"
       d="m 413.46046,529.22773 c 0,0.66274 -0.39788,1.20497 -1.30857,1.20497 H 389.0541 c -0.9107,0 -1.25926,-0.54223 -1.25926,-1.20497 v -3.61492 c 0,-0.66274 0.34856,-1.20498 1.25926,-1.20498 h 23.04822 c 0.91069,0 1.35814,0.54224 1.35814,1.20498 z"
       id="path8-6-6"
       sodipodi:nodetypes="sssssssss" />
    <path
       style="fill:url(#linearGradient844-3);fill-opacity:1;stroke-width:0.09667"
       d="m 413.94973,526.46374 h -26.7566 c -0.81091,0 -1.6217,0.73763 -1.6217,1.47526 v 14.38374 c 0,0.97553 0.62711,1.47525 1.6217,1.47525 h 26.7566 c 0.99775,0 1.6217,-0.49972 1.6217,-1.47525 V 527.939 c 0,-0.73763 -0.8108,-1.47526 -1.6217,-1.47526 z"
       id="path10-2"
       sodipodi:nodetypes="sssssssss" />
    <path
       d="m 406.24414,537.45841 c -0.10921,0.10999 -0.27651,0.11639 -0.39846,0.0305 l -0.008,0.008 -0.22217,-0.22433 c -0.61328,-0.61905 -0.61328,-1.62288 0,-2.24201 0.12258,-0.12365 0.32148,-0.12365 0.44408,0 0.12293,0.12384 0.12293,0.32464 0,0.44826 -0.36776,0.37166 -0.36776,0.97391 0,1.34521 l 0.2222,0.2243 -0.008,0.008 c 0.0853,0.1241 0.079,0.29181 -0.0298,0.40216 z m 0.81214,-2.21956 c -0.12293,-0.12368 -0.12293,-0.32446 0,-0.44821 0.12268,-0.12409 0.32152,-0.12409 0.44407,0 0.12266,0.12375 0.12266,0.32453 0,0.44821 -0.12255,0.12382 -0.32139,0.12382 -0.44407,0 z m 6.11084,2.93086 -2.01476,2.03349 c -0.12252,0.12377 -0.32142,0.12377 -0.44399,0 -0.12302,-0.12378 -0.12302,-0.32444 0,-0.44833 l 1.79255,-1.80946 0.22193,-0.22441 c 0.78016,-0.78756 0.85867,-2.27188 0,-3.13882 -0.85853,-0.86662 -2.25059,-0.86662 -3.10915,0 l -0.21982,0.22185 v 0 c -0.11397,0.11605 -0.27193,0.18842 -0.44674,0.18842 -0.17455,0 -0.33245,-0.0724 -0.4464,-0.18842 v 0 l -0.21977,-0.22185 c -0.85848,-0.86662 -2.25071,-0.86662 -3.10917,0 -0.85885,0.86694 -0.79988,2.33181 0,3.13882 l 0.66628,0.67275 3.33128,3.36318 c 0.12259,0.12363 0.12259,0.32442 0,0.44833 -0.12262,0.12364 -0.32139,0.12364 -0.44406,0 l -1.77691,-1.79348 -2.22095,-2.24207 c -1.04501,-1.05492 -1.10396,-2.92138 0,-4.03581 1.1039,-1.11454 2.89387,-1.11454 3.99783,0 l 0.22213,0.22431 0.22194,-0.22431 c 1.10392,-1.11454 2.89386,-1.11454 3.99776,0 1.10417,1.11443 1.0058,3.02015 2e-5,4.03581 z m -2.79521,2.37324 c 0.12251,0.12364 0.12251,0.32443 0,0.44848 -0.12247,0.1239 -0.32148,0.1239 -0.44448,0 -0.12252,-0.12405 -0.12252,-0.32484 0,-0.44848 0.12299,-0.1239 0.32198,-0.1239 0.44448,0 z"
       id="path2"
       style="fill:#f2f2f2;fill-opacity:1;stroke-width:0.0197238" />
  </g>
</svg>
