<?xml version="1.0" encoding="UTF-8" standalone="no"?>
<svg
   width="32"
   version="1.1"
   height="32"
   viewBox="0 0 32 32"
   id="svg17"
   sodipodi:docname="folder-print.svg"
   inkscape:version="1.1.1 (3bf5ae0d25, 2021-09-20)"
   xmlns:inkscape="http://www.inkscape.org/namespaces/inkscape"
   xmlns:sodipodi="http://sodipodi.sourceforge.net/DTD/sodipodi-0.dtd"
   xmlns:xlink="http://www.w3.org/1999/xlink"
   xmlns="http://www.w3.org/2000/svg"
   xmlns:svg="http://www.w3.org/2000/svg"
   xmlns:rdf="http://www.w3.org/1999/02/22-rdf-syntax-ns#"
   xmlns:cc="http://creativecommons.org/ns#"
   xmlns:dc="http://purl.org/dc/elements/1.1/">
  <sodipodi:namedview
     pagecolor="#ffffff"
     bordercolor="#666666"
     borderopacity="1"
     objecttolerance="10"
     gridtolerance="10"
     guidetolerance="10"
     inkscape:pageopacity="0"
     inkscape:pageshadow="2"
     inkscape:window-width="1920"
     inkscape:window-height="1006"
     id="namedview19"
     showgrid="false"
     inkscape:zoom="9.8125"
     inkscape:cx="-10.089172"
     inkscape:cy="14.77707"
     inkscape:window-x="0"
     inkscape:window-y="0"
     inkscape:window-maximized="1"
     inkscape:current-layer="layer1"
     inkscape:document-rotation="0"
     inkscape:pagecheckerboard="0" />
  <defs
     id="defs5455">
    <linearGradient
       inkscape:collect="always"
       xlink:href="#linearGradient860-3"
       id="linearGradient862"
       x1="113.94677"
       y1="255.36646"
       x2="406.08289"
       y2="255.36646"
       gradientUnits="userSpaceOnUse"
       gradientTransform="matrix(0.10135135,0,0,0.09220346,374.22015,507.65425)" />
    <linearGradient
       inkscape:collect="always"
       id="linearGradient860-3">
      <stop
         style="stop-color:#78acd3;stop-opacity:1"
         offset="0"
         id="stop856-6" />
      <stop
         style="stop-color:#d98cbb;stop-opacity:1"
         offset="1"
         id="stop858-7" />
    </linearGradient>
    <linearGradient
       inkscape:collect="always"
       xlink:href="#linearGradient842-3"
       id="linearGradient844-5"
       x1="386.30627"
       y1="522.45404"
       x2="446.83023"
       y2="522.45404"
       gradientUnits="userSpaceOnUse"
       gradientTransform="matrix(0.49567132,0,0,0.49972085,194.0905,274.0497)" />
    <linearGradient
       inkscape:collect="always"
       id="linearGradient842-3">
      <stop
         style="stop-color:#326e9a;stop-opacity:1"
         offset="0"
         id="stop838-5" />
      <stop
         style="stop-color:#339993;stop-opacity:1"
         offset="1"
         id="stop840-6" />
    </linearGradient>
  </defs>
  <metadata
     id="metadata5458">
    <rdf:RDF>
      <cc:Work
         rdf:about="">
        <dc:format>image/svg+xml</dc:format>
        <dc:type
           rdf:resource="http://purl.org/dc/dcmitype/StillImage" />
      </cc:Work>
    </rdf:RDF>
  </metadata>
  <g
     inkscape:label="Capa 1"
     inkscape:groupmode="layer"
     id="layer1"
     transform="translate(-384.57143,-515.798)">
    <path
       style="fill:url(#linearGradient862);fill-opacity:1;stroke-width:0.089569"
       d="m 400.57301,522.37783 c -0.44016,0 -0.96119,-0.25824 -1.15846,-0.57392 l -0.88505,-1.41859 c -0.19637,-0.31567 -0.7174,-0.57334 -1.1574,-0.57391 l -10.20056,-0.0134 c -0.973,-0.002 -1.3831,0.46748 -1.39693,1.50207 l -0.006,0.43614 v 1.28321 18.28579 c 0,0.35288 1.16036,1.28321 1.60036,1.28321 h 26.40757 c 0.44001,0 1.60036,-0.93033 1.60036,-1.28321 v -17.64418 c 0,-0.96241 -0.40002,-1.28321 -1.60036,-1.28321 z"
       id="path4-3-2"
       sodipodi:nodetypes="sccsssccsssssss" />
    <path
       style="fill:#f2f2f2;fill-opacity:1;stroke-width:0.0882825"
       d="m 413.46046,529.22774 c 0,0.66274 -0.39788,1.20497 -1.30857,1.20497 H 389.0541 c -0.9107,0 -1.25926,-0.54223 -1.25926,-1.20497 v -3.61492 c 0,-0.66274 0.34856,-1.20498 1.25926,-1.20498 h 23.04822 c 0.91069,0 1.35814,0.54224 1.35814,1.20498 z"
       id="path8-6"
       sodipodi:nodetypes="sssssssss" />
    <path
       style="fill:url(#linearGradient844-5);fill-opacity:1;stroke-width:0.09667"
       d="m 413.94973,526.46375 h -26.7566 c -0.81091,0 -1.6217,0.73763 -1.6217,1.47526 v 14.38374 c 0,0.97553 0.62711,1.47525 1.6217,1.47525 h 26.7566 c 0.99775,0 1.6217,-0.49972 1.6217,-1.47525 v -14.38374 c 0,-0.73763 -0.8108,-1.47526 -1.6217,-1.47526 z"
       id="path10-9"
       sodipodi:nodetypes="sssssssss" />
    <path
       d="m 409.85294,539.48546 h 1.12474 c 0.15546,0 0.28125,0.12607 0.28125,0.28153 0,0.1549 -0.12579,0.28125 -0.28125,0.28125 h -1.12474 c -0.15546,0 -0.28132,-0.12635 -0.28132,-0.28125 -2e-5,-0.15546 0.12586,-0.28153 0.28132,-0.28153 z m -1.40662,0.28153 c 0,-0.15546 0.12593,-0.28153 0.2814,-0.28153 0.15531,0 0.28125,0.12607 0.28125,0.28153 0,0.1549 -0.12595,0.28125 -0.28125,0.28125 -0.15547,0 -0.2814,-0.12635 -0.2814,-0.28125 z m 2.25009,1.12472 c 0,0.15546 -0.12579,0.28125 -0.28125,0.28125 h -2.25009 c -0.15504,0 -0.28096,-0.12579 -0.28096,-0.28125 0,-0.15546 0.12592,-0.28125 0.28096,-0.28125 h 2.25009 c 0.15546,0 0.28125,0.12579 0.28125,0.28125 z m 2.49904,-0.28125 h -0.67062 c -0.38863,0 -0.70312,-0.31475 -0.70312,-0.70312 v -0.5625 c 0,-0.23293 -0.18925,-0.42189 -0.42216,-0.42189 h -3.65621 c -0.23305,0 -0.42187,0.18896 -0.42187,0.42189 v 1.96874 c 0,0.2332 0.18882,0.42218 0.42187,0.42218 h 3.65621 c 0.18348,0 0.42216,-0.16434 0.42216,-0.28155 v 0 c 0,-0.15518 0.12579,-0.28125 0.28097,-0.28125 0.15546,0 0.28125,0.12607 0.28125,0.28125 0,0.0195 -0.005,0.0376 -0.006,0.0568 -0.0297,0.43893 -0.3914,0.78692 -0.83771,0.78692 h -3.93761 c -0.46597,0 -0.84389,-0.37765 -0.84389,-0.84377 v -0.84375 -0.56222 -0.84403 c 0,-0.46583 0.37792,-0.84376 0.84389,-0.84376 h 3.9376 c 0.46582,0 0.84347,0.37793 0.84347,0.84376 v 0.56278 c 0,0.1549 0.12578,0.28125 0.28125,0.28125 h 0.1409 c 0.38809,0 0.70314,-0.31503 0.70314,-0.7034 v -1.82807 c 0,-0.15532 0.12579,-0.28125 0.28125,-0.28125 0.1549,0 0.28097,0.12593 0.28097,0.28125 v 2.14152 c 2e-5,0.36005 -0.50387,0.95217 -0.87597,0.95217 z m 0.0322,-3.9376 c -0.15518,0 -0.28125,-0.12579 -0.28125,-0.28125 0,-0.15504 0.12607,-0.28097 0.28125,-0.28097 0.15546,0 0.28155,0.12593 0.28155,0.28097 0,0.15546 -0.12609,0.28125 -0.28155,0.28125 z m -1.68722,0 h -0.28153 -3.65608 -1.26577 c -0.38837,0 -0.70298,0.31504 -0.70298,0.70314 v 1.54695 0.0516 0.7924 c 0,0.1549 0.12579,0.28125 0.28125,0.28125 0.15504,0 0.28096,0.12579 0.28096,0.28097 0,0.15546 -0.12592,0.28125 -0.28096,0.28125 -0.0194,0 -0.0376,-0.005 -0.0567,-0.006 -0.43931,-0.0296 -0.78716,-0.39139 -0.78716,-0.8377 0,-0.0426 0.006,-0.0827 0.0122,-0.12333 -0.007,-0.0519 -0.0122,-0.10438 -0.0122,-0.1582 v -2.24995 c 0,-0.62144 0.50385,-1.12487 1.12485,-1.12487 h 0.42216 0.14049 0.98437 0.28125 3.37496 c 0.23291,0 0.42216,-0.18911 0.42216,-0.42216 v -1.40612 c 0,-0.23291 -0.18925,-0.42174 -0.42216,-0.42174 h -3.65619 c -0.23305,0 -0.42188,0.18883 -0.42188,0.42174 v 0.98439 c 0,0.15546 -0.12579,0.28125 -0.28125,0.28125 -0.15546,0 -0.28125,-0.12579 -0.28125,-0.28125 v -1.12488 c -10e-6,-0.46624 0.37791,-0.84389 0.84388,-0.84389 h 3.9376 c 0.46582,0 0.84347,0.37765 0.84347,0.84389 v 1.68752 c 1e-5,0.46582 -0.37763,0.84347 -0.84346,0.84347 z m -5.06288,0.56266 c 0.15546,0 0.28139,0.12593 0.28139,0.28125 0,0.15546 -0.12593,0.28139 -0.28139,0.28139 -0.15505,0 -0.28125,-0.12593 -0.28125,-0.28139 -2e-5,-0.15532 0.1262,-0.28125 0.28125,-0.28125 z"
       id="path2"
       style="fill:#f2f2f2;fill-opacity:1;stroke-width:0.0175781" />
  </g>
</svg>
