<?xml version="1.0" encoding="UTF-8" standalone="no"?>
<svg
   width="32"
   version="1.1"
   height="32"
   viewBox="0 0 32 32"
   id="svg15"
   sodipodi:docname="folder-chart.svg"
   inkscape:version="1.1.1 (3bf5ae0d25, 2021-09-20)"
   xmlns:inkscape="http://www.inkscape.org/namespaces/inkscape"
   xmlns:sodipodi="http://sodipodi.sourceforge.net/DTD/sodipodi-0.dtd"
   xmlns:xlink="http://www.w3.org/1999/xlink"
   xmlns="http://www.w3.org/2000/svg"
   xmlns:svg="http://www.w3.org/2000/svg"
   xmlns:rdf="http://www.w3.org/1999/02/22-rdf-syntax-ns#"
   xmlns:cc="http://creativecommons.org/ns#"
   xmlns:dc="http://purl.org/dc/elements/1.1/">
  <sodipodi:namedview
     pagecolor="#ffffff"
     bordercolor="#666666"
     borderopacity="1"
     objecttolerance="10"
     gridtolerance="10"
     guidetolerance="10"
     inkscape:pageopacity="0"
     inkscape:pageshadow="2"
     inkscape:window-width="1920"
     inkscape:window-height="1006"
     id="namedview17"
     showgrid="false"
     inkscape:zoom="9.8125"
     inkscape:cx="-12.025478"
     inkscape:cy="6.522293"
     inkscape:window-x="0"
     inkscape:window-y="0"
     inkscape:window-maximized="1"
     inkscape:current-layer="layer1"
     inkscape:document-rotation="0"
     inkscape:pagecheckerboard="0" />
  <defs
     id="defs5455">
    <linearGradient
       inkscape:collect="always"
       id="linearGradient860">
      <stop
         style="stop-color:#78acd3;stop-opacity:1"
         offset="0"
         id="stop856" />
      <stop
         style="stop-color:#d98cbb;stop-opacity:1"
         offset="1"
         id="stop858" />
    </linearGradient>
    <linearGradient
       inkscape:collect="always"
       id="linearGradient842">
      <stop
         style="stop-color:#326e9a;stop-opacity:1"
         offset="0"
         id="stop838" />
      <stop
         style="stop-color:#339993;stop-opacity:1"
         offset="1"
         id="stop840" />
    </linearGradient>
    <linearGradient
       inkscape:collect="always"
       xlink:href="#linearGradient860"
       id="linearGradient862-3"
       x1="113.94677"
       y1="255.36646"
       x2="406.08289"
       y2="255.36646"
       gradientUnits="userSpaceOnUse"
       gradientTransform="matrix(0.10135135,0,0,0.09220312,374.22015,507.65439)" />
    <linearGradient
       inkscape:collect="always"
       xlink:href="#linearGradient842"
       id="linearGradient844-5"
       x1="386.30627"
       y1="522.45404"
       x2="446.83023"
       y2="522.45404"
       gradientUnits="userSpaceOnUse"
       gradientTransform="matrix(0.49567129,0,0,0.49971899,194.09051,274.0507)" />
  </defs>
  <metadata
     id="metadata5458">
    <rdf:RDF>
      <cc:Work
         rdf:about="">
        <dc:format>image/svg+xml</dc:format>
        <dc:type
           rdf:resource="http://purl.org/dc/dcmitype/StillImage" />
      </cc:Work>
    </rdf:RDF>
  </metadata>
  <g
     inkscape:label="Capa 1"
     inkscape:groupmode="layer"
     id="layer1"
     transform="translate(-384.57143,-515.798)">
    <path
       style="fill:url(#linearGradient862-3);fill-opacity:1;stroke-width:0.0895685"
       d="m 400.57301,522.37791 c -0.44017,0 -0.96119,-0.25825 -1.15846,-0.57392 l -0.88505,-1.41858 c -0.19637,-0.31567 -0.7174,-0.57334 -1.1574,-0.57391 l -10.20056,-0.0135 c -0.97301,-10e-4 -1.3831,0.46748 -1.39693,1.50208 l -0.006,0.43612 v 1.28321 18.28572 c 0,0.35288 1.16035,1.2832 1.60036,1.2832 h 26.40757 c 0.44001,0 1.60036,-0.93032 1.60036,-1.2832 v -17.64411 c 0,-0.96241 -0.40003,-1.28321 -1.60036,-1.28321 z"
       id="path4-3-6"
       sodipodi:nodetypes="sccsssccsssssss" />
    <path
       style="fill:#f2f2f2;fill-opacity:1;stroke-width:0.088282"
       d="m 413.46046,529.2278 c 0,0.66273 -0.39789,1.20495 -1.30857,1.20495 H 389.0541 c -0.9107,0 -1.25926,-0.54222 -1.25926,-1.20495 v -3.61492 c 0,-0.66274 0.34856,-1.20497 1.25926,-1.20497 h 23.04822 c 0.91069,0 1.35814,0.54223 1.35814,1.20497 z"
       id="path8-6-2"
       sodipodi:nodetypes="sssssssss" />
    <path
       style="fill:url(#linearGradient844-5);fill-opacity:1;stroke-width:0.09667"
       d="m 413.94973,526.46381 h -26.75661 c -0.8109,0 -1.62169,0.73764 -1.62169,1.47526 v 14.38368 c 0,0.97552 0.6271,1.47524 1.62169,1.47524 h 26.75661 c 0.99775,0 1.6217,-0.49972 1.6217,-1.47524 v -14.38368 c 0,-0.73762 -0.8108,-1.47526 -1.6217,-1.47526 z"
       id="path10-9"
       sodipodi:nodetypes="sssssssss" />
    <path
       d="m 413.62143,540.55688 c -0.16568,0 -0.3,-0.13542 -0.3,-0.30245 v -4.83919 c 0,-0.16704 -0.13433,-0.30245 -0.3,-0.30245 h -0.6 c -0.16568,0 -0.3,0.13541 -0.3,0.30245 v 6.20021 c 0,0.41764 -0.33574,0.75613 -0.75,0.75613 h -0.3 c -0.41427,0 -0.75,-0.33849 -0.75,-0.75613 v -3.17572 c 0,-0.16703 -0.13433,-0.30246 -0.3,-0.30246 h -0.6 c -0.16568,0 -0.3,0.13543 -0.3,0.30246 v 3.17572 c 0,0.41764 -0.33574,0.75613 -0.75,0.75613 h -0.3 c -0.41427,0 -0.75,-0.33849 -0.75,-0.75613 v -1.96592 c 0,-0.16702 -0.13433,-0.30245 -0.3,-0.30245 h -0.6 c -0.16568,0 -0.3,0.13543 -0.3,0.30245 v 2.11715 c 0,0.33405 -0.26867,0.6049 -0.6,0.6049 -0.6627,0 -1.2,-0.54169 -1.2,-1.20981 v -5.44408 -2.11715 c 0,-0.16704 0.13432,-0.30245 0.3,-0.30245 0.16567,0 0.3,0.13541 0.3,0.30245 v 1.07054 1.04661 5.44408 c 0,0.33406 0.23115,0.60491 0.45,0.60491 0.0829,0 0.15,-0.0676 0.15,-0.15123 v -2.11715 c 0,-0.41764 0.33573,-0.75612 0.75,-0.75612 h 0.9 c 0.41426,0 0.75,0.33848 0.75,0.75612 v 1.96592 c 0,0.16704 0.13432,0.30246 0.3,0.30246 0.16567,0 0.3,-0.13542 0.3,-0.30246 v -3.17572 c 0,-0.41764 0.33573,-0.75611 0.75,-0.75611 h 0.9 c 0.41426,0 0.75,0.33847 0.75,0.75611 v 3.17572 c 0,0.16704 0.13432,0.30246 0.3,0.30246 0.16567,0 0.3,-0.13542 0.3,-0.30246 v -6.20021 c 0,-0.41764 0.33573,-0.75612 0.75,-0.75612 h 0.9 c 0.41426,0 0.75,0.33848 0.75,0.75612 v 4.99042 c 0,0.16703 -0.13433,0.30245 -0.3,0.30245 z m 0,0.60489 c 0.16567,0 0.3,0.13544 0.3,0.30245 0,0.16704 -0.13433,0.30246 -0.3,0.30246 -0.16568,0 -0.3,-0.13542 -0.3,-0.30246 0,-0.16701 0.13432,-0.30245 0.3,-0.30245 z"
       id="path2"
       style="fill:#f2f2f2;fill-opacity:1;stroke-width:0.0188264" />
  </g>
</svg>
