<?xml version="1.0" encoding="UTF-8" standalone="no"?>
<svg
   width="32"
   version="1.1"
   height="32"
   viewBox="0 0 32 32"
   id="svg15"
   sodipodi:docname="folder-deb.svg"
   inkscape:version="1.1.1 (3bf5ae0d25, 2021-09-20)"
   xmlns:inkscape="http://www.inkscape.org/namespaces/inkscape"
   xmlns:sodipodi="http://sodipodi.sourceforge.net/DTD/sodipodi-0.dtd"
   xmlns:xlink="http://www.w3.org/1999/xlink"
   xmlns="http://www.w3.org/2000/svg"
   xmlns:svg="http://www.w3.org/2000/svg"
   xmlns:rdf="http://www.w3.org/1999/02/22-rdf-syntax-ns#"
   xmlns:cc="http://creativecommons.org/ns#"
   xmlns:dc="http://purl.org/dc/elements/1.1/">
  <sodipodi:namedview
     pagecolor="#ffffff"
     bordercolor="#666666"
     borderopacity="1"
     objecttolerance="10"
     gridtolerance="10"
     guidetolerance="10"
     inkscape:pageopacity="0"
     inkscape:pageshadow="2"
     inkscape:window-width="1920"
     inkscape:window-height="1006"
     id="namedview17"
     showgrid="false"
     inkscape:zoom="9.8125"
     inkscape:cx="-8.2547771"
     inkscape:cy="4.7898089"
     inkscape:window-x="0"
     inkscape:window-y="0"
     inkscape:window-maximized="1"
     inkscape:current-layer="layer1"
     inkscape:document-rotation="0"
     inkscape:pagecheckerboard="0" />
  <defs
     id="defs5455">
    <linearGradient
       id="linearGradient4194">
      <stop
         style="stop-color:#b5006a"
         id="stop4196" />
      <stop
         offset="1"
         style="stop-color:#c70073"
         id="stop4198" />
    </linearGradient>
    <linearGradient
       inkscape:collect="always"
       xlink:href="#linearGradient4194"
       id="linearGradient844-3"
       x1="386.30627"
       y1="522.45404"
       x2="446.83023"
       y2="522.45404"
       gradientUnits="userSpaceOnUse"
       gradientTransform="matrix(0.49567132,0,0,0.49972085,194.0905,274.04969)" />
  </defs>
  <metadata
     id="metadata5458">
    <rdf:RDF>
      <cc:Work
         rdf:about="">
        <dc:format>image/svg+xml</dc:format>
        <dc:type
           rdf:resource="http://purl.org/dc/dcmitype/StillImage" />
      </cc:Work>
    </rdf:RDF>
  </metadata>
  <g
     inkscape:label="Capa 1"
     inkscape:groupmode="layer"
     id="layer1"
     transform="translate(-384.57143,-515.798)">
    <path
       style="fill:#ff33ab;fill-opacity:1;stroke-width:0.089569"
       d="m 400.57301,522.37783 c -0.44016,0 -0.96119,-0.25824 -1.15846,-0.57392 l -0.88505,-1.41859 c -0.19637,-0.31567 -0.7174,-0.57334 -1.1574,-0.57391 l -10.20056,-0.0134 c -0.973,-0.002 -1.3831,0.46748 -1.39693,1.50207 l -0.006,0.43614 v 1.28321 18.28579 c 0,0.35288 1.16036,1.28321 1.60036,1.28321 h 26.40757 c 0.44001,0 1.60036,-0.93033 1.60036,-1.28321 v -17.64418 c 0,-0.96241 -0.40002,-1.28321 -1.60036,-1.28321 z"
       id="path4-3-5"
       sodipodi:nodetypes="sccsssccsssssss" />
    <path
       style="fill:#434c5e;fill-opacity:1;stroke-width:0.0882825"
       d="m 413.46046,529.22774 c 0,0.66274 -0.39788,1.20497 -1.30857,1.20497 H 389.0541 c -0.9107,0 -1.25926,-0.54223 -1.25926,-1.20497 v -3.61492 c 0,-0.66274 0.34856,-1.20498 1.25926,-1.20498 h 23.04822 c 0.91069,0 1.35814,0.54224 1.35814,1.20498 z"
       id="path8-6-3"
       sodipodi:nodetypes="sssssssss" />
    <path
       style="fill:url(#linearGradient844-3);fill-opacity:1;stroke-width:0.09667"
       d="m 413.94973,526.46375 h -26.7566 c -0.81091,0 -1.6217,0.73763 -1.6217,1.47526 v 14.38374 c 0,0.97553 0.62711,1.47525 1.6217,1.47525 h 26.7566 c 0.99775,0 1.6217,-0.49972 1.6217,-1.47525 v -14.38374 c 0,-0.73763 -0.8108,-1.47526 -1.6217,-1.47526 z"
       id="path10-5"
       sodipodi:nodetypes="sssssssss" />
    <path
       style="color:#232629;fill:#ff0000;fill-opacity:1;stroke:none;stroke-width:0.408789"
       d="m 411.01396,542.25052 c -0.49053,-0.0818 -1.18547,-0.36791 -1.59425,-0.63361 -0.9402,-0.61318 -1.55559,-1.29524 -1.93593,-2.14652 -0.12264,-0.28616 -0.19541,-0.49056 -0.40878,-1.22636 -0.0409,-0.18395 -0.11024,-0.3901 -0.13582,-0.45432 -0.0432,-0.10835 -0.0451,-0.14491 -0.0263,-0.5063 0.0179,-0.32704 0.0817,-0.81757 0.12262,-0.85682 0.006,-0.009 0.0201,-0.0115 0.0317,-0.005 0.0383,0.0229 0.074,-0.0826 0.10886,-0.3232 0.0191,-0.13179 0.0492,-0.27 0.0668,-0.30712 0.0177,-0.037 0.0475,-0.11908 0.0663,-0.1821 0.0434,-0.14506 0.10252,-0.25657 0.28537,-0.53798 0.0804,-0.12376 0.16399,-0.25856 0.18574,-0.29956 0.0257,-0.0482 0.0536,-0.0718 0.0792,-0.0669 0.0249,0.005 0.0655,-0.0266 0.1083,-0.083 0.1859,-0.24537 1.06147,-0.96926 1.1425,-0.94457 0.022,0.007 0.1145,-0.024 0.20531,-0.0676 0.16427,-0.0794 0.23663,-0.0977 0.23663,-0.06 0,0.0107 -0.024,0.0356 -0.0528,0.0549 -0.0509,0.034 -0.0499,0.0346 0.0291,0.0162 0.0451,-0.0104 0.12115,-0.0255 0.16892,-0.0334 0.059,-0.01 0.083,-0.024 0.0749,-0.0441 -0.007,-0.0179 0.01,-0.0356 0.0421,-0.0439 0.0807,-0.0205 0.20649,-0.0174 0.20649,0.006 0,0.0275 -0.0719,0.0553 -0.12897,0.0498 -0.0387,-0.003 -0.0409,-3.8e-4 -0.0115,0.0187 0.0289,0.019 0.0292,0.0235 0.002,0.0238 -0.0182,1.9e-4 -0.0272,0.006 -0.0197,0.0129 0.007,0.007 0.0563,-0.008 0.10865,-0.034 0.0524,-0.0258 0.1484,-0.0576 0.21331,-0.071 0.0799,-0.0165 0.11801,-0.0356 0.11801,-0.0591 0,-0.03 0.037,-0.0331 0.28724,-0.0198 0.15797,0.008 0.39637,0.0322 0.52977,0.0528 0.2425,0.0378 0.24253,0.0378 0.33291,-0.0117 0.10839,-0.0599 0.28275,-0.0677 0.32857,-0.0149 0.0168,0.0192 0.0629,0.0513 0.10252,0.071 0.0647,0.0323 0.0689,0.0324 0.0416,3.7e-4 -0.0519,-0.0601 -3.6e-4,-0.0585 0.20005,0.006 0.64612,0.20766 1.17283,0.5775 1.56369,1.09794 0.0927,0.12342 0.0983,0.17893 0.0104,0.1038 l -0.0502,-0.043 0.0383,0.072 c 0.0208,0.0395 0.0383,0.0841 0.0383,0.0989 0,0.0151 0.0621,0.12416 0.13806,0.24301 0.17115,0.2679 0.21903,0.35815 0.20755,0.39121 -0.005,0.0145 -0.0807,-0.0802 -0.16849,-0.20967 -0.0878,-0.12949 -0.2176,-0.30397 -0.28856,-0.38771 -0.10597,-0.12507 -0.13372,-0.14647 -0.15534,-0.11974 -0.0148,0.0179 -0.0498,0.0358 -0.0786,0.0397 l -0.0523,0.007 0.0517,0.0972 c 0.0283,0.0535 0.0555,0.0864 0.0601,0.0731 0.0249,-0.071 0.13958,0.0222 0.19182,0.15592 0.017,0.0433 0.062,0.13251 0.10011,0.19822 0.038,0.0657 0.0645,0.12408 0.0586,0.1297 -0.006,0.006 -0.0406,-0.0121 -0.0772,-0.04 l -0.0666,-0.0502 0.0454,0.0748 c 0.0251,0.0411 0.0668,0.0914 0.0929,0.1118 0.0328,0.0256 0.0482,0.0656 0.0496,0.12796 0.002,0.11521 0.0715,0.25132 0.10886,0.21543 0.0583,-0.0559 0.0702,-0.0207 0.0556,0.16215 -0.0106,0.13491 -0.005,0.22382 0.0204,0.31822 0.0388,0.14333 0.0302,0.17869 -0.0264,0.11171 -0.0362,-0.0426 -0.0365,-0.0426 -0.0202,0.002 0.0349,0.0948 0.0607,0.23652 0.0535,0.29216 -0.0135,0.10384 -0.0541,0.0607 -0.0681,-0.0723 l -0.0136,-0.12982 -0.004,0.13815 c -0.002,0.076 -0.0206,0.22282 -0.0413,0.32629 -0.0206,0.1045 -0.0312,0.23116 -0.024,0.28493 0.0146,0.10116 0.004,0.10508 -0.0839,0.0329 -0.0358,-0.0293 -0.042,-0.0239 -0.0667,0.0642 -0.0205,0.0739 -0.0204,0.11591 5e-4,0.17778 0.0156,0.0445 0.0245,0.10501 0.0197,0.13432 -0.0102,0.0676 -0.0667,0.0887 -0.0667,0.0251 0,-0.0802 -0.0319,-0.0517 -0.12896,0.11578 -0.2624,0.45217 -0.67757,0.80212 -1.14747,0.96717 -0.27702,0.0973 -0.46284,0.13341 -0.77523,0.15057 l -0.28139,0.0156 0.13903,0.0411 c 0.11209,0.0335 0.17792,0.038 0.33999,0.0257 0.21232,-0.0166 0.46159,-0.0607 0.57464,-0.10192 0.0451,-0.0166 0.0756,-0.0173 0.0912,-0.002 0.0367,0.0353 -0.28978,0.17399 -0.48362,0.20542 -0.32983,0.0535 -0.77134,-0.005 -1.16108,-0.15199 -0.26442,-0.1002 -0.65683,-0.36113 -0.5967,-0.39679 0.0112,-0.007 0.086,0.0273 0.1659,0.0758 0.10207,0.0619 0.14517,0.0782 0.14517,0.0549 0,-0.044 0.0154,-0.0419 0.0962,0.0136 0.0732,0.0501 0.29846,0.14297 0.46069,0.19006 0.17684,0.0513 0.10827,-0.0107 -0.12896,-0.11703 -0.75009,-0.33559 -1.0615,-0.67127 -1.2167,-1.31152 -0.0569,-0.23478 0.004,-0.74948 0.10787,-0.91068 0.0264,-0.0409 0.0479,-0.0911 0.0479,-0.11162 0,-0.0892 0.15495,-0.32478 0.31393,-0.47737 0.28017,-0.26888 0.57146,-0.38049 0.9496,-0.36388 0.18278,0.008 0.26085,0.0238 0.41298,0.0816 0.17254,0.0659 0.3898,0.20401 0.32326,0.20541 -0.0159,3.5e-4 -0.0842,-0.0214 -0.1524,-0.0489 -0.10365,-0.0414 -0.17011,-0.0498 -0.40534,-0.0506 -0.33034,-10e-4 -0.4918,0.0437 -0.72689,0.2025 -0.33329,0.22505 -0.51863,0.48427 -0.58427,0.81718 -0.044,0.22337 -0.0454,0.28528 -0.0109,0.50686 0.0197,0.12767 0.0341,0.16513 0.0586,0.15602 0.0206,-0.008 0.0328,0.003 0.0328,0.0309 0,0.0791 0.17941,0.40013 0.30386,0.54363 0.2995,0.3454 0.78396,0.56581 1.24366,0.56581 0.23858,0 0.43145,-0.0439 0.60899,-0.13876 0.0713,-0.038 0.16127,-0.0846 0.19995,-0.10346 0.13651,-0.0664 0.2212,-0.14224 0.3202,-0.28677 0.055,-0.0803 0.1149,-0.14607 0.13298,-0.14607 0.0267,0 0.0257,0.0114 -0.006,0.0619 -0.10465,0.16576 0.14095,-0.13564 0.26816,-0.32906 l 0.14248,-0.21662 -0.0158,-0.14231 c -0.0152,-0.13675 -0.0125,-0.1451 0.0554,-0.21377 0.0657,-0.0661 0.0715,-0.0857 0.0791,-0.26252 0.007,-0.15823 0.002,-0.19109 -0.027,-0.19127 -0.0271,-1.5e-4 -0.0385,-0.0419 -0.0503,-0.18023 -0.0156,-0.18318 -0.17084,-0.79952 -0.207,-0.82098 -0.0107,-0.007 -0.0412,-0.0657 -0.0674,-0.13171 -0.0881,-0.2226 -0.24271,-0.43664 -0.48374,-0.66982 -0.34682,-0.33552 -0.7837,-0.5946 -1.19638,-0.7095 -0.35102,-0.0977 -0.9471,-0.0623 -1.37167,0.0816 -0.20723,0.0702 -0.41139,0.16319 -0.44585,0.20302 -0.0158,0.018 -0.0381,0.027 -0.0504,0.0197 -0.0124,-0.008 -0.009,-0.0277 0.008,-0.048 0.0782,-0.0905 -0.18134,0.0751 -0.34843,0.22222 -0.10102,0.0889 -0.18735,0.16443 -0.19185,0.16772 -0.005,0.003 0.0154,1.8e-4 0.0437,-0.007 0.0475,-0.0117 0.0495,-0.009 0.024,0.0373 -0.0166,0.0294 -0.10247,0.0828 -0.20782,0.12868 -0.17705,0.0771 -0.29155,0.16177 -0.38252,0.28295 -0.0362,0.0484 -0.0383,0.0588 -0.01,0.0482 0.0199,-0.008 0.0366,-0.002 0.0366,0.0102 0,0.0643 -0.0608,0.13601 -0.15096,0.17804 -0.19968,0.0931 -0.55046,0.5904 -0.73834,1.04677 -0.0837,0.20337 -0.0824,0.19631 -0.0368,0.19631 0.048,0 0.0446,0.0523 -0.021,0.33326 -0.096,0.40924 -0.0961,0.39613 0.008,0.97187 0.1274,0.70148 0.20183,0.93582 0.34334,1.08102 0.0334,0.0342 0.0655,0.10652 0.0799,0.17932 0.0172,0.0869 0.046,0.14426 0.1,0.19886 0.0492,0.0498 0.0656,0.0803 0.0467,0.0869 -0.037,0.0128 0.079,0.17909 0.18492,0.26462 0.0533,0.043 0.0928,0.0575 0.13556,0.0496 0.0937,-0.0172 0.1892,0.0348 0.33587,0.18234 0.15244,0.15351 0.16771,0.19477 0.0668,0.18057 -0.0651,-0.009 -0.0666,-0.008 -0.0346,0.0393 0.0184,0.027 0.0864,0.0918 0.15096,0.1441 0.0908,0.0735 0.11413,0.10522 0.10273,0.13966 -0.0165,0.0496 0.0301,0.0958 0.13605,0.13457 0.0656,0.0243 0.0867,0.0759 0.0372,0.0917 -0.0152,0.005 0.0774,0.096 0.20516,0.20267 0.14396,0.12019 0.24079,0.18607 0.2546,0.1732 0.0365,-0.0342 0.0832,-0.0239 0.084,0.0186 5e-4,0.0461 0.0423,0.0945 0.19119,0.22362 0.0941,0.0816 0.11756,0.0919 0.17522,0.0766 0.0528,-0.0142 0.086,-0.005 0.1604,0.0433 0.14837,0.0963 0.23834,0.13469 0.31537,0.13469 0.0758,0 0.0866,0.0206 0.0472,0.0915 -0.0206,0.0373 -0.0165,0.0435 0.0316,0.0435 0.0303,0 0.11711,0.0201 0.19207,0.045 0.17046,0.0563 0.24156,0.0601 0.19885,0.0106 -0.0631,-0.073 0.003,-0.053 0.22928,0.0683 0.31507,0.16955 0.47446,0.18893 1.10184,0.13391 0.0929,-0.008 0.12309,-0.003 0.12309,0.0192 0,0.0194 -0.0806,0.0489 -0.22862,0.0832 -0.19456,0.0452 -0.29843,0.0539 -0.69756,0.0587 -0.3145,0.004 -0.52935,-0.004 -0.65234,-0.0251 z m -0.32073,-3.37331 c 0,-0.005 -0.0289,-0.0258 -0.0645,-0.0464 l -0.0645,-0.0376 0.0554,0.0464 c 0.054,0.0452 0.0736,0.0553 0.0736,0.0376 z m 3.22836,-2.3583 c -0.008,-0.0179 -0.0128,-0.0123 -0.0145,0.0138 -10e-4,0.024 0.005,0.0369 0.012,0.0293 0.008,-0.008 0.009,-0.0269 0.002,-0.0432 z m -5.32104,-2.36003 c 0.029,-0.0357 0.0282,-0.0365 -0.009,-0.009 -0.0227,0.0171 -0.041,0.0348 -0.041,0.0393 0,0.0184 0.0191,0.007 0.0499,-0.0307 z m 0.26666,-0.20813 c 0.0237,-0.0249 0.0371,-0.045 0.0304,-0.045 -0.007,0 -0.0305,0.0201 -0.0542,0.045 -0.0236,0.0249 -0.0371,0.045 -0.0304,0.045 0.007,0 0.0306,-0.0201 0.0542,-0.045 z m 0.29515,-0.15819 c 0.0773,-0.0253 0.12121,-0.0294 0.13751,-0.0142 0.0165,0.0159 0.0768,0.007 0.18935,-0.0289 0.091,-0.0285 0.16122,-0.0561 0.15612,-0.061 -0.005,-0.005 -0.08,0.0138 -0.16645,0.0414 -0.11871,0.0379 -0.16145,0.0437 -0.17468,0.0234 -0.0224,-0.0349 -0.23573,0.0339 -0.32744,0.1051 l -0.0627,0.0487 0.0673,-0.0387 c 0.037,-0.0211 0.11845,-0.0554 0.1809,-0.0757 z m 0.67599,-0.0571 c 0.0681,-0.0193 0.11973,-0.039 0.11479,-0.0439 -0.0108,-0.0104 -0.25353,0.0562 -0.25353,0.0697 0,0.0136 0.002,0.0132 0.13874,-0.0258 z m 0.38882,-0.12266 0.0938,-0.0165 -0.0821,-0.002 c -0.0451,-10e-4 -0.10844,0.0137 -0.14068,0.0328 -0.0378,0.0224 -0.0421,0.0287 -0.0115,0.0184 0.0259,-0.009 0.0891,-0.0238 0.14069,-0.0328 z m 0.18625,-0.0424 c 0.007,-0.011 -0.008,-0.0153 -0.034,-0.009 -0.0548,0.0139 -0.0617,0.0288 -0.0129,0.0288 0.0186,0 0.0396,-0.009 0.0469,-0.0202 z m 0.75704,0.007 c -0.008,-0.008 -0.0279,-0.008 -0.045,-0.002 -0.0186,0.007 -0.0129,0.0122 0.0145,0.0136 0.0249,5e-4 0.0384,-0.004 0.0304,-0.0116 z m -0.1402,-0.0247 c -0.0226,-0.006 -0.0595,-0.006 -0.0821,0 -0.0226,0.006 -0.004,0.0102 0.041,0.0102 0.0451,0 0.0636,-0.005 0.041,-0.0102 z m -0.23385,-0.0237 c -0.048,-0.005 -0.13244,-0.005 -0.18758,-1.4e-4 -0.0551,0.005 -0.0161,0.009 0.0873,0.009 0.10316,7e-5 0.14828,-0.003 0.10027,-0.009 z m -0.30593,-0.0196 c -0.008,-0.008 -0.0279,-0.008 -0.045,-0.002 -0.0186,0.007 -0.0129,0.0122 0.0145,0.0138 0.0249,10e-4 0.0384,-0.004 0.0304,-0.0116 z m -0.15872,5.40859 c -0.23884,-0.16424 -0.32733,-0.24919 -0.32733,-0.31423 0,-0.0346 0.008,-0.0627 0.0181,-0.0627 0.034,0 0.43309,0.39997 0.42437,0.42512 -0.005,0.0149 -0.0532,-0.006 -0.11511,-0.0481 z m -0.1229,-0.417 c -0.12404,-0.12029 -0.16378,-0.18499 -0.11366,-0.18499 0.0299,0 0.26094,0.25361 0.26094,0.28671 0,0.0158 -0.002,0.0282 -0.007,0.0282 -0.004,0 -0.0669,-0.0585 -0.14069,-0.13003 z m 1.37243,-0.49243 c -0.0655,-0.0255 -0.0248,-0.0723 0.0821,-0.0943 0.0613,-0.0124 0.15861,-0.0433 0.21633,-0.068 0.0577,-0.025 0.10911,-0.0411 0.1142,-0.0362 0.005,0.005 -0.0208,0.0549 -0.0581,0.11115 -0.0669,0.10162 -0.0681,0.10223 -0.19627,0.10051 -0.0709,-10e-4 -0.14215,-0.007 -0.15827,-0.0131 z m 0.70342,-0.50334 c -0.0633,-0.0246 -0.0659,-0.066 -0.0129,-0.20746 0.0454,-0.12152 0.0925,-0.1455 0.0663,-0.034 -0.009,0.0401 -0.0217,0.0984 -0.0279,0.12938 l -0.0107,0.0563 0.0469,-0.0512 c 0.0276,-0.03 0.0534,-0.10143 0.0629,-0.17413 0.009,-0.0676 0.0255,-0.11739 0.0367,-0.1106 0.0288,0.0173 0.026,0.19512 -0.006,0.31473 -0.0274,0.10449 -0.0521,0.11667 -0.15548,0.0768 z m -5.54873,-0.28242 c -0.008,-0.0195 -0.0146,-0.0964 -0.0146,-0.17065 0,-0.098 0.008,-0.13249 0.0291,-0.12575 0.0349,0.0109 0.0553,0.33199 0.0208,0.33199 -0.0118,0 -0.0283,-0.0162 -0.0362,-0.0357 z m 5.64086,-0.52635 c -0.0364,-0.0473 -0.0476,-0.0846 -0.0372,-0.12414 0.0209,-0.0811 0.0767,-0.0696 0.11767,0.0247 0.0637,0.14633 0.008,0.21491 -0.0803,0.0997 z m -5.64567,-0.35724 c -0.002,-0.1276 -2e-5,-0.13154 0.0588,-0.1294 0.0499,0.002 0.062,0.0147 0.0677,0.0709 0.007,0.0637 -0.0657,0.19008 -0.10856,0.19008 -0.009,0 -0.017,-0.0592 -0.018,-0.13161 z m 6.07789,-2.76628 c 0.003,-0.20135 0.0385,-0.26959 0.0662,-0.12859 0.0191,0.0982 -0.006,0.27172 -0.0424,0.30135 -0.0201,0.0163 -0.0264,-0.0278 -0.024,-0.17276 z m -3.08098,-0.12068 c 0.009,-0.0271 0.33288,-0.15427 0.39255,-0.15427 0.0701,0 -0.0556,0.0824 -0.20068,0.13154 -0.16171,0.0548 -0.20476,0.0599 -0.19187,0.0229 z"
       class="ColorScheme-Text"
       id="path12" />
  </g>
</svg>
