<?xml version="1.0" encoding="UTF-8" standalone="no"?>
<svg
   width="32"
   version="1.1"
   height="32"
   viewBox="0 0 32 32"
   id="svg15"
   sodipodi:docname="folder-flatpak.svg"
   inkscape:version="1.1.1 (3bf5ae0d25, 2021-09-20)"
   xmlns:inkscape="http://www.inkscape.org/namespaces/inkscape"
   xmlns:sodipodi="http://sodipodi.sourceforge.net/DTD/sodipodi-0.dtd"
   xmlns:xlink="http://www.w3.org/1999/xlink"
   xmlns="http://www.w3.org/2000/svg"
   xmlns:svg="http://www.w3.org/2000/svg"
   xmlns:rdf="http://www.w3.org/1999/02/22-rdf-syntax-ns#"
   xmlns:cc="http://creativecommons.org/ns#"
   xmlns:dc="http://purl.org/dc/elements/1.1/">
  <sodipodi:namedview
     pagecolor="#ffffff"
     bordercolor="#666666"
     borderopacity="1"
     objecttolerance="10"
     gridtolerance="10"
     guidetolerance="10"
     inkscape:pageopacity="0"
     inkscape:pageshadow="2"
     inkscape:window-width="1920"
     inkscape:window-height="1006"
     id="namedview17"
     showgrid="false"
     inkscape:zoom="9.8125"
     inkscape:cx="-12.942675"
     inkscape:cy="6.522293"
     inkscape:window-x="0"
     inkscape:window-y="0"
     inkscape:window-maximized="1"
     inkscape:current-layer="layer1"
     inkscape:document-rotation="0"
     inkscape:pagecheckerboard="0" />
  <defs
     id="defs5455">
    <linearGradient
       inkscape:collect="always"
       id="linearGradient860">
      <stop
         style="stop-color:#78acd3;stop-opacity:1"
         offset="0"
         id="stop856" />
      <stop
         style="stop-color:#d98cbb;stop-opacity:1"
         offset="1"
         id="stop858" />
    </linearGradient>
    <linearGradient
       inkscape:collect="always"
       id="linearGradient842">
      <stop
         style="stop-color:#326e9a;stop-opacity:1"
         offset="0"
         id="stop838" />
      <stop
         style="stop-color:#339993;stop-opacity:1"
         offset="1"
         id="stop840" />
    </linearGradient>
    <linearGradient
       inkscape:collect="always"
       xlink:href="#linearGradient860"
       id="linearGradient862-3"
       x1="113.94677"
       y1="255.36646"
       x2="406.08289"
       y2="255.36646"
       gradientUnits="userSpaceOnUse"
       gradientTransform="matrix(0.10135136,0,0,0.09220276,374.22015,507.65453)" />
    <linearGradient
       inkscape:collect="always"
       xlink:href="#linearGradient842"
       id="linearGradient844-5"
       x1="386.30627"
       y1="522.45404"
       x2="446.83023"
       y2="522.45404"
       gradientUnits="userSpaceOnUse"
       gradientTransform="matrix(0.49567117,0,0,0.49971677,194.09048,274.05178)" />
  </defs>
  <metadata
     id="metadata5458">
    <rdf:RDF>
      <cc:Work
         rdf:about="">
        <dc:format>image/svg+xml</dc:format>
        <dc:type
           rdf:resource="http://purl.org/dc/dcmitype/StillImage" />
      </cc:Work>
    </rdf:RDF>
  </metadata>
  <g
     inkscape:label="Capa 1"
     inkscape:groupmode="layer"
     id="layer1"
     transform="translate(-384.57143,-515.798)">
    <path
       style="fill:url(#linearGradient862-3);fill-opacity:1;stroke-width:0.0895705"
       d="m 400.57299,522.378 c -0.44014,0 -0.96116,-0.25825 -1.15843,-0.5739 l -0.88506,-1.41859 c -0.19637,-0.31569 -0.71739,-0.57335 -1.15741,-0.5739 l -10.20054,-0.0136 c -0.97302,-0.002 -1.3831,0.46747 -1.39695,1.50206 l -0.006,0.43613 v 1.28321 18.28564 c 0,0.35287 1.16034,1.2832 1.60037,1.2832 h 26.40757 c 0.44,0 1.60036,-0.93033 1.60036,-1.2832 v -17.64402 c 0,-0.9624 -0.40002,-1.28321 -1.60036,-1.28321 z"
       id="path4-3-6"
       sodipodi:nodetypes="sccsssccsssssss" />
    <path
       style="fill:#f2f2f2;fill-opacity:1;stroke-width:0.0882825"
       d="m 413.46047,529.22785 c 0,0.66274 -0.39789,1.20498 -1.30858,1.20498 h -23.0978 c -0.91068,0 -1.25924,-0.54224 -1.25924,-1.20498 v -3.6149 c 0,-0.66272 0.34856,-1.20496 1.25924,-1.20496 h 23.04823 c 0.9107,0 1.35815,0.54224 1.35815,1.20496 z"
       id="path8-6-2"
       sodipodi:nodetypes="sssssssss" />
    <path
       style="fill:url(#linearGradient844-5);fill-opacity:1;stroke-width:0.096669"
       d="m 413.94973,526.46388 h -26.75661 c -0.8109,0 -1.62169,0.73764 -1.62169,1.47525 v 14.38364 c 0,0.97551 0.6271,1.47523 1.62169,1.47523 h 26.75661 c 0.99774,0 1.6217,-0.49972 1.6217,-1.47523 v -14.38364 c 0,-0.73761 -0.8108,-1.47525 -1.6217,-1.47525 z"
       id="path10-9"
       sodipodi:nodetypes="sssssssss" />
    <path
       style="color:#232629;fill:#f2f2f2;fill-opacity:1;stroke:none;stroke-width:0.449657"
       d="m 409.95135,533.29819 -0.11651,0.0904 -3.91341,1.76048 v 5.41696 l 4.02992,1.80566 4.02976,-1.80566 v -5.41696 z m 0,0.52814 v 2.39253 l -0.22392,0.14894 -3.35817,-0.96607 z m 3.58207,1.80566 v 4.66308 l -3.58207,1.53488 v -5.05583 z"
       class="ColorScheme-Text"
       id="path12" />
  </g>
</svg>
