<?xml version="1.0" encoding="UTF-8" standalone="no"?>
<svg
   width="32"
   version="1.1"
   height="32"
   viewBox="0 0 32 32"
   id="svg15"
   sodipodi:docname="folder-build.svg"
   inkscape:version="1.1.1 (3bf5ae0d25, 2021-09-20)"
   xmlns:inkscape="http://www.inkscape.org/namespaces/inkscape"
   xmlns:sodipodi="http://sodipodi.sourceforge.net/DTD/sodipodi-0.dtd"
   xmlns:xlink="http://www.w3.org/1999/xlink"
   xmlns="http://www.w3.org/2000/svg"
   xmlns:svg="http://www.w3.org/2000/svg"
   xmlns:rdf="http://www.w3.org/1999/02/22-rdf-syntax-ns#"
   xmlns:cc="http://creativecommons.org/ns#"
   xmlns:dc="http://purl.org/dc/elements/1.1/">
  <sodipodi:namedview
     pagecolor="#ffffff"
     bordercolor="#666666"
     borderopacity="1"
     objecttolerance="10"
     gridtolerance="10"
     guidetolerance="10"
     inkscape:pageopacity="0"
     inkscape:pageshadow="2"
     inkscape:window-width="1920"
     inkscape:window-height="1006"
     id="namedview17"
     showgrid="false"
     inkscape:zoom="9.8125"
     inkscape:cx="-12.942675"
     inkscape:cy="6.522293"
     inkscape:window-x="0"
     inkscape:window-y="0"
     inkscape:window-maximized="1"
     inkscape:current-layer="layer1"
     inkscape:document-rotation="0"
     inkscape:pagecheckerboard="0" />
  <defs
     id="defs5455">
    <linearGradient
       inkscape:collect="always"
       id="linearGradient860">
      <stop
         style="stop-color:#78acd3;stop-opacity:1"
         offset="0"
         id="stop856" />
      <stop
         style="stop-color:#d98cbb;stop-opacity:1"
         offset="1"
         id="stop858" />
    </linearGradient>
    <linearGradient
       inkscape:collect="always"
       id="linearGradient842">
      <stop
         style="stop-color:#326e9a;stop-opacity:1"
         offset="0"
         id="stop838" />
      <stop
         style="stop-color:#339993;stop-opacity:1"
         offset="1"
         id="stop840" />
    </linearGradient>
    <linearGradient
       inkscape:collect="always"
       xlink:href="#linearGradient860"
       id="linearGradient862-3"
       x1="113.94677"
       y1="255.36646"
       x2="406.08289"
       y2="255.36646"
       gradientUnits="userSpaceOnUse"
       gradientTransform="matrix(0.10135135,0,0,0.09220345,374.22014,507.65424)" />
    <linearGradient
       inkscape:collect="always"
       xlink:href="#linearGradient842"
       id="linearGradient844-5"
       x1="386.30627"
       y1="522.45404"
       x2="446.83023"
       y2="522.45404"
       gradientUnits="userSpaceOnUse"
       gradientTransform="matrix(0.49567129,0,0,0.49972079,194.09051,274.04971)" />
  </defs>
  <metadata
     id="metadata5458">
    <rdf:RDF>
      <cc:Work
         rdf:about="">
        <dc:format>image/svg+xml</dc:format>
        <dc:type
           rdf:resource="http://purl.org/dc/dcmitype/StillImage" />
      </cc:Work>
    </rdf:RDF>
  </metadata>
  <g
     inkscape:label="Capa 1"
     inkscape:groupmode="layer"
     id="layer1"
     transform="translate(-384.57143,-515.798)">
    <path
       style="fill:url(#linearGradient862-3);fill-opacity:1;stroke-width:0.0895685"
       d="m 400.57301,522.37783 c -0.44017,0 -0.96119,-0.25825 -1.15846,-0.57392 l -0.88505,-1.41859 c -0.19637,-0.31567 -0.7174,-0.57334 -1.1574,-0.57391 l -10.20056,-0.0134 c -0.97301,-0.002 -1.3831,0.46748 -1.39693,1.50207 l -0.006,0.43614 v 1.28321 18.28579 c 0,0.35288 1.16035,1.28321 1.60036,1.28321 h 26.40757 c 0.44001,0 1.60036,-0.93033 1.60036,-1.28321 v -17.64418 c 0,-0.96241 -0.40003,-1.28321 -1.60036,-1.28321 z"
       id="path4-3-6"
       sodipodi:nodetypes="sccsssccsssssss" />
    <path
       style="fill:#f2f2f2;fill-opacity:1;stroke-width:0.0882825"
       d="m 413.46046,529.22774 c 0,0.66274 -0.39789,1.20497 -1.30857,1.20497 H 389.0541 c -0.9107,0 -1.25926,-0.54223 -1.25926,-1.20497 v -3.61492 c 0,-0.66274 0.34856,-1.20498 1.25926,-1.20498 h 23.04822 c 0.91069,0 1.35814,0.54224 1.35814,1.20498 z"
       id="path8-6-2"
       sodipodi:nodetypes="sssssssss" />
    <path
       style="fill:url(#linearGradient844-5);fill-opacity:1;stroke-width:0.09667"
       d="m 413.94973,526.46376 h -26.75661 c -0.8109,0 -1.62169,0.73762 -1.62169,1.47526 v 14.38373 c 0,0.97553 0.6271,1.47525 1.62169,1.47525 h 26.75661 c 0.99775,0 1.6217,-0.49972 1.6217,-1.47525 v -14.38373 c 0,-0.73764 -0.8108,-1.47526 -1.6217,-1.47526 z"
       id="path10-9"
       sodipodi:nodetypes="sssssssss" />
    <path
       fill-rule="evenodd"
       clip-rule="evenodd"
       d="m 408.13893,534.84504 c 0.002,0 0.004,-0.001 0.006,-0.001 0.3074,0.0307 0.54805,0.29215 0.54805,0.61038 0,0.31887 -0.24094,0.58091 -0.54954,0.61103 -4.1e-4,0.002 -0.002,0.003 -0.002,0.004 -0.002,-1.5e-4 -0.004,-10e-4 -0.006,-10e-4 -0.0776,0 -0.16405,0.014 -0.19618,0.0922 -0.0322,0.0784 0.0134,0.14676 0.0729,0.20656 0.002,0.002 0.005,0.003 0.007,0.005 0.19446,0.24104 0.18346,0.59451 -0.0394,0.81921 -0.22265,0.22453 -0.57355,0.23593 -0.81271,0.0401 -0.003,0.002 -0.007,0.003 -0.011,0.005 -10e-4,-0.002 -0.002,-0.004 -0.004,-0.006 -0.0551,-0.0553 -0.12564,-0.10718 -0.20333,-0.0745 -0.0778,0.0324 -0.0933,0.11302 -0.0933,0.19786 0,0.008 0.002,0.0145 0.004,0.0214 -0.0383,0.30219 -0.29245,0.53634 -0.60268,0.53634 -0.31581,0 -0.57534,-0.24239 -0.60604,-0.55268 -0.003,-10e-4 -0.006,-0.003 -0.01,-0.004 1.5e-4,-0.002 0.001,-0.003 0.001,-0.005 0,-0.0782 -0.0138,-0.16518 -0.0914,-0.19756 -0.0777,-0.0326 -0.14557,0.0134 -0.20495,0.0734 -0.003,0.004 -0.005,0.008 -0.008,0.0123 -0.23887,0.18857 -0.58366,0.17553 -0.80341,-0.0462 -0.22318,-0.22499 -0.23411,-0.57921 -0.0387,-0.8204 -0.002,-0.004 -0.003,-0.009 -0.005,-0.0132 0.0549,-0.0553 0.10608,-0.12652 0.0739,-0.20477 -0.0323,-0.0782 -0.1124,-0.0941 -0.19649,-0.0941 -0.005,0 -0.0104,0.002 -0.0156,0.004 -0.29952,-0.0384 -0.53168,-0.29512 -0.53168,-0.60755 0,-0.31958 0.24206,-0.58168 0.55146,-0.61098 0.001,-0.003 0.002,-0.005 0.003,-0.008 0.0765,-10e-4 0.16013,-0.0152 0.19167,-0.092 0.0322,-0.0781 -0.0131,-0.14616 -0.0724,-0.20596 -0.19486,-0.24088 -0.18392,-0.5948 0.0391,-0.81965 0.22382,-0.22582 0.57734,-0.23624 0.81649,-0.0368 0.002,-10e-4 0.005,-10e-4 0.008,-0.003 0.0544,0.054 0.12371,0.10305 0.19976,0.0714 0.0777,-0.0325 0.0933,-0.11332 0.0933,-0.19803 0,-3e-4 -1.5e-4,-4.1e-4 -1.5e-4,-10e-4 0.0309,-0.31006 0.2897,-0.55215 0.60535,-0.55215 0.31752,0 0.57779,0.24479 0.60618,0.55733 0.001,2.2e-4 0.001,0.001 0.002,0.001 0,0.0184 0.001,0.0373 0.003,0.0558 h -0.002 c 0,0.0847 -0.0681,0.15357 -0.15225,0.15357 -0.0839,0 -0.15209,-0.0689 -0.15209,-0.15357 0,-0.16962 -0.13642,-0.307 -0.30459,-0.307 -0.16824,0 -0.30451,0.13738 -0.30451,0.307 v 0.15357 l -10e-4,10e-4 c 0.003,0.10148 -0.0613,0.19622 -0.16228,0.22649 -0.002,0.001 -0.005,0.001 -0.007,0.002 l -0.002,0.002 c -0.0712,0.0242 -0.14035,0.0529 -0.20666,0.0868 l -0.005,-10e-4 c -0.002,10e-4 -0.005,0.004 -0.007,0.005 -0.0985,0.0538 -0.21864,0.0269 -0.28629,-0.0583 l -0.0949,-0.0956 c -0.11902,-0.11991 -0.31186,-0.11991 -0.43066,0 -0.11886,0.11993 -0.11886,0.31434 0,0.43411 l 0.10764,0.1086 10e-4,0.004 c 0.0712,0.0702 0.0917,0.18109 0.042,0.27372 -10e-4,10e-4 -0.002,0.002 -0.003,0.004 l 10e-4,0.005 c -0.0332,0.0669 -0.0621,0.13664 -0.0859,0.20859 l -0.005,0.004 c -0.001,0.003 -0.001,0.005 -0.001,0.008 -0.0324,0.10958 -0.13842,0.17583 -0.24711,0.16218 h -0.12881 c -0.16824,0 -0.30457,0.13753 -0.30457,0.307 0,0.16942 0.13633,0.30703 0.30457,0.30703 h 0.15211 l 0.005,0.004 c 0.0985,-1.4e-4 0.18971,0.0636 0.2193,0.16355 2.9e-4,10e-4 2.9e-4,0.002 4.1e-4,0.003 l 0.006,0.004 c 0.024,0.0718 0.0526,0.1415 0.0861,0.20834 l -10e-4,0.009 c 10e-4,0.002 0.002,0.003 0.003,0.005 0.0533,0.0992 0.0267,0.22036 -0.0578,0.28856 l -0.0925,0.0934 c -0.11886,0.11977 -0.11886,0.31419 0,0.43411 0.1188,0.11977 0.31164,0.11977 0.43067,0 l 0.10772,-0.10852 0.004,-10e-4 c 0.0694,-0.0698 0.17826,-0.0895 0.26903,-0.04 0.001,2.9e-4 0.001,10e-4 0.001,10e-4 l 0.01,-0.002 c 0.0664,0.0335 0.13552,0.0627 0.20689,0.0866 l 0.006,0.008 c 0.001,3e-4 0.002,3e-4 0.003,10e-4 0.0995,0.0297 0.16259,0.12202 0.16229,0.22169 l 10e-4,10e-4 v 0.15363 c 0,0.16954 0.13626,0.307 0.3045,0.307 0.16816,0 0.30458,-0.13746 0.30458,-0.307 v -0.15364 l 0.001,-10e-4 c -2.9e-4,-0.0997 0.0628,-0.19186 0.16229,-0.22169 10e-4,-4.1e-4 0.002,-4.1e-4 0.004,-10e-4 l 0.006,-0.008 c 0.0712,-0.0242 0.14028,-0.0529 0.20665,-0.0868 l 0.01,0.002 c 4e-4,-2.9e-4 10e-4,-10e-4 0.002,-10e-4 0.0908,-0.0494 0.19962,-0.0299 0.26904,0.0401 l 0.005,0.001 0.10772,0.10852 c 0.11879,0.11977 0.31164,0.11977 0.43067,0 0.11887,-0.11992 0.11887,-0.31434 0,-0.43411 l -0.0926,-0.0934 c -0.0845,-0.0682 -0.11106,-0.18932 -0.0578,-0.28856 0.001,-0.002 0.002,-0.003 0.003,-0.005 l -0.001,-0.0102 c 0.0332,-0.0669 0.0624,-0.13565 0.0859,-0.2073 l 0.006,-0.005 c 2.2e-4,-10e-4 3.7e-4,-10e-4 4.1e-4,-0.002 0.0296,-0.1 0.12066,-0.16354 0.21916,-0.16354 l 0.005,-0.004 h 0.15231 c 0.16824,0 0.3045,-0.13761 0.3045,-0.30704 0,-0.16946 -0.13626,-0.30698 -0.3045,-0.30698 h -0.1289 c -0.10884,0.0136 -0.21477,-0.0526 -0.24704,-0.1622 -0.001,-0.003 -0.001,-0.006 -0.002,-0.008 l -0.005,-0.004 c -0.0239,-0.0718 -0.0526,-0.14151 -0.086,-0.20821 l 0.001,-0.005 c -0.001,-0.002 -0.002,-0.002 -0.003,-0.004 -0.0498,-0.0926 -0.0293,-0.20357 0.0419,-0.27372 l 0.001,-0.004 0.10772,-0.1086 c 0.11887,-0.11977 0.11887,-0.31419 0,-0.43411 -0.0565,-0.0568 -0.13917,-0.0893 -0.21314,-0.0922 -0.0842,0 -0.15233,-0.0686 -0.15233,-0.1535 0,-0.0848 0.0682,-0.15349 0.15233,-0.15349 0.0109,0 0.0215,10e-4 0.0318,0.003 0.14319,0.009 0.28756,0.0687 0.39654,0.17876 0.22369,0.22545 0.23431,0.58101 0.0375,0.82213 0.001,0.001 0.001,0.003 0.001,0.004 -0.001,10e-4 -0.001,10e-4 -0.002,0.002 -0.0549,0.0555 -0.10631,0.12667 -0.0741,0.20514 0.0321,0.0783 0.11229,0.0941 0.19629,0.0941 z m -1.04413,-0.77258 c -0.0842,0 -0.15225,-0.0688 -0.15225,-0.15357 0,-0.0846 0.0681,-0.15335 0.15225,-0.15335 0.0839,0 0.1521,0.0687 0.1521,0.15335 0,0.0848 -0.0682,0.15357 -0.1521,0.15357 z m -1.53276,2.75173 0.0115,-2.9e-4 v 0 z m 0.21834,0.0863 v 0 l 0.009,0.009 -0.009,-0.009 v 0 0 0 0 0 l 0.009,0.009 z"
       id="path2"
       sodipodi:nodetypes="scsccsccccccccscsccscccccccscsccccccccscsccccsssscccccccccccccccccccccsssccccccccccccccccccccccsssccccccccccccccccccccccsssccccccccccccssccccccsssssscccccccccccccccc"
       style="fill:#f2f2f2;fill-opacity:1;stroke-width:0.00955465" />
    <path
       fill-rule="evenodd"
       clip-rule="evenodd"
       d="m 412.13358,537.61351 c 0,0.002 0.001,0.004 0.001,0.007 -0.0304,0.30992 -0.28978,0.55254 -0.60543,0.55254 -0.31629,0 -0.57619,-0.24291 -0.60608,-0.55404 -0.002,-4.1e-4 -0.003,-0.002 -0.004,-0.002 1.5e-4,-0.002 0.001,-0.004 0.001,-0.007 0,-0.0782 -0.0138,-0.1654 -0.0914,-0.19778 -0.0778,-0.0324 -0.14557,0.0135 -0.20489,0.0734 -0.002,0.002 -0.003,0.005 -0.005,0.007 -0.23908,0.19605 -0.58968,0.18495 -0.81256,-0.0397 -0.22272,-0.22447 -0.23403,-0.57823 -0.0397,-0.81934 -0.002,-0.004 -0.003,-0.008 -0.005,-0.0111 0.002,-0.002 0.004,-0.002 0.006,-0.004 0.0549,-0.0555 0.10631,-0.12666 0.0739,-0.20499 -0.0322,-0.0784 -0.11211,-0.094 -0.19625,-0.094 -0.008,0 -0.0145,0.002 -0.0213,0.005 -0.29975,-0.0385 -0.53199,-0.29484 -0.53199,-0.60761 0,-0.31838 0.24042,-0.58003 0.5482,-0.61098 10e-4,-0.003 0.004,-0.006 0.005,-0.01 0.002,1.5e-4 0.003,10e-4 0.005,10e-4 0.0776,0 0.16383,-0.0139 0.19595,-0.0921 0.0323,-0.0783 -0.0134,-0.14675 -0.0729,-0.20662 -0.004,-0.004 -0.008,-0.005 -0.0122,-0.008 -0.18704,-0.24083 -0.1741,-0.58844 0.0458,-0.80998 0.22317,-0.225 0.57452,-0.23602 0.81375,-0.0391 0.004,-0.002 0.009,-0.003 0.0131,-0.005 0.0549,0.0553 0.1255,0.10694 0.20311,0.0745 0.0776,-0.0326 0.0934,-0.11332 0.0934,-0.19809 0,-0.006 -0.002,-0.0104 -0.003,-0.0157 0.0381,-0.30198 0.29273,-0.53604 0.60262,-0.53604 0.31699,0 0.57697,0.24405 0.60604,0.55597 0.003,0.001 0.005,0.002 0.008,0.004 10e-4,0.0771 0.015,0.16144 0.0913,0.19323 0.0775,0.0324 0.14497,-0.0132 0.20429,-0.073 0.23893,-0.19646 0.58998,-0.18543 0.813,0.0394 0.22399,0.22565 0.23434,0.58205 0.0365,0.82316 0.001,0.002 0.002,0.005 0.003,0.008 -0.0536,0.0549 -0.10221,0.12472 -0.0708,0.2014 0.0323,0.0783 0.1124,0.0941 0.19641,0.0941 3e-4,0 4.1e-4,-1.4e-4 0.001,-1.4e-4 0.30756,0.0312 0.54768,0.29206 0.54768,0.61029 0,0.32011 -0.24281,0.58252 -0.55281,0.61114 -2.1e-4,10e-4 -10e-4,10e-4 -10e-4,10e-4 -0.0182,0 -0.0369,10e-4 -0.0553,0.004 v -0.002 c -0.084,0 -0.15233,-0.0686 -0.15233,-0.15349 0,-0.0846 0.0683,-0.15335 0.15233,-0.15335 0.16825,0 0.30451,-0.13753 0.30451,-0.30707 0,-0.16961 -0.13626,-0.307 -0.30451,-0.307 h -0.15233 l -0.001,-0.001 c -0.10065,0.003 -0.19462,-0.0617 -0.22465,-0.16359 -10e-4,-0.002 -10e-4,-0.005 -10e-4,-0.007 l -0.002,-0.002 c -0.024,-0.0718 -0.0525,-0.14151 -0.0861,-0.20836 l 10e-4,-0.005 c -10e-4,-0.002 -0.003,-0.005 -0.005,-0.007 -0.0533,-0.0993 -0.0266,-0.22043 0.0578,-0.28862 l 0.0949,-0.0957 c 0.11896,-0.12 0.11896,-0.31441 0,-0.43418 -0.11894,-0.11984 -0.31179,-0.11984 -0.43058,0 l -0.10772,0.10852 -0.005,10e-4 c -0.0696,0.0718 -0.17962,0.0925 -0.2715,0.0423 -10e-4,-10e-4 -0.002,-0.002 -0.004,-0.003 l -0.005,10e-4 c -0.0664,-0.0335 -0.13553,-0.0627 -0.20689,-0.0867 l -0.004,-0.005 c -0.003,-10e-4 -0.005,-10e-4 -0.008,-10e-4 -0.10868,-0.0326 -0.1744,-0.13954 -0.16087,-0.24912 v -0.12986 c 0,-0.16961 -0.13642,-0.30706 -0.30451,-0.30706 -0.16805,0 -0.30454,0.13745 -0.30454,0.30706 v 0.15335 l -0.004,0.005 c 1.5e-4,0.0993 -0.063,0.19127 -0.16221,0.2211 -10e-4,2.9e-4 -0.002,2.9e-4 -0.003,4e-4 l -0.004,0.006 c -0.0712,0.0242 -0.14036,0.0531 -0.20667,0.0868 l -0.009,-10e-4 c -0.001,10e-4 -0.003,0.002 -0.005,0.004 -0.0984,0.0537 -0.21857,0.0268 -0.28621,-0.0583 l -0.0926,-0.0932 c -0.1188,-0.11984 -0.31164,-0.11984 -0.43059,0 -0.1188,0.11976 -0.1188,0.31419 0,0.43418 l 0.10764,0.1086 0.001,0.005 c 0.0693,0.07 0.0888,0.17971 0.0398,0.27122 -3e-4,10e-4 -0.001,10e-4 -0.001,0.002 l 0.002,0.01 c -0.0332,0.0669 -0.0622,0.13663 -0.0859,0.20858 l -0.008,0.006 c -3e-4,10e-4 -3e-4,0.002 -10e-4,0.004 -0.0294,0.10028 -0.12104,0.16391 -0.21991,0.16361 l -10e-4,10e-4 H 409.704 c -0.16817,0 -0.30452,0.13739 -0.30452,0.307 0,0.16954 0.13635,0.30707 0.30452,0.30707 h 0.15239 l 0.001,0.001 c 0.0989,-3e-4 0.19032,0.0633 0.2199,0.16361 4e-4,10e-4 4e-4,0.002 10e-4,0.003 l 0.008,0.006 c 0.024,0.0718 0.0525,0.14142 0.0861,0.20833 l -0.001,0.0101 c 3e-4,4.1e-4 0.001,10e-4 0.001,10e-4 0.0491,0.0915 0.0296,0.20124 -0.0397,0.27124 l -0.001,0.005 -0.10764,0.1086 c -0.1188,0.11976 -0.1188,0.31419 0,0.43419 0.11895,0.11985 0.31179,0.11985 0.43059,0 l 0.0926,-0.0933 c 0.0676,-0.0851 0.18778,-0.11197 0.28621,-0.0582 10e-4,10e-4 0.003,0.002 0.005,0.004 l 0.0101,-0.002 c 0.0663,0.0335 0.13455,0.0629 0.20562,0.0866 l 0.005,0.006 c 0.001,2.2e-4 0.002,3.8e-4 0.002,4.1e-4 0.0992,0.0298 0.16222,0.12164 0.16222,0.22094 l 0.004,0.005 v 0.15355 c 0,0.16962 0.1365,0.30701 0.30455,0.30701 0.16808,0 0.3045,-0.13739 0.3045,-0.30701 v -0.12993 c -0.0135,-0.10974 0.0522,-0.21653 0.16088,-0.24906 0.003,-0.001 0.005,-0.001 0.008,-0.002 l 0.003,-0.005 c 0.0712,-0.0241 0.14036,-0.0531 0.20653,-0.0867 l 0.005,10e-4 c 10e-4,-10e-4 0.002,-0.002 0.004,-0.003 0.0919,-0.0502 0.20191,-0.0295 0.27149,0.0423 l 0.005,10e-4 0.10772,0.10861 c 0.1188,0.11984 0.31164,0.11984 0.43059,0 0.0564,-0.057 0.0885,-0.14031 0.0914,-0.21488 0,-0.0848 0.0681,-0.15358 0.15225,-0.15358 0.0842,0 0.15226,0.0687 0.15226,0.15358 0,0.011 -10e-4,0.0217 -0.004,0.0321 -0.009,0.14435 -0.0682,0.2899 -0.17731,0.39978 -0.22363,0.2255 -0.5763,0.23621 -0.81546,0.0378 -0.001,10e-4 -0.004,10e-4 -0.005,0.002 -0.001,-10e-4 -0.001,-0.002 -0.002,-0.002 -0.055,-0.0554 -0.12564,-0.10718 -0.20348,-0.0747 -0.0777,0.0323 -0.0933,0.11322 -0.0933,0.1979 z m 0.76632,-1.05265 c 0,-0.0848 0.0682,-0.15349 0.15233,-0.15349 0.0839,0 0.1521,0.0686 0.1521,0.15349 0,0.0846 -0.0682,0.15334 -0.1521,0.15334 -0.0841,0 -0.15233,-0.0687 -0.15233,-0.15334 z m -2.72944,-1.54529 3e-4,0.0115 v 0 z m -0.0856,0.22013 v 0 l -0.009,0.009 0.009,-0.009 v 0 0 0 0 0 l -0.009,0.009 z"
       id="path2-36"
       sodipodi:nodetypes="scsccsccccccccscsccscccccccscsccccccccscsccccsssscccccccccccccccccccccsssccccccccccccccccccccccsssccccccccccccccccccccccsssccccccccccccssccccccsssssscccccccccccccccc"
       style="fill:#f2f2f2;fill-opacity:1;stroke-width:0.00955465" />
    <path
       fill-rule="evenodd"
       clip-rule="evenodd"
       d="m 410.82055,539.19049 c 0.002,0 0.004,-10e-4 0.006,-0.002 0.30739,0.0307 0.54804,0.29216 0.54804,0.61038 0,0.31887 -0.24094,0.5809 -0.54954,0.61103 -4e-4,10e-4 -0.002,0.003 -0.002,0.004 -0.002,-1.5e-4 -0.004,-10e-4 -0.006,-10e-4 -0.0776,0 -0.16405,0.0139 -0.19617,0.0922 -0.0322,0.0784 0.0134,0.14676 0.0728,0.20656 0.002,0.002 0.005,0.003 0.007,0.005 0.19447,0.24104 0.18346,0.5945 -0.0394,0.8192 -0.22265,0.22454 -0.57355,0.23594 -0.81271,0.0401 -0.003,0.002 -0.007,0.003 -0.011,0.005 -0.002,-0.002 -0.002,-0.004 -0.004,-0.006 -0.0551,-0.0553 -0.12565,-0.10718 -0.20333,-0.0745 -0.0778,0.0324 -0.0933,0.11302 -0.0933,0.19786 0,0.008 0.002,0.0145 0.005,0.0215 -0.0383,0.30219 -0.29244,0.53633 -0.60267,0.53633 -0.31581,0 -0.57533,-0.24239 -0.60604,-0.55268 -0.003,-0.001 -0.006,-0.004 -0.01,-0.005 1.5e-4,-0.002 10e-4,-0.003 10e-4,-0.005 0,-0.0782 -0.0138,-0.16517 -0.0914,-0.19756 -0.0777,-0.0326 -0.14556,0.0135 -0.20495,0.0734 -0.004,0.004 -0.005,0.008 -0.008,0.0123 -0.23886,0.18857 -0.58366,0.17553 -0.80341,-0.0462 -0.22317,-0.225 -0.23411,-0.57921 -0.0387,-0.8204 -0.002,-0.004 -0.003,-0.009 -0.005,-0.0132 0.0549,-0.0553 0.10609,-0.12652 0.0739,-0.20477 -0.0323,-0.0782 -0.1124,-0.0941 -0.19648,-0.0941 -0.005,0 -0.0104,0.002 -0.0155,0.003 -0.29952,-0.0384 -0.53169,-0.29512 -0.53169,-0.60755 0,-0.31958 0.24206,-0.58167 0.55146,-0.61098 10e-4,-0.003 0.002,-0.005 0.003,-0.008 0.0765,-10e-4 0.16014,-0.0152 0.19166,-0.0921 0.0322,-0.0781 -0.0131,-0.14614 -0.0724,-0.20595 -0.19485,-0.24088 -0.18391,-0.5948 0.0392,-0.81965 0.22384,-0.22582 0.57734,-0.23625 0.8165,-0.0368 0.002,-10e-4 0.005,-0.002 0.008,-0.003 0.0544,0.054 0.12371,0.10306 0.19976,0.0714 0.0777,-0.0325 0.0933,-0.11332 0.0933,-0.19802 0,-3e-4 -1.5e-4,-4.1e-4 -1.5e-4,-0.001 0.0309,-0.31007 0.2897,-0.55215 0.60535,-0.55215 0.31751,0 0.5778,0.24478 0.60618,0.55731 10e-4,2.3e-4 10e-4,10e-4 10e-4,10e-4 0,0.0184 10e-4,0.0372 0.004,0.0558 h -0.002 c 0,0.0847 -0.0681,0.15358 -0.15225,0.15358 -0.0839,0 -0.1521,-0.0689 -0.1521,-0.15358 0,-0.16962 -0.13642,-0.307 -0.30458,-0.307 -0.16824,0 -0.30451,0.13738 -0.30451,0.307 v 0.15358 l -10e-4,10e-4 c 0.003,0.10147 -0.0612,0.19621 -0.16229,0.22649 -0.002,10e-4 -0.005,10e-4 -0.007,0.002 l -0.002,0.002 c -0.0712,0.0242 -0.14035,0.0529 -0.20666,0.0868 l -0.005,-0.001 c -0.002,0.001 -0.004,0.004 -0.007,0.005 -0.0985,0.0537 -0.21864,0.0268 -0.28629,-0.0583 l -0.0949,-0.0956 c -0.11902,-0.11992 -0.31186,-0.11992 -0.43066,0 -0.11886,0.11991 -0.11886,0.31434 0,0.4341 l 0.10764,0.1086 10e-4,0.005 c 0.0712,0.0701 0.0917,0.18108 0.042,0.27371 -0.001,10e-4 -0.002,0.002 -0.003,0.004 l 0.001,0.005 c -0.0332,0.0669 -0.0621,0.13664 -0.0859,0.20859 l -0.005,0.003 c -10e-4,0.003 -10e-4,0.005 -0.002,0.008 -0.0324,0.10958 -0.13842,0.17583 -0.24711,0.16218 h -0.12881 c -0.16824,0 -0.30457,0.13754 -0.30457,0.307 0,0.16942 0.13633,0.30703 0.30457,0.30703 h 0.15211 l 0.004,0.004 c 0.0985,-1.5e-4 0.18971,0.0636 0.21929,0.16354 3e-4,10e-4 3e-4,10e-4 4.1e-4,0.003 l 0.006,0.004 c 0.0239,0.0718 0.0526,0.14151 0.0861,0.20836 l -10e-4,0.009 c 10e-4,0.002 0.002,0.003 0.004,0.005 0.0533,0.0992 0.0266,0.22036 -0.0578,0.28856 l -0.0925,0.0934 c -0.11886,0.11976 -0.11886,0.31419 0,0.43411 0.1188,0.11977 0.31165,0.11977 0.43068,0 l 0.10772,-0.10852 0.005,-10e-4 c 0.0694,-0.0699 0.17826,-0.0895 0.26903,-0.04 10e-4,3e-4 10e-4,10e-4 0.002,10e-4 l 0.01,-10e-4 c 0.0664,0.0335 0.13553,0.0627 0.2069,0.0866 l 0.006,0.008 c 10e-4,3e-4 0.002,3e-4 0.003,10e-4 0.0995,0.0297 0.16257,0.12203 0.16227,0.22171 l 10e-4,10e-4 v 0.15363 c 0,0.16954 0.13627,0.307 0.3045,0.307 0.16817,0 0.30459,-0.13746 0.30459,-0.307 v -0.15363 l 0.001,-10e-4 c -2.9e-4,-0.0997 0.0628,-0.19188 0.1623,-0.22171 10e-4,-4e-4 0.002,-4e-4 0.003,-10e-4 l 0.006,-0.008 c 0.0712,-0.0242 0.14028,-0.0529 0.20665,-0.0868 l 0.01,10e-4 c 4.1e-4,-3.1e-4 10e-4,-10e-4 0.002,-10e-4 0.0908,-0.0494 0.19962,-0.0299 0.26904,0.0401 l 0.005,0.001 0.10772,0.10852 c 0.1188,0.11977 0.31165,0.11977 0.43067,0 0.11887,-0.11992 0.11887,-0.31435 0,-0.43411 l -0.0926,-0.0934 c -0.0844,-0.0682 -0.11106,-0.18931 -0.0577,-0.28855 10e-4,-0.002 0.002,-0.004 0.004,-0.005 l -0.002,-0.0102 c 0.0332,-0.0668 0.0624,-0.13565 0.0859,-0.2073 l 0.006,-0.005 c 2.2e-4,-10e-4 3.7e-4,-0.002 4.1e-4,-0.002 0.0295,-0.1 0.12066,-0.16354 0.21915,-0.16354 l 0.005,-0.003 h 0.15231 c 0.16825,0 0.30451,-0.13761 0.30451,-0.30703 0,-0.16946 -0.13626,-0.307 -0.30451,-0.307 h -0.12908 c -0.10885,0.0136 -0.21477,-0.0526 -0.24704,-0.16218 -10e-4,-0.003 -10e-4,-0.006 -0.002,-0.008 l -0.005,-0.003 c -0.0239,-0.0718 -0.0526,-0.1415 -0.086,-0.20821 l 0.001,-0.005 c -0.001,-0.002 -0.002,-0.002 -0.003,-0.004 -0.0498,-0.0926 -0.0292,-0.20357 0.0419,-0.27371 l 0.001,-0.005 0.10773,-0.1086 c 0.11886,-0.11976 0.11886,-0.31419 0,-0.4341 -0.0565,-0.0568 -0.13918,-0.0893 -0.21314,-0.0922 -0.0842,0 -0.15233,-0.0686 -0.15233,-0.15349 0,-0.0849 0.0682,-0.15351 0.15233,-0.15351 0.0109,0 0.0215,10e-4 0.0319,0.004 0.14318,0.009 0.28756,0.0687 0.39654,0.17875 0.22368,0.22546 0.23431,0.58101 0.0375,0.82213 0.001,10e-4 0.001,0.003 0.002,0.005 -10e-4,10e-4 -0.002,10e-4 -0.002,10e-4 -0.0549,0.0555 -0.10632,0.12666 -0.0741,0.20513 0.0321,0.0783 0.1123,0.0941 0.19629,0.0941 z m -1.04413,-0.77258 c -0.0841,0 -0.15225,-0.0688 -0.15225,-0.15357 0,-0.0846 0.0681,-0.15334 0.15225,-0.15334 0.0839,0 0.1521,0.0687 0.1521,0.15334 0,0.0848 -0.0682,0.15357 -0.1521,0.15357 z m -1.53276,2.75173 0.0115,-2.9e-4 v 0 z m 0.21833,0.0863 v 0 l 0.009,0.009 -0.009,-0.009 v 0 0 0 0 0 l 0.009,0.009 z"
       id="path2-7"
       sodipodi:nodetypes="scsccsccccccccscsccscccccccscsccccccccscsccccsssscccccccccccccccccccccsssccccccccccccccccccccccsssccccccccccccccccccccccsssccccccccccccssccccccsssssscccccccccccccccc"
       style="fill:#f2f2f2;fill-opacity:1;stroke-width:0.00955465" />
  </g>
</svg>
