<?xml version="1.0" encoding="UTF-8" standalone="no"?>
<svg
   width="32"
   version="1.1"
   height="32"
   viewBox="0 0 32 32"
   id="svg17"
   sodipodi:docname="folder-script.svg"
   inkscape:version="1.1.1 (3bf5ae0d25, 2021-09-20)"
   xmlns:inkscape="http://www.inkscape.org/namespaces/inkscape"
   xmlns:sodipodi="http://sodipodi.sourceforge.net/DTD/sodipodi-0.dtd"
   xmlns:xlink="http://www.w3.org/1999/xlink"
   xmlns="http://www.w3.org/2000/svg"
   xmlns:svg="http://www.w3.org/2000/svg"
   xmlns:rdf="http://www.w3.org/1999/02/22-rdf-syntax-ns#"
   xmlns:cc="http://creativecommons.org/ns#"
   xmlns:dc="http://purl.org/dc/elements/1.1/">
  <sodipodi:namedview
     pagecolor="#ffffff"
     bordercolor="#666666"
     borderopacity="1"
     objecttolerance="10"
     gridtolerance="10"
     guidetolerance="10"
     inkscape:pageopacity="0"
     inkscape:pageshadow="2"
     inkscape:window-width="1920"
     inkscape:window-height="1006"
     id="namedview19"
     showgrid="false"
     inkscape:zoom="9.8125"
     inkscape:cx="-7.9490446"
     inkscape:cy="17.732484"
     inkscape:window-x="0"
     inkscape:window-y="0"
     inkscape:window-maximized="1"
     inkscape:current-layer="layer1"
     inkscape:document-rotation="0"
     inkscape:pagecheckerboard="0" />
  <defs
     id="defs5455">
    <linearGradient
       inkscape:collect="always"
       xlink:href="#linearGradient860-3"
       id="linearGradient862"
       x1="113.94677"
       y1="255.36646"
       x2="406.08289"
       y2="255.36646"
       gradientUnits="userSpaceOnUse"
       gradientTransform="matrix(0.10135135,0,0,0.09220346,374.22015,507.65424)" />
    <linearGradient
       inkscape:collect="always"
       id="linearGradient860-3">
      <stop
         style="stop-color:#78acd3;stop-opacity:1"
         offset="0"
         id="stop856-6" />
      <stop
         style="stop-color:#d98cbb;stop-opacity:1"
         offset="1"
         id="stop858-7" />
    </linearGradient>
    <linearGradient
       inkscape:collect="always"
       xlink:href="#linearGradient842-3"
       id="linearGradient844-5"
       x1="386.30627"
       y1="522.45404"
       x2="446.83023"
       y2="522.45404"
       gradientUnits="userSpaceOnUse"
       gradientTransform="matrix(0.49567132,0,0,0.49972085,194.0905,274.04968)" />
    <linearGradient
       inkscape:collect="always"
       id="linearGradient842-3">
      <stop
         style="stop-color:#326e9a;stop-opacity:1"
         offset="0"
         id="stop838-5" />
      <stop
         style="stop-color:#339993;stop-opacity:1"
         offset="1"
         id="stop840-6" />
    </linearGradient>
  </defs>
  <metadata
     id="metadata5458">
    <rdf:RDF>
      <cc:Work
         rdf:about="">
        <dc:format>image/svg+xml</dc:format>
        <dc:type
           rdf:resource="http://purl.org/dc/dcmitype/StillImage" />
      </cc:Work>
    </rdf:RDF>
  </metadata>
  <g
     inkscape:label="Capa 1"
     inkscape:groupmode="layer"
     id="layer1"
     transform="translate(-384.57143,-515.798)">
    <path
       style="fill:url(#linearGradient862);fill-opacity:1;stroke-width:0.089569"
       d="m 400.57301,522.37782 c -0.44016,0 -0.96119,-0.25824 -1.15846,-0.57392 l -0.88505,-1.41859 c -0.19637,-0.31567 -0.7174,-0.57334 -1.1574,-0.57391 l -10.20056,-0.0134 c -0.973,-10e-4 -1.3831,0.46748 -1.39693,1.50207 l -0.006,0.43614 v 1.28321 18.28579 c 0,0.35288 1.16036,1.28321 1.60036,1.28321 h 26.40757 c 0.44001,0 1.60036,-0.93033 1.60036,-1.28321 v -17.64418 c 0,-0.96241 -0.40002,-1.28321 -1.60036,-1.28321 z"
       id="path4-3-2"
       sodipodi:nodetypes="sccsssccsssssss" />
    <path
       style="fill:#f2f2f2;fill-opacity:1;stroke-width:0.0882825"
       d="m 413.46046,529.22773 c 0,0.66274 -0.39788,1.20497 -1.30857,1.20497 H 389.0541 c -0.9107,0 -1.25926,-0.54223 -1.25926,-1.20497 v -3.61492 c 0,-0.66274 0.34856,-1.20498 1.25926,-1.20498 h 23.04822 c 0.91069,0 1.35814,0.54224 1.35814,1.20498 z"
       id="path8-6-9"
       sodipodi:nodetypes="sssssssss" />
    <path
       style="fill:url(#linearGradient844-5);fill-opacity:1;stroke-width:0.09667"
       d="m 413.94973,526.46374 h -26.7566 c -0.81091,0 -1.6217,0.73763 -1.6217,1.47526 v 14.38374 c 0,0.97553 0.62711,1.47525 1.6217,1.47525 h 26.7566 c 0.99775,0 1.6217,-0.49972 1.6217,-1.47525 V 527.939 c 0,-0.73763 -0.8108,-1.47526 -1.6217,-1.47526 z"
       id="path10-1"
       sodipodi:nodetypes="sssssssss" />
    <path
       d="m 414.09605,539.16972 c 0,0.29355 -0.13048,0.56791 -0.358,0.75276 l -2.55454,2.07535 c -0.47863,0.40021 -1.22327,0.40021 -1.70186,0 l -2.55455,-2.07535 c -0.47427,-0.37147 -0.47419,-1.13411 0,-1.50553 l 0.7619,-0.61897 -0.7619,-0.61897 c -0.47427,-0.37147 -0.47419,-1.13411 0,-1.50553 l 2.55453,-2.07533 c 0.47863,-0.40021 1.22327,-0.40021 1.70186,-2e-5 l 2.55454,2.07535 c 0.47427,0.37148 0.4742,1.13411 0,1.50553 -0.37397,0.27982 -0.79388,-0.23766 -0.44358,-0.54598 0.13162,-0.10879 0.13181,-0.30458 0,-0.41358 l -2.5545,-2.07531 c -0.23603,-0.19177 -0.57866,-0.19177 -0.81476,0 l -2.55451,2.07533 c -0.13161,0.10878 -0.1318,0.30458 0,0.41358 l 2.55453,2.07533 c 0.23602,0.19174 0.57866,0.19177 0.81476,0 0.002,-0.001 0.002,-0.003 0.004,-0.004 l 0.40844,-0.32166 c 0.15263,-0.12018 0.37377,-0.0939 0.49395,0.0587 0.12018,0.15262 0.0939,0.37377 -0.0587,0.49395 l -0.40642,0.32007 c -0.47868,0.39854 -1.22185,0.39779 -1.6997,-0.002 l -1.23485,-1.00319 -0.87611,0.71177 c -0.13162,0.10879 -0.13181,0.30458 0,0.41358 l 2.5545,2.07531 c 0.23603,0.19175 0.57866,0.19178 0.81476,0 l 2.5545,-2.07533 c 0.13162,-0.10879 0.13181,-0.30458 0,-0.41357 l -2.55452,-2.07531 c -0.23602,-0.19177 -0.57866,-0.19177 -0.81476,0 -0.002,10e-4 -0.003,0.002 -0.004,0.003 l -0.40844,0.32165 c -0.15262,0.1202 -0.37375,0.0939 -0.49395,-0.0587 -0.12019,-0.15261 -0.0939,-0.37376 0.0587,-0.49395 l 0.40642,-0.32007 c 0.47868,-0.39854 1.22185,-0.39778 1.6997,0.002 l 2.55454,2.07535 c 0.22754,0.18485 0.35803,0.45921 0.35803,0.75277 z"
       id="path2"
       style="fill:#f2f2f2;fill-opacity:1;stroke-width:0.0175863" />
  </g>
</svg>
