<?xml version="1.0" encoding="UTF-8" standalone="no"?>
<svg
   width="32"
   version="1.1"
   height="32"
   viewBox="0 0 32 32"
   id="svg17"
   sodipodi:docname="folder-mail.svg"
   inkscape:version="1.1.1 (3bf5ae0d25, 2021-09-20)"
   xmlns:inkscape="http://www.inkscape.org/namespaces/inkscape"
   xmlns:sodipodi="http://sodipodi.sourceforge.net/DTD/sodipodi-0.dtd"
   xmlns:xlink="http://www.w3.org/1999/xlink"
   xmlns="http://www.w3.org/2000/svg"
   xmlns:svg="http://www.w3.org/2000/svg"
   xmlns:rdf="http://www.w3.org/1999/02/22-rdf-syntax-ns#"
   xmlns:cc="http://creativecommons.org/ns#"
   xmlns:dc="http://purl.org/dc/elements/1.1/">
  <sodipodi:namedview
     pagecolor="#ffffff"
     bordercolor="#666666"
     borderopacity="1"
     objecttolerance="10"
     gridtolerance="10"
     guidetolerance="10"
     inkscape:pageopacity="0"
     inkscape:pageshadow="2"
     inkscape:window-width="1920"
     inkscape:window-height="1006"
     id="namedview19"
     showgrid="false"
     inkscape:zoom="9.8125"
     inkscape:cx="-11.719745"
     inkscape:cy="1.7324841"
     inkscape:window-x="0"
     inkscape:window-y="0"
     inkscape:window-maximized="1"
     inkscape:current-layer="layer1"
     inkscape:document-rotation="0"
     inkscape:pagecheckerboard="0" />
  <defs
     id="defs5455">
    <linearGradient
       inkscape:collect="always"
       xlink:href="#linearGradient860-3"
       id="linearGradient862"
       x1="113.94677"
       y1="255.36646"
       x2="406.08289"
       y2="255.36646"
       gradientUnits="userSpaceOnUse"
       gradientTransform="matrix(0.10135135,0,0,0.09220346,374.22015,507.65425)" />
    <linearGradient
       inkscape:collect="always"
       id="linearGradient860-3">
      <stop
         style="stop-color:#78acd3;stop-opacity:1"
         offset="0"
         id="stop856-6" />
      <stop
         style="stop-color:#d98cbb;stop-opacity:1"
         offset="1"
         id="stop858-7" />
    </linearGradient>
    <linearGradient
       inkscape:collect="always"
       xlink:href="#linearGradient842-3"
       id="linearGradient844-5"
       x1="386.30627"
       y1="522.45404"
       x2="446.83023"
       y2="522.45404"
       gradientUnits="userSpaceOnUse"
       gradientTransform="matrix(0.49567132,0,0,0.49972085,194.0905,274.04969)" />
    <linearGradient
       inkscape:collect="always"
       id="linearGradient842-3">
      <stop
         style="stop-color:#326e9a;stop-opacity:1"
         offset="0"
         id="stop838-5" />
      <stop
         style="stop-color:#339993;stop-opacity:1"
         offset="1"
         id="stop840-6" />
    </linearGradient>
  </defs>
  <metadata
     id="metadata5458">
    <rdf:RDF>
      <cc:Work
         rdf:about="">
        <dc:format>image/svg+xml</dc:format>
        <dc:type
           rdf:resource="http://purl.org/dc/dcmitype/StillImage" />
      </cc:Work>
    </rdf:RDF>
  </metadata>
  <g
     inkscape:label="Capa 1"
     inkscape:groupmode="layer"
     id="layer1"
     transform="translate(-384.57143,-515.798)">
    <path
       style="fill:url(#linearGradient862);fill-opacity:1;stroke-width:0.089569"
       d="m 400.57301,522.37783 c -0.44016,0 -0.96119,-0.25824 -1.15846,-0.57392 l -0.88505,-1.41859 c -0.19637,-0.31567 -0.7174,-0.57334 -1.1574,-0.57391 l -10.20056,-0.0134 c -0.973,-0.002 -1.3831,0.46748 -1.39693,1.50207 l -0.006,0.43614 v 1.28321 18.28579 c 0,0.35288 1.16036,1.28321 1.60036,1.28321 h 26.40757 c 0.44001,0 1.60036,-0.93033 1.60036,-1.28321 v -17.64418 c 0,-0.96241 -0.40002,-1.28321 -1.60036,-1.28321 z"
       id="path4-3-2"
       sodipodi:nodetypes="sccsssccsssssss" />
    <path
       style="fill:#f2f2f2;fill-opacity:1;stroke-width:0.0882825"
       d="m 413.46046,529.22774 c 0,0.66274 -0.39788,1.20497 -1.30857,1.20497 H 389.0541 c -0.9107,0 -1.25926,-0.54223 -1.25926,-1.20497 v -3.61492 c 0,-0.66274 0.34856,-1.20498 1.25926,-1.20498 h 23.04822 c 0.91069,0 1.35814,0.54224 1.35814,1.20498 z"
       id="path8-6-9"
       sodipodi:nodetypes="sssssssss" />
    <path
       style="fill:url(#linearGradient844-5);fill-opacity:1;stroke-width:0.09667"
       d="m 413.94973,526.46375 h -26.7566 c -0.81091,0 -1.6217,0.73763 -1.6217,1.47526 v 14.38374 c 0,0.97553 0.62711,1.47525 1.6217,1.47525 h 26.7566 c 0.99775,0 1.6217,-0.49972 1.6217,-1.47525 v -14.38374 c 0,-0.73763 -0.8108,-1.47526 -1.6217,-1.47526 z"
       id="path10-1"
       sodipodi:nodetypes="sssssssss" />
    <path
       fill-rule="evenodd"
       clip-rule="evenodd"
       d="m 404.67885,540.52101 c -0.13389,-0.13498 -0.13389,-0.35408 0,-0.48904 l 0.97062,-0.97855 c 0.13396,-0.13547 0.3512,-0.13547 0.48516,0 0.13395,0.13496 0.13395,0.35406 0,0.48902 l -0.97062,0.97857 c -0.13398,0.1351 -0.3512,0.1351 -0.48516,0 z m 6.98067,0 -0.97062,-0.97857 c -0.13385,-0.13496 -0.13385,-0.35406 0,-0.48902 0.13404,-0.13547 0.35117,-0.13547 0.48523,0 l 0.97064,0.97855 c 0.13383,0.13496 0.13383,0.35406 0,0.48904 -0.13406,0.1351 -0.35123,0.1351 -0.48525,0 z m 1.84775,-5.20645 -4.12491,3.81268 c -0.53602,0.54039 -1.40511,0.54039 -1.94117,0 l -2.42021,-2.44005 -0.15472,-0.15589 -0.66089,-0.6664 -0.002,10e-4 c -0.0626,-0.0789 -0.15182,-0.14612 -0.25184,-0.14612 -0.18966,0 -0.34324,0.15492 -0.34324,0.34596 v 0.97465 0.40946 3.45916 c 0,0.38242 0.30721,0.69201 0.68638,0.69201 h 8.23528 c 0.37918,0 0.68625,-0.30959 0.68625,-0.69201 v -4.15122 c 0,-0.19122 0.15367,-0.34595 0.34335,-0.34595 0.18952,0 0.34314,0.15475 0.34314,0.34595 v 4.15122 c 0,0.76433 -0.61475,1.38411 -1.37274,1.38411 h -8.23528 c -0.75808,-3e-5 -1.37274,-0.6198 -1.37274,-1.38413 v -4.84325 c 0,-0.57299 0.4611,-1.03754 1.0296,-1.03754 0.26491,0 0.50399,0.12215 0.68636,0.29936 v -0.006 l 3.28927,3.31623 c 0.26785,0.27047 0.70239,0.27047 0.9703,0 l 4.12471,-3.81267 c 0.13441,-0.13497 0.19888,-0.31218 0.19807,-0.48903 h -0.004 c 0,-0.38226 -0.30708,-0.34595 -0.68626,-0.34595 h -7.20602 c -0.18925,0 -0.34321,-0.1549 -0.34321,-0.34612 0,-0.19104 0.15396,-0.34596 0.34321,-0.34596 h 7.20603 c 0.62948,0 1.15908,0.19004 1.32062,0.69205 v 0 c 0.1171,0.459 0.0136,0.96539 -0.3428,1.32451 z m -9.55625,-1.32448 c -0.18965,0 -0.34324,-0.1549 -0.34324,-0.34613 0,-0.19103 0.15359,-0.34595 0.34324,-0.34595 0.18959,0 0.34314,0.1549 0.34314,0.34595 0,0.19123 -0.15355,0.34613 -0.34314,0.34613 z"
       id="path2"
       style="fill:#f2f2f2;fill-opacity:1;stroke-width:0.0215342" />
  </g>
</svg>
