<?xml version="1.0" encoding="UTF-8" standalone="no"?>
<svg
   width="32"
   version="1.1"
   height="32"
   viewBox="0 0 32 32"
   id="svg15"
   sodipodi:docname="folder-podcast.svg"
   inkscape:version="1.1.1 (3bf5ae0d25, 2021-09-20)"
   xmlns:inkscape="http://www.inkscape.org/namespaces/inkscape"
   xmlns:sodipodi="http://sodipodi.sourceforge.net/DTD/sodipodi-0.dtd"
   xmlns:xlink="http://www.w3.org/1999/xlink"
   xmlns="http://www.w3.org/2000/svg"
   xmlns:svg="http://www.w3.org/2000/svg"
   xmlns:rdf="http://www.w3.org/1999/02/22-rdf-syntax-ns#"
   xmlns:cc="http://creativecommons.org/ns#"
   xmlns:dc="http://purl.org/dc/elements/1.1/">
  <sodipodi:namedview
     pagecolor="#ffffff"
     bordercolor="#666666"
     borderopacity="1"
     objecttolerance="10"
     gridtolerance="10"
     guidetolerance="10"
     inkscape:pageopacity="0"
     inkscape:pageshadow="2"
     inkscape:window-width="1920"
     inkscape:window-height="1006"
     id="namedview17"
     showgrid="false"
     inkscape:zoom="9.8125"
     inkscape:cx="-12.942675"
     inkscape:cy="6.522293"
     inkscape:window-x="0"
     inkscape:window-y="0"
     inkscape:window-maximized="1"
     inkscape:current-layer="layer1"
     inkscape:document-rotation="0"
     inkscape:pagecheckerboard="0" />
  <defs
     id="defs5455">
    <linearGradient
       inkscape:collect="always"
       id="linearGradient860">
      <stop
         style="stop-color:#78acd3;stop-opacity:1"
         offset="0"
         id="stop856" />
      <stop
         style="stop-color:#d98cbb;stop-opacity:1"
         offset="1"
         id="stop858" />
    </linearGradient>
    <linearGradient
       inkscape:collect="always"
       id="linearGradient842">
      <stop
         style="stop-color:#326e9a;stop-opacity:1"
         offset="0"
         id="stop838" />
      <stop
         style="stop-color:#339993;stop-opacity:1"
         offset="1"
         id="stop840" />
    </linearGradient>
    <linearGradient
       inkscape:collect="always"
       xlink:href="#linearGradient860"
       id="linearGradient862-3"
       x1="113.94677"
       y1="255.36646"
       x2="406.08289"
       y2="255.36646"
       gradientUnits="userSpaceOnUse"
       gradientTransform="matrix(0.10135135,0,0,0.09220346,374.22015,507.65425)" />
    <linearGradient
       inkscape:collect="always"
       xlink:href="#linearGradient842"
       id="linearGradient844-5"
       x1="386.30627"
       y1="522.45404"
       x2="446.83023"
       y2="522.45404"
       gradientUnits="userSpaceOnUse"
       gradientTransform="matrix(0.49567132,0,0,0.49972085,194.0905,274.0497)" />
  </defs>
  <metadata
     id="metadata5458">
    <rdf:RDF>
      <cc:Work
         rdf:about="">
        <dc:format>image/svg+xml</dc:format>
        <dc:type
           rdf:resource="http://purl.org/dc/dcmitype/StillImage" />
      </cc:Work>
    </rdf:RDF>
  </metadata>
  <g
     inkscape:label="Capa 1"
     inkscape:groupmode="layer"
     id="layer1"
     transform="translate(-384.57143,-515.798)">
    <path
       style="fill:url(#linearGradient862-3);fill-opacity:1;stroke-width:0.089569"
       d="m 400.57301,522.37783 c -0.44016,0 -0.96119,-0.25824 -1.15846,-0.57392 l -0.88505,-1.41859 c -0.19637,-0.31567 -0.7174,-0.57334 -1.1574,-0.57391 l -10.20056,-0.0134 c -0.973,-0.002 -1.3831,0.46748 -1.39693,1.50207 l -0.006,0.43614 v 1.28321 18.28579 c 0,0.35288 1.16036,1.28321 1.60036,1.28321 h 26.40757 c 0.44001,0 1.60036,-0.93033 1.60036,-1.28321 v -17.64418 c 0,-0.96241 -0.40002,-1.28321 -1.60036,-1.28321 z"
       id="path4-3-6"
       sodipodi:nodetypes="sccsssccsssssss" />
    <path
       style="fill:#f2f2f2;fill-opacity:1;stroke-width:0.0882825"
       d="m 413.46046,529.22774 c 0,0.66274 -0.39788,1.20497 -1.30857,1.20497 H 389.0541 c -0.9107,0 -1.25926,-0.54223 -1.25926,-1.20497 v -3.61492 c 0,-0.66274 0.34856,-1.20498 1.25926,-1.20498 h 23.04822 c 0.91069,0 1.35814,0.54224 1.35814,1.20498 z"
       id="path8-6-2"
       sodipodi:nodetypes="sssssssss" />
    <path
       style="fill:url(#linearGradient844-5);fill-opacity:1;stroke-width:0.09667"
       d="m 413.94973,526.46375 h -26.7566 c -0.81091,0 -1.6217,0.73763 -1.6217,1.47526 v 14.38374 c 0,0.97553 0.62711,1.47525 1.6217,1.47525 h 26.7566 c 0.99775,0 1.6217,-0.49972 1.6217,-1.47525 v -14.38374 c 0,-0.73763 -0.8108,-1.47526 -1.6217,-1.47526 z"
       id="path10-9"
       sodipodi:nodetypes="sssssssss" />
    <path
       d="m 414.07184,541.17285 c 0,0.62113 -0.50369,1.1247 -1.12494,1.1247 h -0.56249 c -0.62151,0 -1.12508,-0.50357 -1.12508,-1.1247 0,-0.13814 -0.007,-0.27436 -0.018,-0.40966 -0.001,-0.0226 -0.003,-0.0455 -0.005,-0.0678 -0.0121,-0.12827 -0.0294,-0.25542 -0.0508,-0.38096 -0.004,-0.0246 -0.009,-0.0485 -0.0131,-0.0728 -0.0238,-0.12647 -0.0511,-0.25157 -0.084,-0.37489 -0.005,-0.018 -0.01,-0.035 -0.0152,-0.0527 -0.0352,-0.12704 -0.0741,-0.25254 -0.11892,-0.37559 -5e-4,-0.002 -0.001,-0.004 -0.002,-0.006 -0.0451,-0.12358 -0.0964,-0.24444 -0.15106,-0.36337 -0.008,-0.0173 -0.0149,-0.0346 -0.023,-0.0516 -0.0537,-0.11357 -0.11167,-0.22425 -0.17319,-0.333 -0.0107,-0.0192 -0.0217,-0.0382 -0.0327,-0.0574 -0.0632,-0.10807 -0.12991,-0.2141 -0.20062,-0.31694 -0.01,-0.0141 -0.0199,-0.0283 -0.0296,-0.0421 -0.0736,-0.10478 -0.15024,-0.20724 -0.23125,-0.30597 -0.002,-0.003 -0.005,-0.006 -0.007,-0.009 -0.0814,-0.0983 -0.16698,-0.19266 -0.25515,-0.28466 -0.0145,-0.0155 -0.0289,-0.0309 -0.0439,-0.0461 -0.086,-0.0876 -0.17584,-0.17179 -0.26826,-0.25282 -0.0167,-0.0148 -0.0337,-0.0297 -0.0505,-0.0438 -0.0946,-0.0808 -0.19109,-0.1586 -0.29133,-0.23208 -0.0143,-0.0105 -0.029,-0.0202 -0.0433,-0.0307 -0.10436,-0.0751 -0.21058,-0.14734 -0.32098,-0.21449 -0.002,-10e-4 -0.004,-0.002 -0.006,-0.003 -0.10877,-0.0662 -0.22137,-0.12703 -0.33513,-0.18539 -0.0206,-0.0104 -0.0404,-0.0212 -0.0609,-0.0312 -0.10938,-0.0539 -0.22102,-0.10314 -0.33487,-0.14928 -0.024,-0.01 -0.0479,-0.0195 -0.0722,-0.0287 -0.1157,-0.0448 -0.23304,-0.0857 -0.35287,-0.12195 -0.0186,-0.006 -0.0378,-0.0107 -0.0564,-0.0161 -0.44932,-0.1306 -0.92392,-0.20214 -1.41553,-0.20214 -0.31056,0 -0.56248,0.25158 -0.56248,0.56221 v 0.56263 c 0,0.3105 0.25194,0.56249 0.56248,0.56249 0.30876,0 0.60669,0.0451 0.89081,0.12263 0.0871,0.024 0.17246,0.0511 0.25666,0.0817 0.005,0.002 0.009,0.004 0.0143,0.006 0.41657,0.153 0.794,0.38562 1.11499,0.67924 0.0139,0.0129 0.0284,0.0249 0.0419,0.0382 0.0505,0.0476 0.099,0.0971 0.14632,0.1479 0.0208,0.0224 0.0417,0.0448 0.0618,0.0678 0.0423,0.0472 0.0826,0.0952 0.12201,0.14501 0.0234,0.0297 0.0457,0.0606 0.0681,0.0912 0.0354,0.0482 0.0713,0.0959 0.10409,0.14557 0.024,0.0367 0.0451,0.0744 0.0678,0.11166 0.0441,0.0732 0.0858,0.14761 0.12427,0.22425 0.0283,0.0561 0.0567,0.11221 0.082,0.17028 0.0177,0.04 0.0325,0.0813 0.0486,0.12236 0.0211,0.0545 0.0419,0.10903 0.0602,0.16493 0.0139,0.0417 0.0262,0.0835 0.0382,0.12552 0.017,0.0596 0.0324,0.12003 0.0464,0.18058 0.009,0.0399 0.0183,0.0795 0.0258,0.12016 0.013,0.0676 0.0224,0.13623 0.0312,0.20462 0.004,0.0364 0.01,0.072 0.0135,0.10849 0.006,0.0663 0.008,0.13376 0.0101,0.20092 0.004,0.0385 0.006,0.0773 0.006,0.11673 0,0.62113 -0.50355,1.1247 -1.12508,1.1247 h -0.42192 -0.14062 c -0.62118,0 -1.12481,-0.50357 -1.12481,-1.1247 0,-0.31064 -0.25193,-0.56263 -0.56253,-0.56263 -0.31056,0 -0.56248,0.25199 -0.56248,0.56263 0,0.3105 0.25194,0.56221 0.56248,0.56221 0.15551,0 0.2813,0.12606 0.2813,0.28125 0,0.15546 -0.12579,0.28124 -0.2813,0.28124 -0.62122,-3e-5 -1.12477,-0.5036 -1.12477,-1.12473 0,-0.62153 0.50355,-1.12511 1.12475,-1.12511 0.62125,0 1.12515,0.50357 1.12515,1.12511 0,0.31051 0.25157,0.56221 0.56219,0.56221 h 0.14062 0.42192 c 0.31056,0 0.56255,-0.2517 0.56255,-0.56221 0,-0.42612 -0.0974,-0.82848 -0.26711,-1.19048 -0.0145,-0.0309 -0.0287,-0.0621 -0.0445,-0.0927 -0.0208,-0.0406 -0.0432,-0.0808 -0.0658,-0.12044 -0.0171,-0.0299 -0.0354,-0.0593 -0.0536,-0.0883 -0.023,-0.0368 -0.0463,-0.074 -0.0709,-0.10972 -0.0378,-0.0545 -0.0779,-0.10752 -0.11919,-0.15929 -0.0246,-0.0302 -0.0504,-0.0592 -0.076,-0.0886 -0.0302,-0.0346 -0.0612,-0.0693 -0.093,-0.10244 -0.0261,-0.0267 -0.0523,-0.053 -0.0794,-0.0788 -0.0344,-0.0331 -0.0703,-0.0647 -0.10629,-0.0961 -0.023,-0.0199 -0.0457,-0.0404 -0.0693,-0.0596 -0.0599,-0.0483 -0.12141,-0.0953 -0.18512,-0.13883 -0.0186,-0.0127 -0.0382,-0.0233 -0.0571,-0.0356 -0.0495,-0.0319 -0.1,-0.0634 -0.15167,-0.0924 -0.0265,-0.0148 -0.0533,-0.0287 -0.0801,-0.0426 -0.0489,-0.0256 -0.099,-0.0491 -0.14947,-0.072 -0.0249,-0.0109 -0.0491,-0.0226 -0.0744,-0.0331 -0.0748,-0.0305 -0.15077,-0.0589 -0.22864,-0.0835 -0.009,-0.003 -0.0192,-0.005 -0.029,-0.008 -0.07,-0.0211 -0.14166,-0.0397 -0.21381,-0.0551 -0.0269,-0.006 -0.0546,-0.0107 -0.082,-0.0158 -0.0586,-0.0111 -0.11824,-0.0199 -0.17817,-0.0272 -0.0259,-0.003 -0.0511,-0.006 -0.0773,-0.009 -0.0861,-0.008 -0.17247,-0.0131 -0.26049,-0.0131 -0.62117,-2e-5 -1.12472,-0.50373 -1.12472,-1.12514 v -0.56263 c 0,-0.62127 0.50355,-1.12484 1.12475,-1.12484 0.0915,0 0.18196,0.003 0.27245,0.007 0.0328,0.002 0.0656,0.005 0.0987,0.007 0.0602,0.004 0.12044,0.008 0.18002,0.0136 0.0312,0.003 0.0618,0.007 0.0927,0.0107 0.0596,0.007 0.11919,0.0139 0.17818,0.0226 0.0352,0.005 0.0703,0.0111 0.10532,0.017 0.0501,0.008 0.0996,0.0171 0.14947,0.0265 0.0401,0.008 0.0795,0.0161 0.11886,0.0246 0.0517,0.0111 0.10313,0.0231 0.15387,0.0357 0.0341,0.008 0.0678,0.017 0.1019,0.0258 0.0501,0.0136 0.1,0.028 0.14975,0.0426 0.036,0.0107 0.0725,0.0211 0.10849,0.0325 0.046,0.0144 0.0908,0.0302 0.13658,0.0463 0.0395,0.0136 0.0791,0.0267 0.11789,0.0416 0.0388,0.0145 0.0776,0.0306 0.11604,0.0457 0.0419,0.0168 0.0845,0.0328 0.12614,0.0508 0.036,0.0154 0.0707,0.0319 0.10629,0.048 0.0892,0.0404 0.17721,0.0829 0.2642,0.12772 0.0271,0.0139 0.0546,0.0274 0.0814,0.0419 0.0457,0.0246 0.0905,0.0505 0.13526,0.0763 0.0291,0.0163 0.0587,0.0324 0.0874,0.0498 0.0463,0.0278 0.092,0.057 0.13774,0.0861 0.0249,0.0161 0.0502,0.0315 0.075,0.0479 0.0445,0.0292 0.0883,0.0596 0.13148,0.0901 0.0278,0.0196 0.0558,0.0394 0.0836,0.0596 0.0398,0.0292 0.0792,0.0586 0.11797,0.0883 0.0274,0.0208 0.0543,0.0423 0.0809,0.0637 0.0414,0.0333 0.0827,0.0669 0.12332,0.1012 0.0215,0.0183 0.0426,0.0367 0.0637,0.0552 0.0436,0.0382 0.0873,0.0764 0.12991,0.11604 0.0143,0.0129 0.0274,0.0262 0.0413,0.0395 0.39769,0.37683 0.74115,0.81105 1.01539,1.28977 0.003,0.006 0.007,0.0117 0.01,0.0176 0.0367,0.0644 0.072,0.12963 0.10601,0.19555 0.004,0.009 0.008,0.0168 0.0129,0.0253 0.0343,0.0672 0.0676,0.13459 0.0991,0.20338 10e-4,0.003 0.003,0.007 0.005,0.0104 0.0331,0.0721 0.065,0.14473 0.0949,0.21848 0,2.8e-4 0,5e-4 2.8e-4,10e-4 0.15476,0.37999 0.26928,0.78072 0.33836,1.19708 0.0498,0.30103 0.0773,0.60972 0.0773,0.92518 0,0.3105 0.25185,0.56221 0.56247,0.56221 h 0.56246 c 0.31062,0 0.56233,-0.25171 0.56233,-0.56221 0,-0.45537 -0.0436,-0.90032 -0.12332,-1.3326 -10e-4,-0.005 -10e-4,-0.01 -0.003,-0.0145 -0.0197,-0.10563 -0.0419,-0.21066 -0.0662,-0.31462 -0.001,-0.004 -0.002,-0.008 -0.002,-0.0117 -0.0236,-0.1 -0.0491,-0.1994 -0.0766,-0.29772 -0.004,-0.0129 -0.007,-0.0258 -0.0109,-0.0389 -0.028,-0.0981 -0.0577,-0.19445 -0.0895,-0.291 -5e-4,-0.002 -10e-4,-0.005 -0.002,-0.007 -0.2406,-0.72397 -0.59105,-1.3973 -1.03213,-2.00112 -0.001,-0.002 -0.002,-0.004 -0.004,-0.006 -0.0552,-0.0754 -0.11222,-0.14915 -0.17031,-0.22234 -0.0115,-0.0144 -0.0226,-0.0295 -0.0343,-0.0441 -0.0538,-0.0672 -0.10972,-0.13308 -0.16616,-0.1983 -0.0162,-0.0187 -0.0324,-0.0372 -0.0486,-0.0559 -0.0563,-0.064 -0.11479,-0.12703 -0.17329,-0.18924 -0.0162,-0.017 -0.0326,-0.0343 -0.0489,-0.0514 -0.0571,-0.0593 -0.11548,-0.11755 -0.1744,-0.17469 -0.0221,-0.0211 -0.0439,-0.0423 -0.0662,-0.0634 -0.0581,-0.0548 -0.11727,-0.10903 -0.17728,-0.16231 -0.0218,-0.0195 -0.0441,-0.0385 -0.0663,-0.0577 -0.0595,-0.0518 -0.11974,-0.10286 -0.18126,-0.15229 -0.0283,-0.0228 -0.0567,-0.0447 -0.0854,-0.0673 -0.0577,-0.0451 -0.11562,-0.0908 -0.17494,-0.13431 -0.0294,-0.0215 -0.0593,-0.0421 -0.0893,-0.0637 -0.0615,-0.0438 -0.12304,-0.0879 -0.18565,-0.12991 -0.0138,-0.009 -0.0272,-0.0175 -0.0408,-0.0265 -0.15888,-0.10464 -0.32161,-0.20337 -0.48873,-0.29567 -0.009,-0.005 -0.0176,-0.0104 -0.0265,-0.0153 -0.0498,-0.027 -0.10086,-0.0526 -0.15132,-0.0788 -0.052,-0.027 -0.10374,-0.0542 -0.1564,-0.0798 -0.0495,-0.0242 -0.10032,-0.0469 -0.15045,-0.0699 -0.0511,-0.0233 -0.10147,-0.0467 -0.15325,-0.0691 -0.0545,-0.0236 -0.10938,-0.0455 -0.1646,-0.0678 -0.0523,-0.0211 -0.10402,-0.0419 -0.15703,-0.0618 -0.0505,-0.019 -0.10154,-0.037 -0.15229,-0.0545 -0.0596,-0.0208 -0.11954,-0.0413 -0.17976,-0.0608 -0.0482,-0.0155 -0.0971,-0.0306 -0.14598,-0.0452 -0.0606,-0.0183 -0.12139,-0.0352 -0.18258,-0.0516 -0.0526,-0.0143 -0.10532,-0.0282 -0.15833,-0.0411 -0.0589,-0.0144 -0.11825,-0.0277 -0.17785,-0.0409 -0.0542,-0.0121 -0.10813,-0.0238 -0.16299,-0.0345 -0.0621,-0.012 -0.12517,-0.0233 -0.18792,-0.0336 -0.0511,-0.009 -0.1019,-0.0177 -0.15359,-0.0253 -0.0744,-0.0107 -0.14976,-0.0195 -0.2248,-0.0284 -0.041,-0.005 -0.0811,-0.01 -0.12207,-0.0141 -0.0845,-0.008 -0.16994,-0.0141 -0.25508,-0.0195 -0.0353,-0.002 -0.07,-0.006 -0.10561,-0.007 -0.0277,-10e-4 -0.0558,-10e-4 -0.0839,-0.002 v -0.004 c -0.0709,-5e-4 -0.14159,-0.0277 -0.19583,-0.082 -0.10972,-0.10973 -0.10972,-0.28797 0,-0.39771 0.0599,-0.0599 0.14001,-0.0839 0.21821,-0.0786 4.20929,0.15804 7.57425,3.61852 7.57425,7.86671 z m -8.71858,-7.31236 c -0.15518,0 -0.28096,-0.12606 -0.28096,-0.28125 0,-0.15546 0.12578,-0.28124 0.28096,-0.28124 0.15545,0 0.2813,0.12578 0.2813,0.28124 0,0.15519 -0.12585,0.28125 -0.2813,0.28125 z"
       id="path2-36-3"
       style="fill:#ff9955;fill-opacity:1;stroke-width:0.0175772" />
  </g>
</svg>
