<?xml version="1.0" encoding="UTF-8" standalone="no"?>
<svg
   width="32"
   version="1.1"
   height="32"
   viewBox="0 0 32 32"
   id="svg15"
   sodipodi:docname="folder-notes.svg"
   inkscape:version="1.1.1 (3bf5ae0d25, 2021-09-20)"
   xmlns:inkscape="http://www.inkscape.org/namespaces/inkscape"
   xmlns:sodipodi="http://sodipodi.sourceforge.net/DTD/sodipodi-0.dtd"
   xmlns:xlink="http://www.w3.org/1999/xlink"
   xmlns="http://www.w3.org/2000/svg"
   xmlns:svg="http://www.w3.org/2000/svg"
   xmlns:rdf="http://www.w3.org/1999/02/22-rdf-syntax-ns#"
   xmlns:cc="http://creativecommons.org/ns#"
   xmlns:dc="http://purl.org/dc/elements/1.1/">
  <sodipodi:namedview
     pagecolor="#ffffff"
     bordercolor="#666666"
     borderopacity="1"
     objecttolerance="10"
     gridtolerance="10"
     guidetolerance="10"
     inkscape:pageopacity="0"
     inkscape:pageshadow="2"
     inkscape:window-width="1920"
     inkscape:window-height="1006"
     id="namedview17"
     showgrid="false"
     inkscape:zoom="9.8125"
     inkscape:cx="-12.942675"
     inkscape:cy="6.522293"
     inkscape:window-x="0"
     inkscape:window-y="0"
     inkscape:window-maximized="1"
     inkscape:current-layer="layer1"
     inkscape:document-rotation="0"
     inkscape:pagecheckerboard="0" />
  <defs
     id="defs5455">
    <linearGradient
       inkscape:collect="always"
       id="linearGradient860">
      <stop
         style="stop-color:#78acd3;stop-opacity:1"
         offset="0"
         id="stop856" />
      <stop
         style="stop-color:#d98cbb;stop-opacity:1"
         offset="1"
         id="stop858" />
    </linearGradient>
    <linearGradient
       inkscape:collect="always"
       id="linearGradient842">
      <stop
         style="stop-color:#326e9a;stop-opacity:1"
         offset="0"
         id="stop838" />
      <stop
         style="stop-color:#339993;stop-opacity:1"
         offset="1"
         id="stop840" />
    </linearGradient>
    <linearGradient
       inkscape:collect="always"
       xlink:href="#linearGradient860"
       id="linearGradient862-3"
       x1="113.94677"
       y1="255.36646"
       x2="406.08289"
       y2="255.36646"
       gradientUnits="userSpaceOnUse"
       gradientTransform="matrix(0.10135135,0,0,0.09220346,374.22015,507.65423)" />
    <linearGradient
       inkscape:collect="always"
       xlink:href="#linearGradient842"
       id="linearGradient844-5"
       x1="386.30627"
       y1="522.45404"
       x2="446.83023"
       y2="522.45404"
       gradientUnits="userSpaceOnUse"
       gradientTransform="matrix(0.49567132,0,0,0.49972085,194.0905,274.04968)" />
  </defs>
  <metadata
     id="metadata5458">
    <rdf:RDF>
      <cc:Work
         rdf:about="">
        <dc:format>image/svg+xml</dc:format>
        <dc:type
           rdf:resource="http://purl.org/dc/dcmitype/StillImage" />
      </cc:Work>
    </rdf:RDF>
  </metadata>
  <g
     inkscape:label="Capa 1"
     inkscape:groupmode="layer"
     id="layer1"
     transform="translate(-384.57143,-515.798)">
    <path
       style="fill:url(#linearGradient862-3);fill-opacity:1;stroke-width:0.089569"
       d="m 400.57301,522.37782 c -0.44016,0 -0.96119,-0.25824 -1.15846,-0.57392 l -0.88505,-1.41859 c -0.19637,-0.31567 -0.7174,-0.57334 -1.1574,-0.57391 l -10.20056,-0.0134 c -0.973,-10e-4 -1.3831,0.46748 -1.39693,1.50207 l -0.006,0.43614 v 1.28321 18.28579 c 0,0.35288 1.16036,1.28321 1.60036,1.28321 h 26.40757 c 0.44001,0 1.60036,-0.93033 1.60036,-1.28321 v -17.64418 c 0,-0.96241 -0.40002,-1.28321 -1.60036,-1.28321 z"
       id="path4-3-6"
       sodipodi:nodetypes="sccsssccsssssss" />
    <path
       style="fill:#f2f2f2;fill-opacity:1;stroke-width:0.0882825"
       d="m 413.46046,529.22773 c 0,0.66274 -0.39788,1.20497 -1.30857,1.20497 H 389.0541 c -0.9107,0 -1.25926,-0.54223 -1.25926,-1.20497 v -3.61492 c 0,-0.66274 0.34856,-1.20498 1.25926,-1.20498 h 23.04822 c 0.91069,0 1.35814,0.54224 1.35814,1.20498 z"
       id="path8-6-2"
       sodipodi:nodetypes="sssssssss" />
    <path
       style="fill:url(#linearGradient844-5);fill-opacity:1;stroke-width:0.09667"
       d="m 413.94973,526.46374 h -26.7566 c -0.81091,0 -1.6217,0.73763 -1.6217,1.47526 v 14.38374 c 0,0.97553 0.62711,1.47525 1.6217,1.47525 h 26.7566 c 0.99775,0 1.6217,-0.49972 1.6217,-1.47525 V 527.939 c 0,-0.73763 -0.8108,-1.47526 -1.6217,-1.47526 z"
       id="path10-9"
       sodipodi:nodetypes="sssssssss" />
    <path
       fill-rule="evenodd"
       clip-rule="evenodd"
       d="m 409.5622,535.6881 c 0,-0.15546 0.12593,-0.28125 0.28139,-0.28125 0.15532,0 0.28125,0.12579 0.28125,0.28125 0,0.15504 -0.12593,0.28097 -0.28125,0.28097 -0.15546,0 -0.28139,-0.12593 -0.28139,-0.28097 z m 4.03515,0.0221 -0.11852,0.11838 c -0.001,10e-4 -0.002,10e-4 -0.003,0.002 -0.21588,0.21601 -0.56319,0.21835 -0.7836,0.01 l -0.72482,-0.72524 c -0.10972,-0.10972 -0.10972,-0.28785 0,-0.39757 0.10973,-0.10972 0.28785,-0.10972 0.39757,0 l 0.61249,0.61207 c 3.8e-4,10e-4 0.001,0 0.002,10e-4 0.0548,0.0548 0.14379,0.0548 0.19858,0 0.002,-0.002 0.004,-3.7e-4 0.005,-10e-4 l 0.017,-0.017 c 0.21987,-0.21958 0.21987,-0.57568 0,-0.79554 l -0.49698,-0.49699 c -0.21986,-0.21987 -0.57596,-0.21987 -0.79555,0 l -0.965,0.965 h -0.79582 -2.41166 -1.54702 c -0.38837,0 -0.70312,0.31504 -0.70312,0.70341 v 5.34361 c 0,0.38837 0.31475,0.70312 0.70312,0.70312 h 5.34361 c 0.38852,0 0.70313,-0.31475 0.70313,-0.70312 v -3.61684 c 0,-0.0774 -0.0629,-0.14049 -0.14049,-0.14049 -0.0387,0 -0.074,0.0158 -0.0993,0.0412 -5e-4,3.8e-4 -3.7e-4,-0.002 -0.001,-10e-4 l -1.5628,1.56254 c -0.16933,0.16947 -0.3793,0.27206 -0.59862,0.31078 -0.0415,0.01 -0.0845,0.0161 -0.12882,0.0161 h -0.0397 c -0.0186,3.7e-4 -0.0377,3.7e-4 -0.0562,0 h -1.0294 c -0.3105,0 -0.56222,-0.25172 -0.56222,-0.56222 v -1.02941 c -2.8e-4,-0.0186 -2.8e-4,-0.0376 0,-0.056 v -0.0397 c 0,-0.0445 0.006,-0.0875 0.0161,-0.12895 0.0388,-0.21918 0.14145,-0.42958 0.31092,-0.59889 l 0.59737,-0.59751 0.002,0.002 c 0.0507,-0.0511 0.1214,-0.0824 0.19899,-0.0824 0.15546,0 0.28125,0.12593 0.28125,0.28139 0,0.0853 -0.039,0.16109 -0.099,0.21259 l -0.58227,0.58227 c -0.12265,0.12237 -0.17413,0.28674 -0.16012,0.44688 -2.8e-4,0.008 -0.002,0.0158 -0.002,0.0239 v 0.42173 c -1e-5,0.31048 0.25213,0.56262 0.56263,0.56262 h 0.42173 c 0.008,0 0.0158,-0.002 0.0239,-0.002 0.16026,0.014 0.32451,-0.0376 0.44687,-0.16026 l 1.80615,-1.80617 c 0.10148,-0.0997 0.24102,-0.14076 0.39496,-0.14076 0.31079,0 0.56265,0.25172 0.56265,0.5625 v 4.07798 c 0,0.62142 -0.50358,1.12528 -1.12486,1.12528 h -5.625 c -0.62142,0 -1.12514,-0.50386 -1.12514,-1.12528 v -5.62486 c 0,-0.6214 0.50372,-1.12486 1.12514,-1.12486 h 4.6615 l 0.80064,-0.80063 c 0.21963,-0.21972 0.50755,-0.32437 0.79548,-0.32437 0.28793,0 0.57587,0.10465 0.7956,0.32437 l 0.49727,0.49727 c 0.21995,0.21995 0.32467,0.512 0.32437,0.80031 -3e-4,0.28753 -0.10501,0.57134 -0.32437,0.79079 z"
       id="path2"
       style="fill:#f2f2f2;fill-opacity:1;stroke-width:0.0175781" />
  </g>
</svg>
