<?xml version="1.0" encoding="UTF-8" standalone="no"?>
<svg
   width="32"
   version="1.1"
   height="32"
   viewBox="0 0 32 32"
   id="svg15"
   sodipodi:docname="folder-android.svg"
   inkscape:version="1.1.1 (3bf5ae0d25, 2021-09-20)"
   xmlns:inkscape="http://www.inkscape.org/namespaces/inkscape"
   xmlns:sodipodi="http://sodipodi.sourceforge.net/DTD/sodipodi-0.dtd"
   xmlns:xlink="http://www.w3.org/1999/xlink"
   xmlns="http://www.w3.org/2000/svg"
   xmlns:svg="http://www.w3.org/2000/svg"
   xmlns:rdf="http://www.w3.org/1999/02/22-rdf-syntax-ns#"
   xmlns:cc="http://creativecommons.org/ns#"
   xmlns:dc="http://purl.org/dc/elements/1.1/">
  <sodipodi:namedview
     pagecolor="#ffffff"
     bordercolor="#666666"
     borderopacity="1"
     objecttolerance="10"
     gridtolerance="10"
     guidetolerance="10"
     inkscape:pageopacity="0"
     inkscape:pageshadow="2"
     inkscape:window-width="1920"
     inkscape:window-height="1006"
     id="namedview17"
     showgrid="false"
     inkscape:zoom="9.8125"
     inkscape:cx="-12.942675"
     inkscape:cy="6.522293"
     inkscape:window-x="0"
     inkscape:window-y="0"
     inkscape:window-maximized="1"
     inkscape:current-layer="layer1"
     inkscape:document-rotation="0"
     inkscape:pagecheckerboard="0" />
  <defs
     id="defs5455">
    <linearGradient
       inkscape:collect="always"
       id="linearGradient860">
      <stop
         style="stop-color:#78acd3;stop-opacity:1"
         offset="0"
         id="stop856" />
      <stop
         style="stop-color:#d98cbb;stop-opacity:1"
         offset="1"
         id="stop858" />
    </linearGradient>
    <linearGradient
       inkscape:collect="always"
       id="linearGradient842">
      <stop
         style="stop-color:#326e9a;stop-opacity:1"
         offset="0"
         id="stop838" />
      <stop
         style="stop-color:#339993;stop-opacity:1"
         offset="1"
         id="stop840" />
    </linearGradient>
    <linearGradient
       inkscape:collect="always"
       xlink:href="#linearGradient860"
       id="linearGradient862-3"
       x1="113.94677"
       y1="255.36646"
       x2="406.08289"
       y2="255.36646"
       gradientUnits="userSpaceOnUse"
       gradientTransform="matrix(0.10135135,0,0,0.09220346,374.22014,507.65424)" />
    <linearGradient
       inkscape:collect="always"
       xlink:href="#linearGradient842"
       id="linearGradient844-5"
       x1="386.30627"
       y1="522.45404"
       x2="446.83023"
       y2="522.45404"
       gradientUnits="userSpaceOnUse"
       gradientTransform="matrix(0.49567132,0,0,0.49972085,194.0905,274.04968)" />
  </defs>
  <metadata
     id="metadata5458">
    <rdf:RDF>
      <cc:Work
         rdf:about="">
        <dc:format>image/svg+xml</dc:format>
        <dc:type
           rdf:resource="http://purl.org/dc/dcmitype/StillImage" />
      </cc:Work>
    </rdf:RDF>
  </metadata>
  <g
     inkscape:label="Capa 1"
     inkscape:groupmode="layer"
     id="layer1"
     transform="translate(-384.57143,-515.798)">
    <path
       style="fill:url(#linearGradient862-3);fill-opacity:1;stroke-width:0.089569"
       d="m 400.57301,522.37782 c -0.44016,0 -0.96119,-0.25824 -1.15846,-0.57392 l -0.88505,-1.41859 c -0.19637,-0.31567 -0.7174,-0.57334 -1.1574,-0.57391 l -10.20056,-0.0134 c -0.973,-10e-4 -1.3831,0.46748 -1.39693,1.50207 l -0.006,0.43614 v 1.28321 18.28579 c 0,0.35288 1.16036,1.28321 1.60036,1.28321 h 26.40757 c 0.44001,0 1.60036,-0.93033 1.60036,-1.28321 v -17.64418 c 0,-0.96241 -0.40002,-1.28321 -1.60036,-1.28321 z"
       id="path4-3-6"
       sodipodi:nodetypes="sccsssccsssssss" />
    <path
       style="fill:#f2f2f2;fill-opacity:1;stroke-width:0.0882825"
       d="m 413.46046,529.22773 c 0,0.66274 -0.39788,1.20497 -1.30857,1.20497 H 389.0541 c -0.9107,0 -1.25926,-0.54223 -1.25926,-1.20497 v -3.61492 c 0,-0.66274 0.34856,-1.20498 1.25926,-1.20498 h 23.04822 c 0.91069,0 1.35814,0.54224 1.35814,1.20498 z"
       id="path8-6-2"
       sodipodi:nodetypes="sssssssss" />
    <path
       style="fill:url(#linearGradient844-5);fill-opacity:1;stroke-width:0.09667"
       d="m 413.94973,526.46374 h -26.7566 c -0.81091,0 -1.6217,0.73763 -1.6217,1.47526 v 14.38374 c 0,0.97553 0.62711,1.47525 1.6217,1.47525 h 26.7566 c 0.99775,0 1.6217,-0.49972 1.6217,-1.47525 V 527.939 c 0,-0.73763 -0.8108,-1.47526 -1.6217,-1.47526 z"
       id="path10-9"
       sodipodi:nodetypes="sssssssss" />
    <path
       clip-rule="evenodd"
       d="m 411.45289,535.26686 c 0,0.15546 -0.12621,0.28131 -0.28139,0.28131 -0.15547,0 -0.28125,-0.12585 -0.28125,-0.28131 0,-0.15546 0.12578,-0.28125 0.28125,-0.28125 0.15518,0 0.28139,0.12579 0.28139,0.28125 z m -1.68778,0 c 0,0.15546 -0.12579,0.28131 -0.28125,0.28131 -0.15518,0 -0.28097,-0.12585 -0.28097,-0.28131 0,-0.15546 0.12579,-0.28125 0.28097,-0.28125 0.15546,0 0.28125,0.12579 0.28125,0.28125 z m 3.97169,3.97148 -2.8e-4,-2.8e-4 c -0.0511,0.0511 -0.12168,0.0829 -0.19954,0.0829 -0.15615,0 -0.28263,-0.12648 -0.28263,-0.28262 0,-0.0835 0.0372,-0.15793 0.0953,-0.20971 0.0441,-0.0498 0.0718,-0.1148 0.0718,-0.18663 v -1.68784 c 0,-0.15511 -0.12579,-0.28125 -0.28125,-0.28125 -0.15518,0 -0.28125,0.12614 -0.28125,0.28125 v 1.68784 0.7921 0.0514 c 0,0.36777 -0.17729,0.69282 -0.45004,0.89813 -10e-4,10e-4 -0.002,0.003 -0.003,0.004 -0.0665,0.0514 -0.10972,0.13212 -0.10972,0.22289 v 0.84389 c 0,0.46568 -0.37779,0.84346 -0.84346,0.84346 -0.4661,0 -0.84389,-0.37778 -0.84389,-0.84346 v -0.0141 -0.6188 c 0,-0.11659 -0.0942,-0.21094 -0.21094,-0.21094 h -0.14062 c -0.11646,0 -0.21094,0.0944 -0.21094,0.21094 v 0.6188 0.0141 c 0,0.46568 -0.37793,0.84346 -0.8436,0.84346 -0.4661,0 -0.84389,-0.37778 -0.84389,-0.84346 v -0.84389 c 0,-0.0908 -0.0429,-0.17153 -0.10972,-0.22289 -10e-4,-10e-4 -0.002,-0.003 -0.003,-0.004 -0.27274,-0.20531 -0.4499,-0.53036 -0.4499,-0.89813 v -0.0514 c -0.0884,0.0316 -0.18237,0.0514 -0.28124,0.0514 -0.46582,0 -0.8436,-0.37779 -0.8436,-0.84347 v -1.68784 c 0,-0.44618 0.34813,-0.80784 0.78676,-0.83784 0.0184,-0.004 0.0372,-0.006 0.0568,-0.006 h 0.28125 0.5625 1.37109 0.59765 1.12514 c 0.3105,0 0.5625,-0.252 0.5625,-0.56257 0,-0.11955 -0.0382,-0.22961 -0.10148,-0.3204 -0.35856,-0.4875 -0.93466,-0.80474 -1.58614,-0.80474 -0.77797,0 -1.44991,0.45155 -1.76934,1.10652 l -10e-4,-3.5e-4 c -0.046,0.094 -0.14185,0.15958 -0.25365,0.15958 -0.15655,0 -0.28344,-0.12709 -0.28344,-0.28352 0,-0.0693 0.0258,-0.13212 0.0673,-0.18126 0.20764,-0.39861 0.51801,-0.73512 0.8958,-0.97415 l -0.30583,-0.52975 c -0.0776,-0.13465 -0.0316,-0.30652 0.10299,-0.38438 0.13444,-0.0776 0.30652,-0.0316 0.38424,0.10306 l 0.32628,0.5651 c 0.26175,-0.0921 0.54272,-0.14317 0.83633,-0.14317 0.2932,0 0.57389,0.0527 0.83564,0.14447 l 0.32699,-0.56641 c 0.0779,-0.13465 0.24966,-0.18065 0.38438,-0.10306 0.13431,0.0779 0.18032,0.24973 0.10287,0.38438 l -0.30693,0.53133 c 0.26998,0.17063 0.50742,0.38788 0.69598,0.6449 0.13155,0.1845 0.21094,0.40834 0.21094,0.65183 0,0.62121 -0.50358,1.12479 -1.12472,1.12479 h -2.81265 -0.28125 -0.84374 c -0.15518,0 -0.28139,0.12614 -0.28139,0.28124 v 1.68785 c 0,0.15504 0.12621,0.28125 0.28139,0.28125 0.15546,0 0.28125,-0.12621 0.28125,-0.28125 v -1.1252 c 0,-0.15519 0.12578,-0.28133 0.28125,-0.28133 0.15546,0 0.28124,0.12614 0.28124,0.28133 v 1.96867 c 0,0.21065 0.117,0.39193 0.28825,0.48847 0.16465,0.0987 0.27425,0.27754 0.27425,0.48286 v 0.99769 c 0,0.15518 0.12593,0.28097 0.28139,0.28097 0.15518,0 0.28097,-0.12579 0.28097,-0.28097 v -0.70326 c 0,-0.38851 0.31503,-0.70312 0.70326,-0.70312 h 0.28125 c 0.38851,0 0.70313,0.31461 0.70313,0.70312 v 0.70326 c 0,0.15518 0.12593,0.28097 0.28139,0.28097 0.15503,0 0.28125,-0.12579 0.28125,-0.28097 v -0.99769 c 0,-0.20532 0.10945,-0.38412 0.27437,-0.48286 0.17084,-0.0965 0.28784,-0.27782 0.28784,-0.48847 v -0.84347 -1.40653 -0.28132 c 0,-0.46574 0.37779,-0.84346 0.84389,-0.84346 0.4661,0 0.84389,0.37773 0.84389,0.84348 v 1.68785 c 0,0.23303 -0.0946,0.4437 -0.24733,0.59628 z"
       fill-rule="evenodd"
       id="path2"
       style="fill:#f2f2f2;fill-opacity:1;stroke-width:0.017578" />
  </g>
</svg>
