<?xml version="1.0" encoding="UTF-8" standalone="no"?>
<svg
   width="32"
   version="1.1"
   height="32"
   viewBox="0 0 32 32"
   id="svg15"
   sodipodi:docname="folder-table.svg"
   inkscape:version="1.1.1 (3bf5ae0d25, 2021-09-20)"
   xmlns:inkscape="http://www.inkscape.org/namespaces/inkscape"
   xmlns:sodipodi="http://sodipodi.sourceforge.net/DTD/sodipodi-0.dtd"
   xmlns:xlink="http://www.w3.org/1999/xlink"
   xmlns="http://www.w3.org/2000/svg"
   xmlns:svg="http://www.w3.org/2000/svg"
   xmlns:rdf="http://www.w3.org/1999/02/22-rdf-syntax-ns#"
   xmlns:cc="http://creativecommons.org/ns#"
   xmlns:dc="http://purl.org/dc/elements/1.1/">
  <sodipodi:namedview
     pagecolor="#ffffff"
     bordercolor="#666666"
     borderopacity="1"
     objecttolerance="10"
     gridtolerance="10"
     guidetolerance="10"
     inkscape:pageopacity="0"
     inkscape:pageshadow="2"
     inkscape:window-width="1920"
     inkscape:window-height="1006"
     id="namedview17"
     showgrid="false"
     inkscape:zoom="9.8125"
     inkscape:cx="-12.942675"
     inkscape:cy="6.522293"
     inkscape:window-x="0"
     inkscape:window-y="0"
     inkscape:window-maximized="1"
     inkscape:current-layer="layer1"
     inkscape:document-rotation="0"
     inkscape:pagecheckerboard="0" />
  <defs
     id="defs5455">
    <linearGradient
       inkscape:collect="always"
       id="linearGradient860">
      <stop
         style="stop-color:#78acd3;stop-opacity:1"
         offset="0"
         id="stop856" />
      <stop
         style="stop-color:#d98cbb;stop-opacity:1"
         offset="1"
         id="stop858" />
    </linearGradient>
    <linearGradient
       inkscape:collect="always"
       id="linearGradient842">
      <stop
         style="stop-color:#326e9a;stop-opacity:1"
         offset="0"
         id="stop838" />
      <stop
         style="stop-color:#339993;stop-opacity:1"
         offset="1"
         id="stop840" />
    </linearGradient>
    <linearGradient
       inkscape:collect="always"
       xlink:href="#linearGradient860"
       id="linearGradient862-3"
       x1="113.94677"
       y1="255.36646"
       x2="406.08289"
       y2="255.36646"
       gradientUnits="userSpaceOnUse"
       gradientTransform="matrix(0.10135137,0,0,0.09220347,374.22016,507.65423)" />
    <linearGradient
       inkscape:collect="always"
       xlink:href="#linearGradient842"
       id="linearGradient844-5"
       x1="386.30627"
       y1="522.45404"
       x2="446.83023"
       y2="522.45404"
       gradientUnits="userSpaceOnUse"
       gradientTransform="matrix(0.49567142,0,0,0.49972087,194.09046,274.04967)" />
  </defs>
  <metadata
     id="metadata5458">
    <rdf:RDF>
      <cc:Work
         rdf:about="">
        <dc:format>image/svg+xml</dc:format>
        <dc:type
           rdf:resource="http://purl.org/dc/dcmitype/StillImage" />
      </cc:Work>
    </rdf:RDF>
  </metadata>
  <g
     inkscape:label="Capa 1"
     inkscape:groupmode="layer"
     id="layer1"
     transform="translate(-384.57143,-515.798)">
    <path
       style="fill:url(#linearGradient862-3);fill-opacity:1;stroke-width:0.0895685"
       d="m 400.573,522.37782 c -0.44015,0 -0.96117,-0.25824 -1.15844,-0.57392 l -0.88505,-1.41859 c -0.19638,-0.31567 -0.7174,-0.57334 -1.15741,-0.57391 l -10.20055,-0.0134 c -0.97301,-10e-4 -1.3831,0.46748 -1.39694,1.50207 l -0.006,0.43614 v 1.28321 18.28579 c 0,0.35288 1.16035,1.28321 1.60037,1.28321 h 26.40756 c 0.44002,0 1.60037,-0.93033 1.60037,-1.28321 v -17.64418 c 0,-0.96241 -0.40003,-1.28321 -1.60037,-1.28321 z"
       id="path4-3-6"
       sodipodi:nodetypes="sccsssccsssssss" />
    <path
       style="fill:#f2f2f2;fill-opacity:1;stroke-width:0.088282"
       d="m 413.46047,529.22773 c 0,0.66274 -0.39789,1.20498 -1.30857,1.20498 h -23.0978 c -0.91069,0 -1.25926,-0.54224 -1.25926,-1.20498 v -3.61492 c 0,-0.66274 0.34857,-1.20498 1.25926,-1.20498 h 23.04822 c 0.9107,0 1.35815,0.54224 1.35815,1.20498 z"
       id="path8-6-2"
       sodipodi:nodetypes="sssssssss" />
    <path
       style="fill:url(#linearGradient844-5);fill-opacity:1;stroke-width:0.0966695"
       d="m 413.94974,526.46374 h -26.75662 c -0.81089,0 -1.62169,0.73763 -1.62169,1.47526 v 14.38374 c 0,0.97553 0.62711,1.47525 1.62169,1.47525 h 26.75662 c 0.99774,0 1.62169,-0.49972 1.62169,-1.47525 V 527.939 c 0,-0.73763 -0.8108,-1.47526 -1.62169,-1.47526 z"
       id="path10-9"
       sodipodi:nodetypes="sssssssss" />
    <path
       fill-rule="evenodd"
       clip-rule="evenodd"
       d="m 412.63604,542.29799 h -4.82175 c -0.17727,0 -0.32111,-0.14424 -0.32111,-0.32143 0,-0.17767 0.14384,-0.32159 0.32111,-0.32159 h 4.82175 c 0.35502,0 0.64286,-0.28784 0.64286,-0.64285 v -6.42857 c 0,-0.35502 -0.28784,-0.6427 -0.64286,-0.6427 h -6.42873 c -0.35494,0 -0.64294,0.28768 -0.64294,0.6427 v 6.10714 c 0,0.17767 -0.14376,0.32143 -0.32143,0.32143 -0.17735,0 -0.32151,-0.14376 -0.32151,-0.32143 v -6.10714 c 0,-0.71004 0.57592,-1.28556 1.28588,-1.28556 h 6.42873 c 0.70987,0 1.28539,0.57552 1.28539,1.28556 v 6.42857 c 0,0.71003 -0.57552,1.28587 -1.28539,1.28587 z m -6.10723,-0.64302 c 0.17727,0 0.32143,0.14392 0.32143,0.32159 0,0.17719 -0.14416,0.32143 -0.32143,0.32143 -0.17766,0 -0.3215,-0.14424 -0.3215,-0.32143 0,-0.17767 0.14384,-0.32159 0.3215,-0.32159 z"
       id="path2"
       style="fill:#f2f2f2;fill-opacity:1;stroke-width:0.0200893" />
    <path
       fill-rule="evenodd"
       clip-rule="evenodd"
       d="m 411.71101,540.82631 h -1.32068 c -0.1041,0 -0.18876,-0.0846 -0.18876,-0.18867 0,-0.10429 0.0847,-0.18867 0.18876,-0.18867 h 1.22634 c 0.26054,0 0.47168,-0.21115 0.47168,-0.47168 v -1.22635 c 0,-0.10428 0.0844,-0.18885 0.18867,-0.18885 0.10429,0 0.18867,0.0846 0.18867,0.18885 v 1.32069 c 0,0.41677 -0.3379,0.75468 -0.75468,0.75468 z m -5.0941,-4.15067 c 0.10429,0 0.18872,0.0844 0.18872,0.18866 0,0.104 -0.0844,0.18848 -0.18872,0.18848 -0.10424,0 -0.18867,-0.0845 -0.18867,-0.18848 0,-0.10427 0.0844,-0.18866 0.18867,-0.18866 z m 5.84178,0.85297 c -0.002,0.0203 -0.006,0.0404 -0.01,0.0601 -0.002,0.01 -0.005,0.0186 -0.007,0.028 -0.005,0.0164 -0.008,0.033 -0.0138,0.049 -0.002,0.007 -0.005,0.014 -0.008,0.021 -0.007,0.0184 -0.0136,0.0367 -0.0219,0.0543 -0.002,0.005 -0.005,0.009 -0.007,0.0136 -0.009,0.0191 -0.0191,0.0382 -0.0298,0.0564 -0.002,0.004 -0.004,0.007 -0.007,0.0112 -0.0116,0.0188 -0.0238,0.0372 -0.037,0.0551 -0.002,0.002 -0.004,0.005 -0.006,0.008 -0.0143,0.0186 -0.0292,0.0368 -0.0451,0.054 -0.001,0.002 -0.002,0.004 -0.004,0.005 -0.0171,0.0186 -0.0354,0.0362 -0.0543,0.0531 -0.13303,0.117 -0.30696,0.18867 -0.49802,0.18867 v 0.01 c -0.0305,-0.006 -0.0621,-0.01 -0.0943,-0.01 h -1.32066 c -0.26052,0 -0.47166,0.21115 -0.47166,0.47166 v 1.32069 c 0,0.0322 0.003,0.0639 0.01,0.0943 h -0.01 c 0,0.19107 -0.0716,0.365 -0.18867,0.49802 -0.0168,0.019 -0.0345,0.0372 -0.0531,0.0543 -0.001,10e-4 -0.002,0.003 -0.004,0.004 -0.0173,0.0158 -0.0355,0.0308 -0.0541,0.0449 -0.002,0.002 -0.005,0.004 -0.008,0.006 -0.0179,0.0131 -0.0362,0.0254 -0.055,0.0371 -0.004,0.002 -0.007,0.004 -0.0112,0.007 -0.0182,0.0107 -0.0372,0.0205 -0.0564,0.0296 -0.005,0.002 -0.009,0.005 -0.0137,0.007 -0.0176,0.008 -0.0358,0.0151 -0.0542,0.0219 -0.007,0.003 -0.014,0.005 -0.021,0.008 -0.016,0.005 -0.0326,0.01 -0.049,0.0138 -0.009,0.003 -0.0184,0.005 -0.028,0.007 -0.0195,0.005 -0.0398,0.007 -0.06,0.01 -0.006,5e-4 -0.0108,0.002 -0.0166,0.003 -0.0268,0.004 -0.0542,0.005 -0.0818,0.005 h -1.88658 c -0.4168,-4e-5 -0.75476,-0.33795 -0.75476,-0.75472 v -1.88669 c 0,-0.41682 0.33796,-0.75473 0.75476,-0.75473 h 0.18872 1.2262 c 0.26058,0 0.47168,-0.21114 0.47168,-0.47167 v -1.32068 c 0,-0.26052 -0.2111,-0.47167 -0.47168,-0.47167 h -1.32063 c -0.26052,0 -0.47163,0.21115 -0.47163,0.47167 v 0.47168 c 0,0.10419 -0.0844,0.18867 -0.18871,0.18867 -0.10425,0 -0.18867,-0.0845 -0.18867,-0.18867 v -0.56594 c 1e-5,-0.41685 0.33796,-0.75476 0.75477,-0.75476 h 1.5094 c 0.0276,0 0.0546,10e-4 0.0814,0.005 0.006,3.8e-4 0.0122,0.002 0.0184,0.003 0.0199,0.003 0.0394,0.006 0.0588,0.01 0.009,0.002 0.0174,0.005 0.0264,0.007 0.017,0.005 0.0338,0.009 0.0503,0.014 0.007,0.002 0.0136,0.005 0.0204,0.007 0.0184,0.007 0.037,0.0139 0.0548,0.022 0.005,0.002 0.01,0.005 0.0145,0.007 0.0188,0.009 0.0374,0.0188 0.0554,0.0294 0.004,0.002 0.008,0.005 0.0114,0.007 0.0188,0.0116 0.0373,0.0238 0.055,0.037 0.002,0.002 0.005,0.004 0.008,0.006 0.0186,0.0142 0.0368,0.0292 0.054,0.045 0.001,0.001 0.002,0.002 0.005,0.004 0.0186,0.0172 0.0362,0.0354 0.053,0.0544 0.11709,0.13302 0.18871,0.30695 0.18871,0.498 h 0.01 c -0.006,0.0304 -0.01,0.062 -0.01,0.0942 v 1.41493 c 0,0.41686 -0.33795,0.75477 -0.75458,0.75477 h -1.41513 c -0.26052,0 -0.47163,0.21119 -0.47163,0.47172 v 1.69802 c 0,0.26052 0.2111,0.47167 0.47163,0.47167 h 1.69812 c 0.26051,0 0.47163,-0.21115 0.47163,-0.47167 v -1.41534 c 0,-0.41676 0.33792,-0.75452 0.75458,-0.75452 h 1.4151 c 0.26054,0 0.47168,-0.21106 0.47168,-0.47158 v -1.69813 c 0,-0.26052 -0.21114,-0.47167 -0.47168,-0.47167 h -1.60359 c -0.1042,0 -0.18877,-0.0844 -0.18877,-0.18867 0,-0.10429 0.0846,-0.18867 0.18877,-0.18867 h 1.69791 c 0.41678,0 0.75468,0.33791 0.75468,0.75476 v 1.8866 c 0,0.0276 -0.002,0.055 -0.005,0.0818 -3.7e-4,0.006 -0.002,0.011 -0.002,0.0166 z"
       id="path2-3-3"
       style="fill:#f2f2f2;fill-opacity:1;stroke-width:0.0117918" />
  </g>
</svg>
