<?xml version="1.0" encoding="UTF-8" standalone="no"?>
<svg
   width="32"
   version="1.1"
   height="32"
   viewBox="0 0 32 32"
   id="svg17"
   sodipodi:docname="folder-tar.svg"
   inkscape:version="1.1.1 (3bf5ae0d25, 2021-09-20)"
   xmlns:inkscape="http://www.inkscape.org/namespaces/inkscape"
   xmlns:sodipodi="http://sodipodi.sourceforge.net/DTD/sodipodi-0.dtd"
   xmlns:xlink="http://www.w3.org/1999/xlink"
   xmlns="http://www.w3.org/2000/svg"
   xmlns:svg="http://www.w3.org/2000/svg"
   xmlns:rdf="http://www.w3.org/1999/02/22-rdf-syntax-ns#"
   xmlns:cc="http://creativecommons.org/ns#"
   xmlns:dc="http://purl.org/dc/elements/1.1/">
  <sodipodi:namedview
     pagecolor="#ffffff"
     bordercolor="#666666"
     borderopacity="1"
     objecttolerance="10"
     gridtolerance="10"
     guidetolerance="10"
     inkscape:pageopacity="0"
     inkscape:pageshadow="2"
     inkscape:window-width="1920"
     inkscape:window-height="1006"
     id="namedview19"
     showgrid="false"
     inkscape:zoom="9.8125"
     inkscape:cx="-5.0955414"
     inkscape:cy="5.2993631"
     inkscape:window-x="0"
     inkscape:window-y="0"
     inkscape:window-maximized="1"
     inkscape:current-layer="layer1"
     inkscape:document-rotation="0"
     inkscape:pagecheckerboard="0" />
  <defs
     id="defs5455">
    <linearGradient
       inkscape:collect="always"
       xlink:href="#linearGradient860-3"
       id="linearGradient862"
       x1="113.94677"
       y1="255.36646"
       x2="406.08289"
       y2="255.36646"
       gradientUnits="userSpaceOnUse"
       gradientTransform="matrix(0.10135135,0,0,0.09220346,374.22015,507.65424)" />
    <linearGradient
       inkscape:collect="always"
       id="linearGradient860-3">
      <stop
         style="stop-color:#78acd3;stop-opacity:1"
         offset="0"
         id="stop856-6" />
      <stop
         style="stop-color:#d98cbb;stop-opacity:1"
         offset="1"
         id="stop858-7" />
    </linearGradient>
    <linearGradient
       inkscape:collect="always"
       xlink:href="#linearGradient842-3"
       id="linearGradient844-5"
       x1="386.30627"
       y1="522.45404"
       x2="446.83023"
       y2="522.45404"
       gradientUnits="userSpaceOnUse"
       gradientTransform="matrix(0.49567132,0,0,0.49972085,194.0905,274.04969)" />
    <linearGradient
       inkscape:collect="always"
       id="linearGradient842-3">
      <stop
         style="stop-color:#326e9a;stop-opacity:1"
         offset="0"
         id="stop838-5" />
      <stop
         style="stop-color:#339993;stop-opacity:1"
         offset="1"
         id="stop840-6" />
    </linearGradient>
  </defs>
  <metadata
     id="metadata5458">
    <rdf:RDF>
      <cc:Work
         rdf:about="">
        <dc:format>image/svg+xml</dc:format>
        <dc:type
           rdf:resource="http://purl.org/dc/dcmitype/StillImage" />
      </cc:Work>
    </rdf:RDF>
  </metadata>
  <g
     inkscape:label="Capa 1"
     inkscape:groupmode="layer"
     id="layer1"
     transform="translate(-384.57143,-515.798)">
    <path
       style="fill:url(#linearGradient862);fill-opacity:1;stroke-width:0.089569"
       d="m 400.57301,522.37783 c -0.44016,0 -0.96119,-0.25824 -1.15846,-0.57392 l -0.88505,-1.41859 c -0.19637,-0.31567 -0.7174,-0.57334 -1.1574,-0.57391 l -10.20056,-0.0134 c -0.973,-0.002 -1.3831,0.46748 -1.39693,1.50207 l -0.006,0.43614 v 1.28321 18.28579 c 0,0.35288 1.16036,1.28321 1.60036,1.28321 h 26.40757 c 0.44001,0 1.60036,-0.93033 1.60036,-1.28321 v -17.64418 c 0,-0.96241 -0.40002,-1.28321 -1.60036,-1.28321 z"
       id="path4-3-2"
       sodipodi:nodetypes="sccsssccsssssss" />
    <path
       style="fill:#f2f2f2;fill-opacity:1;stroke-width:0.0882825"
       d="m 413.46046,529.22774 c 0,0.66274 -0.39788,1.20497 -1.30857,1.20497 H 389.0541 c -0.9107,0 -1.25926,-0.54223 -1.25926,-1.20497 v -3.61492 c 0,-0.66274 0.34856,-1.20498 1.25926,-1.20498 h 23.04822 c 0.91069,0 1.35814,0.54224 1.35814,1.20498 z"
       id="path8-6-9"
       sodipodi:nodetypes="sssssssss" />
    <path
       style="fill:url(#linearGradient844-5);fill-opacity:1;stroke-width:0.09667"
       d="m 413.94973,526.46375 h -26.7566 c -0.81091,0 -1.6217,0.73763 -1.6217,1.47526 v 14.38374 c 0,0.97553 0.62711,1.47525 1.6217,1.47525 h 26.7566 c 0.99775,0 1.6217,-0.49972 1.6217,-1.47525 v -14.38374 c 0,-0.73763 -0.8108,-1.47526 -1.6217,-1.47526 z"
       id="path10-1"
       sodipodi:nodetypes="sssssssss" />
    <path
       fill-rule="evenodd"
       clip-rule="evenodd"
       d="m 412.78604,542.298 h -4.82175 c -0.17727,0 -0.32111,-0.14424 -0.32111,-0.32143 0,-0.17767 0.14384,-0.32159 0.32111,-0.32159 h 4.82175 c 0.35501,0 0.64285,-0.28784 0.64285,-0.64286 v -6.42857 c 0,-0.35502 -0.28784,-0.64269 -0.64285,-0.64269 h -6.42874 c -0.35494,0 -0.64294,0.28767 -0.64294,0.64269 v 6.10714 c 0,0.17767 -0.14376,0.32143 -0.32142,0.32143 -0.17735,0 -0.32151,-0.14376 -0.32151,-0.32143 v -6.10714 c 0,-0.71004 0.57592,-1.28555 1.28587,-1.28555 h 6.42874 c 0.70987,0 1.28539,0.57551 1.28539,1.28555 v 6.42857 c 0,0.71004 -0.57552,1.28588 -1.28539,1.28588 z m -6.10723,-0.64302 c 0.17727,0 0.32143,0.14392 0.32143,0.32159 0,0.17719 -0.14416,0.32143 -0.32143,0.32143 -0.17767,0 -0.32151,-0.14424 -0.32151,-0.32143 0,-0.17767 0.14384,-0.32159 0.32151,-0.32159 z"
       id="path2"
       style="fill:#f2f2f2;fill-opacity:1;stroke-width:0.0200892" />
    <g
       id="g10"
       transform="matrix(0.22575161,0,0,0.22575161,407.1098,534.43104)"
       style="fill:#f2f2f2;fill-opacity:1">
      <path
         d="M 2.56,0.383 C 1.928,-0.162 0.956,-0.107 0.391,0.504 -0.174,1.117 -0.119,2.057 0.512,2.606 0.574,2.66 5.356,6.906 7.918,14.217 8.792,13.709 9.809,13.41 10.894,13.395 8.116,5.279 2.846,0.629 2.56,0.383 Z"
         id="path2-3"
         style="fill:#f2f2f2;fill-opacity:1" />
      <path
         d="m 21.585,0.504 c -0.563,-0.611 -1.539,-0.67 -2.173,-0.121 -0.286,0.246 -5.555,4.896 -8.332,13.012 1.085,0.016 2.1,0.316 2.973,0.822 C 16.615,6.906 21.399,2.66 21.46,2.605 22.093,2.059 22.15,1.119 21.585,0.504 Z"
         id="path4"
         style="fill:#f2f2f2;fill-opacity:1" />
      <path
         d="m 10.399,17.904 h 1.175 c 1.336,0 2.445,1.225 2.584,2.51 l 0.637,5.732 C 15.48,25.91 16,25.41 16,24.664 V 19.182 C 16,16.532 13.74,14.381 10.998,14.381 8.262,14.381 6,16.531 6,19.182 v 5.482 c 0,0.746 0.508,1.375 1.194,1.613 l 0.613,-5.863 c 0.142,-1.285 1.258,-2.51 2.592,-2.51 z"
         id="path6"
         style="fill:#f2f2f2;fill-opacity:1" />
      <path
         d="m 13.805,26.908 -0.668,-6.391 c -0.082,-0.773 -0.758,-1.613 -1.563,-1.613 h -1.175 c -0.805,0 -1.479,0.84 -1.563,1.613 l -0.668,6.266 c -0.084,0.771 0.175,1.606 0.711,2.183 0.538,0.578 1.302,0.94 2.104,0.94 0.808,0 1.567,-0.314 2.106,-0.893 0.541,-0.575 0.799,-1.333 0.716,-2.105 z m -2.821,1.262 c -0.974,0 -1.764,-0.766 -1.764,-1.709 0,-0.943 0.79,-1.707 1.764,-1.707 0.977,0 1.766,0.764 1.766,1.707 0,0.943 -0.789,1.709 -1.766,1.709 z"
         id="path8"
         style="fill:#f2f2f2;fill-opacity:1" />
    </g>
  </g>
</svg>
