<?xml version="1.0" encoding="UTF-8" standalone="no"?>
<svg
   width="32"
   version="1.1"
   height="32"
   viewBox="0 0 32 32"
   id="svg15"
   sodipodi:docname="folder-appimage.svg"
   inkscape:version="1.1.1 (3bf5ae0d25, 2021-09-20)"
   xmlns:inkscape="http://www.inkscape.org/namespaces/inkscape"
   xmlns:sodipodi="http://sodipodi.sourceforge.net/DTD/sodipodi-0.dtd"
   xmlns:xlink="http://www.w3.org/1999/xlink"
   xmlns="http://www.w3.org/2000/svg"
   xmlns:svg="http://www.w3.org/2000/svg"
   xmlns:rdf="http://www.w3.org/1999/02/22-rdf-syntax-ns#"
   xmlns:cc="http://creativecommons.org/ns#"
   xmlns:dc="http://purl.org/dc/elements/1.1/">
  <sodipodi:namedview
     pagecolor="#ffffff"
     bordercolor="#666666"
     borderopacity="1"
     objecttolerance="10"
     gridtolerance="10"
     guidetolerance="10"
     inkscape:pageopacity="0"
     inkscape:pageshadow="2"
     inkscape:window-width="1920"
     inkscape:window-height="1006"
     id="namedview17"
     showgrid="false"
     inkscape:zoom="9.8125"
     inkscape:cx="-12.942675"
     inkscape:cy="6.522293"
     inkscape:window-x="0"
     inkscape:window-y="0"
     inkscape:window-maximized="1"
     inkscape:current-layer="layer1"
     inkscape:document-rotation="0"
     inkscape:pagecheckerboard="0" />
  <defs
     id="defs5455">
    <linearGradient
       inkscape:collect="always"
       id="linearGradient860">
      <stop
         style="stop-color:#78acd3;stop-opacity:1"
         offset="0"
         id="stop856" />
      <stop
         style="stop-color:#d98cbb;stop-opacity:1"
         offset="1"
         id="stop858" />
    </linearGradient>
    <linearGradient
       inkscape:collect="always"
       id="linearGradient842">
      <stop
         style="stop-color:#326e9a;stop-opacity:1"
         offset="0"
         id="stop838" />
      <stop
         style="stop-color:#339993;stop-opacity:1"
         offset="1"
         id="stop840" />
    </linearGradient>
    <linearGradient
       inkscape:collect="always"
       xlink:href="#linearGradient860"
       id="linearGradient862-3"
       x1="113.94677"
       y1="255.36646"
       x2="406.08289"
       y2="255.36646"
       gradientUnits="userSpaceOnUse"
       gradientTransform="matrix(0.10135135,0,0,0.09220346,374.22014,507.65425)" />
    <linearGradient
       inkscape:collect="always"
       xlink:href="#linearGradient842"
       id="linearGradient844-5"
       x1="386.30627"
       y1="522.45404"
       x2="446.83023"
       y2="522.45404"
       gradientUnits="userSpaceOnUse"
       gradientTransform="matrix(0.49567132,0,0,0.49972085,194.0905,274.04969)" />
  </defs>
  <metadata
     id="metadata5458">
    <rdf:RDF>
      <cc:Work
         rdf:about="">
        <dc:format>image/svg+xml</dc:format>
        <dc:type
           rdf:resource="http://purl.org/dc/dcmitype/StillImage" />
      </cc:Work>
    </rdf:RDF>
  </metadata>
  <g
     inkscape:label="Capa 1"
     inkscape:groupmode="layer"
     id="layer1"
     transform="translate(-384.57143,-515.798)">
    <path
       style="fill:url(#linearGradient862-3);fill-opacity:1;stroke-width:0.089569"
       d="m 400.57301,522.37783 c -0.44016,0 -0.96119,-0.25824 -1.15846,-0.57392 l -0.88505,-1.41859 c -0.19637,-0.31567 -0.7174,-0.57334 -1.1574,-0.57391 l -10.20056,-0.0134 c -0.973,-0.002 -1.3831,0.46748 -1.39693,1.50207 l -0.006,0.43614 v 1.28321 18.28579 c 0,0.35288 1.16036,1.28321 1.60036,1.28321 h 26.40757 c 0.44001,0 1.60036,-0.93033 1.60036,-1.28321 v -17.64418 c 0,-0.96241 -0.40002,-1.28321 -1.60036,-1.28321 z"
       id="path4-3-6"
       sodipodi:nodetypes="sccsssccsssssss" />
    <path
       style="fill:#f2f2f2;fill-opacity:1;stroke-width:0.0882825"
       d="m 413.46046,529.22774 c 0,0.66274 -0.39788,1.20497 -1.30857,1.20497 H 389.0541 c -0.9107,0 -1.25926,-0.54223 -1.25926,-1.20497 v -3.61492 c 0,-0.66274 0.34856,-1.20498 1.25926,-1.20498 h 23.04822 c 0.91069,0 1.35814,0.54224 1.35814,1.20498 z"
       id="path8-6-2"
       sodipodi:nodetypes="sssssssss" />
    <path
       style="fill:url(#linearGradient844-5);fill-opacity:1;stroke-width:0.09667"
       d="m 413.94973,526.46375 h -26.7566 c -0.81091,0 -1.6217,0.73763 -1.6217,1.47526 v 14.38374 c 0,0.97553 0.62711,1.47525 1.6217,1.47525 h 26.7566 c 0.99775,0 1.6217,-0.49972 1.6217,-1.47525 v -14.38374 c 0,-0.73763 -0.8108,-1.47526 -1.6217,-1.47526 z"
       id="path10-9"
       sodipodi:nodetypes="sssssssss" />
    <path
       fill-rule="evenodd"
       clip-rule="evenodd"
       d="m 413.04716,536.6821 c 0.004,0 0.008,-0.002 0.012,-0.002 0.56785,0.0562 1.01239,0.53531 1.01239,1.11841 0,0.58426 -0.44508,1.06438 -1.01515,1.11957 -10e-4,0.003 -0.002,0.005 -0.004,0.008 -0.004,-2.8e-4 -0.007,-0.002 -0.012,-0.002 -0.14333,0 -0.30305,0.0256 -0.36238,0.1689 -0.0593,0.14364 0.0247,0.26889 0.13458,0.37848 0.004,0.004 0.009,0.005 0.0131,0.009 0.35923,0.44165 0.3389,1.08931 -0.0728,1.50103 -0.4113,0.41142 -1.0595,0.4323 -1.50129,0.0733 -0.007,0.004 -0.0138,0.005 -0.0204,0.008 -0.003,-0.004 -0.004,-0.008 -0.007,-0.0112 -0.10176,-0.10135 -0.23209,-0.19638 -0.3756,-0.13651 -0.14376,0.0593 -0.17232,0.20709 -0.17232,0.36253 0,0.014 0.004,0.0266 0.008,0.0392 -0.0707,0.55371 -0.54026,0.98273 -1.11334,0.98273 -0.58338,0 -1.06279,-0.44413 -1.11951,-1.01267 -0.006,-0.002 -0.0115,-0.006 -0.0178,-0.008 2.8e-4,-0.002 10e-4,-0.005 10e-4,-0.008 0,-0.14335 -0.0254,-0.30266 -0.16879,-0.36199 -0.14351,-0.0596 -0.26889,0.0247 -0.3786,0.13458 -0.007,0.007 -0.01,0.0149 -0.0145,0.0226 -0.44125,0.3455 -1.07819,0.32162 -1.48412,-0.0846 -0.41227,-0.41227 -0.43246,-1.06129 -0.0716,-1.50323 -0.004,-0.008 -0.006,-0.016 -0.009,-0.0242 0.10136,-0.10136 0.19596,-0.23182 0.13651,-0.37519 -0.0596,-0.14335 -0.20763,-0.17248 -0.36295,-0.17248 -0.0102,0 -0.0191,0.004 -0.0287,0.006 -0.5533,-0.0703 -0.98217,-0.54077 -0.98217,-1.11322 0,-0.58557 0.44715,-1.06581 1.0187,-1.11951 0.002,-0.005 0.005,-0.01 0.007,-0.0146 0.14131,-10e-4 0.2958,-0.0277 0.35404,-0.16865 0.0593,-0.1431 -0.0242,-0.26779 -0.13375,-0.37737 -0.35995,-0.44138 -0.33975,-1.08986 0.0722,-1.50184 0.41348,-0.41378 1.06649,-0.43287 1.50829,-0.0674 0.005,-0.002 0.009,-0.004 0.0143,-0.005 0.10053,0.099 0.22852,0.18883 0.36901,0.13075 0.14351,-0.0595 0.17235,-0.20763 0.17235,-0.36283 0,-3.8e-4 -2.8e-4,-10e-4 -2.8e-4,-0.002 0.057,-0.56814 0.53516,-1.01171 1.11825,-1.01171 0.58653,0 1.06733,0.44853 1.11979,1.02118 10e-4,3.8e-4 0.002,0.002 0.003,0.002 0,0.0336 0.002,0.0683 0.006,0.10217 h -0.004 c 0,0.15518 -0.12579,0.28139 -0.28125,0.28139 -0.15505,0 -0.28098,-0.12621 -0.28098,-0.28139 0,-0.31079 -0.252,-0.56251 -0.56265,-0.56251 -0.31078,0 -0.5625,0.25172 -0.5625,0.56251 v 0.28139 l -0.002,0.002 c 0.005,0.18594 -0.11315,0.35953 -0.29978,0.415 -0.005,0.002 -0.009,0.002 -0.0137,0.002 l -0.004,0.005 c -0.13157,0.0443 -0.25929,0.097 -0.3818,0.15903 l -0.008,-0.001 c -0.005,0.002 -0.009,0.006 -0.0135,0.009 -0.18197,0.0985 -0.40388,0.0491 -0.52884,-0.10684 l -0.17538,-0.17524 c -0.21987,-0.21973 -0.57609,-0.21973 -0.79556,0 -0.21957,0.21973 -0.21957,0.57597 0,0.79542 l 0.19884,0.19899 0.001,0.008 c 0.13156,0.12853 0.16948,0.33179 0.0776,0.50153 -0.002,0.002 -0.004,0.005 -0.005,0.007 l 0.002,0.009 c -0.0613,0.12264 -0.1148,0.25035 -0.15875,0.38219 l -0.009,0.007 c -0.001,0.005 -0.001,0.01 -0.003,0.0149 -0.0597,0.20077 -0.2557,0.32217 -0.45648,0.29717 h -0.23794 c -0.31078,0 -0.56263,0.25201 -0.56263,0.56251 0,0.31043 0.25185,0.56258 0.56263,0.56258 h 0.28097 l 0.008,0.006 c 0.18197,-2.8e-4 0.35046,0.11645 0.40511,0.29966 3.8e-4,0.002 3.8e-4,0.004 5e-4,0.005 l 0.0104,0.008 c 0.0442,0.13155 0.0972,0.25928 0.15904,0.38176 l -0.002,0.017 c 0.002,0.003 0.004,0.006 0.006,0.009 0.0985,0.18183 0.0491,0.40376 -0.10684,0.52872 l -0.17085,0.17111 c -0.21957,0.21945 -0.21957,0.57569 0,0.79542 0.21945,0.21945 0.57569,0.21945 0.79556,0 l 0.19899,-0.19884 0.008,-0.002 c 0.12825,-0.12799 0.32929,-0.16398 0.49697,-0.0733 10e-4,3.7e-4 0.002,10e-4 0.003,0.002 l 0.0181,-0.002 c 0.12265,0.0612 0.25035,0.1148 0.38219,0.15875 l 0.0113,0.0148 c 0.002,10e-4 0.004,10e-4 0.006,0.002 0.18375,0.0544 0.30033,0.22358 0.29978,0.40621 l 0.002,0.002 v 0.2815 c 0,0.31065 0.25173,0.56251 0.56251,0.56251 0.31065,0 0.56265,-0.25186 0.56265,-0.56251 v -0.28151 l 0.002,-0.002 c -3.8e-4,-0.18266 0.11605,-0.35157 0.2998,-0.40622 0.002,-5e-4 0.004,-5e-4 0.006,-10e-4 l 0.0111,-0.0146 c 0.13155,-0.0442 0.25913,-0.097 0.38174,-0.15903 l 0.0186,0.002 c 0.001,-10e-4 0.002,-0.002 0.003,-0.002 0.16768,-0.0906 0.36874,-0.0547 0.497,0.0733 l 0.008,0.002 0.19898,0.19884 c 0.21945,0.21945 0.57569,0.21945 0.79556,0 0.21959,-0.21973 0.21959,-0.57597 0,-0.79542 l -0.17098,-0.1711 c -0.15601,-0.12497 -0.20518,-0.3469 -0.1067,-0.52873 0.002,-0.004 0.004,-0.006 0.006,-0.009 l -0.002,-0.0187 c 0.0612,-0.12248 0.11523,-0.24855 0.15875,-0.37983 l 0.011,-0.008 c 3.7e-4,-10e-4 5e-4,-0.003 10e-4,-0.005 0.0545,-0.1832 0.22289,-0.29966 0.40484,-0.29966 l 0.008,-0.006 h 0.28136 c 0.31078,0 0.56251,-0.25214 0.56251,-0.56258 0,-0.3105 -0.25173,-0.5625 -0.56251,-0.5625 h -0.2381 c -0.20106,0.025 -0.39674,-0.0964 -0.45635,-0.29718 -0.002,-0.005 -0.002,-0.0102 -0.003,-0.0152 l -0.008,-0.006 c -0.0441,-0.13156 -0.0972,-0.25928 -0.1589,-0.3815 l 10e-4,-0.01 c -10e-4,-0.002 -0.003,-0.005 -0.005,-0.007 -0.0919,-0.16974 -0.054,-0.373 0.0774,-0.50153 l 0.001,-0.008 0.19898,-0.19899 c 0.21959,-0.21945 0.21959,-0.57569 0,-0.79542 -0.10438,-0.10408 -0.25708,-0.16355 -0.39372,-0.16891 -0.15546,0 -0.28139,-0.12579 -0.28139,-0.28125 0,-0.15547 0.12593,-0.28126 0.28139,-0.28126 0.0202,0 0.0397,0.002 0.0588,0.006 0.2645,0.0173 0.53119,0.12593 0.73252,0.32754 0.4132,0.41309 0.43283,1.06458 0.0692,1.50637 0.002,0.002 0.002,0.006 0.003,0.009 -10e-4,10e-4 -0.003,0.002 -0.004,0.003 -0.10148,0.10162 -0.19638,0.23209 -0.13692,0.37588 0.0593,0.14349 0.20744,0.17234 0.36261,0.17234 z m -1.92878,-1.4156 c -0.15547,0 -0.28126,-0.12607 -0.28126,-0.28139 0,-0.15504 0.12579,-0.28098 0.28126,-0.28098 0.15504,0 0.28097,0.12594 0.28097,0.28098 0,0.15532 -0.12593,0.28139 -0.28097,0.28139 z m -2.53137,3.23447 c 0.15546,0 0.28139,0.12579 0.28139,0.28125 0,0.15546 -0.12593,0.28124 -0.28139,0.28124 -0.15532,0 -0.28125,-0.12578 -0.28125,-0.28124 0,-0.15546 0.12593,-0.28125 0.28125,-0.28125 z m -0.70297,-0.70321 c 0,-0.93191 0.75557,-1.6875 1.68734,-1.6875 0.93193,0 1.68748,0.75559 1.68748,1.6875 0,0.932 -0.75555,1.68757 -1.68748,1.68757 -0.15532,0 -0.28125,-0.12607 -0.28125,-0.28125 0,-0.15518 0.12593,-0.28152 0.28125,-0.28152 0.62143,0 1.12487,-0.50346 1.12487,-1.1248 0,-0.62127 -0.50346,-1.12487 -1.12487,-1.12487 -0.62127,0 -1.12514,0.50359 -1.12514,1.12487 0,0.15554 -0.12593,0.28132 -0.28097,0.28132 -0.15546,0 -0.28123,-0.12578 -0.28123,-0.28132 z"
       id="path2"
       style="fill:#f2f2f2;fill-opacity:1;stroke-width:0.0175783" />
  </g>
</svg>
