<?xml version="1.0" encoding="UTF-8" standalone="no"?>
<svg
   width="32"
   version="1.1"
   height="32"
   viewBox="0 0 32 32"
   id="svg17"
   sodipodi:docname="folder-videos.svg"
   inkscape:version="1.1.1 (3bf5ae0d25, 2021-09-20)"
   xmlns:inkscape="http://www.inkscape.org/namespaces/inkscape"
   xmlns:sodipodi="http://sodipodi.sourceforge.net/DTD/sodipodi-0.dtd"
   xmlns:xlink="http://www.w3.org/1999/xlink"
   xmlns="http://www.w3.org/2000/svg"
   xmlns:svg="http://www.w3.org/2000/svg"
   xmlns:rdf="http://www.w3.org/1999/02/22-rdf-syntax-ns#"
   xmlns:cc="http://creativecommons.org/ns#"
   xmlns:dc="http://purl.org/dc/elements/1.1/">
  <sodipodi:namedview
     pagecolor="#ffffff"
     bordercolor="#666666"
     borderopacity="1"
     objecttolerance="10"
     gridtolerance="10"
     guidetolerance="10"
     inkscape:pageopacity="0"
     inkscape:pageshadow="2"
     inkscape:window-width="1920"
     inkscape:window-height="1006"
     id="namedview19"
     showgrid="false"
     inkscape:zoom="9.8125"
     inkscape:cx="-8.7643312"
     inkscape:cy="4.3821656"
     inkscape:window-x="0"
     inkscape:window-y="0"
     inkscape:window-maximized="1"
     inkscape:current-layer="layer1"
     inkscape:document-rotation="0"
     inkscape:pagecheckerboard="0" />
  <defs
     id="defs5455">
    <linearGradient
       inkscape:collect="always"
       xlink:href="#linearGradient860-6"
       id="linearGradient862-3"
       x1="113.94677"
       y1="255.36646"
       x2="406.08289"
       y2="255.36646"
       gradientUnits="userSpaceOnUse"
       gradientTransform="matrix(0.10135135,0,0,0.09220346,374.22015,507.65425)" />
    <linearGradient
       inkscape:collect="always"
       id="linearGradient860-6">
      <stop
         style="stop-color:#78acd3;stop-opacity:1"
         offset="0"
         id="stop856-7" />
      <stop
         style="stop-color:#d98cbb;stop-opacity:1"
         offset="1"
         id="stop858-5" />
    </linearGradient>
    <linearGradient
       inkscape:collect="always"
       xlink:href="#linearGradient842-5"
       id="linearGradient844-3"
       x1="386.30627"
       y1="522.45404"
       x2="446.83023"
       y2="522.45404"
       gradientUnits="userSpaceOnUse"
       gradientTransform="matrix(0.49567132,0,0,0.49972085,194.09051,274.04969)" />
    <linearGradient
       inkscape:collect="always"
       id="linearGradient842-5">
      <stop
         style="stop-color:#326e9a;stop-opacity:1"
         offset="0"
         id="stop838-6" />
      <stop
         style="stop-color:#339993;stop-opacity:1"
         offset="1"
         id="stop840-2" />
    </linearGradient>
  </defs>
  <metadata
     id="metadata5458">
    <rdf:RDF>
      <cc:Work
         rdf:about="">
        <dc:format>image/svg+xml</dc:format>
        <dc:type
           rdf:resource="http://purl.org/dc/dcmitype/StillImage" />
      </cc:Work>
    </rdf:RDF>
  </metadata>
  <g
     inkscape:label="Capa 1"
     inkscape:groupmode="layer"
     id="layer1"
     transform="translate(-384.57143,-515.798)">
    <path
       style="fill:url(#linearGradient862-3);fill-opacity:1;stroke-width:0.089569"
       d="m 400.57301,522.37783 c -0.44016,0 -0.96119,-0.25824 -1.15846,-0.57392 l -0.88505,-1.41859 c -0.19637,-0.31567 -0.7174,-0.57334 -1.1574,-0.57391 l -10.20056,-0.0134 c -0.973,-0.002 -1.3831,0.46748 -1.39693,1.50207 l -0.006,0.43614 v 1.28321 18.28579 c 0,0.35288 1.16036,1.28321 1.60036,1.28321 h 26.40757 c 0.44001,0 1.60036,-0.93033 1.60036,-1.28321 v -17.64418 c 0,-0.96241 -0.40002,-1.28321 -1.60036,-1.28321 z"
       id="path4-3-9"
       sodipodi:nodetypes="sccsssccsssssss" />
    <path
       style="fill:#f2f2f2;fill-opacity:1;stroke-width:0.0882825"
       d="m 413.46046,529.22774 c 0,0.66274 -0.39788,1.20497 -1.30857,1.20497 H 389.0541 c -0.9107,0 -1.25926,-0.54223 -1.25926,-1.20497 v -3.61492 c 0,-0.66274 0.34856,-1.20498 1.25926,-1.20498 h 23.04822 c 0.91069,0 1.35814,0.54224 1.35814,1.20498 z"
       id="path8-6-1"
       sodipodi:nodetypes="sssssssss" />
    <path
       style="fill:url(#linearGradient844-3);fill-opacity:1;stroke-width:0.09667"
       d="m 413.94973,526.46375 h -26.7566 c -0.81091,0 -1.6217,0.73763 -1.6217,1.47526 v 14.38374 c 0,0.97553 0.62711,1.47525 1.6217,1.47525 h 26.7566 c 0.99775,0 1.6217,-0.49972 1.6217,-1.47525 v -14.38374 c 0,-0.73763 -0.8108,-1.47526 -1.6217,-1.47526 z"
       id="path10-2"
       sodipodi:nodetypes="sssssssss" />
    <path
       d="m 403.76186,536.57042 c -0.2241,0 -0.40575,-0.18321 -0.40575,-0.40914 0,-0.22592 0.18165,-0.40906 0.40575,-0.40906 0.22408,0 0.40581,0.18314 0.40581,0.40906 0,0.22593 -0.18173,0.40914 -0.40581,0.40914 z m 2.43467,0 h -0.81156 c -0.22409,0 -0.40575,-0.18321 -0.40575,-0.40914 0,-0.22592 0.18166,-0.40906 0.40575,-0.40906 h 1.01447 c 0.56031,0 1.0144,0.45781 1.0144,1.02269 v 2.04551 c 0,0.56488 -0.45409,1.02269 -1.0144,1.02269 h -2.02894 c -0.5603,0 -1.01439,-0.45781 -1.01439,-1.02269 v -1.02276 c 0,-0.22592 0.18165,-0.40906 0.40575,-0.40906 0.22408,0 0.40581,0.18314 0.40581,0.40906 v 0.81819 c 0,0.22592 0.18165,0.40907 0.40574,0.40907 h 1.62312 c 0.22409,0 0.40575,-0.18315 0.40575,-0.40907 v -1.63637 c 0,-0.22593 -0.18166,-0.40906 -0.40575,-0.40906 z m 6.49241,4.90907 c -0.0844,0 -0.16637,-0.009 -0.24571,-0.025 -0.3053,-0.0463 -0.59854,-0.1812 -0.84245,-0.40209 -0.10837,-0.0733 -0.17985,-0.19796 -0.17985,-0.33982 0,-0.22593 0.18166,-0.40906 0.40575,-0.40906 0.11212,0 0.21297,0.046 0.28691,0.11988 0.13729,0.13617 0.31066,0.21011 0.48919,0.2283 0.0275,0.006 0.0566,0.01 0.0861,0.01 0.22409,0 0.40582,-0.18315 0.40582,-0.40906 v -4.90916 c 0,-0.22593 -0.18173,-0.40907 -0.40582,-0.40907 v -0.005 c -0.21018,-10e-4 -0.42102,0.0795 -0.58148,0.24133 l -2.02415,2.0406 c -0.17294,0.17444 -0.24905,0.40736 -0.2348,0.63562 v 1.44901 1.36531 c 0,0.9037 -0.72675,1.63639 -1.62312,1.63639 h -5.68082 c -0.89637,10e-6 -1.62312,-0.73267 -1.62312,-1.63637 v -5.72725 c 0,-0.90369 0.72675,-1.63638 1.62312,-1.63638 h 5.68085 c 0.89637,0 1.62312,0.73269 1.62312,1.63638 v 0.40906 c 0,0.22592 -0.18169,0.40913 -0.40576,0.40913 -0.22408,0 -0.4058,-0.18321 -0.4058,-0.40913 v -0.40906 c 0,-0.45185 -0.36337,-0.81819 -0.81156,-0.81819 h -5.68085 c -0.44819,0 -0.81157,0.36634 -0.81157,0.81819 v 5.72726 c 0,0.45185 0.36338,0.81819 0.81157,0.81819 h 5.68085 c 0.44819,0 0.81156,-0.36634 0.81156,-0.81819 v -2.86363 h 0.002 c 0,-0.42107 0.15954,-0.84196 0.4777,-1.16319 l 2.01917,-2.03564 c 0.25604,-0.25749 0.57563,-0.40668 0.90807,-0.4578 0.0792,-0.0163 0.16128,-0.0251 0.24571,-0.0251 0.67231,0 1.2173,0.54947 1.2173,1.22724 v 4.90913 c -3e-5,0.67773 -0.54502,1.22724 -1.21733,1.22724 z m -1.82595,-2.25001 c 0.22409,0 0.40575,0.1832 0.40575,0.40913 0,0.22592 -0.18166,0.40906 -0.40575,0.40906 -0.22409,0 -0.40582,-0.18314 -0.40582,-0.40906 0,-0.22593 0.18173,-0.40913 0.40582,-0.40913 z"
       id="path2-3"
       style="fill:#f2f2f2;fill-opacity:1;stroke-width:0.0254644" />
  </g>
</svg>
