<?xml version="1.0" encoding="UTF-8" standalone="no"?>
<svg
   width="32"
   version="1.1"
   height="32"
   viewBox="0 0 32 32"
   id="svg15"
   sodipodi:docname="folder-Relax.svg"
   inkscape:version="1.1.1 (3bf5ae0d25, 2021-09-20)"
   xmlns:inkscape="http://www.inkscape.org/namespaces/inkscape"
   xmlns:sodipodi="http://sodipodi.sourceforge.net/DTD/sodipodi-0.dtd"
   xmlns:xlink="http://www.w3.org/1999/xlink"
   xmlns="http://www.w3.org/2000/svg"
   xmlns:svg="http://www.w3.org/2000/svg"
   xmlns:rdf="http://www.w3.org/1999/02/22-rdf-syntax-ns#"
   xmlns:cc="http://creativecommons.org/ns#"
   xmlns:dc="http://purl.org/dc/elements/1.1/">
  <sodipodi:namedview
     pagecolor="#ffffff"
     bordercolor="#666666"
     borderopacity="1"
     objecttolerance="10"
     gridtolerance="10"
     guidetolerance="10"
     inkscape:pageopacity="0"
     inkscape:pageshadow="2"
     inkscape:window-width="1920"
     inkscape:window-height="1006"
     id="namedview17"
     showgrid="false"
     inkscape:zoom="9.8125"
     inkscape:cx="-12.942675"
     inkscape:cy="6.522293"
     inkscape:window-x="0"
     inkscape:window-y="0"
     inkscape:window-maximized="1"
     inkscape:current-layer="layer1"
     inkscape:document-rotation="0"
     inkscape:pagecheckerboard="0" />
  <defs
     id="defs5455">
    <linearGradient
       inkscape:collect="always"
       id="linearGradient860">
      <stop
         style="stop-color:#78acd3;stop-opacity:1"
         offset="0"
         id="stop856" />
      <stop
         style="stop-color:#d98cbb;stop-opacity:1"
         offset="1"
         id="stop858" />
    </linearGradient>
    <linearGradient
       inkscape:collect="always"
       id="linearGradient842">
      <stop
         style="stop-color:#326e9a;stop-opacity:1"
         offset="0"
         id="stop838" />
      <stop
         style="stop-color:#339993;stop-opacity:1"
         offset="1"
         id="stop840" />
    </linearGradient>
    <linearGradient
       inkscape:collect="always"
       xlink:href="#linearGradient860"
       id="linearGradient862-3"
       x1="113.94677"
       y1="255.36646"
       x2="406.08289"
       y2="255.36646"
       gradientUnits="userSpaceOnUse"
       gradientTransform="matrix(0.10135135,0,0,0.09220346,374.22015,507.65424)" />
    <linearGradient
       inkscape:collect="always"
       xlink:href="#linearGradient842"
       id="linearGradient844-5"
       x1="386.30627"
       y1="522.45404"
       x2="446.83023"
       y2="522.45404"
       gradientUnits="userSpaceOnUse"
       gradientTransform="matrix(0.49567132,0,0,0.49972085,194.0905,274.04969)" />
  </defs>
  <metadata
     id="metadata5458">
    <rdf:RDF>
      <cc:Work
         rdf:about="">
        <dc:format>image/svg+xml</dc:format>
        <dc:type
           rdf:resource="http://purl.org/dc/dcmitype/StillImage" />
      </cc:Work>
    </rdf:RDF>
  </metadata>
  <g
     inkscape:label="Capa 1"
     inkscape:groupmode="layer"
     id="layer1"
     transform="translate(-384.57143,-515.798)">
    <path
       style="fill:url(#linearGradient862-3);fill-opacity:1;stroke-width:0.089569"
       d="m 400.57301,522.37783 c -0.44016,0 -0.96119,-0.25824 -1.15846,-0.57392 l -0.88505,-1.41859 c -0.19637,-0.31567 -0.7174,-0.57334 -1.1574,-0.57391 l -10.20056,-0.0134 c -0.973,-0.002 -1.3831,0.46748 -1.39693,1.50207 l -0.006,0.43614 v 1.28321 18.28579 c 0,0.35288 1.16036,1.28321 1.60036,1.28321 h 26.40757 c 0.44001,0 1.60036,-0.93033 1.60036,-1.28321 v -17.64418 c 0,-0.96241 -0.40002,-1.28321 -1.60036,-1.28321 z"
       id="path4-3-6"
       sodipodi:nodetypes="sccsssccsssssss" />
    <path
       style="fill:#f2f2f2;fill-opacity:1;stroke-width:0.0882825"
       d="m 413.46046,529.22774 c 0,0.66274 -0.39788,1.20497 -1.30857,1.20497 H 389.0541 c -0.9107,0 -1.25926,-0.54223 -1.25926,-1.20497 v -3.61492 c 0,-0.66274 0.34856,-1.20498 1.25926,-1.20498 h 23.04822 c 0.91069,0 1.35814,0.54224 1.35814,1.20498 z"
       id="path8-6-2"
       sodipodi:nodetypes="sssssssss" />
    <path
       style="fill:url(#linearGradient844-5);fill-opacity:1;stroke-width:0.09667"
       d="m 413.94973,526.46375 h -26.7566 c -0.81091,0 -1.6217,0.73763 -1.6217,1.47526 v 14.38374 c 0,0.97553 0.62711,1.47525 1.6217,1.47525 h 26.7566 c 0.99775,0 1.6217,-0.49972 1.6217,-1.47525 v -14.38374 c 0,-0.73763 -0.8108,-1.47526 -1.6217,-1.47526 z"
       id="path10-9"
       sodipodi:nodetypes="sssssssss" />
    <path
       d="m 413.20226,539.84241 0.84656,-0.21945 -0.89068,-0.12554 0.0613,-0.11515 -0.31731,0.0336 0.0574,-0.082 -0.52809,0.0727 v -0.11119 l -0.40398,0.11324 v -0.12635 l -0.33979,0.12813 v -0.12595 l -0.34969,0.19705 v -0.11556 l -0.31526,0.19212 v -0.14855 l -0.12478,0.1174 -0.0624,-0.0467 0.29928,-0.15954 -0.0498,-0.0356 0.27579,-0.10832 -0.087,-0.0622 0.44763,-0.23364 -0.13707,-0.0249 0.33848,-0.20572 -0.10047,-0.0376 0.27148,-0.20223 -0.10511,-0.011 0.18256,-0.14513 -0.0904,-0.0569 0.2857,-0.27578 -0.0812,-0.0406 0.30222,-0.30222 -0.14985,-0.0126 0.18256,-0.23468 -0.10286,-0.0308 0.22375,-0.30508 -0.0986,-0.0218 0.15934,-0.2482 -0.0536,-0.0267 0.30113,-0.30107 -0.14677,-0.0293 0.47399,-0.82137 -0.77075,0.57542 -2.1e-4,-0.14425 -0.28809,0.33242 v -0.0982 l -0.29545,0.29545 v -0.11699 l -0.28789,0.31028 v -0.16153 l -0.28372,0.44012 -0.0362,-0.13995 -0.2116,0.38918 -0.0492,-0.10648 -0.14623,0.2986 -0.0318,-0.13346 -0.15019,0.26944 v -0.17901 l -0.31834,0.67057 -0.068,-0.11911 -0.18305,0.46792 -0.0359,-0.0896 -0.21254,0.45378 -0.0346,-0.0901 -0.23263,0.47291 -0.0666,-0.11707 -0.0824,0.31813 -0.072,-0.0125 0.12669,-0.34484 h -0.0571 l 0.1478,-0.35446 h -0.0658 l 0.13305,-0.399 h -0.0949 l 0.0739,-0.43608 h -0.0605 l 0.14049,-0.421 h -0.12021 l 0.11092,-0.42113 -0.11269,-6e-5 0.0446,-0.3559 -0.0829,0.0344 0.0615,-0.39258 -0.0937,0.0469 0.0183,-0.32292 h -0.0563 l 0.0296,-0.36199 h -0.0775 l -0.01,-0.47173 -0.0761,0.0654 -0.0431,-0.28509 -0.0516,0.0337 -0.0688,-0.58437 -0.0514,0.11563 -0.048,-0.23481 -0.0507,0.0508 -0.18932,-0.95768 -0.18904,0.95768 -0.0506,-0.0508 -0.048,0.23481 -0.0514,-0.11563 -0.0688,0.58437 -0.0516,-0.0337 -0.0431,0.28509 -0.0761,-0.0654 -0.01,0.47173 h -0.0775 l 0.0296,0.36199 h -0.0565 l 0.0184,0.32278 -0.0936,-0.0468 0.0614,0.39237 -0.0824,-0.0344 0.0444,0.35596 h -0.11304 l 0.11092,0.42114 h -0.1202 l 0.14028,0.42099 h -0.0601 l 0.0739,0.43608 h -0.0948 l 0.13285,0.39899 h -0.0658 l 0.1478,0.35447 h -0.057 l 0.12648,0.34484 -0.046,0.008 -0.0809,-0.31314 -0.0667,0.11679 -0.23242,-0.4729 -0.0347,0.0903 -0.21261,-0.45439 -0.0358,0.0897 -0.18305,-0.46792 -0.068,0.11911 -0.31834,-0.67057 v 0.17901 l -0.14999,-0.26882 -0.0319,0.13345 -0.14656,-0.29907 -0.0491,0.10627 -0.21153,-0.38917 -0.0362,0.14015 -0.28372,-0.44012 v 0.16153 l -0.2881,-0.31021 v 0.117 l -0.29545,-0.29546 v 0.0982 l -0.28809,-0.33242 v 0.14459 l -0.77083,-0.57534 0.47392,0.82116 -0.14643,0.0293 0.30085,0.30093 -0.0537,0.0267 0.15955,0.24806 -0.0986,0.0218 0.22388,0.30516 -0.10265,0.0308 0.18256,0.23468 -0.14965,0.0125 0.30182,0.30222 -0.0812,0.0407 0.28591,0.27573 -0.0904,0.0569 0.18255,0.14514 -0.10544,0.0112 0.27176,0.20222 -0.10027,0.0377 0.33836,0.20572 -0.13687,0.0249 0.4475,0.23365 -0.0868,0.0621 0.27552,0.10825 -0.0498,0.0355 0.29929,0.15969 -0.0624,0.0469 -0.12499,-0.11762 v 0.14842 l -0.31507,-0.19212 v 0.11563 l -0.34969,-0.19705 v 0.12594 l -0.33999,-0.12812 v 0.12628 l -0.40378,-0.11323 v 0.11132 l -0.52808,-0.0727 0.0574,0.082 -0.31793,-0.0336 0.0616,0.11522 -0.89041,0.12547 0.84616,0.21931 -0.14356,0.0781 0.42782,0.0446 -0.0745,0.0573 0.30393,0.0564 -0.0883,0.0806 0.34013,0.0638 -0.0794,0.065 0.37613,0.0737 -0.12471,0.10129 0.42113,0.0702 -0.15627,0.11016 0.55179,0.0399 -0.16862,0.14193 0.48061,-0.0514 -0.0688,0.0757 0.50014,-0.0439 -0.0545,0.10935 0.42167,-0.10545 0.019,0.0136 -0.008,0.0178 -0.38868,0.0711 0.131,0.0873 -0.45638,0.16542 0.12628,0.0505 -0.28241,0.16071 0.0935,0.0389 -0.91077,0.73632 1.096,-0.3977 -0.007,0.10668 0.26685,-0.14335 -0.007,0.11686 0.27961,-0.19541 v 0.11419 l 0.2359,-0.18037 -0.0143,0.12001 0.3906,-0.29294 0.0192,0.12246 0.56872,-0.55957 c 0.004,0.51224 0.0271,1.10629 0.10866,1.28101 0.0266,0.0567 0.0842,0.0934 0.14684,0.0934 0.0239,0 0.0471,-0.005 0.0682,-0.015 0.0807,-0.0373 0.11625,-0.13367 0.079,-0.21569 -0.0421,-0.09 -0.0735,-0.5647 -0.0784,-1.1701 l 0.59501,0.58573 0.0194,-0.12232 0.39081,0.29321 -0.0144,-0.12027 0.23611,0.18037 v -0.11413 l 0.27961,0.19541 -0.007,-0.11686 0.26725,0.14356 -0.007,-0.10675 1.09558,0.39742 -0.91077,-0.73632 0.0932,-0.0389 -0.28201,-0.16051 0.12636,-0.0505 -0.45638,-0.16542 0.13099,-0.0874 -0.38917,-0.0711 -0.008,-0.0174 0.0195,-0.0139 0.42121,0.10532 -0.0545,-0.10935 0.49947,0.0439 -0.0686,-0.0757 0.48029,0.0514 -0.16809,-0.14179 0.55192,-0.0401 -0.15627,-0.11016 0.42153,-0.0703 -0.12492,-0.10129 0.37592,-0.0737 -0.0794,-0.065 0.33979,-0.0637 -0.0881,-0.0806 0.30426,-0.0564 -0.0747,-0.0574 0.42715,-0.0445 z m -3.61597,-0.0324 0.0766,0.0845 0.0836,-0.32299 0.007,0.0133 0.19616,-0.3988 0.0392,0.10189 0.21637,-0.46204 0.0528,0.13202 0.2159,-0.55158 0.0498,0.0876 0.0956,-0.20107 v 0.0574 l 0.27818,-0.49892 0.0419,0.17689 0.20837,-0.42536 0.0395,0.0858 0.15798,-0.29046 0.0231,0.0893 0.1885,-0.29239 0.25912,-0.279 v 0.0897 l 0.29545,-0.29545 v 0.15305 l 0.28809,-0.33241 v 0.003 l 0.29785,-0.22245 -0.11706,0.20304 0.0505,0.0101 -0.23105,0.23099 0.10429,0.052 -0.19499,0.30344 0.0786,0.0174 -0.20981,0.28603 0.0944,0.0282 -0.23126,0.29717 0.0865,0.007 -0.19021,0.19021 0.0761,0.0381 -0.26541,0.25599 0.067,0.0422 -0.34969,0.27777 0.0822,0.009 -0.15169,0.11297 0.057,0.0213 -0.43977,0.26711 0.0799,0.0145 -0.21261,0.11099 0.0511,0.0365 -0.27579,0.10832 0.0882,0.063 -0.29212,0.15572 0.0564,0.0421 -0.3809,0.13905 0.0747,0.048 -0.42659,0.16849 0.10716,0.0536 -0.27408,0.14698 0.0712,0.0324 -0.34962,0.22368 z m 1.23606,-0.21186 -0.11433,0.1075 -0.0229,-0.0575 z m -3.73433,-0.4742 0.0509,-0.0365 -0.2124,-0.11099 0.0796,-0.0145 -0.43951,-0.26711 0.0572,-0.0215 -0.15169,-0.11282 -1.4e-4,-1.5e-4 0.0817,-0.009 -0.34928,-0.27763 0.067,-0.0421 -0.26561,-0.25612 0.0762,-0.038 -0.19029,-0.19049 0.0863,-0.007 -0.2307,-0.29716 0.0942,-0.0282 -0.20974,-0.2859 0.079,-0.0174 -0.1952,-0.30352 0.10422,-0.052 -0.23098,-0.23106 0.0504,-0.0101 -0.1172,-0.20312 0.2982,0.22253 v -0.003 l 0.28809,0.33241 v -0.15306 l 0.29545,0.29545 v -0.0897 l 0.25912,0.279 0.1885,0.29239 0.0231,-0.0891 0.15771,0.29034 0.0396,-0.0859 0.20816,0.42496 0.0423,-0.17689 0.2784,0.49946 v -0.0574 l 0.0955,0.20108 0.0499,-0.0876 0.2159,0.55158 0.0528,-0.13195 0.21582,0.46155 0.0394,-0.10183 0.19595,0.3988 0.008,-0.0136 0.0835,0.32332 0.0769,-0.0845 0.25599,0.49584 -0.35004,-0.22396 0.0712,-0.0323 -0.27409,-0.14698 0.10716,-0.0536 -0.42646,-0.16849 0.0749,-0.048 -0.3811,-0.13912 0.0561,-0.0422 -0.29171,-0.15552 0.0882,-0.0631 z m 0.24704,0.52425 -0.0231,0.0577 -0.11461,-0.10791 z m 0.3096,0.95843 0.0192,-0.0383 -0.3421,0.0301 0.079,-0.0869 -0.34922,0.0372 0.0408,-0.0344 -0.48246,-0.0349 0.095,-0.0671 -0.46545,-0.0775 0.1116,-0.0908 -0.37757,-0.074 0.0832,-0.068 -0.36929,-0.0692 0.0891,-0.0813 -0.25728,-0.0478 0.11761,-0.0904 -0.28147,-0.0293 0.0192,-0.0104 -0.35072,-0.0909 0.1588,-0.0224 -0.0174,-0.0322 0.38132,0.0403 -0.0461,-0.0658 0.29437,0.0407 v -0.0759 l 0.40379,0.11323 v -0.10026 l 0.33998,0.12813 v -0.0711 l 0.34969,0.19705 2.7e-4,-0.10163 0.31507,0.19212 v -0.0386 l 0.18756,0.17656 0.0408,-0.10211 0.31869,0.28563 0.0183,-0.1241 0.32592,0.3152 v -0.17593 l 0.60179,0.31629 -0.68312,0.0635 0.0672,-0.14398 z m 0.76248,0.48691 -0.0101,-0.0646 -0.27935,0.20941 0.0151,-0.12628 -0.29232,0.22347 v -0.0927 l -0.25578,0.17881 0.004,-0.0605 -0.265,0.14247 0.003,-0.0509 -0.23385,0.0848 0.2221,-0.17962 -0.0249,-0.0104 0.28932,-0.16446 -0.0215,-0.009 0.33159,-0.12027 -0.0465,-0.031 0.39237,-0.0717 -0.0301,-0.0215 0.18481,-0.0111 -0.0344,-0.0749 0.3561,-0.0495 z m 0.7691,-1.17508 -0.17961,0.48896 -0.17976,-0.48896 h 0.0887 l -0.20961,-0.41443 0.0557,-0.01 -0.1099,-0.29983 h 0.071 l -0.1478,-0.35446 h 0.0425 l -0.13285,-0.399 h 0.053 l -0.0739,-0.43608 h 0.10211 l -0.14029,-0.42099 h 0.10163 l -0.11092,-0.42113 h 0.079 l -0.0294,-0.23508 0.0947,0.0395 -0.0566,-0.36116 0.0541,0.0271 -0.0263,-0.46019 h 0.062 l -0.0296,-0.36198 h 0.0557 l 0.005,-0.23733 0.0274,0.0234 0.0507,-0.33555 0.0616,0.0403 0.0198,-0.16904 0.008,0.0174 0.0999,-0.48935 0.0529,0.0528 0.0618,-0.31315 0.0619,0.31301 0.0528,-0.0528 0.0999,0.48935 0.008,-0.0174 0.0198,0.16904 0.0616,-0.0403 0.0507,0.33554 0.0273,-0.0235 0.005,0.23734 h 0.0557 l -0.0296,0.36198 h 0.0617 l -0.026,0.46019 0.054,-0.027 -0.0565,0.36097 0.0947,-0.0394 -0.0295,0.23528 h 0.079 l -0.11092,0.42114 h 0.10163 l -0.14049,0.42099 h 0.10258 l -0.0739,0.43608 h 0.0529 l -0.13305,0.399 h 0.0426 l -0.14779,0.35446 h 0.0709 l -0.1101,0.29982 0.0559,0.01 -0.2096,0.41443 0.0888,-6e-5 z m 1.28648,1.25609 -0.0215,0.009 0.28931,0.1646 -0.0247,0.0104 0.22211,0.17962 -0.23461,-0.0851 0.004,0.0508 -0.26459,-0.14213 0.003,0.0605 -0.25578,-0.17881 v 0.0928 l -0.29252,-0.22333 0.015,0.12594 -0.27866,-0.20913 -0.0104,0.0648 -0.30408,-0.29928 0.35571,0.0494 -0.0346,0.0749 0.18466,0.0111 -0.0301,0.0215 0.393,0.0719 -0.0465,0.031 z m 2.18328,-1.40088 0.0192,0.0105 -0.28193,0.0294 0.11747,0.0904 -0.25693,0.0476 0.0889,0.0813 -0.36957,0.0693 0.0832,0.068 -0.37775,0.0741 0.1118,0.0908 -0.46545,0.0775 0.095,0.0671 -0.48185,0.0348 0.0408,0.0344 -0.34908,-0.0373 0.0788,0.0869 -0.34238,-0.0301 0.0192,0.0383 -0.43554,-0.10886 0.067,0.1439 -0.68326,-0.0635 0.6015,-0.3163 v 0.17573 l 0.32579,-0.31499 0.0183,0.12409 0.31874,-0.28562 0.0409,0.1021 0.18775,-0.17675 v 0.0387 l 0.31526,-0.19211 v 0.10122 l 0.34969,-0.19706 v 0.0711 l 0.33979,-0.12813 v 0.1002 l 0.40398,-0.11324 v 0.0759 l 0.29437,-0.0406 -0.0461,0.0658 0.38158,-0.0403 -0.0172,0.0324 0.15852,0.0224 z"
       id="path70"
       style="fill:#f2f2f2;fill-opacity:1;stroke-width:0.0174845" />
  </g>
</svg>
