<?xml version="1.0" encoding="UTF-8" standalone="no"?>
<svg
   xmlns:dc="http://purl.org/dc/elements/1.1/"
   xmlns:cc="http://creativecommons.org/ns#"
   xmlns:rdf="http://www.w3.org/1999/02/22-rdf-syntax-ns#"
   xmlns:svg="http://www.w3.org/2000/svg"
   xmlns="http://www.w3.org/2000/svg"
   xmlns:sodipodi="http://sodipodi.sourceforge.net/DTD/sodipodi-0.dtd"
   xmlns:inkscape="http://www.inkscape.org/namespaces/inkscape"
   width="32"
   version="1.1"
   height="32"
   viewBox="0 0 32 32"
   id="svg15"
   sodipodi:docname="folder-brown.svg"
   inkscape:version="1.0.2 (e86c870879, 2021-01-15)">
  <sodipodi:namedview
     pagecolor="#ffffff"
     bordercolor="#666666"
     borderopacity="1"
     objecttolerance="10"
     gridtolerance="10"
     guidetolerance="10"
     inkscape:pageopacity="0"
     inkscape:pageshadow="2"
     inkscape:window-width="1920"
     inkscape:window-height="1007"
     id="namedview17"
     showgrid="false"
     inkscape:zoom="9.8125"
     inkscape:cx="-15.524811"
     inkscape:cy="5.2473122"
     inkscape:window-x="0"
     inkscape:window-y="0"
     inkscape:window-maximized="1"
     inkscape:current-layer="layer1"
     inkscape:document-rotation="0" />
  <defs
     id="defs5455" />
  <metadata
     id="metadata5458">
    <rdf:RDF>
      <cc:Work
         rdf:about="">
        <dc:format>image/svg+xml</dc:format>
        <dc:type
           rdf:resource="http://purl.org/dc/dcmitype/StillImage" />
      </cc:Work>
    </rdf:RDF>
  </metadata>
  <g
     inkscape:label="Capa 1"
     inkscape:groupmode="layer"
     id="layer1"
     transform="translate(-384.57143,-515.798)">
    <path
       style="fill:#bd8c5e;fill-opacity:1;stroke-width:0.0895685"
       d="m 400.57302,522.3779 c -0.44017,0 -0.9612,-0.25823 -1.15847,-0.57391 l -0.88506,-1.41859 c -0.19636,-0.31567 -0.71739,-0.57332 -1.15739,-0.5739 l -10.20056,-0.0135 c -0.97301,-10e-4 -1.38311,0.46748 -1.39693,1.50207 l -0.006,0.43614 v 1.28319 18.28571 c 0,0.35289 1.16035,1.28321 1.60036,1.28321 h 26.40755 c 0.44003,0 1.60037,-0.93032 1.60037,-1.28321 v -17.6441 c 0,-0.9624 -0.40002,-1.28321 -1.60037,-1.28321 z"
       id="path4-3"
       sodipodi:nodetypes="sccsssccsssssss" />
    <path
       style="fill:#434c5e;fill-opacity:1;stroke-width:0.0882824"
       d="m 413.46045,529.22777 c 0,0.66275 -0.39788,1.20498 -1.30857,1.20498 H 389.0541 c -0.9107,0 -1.25926,-0.54223 -1.25926,-1.20498 v -3.61489 c 0,-0.66274 0.34856,-1.20497 1.25926,-1.20497 h 23.04823 c 0.91068,0 1.35812,0.54223 1.35812,1.20497 z"
       id="path8-6"
       sodipodi:nodetypes="sssssssss" />
    <path
       style="fill:#8b6039;fill-opacity:1;stroke-width:0.0966695"
       d="m 413.94973,526.4638 h -26.7566 c -0.81091,0 -1.6217,0.73763 -1.6217,1.47526 v 14.38368 c 0,0.97554 0.6271,1.47526 1.6217,1.47526 h 26.7566 c 0.99775,0 1.6217,-0.49972 1.6217,-1.47526 v -14.38368 c 0,-0.73763 -0.8108,-1.47526 -1.6217,-1.47526 z"
       id="path10"
       sodipodi:nodetypes="sssssssss" />
  </g>
</svg>
