<?xml version="1.0" encoding="UTF-8" standalone="no"?>
<svg
   width="32"
   version="1.1"
   height="32"
   viewBox="0 0 32 32"
   id="svg17"
   sodipodi:docname="folder-documents.svg"
   inkscape:version="1.1.1 (3bf5ae0d25, 2021-09-20)"
   xmlns:inkscape="http://www.inkscape.org/namespaces/inkscape"
   xmlns:sodipodi="http://sodipodi.sourceforge.net/DTD/sodipodi-0.dtd"
   xmlns:xlink="http://www.w3.org/1999/xlink"
   xmlns="http://www.w3.org/2000/svg"
   xmlns:svg="http://www.w3.org/2000/svg"
   xmlns:rdf="http://www.w3.org/1999/02/22-rdf-syntax-ns#"
   xmlns:cc="http://creativecommons.org/ns#"
   xmlns:dc="http://purl.org/dc/elements/1.1/">
  <sodipodi:namedview
     pagecolor="#ffffff"
     bordercolor="#666666"
     borderopacity="1"
     objecttolerance="10"
     gridtolerance="10"
     guidetolerance="10"
     inkscape:pageopacity="0"
     inkscape:pageshadow="2"
     inkscape:window-width="1920"
     inkscape:window-height="1006"
     id="namedview19"
     showgrid="false"
     inkscape:zoom="9.8125"
     inkscape:cx="-19.566879"
     inkscape:cy="13.146497"
     inkscape:window-x="0"
     inkscape:window-y="0"
     inkscape:window-maximized="1"
     inkscape:current-layer="layer1"
     inkscape:document-rotation="0"
     inkscape:pagecheckerboard="0" />
  <defs
     id="defs5455">
    <linearGradient
       inkscape:collect="always"
       xlink:href="#linearGradient860-6"
       id="linearGradient862-3"
       x1="113.94677"
       y1="255.36646"
       x2="406.08289"
       y2="255.36646"
       gradientUnits="userSpaceOnUse"
       gradientTransform="matrix(0.10135135,0,0,0.09220346,374.22014,507.65423)" />
    <linearGradient
       inkscape:collect="always"
       id="linearGradient860-6">
      <stop
         style="stop-color:#78acd3;stop-opacity:1"
         offset="0"
         id="stop856-7" />
      <stop
         style="stop-color:#d98cbb;stop-opacity:1"
         offset="1"
         id="stop858-5" />
    </linearGradient>
    <linearGradient
       inkscape:collect="always"
       xlink:href="#linearGradient842-5"
       id="linearGradient844-3"
       x1="386.30627"
       y1="522.45404"
       x2="446.83023"
       y2="522.45404"
       gradientUnits="userSpaceOnUse"
       gradientTransform="matrix(0.49567132,0,0,0.49972085,194.0905,274.04968)" />
    <linearGradient
       inkscape:collect="always"
       id="linearGradient842-5">
      <stop
         style="stop-color:#326e9a;stop-opacity:1"
         offset="0"
         id="stop838-6" />
      <stop
         style="stop-color:#339993;stop-opacity:1"
         offset="1"
         id="stop840-2" />
    </linearGradient>
  </defs>
  <metadata
     id="metadata5458">
    <rdf:RDF>
      <cc:Work
         rdf:about="">
        <dc:format>image/svg+xml</dc:format>
        <dc:type
           rdf:resource="http://purl.org/dc/dcmitype/StillImage" />
      </cc:Work>
    </rdf:RDF>
  </metadata>
  <g
     inkscape:label="Capa 1"
     inkscape:groupmode="layer"
     id="layer1"
     transform="translate(-384.57143,-515.798)">
    <path
       style="fill:url(#linearGradient862-3);fill-opacity:1;stroke-width:0.089569"
       d="m 400.57301,522.37782 c -0.44016,0 -0.96119,-0.25824 -1.15846,-0.57392 l -0.88505,-1.41859 c -0.19637,-0.31567 -0.7174,-0.57334 -1.1574,-0.57391 l -10.20056,-0.0134 c -0.973,-10e-4 -1.3831,0.46748 -1.39693,1.50207 l -0.006,0.43614 v 1.28321 18.28579 c 0,0.35288 1.16036,1.28321 1.60036,1.28321 h 26.40757 c 0.44001,0 1.60036,-0.93033 1.60036,-1.28321 v -17.64418 c 0,-0.96241 -0.40002,-1.28321 -1.60036,-1.28321 z"
       id="path4-3-9"
       sodipodi:nodetypes="sccsssccsssssss" />
    <path
       style="fill:#f2f2f2;fill-opacity:1;stroke-width:0.0882825"
       d="m 413.46046,529.22773 c 0,0.66274 -0.39788,1.20497 -1.30857,1.20497 H 389.0541 c -0.9107,0 -1.25926,-0.54223 -1.25926,-1.20497 v -3.61492 c 0,-0.66274 0.34856,-1.20498 1.25926,-1.20498 h 23.04822 c 0.91069,0 1.35814,0.54224 1.35814,1.20498 z"
       id="path8-6-1"
       sodipodi:nodetypes="sssssssss" />
    <path
       style="fill:url(#linearGradient844-3);fill-opacity:1;stroke-width:0.09667"
       d="m 413.94973,526.46374 h -26.7566 c -0.81091,0 -1.6217,0.73763 -1.6217,1.47526 v 14.38374 c 0,0.97553 0.62711,1.47525 1.6217,1.47525 h 26.7566 c 0.99775,0 1.6217,-0.49972 1.6217,-1.47525 V 527.939 c 0,-0.73763 -0.8108,-1.47526 -1.6217,-1.47526 z"
       id="path10-2"
       sodipodi:nodetypes="sssssssss" />
    <path
       d="m 412.42485,536.51032 h -1.27475 c -0.17565,0 -0.31832,-0.14384 -0.31832,-0.32093 0,-0.17756 0.14267,-0.32124 0.31832,-0.32124 h 1.27475 c 0.17613,0 0.31864,0.14368 0.31864,0.32124 0,0.17709 -0.14251,0.32093 -0.31864,0.32093 z m 0,1.28516 h -1.27475 c -0.17565,0 -0.31832,-0.14368 -0.31832,-0.32125 0,-0.17757 0.14267,-0.32125 0.31832,-0.32125 h 1.27475 c 0.17613,0 0.31864,0.14368 0.31864,0.32125 0,0.17757 -0.14251,0.32125 -0.31864,0.32125 z m -3.18648,1.9275 h 3.18648 c 0.17613,0 0.31864,0.14383 0.31864,0.32124 0,0.17758 -0.14251,0.32142 -0.31864,0.32142 h -3.18648 c -0.17582,0 -0.31881,-0.14384 -0.31881,-0.32142 0,-0.17741 0.14299,-0.32124 0.31881,-0.32124 z m 0,-1.28484 h 3.18648 c 0.17613,0 0.31864,0.14384 0.31864,0.32093 0,0.17757 -0.14251,0.32125 -0.31864,0.32125 h -3.18648 c -0.17582,0 -0.31881,-0.14368 -0.31881,-0.32125 0,-0.17709 0.14299,-0.32093 0.31881,-0.32093 z m -2.86769,-2.40953 c 0,-0.44361 0.35654,-0.80312 0.79655,-0.80312 h 2.23046 c 0.44001,0 0.79662,0.35951 0.79662,0.80312 v 0.48171 0.96391 c 0,0.17757 -0.14251,0.32125 -0.31865,0.32125 -0.17613,0 -0.31865,-0.14368 -0.31865,-0.32125 v -0.96391 -0.32093 c 0,-0.17756 -0.14267,-0.32124 -0.31864,-0.32124 h -1.91197 c -0.17606,0 -0.31865,0.14368 -0.31865,0.32124 v 0.64218 c 0,0.17757 0.14259,0.32141 0.31865,0.32141 h 1.27482 c 0.17573,0 0.31832,0.14368 0.31832,0.32125 0,0.17757 -0.14259,0.32125 -0.31832,0.32125 h -1.43399 c -0.44001,0 -0.79655,-0.35935 -0.79655,-0.80296 z m 0.31834,3.69437 h 1.27482 c 0.17606,0 0.31865,0.14383 0.31865,0.32124 0,0.17758 -0.14261,0.32142 -0.31865,0.32142 h -1.27482 c -0.17573,0 -0.31832,-0.14384 -0.31832,-0.32142 -2e-5,-0.17741 0.14259,-0.32124 0.31832,-0.32124 z m 0,-1.28484 h 1.27482 c 0.17606,0 0.31865,0.14384 0.31865,0.32093 0,0.17757 -0.14261,0.32125 -0.31865,0.32125 h -1.27482 c -0.17573,0 -0.31832,-0.14368 -0.31832,-0.32125 -2e-5,-0.17709 0.14259,-0.32093 0.31832,-0.32093 z m 6.05447,3.85483 h -5.73574 -0.63707 -0.63738 c -1.05583,0 -1.91187,-0.86303 -1.91187,-1.92733 v -2.24875 c 0,-0.17757 0.14259,-0.32141 0.31873,-0.32141 0.17573,0 0.31833,0.14384 0.31833,0.32141 v 0.32125 0.32093 1.60657 c 0,0.70963 0.57085,1.28483 1.27482,1.28483 h 0.79653 1.11526 4.93906 c 0.44001,0 0.79647,-0.35952 0.79647,-0.80312 v -6.10358 c 0,-0.44376 -0.35646,-0.80312 -0.79647,-0.80312 h -6.0543 c -0.44001,0 -0.79653,0.35936 -0.79653,0.80312 v 2.0878 0.32141 2.89124 c 0,0.17758 -0.14268,0.32142 -0.31873,0.32142 -0.17605,0 -0.31872,-0.14384 -0.31872,-0.32142 v -1.92733 -0.94758 -0.65897 -0.16048 -1.76703 c -3e-5,-0.70964 0.57085,-1.28484 1.2748,-1.28484 h 6.37282 c 0.70407,0 1.2746,0.5752 1.2746,1.28484 v 6.42498 c 0,0.7098 -0.57053,1.28516 -1.27461,1.28516 z m -8.60333,-5.13999 c -0.17614,0 -0.31873,-0.14384 -0.31873,-0.32141 0,-0.17709 0.14259,-0.32125 0.31873,-0.32125 0.17573,0 0.31833,0.14416 0.31833,0.32125 0,0.17757 -0.1426,0.32141 -0.31833,0.32141 z"
       id="path2-3"
       style="fill:#f2f2f2;fill-opacity:1;stroke-width:0.0199965" />
  </g>
</svg>
