<?xml version="1.0" encoding="UTF-8" standalone="no"?>
<svg
   xmlns:dc="http://purl.org/dc/elements/1.1/"
   xmlns:cc="http://creativecommons.org/ns#"
   xmlns:rdf="http://www.w3.org/1999/02/22-rdf-syntax-ns#"
   xmlns:svg="http://www.w3.org/2000/svg"
   xmlns="http://www.w3.org/2000/svg"
   xmlns:xlink="http://www.w3.org/1999/xlink"
   xmlns:sodipodi="http://sodipodi.sourceforge.net/DTD/sodipodi-0.dtd"
   xmlns:inkscape="http://www.inkscape.org/namespaces/inkscape"
   width="32"
   version="1.1"
   height="32"
   viewBox="0 0 32 32"
   id="svg15"
   sodipodi:docname="folder-orange.svg"
   inkscape:version="1.0.2 (e86c870879, 2021-01-15)">
  <sodipodi:namedview
     pagecolor="#ffffff"
     bordercolor="#666666"
     borderopacity="1"
     objecttolerance="10"
     gridtolerance="10"
     guidetolerance="10"
     inkscape:pageopacity="0"
     inkscape:pageshadow="2"
     inkscape:window-width="1920"
     inkscape:window-height="1007"
     id="namedview17"
     showgrid="false"
     inkscape:zoom="9.8125"
     inkscape:cx="-10.778832"
     inkscape:cy="9.8057975"
     inkscape:window-x="0"
     inkscape:window-y="0"
     inkscape:window-maximized="1"
     inkscape:current-layer="layer1"
     inkscape:document-rotation="0" />
  <defs
     id="defs5455">
    <linearGradient
       id="linearGradient4172-0">
      <stop
         style="stop-color:#f89406"
         id="stop4174-4" />
      <stop
         offset="1"
         style="stop-color:#faa938"
         id="stop4176-5" />
    </linearGradient>
    <linearGradient
       inkscape:collect="always"
       xlink:href="#linearGradient4172-0"
       id="linearGradient844"
       x1="386.30627"
       y1="522.45404"
       x2="446.83023"
       y2="522.45404"
       gradientUnits="userSpaceOnUse"
       gradientTransform="matrix(0.49567137,0,0,0.49654706,194.09049,275.61065)" />
  </defs>
  <metadata
     id="metadata5458">
    <rdf:RDF>
      <cc:Work
         rdf:about="">
        <dc:format>image/svg+xml</dc:format>
        <dc:type
           rdf:resource="http://purl.org/dc/dcmitype/StillImage" />
      </cc:Work>
    </rdf:RDF>
  </metadata>
  <g
     inkscape:label="Capa 1"
     inkscape:groupmode="layer"
     id="layer1"
     transform="translate(-384.57143,-515.798)">
    <path
       style="fill:#fbbf6a;fill-opacity:1;stroke-width:0.0892838"
       d="m 400.57301,522.36161 c -0.44016,0 -0.96118,-0.2566 -1.15846,-0.57027 l -0.88505,-1.40958 c -0.19637,-0.31367 -0.7174,-0.5697 -1.15741,-0.57026 l -10.20055,-0.0135 c -0.97301,-10e-4 -1.3831,0.46451 -1.39693,1.49253 l -0.006,0.43337 v 1.27506 18.16965 c 0,0.35065 1.16034,1.27506 1.60035,1.27506 h 26.40756 c 0.44003,0 1.60037,-0.92441 1.60037,-1.27506 V 523.6365 c 0,-0.95629 -0.40003,-1.27507 -1.60037,-1.27507 z"
       id="path4-3"
       sodipodi:nodetypes="sccsssccsssssss" />
    <path
       style="fill:#434c5e;fill-opacity:1;stroke-width:0.0880018"
       d="m 413.46046,529.168 c 0,0.65854 -0.39789,1.19734 -1.30858,1.19734 H 389.0541 c -0.9107,0 -1.25926,-0.5388 -1.25926,-1.19734 v -3.59196 c 0,-0.65851 0.34856,-1.19731 1.25926,-1.19731 h 23.04823 c 0.91068,0 1.35813,0.5388 1.35813,1.19731 z"
       id="path8-6"
       sodipodi:nodetypes="sssssssss" />
    <path
       style="fill:url(#linearGradient844);fill-opacity:1;stroke-width:0.0963622"
       d="m 413.94973,526.42157 h -26.7566 c -0.8109,0 -1.6217,0.73294 -1.6217,1.4659 v 14.29239 c 0,0.96935 0.6271,1.46589 1.6217,1.46589 h 26.7566 c 0.99775,0 1.6217,-0.49654 1.6217,-1.46589 v -14.29239 c 0,-0.73296 -0.81081,-1.4659 -1.6217,-1.4659 z"
       id="path10"
       sodipodi:nodetypes="sssssssss" />
  </g>
</svg>
