<?xml version="1.0" encoding="UTF-8" standalone="no"?>
<svg
   height="32"
   width="32"
   version="1.1"
   id="svg23"
   sodipodi:docname="folder-root.svg"
   inkscape:version="1.1.1 (3bf5ae0d25, 2021-09-20)"
   xmlns:inkscape="http://www.inkscape.org/namespaces/inkscape"
   xmlns:sodipodi="http://sodipodi.sourceforge.net/DTD/sodipodi-0.dtd"
   xmlns:xlink="http://www.w3.org/1999/xlink"
   xmlns="http://www.w3.org/2000/svg"
   xmlns:svg="http://www.w3.org/2000/svg"
   xmlns:rdf="http://www.w3.org/1999/02/22-rdf-syntax-ns#"
   xmlns:cc="http://creativecommons.org/ns#"
   xmlns:dc="http://purl.org/dc/elements/1.1/">
  <metadata
     id="metadata29">
    <rdf:RDF>
      <cc:Work
         rdf:about="">
        <dc:format>image/svg+xml</dc:format>
        <dc:type
           rdf:resource="http://purl.org/dc/dcmitype/StillImage" />
      </cc:Work>
    </rdf:RDF>
  </metadata>
  <defs
     id="defs27">
    <linearGradient
       inkscape:collect="always"
       xlink:href="#linearGradient860-3"
       id="linearGradient862"
       x1="113.94677"
       y1="255.36646"
       x2="406.08289"
       y2="255.36646"
       gradientUnits="userSpaceOnUse"
       gradientTransform="matrix(0.10135135,0,0,0.09220346,-10.351284,-8.1437594)" />
    <linearGradient
       inkscape:collect="always"
       id="linearGradient860-3">
      <stop
         style="stop-color:#78acd3;stop-opacity:1"
         offset="0"
         id="stop856-6" />
      <stop
         style="stop-color:#d98cbb;stop-opacity:1"
         offset="1"
         id="stop858-7" />
    </linearGradient>
    <linearGradient
       inkscape:collect="always"
       xlink:href="#linearGradient842-3"
       id="linearGradient844-5"
       x1="386.30627"
       y1="522.45404"
       x2="446.83023"
       y2="522.45404"
       gradientUnits="userSpaceOnUse"
       gradientTransform="matrix(0.49567132,0,0,0.49972085,-190.48093,-241.74831)" />
    <linearGradient
       inkscape:collect="always"
       id="linearGradient842-3">
      <stop
         style="stop-color:#326e9a;stop-opacity:1"
         offset="0"
         id="stop838-5" />
      <stop
         style="stop-color:#339993;stop-opacity:1"
         offset="1"
         id="stop840-6" />
    </linearGradient>
  </defs>
  <sodipodi:namedview
     pagecolor="#ffffff"
     bordercolor="#666666"
     borderopacity="1"
     objecttolerance="10"
     gridtolerance="10"
     guidetolerance="10"
     inkscape:pageopacity="0"
     inkscape:pageshadow="2"
     inkscape:window-width="1920"
     inkscape:window-height="1006"
     id="namedview25"
     showgrid="false"
     inkscape:zoom="9.8125"
     inkscape:cx="-11.312102"
     inkscape:cy="3.566879"
     inkscape:window-x="0"
     inkscape:window-y="0"
     inkscape:window-maximized="1"
     inkscape:current-layer="svg23"
     inkscape:document-rotation="0"
     inkscape:pagecheckerboard="0" />
  <linearGradient
     id="a"
     gradientUnits="userSpaceOnUse"
     x2="0"
     y1="29"
     y2="8">
    <stop
       offset="0"
       stop-color="#3daee9"
       id="stop2" />
    <stop
       offset="1"
       stop-color="#6cc1ef"
       id="stop4" />
  </linearGradient>
  <path
     style="fill:url(#linearGradient862);fill-opacity:1;stroke-width:0.089569"
     d="m 16.001578,6.5798286 c -0.44016,0 -0.961185,-0.258245 -1.15846,-0.57392 l -0.88505,-1.418595 c -0.19637,-0.315665 -0.717395,-0.573335 -1.1574,-0.57391 l -10.2005579,-0.0134 c -0.973,-0.0015 -1.3831001,0.46748 -1.3969251,1.502075 l -0.0059,0.43614 v 1.28321 18.2857874 c 0,0.352879 1.1603551,1.283209 1.6003551,1.283209 H 29.205211 c 0.44001,0 1.600355,-0.93033 1.600355,-1.283209 V 7.8630386 c 0,-0.96241 -0.40002,-1.283215 -1.600355,-1.283215 z"
     id="path4-3-2"
     sodipodi:nodetypes="sccsssccsssssss" />
  <path
     style="fill:#f2f2f2;fill-opacity:1;stroke-width:0.0882825"
     d="m 28.889031,13.429737 c 0,0.66274 -0.397885,1.204975 -1.308575,1.204975 H 4.482669 c -0.910694,0 -1.259259,-0.542235 -1.259259,-1.204975 V 9.8148136 c 0,-0.66274 0.348565,-1.20498 1.259259,-1.20498 h 23.048222 c 0.910685,0 1.35814,0.54224 1.35814,1.20498 z"
     id="path8-6-9"
     sodipodi:nodetypes="sssssssss" />
  <path
     style="fill:url(#linearGradient844-5);fill-opacity:1;stroke-width:0.09667"
     d="M 29.378296,10.665747 H 2.6217001 C 1.81079,10.665747 1,11.403377 1,12.141007 V 26.524745 C 1,27.50028 1.62711,28 2.6217001,28 H 29.378296 c 0.99775,0 1.6217,-0.49972 1.6217,-1.475255 V 12.141007 c 0,-0.73763 -0.810795,-1.47526 -1.6217,-1.47526 z"
     id="path10-1"
     sodipodi:nodetypes="sssssssss" />
  <path
     fill-rule="evenodd"
     clip-rule="evenodd"
     d="m 28.214603,26.499997 h -4.821749 c -0.177268,0 -0.321107,-0.144241 -0.321107,-0.321429 0,-0.17767 0.143839,-0.321589 0.321107,-0.321589 h 4.821749 c 0.355018,0 0.642857,-0.287839 0.642857,-0.642857 v -6.42857 c 0,-0.355018 -0.287839,-0.642697 -0.642857,-0.642697 h -6.428731 c -0.354938,0 -0.642938,0.287679 -0.642938,0.642697 v 6.107142 c 0,0.177669 -0.143758,0.321428 -0.321428,0.321428 -0.177348,0 -0.321509,-0.143759 -0.321509,-0.321428 v -6.107142 c 0,-0.710036 0.57592,-1.285554 1.285875,-1.285554 h 6.428731 c 0.709875,0 1.285393,0.575518 1.285393,1.285554 v 6.42857 c 0,0.710036 -0.575518,1.285875 -1.285393,1.285875 z m -6.107222,-0.643018 c 0.177267,0 0.321428,0.143919 0.321428,0.321589 0,0.177188 -0.144161,0.321429 -0.321428,0.321429 -0.17767,0 -0.321509,-0.144241 -0.321509,-0.321429 0,-0.17767 0.143839,-0.321589 0.321509,-0.321589 z"
     id="path2"
     style="fill:#f2f2f2;fill-opacity:1;stroke-width:0.0200892" />
  <g
     id="g14"
     transform="matrix(0.01312052,0,0,0.01312052,21.719647,18.825447)"
     style="fill:#f2f2f2;fill-opacity:1">
    <g
       id="g12"
       style="fill:#f2f2f2;fill-opacity:1">
      <g
         id="g10"
         style="fill:#f2f2f2;fill-opacity:1">
        <path
           d="M 467.206,106.862 H 189.511 c -14.808,0 -28.019,9.4 -32.873,23.391 L 98.972,296.466 59.398,256.892 c -13.566,-13.564 -35.64,-13.564 -49.207,0 C 3.62,263.465 0,272.202 0,281.496 c 0,9.295 3.62,18.033 10.191,24.604 l 78.846,78.846 c 6.574,6.572 15.312,10.192 24.604,10.192 2.609,0 5.227,-0.297 7.788,-0.885 11.754,-2.7 21.132,-11.114 25.084,-22.508 L 214.268,176.45 h 252.938 c 19.185,0 34.794,-15.608 34.794,-34.794 0,-19.186 -15.608,-34.794 -34.794,-34.794 z m 0,49.589 H 207.153 c -4.26,0 -8.052,2.699 -9.448,6.723 l -70.088,202.018 c -1.681,4.844 -5.668,8.422 -10.662,9.569 -1.092,0.25 -2.208,0.377 -3.315,0.377 -3.95,0 -7.666,-1.54 -10.461,-4.335 L 24.333,291.957 C 21.539,289.163 20,285.448 20,281.496 c 0,-3.952 1.539,-7.667 4.333,-10.461 2.885,-2.884 6.673,-4.326 10.462,-4.326 3.788,0 7.577,1.443 10.461,4.326 l 50.861,50.861 c 2.436,2.436 5.953,3.448 9.31,2.675 3.356,-0.771 6.08,-3.215 7.209,-6.469 l 62.897,-181.294 c 2.065,-5.949 7.682,-9.946 13.978,-9.946 h 277.695 c 8.157,0 14.794,6.637 14.794,14.795 0,8.157 -6.636,14.794 -14.794,14.794 z"
           id="path2-3-3"
           style="fill:#f2f2f2;fill-opacity:1" />
        <path
           d="m 442.99,229.926 c 0,-9.294 -3.619,-18.033 -10.191,-24.604 -6.572,-6.572 -15.31,-10.191 -24.604,-10.191 -9.293,0 -18.031,3.619 -24.603,10.191 l -40.605,40.605 -40.605,-40.605 c -6.572,-6.572 -15.31,-10.191 -24.604,-10.191 -9.294,0 -18.032,3.619 -24.603,10.191 -6.572,6.572 -10.191,15.31 -10.191,24.604 0,9.293 3.619,18.032 10.191,24.604 l 40.605,40.604 -40.606,40.605 c -6.572,6.573 -10.191,15.311 -10.191,24.604 0,9.294 3.619,18.033 10.191,24.604 6.573,6.572 15.31,10.191 24.604,10.191 9.294,0 18.032,-3.619 24.604,-10.191 l 40.605,-40.605 40.605,40.605 c 6.573,6.572 15.311,10.191 24.604,10.191 9.294,0 18.032,-3.619 24.603,-10.191 6.572,-6.572 10.191,-15.31 10.191,-24.604 0,-9.293 -3.619,-18.032 -10.191,-24.604 l -40.605,-40.605 40.605,-40.604 c 6.572,-6.573 10.191,-15.311 10.191,-24.604 z m -24.333,10.461 -47.677,47.676 c -1.875,1.876 -2.929,4.419 -2.929,7.071 0,2.652 1.054,5.195 2.929,7.071 l 47.676,47.677 c 2.794,2.794 4.333,6.51 4.333,10.461 0,3.952 -1.538,7.667 -4.333,10.462 -2.794,2.794 -6.509,4.333 -10.461,4.333 -3.951,0 -7.667,-1.539 -10.461,-4.334 l -47.676,-47.677 c -1.875,-1.875 -4.419,-2.929 -7.071,-2.929 -2.652,0 -5.195,1.054 -7.071,2.929 l -47.677,47.677 c -2.794,2.795 -6.51,4.334 -10.461,4.334 -3.951,0 -7.666,-1.539 -10.461,-4.334 -2.794,-2.794 -4.333,-6.509 -4.333,-10.461 0,-3.951 1.539,-7.667 4.333,-10.461 l 47.677,-47.677 c 1.875,-1.876 2.929,-4.419 2.929,-7.071 0,-2.652 -1.054,-5.195 -2.929,-7.071 l -47.676,-47.676 c -2.794,-2.794 -4.333,-6.51 -4.333,-10.461 0,-3.952 1.538,-7.667 4.333,-10.461 2.794,-2.795 6.51,-4.334 10.461,-4.334 3.951,0 7.666,1.539 10.461,4.334 l 47.677,47.676 c 3.905,3.904 10.237,3.904 14.142,0 l 47.676,-47.676 c 2.794,-2.795 6.51,-4.334 10.461,-4.334 3.951,0 7.666,1.539 10.461,4.334 2.794,2.794 4.333,6.509 4.333,10.461 0,3.951 -1.539,7.667 -4.333,10.461 z"
           id="path4"
           style="fill:#f2f2f2;fill-opacity:1" />
        <path
           d="m 465.223,131.657 h -60.498 c -5.523,0 -10,4.478 -10,10 0,5.522 4.477,10 10,10 h 60.498 c 5.523,0 10,-4.478 10,-10 0,-5.521 -4.477,-10 -10,-10 z"
           id="path6-6"
           style="fill:#f2f2f2;fill-opacity:1" />
        <path
           d="m 372.988,131.657 h -18.843 c -5.523,0 -10,4.478 -10,10 0,5.522 4.477,10 10,10 h 18.843 c 5.523,0 10,-4.478 10,-10 0,-5.521 -4.477,-10 -10,-10 z"
           id="path8"
           style="fill:#f2f2f2;fill-opacity:1" />
      </g>
    </g>
  </g>
</svg>
