<?xml version="1.0" encoding="UTF-8" standalone="no"?>
<svg
   width="32"
   version="1.1"
   height="32"
   viewBox="0 0 32 32"
   id="svg15"
   sodipodi:docname="folder-java.svg"
   inkscape:version="1.2 (dc2aedaf03, 2022-05-15)"
   xmlns:inkscape="http://www.inkscape.org/namespaces/inkscape"
   xmlns:sodipodi="http://sodipodi.sourceforge.net/DTD/sodipodi-0.dtd"
   xmlns:xlink="http://www.w3.org/1999/xlink"
   xmlns="http://www.w3.org/2000/svg"
   xmlns:svg="http://www.w3.org/2000/svg"
   xmlns:rdf="http://www.w3.org/1999/02/22-rdf-syntax-ns#"
   xmlns:cc="http://creativecommons.org/ns#"
   xmlns:dc="http://purl.org/dc/elements/1.1/">
  <sodipodi:namedview
     pagecolor="#ffffff"
     bordercolor="#666666"
     borderopacity="1"
     objecttolerance="10"
     gridtolerance="10"
     guidetolerance="10"
     inkscape:pageopacity="0"
     inkscape:pageshadow="2"
     inkscape:window-width="1920"
     inkscape:window-height="1002"
     id="namedview17"
     showgrid="false"
     inkscape:zoom="9.8125"
     inkscape:cx="-12.993631"
     inkscape:cy="6.5732484"
     inkscape:window-x="0"
     inkscape:window-y="0"
     inkscape:window-maximized="1"
     inkscape:current-layer="layer1"
     inkscape:document-rotation="0"
     inkscape:pagecheckerboard="0"
     inkscape:showpageshadow="2"
     inkscape:deskcolor="#d1d1d1" />
  <defs
     id="defs5455">
    <linearGradient
       inkscape:collect="always"
       xlink:href="#linearGradient860"
       id="linearGradient862"
       x1="113.94677"
       y1="255.36646"
       x2="406.08289"
       y2="255.36646"
       gradientUnits="userSpaceOnUse"
       gradientTransform="matrix(0.10135135,0,0,0.09220348,374.22015,507.65424)" />
    <linearGradient
       inkscape:collect="always"
       id="linearGradient860">
      <stop
         style="stop-color:#78acd3;stop-opacity:1"
         offset="0"
         id="stop856" />
      <stop
         style="stop-color:#ffa95c;stop-opacity:1;"
         offset="1"
         id="stop858" />
    </linearGradient>
  </defs>
  <metadata
     id="metadata5458">
    <rdf:RDF>
      <cc:Work
         rdf:about="">
        <dc:format>image/svg+xml</dc:format>
        <dc:type
           rdf:resource="http://purl.org/dc/dcmitype/StillImage" />
      </cc:Work>
    </rdf:RDF>
  </metadata>
  <g
     inkscape:label="Capa 1"
     inkscape:groupmode="layer"
     id="layer1"
     transform="translate(-384.57143,-515.798)">
    <path
       style="fill:url(#linearGradient862);fill-opacity:1;stroke-width:0.089569"
       d="m 400.57301,522.37783 c -0.44016,0 -0.96119,-0.25825 -1.15846,-0.57392 l -0.88505,-1.4186 c -0.19637,-0.31567 -0.71739,-0.57333 -1.1574,-0.57391 l -10.20055,-0.0134 c -0.97301,-10e-4 -1.38311,0.46748 -1.39693,1.50207 l -0.006,0.43614 v 1.28321 18.28579 c 0,0.35288 1.16035,1.28321 1.60036,1.28321 h 26.40756 c 0.44002,0 1.60036,-0.93033 1.60036,-1.28321 v -17.64418 c 0,-0.96241 -0.40002,-1.28321 -1.60036,-1.28321 z"
       id="path4-3"
       sodipodi:nodetypes="sccsssccsssssss" />
    <path
       style="fill:#f2f2f2;fill-opacity:1;stroke-width:0.0882824"
       d="m 413.46047,529.22774 c 0,0.66273 -0.3979,1.20497 -1.30858,1.20497 h -23.09778 c -0.9107,0 -1.25927,-0.54224 -1.25927,-1.20497 v -3.61493 c 0,-0.66274 0.34857,-1.20498 1.25927,-1.20498 h 23.04822 c 0.91068,0 1.35814,0.54224 1.35814,1.20498 z"
       id="path8-6"
       sodipodi:nodetypes="sssssssss" />
    <path
       style="fill:#ff8b23;fill-opacity:1;stroke-width:0.0966699"
       d="m 413.94973,526.46375 h -26.7566 c -0.81091,0 -1.6217,0.73763 -1.6217,1.47525 v 14.38375 c 0,0.97553 0.62711,1.47525 1.6217,1.47525 h 26.7566 c 0.99775,0 1.6217,-0.49972 1.6217,-1.47525 V 527.939 c 0,-0.73762 -0.81079,-1.47525 -1.6217,-1.47525 z"
       id="path10"
       sodipodi:nodetypes="sssssssss" />
    <path
       d="m 412.22319,542.298 h -8.92561 c -0.12296,0 -0.22315,-0.17458 -0.22315,-0.29753 0,-0.12292 0.10019,-0.29749 0.22315,-0.29749 h 8.92561 c 0.12296,0 0.22312,0.17457 0.22312,0.29749 0,0.12295 -0.10016,0.29753 -0.22312,0.29753 z"
       id="path2-3"
       style="color:#eff0f1;fill:currentColor;fill-opacity:1;stroke-width:0.022314"
       sodipodi:nodetypes="sssssss"
       class="ColorScheme-Text" />
    <path
       d="m 410.88501,540.66165 h -0.001 c -0.11781,0 -0.21552,-0.0922 -0.22248,-0.20997 -0.008,-0.12276 0.0866,-0.22851 0.20957,-0.2359 h 2e-4 c 10e-4,-2.2e-4 0.004,-4.2e-4 0.008,-5e-4 0.0105,-9.9e-4 0.0217,-0.002 0.034,-0.004 0.0286,-0.003 0.0759,-0.0101 0.13679,-0.022 0.10913,-0.0216 0.28051,-0.0645 0.47775,-0.14505 0.50699,-0.20753 0.92001,-0.54624 1.22704,-1.00657 0.34186,-0.5081 0.36308,-0.75714 0.36149,-0.8214 -5e-4,-0.0589 -0.0122,-0.087 -0.0239,-0.1069 -0.0144,-0.0233 -0.0335,-0.0405 -0.0643,-0.058 -0.0663,-0.0388 -0.19393,-0.0629 -0.33361,-0.0629 -0.003,0 -0.007,0 -0.01,0 h -0.005 c -0.27446,0 -0.59355,0.0787 -0.64486,0.0941 -0.002,5e-4 -0.002,5e-4 -0.002,5e-4 -0.0199,0.006 -0.0407,0.009 -0.0614,0.009 -0.0991,0 -0.18721,-0.0665 -0.21444,-0.16179 -0.0167,-0.0573 -0.01,-0.1176 0.0192,-0.16981 0.0288,-0.0521 0.0765,-0.0897 0.13387,-0.10622 5e-4,0 0.003,-10e-4 0.008,-0.002 0.12114,-0.0329 0.43825,-0.1089 0.76647,-0.11001 0.16714,4.5e-4 0.30172,0.0192 0.42375,0.0596 0.11384,0.0373 0.26979,0.11602 0.36686,0.27803 0.0576,0.0953 0.0879,0.21175 0.0875,0.3365 -0.003,0.28762 -0.13792,0.61717 -0.43648,1.06882 -0.19615,0.29453 -0.43488,0.55027 -0.70936,0.76025 -0.22023,0.16846 -0.46255,0.30705 -0.72029,0.41215 -0.4166,0.16978 -0.73727,0.19947 -0.79727,0.20371 h -0.001 c -0.004,1.9e-4 -0.009,4.5e-4 -0.0126,4.5e-4 z"
       id="path6-6"
       style="color:#eff0f1;fill:currentColor;fill-opacity:1;stroke-width:0.022314"
       class="ColorScheme-Text" />
    <path
       d="m 412.00004,537.09141 h -4.68592 c -0.12299,0 -0.22314,-0.1002 -0.22314,-0.22315 0,-0.12295 0.10015,-0.22315 0.22314,-0.22315 h 4.27686 v -0.66943 h -7.66119 v 0.66943 h 1.15289 c 0.12296,0 0.22315,0.1002 0.22315,0.22315 0,0.12295 -0.10019,0.22315 -0.22315,0.22315 h -1.56196 c -0.0587,0 -0.11626,-0.0239 -0.15776,-0.0654 -0.0416,-0.0416 -0.0654,-0.0991 -0.0654,-0.15773 v -1.11571 c 0,-0.0587 0.0239,-0.30212 0.0654,-0.34365 0.0416,-0.0416 0.0991,-0.0654 0.15776,-0.0654 h 8.47932 c 0.0587,0 0.11628,0.024 0.15775,0.0654 0.0416,0.0416 0.0654,0.28495 0.0654,0.34365 v 1.11571 c 0,0.0587 -0.0239,0.11623 -0.0654,0.15773 -0.0415,0.0416 -0.099,0.0654 -0.15775,0.0654 z m -5.80165,0 c -0.1232,0 -0.22315,-0.1002 -0.22315,-0.22315 0,-0.12295 0.1,-0.22315 0.22315,-0.22315 0.12296,0 0.22314,0.1002 0.22314,0.22315 0,0.12295 -0.10019,0.22315 -0.22314,0.22315 z"
       id="path10-7"
       style="color:#eff0f1;fill:currentColor;fill-opacity:1;stroke-width:0.022314"
       sodipodi:nodetypes="ssssccccsssssssssscsscssssss"
       class="ColorScheme-Text" />
    <path
       d="m 407.31412,535.97566 c -0.12299,0 -0.22314,-0.10015 -0.22314,-0.22311 v -0.4463 c 0,-0.1787 0.0696,-0.34696 0.19614,-0.47325 0.12627,-0.12634 0.29432,-0.19615 0.47327,-0.19615 h 2.67769 c 0.1227,-2.4e-4 0.22292,-0.10043 0.22315,-0.22315 -2.3e-4,-0.12272 -0.10046,-0.22292 -0.22315,-0.22311 h -4.23969 c -0.17875,0 -0.34696,-0.0697 -0.4733,-0.19615 -0.12649,-0.12634 -0.19611,-0.29432 -0.19611,-0.4733 0,-0.12295 0.10019,-0.22314 0.22311,-0.22314 0.12299,0 0.22315,0.10019 0.22315,0.22314 2.3e-4,0.12273 0.10043,0.22292 0.22315,0.22315 h 4.23969 c 0.17894,0 0.34696,0.0696 0.47327,0.19615 0.12651,0.12626 0.19614,0.29452 0.19614,0.47326 0,0.17898 -0.0696,0.34696 -0.19614,0.4733 -0.12631,0.12649 -0.29433,0.1961 -0.47327,0.1961 h -2.67769 c -0.12276,2.4e-4 -0.22292,0.10043 -0.22316,0.22315 v 0.4463 c 0,0.12296 -0.10019,0.22311 -0.22311,0.22311 z"
       id="path14-5"
       style="color:#eff0f1;fill:currentColor;fill-opacity:1;stroke-width:0.022314"
       class="ColorScheme-Text" />
    <path
       d="m 408.44722,542.22361 h -1.35605 c -0.0163,0 -0.0288,-9.9e-4 -0.0449,-0.004 -0.50675,-0.10397 -0.99317,-0.3144 -1.44569,-0.62522 -0.43895,-0.3017 -0.78764,-0.62233 -1.12436,-1.08283 -0.0994,-0.14699 -0.0248,-0.32322 0.0802,-0.40765 0.0382,-0.028 0.11923,-0.0646 0.20345,-0.0878 0.085,-0.0235 0.21276,0.0344 0.25475,0.0915 0.61631,0.8428 1.21788,1.29791 2.09952,1.48424 h 1.31002 c 0.88096,-0.18652 1.51804,-0.5694 2.13102,-1.41531 0.62345,-0.85997 0.98957,-1.9556 1.0313,-3.08469 h -7.65673 c 0.0148,0.39004 0.0722,0.7781 0.16254,1.15339 0.004,0.0175 0.006,0.0353 0.006,0.0531 -0.0347,0.11853 -0.14282,0.1826 -0.2432,0.2067 -0.0173,0.004 -0.0741,0.0157 -0.0915,0.0157 -0.10354,0 -0.26709,-0.0703 -0.29141,-0.17092 -0.10038,-0.41749 -0.15796,-0.84886 -0.17157,-1.28196 -0.002,-0.0756 -0.003,-0.13901 -0.003,-0.19903 0,-0.0587 0.024,-0.11626 0.0654,-0.15776 0.0416,-0.0416 0.0991,-0.0654 0.15773,-0.0654 h 8.47933 c 0.0587,0 0.11629,0.0239 0.15777,0.0654 0.0416,0.0416 0.0654,0.0991 0.0654,0.15777 0,0.0605 -10e-4,0.12384 -0.003,0.19903 -0.0192,0.62613 -0.12876,1.23931 -0.3251,1.82194 -0.19034,0.56456 -0.45679,1.08557 -0.79216,1.5488 -0.33516,0.46258 -0.72724,0.85063 -1.16525,1.15341 -0.45186,0.3124 -0.9381,0.5235 -1.44527,0.6277 -0.0159,0.003 -0.0286,0.004 -0.0448,0.004 z m -4.39613,-2.6498 c -0.0874,0 -0.16709,-0.0514 -0.20326,-0.13073 v -2.3e-4 c -0.025,-0.0542 -0.0268,-0.11491 -0.006,-0.17051 0.021,-0.0558 0.0623,-0.10015 0.11669,-0.12496 0.0292,-0.013 0.0602,-0.0196 0.0922,-0.0196 0.0872,0 0.16712,0.0514 0.20326,0.13076 v 2.3e-4 c 0.051,0.112 10e-4,0.2443 -0.11089,0.29519 -0.029,0.0134 -0.0602,0.0199 -0.0922,0.0199 z"
       id="path22-3"
       style="color:#eff0f1;fill:currentColor;fill-opacity:1;stroke-width:0.022314"
       sodipodi:nodetypes="ssccccscccccccccsccsssscscccccssccccscccs"
       class="ColorScheme-Text" />
    <path
       d="m 411.44221,538.2071 h -4.9091 c -0.12296,0 -0.22315,-0.10022 -0.22315,-0.22313 0,-0.12297 0.10019,-0.22316 0.22315,-0.22316 h 4.9091 c 0.12292,0 0.22311,0.10019 0.22311,0.22316 0,0.12292 -0.10019,0.22313 -0.22311,0.22313 z"
       id="path26-5"
       style="color:#eff0f1;fill:currentColor;fill-opacity:1;stroke-width:0.022314"
       class="ColorScheme-Text" />
  </g>
</svg>
