<?xml version="1.0" encoding="UTF-8" standalone="no"?>
<svg
   width="32"
   version="1.1"
   height="32"
   viewBox="0 0 32 32"
   id="svg17"
   sodipodi:docname="network-workgroup.svg"
   inkscape:version="1.1.1 (3bf5ae0d25, 2021-09-20)"
   xmlns:inkscape="http://www.inkscape.org/namespaces/inkscape"
   xmlns:sodipodi="http://sodipodi.sourceforge.net/DTD/sodipodi-0.dtd"
   xmlns:xlink="http://www.w3.org/1999/xlink"
   xmlns="http://www.w3.org/2000/svg"
   xmlns:svg="http://www.w3.org/2000/svg"
   xmlns:rdf="http://www.w3.org/1999/02/22-rdf-syntax-ns#"
   xmlns:cc="http://creativecommons.org/ns#"
   xmlns:dc="http://purl.org/dc/elements/1.1/">
  <sodipodi:namedview
     pagecolor="#ffffff"
     bordercolor="#666666"
     borderopacity="1"
     objecttolerance="10"
     gridtolerance="10"
     guidetolerance="10"
     inkscape:pageopacity="0"
     inkscape:pageshadow="2"
     inkscape:window-width="1920"
     inkscape:window-height="1006"
     id="namedview19"
     showgrid="false"
     inkscape:zoom="9.8125"
     inkscape:cx="-12.738854"
     inkscape:cy="2.0382166"
     inkscape:window-x="0"
     inkscape:window-y="0"
     inkscape:window-maximized="1"
     inkscape:current-layer="layer1"
     inkscape:document-rotation="0"
     inkscape:pagecheckerboard="0" />
  <defs
     id="defs5455">
    <linearGradient
       inkscape:collect="always"
       xlink:href="#linearGradient860-6"
       id="linearGradient862"
       x1="113.94677"
       y1="255.36646"
       x2="406.08289"
       y2="255.36646"
       gradientUnits="userSpaceOnUse"
       gradientTransform="matrix(0.10135135,0,0,0.09220346,374.22014,507.65424)" />
    <linearGradient
       inkscape:collect="always"
       id="linearGradient860-6">
      <stop
         style="stop-color:#78acd3;stop-opacity:1"
         offset="0"
         id="stop856-7" />
      <stop
         style="stop-color:#d98cbb;stop-opacity:1"
         offset="1"
         id="stop858-5" />
    </linearGradient>
    <linearGradient
       inkscape:collect="always"
       xlink:href="#linearGradient842-5"
       id="linearGradient844-3"
       x1="386.30627"
       y1="522.45404"
       x2="446.83023"
       y2="522.45404"
       gradientUnits="userSpaceOnUse"
       gradientTransform="matrix(0.49567132,0,0,0.49972085,194.0905,274.04966)" />
    <linearGradient
       inkscape:collect="always"
       id="linearGradient842-5">
      <stop
         style="stop-color:#326e9a;stop-opacity:1"
         offset="0"
         id="stop838-6" />
      <stop
         style="stop-color:#339993;stop-opacity:1"
         offset="1"
         id="stop840-2" />
    </linearGradient>
  </defs>
  <metadata
     id="metadata5458">
    <rdf:RDF>
      <cc:Work
         rdf:about="">
        <dc:format>image/svg+xml</dc:format>
        <dc:type
           rdf:resource="http://purl.org/dc/dcmitype/StillImage" />
      </cc:Work>
    </rdf:RDF>
  </metadata>
  <g
     inkscape:label="Capa 1"
     inkscape:groupmode="layer"
     id="layer1"
     transform="translate(-384.57143,-515.798)">
    <path
       style="fill:url(#linearGradient862);fill-opacity:1;stroke-width:0.089569"
       d="m 400.57301,522.37782 c -0.44016,0 -0.96119,-0.25824 -1.15846,-0.57392 l -0.88505,-1.41859 c -0.19637,-0.31567 -0.7174,-0.57334 -1.1574,-0.57391 l -10.20056,-0.0134 c -0.973,-10e-4 -1.3831,0.46748 -1.39693,1.50207 l -0.006,0.43614 v 1.28321 18.28579 c 0,0.35288 1.16036,1.28321 1.60036,1.28321 h 26.40757 c 0.44001,0 1.60036,-0.93033 1.60036,-1.28321 v -17.64418 c 0,-0.96241 -0.40002,-1.28321 -1.60036,-1.28321 z"
       id="path4-3-9"
       sodipodi:nodetypes="sccsssccsssssss" />
    <path
       style="fill:#f2f2f2;fill-opacity:1;stroke-width:0.0882825"
       d="m 413.46046,529.22773 c 0,0.66274 -0.39788,1.20497 -1.30857,1.20497 H 389.0541 c -0.9107,0 -1.25926,-0.54223 -1.25926,-1.20497 v -3.61492 c 0,-0.66274 0.34856,-1.20498 1.25926,-1.20498 h 23.04822 c 0.91069,0 1.35814,0.54224 1.35814,1.20498 z"
       id="path8-6-1"
       sodipodi:nodetypes="sssssssss" />
    <path
       style="fill:url(#linearGradient844-3);fill-opacity:1;stroke-width:0.09667"
       d="m 413.94973,526.46374 h -26.7566 c -0.81091,0 -1.6217,0.73763 -1.6217,1.47526 v 14.38374 c 0,0.97553 0.62711,1.47525 1.6217,1.47525 h 26.7566 c 0.99775,0 1.6217,-0.49972 1.6217,-1.47525 V 527.939 c 0,-0.73763 -0.8108,-1.47526 -1.6217,-1.47526 z"
       id="path10-2"
       sodipodi:nodetypes="sssssssss" />
    <path
       fill-rule="evenodd"
       clip-rule="evenodd"
       d="m 408.78565,540.61087 c 0,0.15547 -0.12579,0.28125 -0.28125,0.28125 -0.15518,0 -0.28132,-0.12578 -0.28132,-0.28125 0,-0.15546 0.12614,-0.28125 0.28132,-0.28125 0.15546,0 0.28125,0.12579 0.28125,0.28125 z m -1.12515,0 c 0,0.15547 -0.12578,0.28125 -0.28097,0.28125 -0.15546,0 -0.28125,-0.12578 -0.28125,-0.28125 0,-0.15546 0.12579,-0.28125 0.28125,-0.28125 0.15519,0 0.28098,0.12579 0.28097,0.28125 z m 1.12515,-5.62503 c 0,0.15546 -0.12579,0.28125 -0.28125,0.28125 -0.15518,0 -0.28132,-0.12579 -0.28132,-0.28125 0,-0.1552 0.12614,-0.28132 0.28132,-0.28132 0.15546,0 0.28125,0.12612 0.28125,0.28132 z m -1.12515,0 c 0,0.15546 -0.12578,0.28125 -0.28097,0.28125 -0.15546,0 -0.28125,-0.12579 -0.28125,-0.28125 0,-0.1552 0.12579,-0.28132 0.28125,-0.28132 0.15519,0 0.28098,0.12612 0.28097,0.28132 z m -0.56222,2.81252 c 0,-0.15547 0.12579,-0.28132 0.28125,-0.28132 0.15519,0 0.28098,0.12585 0.28098,0.28132 0,0.15546 -0.12579,0.28125 -0.28098,0.28125 -0.15546,0 -0.28125,-0.12579 -0.28125,-0.28125 z m 1.12479,0 c 0,-0.15547 0.12615,-0.28132 0.28133,-0.28132 0.15546,0 0.28125,0.12585 0.28125,0.28132 0,0.15546 -0.12579,0.28125 -0.28125,0.28125 -0.15518,0 -0.28133,-0.12579 -0.28133,-0.28125 z m 4.49993,4.50003 h -5.62472 c -0.62156,0 -1.12513,-0.50372 -1.12513,-1.125 v -0.84377 c 0,-0.15518 0.12579,-0.28125 0.28125,-0.28125 0.15546,0 0.28132,0.12607 0.28132,0.28125 v 0.84377 c 0,0.31064 0.25165,0.56264 0.56256,0.56264 h 5.62472 c 0.31093,0 0.5625,-0.252 0.5625,-0.56264 v -1.12502 c 0,-0.31064 -0.25157,-0.56264 -0.5625,-0.56264 h -1.12485 -4.49987 c -0.28571,0 -0.54553,-0.10726 -0.7439,-0.28248 -0.0281,-0.0247 -0.0549,-0.0511 -0.0804,-0.0785 -10e-4,-10e-4 -0.002,-0.003 -0.004,-0.004 -0.0243,-0.0263 -0.0473,-0.0538 -0.0691,-0.0827 -0.002,-0.003 -0.005,-0.007 -0.008,-0.0107 -0.0192,-0.0258 -0.0369,-0.0529 -0.0539,-0.0804 -0.005,-0.007 -0.009,-0.0144 -0.0132,-0.0218 -0.0142,-0.0242 -0.0275,-0.0491 -0.0398,-0.0743 -0.005,-0.01 -0.01,-0.0199 -0.0142,-0.0301 -0.0119,-0.0258 -0.0224,-0.0526 -0.0322,-0.0796 -0.003,-0.009 -0.007,-0.018 -0.0101,-0.0275 -0.009,-0.028 -0.017,-0.0571 -0.024,-0.0857 -0.002,-0.01 -0.005,-0.0184 -0.007,-0.0281 -0.007,-0.0328 -0.0126,-0.0662 -0.0167,-0.10025 -0.001,-0.005 -0.002,-0.0109 -0.002,-0.0161 -0.005,-0.0404 -0.007,-0.0814 -0.007,-0.12278 v -1.12507 c 0,-0.0417 0.002,-0.0826 0.007,-0.123 2.8e-4,-0.004 10e-4,-0.008 0.002,-0.012 0.004,-0.0349 0.01,-0.07 0.017,-0.10403 0.002,-0.01 0.005,-0.0186 0.007,-0.0281 0.007,-0.0287 0.0148,-0.0577 0.024,-0.0858 0.003,-0.009 0.007,-0.0177 0.0101,-0.0267 0.0101,-0.0279 0.0205,-0.0556 0.0328,-0.082 0.004,-0.009 0.008,-0.0168 0.0123,-0.0253 0.0126,-0.0265 0.0262,-0.0527 0.041,-0.0779 0.004,-0.007 0.009,-0.0139 0.0129,-0.0212 0.0177,-0.0287 0.0359,-0.0568 0.0561,-0.0836 0.002,-0.002 0.002,-0.002 0.004,-0.005 0.0464,-0.0615 0.099,-0.11859 0.15669,-0.16934 0.19804,-0.1744 0.45758,-0.28125 0.74233,-0.28125 h 5.62472 c 0.31092,0 0.5625,-0.252 0.5625,-0.56263 v -1.12511 c 0,-0.31057 -0.25158,-0.56224 -0.5625,-0.56224 h -5.62469 c -0.31092,0 -0.56257,0.25167 -0.56257,0.56224 v 0.84389 c 0,0.15546 -0.12586,0.28125 -0.28132,0.28125 -0.15546,0 -0.28125,-0.12579 -0.28125,-0.28125 v -0.84389 c 0,-0.62123 0.50358,-1.12481 1.12514,-1.12481 h 5.62472 c 0.62156,0 1.12514,0.50358 1.12514,1.12481 v 1.12514 c 0,0.62128 -0.50358,1.12488 -1.12514,1.12488 h -0.15202 -5.4727 c -0.31092,0 -0.56257,0.25192 -0.56257,0.56257 v 1.12507 c 0,0.31064 0.25165,0.56264 0.56257,0.56264 h 5.4727 0.15202 c 0.62155,0 1.12514,0.50359 1.12514,1.12487 v 1.12502 c 0,0.62128 -0.50358,1.125 -1.12514,1.125 z m 0.8439,-3.93753 c -0.15518,0 -0.2814,-0.12607 -0.2814,-0.28125 v -0.56257 c 0,-0.15511 0.12622,-0.28125 0.2814,-0.28125 0.15546,0 0.28125,0.12614 0.28125,0.28125 v 0.56257 c 0,0.15518 -0.12579,0.28125 -0.28125,0.28125 z"
       id="path2-3-9"
       style="fill:#ececec;fill-opacity:1;stroke-width:0.0175781" />
  </g>
</svg>
