<?xml version="1.0" encoding="UTF-8" standalone="no"?>
<svg
   version="1.1"
   viewBox="0 0 32 32"
   id="svg69"
   sodipodi:docname="user-trash.svg"
   inkscape:version="1.1.1 (3bf5ae0d25, 2021-09-20)"
   xmlns:inkscape="http://www.inkscape.org/namespaces/inkscape"
   xmlns:sodipodi="http://sodipodi.sourceforge.net/DTD/sodipodi-0.dtd"
   xmlns:xlink="http://www.w3.org/1999/xlink"
   xmlns="http://www.w3.org/2000/svg"
   xmlns:svg="http://www.w3.org/2000/svg"
   xmlns:rdf="http://www.w3.org/1999/02/22-rdf-syntax-ns#"
   xmlns:cc="http://creativecommons.org/ns#"
   xmlns:dc="http://purl.org/dc/elements/1.1/">
  <metadata
     id="metadata73">
    <rdf:RDF>
      <cc:Work
         rdf:about="">
        <dc:format>image/svg+xml</dc:format>
        <dc:type
           rdf:resource="http://purl.org/dc/dcmitype/StillImage" />
      </cc:Work>
    </rdf:RDF>
  </metadata>
  <sodipodi:namedview
     pagecolor="#ffffff"
     bordercolor="#666666"
     borderopacity="1"
     objecttolerance="10"
     gridtolerance="10"
     guidetolerance="10"
     inkscape:pageopacity="0"
     inkscape:pageshadow="2"
     inkscape:window-width="1920"
     inkscape:window-height="1006"
     id="namedview71"
     showgrid="true"
     inkscape:zoom="9.8125003"
     inkscape:cx="1.0191082"
     inkscape:cy="6.8280253"
     inkscape:window-x="0"
     inkscape:window-y="0"
     inkscape:window-maximized="1"
     inkscape:current-layer="svg69"
     inkscape:document-rotation="0"
     inkscape:pagecheckerboard="0">
    <inkscape:grid
       type="xygrid"
       id="grid1004" />
  </sodipodi:namedview>
  <defs
     id="defs12">
    <radialGradient
       id="d"
       cx="20.571428"
       cy="8.5"
       r="4"
       gradientTransform="matrix(3.7417788,-6.8149882e-8,2.7200184e-8,1.5,-60.947427,-4.7499983)"
       gradientUnits="userSpaceOnUse">
      <stop
         stop-color="#4f575f"
         stop-opacity=".25098041"
         offset="0"
         id="stop2" />
      <stop
         stop-color="#8a939a"
         offset="1"
         id="stop4" />
    </radialGradient>
    <linearGradient
       id="l"
       x1="390.57101"
       x2="410.57101"
       y1="521.79797"
       y2="545.79797"
       gradientTransform="matrix(1 0 0 .91666666 -384.571 -471.31484)"
       gradientUnits="userSpaceOnUse">
      <stop
         stop-color="#bdc3c7"
         offset="0"
         id="stop7" />
      <stop
         stop-color="#8a9696"
         offset="1"
         id="stop9" />
    </linearGradient>
    <linearGradient
       inkscape:collect="always"
       xlink:href="#linearGradient953"
       id="linearGradient1402"
       x1="6"
       y1="32"
       x2="57.898335"
       y2="32"
       gradientUnits="userSpaceOnUse"
       gradientTransform="scale(0.5)" />
    <linearGradient
       inkscape:collect="always"
       id="linearGradient953">
      <stop
         style="stop-color:#00dbdb;stop-opacity:1"
         offset="0"
         id="stop949" />
      <stop
         style="stop-color:#339993;stop-opacity:1"
         offset="1"
         id="stop951" />
    </linearGradient>
    <linearGradient
       inkscape:collect="always"
       xlink:href="#linearGradient953"
       id="linearGradient2600"
       gradientUnits="userSpaceOnUse"
       x1="12.000006"
       y1="20.578442"
       x2="29.156878"
       y2="20.578442"
       gradientTransform="matrix(0.05836342,0,0,0.05836342,23.673115,13.937643)" />
  </defs>
  <linearGradient
     id="a">
    <stop
       stop-color="#4f575f"
       stop-opacity=".4"
       offset="0"
       id="stop14" />
    <stop
       stop-color="#4f575f"
       stop-opacity=".6"
       offset=".5"
       id="stop16" />
    <stop
       stop-color="#4f575f"
       stop-opacity=".4"
       offset="1"
       id="stop18" />
  </linearGradient>
  <radialGradient
     id="t"
     cx="16"
     cy="8.5"
     r="4"
     gradientTransform="matrix(1.75,0,0,1.5,-12,-6.75)"
     gradientUnits="userSpaceOnUse">
    <stop
       stop-color="#4f575f"
       stop-opacity=".25"
       offset="0"
       id="stop21" />
    <stop
       stop-color="#9da5ab"
       offset="1"
       id="stop23" />
  </radialGradient>
  <linearGradient
     id="s"
     x1="412.571"
     x2="412.571"
     y1="522.798"
     y2="520.798"
     gradientTransform="translate(-384.571,-514.798)"
     gradientUnits="userSpaceOnUse">
    <stop
       stop-color="#9da5ab"
       offset="0"
       id="stop26" />
    <stop
       stop-color="#bdc3c7"
       offset="1"
       id="stop28" />
  </linearGradient>
  <linearGradient
     id="r"
     x1="395.571"
     x2="395.571"
     y1="520.798"
     y2="516.798"
     gradientTransform="translate(-384.571,-514.798)"
     gradientUnits="userSpaceOnUse">
    <stop
       stop-color="#afb0b3"
       offset="0"
       id="stop31" />
    <stop
       stop-color="#bdc3c7"
       offset="1"
       id="stop33" />
  </linearGradient>
  <linearGradient
     id="q"
     x1="390.57101"
     x2="406.57101"
     y1="521.79797"
     y2="537.79797"
     gradientTransform="matrix(1 0 0 .95454545 -384.571 -490.07991)"
     gradientUnits="userSpaceOnUse">
    <stop
       stop-color="#292c2f"
       offset="0"
       id="stop36" />
    <stop
       stop-opacity="0"
       offset="1"
       id="stop38" />
  </linearGradient>
  <linearGradient
     id="p"
     x1="391.571"
     x2="394.571"
     y1="534.798"
     y2="534.798"
     gradientTransform="matrix(.66667 0 0 .9 -249.047 -463.31817)"
     gradientUnits="userSpaceOnUse"
     xlink:href="#a" />
  <linearGradient
     id="o"
     x1="391.571"
     x2="394.571"
     y1="534.798"
     y2="534.798"
     gradientTransform="matrix(.66667 0 0 .89999994 -254.048 -463.31813)"
     gradientUnits="userSpaceOnUse"
     xlink:href="#a" />
  <linearGradient
     id="n"
     x1="391.571"
     x2="394.571"
     y1="534.798"
     y2="534.798"
     gradientTransform="matrix(.66667 0 0 .9 -243.048 -463.31817)"
     gradientUnits="userSpaceOnUse"
     xlink:href="#a" />
  <linearGradient
     id="m"
     x1="391.571"
     x2="394.571"
     y1="534.798"
     y2="534.798"
     gradientTransform="matrix(.66667 0 0 .9 -238.047 -463.31817)"
     gradientUnits="userSpaceOnUse"
     xlink:href="#a" />
  <path
     d="m 24.894589,15.999899 z m 0.810976,-4.87495 H 25.268745 22.056375 21.65053 9.89259 c -1.119777,0 -2.027086,0.90929 -2.027086,2.03125 v 0.405844 3.250558 8.5312 c 0,1.12191 0.907309,2.031199 2.027086,2.031199 h 12.163784 c 1.119781,0 2.02729,-0.909289 2.02729,-2.031199 v -6.9062 c 0,-0.449109 0.36273,-0.8125 0.810925,-0.8125 0.448196,0 0.810975,0.363391 0.810975,0.8125 V 25.75 c 0,1.794812 -1.452445,3.25 -3.2437,3.25 H 9.487558 C 7.696047,29 6.243297,27.544812 6.243297,25.75 V 16.812601 13.562043 12.750355 C 6.243297,10.955187 7.696047,9.5 9.487558,9.5 h 0.810114 12.164192 3.2437 c 0.895681,0 1.621445,-0.727594 1.621445,-1.625407 0,-0.897 -0.725764,-1.624593 -1.621445,-1.624593 H 19.62365 c -0.895731,0 -1.131255,-1.625 -2.027341,-1.625 H 14.35286 c -0.896087,0 -1.131864,1.625 -2.027087,1.625 H 6.243297 C 5.348074,6.25 4.621242,6.977594 4.621242,7.874593 4.621242,8.323297 4.258359,8.6875 3.811129,8.6875 3.362883,8.6875 3,8.323297 3,7.874593 3,6.080188 4.451735,4.625 6.243297,4.625 h 4.460421 C 11.598992,4.625 11.835582,3 12.730804,3 h 6.487305 c 0.89573,0 1.132065,1.625 2.027341,1.625 h 4.460065 c 1.791664,0 3.243654,1.455188 3.243654,3.249543 5e-5,1.795218 -1.45194,3.250406 -3.243604,3.250406 z"
     id="path2-3"
     style="fill:url(#linearGradient1402);fill-opacity:1;stroke-width:0.050781"
     sodipodi:nodetypes="cccccccscccscccsccccccccscccssccsssssssssssccssccss" />
  <circle
     cx="24.891001"
     cy="15.1555"
     r="0.75099999"
     id="circle4-5"
     style="fill:url(#linearGradient2600);fill-opacity:1;stroke-width:0.0500665" />
</svg>
