<?xml version="1.0" encoding="UTF-8" standalone="no"?>
<svg
   width="32"
   version="1.1"
   height="32"
   viewBox="0 0 32 32"
   id="svg17"
   sodipodi:docname="certificate-server.svg"
   inkscape:version="1.1.1 (3bf5ae0d25, 2021-09-20)"
   xmlns:inkscape="http://www.inkscape.org/namespaces/inkscape"
   xmlns:sodipodi="http://sodipodi.sourceforge.net/DTD/sodipodi-0.dtd"
   xmlns:xlink="http://www.w3.org/1999/xlink"
   xmlns="http://www.w3.org/2000/svg"
   xmlns:svg="http://www.w3.org/2000/svg"
   xmlns:rdf="http://www.w3.org/1999/02/22-rdf-syntax-ns#"
   xmlns:cc="http://creativecommons.org/ns#"
   xmlns:dc="http://purl.org/dc/elements/1.1/">
  <sodipodi:namedview
     pagecolor="#ffffff"
     bordercolor="#666666"
     borderopacity="1"
     objecttolerance="10"
     gridtolerance="10"
     guidetolerance="10"
     inkscape:pageopacity="0"
     inkscape:pageshadow="2"
     inkscape:window-width="1920"
     inkscape:window-height="1006"
     id="namedview19"
     showgrid="true"
     inkscape:zoom="13.876971"
     inkscape:cx="4.395772"
     inkscape:cy="19.817005"
     inkscape:window-x="0"
     inkscape:window-y="0"
     inkscape:window-maximized="1"
     inkscape:current-layer="layer1"
     inkscape:document-rotation="0"
     inkscape:pagecheckerboard="0">
    <inkscape:grid
       type="xygrid"
       id="grid908" />
  </sodipodi:namedview>
  <defs
     id="defs5455">
    <linearGradient
       inkscape:collect="always"
       xlink:href="#linearGradient860-3"
       id="linearGradient862"
       x1="113.94677"
       y1="255.36646"
       x2="406.08289"
       y2="255.36646"
       gradientUnits="userSpaceOnUse"
       gradientTransform="matrix(0.10135135,0,0,0.09220346,374.22015,507.65424)" />
    <linearGradient
       inkscape:collect="always"
       id="linearGradient860-3">
      <stop
         style="stop-color:#78acd3;stop-opacity:1"
         offset="0"
         id="stop856-6" />
      <stop
         style="stop-color:#d98cbb;stop-opacity:1"
         offset="1"
         id="stop858-7" />
    </linearGradient>
    <linearGradient
       inkscape:collect="always"
       xlink:href="#linearGradient842-3"
       id="linearGradient844-5"
       x1="386.30627"
       y1="522.45404"
       x2="446.83023"
       y2="522.45404"
       gradientUnits="userSpaceOnUse"
       gradientTransform="matrix(0.49567132,0,0,0.49972085,194.0905,274.04965)" />
    <linearGradient
       inkscape:collect="always"
       id="linearGradient842-3">
      <stop
         style="stop-color:#326e9a;stop-opacity:1"
         offset="0"
         id="stop838-5" />
      <stop
         style="stop-color:#339993;stop-opacity:1"
         offset="1"
         id="stop840-6" />
    </linearGradient>
  </defs>
  <metadata
     id="metadata5458">
    <rdf:RDF>
      <cc:Work
         rdf:about="">
        <dc:format>image/svg+xml</dc:format>
        <dc:type
           rdf:resource="http://purl.org/dc/dcmitype/StillImage" />
      </cc:Work>
    </rdf:RDF>
  </metadata>
  <g
     inkscape:label="Capa 1"
     inkscape:groupmode="layer"
     id="layer1"
     transform="translate(-384.57143,-515.798)">
    <path
       style="fill:url(#linearGradient862);fill-opacity:1;stroke-width:0.089569"
       d="m 400.57301,522.37783 c -0.44016,0 -0.96119,-0.25824 -1.15846,-0.57392 l -0.88505,-1.41859 c -0.19637,-0.31567 -0.7174,-0.57334 -1.1574,-0.57391 l -10.20056,-0.0134 c -0.973,-0.002 -1.3831,0.46748 -1.39693,1.50207 l -0.006,0.43614 v 1.28321 18.28579 c 0,0.35288 1.16036,1.28321 1.60036,1.28321 h 26.40757 c 0.44001,0 1.60036,-0.93033 1.60036,-1.28321 v -17.64418 c 0,-0.96241 -0.40002,-1.28321 -1.60036,-1.28321 z"
       id="path4-3-2"
       sodipodi:nodetypes="sccsssccsssssss" />
    <path
       style="fill:#f2f2f2;fill-opacity:1;stroke-width:0.0882825"
       d="m 413.46046,529.22774 c 0,0.66274 -0.39788,1.20497 -1.30857,1.20497 H 389.0541 c -0.9107,0 -1.25926,-0.54223 -1.25926,-1.20497 v -3.61492 c 0,-0.66274 0.34856,-1.20498 1.25926,-1.20498 h 23.04822 c 0.91069,0 1.35814,0.54224 1.35814,1.20498 z"
       id="path8-6-9"
       sodipodi:nodetypes="sssssssss" />
    <path
       style="fill:url(#linearGradient844-5);fill-opacity:1;stroke-width:0.09667"
       d="m 413.94973,526.46375 h -26.7566 c -0.81091,0 -1.6217,0.73763 -1.6217,1.47526 v 14.38374 c 0,0.97553 0.62711,1.47525 1.6217,1.47525 h 26.7566 c 0.99775,0 1.6217,-0.49972 1.6217,-1.47525 v -14.38374 c 0,-0.73763 -0.8108,-1.47526 -1.6217,-1.47526 z"
       id="path10-1"
       sodipodi:nodetypes="sssssssss" />
    <path
       d="m 409.20892,540.59887 c 0.15369,0 0.27881,0.12572 0.27881,0.28109 0,0.1551 -0.12512,0.28109 -0.27881,0.28109 -0.15412,0 -0.27896,-0.12599 -0.27896,-0.28109 0,-0.15537 0.12486,-0.28109 0.27896,-0.28109 z m -0.27896,-1.96767 c 0,-0.15538 0.12484,-0.28109 0.27896,-0.28109 0.15369,0 0.27881,0.12571 0.27881,0.28109 v 1.12411 c 0,0.15537 -0.12512,0.28137 -0.27881,0.28137 -0.15412,0 -0.27896,-0.126 -0.27896,-0.28137 z m 3.90337,3.65424 h -6.69168 c -0.6159,0 -1.11512,-0.50372 -1.11512,-1.12439 v -2.52985 c 0,-0.15538 0.12484,-0.28109 0.27896,-0.28109 0.15369,0 0.27881,0.12571 0.27881,0.28109 v 2.38931 c 0,0.38815 0.31203,0.70247 0.69704,0.70247 h 6.41259 c 0.38501,0 0.69733,-0.31434 0.69733,-0.70247 v -2.53014 c 0,-0.38787 -0.31232,-0.70266 -0.69733,-0.70266 h -5.01864 -0.13928 -2.8e-4 c -0.46219,0 -0.83631,-0.37744 -0.83631,-0.84301 v -0.14083 -0.7026 c 0,-1.55247 1.24815,-2.8108 2.78831,-2.8108 1.53984,0 2.78797,1.25833 2.78797,2.8108 v 0.2811 c 0,0.15537 -0.12469,0.28109 -0.27881,0.28109 -0.15383,0 -0.27882,-0.12572 -0.27882,-0.28109 v -0.2811 c 0,-1.24199 -0.99873,-2.2489 -2.23034,-2.2489 -1.23195,0 -2.23054,1.0069 -2.23054,2.2489 v 0.42151 0.10732 0.17377 c 0,0.23292 0.18719,0.42193 0.4181,0.42193 h 0.17236 0.10646 3.62456 0.1394 0.55763 0.13969 0.41794 c 0.61619,0 1.11528,0.50318 1.11528,1.12431 v 2.81094 c 0,0.62067 -0.49909,1.12439 -1.11528,1.12439 z m -6.97049,-4.49773 c -0.1537,0 -0.27854,-0.12572 -0.27854,-0.28109 0,-0.15496 0.12484,-0.28082 0.27854,-0.28082 0.15411,0 0.27881,0.12586 0.27881,0.28082 0,0.15537 -0.1247,0.28109 -0.27881,0.28109 z"
       id="path2"
       style="fill:#f2f2f2;fill-opacity:1;stroke-width:0.0174969" />
  </g>
</svg>
