<?xml version="1.0" encoding="UTF-8" standalone="no"?>
<svg
   width="32"
   version="1.1"
   height="32"
   viewBox="0 0 32 32"
   id="svg17"
   sodipodi:docname="folder-development.svg"
   inkscape:version="1.1.1 (3bf5ae0d25, 2021-09-20)"
   xmlns:inkscape="http://www.inkscape.org/namespaces/inkscape"
   xmlns:sodipodi="http://sodipodi.sourceforge.net/DTD/sodipodi-0.dtd"
   xmlns:xlink="http://www.w3.org/1999/xlink"
   xmlns="http://www.w3.org/2000/svg"
   xmlns:svg="http://www.w3.org/2000/svg"
   xmlns:rdf="http://www.w3.org/1999/02/22-rdf-syntax-ns#"
   xmlns:cc="http://creativecommons.org/ns#"
   xmlns:dc="http://purl.org/dc/elements/1.1/">
  <sodipodi:namedview
     pagecolor="#ffffff"
     bordercolor="#666666"
     borderopacity="1"
     objecttolerance="10"
     gridtolerance="10"
     guidetolerance="10"
     inkscape:pageopacity="0"
     inkscape:pageshadow="2"
     inkscape:window-width="1920"
     inkscape:window-height="1006"
     id="namedview19"
     showgrid="false"
     inkscape:zoom="9.8125"
     inkscape:cx="-9.3757962"
     inkscape:cy="5.5031847"
     inkscape:window-x="0"
     inkscape:window-y="0"
     inkscape:window-maximized="1"
     inkscape:current-layer="layer1"
     inkscape:document-rotation="0"
     showguides="false"
     inkscape:guide-bbox="true"
     inkscape:pagecheckerboard="0">
    <sodipodi:guide
       position="-20.382166,30.980892"
       orientation="0,-1"
       id="guide903" />
  </sodipodi:namedview>
  <defs
     id="defs5455">
    <linearGradient
       inkscape:collect="always"
       xlink:href="#linearGradient860-3"
       id="linearGradient862"
       x1="113.94677"
       y1="255.36646"
       x2="406.08289"
       y2="255.36646"
       gradientUnits="userSpaceOnUse"
       gradientTransform="matrix(0.10135135,0,0,0.09220346,374.22015,507.65425)" />
    <linearGradient
       inkscape:collect="always"
       id="linearGradient860-3">
      <stop
         style="stop-color:#78acd3;stop-opacity:1"
         offset="0"
         id="stop856-6" />
      <stop
         style="stop-color:#d98cbb;stop-opacity:1"
         offset="1"
         id="stop858-7" />
    </linearGradient>
    <linearGradient
       inkscape:collect="always"
       xlink:href="#linearGradient842-3"
       id="linearGradient844-5"
       x1="386.30627"
       y1="522.45404"
       x2="446.83023"
       y2="522.45404"
       gradientUnits="userSpaceOnUse"
       gradientTransform="matrix(0.49567132,0,0,0.49972085,194.0905,274.04969)" />
    <linearGradient
       inkscape:collect="always"
       id="linearGradient842-3">
      <stop
         style="stop-color:#326e9a;stop-opacity:1"
         offset="0"
         id="stop838-5" />
      <stop
         style="stop-color:#339993;stop-opacity:1"
         offset="1"
         id="stop840-6" />
    </linearGradient>
  </defs>
  <metadata
     id="metadata5458">
    <rdf:RDF>
      <cc:Work
         rdf:about="">
        <dc:format>image/svg+xml</dc:format>
        <dc:type
           rdf:resource="http://purl.org/dc/dcmitype/StillImage" />
      </cc:Work>
    </rdf:RDF>
  </metadata>
  <g
     inkscape:label="Capa 1"
     inkscape:groupmode="layer"
     id="layer1"
     transform="translate(-384.57143,-515.798)">
    <path
       style="fill:url(#linearGradient862);fill-opacity:1;stroke-width:0.089569"
       d="m 400.57301,522.37783 c -0.44016,0 -0.96119,-0.25824 -1.15846,-0.57392 l -0.88506,-1.41859 c -0.19637,-0.31567 -0.71739,-0.57334 -1.1574,-0.57391 l -10.20056,-0.0134 c -0.973,-0.002 -1.3831,0.46748 -1.39692,1.50207 l -0.006,0.43614 v 1.28321 18.28579 c 0,0.35288 1.16036,1.28321 1.60036,1.28321 h 26.40757 c 0.44001,0 1.60035,-0.93033 1.60035,-1.28321 v -17.64418 c 0,-0.96241 -0.40001,-1.28321 -1.60035,-1.28321 z"
       id="path4-3-2"
       sodipodi:nodetypes="sccsssccsssssss" />
    <path
       style="fill:#f2f2f2;fill-opacity:1;stroke-width:0.0882825"
       d="m 413.46046,529.22774 c 0,0.66274 -0.39789,1.20497 -1.30858,1.20497 H 389.0541 c -0.9107,0 -1.25927,-0.54223 -1.25927,-1.20497 v -3.61492 c 0,-0.66274 0.34857,-1.20498 1.25927,-1.20498 h 23.04822 c 0.91069,0 1.35814,0.54224 1.35814,1.20498 z"
       id="path8-6-9"
       sodipodi:nodetypes="sssssssss" />
    <path
       style="fill:url(#linearGradient844-5);fill-opacity:1;stroke-width:0.09667"
       d="m 413.94972,526.46375 h -26.7566 c -0.8109,0 -1.62169,0.73763 -1.62169,1.47526 v 14.38374 c 0,0.97553 0.6271,1.47525 1.62169,1.47525 h 26.7566 c 0.99775,0 1.62171,-0.49972 1.62171,-1.47525 v -14.38374 c 0,-0.73763 -0.8108,-1.47526 -1.62171,-1.47526 z"
       id="path10-1"
       sodipodi:nodetypes="sssssssss" />
    <path
       fill-rule="evenodd"
       clip-rule="evenodd"
       d="m 405.096,534.90425 c 0,-0.17741 0.14268,-0.32125 0.31865,-0.32125 0.17597,0 0.31865,0.14384 0.31865,0.32125 0,0.17741 -0.14268,0.32125 -0.31865,0.32125 -0.17597,0 -0.31865,-0.14384 -0.31865,-0.32125 z m 1.27459,0 c 0,-0.17741 0.14267,-0.32125 0.31865,-0.32125 0.17596,0 0.31864,0.14384 0.31864,0.32125 0,0.17741 -0.14268,0.32125 -0.31864,0.32125 -0.17598,0 -0.31865,-0.14384 -0.31865,-0.32125 z m 1.27458,0 c 0,-0.17741 0.14267,-0.32125 0.31865,-0.32125 0.17597,0 0.31864,0.14384 0.31864,0.32125 0,0.17741 -0.14267,0.32125 -0.31864,0.32125 -0.17598,0 -0.31865,-0.14384 -0.31865,-0.32125 z m 6.37292,1.76687 v 4.33686 c 0,0.70964 -0.5707,1.285 -1.27458,1.285 H 405.096 c -0.70388,0 -1.27457,-0.57536 -1.27457,-1.285 v -3.53374 c 0,-0.17741 0.14267,-0.32125 0.31864,-0.32125 0.17598,0 0.31865,0.14384 0.31865,0.32125 v 3.53374 c 0,0.35482 0.28535,0.6425 0.63729,0.6425 h 7.6475 c 0.35194,0 0.63729,-0.28768 0.63729,-0.6425 v -4.17623 c 0,-0.17742 -0.14267,-0.32125 -0.31864,-0.32125 h -8.44412 c -0.44001,0 -0.79661,-0.35952 -0.79661,-0.80313 V 534.583 c 0,-0.70964 0.57069,-1.285 1.27457,-1.285 h 7.64751 c 0.70389,0 1.27458,0.57536 1.27458,1.285 v 0.32125 c 0,0.17741 -0.14267,0.32125 -0.31865,0.32125 -0.17597,0 -0.31864,-0.14384 -0.31864,-0.32125 V 534.583 c 0,-0.35482 -0.28535,-0.64249 -0.63729,-0.64249 H 405.096 c -0.35194,0 -0.63729,0.28767 -0.63729,0.64249 v 0.96375 c 0,0.17741 0.14267,0.32124 0.31865,0.32124 h 8.44411 c 0.44001,0 0.79662,0.35952 0.79662,0.80313 z"
       id="path2"
       style="fill:#f2f2f2;fill-opacity:1;stroke-width:0.0199965" />
    <path
       fill-rule="evenodd"
       clip-rule="evenodd"
       d="m 410.43563,539.57315 c -3.7e-4,2.6e-4 -10e-4,5e-4 -0.002,5e-4 -0.0521,0.0178 -0.0897,0.0674 -0.0897,0.126 v 1.37587 c 0,0.0735 -0.059,0.13303 -0.13192,0.13303 -0.0728,0 -0.1318,-0.0595 -0.1318,-0.13303 v -1.37587 c 0,-0.17296 0.10919,-0.32034 0.26199,-0.37568 0.002,-5e-4 0.004,-0.002 0.005,-0.003 0.15151,-0.056 0.26026,-0.20147 0.26026,-0.3736 0,-0.11009 -0.0441,-0.20973 -0.11558,-0.28176 -0.0241,-0.0242 -0.0391,-0.0575 -0.0391,-0.0944 0,-0.0735 0.0591,-0.13309 0.13207,-0.13309 0.0386,0 0.073,0.017 0.0971,0.0437 0.11672,0.1201 0.18932,0.28398 0.18932,0.46551 0,0.28845 -0.18204,0.53345 -0.43682,0.62568 z m -0.35294,-1.0024 c -0.002,10e-4 -0.004,0.002 -0.005,0.003 -0.15152,0.0559 -0.2602,0.20136 -0.2602,0.3736 0,0.11022 0.0443,0.20999 0.11596,0.28216 0.0238,0.024 0.0386,0.0574 0.0386,0.0941 0,0.0734 -0.059,0.13289 -0.13193,0.13289 -0.038,0 -0.072,-0.0164 -0.0962,-0.0423 -0.11744,-0.12023 -0.19035,-0.28469 -0.19035,-0.46681 0,-0.28832 0.18192,-0.53274 0.43637,-0.62523 5e-4,-3.8e-4 0.001,-0.001 0.002,-0.001 0.052,-0.0178 0.0896,-0.0674 0.0896,-0.12608 v -0.57772 c 0,-0.0734 0.059,-0.13309 0.13179,-0.13309 0.0729,0 0.13193,0.0597 0.13193,0.13309 v 0.57774 c -10e-6,0.17316 -0.10913,0.32041 -0.26193,0.37575 z m 0.12999,-1.35262 c -0.0728,0 -0.1318,-0.0595 -0.1318,-0.1329 0,-0.0735 0.059,-0.13302 0.1318,-0.13302 0.0729,0 0.13192,0.0595 0.13192,0.13302 0,0.0734 -0.059,0.1329 -0.13192,0.1329 z m -1.09616,3.41899 c -10e-4,3.3e-4 -10e-4,10e-4 -0.002,10e-4 -0.052,0.0177 -0.0897,0.0675 -0.0897,0.126 v 0.31171 c 0,0.0735 -0.059,0.13302 -0.13194,0.13302 -0.0728,0 -0.1318,-0.0595 -0.1318,-0.13302 v -0.31171 c 0,-0.17302 0.1092,-0.32034 0.262,-0.37567 0.002,-5e-4 0.004,-0.002 0.005,-0.003 0.15145,-0.0561 0.2602,-0.20155 0.2602,-0.37361 0,-0.11009 -0.044,-0.20972 -0.11551,-0.28176 -0.0242,-0.0242 -0.0391,-0.0575 -0.0391,-0.0944 0,-0.0735 0.0591,-0.13301 0.13199,-0.13301 0.0386,0 0.073,0.017 0.0971,0.0437 0.11679,0.12003 0.1894,0.28397 0.1894,0.4655 -1e-5,0.28827 -0.182,0.53332 -0.43659,0.62549 z m -0.35321,-1.00226 c -0.002,5e-4 -0.004,0.002 -0.006,0.004 -0.1511,0.056 -0.25977,0.20135 -0.25977,0.37333 0,0.11017 0.0444,0.21 0.11596,0.28216 0.0239,0.024 0.0386,0.0574 0.0386,0.0941 0,0.0734 -0.0591,0.13289 -0.13197,0.13289 -0.0371,0 -0.0705,-0.0156 -0.0945,-0.0406 -0.11866,-0.12015 -0.19203,-0.2856 -0.19203,-0.46856 0,-0.28832 0.18199,-0.5328 0.43641,-0.62523 4.9e-4,-3.7e-4 0.002,-10e-4 0.002,-10e-4 0.0521,-0.0178 0.0896,-0.0674 0.0896,-0.126 v -2.17394 c 0,-0.0735 0.059,-0.13302 0.1318,-0.13302 0.0729,0 0.13193,0.0595 0.13193,0.13302 v 2.17394 c -1e-5,0.17316 -0.10913,0.32054 -0.26193,0.37569 z m -0.96616,-0.59405 c -10e-4,3.2e-4 -10e-4,5e-4 -0.002,5e-4 -0.0521,0.0179 -0.0897,0.0675 -0.0897,0.126 v 1.90802 c 0,0.0735 -0.059,0.13303 -0.1318,0.13303 -0.0729,0 -0.13196,-0.0595 -0.13196,-0.13303 v -1.90802 c 0,-0.17297 0.10918,-0.32034 0.26202,-0.37567 0.002,-10e-4 0.004,-0.002 0.005,-0.003 0.15145,-0.0559 0.26019,-0.20135 0.26019,-0.37347 0,-0.11022 -0.0444,-0.21 -0.11601,-0.28215 -0.024,-0.0242 -0.0386,-0.0573 -0.0386,-0.0941 0,-0.0734 0.059,-0.13308 0.13193,-0.13308 0.038,0 0.0721,0.0165 0.0962,0.0426 0.11746,0.12022 0.19038,0.28469 0.19038,0.46681 0,0.28831 -0.18215,0.53318 -0.43654,0.62535 z m -0.35324,-1.00209 c -0.002,5e-4 -0.004,0.002 -0.005,0.003 -0.15151,0.0561 -0.26025,0.20148 -0.26025,0.37361 0,0.11021 0.0444,0.20985 0.11601,0.28202 0.0238,0.024 0.0386,0.0574 0.0386,0.0941 0,0.0734 -0.059,0.13301 -0.13193,0.13301 -0.0378,0 -0.0718,-0.0163 -0.0959,-0.0421 -0.11778,-0.1199 -0.1907,-0.28501 -0.1907,-0.46713 0,-0.28832 0.18195,-0.53332 0.43653,-0.62549 5e-4,-3.2e-4 10e-4,-5e-4 0.002,-5e-4 0.0521,-0.0177 0.0896,-0.0675 0.0896,-0.12601 v -0.57781 c 0,-0.0735 0.059,-0.13302 0.13196,-0.13302 0.0728,0 0.1318,0.0595 0.1318,0.13302 v 0.57781 c 0,0.17297 -0.10911,0.32035 -0.26195,0.37569 z"
       id="path2-3"
       style="fill:#f2f2f2;fill-opacity:1;stroke-width:0.00827985" />
  </g>
</svg>
