<?xml version="1.0" encoding="UTF-8" standalone="no"?>
<svg
   width="32"
   version="1.1"
   height="32"
   viewBox="0 0 32 32"
   id="svg15"
   sodipodi:docname="folder-library.svg"
   inkscape:version="1.2 (dc2aedaf03, 2022-05-15)"
   xmlns:inkscape="http://www.inkscape.org/namespaces/inkscape"
   xmlns:sodipodi="http://sodipodi.sourceforge.net/DTD/sodipodi-0.dtd"
   xmlns:xlink="http://www.w3.org/1999/xlink"
   xmlns="http://www.w3.org/2000/svg"
   xmlns:svg="http://www.w3.org/2000/svg"
   xmlns:rdf="http://www.w3.org/1999/02/22-rdf-syntax-ns#"
   xmlns:cc="http://creativecommons.org/ns#"
   xmlns:dc="http://purl.org/dc/elements/1.1/">
  <sodipodi:namedview
     pagecolor="#ffffff"
     bordercolor="#666666"
     borderopacity="1"
     objecttolerance="10"
     gridtolerance="10"
     guidetolerance="10"
     inkscape:pageopacity="0"
     inkscape:pageshadow="2"
     inkscape:window-width="1920"
     inkscape:window-height="1002"
     id="namedview17"
     showgrid="false"
     inkscape:zoom="9.8125"
     inkscape:cx="-12.993631"
     inkscape:cy="6.5732484"
     inkscape:window-x="0"
     inkscape:window-y="0"
     inkscape:window-maximized="1"
     inkscape:current-layer="layer1"
     inkscape:document-rotation="0"
     inkscape:pagecheckerboard="0"
     inkscape:showpageshadow="2"
     inkscape:deskcolor="#d1d1d1" />
  <defs
     id="defs5455">
    <linearGradient
       inkscape:collect="always"
       xlink:href="#linearGradient860"
       id="linearGradient862"
       x1="113.94677"
       y1="255.36646"
       x2="406.08289"
       y2="255.36646"
       gradientUnits="userSpaceOnUse"
       gradientTransform="matrix(0.10135135,0,0,0.09220348,374.22015,507.65424)" />
    <linearGradient
       inkscape:collect="always"
       id="linearGradient860">
      <stop
         style="stop-color:#78acd3;stop-opacity:1"
         offset="0"
         id="stop856" />
      <stop
         style="stop-color:#d98cbb;stop-opacity:1"
         offset="1"
         id="stop858" />
    </linearGradient>
    <linearGradient
       inkscape:collect="always"
       xlink:href="#linearGradient842"
       id="linearGradient844"
       x1="386.30627"
       y1="522.45404"
       x2="446.83023"
       y2="522.45404"
       gradientUnits="userSpaceOnUse"
       gradientTransform="matrix(0.4956713,0,0,0.49972091,194.0905,274.04965)" />
    <linearGradient
       inkscape:collect="always"
       id="linearGradient842">
      <stop
         style="stop-color:#326e9a;stop-opacity:1"
         offset="0"
         id="stop838" />
      <stop
         style="stop-color:#339993;stop-opacity:1"
         offset="1"
         id="stop840" />
    </linearGradient>
  </defs>
  <metadata
     id="metadata5458">
    <rdf:RDF>
      <cc:Work
         rdf:about="">
        <dc:format>image/svg+xml</dc:format>
        <dc:type
           rdf:resource="http://purl.org/dc/dcmitype/StillImage" />
      </cc:Work>
    </rdf:RDF>
  </metadata>
  <g
     inkscape:label="Capa 1"
     inkscape:groupmode="layer"
     id="layer1"
     transform="translate(-384.57143,-515.798)">
    <path
       style="fill:url(#linearGradient862);fill-opacity:1;stroke-width:0.089569"
       d="m 400.57301,522.37783 c -0.44016,0 -0.96119,-0.25825 -1.15846,-0.57392 l -0.88505,-1.4186 c -0.19637,-0.31567 -0.71739,-0.57333 -1.1574,-0.57391 l -10.20055,-0.0134 c -0.97301,-10e-4 -1.38311,0.46748 -1.39693,1.50207 l -0.006,0.43614 v 1.28321 18.28579 c 0,0.35288 1.16035,1.28321 1.60036,1.28321 h 26.40756 c 0.44002,0 1.60036,-0.93033 1.60036,-1.28321 v -17.64418 c 0,-0.96241 -0.40002,-1.28321 -1.60036,-1.28321 z"
       id="path4-3"
       sodipodi:nodetypes="sccsssccsssssss" />
    <path
       style="fill:#f2f2f2;fill-opacity:1;stroke-width:0.0882824"
       d="m 413.46047,529.22774 c 0,0.66273 -0.3979,1.20497 -1.30858,1.20497 h -23.09778 c -0.9107,0 -1.25927,-0.54224 -1.25927,-1.20497 v -3.61493 c 0,-0.66274 0.34857,-1.20498 1.25927,-1.20498 h 23.04822 c 0.91068,0 1.35814,0.54224 1.35814,1.20498 z"
       id="path8-6"
       sodipodi:nodetypes="sssssssss" />
    <path
       style="fill:url(#linearGradient844);fill-opacity:1;stroke-width:0.0966699"
       d="m 413.94973,526.46375 h -26.7566 c -0.81091,0 -1.6217,0.73763 -1.6217,1.47525 v 14.38375 c 0,0.97553 0.62711,1.47525 1.6217,1.47525 h 26.7566 c 0.99775,0 1.6217,-0.49972 1.6217,-1.47525 V 527.939 c 0,-0.73762 -0.81079,-1.47525 -1.6217,-1.47525 z"
       id="path10"
       sodipodi:nodetypes="sssssssss" />
    <path
       d="m 413.56024,537.52281 c 0,0.15542 -0.12487,0.28118 -0.27891,0.28118 -0.15417,0 -0.27904,-0.12576 -0.27904,-0.28118 0,-0.0743 -0.46521,-0.42674 -0.57579,-0.53835 l -0.30259,-0.30508 h 0.009 c -0.15307,-0.19263 -0.24569,-0.43688 -0.24569,-0.70324 v -1.26508 c 0,-0.15542 -0.1253,-0.28132 -0.27906,-0.28132 h -0.55795 c -0.15402,0 -0.27889,0.12592 -0.27889,0.28132 v 0.0965 c 0,0.11644 -0.0934,0.21088 -0.20917,0.21088 -0.0564,0 -0.10732,-0.0229 -0.14493,-0.0596 l -0.92496,-0.93255 c -0.21761,-0.21981 -0.57097,-0.21981 -0.78866,0 l -3.35266,3.38003 c -0.10923,0.10986 -0.16364,0.25359 -0.16364,0.39763 h 0.006 c 0,0.31035 0.23367,0.56244 0.46586,0.56244 0.26596,0 0.64964,0.37756 0.64964,0.84355 v 1.96834 c 0,0.31056 0.24997,0.56239 0.55789,0.56239 h 0.83686 c 0.15381,0 0.27896,-0.12577 0.27896,-0.28122 v -1.82772 c 0,-0.38828 0.31206,-0.70324 0.69721,-0.70324 h 0.83659 c 0.38512,0 0.69725,0.31496 0.69725,0.70324 v 1.82772 c 0,0.15545 0.12501,0.28122 0.2789,0.28122 h 0.83687 c 0.3079,0 0.55794,-0.25183 0.55794,-0.56239 v -1.96834 c 0,-0.15513 0.12474,-0.28145 0.27862,-0.28145 0.15418,0 0.27892,0.12632 0.27892,0.28145 v 1.96834 c 0,0.62114 -0.49926,1.12475 -1.1155,1.12475 h -0.83686 c -0.46208,0 -0.83657,-0.37784 -0.83657,-0.84358 v -1.68711 c 0,-0.15543 -0.12488,-0.28118 -0.27892,-0.28118 h -0.55793 c -0.1541,0 -0.27892,0.12575 -0.27892,0.28118 v 1.68711 c 0,0.46574 -0.37451,0.84358 -0.83658,0.84358 h -0.83686 c -0.61617,0 -1.11551,-0.50361 -1.11551,-1.12475 v -1.96834 c 0,-0.15513 -0.13012,-0.27129 -0.27891,-0.31632 -0.003,-5e-4 -0.005,-0.002 -0.007,-0.004 -0.47773,-0.12686 -0.83005,-0.56432 -0.83005,-1.08582 v 0.0623 c -0.0169,-0.30837 0.0872,-0.62209 0.32092,-0.85769 l 3.35277,-3.38019 c 0.21786,-0.21967 0.50251,-0.32522 0.78805,-0.32522 0.28554,0 0.57199,0.10555 0.78988,0.32522 l 0.4904,0.49456 c 0.12815,-0.15488 0.31799,-0.25565 0.5337,-0.25565 h 0.83646 c 0.38513,0 0.69726,0.31468 0.69726,0.70296 v 1.40581 c 0,0.15143 0.06,0.28819 0.15674,0.38925 l 0.63803,0.64324 c 0.21898,0.22064 0.32099,0.33048 0.32099,0.51421 z m -0.83686,0.84362 c 0.15416,0 0.27891,0.12574 0.27891,0.28119 0,0.15516 -0.12475,0.28091 -0.27891,0.28091 -0.15417,0 -0.2789,-0.12575 -0.2789,-0.28091 0,-0.15545 0.12473,-0.28119 0.2789,-0.28119 z"
       id="path2"
       style="fill:#f2f2f2;fill-opacity:1;stroke-width:0.0175065" />
    <path
       d="m 411.13678,537.45533 h -5.53605 c -0.6443,0 -0.6443,0.7504 0,0.7504 h 5.53605 c 0.47276,0 0.41162,-0.7504 -10e-6,-0.7504 z"
       id="path12"
       style="fill:#f2f2f2;fill-opacity:1;stroke-width:0.13727"
       sodipodi:nodetypes="ssssss" />
  </g>
</svg>
