<?xml version="1.0" encoding="UTF-8" standalone="no"?>
<svg
   width="32"
   version="1.1"
   height="32"
   viewBox="0 0 32 32"
   id="svg2"
   inkscape:version="1.1.1 (3bf5ae0d25, 2021-09-20)"
   sodipodi:docname="folder-gdrive.svg"
   xmlns:inkscape="http://www.inkscape.org/namespaces/inkscape"
   xmlns:sodipodi="http://sodipodi.sourceforge.net/DTD/sodipodi-0.dtd"
   xmlns:xlink="http://www.w3.org/1999/xlink"
   xmlns="http://www.w3.org/2000/svg"
   xmlns:svg="http://www.w3.org/2000/svg"
   xmlns:rdf="http://www.w3.org/1999/02/22-rdf-syntax-ns#"
   xmlns:cc="http://creativecommons.org/ns#"
   xmlns:dc="http://purl.org/dc/elements/1.1/">
  <sodipodi:namedview
     pagecolor="#ffffff"
     bordercolor="#666666"
     borderopacity="1"
     objecttolerance="10"
     gridtolerance="10"
     guidetolerance="10"
     inkscape:pageopacity="0"
     inkscape:pageshadow="2"
     inkscape:window-width="1920"
     inkscape:window-height="1006"
     id="namedview46"
     showgrid="false"
     inkscape:zoom="10.429825"
     inkscape:cx="-18.025231"
     inkscape:cy="3.355761"
     inkscape:window-x="0"
     inkscape:window-y="0"
     inkscape:window-maximized="1"
     inkscape:current-layer="layer1"
     inkscape:document-rotation="0"
     inkscape:pagecheckerboard="0" />
  <defs
     id="defs5455">
    <linearGradient
       inkscape:collect="always"
       xlink:href="#linearGradient860-3"
       id="linearGradient862"
       x1="113.94677"
       y1="255.36646"
       x2="406.08289"
       y2="255.36646"
       gradientUnits="userSpaceOnUse"
       gradientTransform="matrix(0.10135135,0,0,0.09220346,374.22015,507.65424)" />
    <linearGradient
       inkscape:collect="always"
       id="linearGradient860-3">
      <stop
         style="stop-color:#78acd3;stop-opacity:1"
         offset="0"
         id="stop856-6" />
      <stop
         style="stop-color:#d98cbb;stop-opacity:1"
         offset="1"
         id="stop858-7" />
    </linearGradient>
    <linearGradient
       inkscape:collect="always"
       xlink:href="#linearGradient842-3"
       id="linearGradient844-5"
       x1="386.30627"
       y1="522.45404"
       x2="446.83023"
       y2="522.45404"
       gradientUnits="userSpaceOnUse"
       gradientTransform="matrix(0.49567132,0,0,0.49972085,194.0905,274.04966)" />
    <linearGradient
       inkscape:collect="always"
       id="linearGradient842-3">
      <stop
         style="stop-color:#326e9a;stop-opacity:1"
         offset="0"
         id="stop838-5" />
      <stop
         style="stop-color:#339993;stop-opacity:1"
         offset="1"
         id="stop840-6" />
    </linearGradient>
  </defs>
  <metadata
     id="metadata5458">
    <rdf:RDF>
      <cc:Work
         rdf:about="">
        <dc:format>image/svg+xml</dc:format>
        <dc:type
           rdf:resource="http://purl.org/dc/dcmitype/StillImage" />
      </cc:Work>
    </rdf:RDF>
  </metadata>
  <g
     inkscape:label="Capa 1"
     inkscape:groupmode="layer"
     id="layer1"
     transform="translate(-384.57143,-515.798)">
    <path
       style="fill:url(#linearGradient862);fill-opacity:1;stroke-width:0.089569"
       d="m 400.57301,522.37783 c -0.44016,0 -0.96119,-0.25824 -1.15846,-0.57392 l -0.88505,-1.41859 c -0.19637,-0.31567 -0.7174,-0.57334 -1.1574,-0.57391 l -10.20056,-0.0134 c -0.973,-0.002 -1.3831,0.46748 -1.39693,1.50207 l -0.006,0.43614 v 1.28321 18.28579 c 0,0.35288 1.16036,1.28321 1.60036,1.28321 h 26.40757 c 0.44001,0 1.60036,-0.93033 1.60036,-1.28321 v -17.64418 c 0,-0.96241 -0.40002,-1.28321 -1.60036,-1.28321 z"
       id="path4-3-2"
       sodipodi:nodetypes="sccsssccsssssss" />
    <path
       style="fill:#f2f2f2;fill-opacity:1;stroke-width:0.0882825"
       d="m 413.46046,529.22774 c 0,0.66274 -0.39788,1.20497 -1.30857,1.20497 H 389.0541 c -0.9107,0 -1.25926,-0.54223 -1.25926,-1.20497 v -3.61492 c 0,-0.66274 0.34856,-1.20498 1.25926,-1.20498 h 23.04822 c 0.91069,0 1.35814,0.54224 1.35814,1.20498 z"
       id="path8-6-9"
       sodipodi:nodetypes="sssssssss" />
    <path
       style="fill:url(#linearGradient844-5);fill-opacity:1;stroke-width:0.09667"
       d="m 413.94973,526.46375 h -26.7566 c -0.81091,0 -1.6217,0.73763 -1.6217,1.47526 v 14.38374 c 0,0.97553 0.62711,1.47525 1.6217,1.47525 h 26.7566 c 0.99775,0 1.6217,-0.49972 1.6217,-1.47525 v -14.38374 c 0,-0.73763 -0.8108,-1.47526 -1.6217,-1.47526 z"
       id="path10-1"
       sodipodi:nodetypes="sssssssss" />
    <path
       fill-rule="evenodd"
       clip-rule="evenodd"
       d="m 413.74064,538.35894 -4.08706,1.72094 c -0.21453,0.0821 -0.44616,0.12901 -0.6891,0.12901 -0.24246,0 -0.47379,-0.0472 -0.6873,-0.12839 l -4.08951,-1.72188 c -0.0681,-0.0295 -0.1312,-0.072 -0.18675,-0.12728 -0.23932,-0.23919 -0.23932,-0.62701 0,-0.86635 0.0567,-0.0565 0.12225,-0.0995 0.19099,-0.12902 l 0.51294,-0.2158 c 0.0476,-0.0285 0.10232,-0.0458 0.16134,-0.0458 0.17482,0 0.31653,0.14157 0.31653,0.31641 0,0.14173 -0.0934,0.25992 -0.22175,0.30056 l -0.16039,0.0667 c -0.0504,0.027 -0.0849,0.0793 -0.0849,0.14017 0,0.0595 0.0328,0.11095 0.0814,0.13873 l 3.6463,1.52161 c 0.0105,0.004 0.0197,0.006 0.0303,0.0105 0.15129,0.0626 0.31669,0.0968 0.49075,0.0968 0.1723,0 0.33663,-0.0339 0.48696,-0.0954 0.0126,-0.005 0.0237,-0.008 0.0359,-0.013 l 3.64432,-1.52053 c 0.0487,-0.0278 0.0815,-0.0792 0.0815,-0.13873 0,-0.0612 -0.0347,-0.11316 -0.0851,-0.14016 l -0.16069,-0.067 c -0.12805,-0.0403 -0.22143,-0.15899 -0.22143,-0.30024 0,-0.17484 0.14171,-0.31641 0.31655,-0.31641 0.0598,0 0.11533,0.0176 0.16288,0.0464 l 0.5127,0.21596 c 0.0686,0.0295 0.1334,0.072 0.18959,0.12823 0.23932,0.23935 0.23932,0.62717 0,0.86636 -0.0559,0.0556 -0.11893,0.0981 -0.18706,0.12762 z m 0.001,-2.08991 -4.09335,1.72344 c -0.21248,0.0807 -0.44254,0.12713 -0.6836,0.12713 -0.24026,0 -0.46954,-0.046 -0.68179,-0.12602 l -4.0958,-1.72455 c -0.0678,-0.0298 -0.13042,-0.0717 -0.18596,-0.1268 -0.23933,-0.23935 -0.23933,-0.62747 0,-0.86682 0.0559,-0.0554 0.11927,-0.0971 0.18815,-0.12745 l 4.09421,-1.72376 c 0.2121,-0.0801 0.44092,-0.1262 0.68119,-0.1262 0.24073,0 0.47033,0.0462 0.68298,0.1268 l 0.38121,0.1604 c 0.13088,0.0408 0.22631,0.16149 0.22631,0.30557 0,0.17735 -0.14376,0.32159 -0.32141,0.32159 -0.0545,0 -0.10453,-0.0152 -0.14955,-0.0389 l -0.30242,-0.12618 c -0.0104,-0.004 -0.0197,-0.006 -0.0301,-0.0109 -0.15033,-0.0617 -0.31466,-0.0956 -0.48696,-0.0956 -0.17406,0 -0.33945,0.0347 -0.49075,0.097 -0.009,0.004 -0.0162,0.005 -0.025,0.009 l -3.64993,1.52304 c -0.0489,0.0274 -0.0832,0.0789 -0.0832,0.13952 0,0.0595 0.0328,0.11065 0.081,0.13873 l 3.65148,1.52302 c 0.009,0.004 0.0165,0.005 0.0256,0.009 0.1513,0.0623 0.31669,0.097 0.49074,0.097 0.17231,0 0.33664,-0.0339 0.48697,-0.0956 0.0107,-0.004 0.0204,-0.007 0.0309,-0.0111 l 3.64967,-1.52222 c 0.0484,-0.0281 0.0811,-0.0793 0.0811,-0.13874 0,-0.0606 -0.0342,-0.11174 -0.0833,-0.13952 l -0.49526,-0.20686 c -0.1221,-0.0439 -0.21,-0.15931 -0.21,-0.29664 0,-0.17468 0.14157,-0.31641 0.31639,-0.31641 0.0598,0 0.11568,0.0177 0.16337,0.0465 l 0.83678,0.35251 c 0.0681,0.0292 0.13102,0.0717 0.18659,0.1268 0.23932,0.23935 0.23932,0.62747 0,0.86682 -0.0556,0.0551 -0.11849,0.0971 -0.18629,0.12688 z m -2.68767,-1.52444 c -0.17765,0 -0.32155,-0.14376 -0.32155,-0.32143 0,-0.17767 0.1439,-0.32143 0.32155,-0.32143 0.17717,0 0.32141,0.14376 0.32141,0.32143 0,0.17767 -0.14424,0.32143 -0.32141,0.32143 z m -6.86185,4.58053 0.51516,-0.21658 c 0.0468,-0.0276 0.10074,-0.0446 0.15912,-0.0446 0.17482,0 0.31653,0.14156 0.31653,0.3164 0,0.14298 -0.0959,0.26273 -0.22644,0.30167 l -0.1557,0.0651 c -0.0504,0.0272 -0.0849,0.079 -0.0849,0.14017 0,0.0599 0.0328,0.11111 0.0814,0.13889 l 3.65164,1.52366 c 0.009,0.004 0.0163,0.005 0.0249,0.009 0.15129,0.0623 0.31669,0.097 0.49074,0.097 0.17231,0 0.33664,-0.0342 0.48697,-0.0956 0.0103,-0.004 0.0197,-0.007 0.0301,-0.0108 l 3.65013,-1.52288 c 0.0487,-0.0278 0.0815,-0.0789 0.0815,-0.1389 0,-0.0609 -0.0347,-0.113 -0.085,-0.14016 l -0.15678,-0.0651 c -0.1304,-0.0397 -0.22537,-0.15899 -0.22537,-0.30166 0,-0.17484 0.14172,-0.31641 0.31655,-0.31641 0.0576,0 0.11064,0.0164 0.15708,0.0431 l 0.51853,0.21847 c 0.0692,0.0298 0.13307,0.072 0.18958,0.12853 0.23932,0.23935 0.23932,0.62717 0,0.86652 -0.0551,0.0551 -0.11816,0.0968 -0.18456,0.1265 l -4.09365,1.72376 c -0.21327,0.0813 -0.44349,0.12713 -0.68501,0.12713 -0.24105,0 -0.47095,-0.0465 -0.68368,-0.12681 l -4.09609,-1.72455 c -0.067,-0.0298 -0.12899,-0.0713 -0.18376,-0.12602 -0.23933,-0.23934 -0.23933,-0.62717 0,-0.86651 0.0566,-0.0565 0.12224,-0.099 0.19097,-0.12901 z"
       id="path2"
       style="fill:#f2f2f2;fill-opacity:1;stroke-width:0.0200893" />
  </g>
</svg>
