<?xml version="1.0" encoding="UTF-8" standalone="no"?>
<svg
   width="32"
   version="1.1"
   height="32"
   viewBox="0 0 32 32"
   id="svg17"
   sodipodi:docname="folder_html.svg"
   inkscape:version="1.1.1 (3bf5ae0d25, 2021-09-20)"
   xmlns:inkscape="http://www.inkscape.org/namespaces/inkscape"
   xmlns:sodipodi="http://sodipodi.sourceforge.net/DTD/sodipodi-0.dtd"
   xmlns:xlink="http://www.w3.org/1999/xlink"
   xmlns="http://www.w3.org/2000/svg"
   xmlns:svg="http://www.w3.org/2000/svg"
   xmlns:rdf="http://www.w3.org/1999/02/22-rdf-syntax-ns#"
   xmlns:cc="http://creativecommons.org/ns#"
   xmlns:dc="http://purl.org/dc/elements/1.1/">
  <sodipodi:namedview
     pagecolor="#ffffff"
     bordercolor="#666666"
     borderopacity="1"
     objecttolerance="10"
     gridtolerance="10"
     guidetolerance="10"
     inkscape:pageopacity="0"
     inkscape:pageshadow="2"
     inkscape:window-width="1920"
     inkscape:window-height="1006"
     id="namedview19"
     showgrid="false"
     inkscape:zoom="6.9384853"
     inkscape:cx="-28.968859"
     inkscape:cy="34.589682"
     inkscape:window-x="0"
     inkscape:window-y="0"
     inkscape:window-maximized="1"
     inkscape:current-layer="layer1"
     inkscape:document-rotation="0"
     inkscape:pagecheckerboard="0" />
  <defs
     id="defs5455">
    <linearGradient
       inkscape:collect="always"
       xlink:href="#linearGradient860-3"
       id="linearGradient862"
       x1="113.94677"
       y1="255.36646"
       x2="406.08289"
       y2="255.36646"
       gradientUnits="userSpaceOnUse"
       gradientTransform="matrix(0.10135132,0,0,0.09220345,374.22016,507.65424)" />
    <linearGradient
       inkscape:collect="always"
       id="linearGradient860-3">
      <stop
         style="stop-color:#78acd3;stop-opacity:1"
         offset="0"
         id="stop856-6" />
      <stop
         style="stop-color:#d98cbb;stop-opacity:1"
         offset="1"
         id="stop858-7" />
    </linearGradient>
    <linearGradient
       inkscape:collect="always"
       xlink:href="#linearGradient842"
       id="linearGradient844-5"
       x1="386.30627"
       y1="522.45404"
       x2="446.83023"
       y2="522.45404"
       gradientUnits="userSpaceOnUse"
       gradientTransform="matrix(0.4956712,0,0,0.49972076,194.09054,274.0497)" />
    <linearGradient
       inkscape:collect="always"
       id="linearGradient842">
      <stop
         style="stop-color:#326e9a;stop-opacity:1"
         offset="0"
         id="stop838" />
      <stop
         style="stop-color:#339993;stop-opacity:1"
         offset="1"
         id="stop840" />
    </linearGradient>
  </defs>
  <metadata
     id="metadata5458">
    <rdf:RDF>
      <cc:Work
         rdf:about="">
        <dc:format>image/svg+xml</dc:format>
        <dc:type
           rdf:resource="http://purl.org/dc/dcmitype/StillImage" />
      </cc:Work>
    </rdf:RDF>
  </metadata>
  <g
     inkscape:label="Capa 1"
     inkscape:groupmode="layer"
     id="layer1"
     transform="translate(-384.57143,-515.798)">
    <path
       style="fill:url(#linearGradient862);fill-opacity:1;stroke-width:0.089569"
       d="m 400.57299,522.37783 c -0.44015,0 -0.96117,-0.25825 -1.15843,-0.57392 l -0.88506,-1.4186 c -0.19638,-0.31567 -0.71739,-0.57333 -1.15741,-0.57391 l -10.20054,-0.0134 c -0.97301,-10e-4 -1.3831,0.46747 -1.39694,1.50207 l -0.006,0.43614 v 1.28322 18.28577 c 0,0.35289 1.16035,1.28321 1.60036,1.28321 h 26.40756 c 0.44002,0 1.60037,-0.93032 1.60037,-1.28321 v -17.64417 c 0,-0.96241 -0.40003,-1.28321 -1.60037,-1.28321 z"
       id="path4-3-3"
       sodipodi:nodetypes="sccsssccsssssss" />
    <path
       style="fill:#f2f2f2;fill-opacity:1;stroke-width:0.0882825"
       d="m 413.46046,529.22773 c 0,0.66274 -0.39789,1.20498 -1.30857,1.20498 h -23.0978 c -0.91068,0 -1.25925,-0.54224 -1.25925,-1.20498 v -3.61492 c 0,-0.66275 0.34857,-1.20498 1.25925,-1.20498 h 23.04822 c 0.9107,0 1.35815,0.54223 1.35815,1.20498 z"
       id="path8-6-5"
       sodipodi:nodetypes="sssssssss" />
    <path
       style="fill:url(#linearGradient844-5);fill-opacity:1;stroke-width:0.0966695"
       d="m 413.94973,526.46374 h -26.75661 c -0.8109,0 -1.62169,0.73763 -1.62169,1.47526 v 14.38374 c 0,0.97553 0.62711,1.47525 1.62169,1.47525 h 26.75661 c 0.99774,0 1.62169,-0.49972 1.62169,-1.47525 V 527.939 c 0,-0.73763 -0.8108,-1.47526 -1.62169,-1.47526 z"
       id="path10-6"
       sodipodi:nodetypes="sssssssss" />
    <path
       d="m 413.82162,536.13416 v 0 0 c 0,0 0,0 0,0 0,0 0,0 0,0 z m -3.57936,6.02188 c -2.43127,0.59656 -5.00886,-0.73163 -5.87556,-3.17415 -0.31517,-0.88922 -0.3827,-1.80094 -0.1801,-2.72392 0.0113,-0.0225 0.0225,-0.0563 0.0337,-0.0788 0,0.0225 0,0.0563 0.0113,0.0788 0,0.0113 0.0113,0.0337 0.0225,0.045 0,-0.0225 0.0113,-0.0337 0.0113,-0.0563 0,-0.0675 0,-0.13507 0.0113,-0.21386 0.0675,0.0563 0.0225,0.13507 0.045,0.19135 0.0337,0.09 0.0337,0.1801 0.0337,0.2814 -0.0112,0.14633 0.12382,0.24763 0.22512,0.25888 0.19135,0.0225 0.30391,0.16884 0.47275,0.22512 0.0788,0.0225 0.12381,0.1013 0.13507,0.13507 0.0225,0.14633 0.13507,0.19135 0.22511,0.24763 0.0225,0.0112 0.045,0.0337 0.0675,0 0.0788,-0.15758 0.09,-0.045 0.12381,0.0225 0.0788,0.16884 0.0112,0.30391 -0.0788,0.43898 -0.0675,0.09 -0.14632,0.18009 -0.0675,0.3039 0.0112,0.0113 0,0.0451 -0.0113,0.0563 -0.0563,0.0901 -0.0225,0.15758 0.0337,0.23638 0.0788,0.11255 0.14632,0.22511 0.2026,0.34893 0.0788,0.15758 0.14633,0.30391 0.32642,0.3827 0.11256,0.045 0.1801,0.14632 0.19135,0.28139 0.0337,0.3827 0.0901,0.7654 0.14633,1.13685 0.0337,0.22511 0.21386,0.3827 0.29265,0.5853 0.0337,0.0901 0.0901,0.16884 0.15758,0.24763 0.12382,0.14633 0.30391,0.15758 0.4615,0.23637 0.0113,0 0.0337,0 0.045,0 -0.0113,-0.0113 -0.0337,-0.0225 -0.045,-0.0338 -0.10131,-0.09 -0.31517,-0.11255 -0.1801,-0.32642 0,-0.0113 -0.0113,-0.0337 -0.0113,-0.0337 -0.15758,-0.0338 -0.0788,-0.14632 -0.0675,-0.22511 0,-0.045 0.0451,-0.0788 -0.0225,-0.09 -0.0113,0 -0.0225,-0.0225 -0.0225,-0.0338 0.12381,0.0338 0.0788,-0.14633 0.18009,-0.14633 0.14633,0 0.20261,-0.0563 0.12381,-0.2026 -0.0225,-0.0337 -0.0563,-0.0788 0.0337,-0.0563 0.09,0.0225 0.13508,-0.0113 0.15759,-0.0901 0.0225,-0.0788 0.0563,-0.15758 0.12381,-0.22512 0.0563,-0.0675 0.0901,-0.14632 0.0675,-0.24762 -0.0337,-0.16884 0.13507,-0.20261 0.23637,-0.21387 0.21386,-0.0225 0.22512,-0.16883 0.27014,-0.31516 0.0338,-0.11256 0.0338,-0.22512 0.0225,-0.34893 -0.0113,-0.12382 0.0901,-0.20261 0.15758,-0.29266 0.0901,-0.11255 0.14633,-0.25888 0.0563,-0.36018 -0.09,-0.10131 -0.2026,-0.21386 -0.36019,-0.22512 -0.22511,-0.0113 -0.39395,-0.15758 -0.5853,-0.23637 -0.0675,-0.0225 -0.0675,-0.13507 -0.0901,-0.20261 -0.0563,-0.15758 -0.15758,-0.22511 -0.31516,-0.24762 -0.19135,-0.0225 -0.27014,-0.16884 -0.34893,-0.30391 -0.0563,-0.1013 -0.13507,-0.0563 -0.1801,-0.045 -0.11256,0.0337 -0.2026,0 -0.28139,-0.045 -0.19135,-0.1013 -0.34894,-0.0675 -0.48401,0.13507 -0.0225,0.0337 -0.0563,0.0901 -0.11256,0.0337 -0.0337,-0.0337 -0.0788,-0.0337 -0.13507,-0.0112 -0.1013,0.045 -0.19135,-0.0338 -0.18009,-0.14633 0,-0.0451 0.0113,-0.0901 0.0225,-0.13507 0.0337,-0.19135 0.0225,-0.21386 -0.16884,-0.19135 -0.0788,0.0113 -0.09,-0.0113 -0.0563,-0.0788 0.0337,-0.0675 0.0675,-0.13507 0.0788,-0.21386 0.0113,-0.0451 0.0788,-0.1013 0,-0.13507 -0.0563,-0.0225 -0.15759,0 -0.16884,0.0788 -0.0225,0.13507 -0.10131,0.16884 -0.21386,0.14633 -0.12382,-0.0337 -0.11256,-0.15759 -0.09,-0.24763 0.0225,-0.1801 0.0337,-0.3827 0.22512,-0.49526 0.045,-0.0337 0.09,-0.045 0.14632,-0.0337 0.0563,0.0113 0.10131,0.0113 0.15759,-0.045 0.0788,-0.0788 0.16883,-0.0225 0.25888,0 0.0675,0.0225 0.0337,0.0901 0.045,0.13507 0.0113,0.0675 0.0113,0.16884 0.0788,0.15758 0.0788,0 0.09,-0.1013 0.0675,-0.18009 -0.045,-0.16884 0.0112,-0.31517 0.16884,-0.39396 0.16884,-0.0901 0.24763,-0.23637 0.34893,-0.3827 0.0675,-0.11256 0.19135,-0.16884 0.30391,-0.24763 0.11256,-0.0675 0.2026,-0.19135 0.34893,-0.24763 0.0225,-0.0113 0.045,-0.0113 0.0563,-0.0225 -0.0113,0.0225 -0.0113,0.0337 -0.0225,0.0563 -0.0113,0.0225 -0.0225,0.0337 0,0.045 0.0112,0 0.0337,0 0.0451,-0.0113 0.0337,-0.045 0.09,-0.0563 0.14633,-0.0675 0.0337,-0.0113 0.09,-0.0337 0.1013,-0.0563 0,-0.045 -0.0563,-0.0225 -0.0788,-0.045 -0.0451,-0.0337 -0.0451,-0.0675 -0.0225,-0.10131 0.0225,-0.0563 0.1013,-0.11256 -0.0337,-0.11256 0,0 -0.0113,-0.0112 -0.0113,-0.0225 0.0113,0 0.0225,-0.0113 0.0337,-0.0113 0.15758,-0.0338 0.32642,0.0225 0.47274,-0.09 0.0113,0 0.0225,0.0113 0.0337,0.0113 -0.0113,0.0113 -0.0113,0.0225 -0.0225,0.0338 -0.0337,0.0788 -0.18009,0.11256 -0.13507,0.2026 0.0225,0.0451 0.15759,-0.0337 0.24763,0.0338 0.0337,0.0225 0.0901,0 0.0675,-0.0338 -0.0337,-0.0563 0.0788,-0.14632 -0.0225,-0.14632 -0.10131,-0.0113 -0.0675,-0.045 -0.0451,-0.0901 0.0675,-0.11256 0.09,-0.2026 -0.0563,-0.25888 -0.0788,-0.0338 -0.0337,-0.11256 -0.0563,-0.16884 -0.0225,-0.0901 -0.0337,-0.15758 -0.14633,-0.0675 -0.0451,0.0338 -0.16884,0.14633 -0.13507,-0.0563 0.0112,-0.045 -0.0675,-0.09 -0.1013,-0.09 -0.09,0 -0.20261,-0.0563 -0.24763,0.0563 -0.045,0.09 -0.15758,0.14632 -0.15758,0.27014 0,0.0337 -0.0563,0.0675 -0.1013,0.09 -0.09,0.0338 -0.15759,0.0788 -0.16884,0.18009 -0.0113,0.0563 -0.0563,0.1013 -0.11256,0.0788 -0.0675,-0.0338 -0.0113,-0.0901 0.0112,-0.12381 0.0451,-0.0563 0.0451,-0.10131 -0.0451,-0.0901 -0.09,0.0113 -0.14633,-0.0788 -0.24763,-0.0901 -0.0337,0 -0.0337,-0.09 0.0112,-0.12381 0.14633,-0.14633 0.33768,-0.19135 0.50651,-0.30391 0.045,-0.0338 0.0563,0.1013 0.0901,0.0337 0.0337,-0.0675 0.24763,0.0451 0.14633,-0.14633 0.0563,-0.0225 0.1013,-0.0337 0.15758,-0.0563 0.0788,-0.0338 0.1013,-0.13507 0.20261,-0.15758 0.09,-0.0113 0.19134,-0.0225 0.2026,0.0563 0.0113,0.0788 -0.1013,0.1013 -0.16884,0.13507 -0.0337,0.0112 -0.0675,0 -0.1013,0.0112 -0.0225,0.0113 -0.0563,0.0338 -0.0563,0.045 0,0.0337 0.0451,0.0225 0.0675,0.0225 0.0675,-0.0112 0.12381,-0.0112 0.16883,0.0563 0.0337,0.0451 0.15759,0.0675 0.15759,0.0451 0.0113,-0.1013 0.27014,-0.0225 0.13507,-0.2026 0,-0.0113 0,-0.0337 0,-0.0337 0.0225,-0.0225 0.0451,-0.0113 0.0675,0.0113 0.0788,0.09 0.14633,0.0112 0.1801,-0.0338 0.045,-0.0675 -0.0788,-0.0675 -0.0788,-0.0901 0,-0.14633 -0.13507,-0.12381 -0.20261,-0.16884 -0.0675,-0.0451 -0.12381,-0.0451 -0.19135,-0.0338 0.0225,0.0113 0.0225,0.045 0,0.0338 -0.0901,-0.0563 -0.15758,-0.0113 -0.23637,0 -0.0788,0.0225 -0.14633,0.0225 -0.21386,-0.0225 -0.0451,-0.0338 -0.0901,-0.0225 -0.13507,0 -0.0113,0 -0.0225,0.0113 -0.0225,0.0225 0,0 0.0113,0.0112 0.0225,0.0112 0.0337,0 0.0675,-0.0563 0.1013,-0.0112 -0.0451,0.0337 -0.09,0.0563 -0.14633,0.0675 v 0 c 0,0 0,0 0,0 -0.13507,-0.0225 -0.18009,0.0225 -0.16884,0.13507 0,0.0225 -0.0113,0.0451 -0.0225,0.0675 -0.0563,-0.045 -0.16883,0.0337 -0.16883,-0.0113 0,-0.0675 -0.0337,-0.16884 0.0563,-0.22511 1.08056,-0.64159 2.22866,-0.87796 3.4668,-0.6641 0.82168,0.14633 1.55331,0.47275 2.21741,0.97926 0.0337,0.0225 0.0563,0.0563 0.0788,0.0788 -0.045,0.0225 -0.0675,-0.0225 -0.1013,-0.0338 -0.10131,-0.045 -0.19135,-0.12381 -0.30391,-0.14632 -0.14633,-0.0225 -0.29265,-0.0451 -0.40521,0.0788 -0.0788,0.0788 -0.16884,0.13507 -0.2814,0.15758 -0.09,0.0225 -0.11256,0.0675 -0.0675,0.15758 0.0337,0.0901 0.0788,0.14633 0.16883,0.1013 0.0788,-0.045 0.11256,-0.0113 0.15759,0.045 0.0563,0.0675 0.0337,0.09 -0.0112,0.13507 -0.0113,0.0113 0.0112,0.0563 -0.0338,0.045 -0.0563,0.0112 -0.045,-0.0113 -0.045,-0.045 0,-0.0337 0.045,-0.09 -0.0225,-0.09 -0.0563,0 -0.10131,0.0563 -0.0788,0.11256 0.0451,0.09 -0.0112,0.11255 -0.0788,0.11255 -0.11255,0.0113 -0.15758,0.14633 -0.25888,0.15759 -0.0563,0.12381 -0.19135,0.0563 -0.2814,0.11256 -0.0225,0.0113 -0.0675,0 -0.0788,0.0338 0,0.0113 0.0337,0.0337 0.0563,0.045 0.0451,0.0225 0.0788,0.0563 0.11256,0.09 0.0451,0.0563 0.0337,0.11256 0.0113,0.16884 -0.0225,0.0675 -0.0788,0.0338 -0.12382,0.0338 -0.0112,0 -0.0225,0 -0.0225,0 -0.29265,-0.0338 -0.3827,0.0563 -0.33767,0.34893 0.0113,0.0563 0.0113,0.13507 0.11256,0.12382 0.0788,0 0.11256,0.0563 0.0563,0.12381 -0.11256,0.13507 -0.23638,0.27014 -0.29266,0.45024 -0.0337,0.0788 -0.15758,0.0788 -0.21386,0.18009 -0.0788,0.18009 -0.28139,0.30391 -0.2026,0.55154 0.0337,0.1013 0,0.2026 -0.0337,0.31516 -0.0337,0.10131 -0.0337,0.22512 0.0675,0.31517 0.16884,0.13507 0.22512,0.36018 0.41647,0.47274 0.0788,0.0451 0.13507,0.0563 0.22512,0.0451 0.21386,-0.0225 0.41646,-0.09 0.61907,-0.1013 0.12381,-0.0113 0.25888,0.12381 0.39395,0.18009 0.0788,0.0337 0,0.18009 -0.0112,0.27014 -0.0113,0.0788 -0.0113,0.13507 0.045,0.19135 0.16884,0.18009 0.19135,0.40521 0.23638,0.63033 0.0225,0.1013 -0.0901,0.16884 -0.11256,0.27014 -0.0337,0.13507 -0.0563,0.25888 0.0225,0.3827 0.0788,0.12381 0.11256,0.25888 0.0901,0.40521 -0.0113,0.14633 0.11255,0.22512 0.13507,0.34893 0.045,0.24763 0.0563,0.23637 0.31516,0.19135 0.29265,-0.0563 0.42772,-0.29265 0.55154,-0.52902 0.0337,-0.0563 0.0337,-0.11256 0.1013,-0.13508 0.0675,-0.0337 0.1013,-0.12381 0.0788,-0.19134 -0.0337,-0.14633 0.045,-0.24763 0.14633,-0.31517 0.21386,-0.13507 0.23637,-0.33768 0.18009,-0.52902 -0.1013,-0.37145 0.0788,-0.63033 0.29265,-0.87796 0.16884,-0.19135 0.22512,-0.40521 0.25889,-0.63033 0.0113,-0.0563 0,-0.1013 -0.0788,-0.0563 -0.0337,0.0225 -0.0675,0.0338 -0.11255,0.045 -0.0563,0.0113 -0.12381,0.0338 -0.15758,-0.045 -0.0451,-0.1013 0.0563,-0.0788 0.09,-0.09 0.20261,-0.11256 0.41647,-0.22512 0.45023,-0.49526 0.0112,-0.0788 0,-0.15758 -0.0563,-0.22512 -0.0337,-0.045 -0.0563,-0.1013 -0.0337,-0.15758 0.24762,0.27014 0.21386,0.63033 0.22511,0.94549 0.12382,2.3975 -1.48577,4.47983 -3.77071,5.04263 z m -4.33351,-5.70672 c -0.12381,-0.0788 -0.22512,-0.2026 -0.39395,-0.2026 -0.0451,0.0113 -0.10131,0.0225 -0.14633,0.0675 -0.0113,0.0113 -0.0225,0.0563 0.0113,0.045 0.18009,-0.0675 0.28139,0.0113 0.39395,0.13507 0.0225,0.0225 0.0901,0.045 0.14633,0.0113 0,-0.0225 -0.0113,-0.0563 -0.0113,-0.0563 z m 0.33768,0.12382 c -0.0451,-0.0675 -0.11256,-0.0788 -0.19135,-0.0901 -0.10131,-0.0225 -0.0563,0.12382 -0.13507,0.11256 0.0337,0.0113 0.0675,0.0338 0.11256,0.0451 0.0675,-0.0338 0.14632,-0.0451 0.21386,-0.0675 z m 3.89453,-3.25295 c 0,-0.045 -0.0451,-0.0563 -0.0788,-0.0563 -0.0901,0 -0.1801,0 -0.27014,0 -0.0337,0 -0.0788,-0.0338 -0.10131,0.0113 0.045,0.0225 0.0113,0.10131 0.0788,0.12382 0.0337,0.0113 0.0788,0.0113 0.12382,0.0225 0.0563,-0.0113 0.12381,-0.0337 0.18009,-0.045 0.0337,-0.0225 0.0675,-0.0225 0.0675,-0.0563 z m 0.36018,0.60782 c 0.0675,0.0338 0.1801,0.045 0.0563,0.15758 -0.0338,0.0337 0,0.11256 -0.045,0.15758 0.0563,0.0338 0.10131,-0.0113 0.14633,-0.0113 0.0675,0 0.14633,-0.0112 0.21386,-0.0225 0,-0.1013 -0.0563,-0.18009 -0.13507,-0.25888 -0.0225,-0.0225 -0.0563,-0.0563 -0.0563,-0.09 0.0113,-0.11256 -0.0563,-0.16884 -0.14632,-0.14633 -0.0901,0.0337 -0.0788,0.12382 -0.0337,0.21386 z m -0.1013,-0.0225 c -0.0563,0.0113 -0.14632,0.0338 -0.14632,0.1013 0,0.045 -0.0675,0.11256 0,0.13507 0.045,0.0113 0.13507,-0.0113 0.16883,-0.0451 0.045,-0.045 0.0563,-0.11256 0.0788,-0.16884 -0.0337,-0.0113 -0.0675,-0.0225 -0.1013,-0.0225 z m -0.73163,-0.78791 c 0.0451,0 0.0901,-0.0338 0.13507,-0.0563 0.0225,-0.0113 0.045,-0.0225 0.0337,-0.0451 -0.12381,-0.13507 0.0451,-0.0563 0.0675,-0.0901 0.0225,-0.0225 0.09,-0.0337 0.1013,-0.0563 0.0337,-0.14632 0.14633,-0.16884 0.2814,-0.16884 -0.0113,0 0.0112,-0.0113 0.0225,-0.0113 -0.0113,-0.0113 -0.0225,-0.0225 -0.0451,-0.0225 -0.12382,-0.0225 -0.24763,-0.045 -0.37145,-0.0675 -0.52902,-0.0675 -1.05805,0.045 -1.59833,0.0113 -0.30391,-0.0225 -0.58531,0.11256 -0.88921,0.14632 -0.045,0 -0.0901,0.0338 -0.13507,0.045 -0.0113,0 -0.0451,0.0338 -0.0113,0.0338 0.1013,0.0225 0,0.045 0,0.045 -0.0337,0.045 -0.0901,0.0225 -0.13507,0.0338 -0.0225,0.0113 -0.0563,0.0338 -0.0563,0.045 0.0113,0.0338 0.0451,0.0113 0.0675,0.0113 0.0788,0 0.15758,0 0.23637,-0.0113 v 0 c 0.16884,-0.12381 0.36019,-0.16883 0.55154,-0.23637 0.0225,-0.0113 0.0451,0 0.0675,-0.0113 0,0.20261 0.14632,0.0675 0.21386,0.0901 0.0901,0.0225 0.22512,-0.0337 0.19135,0.14632 0,0.0112 0.0113,0.0225 0.0225,0.0337 0.0675,0.0563 0.0451,0.11256 -0.0225,0.13507 -0.13507,0.0337 -0.11256,0.14633 -0.12382,0.24763 0,0.15758 0.13507,0.16884 0.23638,0.21386 0.09,0.0338 0.12381,-0.045 0.16883,-0.09 0.0901,-0.0788 0.14633,-0.19134 0.27015,-0.2026 0.24762,-0.0337 0.47274,-0.15758 0.72037,-0.16884 z m 3.91704,5.75174 c -0.0113,-0.0337 -0.0225,-0.0563 -0.0225,-0.0901 -0.0225,0.0225 -0.0451,0.0451 -0.0563,0.0675 -0.0225,0.0338 -0.0337,0.1013 -0.0788,0.12381 -0.21386,0.14633 -0.15758,0.3827 -0.23637,0.58531 -0.0112,0.0338 -0.0112,0.0788 0.0337,0.09 0.0337,0.0113 0.0675,-0.0113 0.0901,-0.045 0.11255,-0.23637 0.21385,-0.47274 0.27013,-0.73163 z m -0.79916,-3.23043 c -0.0337,0.0788 -0.11256,0 -0.15759,0.0113 -0.19135,0.045 -0.33767,-0.0451 -0.49525,-0.12381 -0.0563,-0.0225 -0.12382,-0.0113 -0.13507,0.0338 -0.0788,0.25888 -0.1801,-0.0225 -0.25889,0.0112 -0.0112,0 -0.0337,-0.0563 -0.045,-0.0563 -0.18009,-0.0225 -0.30391,-0.0788 -0.24763,-0.30391 0.0113,-0.0337 -0.0563,-0.0563 -0.0901,-0.045 -0.22511,0.0338 -0.47274,-0.045 -0.67535,0.11256 -0.0225,0.0225 -0.0675,0 -0.1013,0 -0.0337,0 -0.1013,0.0113 -0.1013,-0.0338 0,-0.0563 0.0563,-0.045 0.1013,-0.0563 0.11256,-0.0113 0.16884,-0.0788 0.21386,-0.1801 0.0563,-0.14632 0.20261,-0.21386 0.30391,-0.28139 0.22512,-0.16884 0.30391,0.0337 0.42772,0.12381 0.045,0.0338 0.09,0.0675 0.14633,0.0901 0.0337,0.0225 0.0675,0.0563 0.0563,0.0901 -0.0113,0.0563 -0.0563,0.045 -0.10131,0.045 -0.0225,0.0113 -0.0675,-0.0225 -0.0788,0.0225 0,0.0113 0.0225,0.0337 0.045,0.045 0.0337,0.0113 0.0788,0.0675 0.10131,0.0225 0.0225,-0.0563 0.0675,-0.0901 0.1013,-0.14633 0.11256,-0.16884 -0.0788,-0.14633 -0.12381,-0.21386 -0.0113,-0.0225 -0.0563,-0.0225 -0.0563,-0.0451 -0.0225,-0.0563 -0.13507,-0.1013 -0.0788,-0.15758 0.0563,-0.0563 0.10131,0.0563 0.15759,0.0788 0.21386,0.0788 0.23637,0.30391 0.34893,0.45023 0.0225,0.0338 0.0337,0.1013 0.0901,0.0788 0.0451,-0.0225 0.0675,-0.0788 0.0451,-0.13507 -0.0113,-0.0563 -0.0563,-0.11256 0.0225,-0.13507 0.09,-0.0225 0.1013,0.0563 0.11255,0.11256 0.0225,0.14633 0.11256,0.20261 0.25889,0.20261 0.0788,0 0.14633,0.0675 0.23637,0.0338 0.0113,0 0.0337,0.0112 0.0337,0.0337 0.0113,0.13507 -0.0225,0.22511 -0.0563,0.31516 z m -1.4295,-0.6641 c -0.0225,-0.0563 0.0113,-0.12381 -0.045,-0.18009 -0.0113,0.0563 -0.0337,0.11256 -0.0451,0.16884 0.0337,0.0225 -0.0113,0.09 0.0563,0.09 0.0337,-0.0112 0.045,-0.0563 0.0337,-0.0788 z m 1.32819,-0.21386 c -0.0451,0.0113 -0.0788,0.0113 -0.11256,-0.0337 -0.0337,-0.0451 -0.0675,-0.12381 -0.12381,-0.0675 -0.0675,0.0563 -0.1013,0.14632 -0.0788,0.23637 0.0225,0.0675 0.0901,0.1013 0.14633,0.0788 0.13507,-0.0563 0.24762,-0.0225 0.36018,0.045 0.0337,0.0225 0.0901,0.0563 0.11256,0 0.0225,-0.0563 -0.0225,-0.0788 -0.0563,-0.1013 -0.0563,-0.0451 -0.12381,-0.0901 -0.16884,-0.14633 -0.0225,-0.0337 0.0225,-0.1013 -0.0675,-0.09 -0.0112,0 -0.0225,0 -0.0225,0.0113 -0.0225,0.0451 0.0337,0.0338 0.0451,0.0563 0,0.0113 -0.0113,0.0113 -0.0337,0.0113 z m 0.34894,1.46327 c -0.0337,-0.10131 -0.10131,-0.1801 -0.15759,-0.27015 -0.0112,-0.0225 -0.0337,-0.045 -0.0675,-0.0338 -0.0451,0.0113 -0.0225,0.0451 -0.0113,0.0675 0.13507,0.27014 0.24763,0.55154 0.36019,0.82168 0.0225,0.0563 0.09,0.1013 0.14632,0.15758 0.0113,0.0113 0.0225,0.0113 0.0337,0.0225 0,-0.0112 0.0113,-0.0337 0,-0.0112 0,-0.32642 -0.21386,-0.50651 -0.30391,-0.75414 z m -1.23815,-2.53257 c -0.045,-0.0788 -0.0112,-0.11256 0.0563,-0.14633 0.0113,-0.0112 0.0337,-0.0337 0.0113,-0.0337 -0.0225,-0.0113 -0.0675,-0.0113 -0.0675,0 -0.0337,0.0788 -0.29265,0.0675 -0.09,0.23637 0,0 0,0.0338 0,0.0338 -0.0788,0.0563 -0.0563,0.22512 -0.21386,0.20261 -0.0113,0 -0.0451,0 -0.0225,0.0225 0.0901,0.11256 0.21386,0 0.32642,0.0337 0.0337,0.0113 0.0563,-0.0337 0.0675,-0.0788 0.0112,-0.12382 0.045,-0.22512 0.2026,-0.14633 0.0113,0.0113 0.045,0.0113 0.045,-0.0113 0,0 -0.0225,-0.0225 -0.045,-0.0225 -0.0225,0 -0.0563,0 -0.0788,0 -0.0788,-0.0112 -0.14633,-0.0112 -0.19135,-0.09 z m 2.02605,2.44252 c -0.11256,-0.0563 -0.21386,-0.12382 -0.24763,-0.24763 -0.0113,-0.0225 -0.0338,-0.0675 -0.0675,-0.045 -0.0337,0.0225 -0.0225,0.0563 0,0.09 0.0451,0.0675 0.1013,0.11256 0.12381,0.1801 0.0563,0.21386 0.11256,0.14632 0.19135,0.0225 0,0 0,0 0,0 z m -7.06868,-3.03909 c -0.0788,0.0451 0.045,0.0563 0.0112,0.11256 -0.0337,0.0563 0.0563,0.0901 0.0788,0.0788 0.10131,-0.0113 0.10131,-0.1013 0.0788,-0.18009 -0.0113,-0.0451 -0.0563,-0.0113 -0.09,0 -0.0337,0.0225 -0.0563,0.0225 -0.0788,-0.0113 -0.0113,0 0,0 0,0 z m -0.79917,1.44076 c 0.0112,-0.0451 -0.0337,-0.0563 -0.0675,-0.0563 -0.0675,0.0113 -0.13507,0.045 -0.16884,0.09 -0.0112,0.0225 0.0675,-0.0113 0.0901,0.0225 0.045,-0.0337 0.13507,0.0338 0.14632,-0.0563 z m -0.0113,0.18009 c -0.0225,0.0225 0.0113,0.0563 0.0225,0.0451 0.045,-0.0338 0.1013,-0.0675 0.13507,-0.11256 0.0112,-0.0113 -0.0563,-0.0338 -0.1013,-0.0338 -0.09,-0.0225 -0.0225,0.0675 -0.0563,0.1013 z m 6.89985,3.23043 c -0.0563,0 -0.0788,0.0337 -0.0901,0.0788 0,0.0338 -0.0112,0.0788 0.0451,0.0788 0.0563,0 0.0563,-0.0675 0.0788,-0.1013 0.0225,-0.0451 -0.0113,-0.0451 -0.0337,-0.0563 z m -7.01241,-3.27545 c -0.0563,0.0113 -0.09,0.0563 -0.11255,0.1013 -0.0225,0.0338 -0.0451,0.0901 -0.0563,0.12381 0.0113,0 0.0225,0.0113 0.0337,0 0.0675,-0.0563 0.0675,-0.15758 0.15758,-0.21386 -0.0225,0 -0.0225,-0.0113 -0.0225,-0.0113 z"
       id="path2-2"
       style="fill:#f2f2f2;fill-opacity:1;stroke-width:0.112558" />
  </g>
</svg>
