<?xml version="1.0" encoding="UTF-8" standalone="no"?>
<svg
   width="32"
   version="1.1"
   height="32"
   viewBox="0 0 32 32"
   id="svg15"
   sodipodi:docname="folder-docker.svg"
   inkscape:version="1.1.1 (3bf5ae0d25, 2021-09-20)"
   xmlns:inkscape="http://www.inkscape.org/namespaces/inkscape"
   xmlns:sodipodi="http://sodipodi.sourceforge.net/DTD/sodipodi-0.dtd"
   xmlns:xlink="http://www.w3.org/1999/xlink"
   xmlns="http://www.w3.org/2000/svg"
   xmlns:svg="http://www.w3.org/2000/svg"
   xmlns:rdf="http://www.w3.org/1999/02/22-rdf-syntax-ns#"
   xmlns:cc="http://creativecommons.org/ns#"
   xmlns:dc="http://purl.org/dc/elements/1.1/">
  <sodipodi:namedview
     pagecolor="#ffffff"
     bordercolor="#666666"
     borderopacity="1"
     objecttolerance="10"
     gridtolerance="10"
     guidetolerance="10"
     inkscape:pageopacity="0"
     inkscape:pageshadow="2"
     inkscape:window-width="1920"
     inkscape:window-height="1006"
     id="namedview17"
     showgrid="false"
     inkscape:zoom="9.8125"
     inkscape:cx="-12.942675"
     inkscape:cy="6.522293"
     inkscape:window-x="0"
     inkscape:window-y="0"
     inkscape:window-maximized="1"
     inkscape:current-layer="layer1"
     inkscape:document-rotation="0"
     inkscape:pagecheckerboard="0" />
  <defs
     id="defs5455">
    <linearGradient
       inkscape:collect="always"
       id="linearGradient860">
      <stop
         style="stop-color:#78acd3;stop-opacity:1"
         offset="0"
         id="stop856" />
      <stop
         style="stop-color:#d98cbb;stop-opacity:1"
         offset="1"
         id="stop858" />
    </linearGradient>
    <linearGradient
       inkscape:collect="always"
       id="linearGradient842">
      <stop
         style="stop-color:#326e9a;stop-opacity:1"
         offset="0"
         id="stop838" />
      <stop
         style="stop-color:#339993;stop-opacity:1"
         offset="1"
         id="stop840" />
    </linearGradient>
    <linearGradient
       inkscape:collect="always"
       xlink:href="#linearGradient860"
       id="linearGradient862-3"
       x1="113.94677"
       y1="255.36646"
       x2="406.08289"
       y2="255.36646"
       gradientUnits="userSpaceOnUse"
       gradientTransform="matrix(0.10135135,0,0,0.09220346,374.22015,507.65424)" />
    <linearGradient
       inkscape:collect="always"
       xlink:href="#linearGradient842"
       id="linearGradient844-5"
       x1="386.30627"
       y1="522.45404"
       x2="446.83023"
       y2="522.45404"
       gradientUnits="userSpaceOnUse"
       gradientTransform="matrix(0.49567132,0,0,0.49972085,194.0905,274.04969)" />
  </defs>
  <metadata
     id="metadata5458">
    <rdf:RDF>
      <cc:Work
         rdf:about="">
        <dc:format>image/svg+xml</dc:format>
        <dc:type
           rdf:resource="http://purl.org/dc/dcmitype/StillImage" />
      </cc:Work>
    </rdf:RDF>
  </metadata>
  <g
     inkscape:label="Capa 1"
     inkscape:groupmode="layer"
     id="layer1"
     transform="translate(-384.57143,-515.798)">
    <path
       style="fill:url(#linearGradient862-3);fill-opacity:1;stroke-width:0.089569"
       d="m 400.57301,522.37783 c -0.44016,0 -0.96119,-0.25824 -1.15846,-0.57392 l -0.88505,-1.41859 c -0.19637,-0.31567 -0.7174,-0.57334 -1.1574,-0.57391 l -10.20056,-0.0134 c -0.973,-0.002 -1.3831,0.46748 -1.39693,1.50207 l -0.006,0.43614 v 1.28321 18.28579 c 0,0.35288 1.16036,1.28321 1.60036,1.28321 h 26.40757 c 0.44001,0 1.60036,-0.93033 1.60036,-1.28321 v -17.64418 c 0,-0.96241 -0.40002,-1.28321 -1.60036,-1.28321 z"
       id="path4-3-6"
       sodipodi:nodetypes="sccsssccsssssss" />
    <path
       style="fill:#f2f2f2;fill-opacity:1;stroke-width:0.0882825"
       d="m 413.46046,529.22774 c 0,0.66274 -0.39788,1.20497 -1.30857,1.20497 H 389.0541 c -0.9107,0 -1.25926,-0.54223 -1.25926,-1.20497 v -3.61492 c 0,-0.66274 0.34856,-1.20498 1.25926,-1.20498 h 23.04822 c 0.91069,0 1.35814,0.54224 1.35814,1.20498 z"
       id="path8-6-2"
       sodipodi:nodetypes="sssssssss" />
    <path
       style="fill:url(#linearGradient844-5);fill-opacity:1;stroke-width:0.09667"
       d="m 413.94973,526.46375 h -26.7566 c -0.81091,0 -1.6217,0.73763 -1.6217,1.47526 v 14.38374 c 0,0.97553 0.62711,1.47525 1.6217,1.47525 h 26.7566 c 0.99775,0 1.6217,-0.49972 1.6217,-1.47525 v -14.38374 c 0,-0.73763 -0.8108,-1.47526 -1.6217,-1.47526 z"
       id="path10-9"
       sodipodi:nodetypes="sssssssss" />
    <path
       d="m 406.94643,542.298 c -2.08174,0 -3.375,-1.58055 -3.375,-4.125 0,-0.20707 0.16792,-0.375 0.375,-0.375 h 6.0531 c -0.0355,-0.14411 -0.0531,-0.28728 -0.0531,-0.42866 0,-0.95528 0.81333,-1.69463 0.84813,-1.72579 0.14209,-0.12742 0.35817,-0.12742 0.50025,0 0.0348,0.0312 0.84814,0.77051 0.84814,1.72579 0,0.0368 -10e-4,0.0738 -0.003,0.11077 0.99536,-0.0606 1.80432,0.80862 1.83656,0.8445 0.12743,0.14247 0.12743,0.35779 0,0.50025 -0.0311,0.0346 -0.77013,0.84814 -1.72593,0.84814 -0.24353,0 -0.49035,-0.0518 -0.73793,-0.15454 -0.72911,1.56593 -2.67607,2.77954 -4.56555,2.77954 z m -2.61199,-3.75 c 0.0701,1.02559 0.48247,3 2.61199,3 1.71952,0 3.55627,-1.22149 4.01073,-2.6673 0.0352,-0.11115 0.11974,-0.19976 0.2289,-0.23985 0.11059,-0.0401 0.23108,-0.0267 0.32997,0.0357 0.25777,0.1635 0.50463,0.24645 0.73387,0.24645 0.34279,0 0.66469,-0.18438 0.88331,-0.34864 -0.21791,-0.16387 -0.53943,-0.34788 -0.88331,-0.34788 -0.14722,0 -0.30247,0.0362 -0.4746,0.11077 -0.141,0.0613 -0.30544,0.0296 -0.41418,-0.0789 -0.10876,-0.10875 -0.14026,-0.27281 -0.0791,-0.41419 0.0747,-0.17231 0.11096,-0.32756 0.11096,-0.47478 0,-0.3426 -0.18458,-0.6645 -0.34864,-0.88313 -0.1641,0.21806 -0.34792,0.5394 -0.34792,0.88309 0,0.19447 0.0608,0.40429 0.1809,0.62347 0.0637,0.11629 0.0612,0.25725 -0.006,0.37133 -0.0674,0.11392 -0.19005,0.18386 -0.32261,0.18386 z"
       id="path2"
       style="fill:#f2f2f2;fill-opacity:1;stroke-width:0.375" />
    <path
       d="m 409.19643,537.423 h -1.125 c -0.20708,0 -0.375,-0.16792 -0.375,-0.375 v -1.125 c 0,-0.20707 0.16792,-0.375 0.375,-0.375 h 1.125 c 0.20726,0 0.375,0.16793 0.375,0.375 v 1.125 c 0,0.20708 -0.16774,0.375 -0.375,0.375 z m -0.75,-0.75 h 0.375 v -0.375 h -0.375 z"
       id="path4"
       style="fill:#f2f2f2;fill-opacity:1;stroke-width:0.375" />
    <path
       d="m 405.82143,537.423 h -1.125 c -0.20708,0 -0.375,-0.16792 -0.375,-0.375 v -1.125 c 0,-0.20707 0.16792,-0.375 0.375,-0.375 h 1.125 c 0.20707,0 0.375,0.16793 0.375,0.375 v 1.125 c 0,0.20708 -0.16793,0.375 -0.375,0.375 z m -0.75,-0.75 h 0.375 v -0.375 h -0.375 z"
       id="path6"
       style="fill:#f2f2f2;fill-opacity:1;stroke-width:0.375" />
    <path
       d="m 406.94643,536.298 h -1.125 c -0.20708,0 -0.375,-0.16792 -0.375,-0.375 v -1.125 c 0,-0.20707 0.16792,-0.375 0.375,-0.375 h 1.125 c 0.20707,0 0.375,0.16793 0.375,0.375 v 1.125 c 0,0.20708 -0.16793,0.375 -0.375,0.375 z m -0.75,-0.75 h 0.375 v -0.375 h -0.375 z"
       id="path8"
       style="fill:#f2f2f2;fill-opacity:1;stroke-width:0.375" />
    <path
       d="m 406.94643,537.423 h -1.125 c -0.20708,0 -0.375,-0.16792 -0.375,-0.375 v -1.125 c 0,-0.20707 0.16792,-0.375 0.375,-0.375 h 1.125 c 0.20707,0 0.375,0.16793 0.375,0.375 v 1.125 c 0,0.20708 -0.16793,0.375 -0.375,0.375 z m -0.75,-0.75 h 0.375 v -0.375 h -0.375 z"
       id="path10-5"
       style="fill:#f2f2f2;fill-opacity:1;stroke-width:0.375" />
    <path
       d="m 408.07143,535.173 h -1.125 c -0.20708,0 -0.375,-0.16792 -0.375,-0.375 v -1.125 c 0,-0.20707 0.16792,-0.375 0.375,-0.375 h 1.125 c 0.20707,0 0.375,0.16793 0.375,0.375 v 1.125 c 0,0.20708 -0.16793,0.375 -0.375,0.375 z m -0.75,-0.75 h 0.375 v -0.375 h -0.375 z"
       id="path12"
       style="fill:#f2f2f2;fill-opacity:1;stroke-width:0.375" />
    <path
       d="m 408.07143,536.298 h -1.125 c -0.20708,0 -0.375,-0.16792 -0.375,-0.375 v -1.125 c 0,-0.20707 0.16792,-0.375 0.375,-0.375 h 1.125 c 0.20707,0 0.375,0.16793 0.375,0.375 v 1.125 c 0,0.20708 -0.16793,0.375 -0.375,0.375 z m -0.75,-0.75 h 0.375 v -0.375 h -0.375 z"
       id="path14"
       style="fill:#f2f2f2;fill-opacity:1;stroke-width:0.375" />
    <path
       d="m 408.07143,537.423 h -1.125 c -0.20708,0 -0.375,-0.16792 -0.375,-0.375 v -1.125 c 0,-0.20707 0.16792,-0.375 0.375,-0.375 h 1.125 c 0.20707,0 0.375,0.16793 0.375,0.375 v 1.125 c 0,0.20708 -0.16793,0.375 -0.375,0.375 z m -0.75,-0.75 h 0.375 v -0.375 h -0.375 z"
       id="path16"
       style="fill:#f2f2f2;fill-opacity:1;stroke-width:0.375" />
    <circle
       cx="405.63391"
       cy="539.4856"
       id="circle18"
       style="fill:#f2f2f2;fill-opacity:1;stroke-width:0.375"
       r="0.56249994" />
  </g>
</svg>
