<?xml version="1.0" encoding="UTF-8" standalone="no"?>
<svg
   width="32"
   version="1.1"
   height="32"
   viewBox="0 0 32 32"
   id="svg15"
   sodipodi:docname="folder-presentation.svg"
   inkscape:version="1.1.1 (3bf5ae0d25, 2021-09-20)"
   xmlns:inkscape="http://www.inkscape.org/namespaces/inkscape"
   xmlns:sodipodi="http://sodipodi.sourceforge.net/DTD/sodipodi-0.dtd"
   xmlns:xlink="http://www.w3.org/1999/xlink"
   xmlns="http://www.w3.org/2000/svg"
   xmlns:svg="http://www.w3.org/2000/svg"
   xmlns:rdf="http://www.w3.org/1999/02/22-rdf-syntax-ns#"
   xmlns:cc="http://creativecommons.org/ns#"
   xmlns:dc="http://purl.org/dc/elements/1.1/">
  <sodipodi:namedview
     pagecolor="#ffffff"
     bordercolor="#666666"
     borderopacity="1"
     objecttolerance="10"
     gridtolerance="10"
     guidetolerance="10"
     inkscape:pageopacity="0"
     inkscape:pageshadow="2"
     inkscape:window-width="1920"
     inkscape:window-height="1006"
     id="namedview17"
     showgrid="false"
     inkscape:zoom="9.8125"
     inkscape:cx="-12.942675"
     inkscape:cy="6.522293"
     inkscape:window-x="0"
     inkscape:window-y="0"
     inkscape:window-maximized="1"
     inkscape:current-layer="layer1"
     inkscape:document-rotation="0"
     inkscape:pagecheckerboard="0" />
  <defs
     id="defs5455">
    <linearGradient
       inkscape:collect="always"
       id="linearGradient860">
      <stop
         style="stop-color:#78acd3;stop-opacity:1"
         offset="0"
         id="stop856" />
      <stop
         style="stop-color:#d98cbb;stop-opacity:1"
         offset="1"
         id="stop858" />
    </linearGradient>
    <linearGradient
       inkscape:collect="always"
       id="linearGradient842">
      <stop
         style="stop-color:#326e9a;stop-opacity:1"
         offset="0"
         id="stop838" />
      <stop
         style="stop-color:#339993;stop-opacity:1"
         offset="1"
         id="stop840" />
    </linearGradient>
    <linearGradient
       inkscape:collect="always"
       xlink:href="#linearGradient860"
       id="linearGradient862-3"
       x1="113.94677"
       y1="255.36646"
       x2="406.08289"
       y2="255.36646"
       gradientUnits="userSpaceOnUse"
       gradientTransform="matrix(0.10135133,0,0,0.09220346,374.22015,507.65425)" />
    <linearGradient
       inkscape:collect="always"
       xlink:href="#linearGradient842"
       id="linearGradient844-5"
       x1="386.30627"
       y1="522.45404"
       x2="446.83023"
       y2="522.45404"
       gradientUnits="userSpaceOnUse"
       gradientTransform="matrix(0.49567121,0,0,0.49972084,194.09054,274.04969)" />
  </defs>
  <metadata
     id="metadata5458">
    <rdf:RDF>
      <cc:Work
         rdf:about="">
        <dc:format>image/svg+xml</dc:format>
        <dc:type
           rdf:resource="http://purl.org/dc/dcmitype/StillImage" />
      </cc:Work>
    </rdf:RDF>
  </metadata>
  <g
     inkscape:label="Capa 1"
     inkscape:groupmode="layer"
     id="layer1"
     transform="translate(-384.57143,-515.798)">
    <path
       style="fill:url(#linearGradient862-3);fill-opacity:1;stroke-width:0.0895685"
       d="m 400.573,522.37784 c -0.44016,0 -0.96118,-0.25825 -1.15845,-0.57392 l -0.88505,-1.41859 c -0.19637,-0.31568 -0.7174,-0.57334 -1.1574,-0.57392 l -10.20056,-0.0134 c -0.973,-0.002 -1.3831,0.46748 -1.39693,1.50207 l -0.006,0.43614 v 1.28321 18.28578 c 0,0.35289 1.16036,1.28322 1.60036,1.28322 h 26.40756 c 0.44001,0 1.60036,-0.93033 1.60036,-1.28322 v -17.64417 c 0,-0.96241 -0.40002,-1.28321 -1.60036,-1.28321 z"
       id="path4-3-6"
       sodipodi:nodetypes="sccsssccsssssss" />
    <path
       style="fill:#f2f2f2;fill-opacity:1;stroke-width:0.088283"
       d="m 413.46046,529.22775 c 0,0.66274 -0.39789,1.20497 -1.30858,1.20497 H 389.0541 c -0.9107,0 -1.25926,-0.54223 -1.25926,-1.20497 v -3.61493 c 0,-0.66274 0.34856,-1.20498 1.25926,-1.20498 h 23.04822 c 0.91068,0 1.35814,0.54224 1.35814,1.20498 z"
       id="path8-6-2"
       sodipodi:nodetypes="sssssssss" />
    <path
       style="fill:url(#linearGradient844-5);fill-opacity:1;stroke-width:0.09667"
       d="m 413.94972,526.46376 h -26.75659 c -0.81091,0 -1.6217,0.73763 -1.6217,1.47525 v 14.38374 c 0,0.97554 0.62711,1.47525 1.6217,1.47525 h 26.75659 c 0.99775,0 1.6217,-0.49971 1.6217,-1.47525 v -14.38374 c 0,-0.73762 -0.8108,-1.47525 -1.6217,-1.47525 z"
       id="path10-9"
       sodipodi:nodetypes="sssssssss" />
    <path
       fill-rule="evenodd"
       clip-rule="evenodd"
       d="m 412.78603,542.298 h -4.82175 c -0.17727,0 -0.32111,-0.14424 -0.32111,-0.32143 0,-0.17767 0.14384,-0.32158 0.32111,-0.32158 h 4.82175 c 0.35502,0 0.64286,-0.28785 0.64286,-0.64286 v -6.42857 c 0,-0.35502 -0.28784,-0.64269 -0.64286,-0.64269 h -6.42873 c -0.35494,0 -0.64294,0.28767 -0.64294,0.64269 v 6.10714 c 0,0.17767 -0.14376,0.32143 -0.32143,0.32143 -0.17735,0 -0.32151,-0.14376 -0.32151,-0.32143 v -6.10714 c 0,-0.71004 0.57592,-1.28555 1.28588,-1.28555 h 6.42873 c 0.70988,0 1.28539,0.57551 1.28539,1.28555 v 6.42857 c 0,0.71003 -0.57551,1.28587 -1.28539,1.28587 z m -6.10722,-0.64301 c 0.17726,0 0.32142,0.14391 0.32142,0.32158 0,0.17719 -0.14416,0.32143 -0.32142,0.32143 -0.17767,0 -0.32151,-0.14424 -0.32151,-0.32143 0,-0.17767 0.14384,-0.32158 0.32151,-0.32158 z"
       id="path2"
       style="fill:#f2f2f2;fill-opacity:1;stroke-width:0.0200892" />
    <path
       fill-rule="evenodd"
       clip-rule="evenodd"
       d="m 411.83867,539.13295 c -0.0828,0 -0.15,-0.0672 -0.15,-0.15 v -2.39999 c 0,-0.0828 -0.0672,-0.15001 -0.15,-0.15001 h -0.3 c -0.0828,0 -0.15,0.0672 -0.15,0.15001 v 3.07499 c 0,0.20713 -0.16787,0.375 -0.375,0.375 h -0.15 c -0.20713,0 -0.375,-0.16787 -0.375,-0.375 v -1.575 c 0,-0.0828 -0.0672,-0.15 -0.15,-0.15 h -0.3 c -0.0828,0 -0.15,0.0672 -0.15,0.15 v 1.575 c 0,0.20713 -0.16787,0.375 -0.375,0.375 h -0.15 c -0.20713,0 -0.375,-0.16787 -0.375,-0.375 v -0.975 c 0,-0.0828 -0.0672,-0.15 -0.15,-0.15 h -0.3 c -0.0828,0 -0.15,0.0672 -0.15,0.15 v 1.05 c 0,0.16567 -0.13433,0.3 -0.3,0.3 -0.33135,0 -0.6,-0.26865 -0.6,-0.6 v -2.7 -1.05 c 0,-0.0828 0.0672,-0.15 0.15,-0.15 0.0828,0 0.15,0.0672 0.15,0.15 v 0.53094 0.51906 2.7 c 0,0.16567 0.11558,0.3 0.225,0.3 0.0414,0 0.075,-0.0335 0.075,-0.075 v -1.05 c 0,-0.20713 0.16787,-0.375 0.375,-0.375 h 0.45 c 0.20713,0 0.375,0.16787 0.375,0.375 v 0.975 c 0,0.0828 0.0672,0.15 0.15,0.15 0.0828,0 0.15,-0.0672 0.15,-0.15 v -1.575 c 0,-0.20713 0.16787,-0.375 0.375,-0.375 h 0.45 c 0.20713,0 0.375,0.16787 0.375,0.375 v 1.575 c 0,0.0828 0.0672,0.15 0.15,0.15 0.0828,0 0.15,-0.0672 0.15,-0.15 v -3.075 c 0,-0.20713 0.16787,-0.375 0.375,-0.375 h 0.45 c 0.20713,0 0.375,0.16787 0.375,0.375 v 2.475 c 0,0.0828 -0.0672,0.15 -0.15,0.15 z m 0,0.3 c 0.0828,0 0.15,0.0672 0.15,0.15 0,0.0828 -0.0672,0.15 -0.15,0.15 -0.0828,0 -0.15,-0.0672 -0.15,-0.15 0,-0.0828 0.0672,-0.15 0.15,-0.15 z"
       id="path2-3-3"
       style="fill:#f2f2f2;fill-opacity:1;stroke-width:0.009375" />
  </g>
</svg>
