<?xml version="1.0" encoding="UTF-8" standalone="no"?>
<svg
   width="32"
   version="1.1"
   height="32"
   viewBox="0 0 32 32"
   id="svg15"
   sodipodi:docname="folder-mac.svg"
   inkscape:version="1.1.1 (3bf5ae0d25, 2021-09-20)"
   xmlns:inkscape="http://www.inkscape.org/namespaces/inkscape"
   xmlns:sodipodi="http://sodipodi.sourceforge.net/DTD/sodipodi-0.dtd"
   xmlns:xlink="http://www.w3.org/1999/xlink"
   xmlns="http://www.w3.org/2000/svg"
   xmlns:svg="http://www.w3.org/2000/svg"
   xmlns:rdf="http://www.w3.org/1999/02/22-rdf-syntax-ns#"
   xmlns:cc="http://creativecommons.org/ns#"
   xmlns:dc="http://purl.org/dc/elements/1.1/">
  <sodipodi:namedview
     pagecolor="#ffffff"
     bordercolor="#666666"
     borderopacity="1"
     objecttolerance="10"
     gridtolerance="10"
     guidetolerance="10"
     inkscape:pageopacity="0"
     inkscape:pageshadow="2"
     inkscape:window-width="1920"
     inkscape:window-height="1006"
     id="namedview17"
     showgrid="false"
     inkscape:zoom="9.8125"
     inkscape:cx="-12.942675"
     inkscape:cy="6.522293"
     inkscape:window-x="0"
     inkscape:window-y="0"
     inkscape:window-maximized="1"
     inkscape:current-layer="layer1"
     inkscape:document-rotation="0"
     inkscape:pagecheckerboard="0" />
  <defs
     id="defs5455">
    <linearGradient
       inkscape:collect="always"
       id="linearGradient860">
      <stop
         style="stop-color:#78acd3;stop-opacity:1"
         offset="0"
         id="stop856" />
      <stop
         style="stop-color:#d98cbb;stop-opacity:1"
         offset="1"
         id="stop858" />
    </linearGradient>
    <linearGradient
       inkscape:collect="always"
       id="linearGradient842">
      <stop
         style="stop-color:#326e9a;stop-opacity:1"
         offset="0"
         id="stop838" />
      <stop
         style="stop-color:#339993;stop-opacity:1"
         offset="1"
         id="stop840" />
    </linearGradient>
    <linearGradient
       inkscape:collect="always"
       xlink:href="#linearGradient860"
       id="linearGradient862-3"
       x1="113.94677"
       y1="255.36646"
       x2="406.08289"
       y2="255.36646"
       gradientUnits="userSpaceOnUse"
       gradientTransform="matrix(0.10135135,0,0,0.09220346,374.22014,507.65424)" />
    <linearGradient
       inkscape:collect="always"
       xlink:href="#linearGradient842"
       id="linearGradient844-5"
       x1="386.30627"
       y1="522.45404"
       x2="446.83023"
       y2="522.45404"
       gradientUnits="userSpaceOnUse"
       gradientTransform="matrix(0.49567132,0,0,0.49972085,194.0905,274.04969)" />
  </defs>
  <metadata
     id="metadata5458">
    <rdf:RDF>
      <cc:Work
         rdf:about="">
        <dc:format>image/svg+xml</dc:format>
        <dc:type
           rdf:resource="http://purl.org/dc/dcmitype/StillImage" />
      </cc:Work>
    </rdf:RDF>
  </metadata>
  <g
     inkscape:label="Capa 1"
     inkscape:groupmode="layer"
     id="layer1"
     transform="translate(-384.57143,-515.798)">
    <path
       style="fill:url(#linearGradient862-3);fill-opacity:1;stroke-width:0.089569"
       d="m 400.573,522.37783 c -0.44016,0 -0.96118,-0.25824 -1.15846,-0.57392 l -0.88505,-1.41859 c -0.19637,-0.31567 -0.71739,-0.57334 -1.1574,-0.57391 l -10.20055,-0.0134 c -0.97301,-0.002 -1.38311,0.46748 -1.39693,1.50207 l -0.006,0.43614 v 1.28321 18.28579 c 0,0.35288 1.16035,1.28321 1.60035,1.28321 h 26.40758 c 0.44001,0 1.60036,-0.93033 1.60036,-1.28321 v -17.64418 c 0,-0.96241 -0.40003,-1.28321 -1.60036,-1.28321 z"
       id="path4-3-6"
       sodipodi:nodetypes="sccsssccsssssss" />
    <path
       style="fill:#f2f2f2;fill-opacity:1;stroke-width:0.0882825"
       d="m 413.46046,529.22774 c 0,0.66274 -0.39789,1.20497 -1.30858,1.20497 h -23.09779 c -0.91069,0 -1.25926,-0.54223 -1.25926,-1.20497 v -3.61492 c 0,-0.66274 0.34857,-1.20498 1.25926,-1.20498 h 23.04823 c 0.91068,0 1.35814,0.54224 1.35814,1.20498 z"
       id="path8-6-2"
       sodipodi:nodetypes="sssssssss" />
    <path
       style="fill:url(#linearGradient844-5);fill-opacity:1;stroke-width:0.09667"
       d="m 413.94972,526.46375 h -26.75659 c -0.81092,0 -1.6217,0.73763 -1.6217,1.47526 v 14.38374 c 0,0.97553 0.6271,1.47525 1.6217,1.47525 h 26.75659 c 0.99775,0 1.62171,-0.49972 1.62171,-1.47525 v -14.38374 c 0,-0.73763 -0.8108,-1.47526 -1.62171,-1.47526 z"
       id="path10-9"
       sodipodi:nodetypes="sssssssss" />
    <path
       fill-rule="evenodd"
       clip-rule="evenodd"
       d="m 404.85714,534.90514 c 0,-0.1775 0.14392,-0.32142 0.32142,-0.32142 0.17751,0 0.32144,0.14392 0.32144,0.32142 0,0.17751 -0.14393,0.32143 -0.32144,0.32143 -0.1775,0 -0.32142,-0.14392 -0.32142,-0.32143 z m 1.28571,0 c 0,-0.1775 0.14393,-0.32142 0.32143,-0.32142 0.17751,0 0.32143,0.14392 0.32143,0.32142 0,0.17751 -0.14392,0.32143 -0.32143,0.32143 -0.17751,0 -0.32143,-0.14392 -0.32143,-0.32143 z m 1.28571,0 c 0,-0.1775 0.14392,-0.32142 0.32143,-0.32142 0.17751,0 0.32143,0.14392 0.32143,0.32142 0,0.17751 -0.14392,0.32143 -0.32143,0.32143 -0.17751,0 -0.32143,-0.14392 -0.32143,-0.32143 z m 6.42858,1.76786 v 4.33929 c 0,0.71004 -0.57568,1.28571 -1.28572,1.28571 h -7.71428 c -0.71004,0 -1.28572,-0.57567 -1.28572,-1.28571 v -3.53571 c 0,-0.17751 0.14392,-0.32144 0.32143,-0.32144 0.17751,0 0.32143,0.14393 0.32143,0.32144 v 3.53571 c 0,0.35502 0.28784,0.64285 0.64286,0.64285 h 7.71428 c 0.35502,0 0.64286,-0.28783 0.64286,-0.64285 v -4.17857 c 0,-0.17751 -0.14392,-0.32143 -0.32143,-0.32143 H 404.375 c -0.44386,0 -0.80358,-0.35972 -0.80358,-0.80357 v -1.125 c 0,-0.71004 0.57568,-1.28572 1.28572,-1.28572 h 7.71428 c 0.71004,0 1.28572,0.57568 1.28572,1.28572 v 0.32142 c 0,0.17751 -0.14392,0.32144 -0.32143,0.32144 -0.17751,0 -0.32143,-0.14393 -0.32143,-0.32144 v -0.32142 c 0,-0.35502 -0.28784,-0.64286 -0.64286,-0.64286 h -7.71428 c -0.35502,0 -0.64286,0.28784 -0.64286,0.64286 v 0.96428 c 0,0.17751 0.14392,0.32143 0.32143,0.32143 h 8.51785 c 0.44386,0 0.80358,0.35972 0.80358,0.80357 z"
       id="path2"
       style="fill:#f2f2f2;fill-opacity:1;stroke-width:0.0200892" />
    <g
       id="g8"
       transform="matrix(0.00373134,0,0,0.00373134,407.13456,537.53214)"
       style="fill:#f2f2f2;fill-opacity:1;image-rendering:optimizeQuality;shape-rendering:geometricPrecision;text-rendering:geometricPrecision">
      <polygon
         class="fil0"
         points="617,825 423,549 230,825 54,825 335,423 54,21 230,21 423,298 617,21 793,21 511,423 793,825 "
         id="polygon6"
         style="fill:#f2f2f2;fill-opacity:1" />
    </g>
  </g>
</svg>
