<?xml version="1.0" encoding="UTF-8" standalone="no"?>
<svg
   width="32"
   version="1.1"
   height="32"
   viewBox="0 0 32 32"
   id="svg15"
   sodipodi:docname="folder-Pop_OS.svg"
   inkscape:version="1.1.1 (3bf5ae0d25, 2021-09-20)"
   xmlns:inkscape="http://www.inkscape.org/namespaces/inkscape"
   xmlns:sodipodi="http://sodipodi.sourceforge.net/DTD/sodipodi-0.dtd"
   xmlns:xlink="http://www.w3.org/1999/xlink"
   xmlns="http://www.w3.org/2000/svg"
   xmlns:svg="http://www.w3.org/2000/svg"
   xmlns:rdf="http://www.w3.org/1999/02/22-rdf-syntax-ns#"
   xmlns:cc="http://creativecommons.org/ns#"
   xmlns:dc="http://purl.org/dc/elements/1.1/">
  <sodipodi:namedview
     pagecolor="#ffffff"
     bordercolor="#666666"
     borderopacity="1"
     objecttolerance="10"
     gridtolerance="10"
     guidetolerance="10"
     inkscape:pageopacity="0"
     inkscape:pageshadow="2"
     inkscape:window-width="1920"
     inkscape:window-height="1006"
     id="namedview17"
     showgrid="false"
     inkscape:zoom="9.8125"
     inkscape:cx="-13.044586"
     inkscape:cy="6.4203822"
     inkscape:window-x="0"
     inkscape:window-y="0"
     inkscape:window-maximized="1"
     inkscape:current-layer="layer1"
     inkscape:document-rotation="0"
     inkscape:pagecheckerboard="0" />
  <defs
     id="defs5455">
    <linearGradient
       inkscape:collect="always"
       xlink:href="#linearGradient860"
       id="linearGradient862"
       x1="113.94677"
       y1="255.36646"
       x2="406.08289"
       y2="255.36646"
       gradientUnits="userSpaceOnUse"
       gradientTransform="matrix(0.10135135,0,0,0.09220346,374.22015,507.65424)" />
    <linearGradient
       inkscape:collect="always"
       id="linearGradient860">
      <stop
         style="stop-color:#78acd3;stop-opacity:1"
         offset="0"
         id="stop856" />
      <stop
         style="stop-color:#d98cbb;stop-opacity:1"
         offset="1"
         id="stop858" />
    </linearGradient>
    <linearGradient
       inkscape:collect="always"
       xlink:href="#linearGradient842"
       id="linearGradient844"
       x1="386.30627"
       y1="522.45404"
       x2="446.83023"
       y2="522.45404"
       gradientUnits="userSpaceOnUse"
       gradientTransform="matrix(0.49567132,0,0,0.49972085,194.0905,274.04968)" />
    <linearGradient
       inkscape:collect="always"
       id="linearGradient842">
      <stop
         style="stop-color:#326e9a;stop-opacity:1"
         offset="0"
         id="stop838" />
      <stop
         style="stop-color:#339993;stop-opacity:1"
         offset="1"
         id="stop840" />
    </linearGradient>
  </defs>
  <metadata
     id="metadata5458">
    <rdf:RDF>
      <cc:Work
         rdf:about="">
        <dc:format>image/svg+xml</dc:format>
        <dc:type
           rdf:resource="http://purl.org/dc/dcmitype/StillImage" />
      </cc:Work>
    </rdf:RDF>
  </metadata>
  <g
     inkscape:label="Capa 1"
     inkscape:groupmode="layer"
     id="layer1"
     transform="translate(-384.57143,-515.798)">
    <path
       style="fill:url(#linearGradient862);fill-opacity:1;stroke-width:0.089569"
       d="m 400.57301,522.37782 c -0.44016,0 -0.96119,-0.25824 -1.15846,-0.57392 l -0.88505,-1.41859 c -0.19637,-0.31567 -0.7174,-0.57334 -1.1574,-0.57391 l -10.20056,-0.0134 c -0.973,-10e-4 -1.3831,0.46748 -1.39693,1.50207 l -0.006,0.43614 v 1.28321 18.28579 c 0,0.35288 1.16036,1.28321 1.60036,1.28321 h 26.40757 c 0.44001,0 1.60036,-0.93033 1.60036,-1.28321 v -17.64418 c 0,-0.96241 -0.40002,-1.28321 -1.60036,-1.28321 z"
       id="path4-3"
       sodipodi:nodetypes="sccsssccsssssss" />
    <path
       style="fill:#f2f2f2;fill-opacity:1;stroke-width:0.0882825"
       d="m 413.46046,529.22773 c 0,0.66274 -0.39788,1.20497 -1.30857,1.20497 H 389.0541 c -0.9107,0 -1.25926,-0.54223 -1.25926,-1.20497 v -3.61492 c 0,-0.66274 0.34856,-1.20498 1.25926,-1.20498 h 23.04822 c 0.91069,0 1.35814,0.54224 1.35814,1.20498 z"
       id="path8-6"
       sodipodi:nodetypes="sssssssss" />
    <path
       style="fill:url(#linearGradient844);fill-opacity:1;stroke-width:0.09667"
       d="m 413.94973,526.46374 h -26.7566 c -0.81091,0 -1.6217,0.73763 -1.6217,1.47526 v 14.38374 c 0,0.97553 0.62711,1.47525 1.6217,1.47525 h 26.7566 c 0.99775,0 1.6217,-0.49972 1.6217,-1.47525 V 527.939 c 0,-0.73763 -0.8108,-1.47526 -1.6217,-1.47526 z"
       id="path10"
       sodipodi:nodetypes="sssssssss" />
    <path
       style="fill:#f2f2f2;fill-opacity:1;stroke-width:0.0126492"
       id="path2-3-3"
       d="m 412.61639,538.39451 c -0.0247,0.10142 -0.0748,0.19122 -0.16197,0.24771 -0.13716,0.0886 -0.30415,0.0629 -0.42255,-0.0449 -0.11092,-0.10012 -0.14833,-0.26947 -0.11345,-0.4159 0.036,-0.15282 0.15082,-0.28761 0.2979,-0.32999 0.32778,-0.0937 0.46367,0.27344 0.40007,0.54312 z m -0.20065,-1.04246 c -0.20312,-0.0835 -0.13338,-1.18106 0.0525,-2.51349 0.0525,-0.37234 0.14213,-0.54835 0.24309,-0.63825 0.14456,-0.127 0.40754,-0.13223 0.58572,-0.10526 0.20443,0.0296 0.40013,0.12847 0.54843,0.27606 0.13087,0.13107 0.14581,0.26446 0.10091,0.43786 -0.0735,0.27606 -0.19936,0.54052 -0.32031,0.7984 -0.028,0.0628 -0.2792,0.55201 -0.31279,0.61232 -0.60448,1.0964 -0.72538,1.20293 -0.89734,1.13236 z" />
    <path
       style="fill:#f2f2f2;fill-opacity:1;stroke-width:0.0126492"
       id="path4"
       d="m 408.3153,536.85776 c 0.11962,0.52647 0.10715,1.10411 0.004,1.52 -0.0959,0.39283 -0.35641,0.74457 -0.7702,0.86267 -0.36277,0.10402 -0.7852,0.0278 -1.0445,-0.22849 -0.42622,-0.42109 -0.67548,-1.40961 -0.56458,-2.12723 0.0898,-0.57628 0.39138,-1.31456 1.05322,-1.34674 0.0432,-0.002 0.0848,-10e-4 0.12704,10e-4 0.67433,0.0629 1.04198,0.64839 1.19408,1.31727 z m -1.21887,1.19776 c 0.0368,0.007 0.0747,0.007 0.1121,-0.004 0.12589,-0.0368 0.19819,-0.17207 0.23181,-0.30296 0.0515,-0.19901 0.044,-0.41339 -0.0238,-0.60854 -0.0342,-0.0989 -0.0834,-0.19515 -0.15956,-0.26705 -0.26789,-0.25287 -0.53577,0.01 -0.58195,0.30939 -0.036,0.23369 0.0168,0.50454 0.15823,0.69329 0.0661,0.0873 0.16089,0.163 0.26184,0.18097 z" />
    <path
       style="fill:#f2f2f2;fill-opacity:1;stroke-width:0.0126492"
       id="path6"
       d="m 409.77477,537.97347 c -10e-4,0.97169 0.0934,1.71501 -0.3216,1.80363 -0.33648,0.0706 -0.32524,-0.23366 -0.35148,-0.48914 -0.0996,-0.98973 -0.19063,-2.63417 -0.22933,-3.62925 0.0272,-0.42753 0.30541,-0.68939 0.59456,-0.75346 0.44619,-0.0989 0.92225,-0.0707 1.31737,0.18094 0.78148,0.49818 0.8438,1.41217 0.37018,2.15798 -0.25926,0.40698 -1.04319,0.70233 -1.3797,0.67653 z m 0.0997,-2.17858 c -0.0484,0.008 -0.12835,0.0296 -0.15082,0.0795 -0.0536,0.11425 -0.0504,0.83976 0.044,1.14394 0.0159,0.0507 0.0478,0.0975 0.0972,0.11549 0.17699,0.0668 0.33655,-0.15665 0.40883,-0.29141 0.10095,-0.18741 0.1333,-0.40819 0.0698,-0.61368 -0.06,-0.19122 -0.24551,-0.46858 -0.4686,-0.43379 z" />
    <path
       style="fill:#f2f2f2;fill-opacity:1;stroke-width:0.0126492"
       id="path8"
       d="m 405.30533,536.2775 c -0.29289,0.63815 -0.77898,1.14512 -1.45194,1.39555 0.19328,0.51992 0.39004,1.03347 0.58199,1.55201 0.10726,0.27983 0.20942,0.58667 0.11588,0.86268 -0.0972,0.28244 -0.47593,0.36073 -0.75145,0.0605 -0.52977,-0.58032 -2.32066,-4.25697 -2.45275,-4.53304 -0.11226,-0.23748 -0.28034,-0.49171 -0.27553,-0.76639 0.009,-0.41342 0.62957,-0.83195 0.92719,-1.04622 0.41641,-0.29926 0.89742,-0.5034 1.41218,-0.50456 0.40139,0 0.74408,0.11309 1.04824,0.31316 0.46607,0.30826 0.7902,0.79975 0.90991,1.35564 0.10458,0.48918 0.0822,0.98998 -0.0637,1.31086 m -1.36466,-0.69844 c -0.10474,-0.39145 -0.34157,-0.75218 -0.63948,-1.00505 -0.0646,-0.0552 -0.13465,-0.10671 -0.21543,-0.13483 -0.5584,-0.18878 -0.31661,0.77278 -0.22562,1.01549 0.12585,0.34014 0.31662,0.77017 0.57201,1.02687 0.0559,0.0563 0.12217,0.10663 0.19813,0.122 0.11594,0.0252 0.22308,-0.0593 0.28177,-0.15658 0.0478,-0.0809 0.0671,-0.17718 0.0785,-0.27083 0.0202,-0.19893 0.001,-0.40192 -0.0506,-0.59707 z" />
    <path
       style="fill:#f2f2f2;fill-opacity:1;stroke-width:0.0126492"
       id="path10-3-3"
       d="m 411.98248,541.16445 c -0.002,0.56363 -0.3365,1.12717 -1.07315,1.12717 -0.73654,0 -1.07928,-0.55455 -1.07928,-1.12074 0,-0.70606 0.47733,-1.14254 1.09428,-1.14254 0.71541,0.007 1.06439,0.55329 1.05815,1.13611 z m -1.05815,-0.78048 c -0.46238,0 -0.72169,0.33124 -0.72413,0.78309 0,0.39284 0.21309,0.76127 0.71535,0.76127 0.50229,0 0.69423,-0.39921 0.69423,-0.76512 0.007,-0.38003 -0.1894,-0.77026 -0.68545,-0.77924 z m 1.36721,1.6188 c 0,0.0835 10e-4,-0.39668 0,-0.46982 h 0.33901 l 0.0247,0.294 c 0.11097,0.0655 0.28292,0.11426 0.42376,0.11426 0.26177,0 0.53471,-0.0681 0.53471,-0.33126 -0.009,-0.23878 -0.31285,-0.28754 -0.55836,-0.31327 -0.41753,-0.0441 -0.75403,-0.14883 -0.75403,-0.63157 0,-0.43009 0.47234,-0.64439 0.8238,-0.64439 0.28293,-0.007 0.48359,0.0385 0.73906,0.25024 0,0.1734 -0.002,0.27607 -0.002,0.44934 h -0.32772 l -0.0202,-0.28493 c -0.13211,-0.0655 -0.26797,-0.0835 -0.37263,-0.0809 -0.22561,10e-4 -0.46616,0.11163 -0.46616,0.30678 0,0.19125 0.1558,0.2439 0.43248,0.28502 0.45121,0.0617 0.88614,0.16684 0.88614,0.6624 -0.002,0.54171 -0.49604,0.68427 -0.91978,0.68427 -0.32279,10e-4 -0.52472,-0.0605 -0.7802,-0.29019 z"
       inkscape:connector-curvature="0" />
    <path
       style="fill:#f2f2f2;fill-opacity:1;stroke-width:0.0126492"
       id="path12"
       d="m 409.37262,542.10681 c 0,0.0988 -0.0773,0.17839 -0.1732,0.17839 h -2.00292 c -0.096,0 -0.17319,-0.0795 -0.17319,-0.17839 v -0.0162 c 0,-0.0989 0.0772,-0.17836 0.17319,-0.17836 h 2.00292 c 0.0959,0 0.1732,0.0795 0.1732,0.17836 z"
       inkscape:connector-curvature="0" />
  </g>
</svg>
