<?xml version="1.0" encoding="UTF-8" standalone="no"?>
<svg
   width="32"
   version="1.1"
   height="32"
   viewBox="0 0 32 32"
   id="svg15"
   sodipodi:docname="folder-comic.svg"
   inkscape:version="1.2 (dc2aedaf03, 2022-05-15)"
   xmlns:inkscape="http://www.inkscape.org/namespaces/inkscape"
   xmlns:sodipodi="http://sodipodi.sourceforge.net/DTD/sodipodi-0.dtd"
   xmlns:xlink="http://www.w3.org/1999/xlink"
   xmlns="http://www.w3.org/2000/svg"
   xmlns:svg="http://www.w3.org/2000/svg"
   xmlns:rdf="http://www.w3.org/1999/02/22-rdf-syntax-ns#"
   xmlns:cc="http://creativecommons.org/ns#"
   xmlns:dc="http://purl.org/dc/elements/1.1/">
  <sodipodi:namedview
     pagecolor="#ffffff"
     bordercolor="#666666"
     borderopacity="1"
     objecttolerance="10"
     gridtolerance="10"
     guidetolerance="10"
     inkscape:pageopacity="0"
     inkscape:pageshadow="2"
     inkscape:window-width="1920"
     inkscape:window-height="1002"
     id="namedview17"
     showgrid="false"
     inkscape:zoom="9.8125"
     inkscape:cx="-12.993631"
     inkscape:cy="6.5732484"
     inkscape:window-x="0"
     inkscape:window-y="0"
     inkscape:window-maximized="1"
     inkscape:current-layer="layer1"
     inkscape:document-rotation="0"
     inkscape:pagecheckerboard="0"
     inkscape:showpageshadow="2"
     inkscape:deskcolor="#d1d1d1" />
  <defs
     id="defs5455">
    <linearGradient
       inkscape:collect="always"
       xlink:href="#linearGradient860"
       id="linearGradient862"
       x1="113.94677"
       y1="255.36646"
       x2="406.08289"
       y2="255.36646"
       gradientUnits="userSpaceOnUse"
       gradientTransform="matrix(0.10135135,0,0,0.09220348,374.22015,507.65424)" />
    <linearGradient
       inkscape:collect="always"
       id="linearGradient860">
      <stop
         style="stop-color:#78acd3;stop-opacity:1"
         offset="0"
         id="stop856" />
      <stop
         style="stop-color:#d98cbb;stop-opacity:1"
         offset="1"
         id="stop858" />
    </linearGradient>
    <linearGradient
       inkscape:collect="always"
       xlink:href="#linearGradient842"
       id="linearGradient844"
       x1="386.30627"
       y1="522.45404"
       x2="446.83023"
       y2="522.45404"
       gradientUnits="userSpaceOnUse"
       gradientTransform="matrix(0.4956713,0,0,0.49972091,194.0905,274.04965)" />
    <linearGradient
       inkscape:collect="always"
       id="linearGradient842">
      <stop
         style="stop-color:#326e9a;stop-opacity:1"
         offset="0"
         id="stop838" />
      <stop
         style="stop-color:#339993;stop-opacity:1"
         offset="1"
         id="stop840" />
    </linearGradient>
  </defs>
  <metadata
     id="metadata5458">
    <rdf:RDF>
      <cc:Work
         rdf:about="">
        <dc:format>image/svg+xml</dc:format>
        <dc:type
           rdf:resource="http://purl.org/dc/dcmitype/StillImage" />
      </cc:Work>
    </rdf:RDF>
  </metadata>
  <g
     inkscape:label="Capa 1"
     inkscape:groupmode="layer"
     id="layer1"
     transform="translate(-384.57143,-515.798)">
    <path
       style="fill:url(#linearGradient862);fill-opacity:1;stroke-width:0.089569"
       d="m 400.57301,522.37783 c -0.44016,0 -0.96119,-0.25825 -1.15846,-0.57392 l -0.88505,-1.4186 c -0.19637,-0.31567 -0.71739,-0.57333 -1.1574,-0.57391 l -10.20055,-0.0134 c -0.97301,-10e-4 -1.38311,0.46748 -1.39693,1.50207 l -0.006,0.43614 v 1.28321 18.28579 c 0,0.35288 1.16035,1.28321 1.60036,1.28321 h 26.40756 c 0.44002,0 1.60036,-0.93033 1.60036,-1.28321 v -17.64418 c 0,-0.96241 -0.40002,-1.28321 -1.60036,-1.28321 z"
       id="path4-3"
       sodipodi:nodetypes="sccsssccsssssss" />
    <path
       style="fill:#f2f2f2;fill-opacity:1;stroke-width:0.0882824"
       d="m 413.46047,529.22774 c 0,0.66273 -0.3979,1.20497 -1.30858,1.20497 h -23.09778 c -0.9107,0 -1.25927,-0.54224 -1.25927,-1.20497 v -3.61493 c 0,-0.66274 0.34857,-1.20498 1.25927,-1.20498 h 23.04822 c 0.91068,0 1.35814,0.54224 1.35814,1.20498 z"
       id="path8-6"
       sodipodi:nodetypes="sssssssss" />
    <path
       style="fill:url(#linearGradient844);fill-opacity:1;stroke-width:0.0966699"
       d="m 413.94973,526.46375 h -26.7566 c -0.81091,0 -1.6217,0.73763 -1.6217,1.47525 v 14.38375 c 0,0.97553 0.62711,1.47525 1.6217,1.47525 h 26.7566 c 0.99775,0 1.6217,-0.49972 1.6217,-1.47525 V 527.939 c 0,-0.73762 -0.81079,-1.47525 -1.6217,-1.47525 z"
       id="path10"
       sodipodi:nodetypes="sssssssss" />
    <path
       fill-rule="evenodd"
       clip-rule="evenodd"
       d="m 412.39585,538.51302 c -0.17751,0 -0.32158,0.14392 -0.32158,0.32111 v 0.16087 c 0,0.44385 -0.3599,0.80357 -0.80343,0.80357 -0.17562,0 -0.33791,-0.0562 -0.47005,-0.15178 -3.2e-4,0 0,0 -3.2e-4,0 l -0.76464,-0.57332 c -0.009,-0.007 -0.016,-0.0122 -0.0249,-0.0191 -0.30888,-0.23448 -0.50806,-0.60581 -0.50806,-1.02377 v -0.64253 c 0,-0.44386 -0.35972,-0.8039 -0.80357,-0.8039 h -4.17846 c -0.44386,0 -0.8039,0.36004 -0.8039,0.8039 v 2.24999 c 0,0.35188 0.22774,0.64742 0.54306,0.75648 0.0127,0.0296 0.0437,0.0471 0.0999,0.0471 0.23802,0 0.64302,0.35956 0.64302,0.80341 v 0.32159 c 0,0.0885 0.0719,0.16056 0.16055,0.16056 0.034,0 0.0654,-0.0106 0.0917,-0.0287 4e-4,0 0,3.2e-4 0,3.2e-4 l 1.35172,-1.01373 c 0.20184,-0.15286 0.45342,-0.24342 0.72651,-0.24342 h 1.20522 c 0.17751,0 0.32143,0.14376 0.32143,0.32143 0,0.17719 -0.14392,0.32111 -0.32143,0.32111 h -1.12508 c -0.18378,0 -0.35353,0.0617 -0.48857,0.16606 l -1.29098,0.9682 h -3.2e-4 c -0.13231,0.0954 -0.29459,0.15161 -0.47013,0.15161 -0.44385,0 -0.80357,-0.35956 -0.80357,-0.80341 v -0.16103 c 0,-0.17719 -0.14384,-0.32143 -0.32143,-0.32143 -0.0355,0 -0.043,-0.0207 -0.0337,-0.0512 -0.53702,-0.15412 -0.93041,-0.64772 -0.93041,-1.23439 v -2.57142 c 0,-0.7102 0.57546,-1.28555 1.28557,-1.28555 h 4.5001 c 0.71005,0 1.28589,0.57537 1.28589,1.28555 v 0.80341 c 0,0.21078 0.10123,0.39787 0.2577,0.51511 l 0.77549,0.58165 c 4.6e-4,0 -3.2e-4,-3.3e-4 0,-3.3e-4 0.026,0.0181 0.0578,0.0285 0.0918,0.0285 0.0887,0 0.16055,-0.0719 0.16055,-0.16055 v -0.32143 c 0,-0.44385 0.40492,-0.80357 0.64288,-0.80357 0.30997,0 0.64269,-0.35956 0.64269,-0.80341 v -2.24999 c 0,-0.44402 -0.35956,-0.80357 -0.80343,-0.80357 h -4.17866 c -0.44386,0 -0.80351,0.35955 -0.80351,0.80357 v 0.16055 c 0,0.17751 -0.14384,0.32143 -0.32151,0.32143 -0.17759,0 -0.32143,-0.14392 -0.32143,-0.32143 v -0.32159 c 0,-0.71003 0.57578,-1.28555 1.28589,-1.28555 h 4.49996 c 0.71019,0 1.28571,0.57552 1.28571,1.28555 v 2.57159 c 0,0.71003 -0.50866,1.28587 -0.96413,1.28587 z m -2.5716,1.28555 c 0.17735,0 0.32159,0.14392 0.32159,0.32143 0,0.17767 -0.14424,0.32159 -0.32159,0.32159 -0.17751,0 -0.32145,-0.14392 -0.32145,-0.32159 0,-0.17751 0.14394,-0.32143 0.32145,-0.32143 z"
       id="path1947"
       style="fill:#f2f2f2;fill-opacity:1;stroke-width:0.0200893" />
  </g>
</svg>
