<?xml version="1.0" encoding="UTF-8" standalone="no"?>
<svg
   width="32"
   version="1.1"
   height="32"
   viewBox="0 0 32 32"
   id="svg15"
   sodipodi:docname="folder-calculate.svg"
   inkscape:version="1.1.1 (3bf5ae0d25, 2021-09-20)"
   xmlns:inkscape="http://www.inkscape.org/namespaces/inkscape"
   xmlns:sodipodi="http://sodipodi.sourceforge.net/DTD/sodipodi-0.dtd"
   xmlns:xlink="http://www.w3.org/1999/xlink"
   xmlns="http://www.w3.org/2000/svg"
   xmlns:svg="http://www.w3.org/2000/svg"
   xmlns:rdf="http://www.w3.org/1999/02/22-rdf-syntax-ns#"
   xmlns:cc="http://creativecommons.org/ns#"
   xmlns:dc="http://purl.org/dc/elements/1.1/">
  <sodipodi:namedview
     pagecolor="#ffffff"
     bordercolor="#666666"
     borderopacity="1"
     objecttolerance="10"
     gridtolerance="10"
     guidetolerance="10"
     inkscape:pageopacity="0"
     inkscape:pageshadow="2"
     inkscape:window-width="1920"
     inkscape:window-height="1006"
     id="namedview17"
     showgrid="false"
     inkscape:zoom="9.8125"
     inkscape:cx="-12.942675"
     inkscape:cy="6.522293"
     inkscape:window-x="0"
     inkscape:window-y="0"
     inkscape:window-maximized="1"
     inkscape:current-layer="layer1"
     inkscape:document-rotation="0"
     inkscape:pagecheckerboard="0" />
  <defs
     id="defs5455">
    <linearGradient
       inkscape:collect="always"
       id="linearGradient860">
      <stop
         style="stop-color:#78acd3;stop-opacity:1"
         offset="0"
         id="stop856" />
      <stop
         style="stop-color:#d98cbb;stop-opacity:1"
         offset="1"
         id="stop858" />
    </linearGradient>
    <linearGradient
       inkscape:collect="always"
       id="linearGradient842">
      <stop
         style="stop-color:#326e9a;stop-opacity:1"
         offset="0"
         id="stop838" />
      <stop
         style="stop-color:#339993;stop-opacity:1"
         offset="1"
         id="stop840" />
    </linearGradient>
    <linearGradient
       inkscape:collect="always"
       xlink:href="#linearGradient860"
       id="linearGradient862-3"
       x1="113.94677"
       y1="255.36646"
       x2="406.08289"
       y2="255.36646"
       gradientUnits="userSpaceOnUse"
       gradientTransform="matrix(0.10135135,0,0,0.09220345,374.22015,507.65424)" />
    <linearGradient
       inkscape:collect="always"
       xlink:href="#linearGradient842"
       id="linearGradient844-5"
       x1="386.30627"
       y1="522.45404"
       x2="446.83023"
       y2="522.45404"
       gradientUnits="userSpaceOnUse"
       gradientTransform="matrix(0.49567129,0,0,0.49972079,194.09051,274.04971)" />
  </defs>
  <metadata
     id="metadata5458">
    <rdf:RDF>
      <cc:Work
         rdf:about="">
        <dc:format>image/svg+xml</dc:format>
        <dc:type
           rdf:resource="http://purl.org/dc/dcmitype/StillImage" />
      </cc:Work>
    </rdf:RDF>
  </metadata>
  <g
     inkscape:label="Capa 1"
     inkscape:groupmode="layer"
     id="layer1"
     transform="translate(-384.57143,-515.798)">
    <path
       style="fill:url(#linearGradient862-3);fill-opacity:1;stroke-width:0.0895685"
       d="m 400.57301,522.37782 c -0.44016,0 -0.96119,-0.25825 -1.15846,-0.57392 l -0.88505,-1.41859 c -0.19637,-0.31567 -0.7174,-0.57334 -1.1574,-0.57391 l -10.20056,-0.0134 c -0.973,-10e-4 -1.3831,0.46748 -1.39692,1.50207 l -0.006,0.43614 v 1.28321 18.28579 c 0,0.35288 1.16035,1.28321 1.60035,1.28321 h 26.40757 c 0.44001,0 1.60036,-0.93033 1.60036,-1.28321 v -17.64418 c 0,-0.96241 -0.40002,-1.28321 -1.60036,-1.28321 z"
       id="path4-3-6"
       sodipodi:nodetypes="sccsssccsssssss" />
    <path
       style="fill:#f2f2f2;fill-opacity:1;stroke-width:0.0882825"
       d="m 413.46046,529.22773 c 0,0.66274 -0.39788,1.20497 -1.30857,1.20497 H 389.0541 c -0.9107,0 -1.25926,-0.54223 -1.25926,-1.20497 v -3.61492 c 0,-0.66274 0.34856,-1.20498 1.25926,-1.20498 h 23.04822 c 0.91069,0 1.35814,0.54224 1.35814,1.20498 z"
       id="path8-6-2"
       sodipodi:nodetypes="sssssssss" />
    <path
       style="fill:url(#linearGradient844-5);fill-opacity:1;stroke-width:0.09667"
       d="m 413.94973,526.46375 h -26.75661 c -0.8109,0 -1.62169,0.73762 -1.62169,1.47526 v 14.38373 c 0,0.97553 0.62711,1.47525 1.62169,1.47525 h 26.75661 c 0.99775,0 1.6217,-0.49972 1.6217,-1.47525 v -14.38373 c 0,-0.73764 -0.81079,-1.47526 -1.6217,-1.47526 z"
       id="path10-9"
       sodipodi:nodetypes="sssssssss" />
    <path
       fill-rule="evenodd"
       clip-rule="evenodd"
       d="m 412.78604,542.29799 h -4.82175 c -0.17727,0 -0.32111,-0.14424 -0.32111,-0.32143 0,-0.17767 0.14384,-0.32158 0.32111,-0.32158 h 4.82175 c 0.35502,0 0.64285,-0.28785 0.64285,-0.64286 v -6.42858 c 0,-0.35501 -0.28783,-0.64269 -0.64285,-0.64269 h -6.42873 c -0.35494,0 -0.64294,0.28768 -0.64294,0.64269 v 6.10715 c 0,0.17767 -0.14376,0.32143 -0.32143,0.32143 -0.17735,0 -0.32151,-0.14376 -0.32151,-0.32143 v -6.10715 c 0,-0.71003 0.57592,-1.28555 1.28588,-1.28555 h 6.42873 c 0.70987,0 1.28539,0.57552 1.28539,1.28555 v 6.42858 c 0,0.71003 -0.57552,1.28587 -1.28539,1.28587 z m -6.10722,-0.64301 c 0.17726,0 0.32142,0.14391 0.32142,0.32158 0,0.17719 -0.14416,0.32143 -0.32142,0.32143 -0.17768,0 -0.32151,-0.14424 -0.32151,-0.32143 0,-0.17767 0.14384,-0.32158 0.32151,-0.32158 z"
       id="path2"
       style="fill:#f2f2f2;fill-opacity:1;stroke-width:0.0200892" />
    <path
       d="m 411.46514,536.32342 v 0.38572 c 0,0.0118 -0.01,0.0214 -0.0214,0.0214 h -1.65935 c -0.009,0 -0.0169,0.005 -0.0201,0.0138 l -0.92768,2.42007 c -0.0678,0.177 -0.31523,0.18523 -0.39468,0.0131 l -0.45108,-0.97736 c -0.003,-0.008 -0.0111,-0.0124 -0.0195,-0.0124 h -0.17062 c -0.0118,0 -0.0214,-0.01 -0.0214,-0.0214 v -0.38572 c 0,-0.0118 0.01,-0.0214 0.0214,-0.0214 h 0.32143 c 0.0836,0 0.15956,0.0486 0.19458,0.1245 l 0.28796,0.62396 c 0.005,0.0108 0.0206,0.0104 0.0249,-10e-4 l 0.79243,-2.06717 c 0.0318,-0.0829 0.11134,-0.13762 0.2001,-0.13762 h 1.82144 c 0.0118,0 0.0214,0.01 0.0214,0.0214 z"
       id="path2-36"
       style="fill:#f2f2f2;fill-opacity:1;stroke-width:0.0428572" />
    <path
       d="m 411.40732,538.94133 c 0.0856,0.0915 0.0755,0.23815 -0.0262,0.31654 -0.0886,0.0684 -0.2166,0.0513 -0.29306,-0.0305 l -1.23657,-1.32185 c -0.0856,-0.0915 -0.0755,-0.23815 0.0262,-0.31654 0.0886,-0.0684 0.2166,-0.0513 0.29306,0.0305 l 0.44302,0.47357 c 0.009,0.009 0.0229,0.009 0.0312,0 l 0.44932,-0.48026 c 0.0856,-0.0915 0.23254,-0.0912 0.31757,0.005 0.0741,0.0839 0.0656,0.21274 -0.0109,0.29447 l -0.46453,0.49651 c -0.008,0.008 -0.008,0.0211 0,0.0293 z"
       id="path4"
       style="fill:#f2f2f2;fill-opacity:1;stroke-width:0.0428572" />
    <path
       d="m 410.49836,538.84794 c 0.008,0.008 0.008,0.0211 0,0.0293 l -0.3276,0.35023 c -0.0765,0.0817 -0.20448,0.0988 -0.29307,0.0305 -0.10165,-0.0784 -0.11181,-0.22505 -0.0262,-0.31655 l 0.35148,-0.37569 c 0.008,-0.009 0.0229,-0.009 0.0312,0 z"
       id="path6"
       style="fill:#f2f2f2;fill-opacity:1;stroke-width:0.0428572" />
  </g>
</svg>
