<?xml version="1.0" encoding="UTF-8" standalone="no"?>
<svg
   width="32"
   version="1.1"
   height="32"
   viewBox="0 0 32 32"
   id="svg15"
   sodipodi:docname="folder-design.svg"
   inkscape:version="1.1.1 (3bf5ae0d25, 2021-09-20)"
   xmlns:inkscape="http://www.inkscape.org/namespaces/inkscape"
   xmlns:sodipodi="http://sodipodi.sourceforge.net/DTD/sodipodi-0.dtd"
   xmlns:xlink="http://www.w3.org/1999/xlink"
   xmlns="http://www.w3.org/2000/svg"
   xmlns:svg="http://www.w3.org/2000/svg"
   xmlns:rdf="http://www.w3.org/1999/02/22-rdf-syntax-ns#"
   xmlns:cc="http://creativecommons.org/ns#"
   xmlns:dc="http://purl.org/dc/elements/1.1/">
  <sodipodi:namedview
     pagecolor="#ffffff"
     bordercolor="#666666"
     borderopacity="1"
     objecttolerance="10"
     gridtolerance="10"
     guidetolerance="10"
     inkscape:pageopacity="0"
     inkscape:pageshadow="2"
     inkscape:window-width="1920"
     inkscape:window-height="1006"
     id="namedview17"
     showgrid="false"
     inkscape:zoom="9.8125"
     inkscape:cx="-12.942675"
     inkscape:cy="6.522293"
     inkscape:window-x="0"
     inkscape:window-y="0"
     inkscape:window-maximized="1"
     inkscape:current-layer="layer1"
     inkscape:document-rotation="0"
     inkscape:pagecheckerboard="0" />
  <defs
     id="defs5455">
    <linearGradient
       inkscape:collect="always"
       id="linearGradient860">
      <stop
         style="stop-color:#78acd3;stop-opacity:1"
         offset="0"
         id="stop856" />
      <stop
         style="stop-color:#d98cbb;stop-opacity:1"
         offset="1"
         id="stop858" />
    </linearGradient>
    <linearGradient
       inkscape:collect="always"
       id="linearGradient842">
      <stop
         style="stop-color:#326e9a;stop-opacity:1"
         offset="0"
         id="stop838" />
      <stop
         style="stop-color:#339993;stop-opacity:1"
         offset="1"
         id="stop840" />
    </linearGradient>
    <linearGradient
       inkscape:collect="always"
       xlink:href="#linearGradient860"
       id="linearGradient862-3"
       x1="113.94677"
       y1="255.36646"
       x2="406.08289"
       y2="255.36646"
       gradientUnits="userSpaceOnUse"
       gradientTransform="matrix(0.10135135,0,0,0.09220346,374.22014,507.65425)" />
    <linearGradient
       inkscape:collect="always"
       xlink:href="#linearGradient842"
       id="linearGradient844-5"
       x1="386.30627"
       y1="522.45404"
       x2="446.83023"
       y2="522.45404"
       gradientUnits="userSpaceOnUse"
       gradientTransform="matrix(0.49567132,0,0,0.49972085,194.0905,274.04969)" />
  </defs>
  <metadata
     id="metadata5458">
    <rdf:RDF>
      <cc:Work
         rdf:about="">
        <dc:format>image/svg+xml</dc:format>
        <dc:type
           rdf:resource="http://purl.org/dc/dcmitype/StillImage" />
      </cc:Work>
    </rdf:RDF>
  </metadata>
  <g
     inkscape:label="Capa 1"
     inkscape:groupmode="layer"
     id="layer1"
     transform="translate(-384.57143,-515.798)">
    <path
       style="fill:url(#linearGradient862-3);fill-opacity:1;stroke-width:0.089569"
       d="m 400.57301,522.37783 c -0.44016,0 -0.96119,-0.25824 -1.15846,-0.57392 l -0.88505,-1.41859 c -0.19637,-0.31567 -0.7174,-0.57334 -1.1574,-0.57391 l -10.20056,-0.0134 c -0.973,-0.002 -1.3831,0.46748 -1.39693,1.50207 l -0.006,0.43614 v 1.28321 18.28579 c 0,0.35288 1.16036,1.28321 1.60036,1.28321 h 26.40757 c 0.44001,0 1.60036,-0.93033 1.60036,-1.28321 v -17.64418 c 0,-0.96241 -0.40002,-1.28321 -1.60036,-1.28321 z"
       id="path4-3-6"
       sodipodi:nodetypes="sccsssccsssssss" />
    <path
       style="fill:#f2f2f2;fill-opacity:1;stroke-width:0.0882825"
       d="m 413.46046,529.22774 c 0,0.66274 -0.39788,1.20497 -1.30857,1.20497 H 389.0541 c -0.9107,0 -1.25926,-0.54223 -1.25926,-1.20497 v -3.61492 c 0,-0.66274 0.34856,-1.20498 1.25926,-1.20498 h 23.04822 c 0.91069,0 1.35814,0.54224 1.35814,1.20498 z"
       id="path8-6-2"
       sodipodi:nodetypes="sssssssss" />
    <path
       style="fill:url(#linearGradient844-5);fill-opacity:1;stroke-width:0.09667"
       d="m 413.94973,526.46375 h -26.7566 c -0.81091,0 -1.6217,0.73763 -1.6217,1.47526 v 14.38374 c 0,0.97553 0.62711,1.47525 1.6217,1.47525 h 26.7566 c 0.99775,0 1.6217,-0.49972 1.6217,-1.47525 v -14.38374 c 0,-0.73763 -0.8108,-1.47526 -1.6217,-1.47526 z"
       id="path10-9"
       sodipodi:nodetypes="sssssssss" />
    <polygon
       points="21.309,64.302 25.666,55.216 14.468,44.018 7.746,50.739 11.232,54.226 13.218,52.276 13.375,52.437 11.391,54.384 14.769,57.761 17.876,54.654 18.034,54.813 14.927,57.92 18.268,61.26 20.214,59.427 20.369,59.59 18.427,61.419 "
       id="polygon2"
       transform="matrix(0.10489876,0,0,0.10489876,404.25888,532.54325)"
       style="fill:#f2f2f2;fill-opacity:1" />
    <polygon
       points="61.333,75.568 64.378,78.613 67.763,75.229 65.838,73.34 65.995,73.181 67.922,75.07 71.233,71.758 68.161,68.687 68.32,68.527 71.392,71.6 74.832,68.16 72.872,66.309 73.026,66.146 74.991,68.002 77.241,65.751 72.862,56.688 50,79.55 27.985,57.534 23.604,66.597 25.465,68.457 27.492,66.545 27.644,66.707 25.624,68.616 29.067,72.06 32.162,68.964 32.32,69.122 29.225,72.218 32.549,75.542 34.542,73.587 34.698,73.747 32.708,75.7 36.073,79.066 39.136,76.006 39.294,76.164 36.232,79.226 39.722,82.715 41.692,80.783 41.848,80.942 39.88,82.873 43.266,86.258 46.362,83.161 46.521,83.32 43.424,86.416 46.829,89.82 48.756,87.93 48.914,88.089 46.987,89.979 50,92.992 53.463,89.529 51.654,87.753 51.811,87.594 53.621,89.371 57.028,85.964 54.012,82.949 54.17,82.79 57.187,85.806 60.57,82.422 58.675,80.563 58.832,80.402 60.729,82.263 64.219,78.771 61.175,75.728 "
       id="polygon4"
       transform="matrix(0.10489876,0,0,0.10489876,404.25888,532.54325)"
       style="fill:#f2f2f2;fill-opacity:1" />
    <polygon
       points="87.142,52.038 87.298,51.878 89.224,53.768 92.253,50.739 85.532,44.018 75.173,54.376 79.534,63.458 82.023,60.968 80.149,59.203 80.304,59.039 82.184,60.81 85.522,57.47 82.478,54.425 82.637,54.267 85.682,57.312 89.065,53.926 "
       id="polygon6"
       transform="matrix(0.10489876,0,0,0.10489876,404.25888,532.54325)"
       style="fill:#f2f2f2;fill-opacity:1" />
    <path
       d="m 412.73261,540.15481 c 0.18304,0 0.47718,0.36568 0.47718,0.36568 l -0.62551,-1.30294 -0.20529,0.20528 z"
       id="path8"
       style="fill:#f2f2f2;fill-opacity:1;stroke-width:0.104899" />
    <path
       d="m 410.20108,534.25384 c -0.10983,0.25553 -0.36389,0.43491 -0.65907,0.43491 -0.007,0 -0.0143,-3.1e-4 -0.0215,-3.7e-4 l 0.938,1.68152 c 0.006,-0.002 0.0115,-0.004 0.0173,-0.005 0.002,-3.7e-4 0.005,-5e-4 0.007,-0.001 0.004,-5e-4 0.007,-0.002 0.0109,-0.002 0.002,-3.7e-4 0.006,-10e-4 0.008,-10e-4 0.003,-3.1e-4 0.006,-5e-4 0.009,-5e-4 0.003,-2e-4 0.006,-2e-4 0.009,-3.1e-4 0.003,-1.1e-4 0.006,-2.1e-4 0.009,-2.1e-4 0.001,0 0.002,0 0.002,0 0.0102,10e-5 0.0203,10e-4 0.0304,0.002 3.8e-4,0 5e-4,0 0.001,1.1e-4 0.0102,10e-4 0.0202,0.003 0.0304,0.006 10e-4,2e-4 0.002,3.7e-4 0.003,0.001 0.01,0.002 0.0196,0.005 0.0292,0.009 0.002,3.7e-4 0.003,5e-4 0.004,0.002 0.01,0.003 0.0193,0.007 0.0288,0.0115 0.002,10e-4 0.002,10e-4 0.004,0.002 0.01,0.005 0.0191,0.009 0.0285,0.0143 0.001,10e-4 0.002,0.002 0.004,0.002 0.01,0.005 0.0193,0.0109 0.0288,0.017 0.001,10e-4 0.002,0.002 0.004,0.002 0.01,0.006 0.0194,0.0129 0.029,0.0199 10e-4,10e-4 0.002,10e-4 0.002,0.002 0.01,0.007 0.0199,0.0149 0.0299,0.0229 0,0 0,1e-4 1.1e-4,1e-4 0.0104,0.008 0.0206,0.017 0.0308,0.026 0,10e-5 10e-5,10e-5 2.1e-4,2.1e-4 0.01,0.009 0.0195,0.0176 0.0292,0.0269 0.001,5e-4 0.001,10e-4 0.002,0.002 0.009,0.009 0.0184,0.0181 0.0276,0.0274 10e-4,10e-4 0.002,0.002 0.002,0.003 0.009,0.009 0.0179,0.0186 0.0267,0.0282 5e-4,5e-4 0.002,0.002 0.003,0.003 0.009,0.009 0.0173,0.0192 0.0258,0.029 10e-4,10e-4 0.002,0.002 0.003,0.003 0.009,0.01 0.017,0.0199 0.0254,0.0303 0.001,10e-4 0.002,0.002 0.002,0.002 0.009,0.0105 0.0169,0.0208 0.0251,0.0313 3.1e-4,3.2e-4 5e-4,10e-4 10e-4,10e-4 0.0174,0.022 0.034,0.0442 0.0501,0.0662 1e-4,1.1e-4 1e-4,1.1e-4 2.1e-4,2.1e-4 0.008,0.0107 0.0154,0.0214 0.023,0.032 3.7e-4,0.001 5e-4,0.002 0.001,0.002 0.007,0.0102 0.0142,0.0205 0.0211,0.0304 10e-4,5e-4 0.002,0.002 0.002,0.003 0.007,0.01 0.0133,0.0197 0.0196,0.0292 5e-4,10e-4 0.001,0.002 0.002,0.003 0.006,0.01 0.0123,0.0191 0.0183,0.0283 5e-4,5e-4 10e-4,0.002 0.002,0.003 0.006,0.009 0.0117,0.0185 0.0172,0.0274 3.7e-4,10e-4 10e-4,0.002 10e-4,0.002 0.006,0.009 0.0112,0.0179 0.0163,0.0265 3.1e-4,2.1e-4 3.7e-4,3.8e-4 0.001,10e-4 0.0109,0.0179 0.0207,0.0345 0.0294,0.0495 1e-4,1.1e-4 1e-4,3.2e-4 2.1e-4,3.8e-4 0.004,0.007 0.008,0.0142 0.012,0.0206 2.1e-4,10e-4 5e-4,10e-4 5e-4,0.002 0.004,0.006 0.007,0.012 0.01,0.0174 3.7e-4,0.001 0.001,0.001 0.001,0.002 0.003,0.005 0.006,0.0101 0.008,0.0145 2.1e-4,5e-4 5e-4,10e-4 5e-4,0.002 0.002,0.005 0.005,0.008 0.007,0.0118 2.1e-4,3.7e-4 3.7e-4,0.001 5e-4,0.002 0.002,0.003 0.003,0.006 0.005,0.009 0,10e-5 1e-4,2.1e-4 2.1e-4,3.7e-4 10e-4,0.002 0.002,0.005 0.003,0.006 10e-5,2.1e-4 10e-5,3.2e-4 2.1e-4,10e-4 3.7e-4,0.001 5e-4,0.001 5e-4,0.001 l 1.48662,3.07731 c 0.18305,0 0.47718,0.36568 0.47718,0.36568 z"
       id="path10-5"
       style="fill:#f2f2f2;fill-opacity:1;stroke-width:0.104899" />
    <path
       d="m 409.54201,533.298 c -0.37156,0 -0.67377,0.30222 -0.67377,0.67377 0,0.11644 0.0298,0.22605 0.082,0.32172 0.10511,0.1926 0.30158,0.32844 0.53079,0.34921 0.009,10e-4 0.0181,10e-4 0.0272,0.002 0.0112,3.8e-4 0.0225,0.001 0.0338,0.001 0.28469,0 0.52837,-0.17749 0.62698,-0.42757 0.0302,-0.0764 0.0469,-0.15934 0.0469,-0.2462 -1.1e-4,-0.37164 -0.30253,-0.67385 -0.67397,-0.67385 z m 0,1.13008 c -0.25197,0 -0.45632,-0.20434 -0.45632,-0.45631 0,-0.25197 0.20424,-0.45631 0.45632,-0.45631 0.25207,0 0.45641,0.20434 0.45641,0.45631 0,0.25197 -0.20434,0.45631 -0.45641,0.45631 z"
       id="path12"
       style="fill:#f2f2f2;fill-opacity:1;stroke-width:0.104899" />
    <path
       d="m 408.90884,534.30744 -1.94,4.04553 -1.03934,2.16752 c 0,0 0.29424,-0.36568 0.47708,-0.36568 l 0.80457,-1.66505 0.68237,-1.41236 c 0,0 0.36945,-0.71803 0.71677,-0.71803 0.0236,0 0.0472,0.004 0.0705,0.0104 l 0.85892,-1.55597 -0.0741,-0.1306 c -0.24138,-0.0258 -0.44761,-0.17067 -0.5568,-0.37574 z"
       id="path14"
       style="fill:#f2f2f2;fill-opacity:1;stroke-width:0.104899" />
  </g>
</svg>
