<?xml version="1.0" encoding="UTF-8" standalone="no"?>
<svg
   width="32"
   version="1.1"
   height="32"
   viewBox="0 0 32 32"
   id="svg15"
   sodipodi:docname="folder-IOTA.svg"
   inkscape:version="1.1.1 (3bf5ae0d25, 2021-09-20)"
   xmlns:inkscape="http://www.inkscape.org/namespaces/inkscape"
   xmlns:sodipodi="http://sodipodi.sourceforge.net/DTD/sodipodi-0.dtd"
   xmlns:xlink="http://www.w3.org/1999/xlink"
   xmlns="http://www.w3.org/2000/svg"
   xmlns:svg="http://www.w3.org/2000/svg"
   xmlns:rdf="http://www.w3.org/1999/02/22-rdf-syntax-ns#"
   xmlns:cc="http://creativecommons.org/ns#"
   xmlns:dc="http://purl.org/dc/elements/1.1/">
  <sodipodi:namedview
     pagecolor="#ffffff"
     bordercolor="#666666"
     borderopacity="1"
     objecttolerance="10"
     gridtolerance="10"
     guidetolerance="10"
     inkscape:pageopacity="0"
     inkscape:pageshadow="2"
     inkscape:window-width="1920"
     inkscape:window-height="1006"
     id="namedview17"
     showgrid="false"
     inkscape:zoom="9.8125"
     inkscape:cx="-13.044586"
     inkscape:cy="6.4203822"
     inkscape:window-x="0"
     inkscape:window-y="0"
     inkscape:window-maximized="1"
     inkscape:current-layer="layer1"
     inkscape:document-rotation="0"
     inkscape:pagecheckerboard="0" />
  <defs
     id="defs5455">
    <linearGradient
       inkscape:collect="always"
       xlink:href="#linearGradient860"
       id="linearGradient862"
       x1="113.94677"
       y1="255.36646"
       x2="406.08289"
       y2="255.36646"
       gradientUnits="userSpaceOnUse"
       gradientTransform="matrix(0.10135135,0,0,0.09220346,374.22014,507.65425)" />
    <linearGradient
       inkscape:collect="always"
       id="linearGradient860">
      <stop
         style="stop-color:#78acd3;stop-opacity:1"
         offset="0"
         id="stop856" />
      <stop
         style="stop-color:#d98cbb;stop-opacity:1"
         offset="1"
         id="stop858" />
    </linearGradient>
    <linearGradient
       inkscape:collect="always"
       xlink:href="#linearGradient842"
       id="linearGradient844"
       x1="386.30627"
       y1="522.45404"
       x2="446.83023"
       y2="522.45404"
       gradientUnits="userSpaceOnUse"
       gradientTransform="matrix(0.49567132,0,0,0.49972085,194.0905,274.04967)" />
    <linearGradient
       inkscape:collect="always"
       id="linearGradient842">
      <stop
         style="stop-color:#326e9a;stop-opacity:1"
         offset="0"
         id="stop838" />
      <stop
         style="stop-color:#339993;stop-opacity:1"
         offset="1"
         id="stop840" />
    </linearGradient>
  </defs>
  <metadata
     id="metadata5458">
    <rdf:RDF>
      <cc:Work
         rdf:about="">
        <dc:format>image/svg+xml</dc:format>
        <dc:type
           rdf:resource="http://purl.org/dc/dcmitype/StillImage" />
      </cc:Work>
    </rdf:RDF>
  </metadata>
  <g
     inkscape:label="Capa 1"
     inkscape:groupmode="layer"
     id="layer1"
     transform="translate(-384.57143,-515.798)">
    <path
       style="fill:url(#linearGradient862);fill-opacity:1;stroke-width:0.089569"
       d="m 400.57301,522.37783 c -0.44016,0 -0.96119,-0.25824 -1.15846,-0.57392 l -0.88505,-1.41859 c -0.19637,-0.31567 -0.7174,-0.57334 -1.1574,-0.57391 l -10.20056,-0.0134 c -0.973,-0.002 -1.3831,0.46748 -1.39693,1.50207 l -0.006,0.43614 v 1.28321 18.28579 c 0,0.35288 1.16036,1.28321 1.60036,1.28321 h 26.40757 c 0.44001,0 1.60036,-0.93033 1.60036,-1.28321 v -17.64418 c 0,-0.96241 -0.40002,-1.28321 -1.60036,-1.28321 z"
       id="path4-3"
       sodipodi:nodetypes="sccsssccsssssss" />
    <path
       style="fill:#f2f2f2;fill-opacity:1;stroke-width:0.0882825"
       d="m 413.46046,529.22774 c 0,0.66274 -0.39788,1.20497 -1.30857,1.20497 H 389.0541 c -0.9107,0 -1.25926,-0.54223 -1.25926,-1.20497 v -3.61492 c 0,-0.66274 0.34856,-1.20498 1.25926,-1.20498 h 23.04822 c 0.91069,0 1.35814,0.54224 1.35814,1.20498 z"
       id="path8-6"
       sodipodi:nodetypes="sssssssss" />
    <path
       style="fill:url(#linearGradient844);fill-opacity:1;stroke-width:0.09667"
       d="m 413.94973,526.46375 h -26.7566 c -0.81091,0 -1.6217,0.73763 -1.6217,1.47526 v 14.38374 c 0,0.97553 0.62711,1.47525 1.6217,1.47525 h 26.7566 c 0.99775,0 1.6217,-0.49972 1.6217,-1.47525 v -14.38374 c 0,-0.73763 -0.8108,-1.47526 -1.6217,-1.47526 z"
       id="path10"
       sodipodi:nodetypes="sssssssss" />
    <path
       style="isolation:isolate;fill:#f2f2f2;fill-opacity:1;stroke-width:0.575075"
       class="ColorScheme-Text"
       d="m 407.56012,542.29734 c 0.18058,-0.009 0.34487,-0.11286 0.43486,-0.27686 0.0703,-0.12755 0.09,-0.27863 0.0534,-0.42088 -0.0366,-0.14225 -0.12543,-0.26333 -0.24753,-0.33738 -0.12207,-0.0735 -0.26721,-0.0935 -0.40335,-0.0553 -0.13557,0.0384 -0.25202,0.13109 -0.32236,0.25865 -0.0703,0.12755 -0.0894,0.27862 -0.0528,0.42087 0.036,0.14226 0.12545,0.26334 0.24751,0.33682 0.0878,0.0535 0.18903,0.0794 0.29028,0.0741 z m 3.41702,-0.86703 c 0.0889,0 0.17439,-0.0371 0.2374,-0.10287 0.063,-0.0658 0.0979,-0.15458 0.0979,-0.24747 0,-0.19336 -0.15021,-0.34975 -0.33528,-0.34975 -0.18451,0 -0.33416,0.15695 -0.33416,0.34975 0,0.19281 0.14965,0.34977 0.33416,0.35034 z m -0.84329,-0.0894 c 0.0776,0 0.15246,-0.032 0.20702,-0.0893 0.0551,-0.0576 0.0861,-0.1352 0.0855,-0.21631 0,-0.16872 -0.13108,-0.3051 -0.29254,-0.3051 -0.1609,0 -0.2914,0.13697 -0.29196,0.3051 0,0.16868 0.13053,0.30564 0.29196,0.30564 z m 1.82326,-0.0352 c 0.10464,0 0.20533,-0.0433 0.27905,-0.12052 0.0743,-0.0776 0.1159,-0.18281 0.1159,-0.29212 0,-0.10934 -0.0411,-0.21397 -0.1159,-0.29157 -0.0737,-0.077 -0.17441,-0.1205 -0.27905,-0.1205 -0.10462,0 -0.20475,0.0433 -0.27904,0.1205 -0.0742,0.0776 -0.1153,0.18223 -0.1153,0.29157 0,0.10931 0.0408,0.21454 0.1153,0.29212 0.0743,0.077 0.17442,0.12052 0.27904,0.12052 z m -2.51748,-0.21397 c 0.14066,0 0.25429,-0.11872 0.25429,-0.2651 4.1e-4,-0.0705 -0.0264,-0.13811 -0.0743,-0.1881 -0.0479,-0.05 -0.11249,-0.0782 -0.18,-0.0776 -0.14006,0 -0.25369,0.11874 -0.25369,0.2657 3.9e-4,0.14638 0.11363,0.26453 0.25369,0.2651 z m -2.02577,-0.28801 c 0.15417,-0.007 0.29478,-0.097 0.37183,-0.23689 0.12548,-0.2275 0.0506,-0.51729 -0.1665,-0.64835 -0.21714,-0.1311 -0.49451,-0.0535 -0.62052,0.17338 -0.0602,0.10935 -0.0765,0.23866 -0.0455,0.36033 0.0315,0.12169 0.10739,0.22572 0.21152,0.28863 0.0759,0.0453 0.16202,0.067 0.24921,0.0629 z m 1.49756,-0.05 c 0.0585,0 0.11474,-0.0238 0.15636,-0.067 0.0409,-0.0426 0.0647,-0.10171 0.0647,-0.16285 0,-0.0611 -0.0227,-0.1199 -0.0647,-0.16283 -0.041,-0.0434 -0.0973,-0.0676 -0.15636,-0.0676 -0.058,0 -0.11424,0.0245 -0.15528,0.0676 -0.041,0.0433 -0.0647,0.10169 -0.0642,0.16283 0,0.12696 0.0985,0.22983 0.21943,0.22983 z m -2.65251,-0.12049 c 0.15413,-0.007 0.29423,-0.097 0.37186,-0.2369 0.12487,-0.22688 0.0506,-0.51667 -0.16653,-0.64834 -0.10407,-0.0629 -0.22841,-0.0799 -0.34484,-0.0478 -0.11645,0.0326 -0.21548,0.11226 -0.27566,0.2216 -0.12546,0.2269 -0.0506,0.51668 0.16652,0.64777 0.0754,0.0459 0.16144,0.0676 0.24865,0.0635 z m 4.56578,-0.21809 c 0.18452,0 0.33471,-0.15694 0.33416,-0.35033 0,-0.1928 -0.14964,-0.34916 -0.33416,-0.34916 -0.18508,0 -0.33529,0.15636 -0.33529,0.34916 0,0.0935 0.0348,0.18224 0.0979,0.24808 0.063,0.0658 0.14852,0.10225 0.23742,0.10225 z m -2.30483,-0.0623 c 0.0495,4.8e-4 0.0968,-0.0202 0.13163,-0.0564 0.0347,-0.0365 0.0546,-0.0858 0.0546,-0.13753 0,-0.0518 -0.0199,-0.10112 -0.0546,-0.13757 -0.0348,-0.0365 -0.0821,-0.057 -0.13163,-0.057 -0.049,0 -0.0967,0.0209 -0.13166,0.057 -0.0347,0.0365 -0.054,0.0858 -0.054,0.13757 0,0.0517 0.0192,0.10108 0.054,0.13753 0.0348,0.0365 0.0827,0.057 0.13166,0.0564 z m 1.46156,-0.0263 c 0.16087,-4.6e-4 0.29194,-0.13695 0.29194,-0.30567 -4.2e-4,-0.1687 -0.13107,-0.30506 -0.29194,-0.30506 -0.16148,0 -0.29256,0.13636 -0.29256,0.30506 -4.3e-4,0.0811 0.0309,0.15873 0.0855,0.21633 0.0546,0.057 0.12939,0.0893 0.20704,0.0893 z m 1.82212,-0.0351 c 0.10464,0 0.20534,-0.0434 0.27958,-0.12111 0.0737,-0.077 0.11532,-0.1822 0.11532,-0.29155 0,-0.10934 -0.0411,-0.21396 -0.11532,-0.29154 -0.0742,-0.0776 -0.17494,-0.1211 -0.27958,-0.1211 -0.10465,0 -0.20477,0.0433 -0.27901,0.1211 -0.0737,0.0776 -0.11534,0.1822 -0.11534,0.29154 0,0.10935 0.041,0.21456 0.11534,0.29155 0.0742,0.0776 0.17436,0.12111 0.27901,0.12111 z m -2.51636,-0.21399 c 0.1401,-4.3e-4 0.25315,-0.11931 0.25373,-0.26569 0,-0.14635 -0.11363,-0.26508 -0.25373,-0.26569 -0.0675,0 -0.13221,0.0283 -0.18001,0.0782 -0.048,0.0494 -0.0748,0.11757 -0.0748,0.1875 4.4e-4,0.14696 0.11423,0.26569 0.25485,0.26569 z m 3.58973,-0.19575 c 0.2509,0 0.45456,-0.2128 0.45456,-0.47496 0,-0.26217 -0.20366,-0.47435 -0.45456,-0.47435 -0.25091,0 -0.454,0.21218 -0.454,0.47435 0,0.26216 0.20309,0.47496 0.454,0.47496 z m -4.11797,-0.14225 c 0.12151,0 0.21999,-0.10287 0.21999,-0.22983 0,-0.12697 -0.0985,-0.22986 -0.21999,-0.22986 -0.12149,0 -0.21996,0.10289 -0.21996,0.22986 0,0.12696 0.0985,0.22983 0.21996,0.22983 z m -1.20221,-0.20516 c 0.13391,-0.006 0.25596,-0.084 0.32294,-0.20514 0.0523,-0.0952 0.0669,-0.2075 0.04,-0.31331 -0.027,-0.1058 -0.0934,-0.19573 -0.184,-0.25041 -0.18902,-0.11402 -0.42983,-0.0459 -0.53894,0.15108 -0.10859,0.19693 -0.0444,0.4491 0.14402,0.56313 0.0658,0.0397 0.14063,0.0588 0.21657,0.0546 z m -1.15492,-0.16988 c 0.13388,-0.007 0.25539,-0.0841 0.32289,-0.20573 0.0523,-0.0946 0.0664,-0.20749 0.04,-0.31271 -0.0269,-0.10582 -0.0928,-0.19632 -0.18394,-0.25099 -0.0906,-0.0547 -0.19861,-0.0694 -0.29928,-0.0409 -0.10126,0.0283 -0.18791,0.0976 -0.24024,0.19221 -0.10854,0.1975 -0.0437,0.44967 0.14514,0.56312 0.0652,0.0403 0.14066,0.0588 0.21602,0.0553 z m 3.98577,-0.0793 c 0.18506,0 0.33529,-0.15635 0.33529,-0.34975 0,-0.0929 -0.0347,-0.18165 -0.0979,-0.24747 -0.063,-0.0658 -0.14852,-0.10287 -0.23739,-0.10287 -0.0889,0 -0.17384,0.0371 -0.23684,0.10287 -0.063,0.0658 -0.0985,0.15459 -0.0979,0.24747 0,0.1934 0.15024,0.34975 0.33475,0.34975 z m -0.84329,-0.0882 c 0.0776,0 0.15247,-0.032 0.20701,-0.0899 0.0551,-0.057 0.0855,-0.1352 0.0855,-0.21573 0,-0.0811 -0.0309,-0.15929 -0.0855,-0.21631 -0.0545,-0.0576 -0.12939,-0.0899 -0.20701,-0.0899 -0.16148,4.6e-4 -0.29199,0.13756 -0.29199,0.30625 0,0.16813 0.13051,0.30509 0.29199,0.30566 z m 1.82326,-0.0365 c 0.10465,0 0.20532,-0.0433 0.27902,-0.12049 0.0743,-0.0776 0.1159,-0.18224 0.1159,-0.29156 0,-0.10933 -0.0411,-0.21455 -0.1159,-0.29156 -0.0737,-0.0776 -0.17437,-0.12109 -0.27902,-0.12109 -0.10464,0 -0.20476,0.0434 -0.27902,0.12109 -0.0737,0.077 -0.11533,0.18223 -0.11533,0.29156 0,0.10933 0.041,0.21396 0.11533,0.29156 0.0743,0.077 0.17438,0.12049 0.27902,0.12049 z m -5.88384,-0.16459 c 0.13443,-0.006 0.25651,-0.0841 0.32345,-0.20573 0.0523,-0.0946 0.067,-0.2075 0.04,-0.31331 -0.0269,-0.10579 -0.0934,-0.19573 -0.18398,-0.25041 -0.18901,-0.11345 -0.42983,-0.0459 -0.539,0.15109 -0.10851,0.19748 -0.0443,0.44907 0.14405,0.56311 0.0658,0.0397 0.14061,0.0588 0.21606,0.0553 z m 3.36639,-0.0489 c 0.0675,0 0.13219,-0.0277 0.18,-0.0776 0.048,-0.05 0.0748,-0.11757 0.0748,-0.1881 -4.6e-4,-0.14636 -0.11423,-0.26509 -0.25485,-0.26509 -0.1401,0 -0.25315,0.11873 -0.25374,0.26509 0,0.14695 0.11364,0.2657 0.25374,0.2657 z m 3.59081,-0.19574 c 0.25091,0 0.454,-0.21221 0.454,-0.47438 0,-0.26216 -0.20309,-0.47494 -0.454,-0.47494 -0.25087,0 -0.454,0.21278 -0.454,0.47494 0,0.26217 0.20313,0.47438 0.454,0.47438 z m -4.55224,-0.25924 c 0.11363,-0.005 0.21717,-0.0711 0.27451,-0.17458 0.0923,-0.16753 0.0372,-0.38148 -0.1232,-0.47787 -0.15978,-0.0964 -0.36454,-0.0391 -0.45736,0.12812 -0.0923,0.16754 -0.038,0.38149 0.12208,0.4779 0.0557,0.0332 0.11983,0.05 0.18397,0.0466 z m -1.15497,-0.16987 c 0.11421,-0.006 0.21714,-0.0717 0.27397,-0.17517 0.0923,-0.16693 0.038,-0.38091 -0.12205,-0.47788 -0.0771,-0.0466 -0.16879,-0.0588 -0.25429,-0.0346 -0.0861,0.0238 -0.1592,0.0829 -0.20366,0.16341 -0.0922,0.16695 -0.038,0.38091 0.12265,0.4779 0.0557,0.0332 0.11926,0.0494 0.18338,0.0465 z m 3.61168,-0.27802 c 0.0425,-4.7e-4 0.0844,-0.0135 0.12151,-0.0358 0.12151,-0.0735 0.16258,-0.23571 0.0928,-0.36268 -0.0703,-0.12697 -0.22613,-0.16987 -0.3471,-0.097 -0.12151,0.0734 -0.16314,0.23627 -0.0928,0.36266 0.0462,0.0841 0.13277,0.1352 0.22559,0.13286 z m 3.19593,-0.0489 c 0.14064,0 0.27567,-0.0588 0.37524,-0.16282 0.0996,-0.10405 0.15527,-0.24512 0.15527,-0.39207 0,-0.30625 -0.23744,-0.5549 -0.53051,-0.5549 -0.14122,0 -0.27623,0.0582 -0.37582,0.16225 -0.0996,0.10401 -0.15582,0.24512 -0.15582,0.39265 0,0.14695 0.0563,0.28802 0.15582,0.39265 0.0996,0.10402 0.2346,0.16223 0.37582,0.16223 z m -7.72515,-0.0413 c 0.11365,-0.006 0.21715,-0.0717 0.27452,-0.17517 0.0923,-0.16694 0.0372,-0.38093 -0.1232,-0.4779 -0.16032,-0.0964 -0.36451,-0.0391 -0.45735,0.12873 -0.0923,0.16695 -0.038,0.38089 0.12209,0.4779 0.0557,0.0332 0.11982,0.0494 0.18394,0.0466 z m 2.5293,-0.24631 c 0.099,-0.005 0.18957,-0.0623 0.23908,-0.15283 0.0393,-0.0699 0.0495,-0.15343 0.0299,-0.2316 -0.0199,-0.0788 -0.0692,-0.14521 -0.13614,-0.18576 -0.0675,-0.0405 -0.14741,-0.0517 -0.22225,-0.0308 -0.0748,0.0208 -0.13891,0.0723 -0.17774,0.14227 -0.0394,0.0705 -0.0495,0.15401 -0.0299,0.23218 0.0207,0.0782 0.0692,0.1452 0.13672,0.18575 0.0485,0.0297 0.10405,0.0433 0.16032,0.0405 z m 2.73068,-0.0297 c 0.0372,-0.001 0.0737,-0.0121 0.10521,-0.0314 0.0506,-0.0309 0.0877,-0.0806 0.10294,-0.13933 0.0141,-0.0594 0.006,-0.12167 -0.0226,-0.17459 -0.0297,-0.0529 -0.0771,-0.0911 -0.13389,-0.10696 -0.0563,-0.0156 -0.11645,-0.007 -0.16707,0.0228 -0.10464,0.0641 -0.14066,0.20395 -0.0799,0.31386 0.0401,0.0729 0.11476,0.11698 0.1952,0.11522 z m -3.88619,-0.14168 c 0.0996,-0.005 0.1896,-0.0617 0.2391,-0.15163 0.0399,-0.07 0.0495,-0.15343 0.0304,-0.23219 -0.0199,-0.0782 -0.0692,-0.14518 -0.13616,-0.18574 -0.067,-0.0405 -0.14683,-0.0512 -0.22219,-0.0309 -0.0748,0.0215 -0.1384,0.0723 -0.17723,0.14283 -0.0804,0.14578 -0.032,0.33271 0.10691,0.41678 0.0485,0.0297 0.10405,0.0434 0.15974,0.0405 z m 4.54383,-0.003 c 0.0312,-0.001 0.0613,-0.0101 0.0883,-0.0264 0.0889,-0.0535 0.11928,-0.17224 0.0681,-0.26512 -0.0244,-0.0446 -0.0653,-0.0776 -0.1131,-0.0905 -0.048,-0.0136 -0.0984,-0.006 -0.1412,0.0196 -0.0424,0.0257 -0.0737,0.0682 -0.0866,0.11815 -0.0131,0.05 -0.005,0.10288 0.0192,0.14754 0.0333,0.0611 0.0974,0.0988 0.16544,0.097 z m -1.56168,-0.18222 c 0.0495,-10e-4 0.0973,-0.0143 0.14008,-0.0405 0.0669,-0.0405 0.11591,-0.10758 0.13615,-0.18576 0.0206,-0.0782 0.01,-0.16164 -0.0299,-0.23218 -0.0393,-0.0699 -0.10292,-0.1211 -0.17775,-0.14166 -0.0748,-0.0215 -0.15471,-0.0101 -0.22165,0.0308 -0.14009,0.0846 -0.18792,0.27096 -0.10746,0.41735 0.0535,0.0964 0.15301,0.15511 0.25991,0.15219 z m -3.89912,-0.18342 c 0.099,-0.005 0.18901,-0.0617 0.23907,-0.15165 0.0393,-0.0705 0.0495,-0.15401 0.0297,-0.23218 -0.0207,-0.0782 -0.0692,-0.14519 -0.13615,-0.18575 -0.0675,-0.0405 -0.1474,-0.0511 -0.22222,-0.0308 -0.0748,0.0215 -0.13896,0.0723 -0.17777,0.14282 -0.0804,0.14578 -0.0322,0.33271 0.10692,0.41677 0.049,0.0297 0.10461,0.0433 0.16086,0.0405 z m 2.59115,-0.0238 c 0.0867,-0.004 0.16483,-0.0546 0.20815,-0.13282 0.0326,-0.0612 0.0423,-0.13344 0.025,-0.20165 -0.018,-0.0682 -0.0607,-0.12579 -0.11869,-0.16106 -0.0585,-0.0351 -0.12766,-0.0446 -0.19295,-0.0264 -0.0652,0.0182 -0.12038,0.0629 -0.15415,0.12402 -0.0333,0.0611 -0.0423,0.13345 -0.025,0.20162 0.0173,0.0676 0.0602,0.12576 0.11871,0.16104 0.0417,0.0251 0.09,0.0378 0.13894,0.0351 z m 2.19964,-0.0594 c 0.0425,-10e-4 0.0844,-0.0136 0.12151,-0.0351 0.12151,-0.0734 0.16315,-0.2363 0.0928,-0.36266 -0.0703,-0.12696 -0.22559,-0.17047 -0.3471,-0.097 -0.12153,0.0735 -0.16314,0.23572 -0.0928,0.36269 0.0468,0.0835 0.13276,0.13401 0.22558,0.13225 z m 0.77691,-0.0523 c 0.0372,-10e-4 0.0726,-0.0121 0.10462,-0.0312 0.0506,-0.031 0.0878,-0.0806 0.10294,-0.13934 0.0146,-0.0594 0.007,-0.12167 -0.0221,-0.17457 -0.0297,-0.0529 -0.0776,-0.0917 -0.13391,-0.10698 -0.0562,-0.0156 -0.11644,-0.007 -0.16705,0.0229 -0.0507,0.0309 -0.0872,0.0811 -0.1024,0.13988 -0.0146,0.0588 -0.006,0.12169 0.0226,0.17459 0.0402,0.0723 0.11477,0.11639 0.19525,0.11463 z m -4.13204,-0.0582 c 0.0866,-0.005 0.16484,-0.0547 0.20815,-0.13345 0.0703,-0.12696 0.029,-0.2892 -0.0928,-0.36267 -0.0585,-0.0346 -0.12771,-0.0446 -0.19297,-0.0258 -0.0647,0.0182 -0.12038,0.0629 -0.15414,0.12344 -0.0703,0.12697 -0.029,0.28921 0.0928,0.36269 0.0417,0.0258 0.0906,0.0385 0.13896,0.0358 z m 2.08036,-0.36325 c 0.0563,-10e-4 0.11081,-0.0177 0.15977,-0.0471 0.15978,-0.0964 0.21433,-0.31035 0.12207,-0.47788 -0.0923,-0.16694 -0.29704,-0.22454 -0.45735,-0.12814 -0.0771,0.0466 -0.13335,0.12286 -0.1564,0.21278 -0.0229,0.0899 -0.0117,0.18516 0.0333,0.2657 0.0613,0.11109 0.17552,0.1781 0.29814,0.17457 z m -1.56732,0 c 0.0754,-0.003 0.14293,-0.0465 0.18059,-0.11403 0.0299,-0.0529 0.0373,-0.11581 0.0222,-0.1746 -0.0147,-0.0594 -0.0523,-0.10931 -0.10293,-0.13988 -0.10522,-0.0629 -0.23908,-0.0251 -0.29984,0.0846 -0.0297,0.0523 -0.0373,0.11521 -0.0225,0.174 0.0147,0.0594 0.0523,0.10933 0.10241,0.13989 0.0367,0.022 0.0787,0.0322 0.12038,0.0303 z m -1.43057,-0.006 c 0.0866,-0.004 0.16538,-0.0541 0.20871,-0.13283 0.0327,-0.0606 0.0417,-0.13344 0.0245,-0.20105 -0.0173,-0.0682 -0.0602,-0.12638 -0.1181,-0.16163 -0.0585,-0.0345 -0.12827,-0.0446 -0.19296,-0.0263 -0.0653,0.0189 -0.12097,0.0635 -0.15414,0.12401 -0.0333,0.0611 -0.0425,0.13344 -0.025,0.20161 0.0173,0.0682 0.0602,0.12639 0.11813,0.16109 0.0417,0.0251 0.09,0.0378 0.13894,0.0351 z m 5.03718,-0.1664 c 0.0417,-10e-4 0.0838,-0.0136 0.12096,-0.0359 0.0585,-0.0345 0.10067,-0.0929 0.11868,-0.16105 0.0173,-0.0676 0.008,-0.14049 -0.025,-0.20162 -0.0703,-0.12638 -0.22559,-0.16989 -0.34708,-0.097 -0.0585,0.0351 -0.10129,0.0935 -0.11872,0.16166 -0.0173,0.0676 -0.008,0.14048 0.025,0.20161 0.0468,0.0835 0.13332,0.13461 0.22616,0.13225 z m -0.93666,-0.0471 c 0.0489,-10e-4 0.0968,-0.0143 0.13893,-0.0405 0.0675,-0.0405 0.11647,-0.10699 0.13672,-0.18514 0.0199,-0.0788 0.01,-0.16226 -0.0297,-0.23219 -0.0394,-0.0706 -0.10294,-0.12169 -0.17776,-0.14284 -0.0754,-0.0209 -0.15526,-0.0101 -0.22222,0.0308 -0.0675,0.0405 -0.11644,0.10759 -0.13671,0.18575 -0.02,0.0782 -0.009,0.16166 0.0299,0.23218 0.054,0.097 0.15413,0.15519 0.26103,0.15223 z m -3.58694,-0.1487 c 0.0749,-0.004 0.14236,-0.0471 0.18003,-0.11462 0.0298,-0.0529 0.0373,-0.11581 0.0223,-0.17457 -0.0147,-0.0588 -0.0518,-0.10935 -0.10237,-0.13992 -0.0506,-0.0308 -0.11082,-0.0391 -0.16709,-0.0228 -0.0563,0.0156 -0.10466,0.0547 -0.13388,0.10758 -0.0299,0.0529 -0.0373,0.11521 -0.0224,0.17458 0.0147,0.0588 0.0518,0.10873 0.10243,0.13929 0.0366,0.0224 0.0787,0.0322 0.12091,0.0308 z m 0.49678,-0.20809 c 0.063,-0.003 0.12037,-0.0398 0.15244,-0.0964 0.0512,-0.0929 0.0206,-0.21162 -0.0686,-0.26511 -0.0425,-0.0264 -0.0934,-0.0332 -0.14118,-0.0202 -0.048,0.0134 -0.0883,0.0459 -0.1131,0.0905 -0.0244,0.0446 -0.0316,0.0976 -0.0187,0.14753 0.0132,0.05 0.0437,0.0923 0.0866,0.11817 0.0314,0.0189 0.0669,0.0277 0.10238,0.0251 z m 1.34398,-0.15401 c 0.0658,-0.002 0.13051,-0.0215 0.18785,-0.0559 0.18849,-0.11403 0.25374,-0.36562 0.14461,-0.56311 -0.0523,-0.0946 -0.13842,-0.164 -0.23965,-0.19222 -0.1013,-0.029 -0.20873,-0.0136 -0.29982,0.041 -0.0906,0.0547 -0.15643,0.14461 -0.18343,0.2504 -0.0269,0.10583 -0.0132,0.21868 0.04,0.31332 0.072,0.13049 0.20644,0.20926 0.35101,0.20632 z m 2.50959,-0.13519 c 0.0496,-10e-4 0.0973,-0.0143 0.14004,-0.0405 0.067,-0.0406 0.11648,-0.107 0.13617,-0.18576 0.0207,-0.0782 0.01,-0.16165 -0.0296,-0.2316 -0.0393,-0.0705 -0.10242,-0.12168 -0.1778,-0.14284 -0.0748,-0.0216 -0.1547,-0.0101 -0.22167,0.0308 -0.0675,0.0405 -0.11643,0.10757 -0.13668,0.18575 -0.0207,0.0782 -0.01,0.16165 0.0299,0.2322 0.0535,0.0964 0.15304,0.15515 0.25992,0.15224 z m -1.14764,-0.0946 c 0.0562,-10e-4 0.11138,-0.0177 0.15975,-0.0466 0.0771,-0.0471 0.13333,-0.12345 0.15583,-0.2128 0.0227,-0.0899 0.0117,-0.18573 -0.0332,-0.26627 -0.0923,-0.16695 -0.29703,-0.22394 -0.45737,-0.12755 -0.15975,0.097 -0.21492,0.31094 -0.12263,0.47788 0.0613,0.11111 0.17552,0.17811 0.29816,0.17519 z m -2.28797,-0.44321 c 0.076,-0.002 0.15021,-0.0238 0.21604,-0.0635 0.10465,-0.0629 0.18058,-0.16694 0.21209,-0.28861 0.0314,-0.12168 0.0147,-0.25101 -0.0456,-0.36034 -0.0602,-0.10932 -0.1592,-0.18869 -0.27564,-0.22101 -0.11646,-0.0326 -0.24078,-0.0156 -0.34485,0.0478 -0.21716,0.13109 -0.29142,0.42088 -0.16596,0.64777 0.0827,0.15049 0.23796,0.24161 0.4039,0.23808 z m 3.05248,-0.20221 c 0.0563,-0.002 0.11081,-0.0177 0.15979,-0.0478 0.15975,-0.0964 0.21433,-0.31036 0.12207,-0.47788 -0.0922,-0.16694 -0.29705,-0.22455 -0.45737,-0.12814 -0.16035,0.0964 -0.21491,0.31034 -0.12265,0.47787 0.0608,0.11109 0.17553,0.17868 0.29816,0.17575 z m -1.4081,-0.0852 c 0.0664,-10e-4 0.1311,-0.0209 0.18847,-0.0553 0.18846,-0.11344 0.25316,-0.36562 0.14458,-0.56314 -0.0523,-0.0946 -0.13893,-0.16399 -0.23965,-0.19218 -0.10126,-0.0283 -0.20929,-0.0135 -0.29985,0.0408 -0.0906,0.0547 -0.15695,0.14521 -0.18396,0.251 -0.0269,0.10524 -0.0134,0.21808 0.04,0.31271 0.072,0.13049 0.20649,0.20927 0.3505,0.20574 z m -2.88536,-0.21046 c 0.0883,-0.002 0.17549,-0.0283 0.25201,-0.0746 0.25371,-0.15281 0.34091,-0.49199 0.19463,-0.75708 -0.1468,-0.26513 -0.47142,-0.35625 -0.72511,-0.20281 -0.25374,0.15281 -0.34037,0.49203 -0.19412,0.75709 0.0968,0.17574 0.27793,0.28215 0.47259,0.27744 z m 3.64991,-0.43555 c 0.0658,-10e-4 0.13051,-0.0209 0.18787,-0.0553 0.18902,-0.11345 0.25374,-0.36562 0.14458,-0.56311 -0.0523,-0.0946 -0.13839,-0.16397 -0.23964,-0.19221 -0.10127,-0.0283 -0.20872,-0.0136 -0.29984,0.0408 -0.0906,0.0547 -0.1564,0.14463 -0.1834,0.25041 -0.0269,0.10583 -0.0134,0.21868 0.0399,0.31331 0.0726,0.1305 0.207,0.20924 0.35102,0.20571 z m -1.69054,-0.027 c 0.076,-0.002 0.15078,-0.0239 0.21603,-0.0635 0.21774,-0.13108 0.29196,-0.42086 0.16711,-0.64838 -0.0602,-0.10873 -0.15978,-0.18865 -0.27622,-0.22162 -0.11647,-0.0319 -0.24023,-0.015 -0.34487,0.0478 -0.10459,0.0629 -0.1806,0.16694 -0.21151,0.28863 -0.0314,0.12168 -0.014,0.25098 0.0457,0.36033 0.0832,0.14992 0.23794,0.24099 0.40388,0.23691 z"
       id="start-here-kde-9-7-3-6-3-6" />
  </g>
</svg>
