<?xml version="1.0" encoding="UTF-8" standalone="no"?>
<svg
   width="32"
   version="1.1"
   height="32"
   viewBox="0 0 32 32"
   id="svg18"
   sodipodi:docname="folder-image-people.svg"
   inkscape:version="1.1.1 (3bf5ae0d25, 2021-09-20)"
   xmlns:inkscape="http://www.inkscape.org/namespaces/inkscape"
   xmlns:sodipodi="http://sodipodi.sourceforge.net/DTD/sodipodi-0.dtd"
   xmlns:xlink="http://www.w3.org/1999/xlink"
   xmlns="http://www.w3.org/2000/svg"
   xmlns:svg="http://www.w3.org/2000/svg"
   xmlns:rdf="http://www.w3.org/1999/02/22-rdf-syntax-ns#"
   xmlns:cc="http://creativecommons.org/ns#"
   xmlns:dc="http://purl.org/dc/elements/1.1/">
  <sodipodi:namedview
     pagecolor="#ffffff"
     bordercolor="#666666"
     borderopacity="1"
     objecttolerance="10"
     gridtolerance="10"
     guidetolerance="10"
     inkscape:pageopacity="0"
     inkscape:pageshadow="2"
     inkscape:window-width="1920"
     inkscape:window-height="1006"
     id="namedview20"
     showgrid="false"
     inkscape:zoom="9.8125"
     inkscape:cx="-7.8471338"
     inkscape:cy="8.6624204"
     inkscape:window-x="0"
     inkscape:window-y="0"
     inkscape:window-maximized="1"
     inkscape:current-layer="layer1"
     inkscape:document-rotation="0"
     inkscape:pagecheckerboard="0" />
  <defs
     id="defs5455">
    <linearGradient
       inkscape:collect="always"
       xlink:href="#linearGradient860-3"
       id="linearGradient862"
       x1="113.94677"
       y1="255.36646"
       x2="406.08289"
       y2="255.36646"
       gradientUnits="userSpaceOnUse"
       gradientTransform="matrix(0.10135135,0,0,0.09220346,374.22014,507.65424)" />
    <linearGradient
       inkscape:collect="always"
       id="linearGradient860-3">
      <stop
         style="stop-color:#78acd3;stop-opacity:1"
         offset="0"
         id="stop856-6" />
      <stop
         style="stop-color:#d98cbb;stop-opacity:1"
         offset="1"
         id="stop858-7" />
    </linearGradient>
    <linearGradient
       inkscape:collect="always"
       xlink:href="#linearGradient842-3"
       id="linearGradient844-5"
       x1="386.30627"
       y1="522.45404"
       x2="446.83023"
       y2="522.45404"
       gradientUnits="userSpaceOnUse"
       gradientTransform="matrix(0.49567132,0,0,0.49972085,194.0905,274.04968)" />
    <linearGradient
       inkscape:collect="always"
       id="linearGradient842-3">
      <stop
         style="stop-color:#326e9a;stop-opacity:1"
         offset="0"
         id="stop838-5" />
      <stop
         style="stop-color:#339993;stop-opacity:1"
         offset="1"
         id="stop840-6" />
    </linearGradient>
  </defs>
  <metadata
     id="metadata5458">
    <rdf:RDF>
      <cc:Work
         rdf:about="">
        <dc:format>image/svg+xml</dc:format>
        <dc:type
           rdf:resource="http://purl.org/dc/dcmitype/StillImage" />
      </cc:Work>
    </rdf:RDF>
  </metadata>
  <g
     inkscape:label="Capa 1"
     inkscape:groupmode="layer"
     id="layer1"
     transform="translate(-384.57143,-515.798)">
    <path
       style="fill:url(#linearGradient862);fill-opacity:1;stroke-width:0.089569"
       d="m 400.57301,522.37782 c -0.44016,0 -0.96119,-0.25824 -1.15846,-0.57392 l -0.88505,-1.41859 c -0.19637,-0.31567 -0.7174,-0.57334 -1.1574,-0.57391 l -10.20056,-0.0134 c -0.973,-10e-4 -1.3831,0.46748 -1.39693,1.50207 l -0.006,0.43614 v 1.28321 18.28579 c 0,0.35288 1.16036,1.28321 1.60036,1.28321 h 26.40757 c 0.44001,0 1.60036,-0.93033 1.60036,-1.28321 v -17.64418 c 0,-0.96241 -0.40002,-1.28321 -1.60036,-1.28321 z"
       id="path4-3"
       sodipodi:nodetypes="sccsssccsssssss" />
    <path
       style="fill:#f2f2f2;fill-opacity:1;stroke-width:0.0882825"
       d="m 413.46046,529.22773 c 0,0.66274 -0.39788,1.20497 -1.30857,1.20497 H 389.0541 c -0.9107,0 -1.25926,-0.54223 -1.25926,-1.20497 v -3.61492 c 0,-0.66274 0.34856,-1.20498 1.25926,-1.20498 h 23.04822 c 0.91069,0 1.35814,0.54224 1.35814,1.20498 z"
       id="path8-6"
       sodipodi:nodetypes="sssssssss" />
    <path
       style="fill:url(#linearGradient844-5);fill-opacity:1;stroke-width:0.09667"
       d="m 413.94973,526.46374 h -26.7566 c -0.81091,0 -1.6217,0.73763 -1.6217,1.47526 v 14.38374 c 0,0.97553 0.62711,1.47525 1.6217,1.47525 h 26.7566 c 0.99775,0 1.6217,-0.49972 1.6217,-1.47525 V 527.939 c 0,-0.73763 -0.8108,-1.47526 -1.6217,-1.47526 z"
       id="path10"
       sodipodi:nodetypes="sssssssss" />
    <path
       d="m 412.67898,540.56316 h -0.34331 c -0.18965,0 -0.34295,-0.15507 -0.34295,-0.3456 0,-0.19123 0.1533,-0.3463 0.34295,-0.3463 h 0.34331 c 0.37864,0 0.68627,-0.30944 0.68627,-0.69189 v -1.03751 c 0,-0.0277 -0.005,-0.0554 -0.0132,-0.0821 -0.002,-0.0102 -0.008,-0.0199 -0.0115,-0.0304 -0.005,-0.0118 -0.009,-0.024 -0.0154,-0.0355 -0.0782,-0.16004 -0.26992,-0.3141 -0.50916,-0.35836 -0.30611,-0.11485 -0.71541,-0.18581 -1.1666,-0.18581 -0.43832,0 -0.83656,0.0715 -1.13967,0.18328 -0.15329,0.0226 -0.28817,0.0917 -0.38935,0.17855 l -0.002,-0.002 c -0.0558,0.0498 -0.12868,0.0812 -0.2091,0.0812 -0.1746,0 -0.31634,-0.14316 -0.31634,-0.31901 0,-0.12482 0.0716,-0.23176 0.1746,-0.28395 0.18598,-0.13667 0.41183,-0.25441 0.67436,-0.34208 -0.28112,-0.28209 -0.4671,-0.6608 -0.50129,-1.08413 -0.004,-0.0467 -0.007,-0.0939 -0.007,-0.14156 v -1.03768 c 0,-0.7642 0.61437,-1.38379 1.37269,-1.38379 h 0.68627 c 0.7578,0 1.37252,0.61961 1.37252,1.38379 v 1.03768 c 0,0.19105 -0.15381,0.34613 -0.34329,0.34613 -0.18967,0 -0.34297,-0.15508 -0.34297,-0.34613 v -1.03768 c 0,-0.38227 -0.30763,-0.6919 -0.68626,-0.6919 h -0.68627 c -0.37915,0 -0.68643,0.30963 -0.68643,0.6919 v 1.03768 c 0,0.57332 0.46107,1.03801 1.02923,1.03801 1.26798,0 2.30374,0.56589 2.39338,1.28373 0.005,0.0325 0.009,0.0659 0.009,0.10034 v 1.03752 c -3e-5,0.76451 -0.61474,1.38378 -1.37256,1.38378 z m -3.60741,-2.97393 c -0.004,0.012 -0.008,0.0245 -0.014,0.0362 -3.8e-4,3.5e-4 -3.8e-4,0.002 -5e-4,0.002 h -3.7e-4 c -0.0556,0.11537 -0.17138,0.19561 -0.30709,0.19561 -0.18968,0 -0.34332,-0.15507 -0.34332,-0.34612 0,-0.0495 0.0105,-0.0968 0.0292,-0.13903 l -0.001,-3.7e-4 c 0.0809,-0.17637 0.12735,-0.37198 0.12735,-0.57924 0,-0.077 -0.008,-0.15237 -0.0199,-0.22636 0.0129,-0.0623 0.0199,-0.12737 0.0199,-0.19375 v -1.40831 c 0,-0.51857 -0.40965,-0.9392 -0.91512,-0.9392 h -0.91479 c -0.50564,0 -0.91529,0.42061 -0.91529,0.9392 v 1.40831 c 0,0.0664 0.007,0.13141 0.0199,0.19375 -0.0119,0.074 -0.0199,0.14932 -0.0199,0.22636 0,0.76419 0.61472,1.38404 1.3727,1.38404 2.18781,0 3.97282,0.78884 4.10484,1.78415 0.008,0.0386 0.0129,0.078 0.0129,0.11825 v 0.86521 c 0,0.76422 -0.61471,1.38347 -1.3727,1.38347 h -5.49028 c -0.75786,-10e-6 -1.37257,-0.61928 -1.37257,-1.38348 v -0.86521 c 0,-0.0402 0.004,-0.078 0.01,-0.11554 0.0445,-0.34865 0.29336,-0.66992 0.6871,-0.94121 0.0558,-0.0477 0.12683,-0.0781 0.20557,-0.0781 0.17542,0 0.31766,0.14292 0.31766,0.31996 0,0.11316 -0.0583,0.21148 -0.14627,0.26858 l 0.002,0.004 c -0.24779,0.16687 -0.3897,0.35202 -0.3897,0.5429 v 0.86521 c 0,0.38177 0.3076,0.69157 0.68626,0.69157 h 5.49029 c 0.37915,0 0.68626,-0.3098 0.68626,-0.69157 v -0.86521 c 0,-0.66893 -1.53639,-1.21049 -3.43132,-1.21049 -0.55104,0 -1.05051,-0.21993 -1.41994,-0.57533 -0.0977,-0.0939 -0.18731,-0.19831 -0.26506,-0.31014 -0.0761,-0.10904 -0.14191,-0.22627 -0.19619,-0.34923 -0.002,-0.004 -0.004,-0.008 -0.006,-0.0128 -0.0226,-0.0522 -0.0426,-0.10659 -0.061,-0.16097 -0.004,-0.0123 -0.009,-0.024 -0.0133,-0.0365 -0.0156,-0.0485 -0.0274,-0.0988 -0.0394,-0.14915 -0.005,-0.0188 -0.0102,-0.037 -0.0143,-0.0563 -0.0119,-0.0574 -0.0197,-0.11622 -0.0272,-0.17501 -0.002,-0.0112 -0.004,-0.022 -0.005,-0.0331 -0.008,-0.0713 -0.0115,-0.14391 -0.0115,-0.21741 0,-0.0383 0.003,-0.0752 0.006,-0.11316 -0.002,-0.0392 -0.006,-0.0779 -0.006,-0.11758 v -1.61421 c 0,-0.89189 0.69163,-1.61453 1.5441,-1.61453 h 1.02956 c 0.85297,0 1.5441,0.72264 1.5441,1.61453 v 1.61421 c 0,0.0396 -0.003,0.0784 -0.006,0.11758 0.002,0.038 0.006,0.0748 0.006,0.11316 0,0.29629 -0.0645,0.57653 -0.17593,0.83142 z m -3.76992,1.07121 c 0,0.19086 -0.15382,0.34596 -0.34332,0.34596 -0.18965,0 -0.34295,-0.1551 -0.34295,-0.34596 0,-0.19088 0.1533,-0.34596 0.34295,-0.34596 0.1895,0 0.34332,0.15508 0.34332,0.34596 z"
       id="path2"
       style="fill:#f2f2f2;fill-opacity:1;stroke-width:0.0215338" />
  </g>
</svg>
