<?xml version="1.0" encoding="UTF-8" standalone="no"?>
<svg
   width="32"
   version="1.1"
   height="32"
   viewBox="0 0 32 32"
   id="svg17"
   sodipodi:docname="folder-image.svg"
   inkscape:version="1.1.1 (3bf5ae0d25, 2021-09-20)"
   xmlns:inkscape="http://www.inkscape.org/namespaces/inkscape"
   xmlns:sodipodi="http://sodipodi.sourceforge.net/DTD/sodipodi-0.dtd"
   xmlns:xlink="http://www.w3.org/1999/xlink"
   xmlns="http://www.w3.org/2000/svg"
   xmlns:svg="http://www.w3.org/2000/svg"
   xmlns:rdf="http://www.w3.org/1999/02/22-rdf-syntax-ns#"
   xmlns:cc="http://creativecommons.org/ns#"
   xmlns:dc="http://purl.org/dc/elements/1.1/">
  <sodipodi:namedview
     pagecolor="#ffffff"
     bordercolor="#666666"
     borderopacity="1"
     objecttolerance="10"
     gridtolerance="10"
     guidetolerance="10"
     inkscape:pageopacity="0"
     inkscape:pageshadow="2"
     inkscape:window-width="1920"
     inkscape:window-height="1006"
     id="namedview19"
     showgrid="false"
     inkscape:zoom="9.8125"
     inkscape:cx="-7.6433121"
     inkscape:cy="7.4394904"
     inkscape:window-x="0"
     inkscape:window-y="0"
     inkscape:window-maximized="1"
     inkscape:current-layer="layer1"
     inkscape:document-rotation="0"
     inkscape:pagecheckerboard="0" />
  <defs
     id="defs5455">
    <linearGradient
       inkscape:collect="always"
       xlink:href="#linearGradient860-6"
       id="linearGradient862-3"
       x1="113.94677"
       y1="255.36646"
       x2="406.08289"
       y2="255.36646"
       gradientUnits="userSpaceOnUse"
       gradientTransform="matrix(0.10135135,0,0,0.09220346,374.22015,507.65424)" />
    <linearGradient
       inkscape:collect="always"
       id="linearGradient860-6">
      <stop
         style="stop-color:#78acd3;stop-opacity:1"
         offset="0"
         id="stop856-7" />
      <stop
         style="stop-color:#d98cbb;stop-opacity:1"
         offset="1"
         id="stop858-5" />
    </linearGradient>
    <linearGradient
       inkscape:collect="always"
       xlink:href="#linearGradient842-5"
       id="linearGradient844-3"
       x1="386.30627"
       y1="522.45404"
       x2="446.83023"
       y2="522.45404"
       gradientUnits="userSpaceOnUse"
       gradientTransform="matrix(0.49567132,0,0,0.49972085,194.0905,274.04969)" />
    <linearGradient
       inkscape:collect="always"
       id="linearGradient842-5">
      <stop
         style="stop-color:#326e9a;stop-opacity:1"
         offset="0"
         id="stop838-6" />
      <stop
         style="stop-color:#339993;stop-opacity:1"
         offset="1"
         id="stop840-2" />
    </linearGradient>
    <linearGradient
       inkscape:collect="always"
       xlink:href="#linearGradient851"
       id="linearGradient1897"
       x1="401.86566"
       y1="520.7981"
       x2="431.46234"
       y2="520.7981"
       gradientUnits="userSpaceOnUse"
       gradientTransform="matrix(0.27747487,0,0,0.27974178,288.08935,397.68587)" />
    <linearGradient
       inkscape:collect="always"
       id="linearGradient851">
      <stop
         style="stop-color:#ccff00;stop-opacity:1"
         offset="0"
         id="stop847" />
      <stop
         style="stop-color:#ffccaa;stop-opacity:1"
         offset="1"
         id="stop849" />
    </linearGradient>
  </defs>
  <metadata
     id="metadata5458">
    <rdf:RDF>
      <cc:Work
         rdf:about="">
        <dc:format>image/svg+xml</dc:format>
        <dc:type
           rdf:resource="http://purl.org/dc/dcmitype/StillImage" />
      </cc:Work>
    </rdf:RDF>
  </metadata>
  <g
     inkscape:label="Capa 1"
     inkscape:groupmode="layer"
     id="layer1"
     transform="translate(-384.57143,-515.798)">
    <path
       style="fill:url(#linearGradient862-3);fill-opacity:1;stroke-width:0.089569"
       d="m 400.57301,522.37783 c -0.44016,0 -0.96119,-0.25824 -1.15846,-0.57392 l -0.88505,-1.41859 c -0.19637,-0.31567 -0.7174,-0.57334 -1.1574,-0.57391 l -10.20056,-0.0134 c -0.973,-0.002 -1.3831,0.46748 -1.39693,1.50207 l -0.006,0.43614 v 1.28321 18.28579 c 0,0.35288 1.16036,1.28321 1.60036,1.28321 h 26.40757 c 0.44001,0 1.60036,-0.93033 1.60036,-1.28321 v -17.64418 c 0,-0.96241 -0.40002,-1.28321 -1.60036,-1.28321 z"
       id="path4-3-9"
       sodipodi:nodetypes="sccsssccsssssss" />
    <path
       style="fill:#f2f2f2;fill-opacity:1;stroke-width:0.0882825"
       d="m 413.46046,529.22774 c 0,0.66274 -0.39788,1.20497 -1.30857,1.20497 H 389.0541 c -0.9107,0 -1.25926,-0.54223 -1.25926,-1.20497 v -3.61492 c 0,-0.66274 0.34856,-1.20498 1.25926,-1.20498 h 23.04822 c 0.91069,0 1.35814,0.54224 1.35814,1.20498 z"
       id="path8-6-1"
       sodipodi:nodetypes="sssssssss" />
    <path
       style="fill:url(#linearGradient844-3);fill-opacity:1;stroke-width:0.09667"
       d="m 413.94973,526.46375 h -26.7566 c -0.81091,0 -1.6217,0.73763 -1.6217,1.47526 v 14.38374 c 0,0.97553 0.62711,1.47525 1.6217,1.47525 h 26.7566 c 0.99775,0 1.6217,-0.49972 1.6217,-1.47525 v -14.38374 c 0,-0.73763 -0.8108,-1.47526 -1.6217,-1.47526 z"
       id="path10-2"
       sodipodi:nodetypes="sssssssss" />
    <path
       d="m 412.32512,536.06995 c -0.56733,0 -1.02717,-0.46359 -1.02717,-1.03521 0,-0.19062 0.15345,-0.34533 0.3425,-0.34533 0.18922,0 0.34216,0.15471 0.34216,0.34531 0,0.19025 0.15345,0.34495 0.34251,0.34495 0.18922,0 0.34215,0.15471 0.34215,0.34496 0,0.19061 -0.15293,0.34532 -0.34215,0.34532 z m -0.68467,4.48662 c 0,0.19077 -0.15345,0.34547 -0.3425,0.34547 -0.18871,0 -0.34216,-0.1547 -0.34216,-0.34547 0,-0.19077 0.15345,-0.34478 0.34216,-0.34478 0.18905,0 0.3425,0.15401 0.3425,0.34478 z m -1.16874,-2.90369 -0.21295,0.21419 c -0.13356,0.13473 -0.35002,0.13473 -0.48408,0 -0.13355,-0.13464 -0.13355,-0.35338 0,-0.48803 l 0.21295,-0.21437 c 0.53489,-0.53909 1.40159,-0.53909 1.93631,0 l 0.72613,0.73232 c 0.13407,0.13447 0.13407,0.35322 0,0.48804 -0.13355,0.13447 -0.35035,0.13447 -0.48407,0 l -0.72613,-0.73213 c -0.26711,-0.26983 -0.70106,-0.26983 -0.96816,-2e-5 z m 2.19556,4.62935 h -8.21577 c -0.75622,0 -1.36933,-0.6178 -1.36933,-1.38019 v -1.03573 c 0,-0.19077 0.15345,-0.34478 0.3425,-0.34478 0.18871,0 0.34216,0.15404 0.34216,0.34478 v 1.03573 c 0,0.38088 0.30639,0.68994 0.68467,0.68994 h 8.21577 c 0.37828,0 0.68467,-0.30906 0.68467,-0.68994 v -6.21263 c 0,-0.38136 -0.30639,-0.69025 -0.68467,-0.69025 h -8.21577 c -0.37828,0 -0.68467,0.30889 -0.68467,0.69025 v 3.3326 c 0,0.0954 0.0767,0.17257 0.17099,0.17257 0.0441,0 0.0824,-0.0168 0.11334,-0.0444 l 1.65733,-1.67081 c 0.53472,-0.53911 1.40159,-0.53911 1.93631,0 l 2.88241,2.90607 c 0.0689,0.063 0.11299,0.15334 0.11299,0.25479 0,0.19008 -0.15311,0.34478 -0.34216,0.34478 -0.10413,0 -0.19624,-0.0476 -0.25876,-0.12134 l -0.003,0.002 -2.8754,-2.89896 c -0.2671,-0.26929 -0.70104,-0.26929 -0.96815,0 l -1.65951,1.67316 c -0.15429,0.15064 -0.36373,0.24435 -0.59523,0.24435 -0.47256,0 -0.85567,-0.38624 -0.85567,-0.86282 v -3.3326 c 0,-0.76238 0.61311,-1.38051 1.36932,-1.38051 h 8.21578 c 0.75655,0 1.3695,0.61815 1.3695,1.38051 v 6.21261 c 0,0.76241 -0.61295,1.38021 -1.3695,1.38021 z"
       id="path2-36"
       style="fill:#f2f2f2;fill-opacity:1;stroke:url(#linearGradient1897);stroke-width:0.0214829" />
  </g>
</svg>
