<?xml version="1.0" encoding="UTF-8" standalone="no"?>
<svg
   width="32"
   version="1.1"
   height="32"
   viewBox="0 0 32 32"
   id="svg15"
   sodipodi:docname="folder-Reddit.svg"
   inkscape:version="1.1.1 (3bf5ae0d25, 2021-09-20)"
   xmlns:inkscape="http://www.inkscape.org/namespaces/inkscape"
   xmlns:sodipodi="http://sodipodi.sourceforge.net/DTD/sodipodi-0.dtd"
   xmlns:xlink="http://www.w3.org/1999/xlink"
   xmlns="http://www.w3.org/2000/svg"
   xmlns:svg="http://www.w3.org/2000/svg"
   xmlns:rdf="http://www.w3.org/1999/02/22-rdf-syntax-ns#"
   xmlns:cc="http://creativecommons.org/ns#"
   xmlns:dc="http://purl.org/dc/elements/1.1/">
  <sodipodi:namedview
     pagecolor="#ffffff"
     bordercolor="#666666"
     borderopacity="1"
     objecttolerance="10"
     gridtolerance="10"
     guidetolerance="10"
     inkscape:pageopacity="0"
     inkscape:pageshadow="2"
     inkscape:window-width="1920"
     inkscape:window-height="1006"
     id="namedview17"
     showgrid="false"
     inkscape:zoom="9.8125"
     inkscape:cx="-13.044586"
     inkscape:cy="6.4203822"
     inkscape:window-x="0"
     inkscape:window-y="0"
     inkscape:window-maximized="1"
     inkscape:current-layer="layer1"
     inkscape:document-rotation="0"
     inkscape:pagecheckerboard="0" />
  <defs
     id="defs5455">
    <linearGradient
       inkscape:collect="always"
       xlink:href="#linearGradient860"
       id="linearGradient862"
       x1="113.94677"
       y1="255.36646"
       x2="406.08289"
       y2="255.36646"
       gradientUnits="userSpaceOnUse"
       gradientTransform="matrix(0.10135135,0,0,0.09220346,374.22014,507.65424)" />
    <linearGradient
       inkscape:collect="always"
       id="linearGradient860">
      <stop
         style="stop-color:#78acd3;stop-opacity:1"
         offset="0"
         id="stop856" />
      <stop
         style="stop-color:#d98cbb;stop-opacity:1"
         offset="1"
         id="stop858" />
    </linearGradient>
    <linearGradient
       inkscape:collect="always"
       xlink:href="#linearGradient842"
       id="linearGradient844"
       x1="386.30627"
       y1="522.45404"
       x2="446.83023"
       y2="522.45404"
       gradientUnits="userSpaceOnUse"
       gradientTransform="matrix(0.49567132,0,0,0.49972085,194.0905,274.04968)" />
    <linearGradient
       inkscape:collect="always"
       id="linearGradient842">
      <stop
         style="stop-color:#326e9a;stop-opacity:1"
         offset="0"
         id="stop838" />
      <stop
         style="stop-color:#339993;stop-opacity:1"
         offset="1"
         id="stop840" />
    </linearGradient>
  </defs>
  <metadata
     id="metadata5458">
    <rdf:RDF>
      <cc:Work
         rdf:about="">
        <dc:format>image/svg+xml</dc:format>
        <dc:type
           rdf:resource="http://purl.org/dc/dcmitype/StillImage" />
      </cc:Work>
    </rdf:RDF>
  </metadata>
  <g
     inkscape:label="Capa 1"
     inkscape:groupmode="layer"
     id="layer1"
     transform="translate(-384.57143,-515.798)">
    <path
       style="fill:url(#linearGradient862);fill-opacity:1;stroke-width:0.089569"
       d="m 400.573,522.37782 c -0.44015,0 -0.96118,-0.25824 -1.15845,-0.57392 l -0.88505,-1.41859 c -0.19637,-0.31567 -0.7174,-0.57334 -1.1574,-0.57391 l -10.20056,-0.0134 c -0.97301,-10e-4 -1.38311,0.46748 -1.39693,1.50207 l -0.006,0.43614 v 1.28321 18.28579 c 0,0.35288 1.16036,1.28321 1.60036,1.28321 h 26.40758 c 0.44001,0 1.60035,-0.93033 1.60035,-1.28321 v -17.64418 c 0,-0.96241 -0.40002,-1.28321 -1.60035,-1.28321 z"
       id="path4-3"
       sodipodi:nodetypes="sccsssccsssssss" />
    <path
       style="fill:#f2f2f2;fill-opacity:1;stroke-width:0.0882825"
       d="m 413.46046,529.22773 c 0,0.66274 -0.39789,1.20497 -1.30858,1.20497 h -23.09779 c -0.91069,0 -1.25926,-0.54223 -1.25926,-1.20497 v -3.61492 c 0,-0.66274 0.34857,-1.20498 1.25926,-1.20498 h 23.04823 c 0.91068,0 1.35814,0.54224 1.35814,1.20498 z"
       id="path8-6"
       sodipodi:nodetypes="sssssssss" />
    <path
       style="fill:url(#linearGradient844);fill-opacity:1;stroke-width:0.09667"
       d="m 413.94973,526.46374 h -26.7566 c -0.81091,0 -1.6217,0.73763 -1.6217,1.47526 v 14.38374 c 0,0.97553 0.6271,1.47525 1.6217,1.47525 h 26.7566 c 0.99775,0 1.6217,-0.49972 1.6217,-1.47525 V 527.939 c 0,-0.73763 -0.8108,-1.47526 -1.6217,-1.47526 z"
       id="path10"
       sodipodi:nodetypes="sssssssss" />
    <path
       clip-rule="evenodd"
       d="m 410.03486,535.97356 c 0.0344,0 0.0672,0.007 0.098,0.0171 0.70809,0.14408 1.34335,0.41082 1.86177,0.76634 0.21052,-0.1546 0.46849,-0.24652 0.74886,-0.24652 0.70373,0 1.27458,0.57514 1.27458,1.285 0,0.48047 -0.26185,0.89866 -0.6488,1.11903 0.004,0.0554 0.0115,0.10997 0.0115,0.16597 0,1.77408 -1.99761,3.2125 -4.46105,3.2125 -2.46375,0 -4.46105,-1.43842 -4.46105,-3.2125 0,-0.056 0.008,-0.11059 0.0117,-0.16597 -0.38712,-0.22037 -0.64897,-0.63856 -0.64897,-1.11903 0,-0.70986 0.57054,-1.285 1.27459,-1.285 0.28005,0 0.53849,0.0919 0.749,0.2465 0.65191,-0.44784 1.49084,-0.7519 2.42515,-0.85011 0.004,-0.002 0.007,-0.006 0.0123,-0.007 0.2449,-0.0234 0.46086,-0.19042 0.54269,-0.43575 l 0.34494,-1.29787 c 0.16149,-0.45089 0.62795,-0.71372 1.09612,-0.61246 l 0.52683,0.14251 c 3.7e-4,3.8e-4 -3.7e-4,0.002 3.7e-4,0.002 0.38807,0.10087 0.67545,0.4564 0.67545,0.8796 0,10e-4 3.7e-4,10e-4 3.7e-4,0.002 0,0.001 -3.7e-4,0.002 -3.7e-4,0.003 0,0.35475 0.28503,0.6425 0.63729,0.6425 0.35195,0 0.63729,-0.28775 0.63729,-0.6425 0,-0.11796 -0.0336,-0.22706 -0.0888,-0.32203 l 0.002,-10e-4 c -0.0266,-0.0471 -0.0433,-0.10085 -0.0433,-0.1589 0,-0.17716 0.14299,-0.32117 0.31865,-0.32117 0.11668,0 0.21703,0.0634 0.27274,0.15766 l 0.002,-10e-4 c 0.11001,0.19004 0.17412,0.41042 0.17412,0.64641 0,0.70987 -0.57086,1.285 -1.27459,1.285 -0.70405,0 -1.27458,-0.57513 -1.27458,-1.285 0,-0.11914 -0.0748,-0.21961 -0.17924,-0.25937 l -0.51127,-0.13819 c -0.16042,-0.0371 -0.32145,0.0545 -0.37279,0.21184 l -0.33219,1.25111 c -0.15295,0.49294 -0.57428,0.83019 -1.05707,0.89088 -1.85476,0.17719 -3.28308,1.24573 -3.28308,2.54123 0,1.41928 1.71179,2.57 3.82376,2.57 2.11165,-3e-5 3.82375,-1.15075 3.82375,-2.57003 0,-1.17173 -1.16754,-2.15799 -2.76233,-2.46755 l 3.2e-4,-0.002 c -0.1506,-0.0254 -0.26527,-0.15693 -0.26527,-0.31583 -2e-5,-0.17751 0.1425,-0.32119 0.31863,-0.32119 z m -4.72057,1.22069 c -0.0685,-0.0253 -0.14144,-0.0413 -0.2183,-0.0413 -0.35226,0 -0.63729,0.28776 -0.63729,0.6425 0,0.16518 0.0633,0.31418 0.1654,0.42839 0.14439,-0.37584 0.37995,-0.72282 0.69019,-1.02963 z m 7.90127,1.02963 c 0.10191,-0.11421 0.16524,-0.26321 0.16524,-0.42839 0,-0.35474 -0.28535,-0.6425 -0.63729,-0.6425 -0.0772,0 -0.15015,0.016 -0.21861,0.0413 0.31026,0.30681 0.54612,0.65379 0.69066,1.02963 z m -3.31746,0.21411 c 0,-0.34228 0.27507,-0.61991 0.61488,-0.61991 0.3395,0 0.61457,0.27763 0.61457,0.61991 0,0.34227 -0.27507,0.6199 -0.61457,0.6199 -0.3398,0 -0.61488,-0.27763 -0.61488,-0.6199 z m -3.18647,0 c 0,-0.34228 0.27507,-0.61991 0.61489,-0.61991 0.33949,0 0.61457,0.27763 0.61457,0.61991 0,0.34227 -0.27508,0.6199 -0.61457,0.6199 -0.33979,0 -0.61489,-0.27763 -0.61489,-0.6199 z m 3.38578,1.57659 4.9e-4,3.7e-4 c 0.058,-0.0791 0.1503,-0.13129 0.25532,-0.13129 0.17613,0 0.31864,0.14368 0.31864,0.32125 0,3.7e-4 0,5e-4 0,10e-4 0,0.003 -10e-4,0.007 -10e-4,0.0105 -4.9e-4,0.019 -0.002,0.0381 -0.006,0.056 -0.0758,0.4121 -0.82726,0.73524 -1.74508,0.73524 -0.89526,0 -1.63074,-0.30808 -1.73607,-0.70525 -0.0101,-0.0311 -0.0167,-0.0634 -0.0167,-0.0977 0,-0.17757 0.14252,-0.32125 0.31865,-0.32125 0.11591,0 0.21548,0.0631 0.27151,0.15577 l 0.003,-10e-4 c 0.16414,0.18996 0.62064,0.32705 1.15945,0.32705 0.5609,0 1.0325,-0.1487 1.17766,-0.3509 z m 2.0088,-6.07409 c -0.17613,0 -0.31864,-0.14368 -0.31864,-0.32125 0,-0.17757 0.14251,-0.32125 0.31864,-0.32125 0.17582,0 0.31865,0.14368 0.31865,0.32125 0,0.17757 -0.14283,0.32125 -0.31865,0.32125 z"
       fill-rule="evenodd"
       id="path2"
       style="fill:#f2f2f2;fill-opacity:1;stroke-width:0.0199966" />
  </g>
</svg>
