<?xml version="1.0" encoding="UTF-8" standalone="no"?>
<svg
   width="32"
   version="1.1"
   height="32"
   viewBox="0 0 32 32"
   id="svg15"
   sodipodi:docname="folder-sign.svg"
   inkscape:version="1.1.1 (3bf5ae0d25, 2021-09-20)"
   xmlns:inkscape="http://www.inkscape.org/namespaces/inkscape"
   xmlns:sodipodi="http://sodipodi.sourceforge.net/DTD/sodipodi-0.dtd"
   xmlns:xlink="http://www.w3.org/1999/xlink"
   xmlns="http://www.w3.org/2000/svg"
   xmlns:svg="http://www.w3.org/2000/svg"
   xmlns:rdf="http://www.w3.org/1999/02/22-rdf-syntax-ns#"
   xmlns:cc="http://creativecommons.org/ns#"
   xmlns:dc="http://purl.org/dc/elements/1.1/">
  <sodipodi:namedview
     pagecolor="#ffffff"
     bordercolor="#666666"
     borderopacity="1"
     objecttolerance="10"
     gridtolerance="10"
     guidetolerance="10"
     inkscape:pageopacity="0"
     inkscape:pageshadow="2"
     inkscape:window-width="1920"
     inkscape:window-height="1006"
     id="namedview17"
     showgrid="false"
     inkscape:zoom="9.8125"
     inkscape:cx="-12.942675"
     inkscape:cy="6.522293"
     inkscape:window-x="0"
     inkscape:window-y="0"
     inkscape:window-maximized="1"
     inkscape:current-layer="layer1"
     inkscape:document-rotation="0"
     inkscape:pagecheckerboard="0" />
  <defs
     id="defs5455">
    <linearGradient
       inkscape:collect="always"
       id="linearGradient860">
      <stop
         style="stop-color:#78acd3;stop-opacity:1"
         offset="0"
         id="stop856" />
      <stop
         style="stop-color:#d98cbb;stop-opacity:1"
         offset="1"
         id="stop858" />
    </linearGradient>
    <linearGradient
       inkscape:collect="always"
       id="linearGradient842">
      <stop
         style="stop-color:#326e9a;stop-opacity:1"
         offset="0"
         id="stop838" />
      <stop
         style="stop-color:#339993;stop-opacity:1"
         offset="1"
         id="stop840" />
    </linearGradient>
    <linearGradient
       inkscape:collect="always"
       xlink:href="#linearGradient860"
       id="linearGradient862-3"
       x1="113.94677"
       y1="255.36646"
       x2="406.08289"
       y2="255.36646"
       gradientUnits="userSpaceOnUse"
       gradientTransform="matrix(0.10135135,0,0,0.09220346,374.22015,507.65423)" />
    <linearGradient
       inkscape:collect="always"
       xlink:href="#linearGradient842"
       id="linearGradient844-5"
       x1="386.30627"
       y1="522.45404"
       x2="446.83023"
       y2="522.45404"
       gradientUnits="userSpaceOnUse"
       gradientTransform="matrix(0.49567132,0,0,0.49972085,194.09051,274.04968)" />
  </defs>
  <metadata
     id="metadata5458">
    <rdf:RDF>
      <cc:Work
         rdf:about="">
        <dc:format>image/svg+xml</dc:format>
        <dc:type
           rdf:resource="http://purl.org/dc/dcmitype/StillImage" />
      </cc:Work>
    </rdf:RDF>
  </metadata>
  <g
     inkscape:label="Capa 1"
     inkscape:groupmode="layer"
     id="layer1"
     transform="translate(-384.57143,-515.798)">
    <path
       style="fill:url(#linearGradient862-3);fill-opacity:1;stroke-width:0.089569"
       d="m 400.57301,522.37782 c -0.44016,0 -0.96119,-0.25824 -1.15846,-0.57392 l -0.88505,-1.41859 c -0.19637,-0.31567 -0.7174,-0.57334 -1.1574,-0.57391 l -10.20056,-0.0134 c -0.973,-10e-4 -1.3831,0.46748 -1.39693,1.50207 l -0.006,0.43614 v 1.28321 18.28579 c 0,0.35288 1.16036,1.28321 1.60036,1.28321 h 26.40757 c 0.44001,0 1.60036,-0.93033 1.60036,-1.28321 v -17.64418 c 0,-0.96241 -0.40002,-1.28321 -1.60036,-1.28321 z"
       id="path4-3-6"
       sodipodi:nodetypes="sccsssccsssssss" />
    <path
       style="fill:#f2f2f2;fill-opacity:1;stroke-width:0.0882825"
       d="m 413.46046,529.22773 c 0,0.66274 -0.39788,1.20497 -1.30857,1.20497 H 389.0541 c -0.9107,0 -1.25926,-0.54223 -1.25926,-1.20497 v -3.61492 c 0,-0.66274 0.34856,-1.20498 1.25926,-1.20498 h 23.04822 c 0.91069,0 1.35814,0.54224 1.35814,1.20498 z"
       id="path8-6-2"
       sodipodi:nodetypes="sssssssss" />
    <path
       style="fill:url(#linearGradient844-5);fill-opacity:1;stroke-width:0.09667"
       d="m 413.94973,526.46374 h -26.7566 c -0.81091,0 -1.6217,0.73763 -1.6217,1.47526 v 14.38374 c 0,0.97553 0.62711,1.47525 1.6217,1.47525 h 26.7566 c 0.99775,0 1.6217,-0.49972 1.6217,-1.47525 V 527.939 c 0,-0.73763 -0.8108,-1.47526 -1.6217,-1.47526 z"
       id="path10-9"
       sodipodi:nodetypes="sssssssss" />
    <path
       d="m 409.82776,539.55251 c 0.0129,0.0686 0.0607,0.12527 0.12616,0.14945 0.0121,0.005 1.21423,0.44855 1.76427,0.72 0.61138,0.27908 1.04209,0.59849 1.24902,0.75201 0.0474,0.0352 0.0827,0.0611 0.11219,0.0805 l 0.54924,0.87044 c 0.0378,0.0599 0.10222,0.1296 0.16803,0.1296 0.0361,0 0.16714,0.0599 0.19995,0.0391 0.0926,-0.0584 0.0257,-0.28769 -0.0327,-0.38025 l -0.54161,-0.85825 c 5e-4,-0.005 0.001,-0.008 0.002,-0.0132 0.0443,-0.28493 0.17908,-1.152 0.0281,-2.0702 -0.0558,-0.39325 -0.31089,-1.14734 -0.3217,-1.17915 -0.0233,-0.0692 -0.0831,-0.11982 -0.1551,-0.13191 -0.073,-0.0121 -0.14498,0.0168 -0.18949,0.0745 l -0.0598,0.0777 c 0.0328,-0.74507 -0.0293,-0.83555 -0.0591,-0.87886 -0.31981,-0.46669 -0.72099,-0.86687 -1.19233,-1.18916 -0.18206,-0.12438 -0.53983,-0.34419 -0.55509,-0.35351 -0.0545,-0.0334 -0.1219,-0.0385 -0.18106,-0.0136 -0.0591,0.0251 -0.10228,0.0771 -0.11616,0.13964 l -0.017,0.0765 c -0.21674,-0.58641 -0.31733,-0.63606 -0.37233,-0.66321 -0.3541,-0.17473 -0.79939,-0.35866 -1.19214,-0.5209 -0.33894,-0.14003 -0.65905,-0.27234 -0.88044,-0.38145 -0.55935,-0.2553 -0.94497,-0.48364 -1.1522,-0.60623 -0.16967,-0.10029 -0.2099,-0.12418 -0.27967,-0.12418 -0.0165,0 -0.0333,0.002 -0.0495,0.006 -0.032,0.008 -0.0619,0.0235 -0.0865,0.0457 -3e-4,2e-4 -5e-4,3.8e-4 -5e-4,5e-4 -0.0441,0.0403 -0.0659,0.096 -0.0644,0.15144 -0.002,0.0131 -0.005,0.0315 -0.008,0.055 -0.0443,0.28492 -0.17928,1.15199 -0.0281,2.0707 0.1098,0.7752 0.51296,2.2254 1.97764,3.22686 0.16303,0.11139 0.33656,0.22239 0.51574,0.33001 0.0385,0.0231 0.12111,0.0727 0.98491,0.11388 l -0.0779,0.0689 c -0.0524,0.0463 -0.0765,0.11655 -0.0636,0.18503 z m -0.65449,-0.71673 c -0.16729,-0.10079 -0.32893,-0.20445 -0.48095,-0.30831 -1.33931,-0.91563 -1.70818,-2.24453 -1.80956,-2.95957 -0.11675,-0.7093 -0.0505,-1.39104 -2e-4,-1.75951 0.22586,0.1329 0.59721,0.34518 1.10809,0.57828 0.22775,0.11238 0.5538,0.24716 0.89898,0.38978 0.39613,0.16362 0.80533,0.33269 1.14288,0.4976 0.0834,0.11933 0.28166,0.66391 0.42209,1.12167 0.0265,0.0861 0.10614,0.14212 0.19742,0.13994 0.0899,-0.003 0.1662,-0.0674 0.18562,-0.1552 l 0.11139,-0.50375 c 0.10525,0.0662 0.22289,0.14152 0.30198,0.19553 0.42427,0.29009 0.7862,0.64894 1.07598,1.06697 0.0282,0.1433 0.004,0.77183 -0.0372,1.29302 -0.007,0.0874 0.0446,0.16897 0.12646,0.20039 0.082,0.0315 0.17462,0.005 0.22814,-0.064 l 0.22507,-0.29207 c 0.0744,0.24361 0.16292,0.55708 0.19107,0.75528 0.095,0.57818 0.0686,1.13743 0.0283,1.52434 l -0.57223,-0.84963 c -0.67045,-1.06756 -1.51769,-1.99786 -2.51846,-2.76503 l -1.0403,-0.79749 c -0.0869,-0.0665 -0.21129,-0.05 -0.27789,0.0368 -0.0667,0.0868 -0.0503,0.21129 0.0367,0.27789 l 1.04031,0.79749 c 0.9632,0.73834 1.77873,1.63375 2.42757,2.66652 l 0.30733,0.45648 c -0.177,-0.10406 -0.37769,-0.21208 -0.60355,-0.31505 -0.39246,-0.19375 -1.08619,-0.46481 -1.48776,-0.61763 l 0.20098,-0.17779 c 0.0607,-0.0538 0.0827,-0.13924 0.0552,-0.21565 -0.0276,-0.0764 -0.0989,-0.12824 -0.17997,-0.13092 -0.53646,-0.0177 -1.17509,-0.0552 -1.30333,-0.0863 z"
       id="path2"
       style="fill:#ececec;fill-opacity:1;stroke-width:0.099105"
       sodipodi:nodetypes="ccccccscccccccscccccccccccscccccccccccccccccccccccccccccccccccccccccccccc" />
  </g>
</svg>
