<?xml version="1.0" encoding="UTF-8" standalone="no"?>
<svg
   width="32"
   version="1.1"
   height="32"
   viewBox="0 0 32 32"
   id="svg17"
   sodipodi:docname="folder-download.svg"
   inkscape:version="1.1.1 (3bf5ae0d25, 2021-09-20)"
   xmlns:inkscape="http://www.inkscape.org/namespaces/inkscape"
   xmlns:sodipodi="http://sodipodi.sourceforge.net/DTD/sodipodi-0.dtd"
   xmlns:xlink="http://www.w3.org/1999/xlink"
   xmlns="http://www.w3.org/2000/svg"
   xmlns:svg="http://www.w3.org/2000/svg"
   xmlns:rdf="http://www.w3.org/1999/02/22-rdf-syntax-ns#"
   xmlns:cc="http://creativecommons.org/ns#"
   xmlns:dc="http://purl.org/dc/elements/1.1/">
  <sodipodi:namedview
     pagecolor="#ffffff"
     bordercolor="#666666"
     borderopacity="1"
     objecttolerance="10"
     gridtolerance="10"
     guidetolerance="10"
     inkscape:pageopacity="0"
     inkscape:pageshadow="2"
     inkscape:window-width="1920"
     inkscape:window-height="1006"
     id="namedview19"
     showgrid="false"
     inkscape:zoom="9.8125"
     inkscape:cx="-11.210191"
     inkscape:cy="5.0955414"
     inkscape:window-x="0"
     inkscape:window-y="0"
     inkscape:window-maximized="1"
     inkscape:current-layer="layer1"
     inkscape:document-rotation="0"
     inkscape:pagecheckerboard="0" />
  <defs
     id="defs5455">
    <linearGradient
       inkscape:collect="always"
       xlink:href="#linearGradient860-3"
       id="linearGradient862"
       x1="113.94677"
       y1="255.36646"
       x2="406.08289"
       y2="255.36646"
       gradientUnits="userSpaceOnUse"
       gradientTransform="matrix(0.10135135,0,0,0.09220346,374.22015,507.65424)" />
    <linearGradient
       inkscape:collect="always"
       id="linearGradient860-3">
      <stop
         style="stop-color:#78acd3;stop-opacity:1"
         offset="0"
         id="stop856-6" />
      <stop
         style="stop-color:#d98cbb;stop-opacity:1"
         offset="1"
         id="stop858-7" />
    </linearGradient>
    <linearGradient
       inkscape:collect="always"
       xlink:href="#linearGradient842-3"
       id="linearGradient844-5"
       x1="386.30627"
       y1="522.45404"
       x2="446.83023"
       y2="522.45404"
       gradientUnits="userSpaceOnUse"
       gradientTransform="matrix(0.49567132,0,0,0.49972085,194.0905,274.04969)" />
    <linearGradient
       inkscape:collect="always"
       id="linearGradient842-3">
      <stop
         style="stop-color:#326e9a;stop-opacity:1"
         offset="0"
         id="stop838-5" />
      <stop
         style="stop-color:#339993;stop-opacity:1"
         offset="1"
         id="stop840-6" />
    </linearGradient>
  </defs>
  <metadata
     id="metadata5458">
    <rdf:RDF>
      <cc:Work
         rdf:about="">
        <dc:format>image/svg+xml</dc:format>
        <dc:type
           rdf:resource="http://purl.org/dc/dcmitype/StillImage" />
      </cc:Work>
    </rdf:RDF>
  </metadata>
  <g
     inkscape:label="Capa 1"
     inkscape:groupmode="layer"
     id="layer1"
     transform="translate(-384.57143,-515.798)">
    <path
       style="fill:url(#linearGradient862);fill-opacity:1;stroke-width:0.089569"
       d="m 400.57301,522.37783 c -0.44016,0 -0.96119,-0.25824 -1.15846,-0.57392 l -0.88505,-1.41859 c -0.19637,-0.31567 -0.7174,-0.57334 -1.1574,-0.57391 l -10.20056,-0.0134 c -0.973,-0.002 -1.3831,0.46748 -1.39693,1.50207 l -0.006,0.43614 v 1.28321 18.28579 c 0,0.35288 1.16036,1.28321 1.60036,1.28321 h 26.40757 c 0.44001,0 1.60036,-0.93033 1.60036,-1.28321 v -17.64418 c 0,-0.96241 -0.40002,-1.28321 -1.60036,-1.28321 z"
       id="path4-3"
       sodipodi:nodetypes="sccsssccsssssss" />
    <path
       style="fill:#f2f2f2;fill-opacity:1;stroke-width:0.0882825"
       d="m 413.46046,529.22774 c 0,0.66274 -0.39788,1.20497 -1.30857,1.20497 H 389.0541 c -0.9107,0 -1.25926,-0.54223 -1.25926,-1.20497 v -3.61492 c 0,-0.66274 0.34856,-1.20498 1.25926,-1.20498 h 23.04822 c 0.91069,0 1.35814,0.54224 1.35814,1.20498 z"
       id="path8-6"
       sodipodi:nodetypes="sssssssss" />
    <path
       style="fill:url(#linearGradient844-5);fill-opacity:1;stroke-width:0.09667"
       d="m 413.94973,526.46375 h -26.7566 c -0.81091,0 -1.6217,0.73763 -1.6217,1.47526 v 14.38374 c 0,0.97553 0.62711,1.47525 1.6217,1.47525 h 26.7566 c 0.99775,0 1.6217,-0.49972 1.6217,-1.47525 v -14.38374 c 0,-0.73763 -0.8108,-1.47526 -1.6217,-1.47526 z"
       id="path10"
       sodipodi:nodetypes="sssssssss" />
    <path
       fill-rule="evenodd"
       clip-rule="evenodd"
       d="m 411.20471,535.82784 c 0,-0.15523 0.12481,-0.28109 0.27871,-0.28109 0.15392,0 0.27871,0.12586 0.27871,0.28109 0,0.15523 -0.12479,0.28109 -0.27871,0.28109 -0.1539,0 -0.27871,-0.12586 -0.27871,-0.28109 z m 2.46633,2.76276 -3.3503,3.37887 c -0.21767,0.21961 -0.50297,0.32351 -0.78828,0.32351 -0.28531,0 -0.57063,-0.1039 -0.7883,-0.32351 l -3.35036,-3.37887 c -0.23311,-0.23526 -0.33723,-0.54833 -0.32067,-0.85619 v 0.0611 c 0,-0.62093 0.49909,-1.12437 1.11482,-1.12437 h 0.55742 c 0.30785,0 0.55743,-0.25172 0.55743,-0.56219 v -1.68656 c 0,-0.62093 0.49911,-1.12437 1.11484,-1.12437 h 2.22968 c 0.61566,0 1.11484,0.50344 1.11484,1.12437 v 0.2811 c 0,0.15523 -0.12478,0.28109 -0.27871,0.28109 -0.1539,0 -0.27871,-0.12586 -0.27871,-0.28109 v -0.2811 c 0,-0.31046 -0.24957,-0.56218 -0.5574,-0.56218 h -2.22972 c -0.30783,0 -0.55742,0.25172 -0.55742,0.56218 v 1.68656 c 0,0.62094 -0.4991,1.12437 -1.11485,1.12437 h -0.5574 c -0.30782,0 -0.5574,0.25172 -0.5574,0.56219 0,0 -0.002,10e-4 -0.006,0.002 3.8e-4,0.14315 0.0547,0.28617 0.16303,0.39529 l 3.35029,3.37902 c 0.21774,0.21961 0.57061,0.21961 0.78836,0 l 3.3503,-3.37902 c 0.10832,-0.10926 0.16262,-0.25226 0.16302,-0.39557 -0.004,-10e-4 -0.006,-0.002 -0.006,-0.002 0,-0.31047 -0.24957,-0.56219 -0.5574,-0.56219 h -0.27871 c -0.15393,0 -0.27871,-0.12586 -0.27871,-0.28109 0,-0.15523 0.12478,-0.28109 0.27871,-0.28109 h 0.27871 c 0.61565,0 1.11484,0.50344 1.11484,1.12437 v -0.0611 c 0.0166,0.30787 -0.0877,0.62094 -0.3208,0.8562 z"
       id="path2"
       style="fill:#f2f2f2;fill-opacity:1;stroke-width:0.0174969" />
  </g>
</svg>
