<?xml version="1.0" encoding="UTF-8" standalone="no"?>
<svg
   width="32"
   version="1.1"
   height="32"
   viewBox="0 0 32 32"
   id="svg15"
   sodipodi:docname="folder-database.svg"
   inkscape:version="1.1.1 (3bf5ae0d25, 2021-09-20)"
   xmlns:inkscape="http://www.inkscape.org/namespaces/inkscape"
   xmlns:sodipodi="http://sodipodi.sourceforge.net/DTD/sodipodi-0.dtd"
   xmlns:xlink="http://www.w3.org/1999/xlink"
   xmlns="http://www.w3.org/2000/svg"
   xmlns:svg="http://www.w3.org/2000/svg"
   xmlns:rdf="http://www.w3.org/1999/02/22-rdf-syntax-ns#"
   xmlns:cc="http://creativecommons.org/ns#"
   xmlns:dc="http://purl.org/dc/elements/1.1/">
  <sodipodi:namedview
     pagecolor="#ffffff"
     bordercolor="#666666"
     borderopacity="1"
     objecttolerance="10"
     gridtolerance="10"
     guidetolerance="10"
     inkscape:pageopacity="0"
     inkscape:pageshadow="2"
     inkscape:window-width="1920"
     inkscape:window-height="1006"
     id="namedview17"
     showgrid="false"
     inkscape:zoom="9.8125"
     inkscape:cx="-12.942675"
     inkscape:cy="6.522293"
     inkscape:window-x="0"
     inkscape:window-y="0"
     inkscape:window-maximized="1"
     inkscape:current-layer="layer1"
     inkscape:document-rotation="0"
     inkscape:pagecheckerboard="0" />
  <defs
     id="defs5455">
    <linearGradient
       inkscape:collect="always"
       id="linearGradient860">
      <stop
         style="stop-color:#78acd3;stop-opacity:1"
         offset="0"
         id="stop856" />
      <stop
         style="stop-color:#d98cbb;stop-opacity:1"
         offset="1"
         id="stop858" />
    </linearGradient>
    <linearGradient
       inkscape:collect="always"
       id="linearGradient842">
      <stop
         style="stop-color:#326e9a;stop-opacity:1"
         offset="0"
         id="stop838" />
      <stop
         style="stop-color:#339993;stop-opacity:1"
         offset="1"
         id="stop840" />
    </linearGradient>
    <linearGradient
       inkscape:collect="always"
       xlink:href="#linearGradient860"
       id="linearGradient862-3"
       x1="113.94677"
       y1="255.36646"
       x2="406.08289"
       y2="255.36646"
       gradientUnits="userSpaceOnUse"
       gradientTransform="matrix(0.10135135,0,0,0.09220345,374.22015,507.65424)" />
    <linearGradient
       inkscape:collect="always"
       xlink:href="#linearGradient842"
       id="linearGradient844-5"
       x1="386.30627"
       y1="522.45404"
       x2="446.83023"
       y2="522.45404"
       gradientUnits="userSpaceOnUse"
       gradientTransform="matrix(0.49567129,0,0,0.49972079,194.09051,274.04971)" />
  </defs>
  <metadata
     id="metadata5458">
    <rdf:RDF>
      <cc:Work
         rdf:about="">
        <dc:format>image/svg+xml</dc:format>
        <dc:type
           rdf:resource="http://purl.org/dc/dcmitype/StillImage" />
      </cc:Work>
    </rdf:RDF>
  </metadata>
  <g
     inkscape:label="Capa 1"
     inkscape:groupmode="layer"
     id="layer1"
     transform="translate(-384.57143,-515.798)">
    <path
       style="fill:url(#linearGradient862-3);fill-opacity:1;stroke-width:0.0895685"
       d="m 400.57301,522.37783 c -0.44017,0 -0.96119,-0.25825 -1.15846,-0.57392 l -0.88505,-1.41859 c -0.19637,-0.31567 -0.7174,-0.57334 -1.1574,-0.57391 l -10.20056,-0.0134 c -0.973,-0.002 -1.3831,0.46748 -1.39693,1.50207 l -0.006,0.43614 v 1.28321 18.28579 c 0,0.35288 1.16035,1.28321 1.60036,1.28321 h 26.40757 c 0.44001,0 1.60036,-0.93033 1.60036,-1.28321 v -17.64418 c 0,-0.96241 -0.40003,-1.28321 -1.60036,-1.28321 z"
       id="path4-3-6"
       sodipodi:nodetypes="sccsssccsssssss" />
    <path
       style="fill:#f2f2f2;fill-opacity:1;stroke-width:0.0882825"
       d="m 413.46046,529.22774 c 0,0.66274 -0.39789,1.20497 -1.30857,1.20497 H 389.0541 c -0.9107,0 -1.25926,-0.54223 -1.25926,-1.20497 v -3.61492 c 0,-0.66274 0.34856,-1.20498 1.25926,-1.20498 h 23.04822 c 0.91069,0 1.35814,0.54224 1.35814,1.20498 z"
       id="path8-6-2"
       sodipodi:nodetypes="sssssssss" />
    <path
       style="fill:url(#linearGradient844-5);fill-opacity:1;stroke-width:0.09667"
       d="m 413.94973,526.46376 h -26.75661 c -0.8109,0 -1.62169,0.73762 -1.62169,1.47526 v 14.38373 c 0,0.97553 0.62711,1.47525 1.62169,1.47525 h 26.75661 c 0.99775,0 1.6217,-0.49972 1.6217,-1.47525 v -14.38373 c 0,-0.73764 -0.8108,-1.47526 -1.6217,-1.47526 z"
       id="path10-9"
       sodipodi:nodetypes="sssssssss" />
    <path
       fill-rule="evenodd"
       clip-rule="evenodd"
       d="m 413.79018,540.61054 c -0.15518,0 -0.2814,-0.12606 -0.2814,-0.28125 0,-0.15546 0.12622,-0.28153 0.2814,-0.28153 0.15532,0 0.28125,0.12607 0.28125,0.28153 0,0.15519 -0.12593,0.28125 -0.28125,0.28125 z m 0.27081,-2.10334 c -0.004,0.0302 -0.009,0.0602 -0.0149,0.0895 -0.003,0.0143 -0.007,0.0277 -0.0107,0.0417 -0.006,0.0245 -0.0128,0.0492 -0.0206,0.0731 -0.004,0.0104 -0.008,0.0209 -0.0114,0.0313 -0.0102,0.0274 -0.0206,0.0546 -0.0324,0.0808 -0.003,0.007 -0.007,0.0143 -0.0102,0.0212 -0.0132,0.0272 -0.0272,0.0538 -0.042,0.0796 -0.005,0.008 -0.01,0.0165 -0.0147,0.0245 -0.0166,0.0266 -0.034,0.053 -0.0525,0.078 -0.003,0.004 -0.006,0.008 -0.009,0.0113 -0.0214,0.0285 -0.0445,0.056 -0.0689,0.0827 -10e-4,10e-4 -0.002,10e-4 -0.002,0.003 -0.0261,0.028 -0.0533,0.0552 -0.0823,0.0805 -0.19804,0.17441 -0.45757,0.28125 -0.74254,0.28125 v 0.0143 c -0.0456,-0.009 -0.0923,-0.0143 -0.14064,-0.0143 h -6.46866 c -0.38838,0 -0.70341,0.31475 -0.70341,0.70312 v 0.84347 c 0,0.38839 0.31503,0.70314 0.70341,0.70314 h 6.46866 c 0.33166,0 0.61497,-0.26395 0.77317,-0.46554 l 10e-4,2.8e-4 c 0.0516,-0.0591 0.12607,-0.097 0.21066,-0.097 0.15531,0 0.28125,0.12579 0.28125,0.28125 0,0.29169 -0.50358,0.84375 -1.125,0.84375 h -6.75046 c -0.62135,0 -1.12487,-0.50372 -1.12487,-1.125 v -1.1253 c 0,-0.62128 0.50352,-1.12473 1.12487,-1.12473 h 0.42181 6.18767 c 0.3884,0 0.703,-0.31476 0.703,-0.70313 v -0.84382 c 0,-0.38837 -0.3146,-0.70312 -0.703,-0.70312 h -6.18767 -0.42181 c -0.62135,0 -1.12487,-0.50386 -1.12487,-1.12488 V 534.423 c 0,-0.62142 0.50352,-1.12488 1.12487,-1.12488 h 6.75013 c 0.62142,0 1.125,0.50346 1.125,1.12488 v 0.84389 c 0,0.15504 -0.12593,0.28125 -0.28125,0.28125 -0.15518,0 -0.2814,-0.12621 -0.2814,-0.28125 v -0.7031 c 0,-0.38837 -0.3146,-0.7034 -0.703,-0.7034 h -6.46866 c -0.38837,0 -0.7034,0.31503 -0.7034,0.7034 v 0.84363 c 0,0.38837 0.31503,0.70299 0.7034,0.70299 h 6.46866 c 0.0483,0 0.095,-0.005 0.14065,-0.0143 v 0.0143 c 0.28496,0 0.54452,0.10685 0.74253,0.28138 0.029,0.0253 0.0562,0.0525 0.0823,0.0805 10e-4,10e-4 0.002,0.002 0.002,0.003 0.0245,0.0265 0.0475,0.054 0.0689,0.0827 0.003,0.004 0.006,0.008 0.009,0.0113 0.0186,0.0251 0.0358,0.0514 0.0524,0.0779 0.005,0.008 0.01,0.0163 0.0147,0.0245 0.0149,0.0259 0.0289,0.0525 0.0421,0.0797 0.003,0.007 0.007,0.014 0.0102,0.0211 0.0118,0.0262 0.0222,0.0534 0.0324,0.0809 0.004,0.0104 0.008,0.0209 0.0114,0.0313 0.008,0.0239 0.0143,0.0487 0.0206,0.0731 0.003,0.014 0.008,0.0274 0.0107,0.0417 0.006,0.0292 0.0112,0.0595 0.0149,0.0895 0.001,0.008 0.002,0.0161 0.004,0.0247 0.005,0.0399 0.007,0.0809 0.007,0.1221 v 1.12493 c 0,0.0409 -0.002,0.0818 -0.007,0.12196 -5e-4,0.009 -0.002,0.0165 -0.004,0.0247 z m -8.70824,-1.2716 c 0.15511,0 0.28097,0.12579 0.28097,0.28125 v 0.56215 c 0,0.15546 -0.12586,0.28153 -0.28097,0.28153 -0.15546,0 -0.28132,-0.12607 -0.28132,-0.28153 v -0.56215 c 0,-0.15546 0.12586,-0.28125 0.28132,-0.28125 z"
       id="path2"
       style="fill:#f2f2f2;fill-opacity:1;stroke-width:0.0175781" />
  </g>
</svg>
