<?xml version="1.0" encoding="UTF-8" standalone="no"?>
<svg
   width="32"
   version="1.1"
   height="32"
   viewBox="0 0 32 32"
   id="svg15"
   sodipodi:docname="folder-Neon.svg"
   inkscape:version="1.1.1 (3bf5ae0d25, 2021-09-20)"
   xmlns:inkscape="http://www.inkscape.org/namespaces/inkscape"
   xmlns:sodipodi="http://sodipodi.sourceforge.net/DTD/sodipodi-0.dtd"
   xmlns:xlink="http://www.w3.org/1999/xlink"
   xmlns="http://www.w3.org/2000/svg"
   xmlns:svg="http://www.w3.org/2000/svg"
   xmlns:rdf="http://www.w3.org/1999/02/22-rdf-syntax-ns#"
   xmlns:cc="http://creativecommons.org/ns#"
   xmlns:dc="http://purl.org/dc/elements/1.1/">
  <sodipodi:namedview
     pagecolor="#ffffff"
     bordercolor="#666666"
     borderopacity="1"
     objecttolerance="10"
     gridtolerance="10"
     guidetolerance="10"
     inkscape:pageopacity="0"
     inkscape:pageshadow="2"
     inkscape:window-width="1920"
     inkscape:window-height="1006"
     id="namedview17"
     showgrid="false"
     inkscape:zoom="9.8125"
     inkscape:cx="-13.044586"
     inkscape:cy="6.4203822"
     inkscape:window-x="0"
     inkscape:window-y="0"
     inkscape:window-maximized="1"
     inkscape:current-layer="layer1"
     inkscape:document-rotation="0"
     inkscape:pagecheckerboard="0" />
  <defs
     id="defs5455">
    <linearGradient
       inkscape:collect="always"
       xlink:href="#linearGradient860-3"
       id="linearGradient862"
       x1="113.94677"
       y1="255.36646"
       x2="406.08289"
       y2="255.36646"
       gradientUnits="userSpaceOnUse"
       gradientTransform="matrix(0.10135135,0,0,0.09220346,374.22015,507.65424)" />
    <linearGradient
       inkscape:collect="always"
       id="linearGradient860-3">
      <stop
         style="stop-color:#78acd3;stop-opacity:1"
         offset="0"
         id="stop856-6" />
      <stop
         style="stop-color:#d98cbb;stop-opacity:1"
         offset="1"
         id="stop858-7" />
    </linearGradient>
    <linearGradient
       inkscape:collect="always"
       xlink:href="#linearGradient842-5"
       id="linearGradient844"
       x1="386.30627"
       y1="522.45404"
       x2="446.83023"
       y2="522.45404"
       gradientUnits="userSpaceOnUse"
       gradientTransform="matrix(0.49567132,0,0,0.49972085,194.0905,274.04968)" />
    <linearGradient
       inkscape:collect="always"
       id="linearGradient842-5">
      <stop
         style="stop-color:#326e9a;stop-opacity:1"
         offset="0"
         id="stop838-3" />
      <stop
         style="stop-color:#339993;stop-opacity:1"
         offset="1"
         id="stop840-5" />
    </linearGradient>
  </defs>
  <metadata
     id="metadata5458">
    <rdf:RDF>
      <cc:Work
         rdf:about="">
        <dc:format>image/svg+xml</dc:format>
        <dc:type
           rdf:resource="http://purl.org/dc/dcmitype/StillImage" />
      </cc:Work>
    </rdf:RDF>
  </metadata>
  <g
     inkscape:label="Capa 1"
     inkscape:groupmode="layer"
     id="layer1"
     transform="translate(-384.57143,-515.798)">
    <path
       style="fill:url(#linearGradient862);fill-opacity:1;stroke-width:0.089569"
       d="m 400.57301,522.37782 c -0.44016,0 -0.96119,-0.25824 -1.15846,-0.57392 l -0.88505,-1.41859 c -0.19637,-0.31567 -0.7174,-0.57334 -1.1574,-0.57391 l -10.20056,-0.0134 c -0.973,-10e-4 -1.3831,0.46748 -1.39693,1.50207 l -0.006,0.43614 v 1.28321 18.28579 c 0,0.35288 1.16036,1.28321 1.60036,1.28321 h 26.40757 c 0.44001,0 1.60036,-0.93033 1.60036,-1.28321 v -17.64418 c 0,-0.96241 -0.40002,-1.28321 -1.60036,-1.28321 z"
       id="path4-3"
       sodipodi:nodetypes="sccsssccsssssss" />
    <path
       style="fill:#f2f2f2;fill-opacity:1;stroke-width:0.0882825"
       d="m 413.46046,529.22773 c 0,0.66274 -0.39788,1.20497 -1.30857,1.20497 H 389.0541 c -0.9107,0 -1.25926,-0.54223 -1.25926,-1.20497 v -3.61492 c 0,-0.66274 0.34856,-1.20498 1.25926,-1.20498 h 23.04822 c 0.91069,0 1.35814,0.54224 1.35814,1.20498 z"
       id="path8-6"
       sodipodi:nodetypes="sssssssss" />
    <path
       style="fill:url(#linearGradient844);fill-opacity:1;stroke-width:0.09667"
       d="m 413.94973,526.46374 h -26.7566 c -0.81091,0 -1.6217,0.73763 -1.6217,1.47526 v 14.38374 c 0,0.97553 0.62711,1.47525 1.6217,1.47525 h 26.7566 c 0.99775,0 1.6217,-0.49972 1.6217,-1.47525 V 527.939 c 0,-0.73763 -0.8108,-1.47526 -1.6217,-1.47526 z"
       id="path10"
       sodipodi:nodetypes="sssssssss" />
    <path
       d="m 409.53279,536.62761 c -0.63987,0 -1.15861,0.52297 -1.15861,1.16807 0,0.64507 0.51874,1.16805 1.15861,1.16805 0.63985,0 1.1586,-0.52298 1.1586,-1.16805 0,-0.6451 -0.51875,-1.16808 -1.1586,-1.16807 z m -0.20104,0.37567 c -0.21719,0.0559 -0.40364,0.20204 -0.51141,0.40173 -0.0102,0.0191 -0.0299,0.0299 -0.051,0.0299 -0.009,0 -0.0186,-0.002 -0.0275,-0.007 -0.0279,-0.0159 -0.0382,-0.051 -0.0238,-0.0793 0.12321,-0.22785 0.33636,-0.39515 0.58467,-0.45891 0.0315,-0.009 0.0625,0.0106 0.0704,0.0423 0.008,0.0312 -0.0106,0.063 -0.042,0.0709 z"
       id="path2-6"
       style="fill:#f2f2f2;fill-opacity:1;stroke-width:0.09953" />
    <path
       d="m 409.93703,535.15462 c -0.007,-0.21975 -0.18449,-0.39605 -0.40424,-0.39605 -0.21978,0 -0.39741,0.1763 -0.40425,0.39605 -1.27031,0.19697 -2.24614,1.30616 -2.24614,2.64106 0,1.33485 0.97592,2.44404 2.24614,2.64101 0.007,0.21978 0.18447,0.39609 0.40425,0.39609 0.21975,0 0.39738,-0.17631 0.40424,-0.39609 1.27034,-0.19697 2.24617,-1.30616 2.24617,-2.64101 0,-1.3349 -0.97583,-2.44409 -2.24617,-2.64106 z m -0.007,5.19425 c -0.0352,-0.18987 -0.19957,-0.33378 -0.39812,-0.33378 -0.19856,0 -0.36302,0.14378 -0.3981,0.33378 -1.2251,-0.1936 -2.16532,-1.2645 -2.16532,-2.55319 0,-1.2887 0.94022,-2.35962 2.16543,-2.5532 0.0352,0.18988 0.19955,0.33379 0.39807,0.33379 0.19856,0 0.36302,-0.14381 0.39813,-0.33379 1.22501,0.19358 2.16525,1.2645 2.16525,2.5532 0,1.28869 -0.94024,2.35959 -2.16534,2.55319 z"
       id="path4"
       style="fill:#f2f2f2;fill-opacity:1;stroke-width:0.09953" />
    <path
       d="m 413.99354,537.79568 c 0,-0.21776 -0.16912,-0.39396 -0.38204,-0.40644 -0.0812,-0.83489 -0.40993,-1.59751 -0.9108,-2.21243 0.14301,-0.16049 0.13945,-0.40664 -0.0141,-0.56113 -0.15314,-0.15441 -0.39738,-0.15811 -0.5565,-0.0143 -0.60983,-0.50505 -1.36637,-0.83629 -2.19438,-0.91822 -0.0119,-0.21443 -0.18726,-0.38517 -0.40328,-0.38517 -0.21597,0 -0.39076,0.17074 -0.40313,0.38517 -0.82803,0.0818 -1.58447,0.41317 -2.19438,0.91822 -0.15914,-0.14431 -0.40345,-0.14059 -0.55672,0.0143 -0.15313,0.15449 -0.15679,0.40083 -0.0139,0.56124 -0.50096,0.61481 -0.82951,1.37753 -0.91079,2.21232 -0.21293,0.0119 -0.38204,0.18868 -0.38204,0.40644 0,0.21775 0.16911,0.39396 0.38204,0.40645 0.0812,0.83476 0.40983,1.5973 0.9107,2.21216 -0.14315,0.16055 -0.13948,0.40688 0.014,0.5614 0.15326,0.15435 0.3975,0.15806 0.55682,0.0138 0.60982,0.50517 1.36636,0.83629 2.1944,0.91823 0.0118,0.21442 0.18714,0.38516 0.40314,0.38516 0.21599,0 0.39078,-0.17074 0.40313,-0.38516 0.82804,-0.0818 1.58449,-0.41306 2.19439,-0.91823 0.15934,0.14431 0.40348,0.1406 0.55672,-0.0138 0.15313,-0.15452 0.1568,-0.40085 0.014,-0.56128 0.50112,-0.61479 0.82952,-1.37752 0.91079,-2.21228 0.21298,-0.0119 0.38204,-0.1887 0.38204,-0.40645 z m -0.46889,0.40243 c -0.0801,0.8138 -0.40048,1.55734 -0.88847,2.15754 -0.15852,-0.11494 -0.37994,-0.1019 -0.52248,0.0421 -0.14259,0.14381 -0.15569,0.36705 -0.0417,0.52675 -0.59525,0.49198 -1.33286,0.81498 -2.14026,0.89571 -0.0299,-0.19527 -0.19665,-0.34485 -0.39898,-0.34485 -0.20232,0 -0.36857,0.14958 -0.39901,0.34485 -0.80738,-0.0807 -1.54499,-0.40373 -2.14026,-0.89571 0.1141,-0.15991 0.10111,-0.3833 -0.0417,-0.52684 -0.14255,-0.14375 -0.36409,-0.15707 -0.5226,-0.0422 -0.48801,-0.60002 -0.80848,-1.34356 -0.88857,-2.15736 0.19369,-0.0304 0.34207,-0.19845 0.34207,-0.40243 0,-0.204 -0.14838,-0.37159 -0.34207,-0.40245 0.0801,-0.81381 0.40045,-1.55724 0.88838,-2.15747 0.1586,0.11513 0.38024,0.10196 0.52269,-0.042 0.14255,-0.1437 0.15554,-0.36717 0.0418,-0.52698 0.59534,-0.49186 1.33277,-0.81488 2.14015,-0.89563 0.0299,0.19526 0.19668,0.34486 0.399,0.34486 0.20231,0 0.36857,-0.1496 0.399,-0.34486 0.80738,0.0808 1.54489,0.40377 2.14018,0.89563 -0.11403,0.15991 -0.10116,0.38316 0.0417,0.52688 0.14253,0.14369 0.36411,0.15681 0.52262,0.042 0.48796,0.60014 0.80836,1.34376 0.88849,2.15756 -0.19371,0.0303 -0.34207,0.19846 -0.34207,0.40245 0,0.20398 0.14845,0.37157 0.34224,0.40244 z"
       id="path6"
       style="fill:#f2f2f2;fill-opacity:1;stroke-width:0.09953" />
  </g>
</svg>
