<?xml version="1.0" encoding="UTF-8" standalone="no"?>
<svg
   width="32"
   version="1.1"
   height="32"
   viewBox="0 0 32 32"
   id="svg17"
   sodipodi:docname="folder-publicshare.svg"
   inkscape:version="1.1.1 (3bf5ae0d25, 2021-09-20)"
   xmlns:inkscape="http://www.inkscape.org/namespaces/inkscape"
   xmlns:sodipodi="http://sodipodi.sourceforge.net/DTD/sodipodi-0.dtd"
   xmlns:xlink="http://www.w3.org/1999/xlink"
   xmlns="http://www.w3.org/2000/svg"
   xmlns:svg="http://www.w3.org/2000/svg"
   xmlns:rdf="http://www.w3.org/1999/02/22-rdf-syntax-ns#"
   xmlns:cc="http://creativecommons.org/ns#"
   xmlns:dc="http://purl.org/dc/elements/1.1/">
  <sodipodi:namedview
     pagecolor="#ffffff"
     bordercolor="#666666"
     borderopacity="1"
     objecttolerance="10"
     gridtolerance="10"
     guidetolerance="10"
     inkscape:pageopacity="0"
     inkscape:pageshadow="2"
     inkscape:window-width="1920"
     inkscape:window-height="1006"
     id="namedview19"
     showgrid="false"
     inkscape:zoom="9.8125"
     inkscape:cx="-8.1528662"
     inkscape:cy="1.4267516"
     inkscape:window-x="0"
     inkscape:window-y="0"
     inkscape:window-maximized="1"
     inkscape:current-layer="layer1"
     inkscape:document-rotation="0"
     inkscape:pagecheckerboard="0" />
  <defs
     id="defs5455">
    <linearGradient
       inkscape:collect="always"
       xlink:href="#linearGradient860-3"
       id="linearGradient862"
       x1="113.94677"
       y1="255.36646"
       x2="406.08289"
       y2="255.36646"
       gradientUnits="userSpaceOnUse"
       gradientTransform="matrix(0.10135135,0,0,0.09220346,374.22015,507.65424)" />
    <linearGradient
       inkscape:collect="always"
       id="linearGradient860-3">
      <stop
         style="stop-color:#78acd3;stop-opacity:1"
         offset="0"
         id="stop856-6" />
      <stop
         style="stop-color:#d98cbb;stop-opacity:1"
         offset="1"
         id="stop858-7" />
    </linearGradient>
    <linearGradient
       inkscape:collect="always"
       xlink:href="#linearGradient842-3"
       id="linearGradient844-5"
       x1="386.30627"
       y1="522.45404"
       x2="446.83023"
       y2="522.45404"
       gradientUnits="userSpaceOnUse"
       gradientTransform="matrix(0.49567132,0,0,0.49972085,194.0905,274.04964)" />
    <linearGradient
       inkscape:collect="always"
       id="linearGradient842-3">
      <stop
         style="stop-color:#326e9a;stop-opacity:1"
         offset="0"
         id="stop838-5" />
      <stop
         style="stop-color:#339993;stop-opacity:1"
         offset="1"
         id="stop840-6" />
    </linearGradient>
  </defs>
  <metadata
     id="metadata5458">
    <rdf:RDF>
      <cc:Work
         rdf:about="">
        <dc:format>image/svg+xml</dc:format>
        <dc:type
           rdf:resource="http://purl.org/dc/dcmitype/StillImage" />
      </cc:Work>
    </rdf:RDF>
  </metadata>
  <g
     inkscape:label="Capa 1"
     inkscape:groupmode="layer"
     id="layer1"
     transform="translate(-384.57143,-515.798)">
    <path
       style="fill:url(#linearGradient862);fill-opacity:1;stroke-width:0.089569"
       d="m 400.57301,522.37782 c -0.44016,0 -0.96119,-0.25824 -1.15846,-0.57392 l -0.88505,-1.41859 c -0.19637,-0.31567 -0.7174,-0.57334 -1.1574,-0.57391 l -10.20056,-0.0134 c -0.973,-10e-4 -1.3831,0.46748 -1.39693,1.50207 l -0.006,0.43614 v 1.28321 18.28579 c 0,0.35288 1.16036,1.28321 1.60036,1.28321 h 26.40757 c 0.44001,0 1.60036,-0.93033 1.60036,-1.28321 v -17.64418 c 0,-0.96241 -0.40002,-1.28321 -1.60036,-1.28321 z"
       id="path4-3-2"
       sodipodi:nodetypes="sccsssccsssssss" />
    <path
       style="fill:#f2f2f2;fill-opacity:1;stroke-width:0.0882825"
       d="m 413.46046,529.22773 c 0,0.66274 -0.39788,1.20497 -1.30857,1.20497 H 389.0541 c -0.9107,0 -1.25926,-0.54223 -1.25926,-1.20497 v -3.61492 c 0,-0.66274 0.34856,-1.20498 1.25926,-1.20498 h 23.04822 c 0.91069,0 1.35814,0.54224 1.35814,1.20498 z"
       id="path8-6-9"
       sodipodi:nodetypes="sssssssss" />
    <path
       style="fill:url(#linearGradient844-5);fill-opacity:1;stroke-width:0.09667"
       d="m 413.94973,526.46374 h -26.7566 c -0.81091,0 -1.6217,0.73763 -1.6217,1.47526 v 14.38374 c 0,0.97553 0.62711,1.47525 1.6217,1.47525 h 26.7566 c 0.99775,0 1.6217,-0.49972 1.6217,-1.47525 V 527.939 c 0,-0.73763 -0.8108,-1.47526 -1.6217,-1.47526 z"
       id="path10-1"
       sodipodi:nodetypes="sssssssss" />
    <path
       d="m 412.76342,540.56717 h -0.34631 c -0.1913,0 -0.34595,-0.15516 -0.34595,-0.34579 0,-0.19133 0.15465,-0.34649 0.34595,-0.34649 h 0.34631 c 0.38195,0 0.69226,-0.30962 0.69226,-0.69228 v -1.03809 c 0,-0.0277 -0.005,-0.0554 -0.0134,-0.0821 -0.002,-0.0102 -0.008,-0.0199 -0.0116,-0.0304 -0.005,-0.0118 -0.009,-0.024 -0.0156,-0.0355 -0.0789,-0.16013 -0.27228,-0.31427 -0.5136,-0.35855 -0.30878,-0.11492 -0.72166,-0.18592 -1.17679,-0.18592 -0.44215,0 -0.84386,0.0715 -1.14961,0.18338 -0.15464,0.0227 -0.2907,0.0918 -0.39276,0.17866 l -0.002,-0.002 c -0.0563,0.0498 -0.12981,0.0812 -0.21093,0.0812 -0.17612,0 -0.3191,-0.14324 -0.3191,-0.31919 0,-0.12488 0.0722,-0.23189 0.17612,-0.28411 0.18761,-0.13675 0.41543,-0.25454 0.68025,-0.34227 -0.28357,-0.28225 -0.47118,-0.66117 -0.50566,-1.08473 -0.005,-0.0468 -0.007,-0.094 -0.007,-0.14164 v -1.03826 c 0,-0.76462 0.61974,-1.38456 1.38469,-1.38456 h 0.69225 c 0.76443,0 1.38452,0.61995 1.38452,1.38456 v 1.03826 c 0,0.19116 -0.15516,0.34632 -0.34629,0.34632 -0.19133,0 -0.34597,-0.15516 -0.34597,-0.34632 v -1.03826 c 0,-0.38249 -0.31031,-0.69228 -0.69226,-0.69228 h -0.69225 c -0.38247,0 -0.69243,0.30979 -0.69243,0.69228 v 1.03826 c 0,0.57364 0.4651,1.03859 1.03822,1.03859 1.27905,0 2.32385,0.5662 2.41428,1.28444 0.005,0.0324 0.009,0.0659 0.009,0.1004 v 1.0381 c -3e-5,0.76494 -0.62011,1.38455 -1.38454,1.38455 z m -3.63892,-2.97559 c -0.004,0.012 -0.008,0.0245 -0.0142,0.0362 -3.7e-4,3.5e-4 -3.7e-4,0.002 -10e-4,0.002 h -3.7e-4 c -0.0561,0.11544 -0.17287,0.19572 -0.30977,0.19572 -0.19133,0 -0.34632,-0.15516 -0.34632,-0.34631 0,-0.0495 0.0106,-0.0969 0.0294,-0.1391 l -10e-4,-3.8e-4 c 0.0816,-0.17646 0.12846,-0.37218 0.12846,-0.57957 0,-0.077 -0.008,-0.15245 -0.0202,-0.22648 0.013,-0.0624 0.0202,-0.12744 0.0202,-0.19386 v -1.40909 c 0,-0.51886 -0.41322,-0.93973 -0.92311,-0.93973 h -0.92278 c -0.51006,0 -0.92329,0.42084 -0.92329,0.93973 v 1.40909 c 0,0.0664 0.007,0.13149 0.0202,0.19386 -0.012,0.074 -0.0202,0.1494 -0.0202,0.22648 0,0.76463 0.62009,1.38482 1.38469,1.38482 2.20692,0 4.00751,0.78928 4.14069,1.78515 0.008,0.0385 0.013,0.0781 0.013,0.11831 v 0.8657 c 0,0.76464 -0.62008,1.38423 -1.38469,1.38423 h -5.53822 c -0.76447,0 -1.38456,-0.61961 -1.38456,-1.38423 v -0.8657 c 0,-0.0402 0.004,-0.0781 0.01,-0.1156 0.0449,-0.34885 0.29593,-0.6703 0.6931,-0.94174 0.0563,-0.0477 0.12795,-0.0781 0.20736,-0.0781 0.17697,0 0.32044,0.143 0.32044,0.32014 0,0.11323 -0.0588,0.21159 -0.14754,0.26873 l 0.002,0.003 c -0.24996,0.16697 -0.39311,0.35222 -0.39311,0.5432 v 0.86569 c 0,0.38199 0.3103,0.69196 0.69226,0.69196 h 5.53823 c 0.38246,0 0.69226,-0.30997 0.69226,-0.69196 v -0.86569 c 0,-0.66931 -1.54982,-1.21116 -3.46129,-1.21116 -0.55585,0 -1.05968,-0.22006 -1.43234,-0.57565 -0.0985,-0.094 -0.18895,-0.19843 -0.26737,-0.31032 -0.0767,-0.1091 -0.14316,-0.2264 -0.19791,-0.34943 -0.002,-0.004 -0.004,-0.008 -0.006,-0.0128 -0.0229,-0.0522 -0.0429,-0.10665 -0.0615,-0.16106 -0.004,-0.0123 -0.01,-0.024 -0.0134,-0.0365 -0.0157,-0.0485 -0.0277,-0.0989 -0.0397,-0.14922 -0.005,-0.0188 -0.0103,-0.037 -0.0144,-0.0563 -0.012,-0.0575 -0.0199,-0.11627 -0.0275,-0.1751 -0.002,-0.0112 -0.004,-0.022 -0.005,-0.0331 -0.008,-0.0713 -0.0117,-0.144 -0.0117,-0.21753 0,-0.0383 0.004,-0.0752 0.006,-0.11323 -0.002,-0.0392 -0.006,-0.0779 -0.006,-0.11765 v -1.6151 c 0,-0.8924 0.69766,-1.61544 1.55758,-1.61544 h 1.03855 c 0.86041,0 1.55758,0.72304 1.55758,1.61544 v 1.6151 c 0,0.0397 -0.003,0.0784 -0.006,0.11765 0.002,0.038 0.006,0.0749 0.006,0.11323 0,0.29645 -0.0651,0.57684 -0.17746,0.83188 z m -4.49509,1.0718 z"
       id="path2"
       style="fill:#f2f2f2;fill-opacity:1;stroke-width:0.0216337"
       sodipodi:nodetypes="cssssssccccscccsscccsssssssssssssscscccccccssccscsssssscsscssssssccssccsssssssccccccccccscsssssscsccccccc" />
  </g>
</svg>
