<?xml version="1.0" encoding="UTF-8" standalone="no"?>
<svg
   id="svg2"
   viewBox="0 0 32 32"
   height="32"
   version="1.1"
   width="32"
   sodipodi:docname="folder-unlocked.svg"
   inkscape:version="1.1.1 (3bf5ae0d25, 2021-09-20)"
   xmlns:inkscape="http://www.inkscape.org/namespaces/inkscape"
   xmlns:sodipodi="http://sodipodi.sourceforge.net/DTD/sodipodi-0.dtd"
   xmlns:xlink="http://www.w3.org/1999/xlink"
   xmlns="http://www.w3.org/2000/svg"
   xmlns:svg="http://www.w3.org/2000/svg"
   xmlns:rdf="http://www.w3.org/1999/02/22-rdf-syntax-ns#"
   xmlns:cc="http://creativecommons.org/ns#"
   xmlns:dc="http://purl.org/dc/elements/1.1/">
  <sodipodi:namedview
     pagecolor="#ffffff"
     bordercolor="#666666"
     borderopacity="1"
     objecttolerance="10"
     gridtolerance="10"
     guidetolerance="10"
     inkscape:pageopacity="0"
     inkscape:pageshadow="2"
     inkscape:window-width="1920"
     inkscape:window-height="1006"
     id="namedview18"
     showgrid="false"
     inkscape:zoom="9.8125"
     inkscape:cx="-11.312102"
     inkscape:cy="6.1146497"
     inkscape:window-x="0"
     inkscape:window-y="0"
     inkscape:window-maximized="1"
     inkscape:current-layer="svg2"
     inkscape:document-rotation="0"
     inkscape:pagecheckerboard="0" />
  <defs
     id="defs5455">
    <linearGradient
       id="linearGradient4172-5">
      <stop
         id="stop4174-6"
         style="stop-color:#3daee9" />
      <stop
         id="stop4176-6"
         style="stop-color:#6cc1ef"
         offset="1" />
    </linearGradient>
    <linearGradient
       x2="0"
       gradientUnits="userSpaceOnUse"
       y2="8"
       y1="29"
       xlink:href="#linearGradient4172-5"
       id="linearGradient4342" />
    <linearGradient
       inkscape:collect="always"
       xlink:href="#linearGradient860-3"
       id="linearGradient862"
       x1="113.94677"
       y1="255.36646"
       x2="406.08289"
       y2="255.36646"
       gradientUnits="userSpaceOnUse"
       gradientTransform="matrix(0.10135135,0,0,0.09220346,-10.351284,-8.1437594)" />
    <linearGradient
       inkscape:collect="always"
       id="linearGradient860-3">
      <stop
         style="stop-color:#78acd3;stop-opacity:1"
         offset="0"
         id="stop856-6" />
      <stop
         style="stop-color:#d98cbb;stop-opacity:1"
         offset="1"
         id="stop858-7" />
    </linearGradient>
    <linearGradient
       inkscape:collect="always"
       xlink:href="#linearGradient842-3"
       id="linearGradient844-5"
       x1="386.30627"
       y1="522.45404"
       x2="446.83023"
       y2="522.45404"
       gradientUnits="userSpaceOnUse"
       gradientTransform="matrix(0.49567132,0,0,0.49972085,-190.48093,-241.7483)" />
    <linearGradient
       inkscape:collect="always"
       id="linearGradient842-3">
      <stop
         style="stop-color:#326e9a;stop-opacity:1"
         offset="0"
         id="stop838-5" />
      <stop
         style="stop-color:#339993;stop-opacity:1"
         offset="1"
         id="stop840-6" />
    </linearGradient>
  </defs>
  <metadata
     id="metadata5458">
    <rdf:RDF>
      <cc:Work
         rdf:about="">
        <dc:format>image/svg+xml</dc:format>
        <dc:type
           rdf:resource="http://purl.org/dc/dcmitype/StillImage" />
      </cc:Work>
    </rdf:RDF>
  </metadata>
  <path
     style="fill:url(#linearGradient862);fill-opacity:1;stroke-width:0.089569"
     d="m 16.001578,6.5798286 c -0.44016,0 -0.961185,-0.258245 -1.15846,-0.57392 l -0.88505,-1.418595 c -0.19637,-0.315665 -0.717395,-0.573335 -1.1574,-0.57391 L 2.60011,4.0000036 c -0.973,-0.0015 -1.3831,0.46748 -1.396925,1.502075 l -0.0059,0.43614 v 1.28321 18.2857874 c 0,0.35288 1.160355,1.28321 1.600355,1.28321 h 26.407571 c 0.44001,0 1.600355,-0.93033 1.600355,-1.28321 V 7.8630386 c 0,-0.96241 -0.40002,-1.283215 -1.600355,-1.283215 z"
     id="path4-3-2"
     sodipodi:nodetypes="sccsssccsssssss" />
  <path
     style="fill:#f2f2f2;fill-opacity:1;stroke-width:0.0882825"
     d="m 28.889031,13.429738 c 0,0.66274 -0.397885,1.204975 -1.308575,1.204975 H 4.482669 c -0.910694,0 -1.259259,-0.542235 -1.259259,-1.204975 V 9.8148136 c 0,-0.66274 0.348565,-1.20498 1.259259,-1.20498 h 23.048222 c 0.910685,0 1.35814,0.54224 1.35814,1.20498 z"
     id="path8-6-9"
     sodipodi:nodetypes="sssssssss" />
  <path
     style="fill:url(#linearGradient844-5);fill-opacity:1;stroke-width:0.09667"
     d="M 29.378296,10.665748 H 2.6217 C 1.81079,10.665748 1,11.403378 1,12.141008 v 14.383738 c 0,0.975535 0.62711,1.475255 1.6217,1.475255 h 26.756596 c 0.99775,0 1.6217,-0.49972 1.6217,-1.475255 V 12.141008 c 0,-0.73763 -0.810795,-1.47526 -1.6217,-1.47526 z"
     id="path10-1"
     sodipodi:nodetypes="sssssssss" />
  <path
     d="m 24.718904,24.812479 c 0.15504,0 0.28125,0.12579 0.28125,0.28125 0,0.155182 -0.12621,0.28125 -0.28125,0.28125 -0.15546,0 -0.281389,-0.126068 -0.281389,-0.28125 0,-0.15546 0.125947,-0.28125 0.281389,-0.28125 z m -0.281389,-1.968765 c 0,-0.155464 0.125929,-0.28125 0.281389,-0.28125 0.15504,0 0.28125,0.125786 0.28125,0.28125 v 1.124734 c 0,0.155463 -0.12621,0.281531 -0.28125,0.281531 -0.15546,0 -0.281389,-0.126068 -0.281389,-0.281531 z m 3.937462,3.656283 h -6.750123 c -0.621277,0 -1.124857,-0.504 -1.124857,-1.125018 v -2.531265 c 0,-0.155464 0.125929,-0.28125 0.281393,-0.28125 0.155036,0 0.28125,0.125786 0.28125,0.28125 v 2.39064 c 0,0.388372 0.314752,0.702862 0.703124,0.702862 h 6.468588 c 0.388373,0 0.703425,-0.314508 0.703425,-0.702862 v -2.531546 c 0,-0.388091 -0.315052,-0.703057 -0.703425,-0.703057 h -5.062461 -0.140502 -2.85e-4 c -0.466222,0 -0.843607,-0.377648 -0.843607,-0.843484 v -0.140906 -0.702986 c 0,-1.553344 1.259051,-2.812376 2.812657,-2.812376 1.553291,0 2.812323,1.259032 2.812323,2.812376 v 0.28125 c 0,0.15546 -0.125786,0.28125 -0.281249,0.28125 -0.155179,0 -0.28125,-0.12579 -0.28125,-0.28125 v -0.28125 c 0,-1.242686 -1.007453,-2.250157 -2.249824,-2.250157 -1.242701,0 -2.250015,1.007456 -2.250015,2.250157 v 0.421736 0.107385 0.173865 c 0,0.233051 0.188824,0.422171 0.421752,0.422171 h 0.173865 0.107385 3.656211 0.140625 0.5625 0.140906 0.421594 c 0.621563,0 1.125019,0.503456 1.125019,1.124932 v 2.812515 c 0,0.621018 -0.503456,1.125018 -1.125019,1.125018 z m -7.031373,-4.500246 c -0.155036,0 -0.280964,-0.125787 -0.280964,-0.28125 0,-0.155036 0.125928,-0.280969 0.280964,-0.280969 0.155464,0 0.28125,0.125933 0.28125,0.280969 0,0.155463 -0.125786,0.28125 -0.28125,0.28125 z"
     id="path2-0"
     style="fill:#f2f2f2;fill-opacity:1;stroke-width:0.0175781" />
</svg>
