<?xml version="1.0" encoding="UTF-8" standalone="no"?>
<svg
   xmlns:dc="http://purl.org/dc/elements/1.1/"
   xmlns:cc="http://creativecommons.org/ns#"
   xmlns:rdf="http://www.w3.org/1999/02/22-rdf-syntax-ns#"
   xmlns:svg="http://www.w3.org/2000/svg"
   xmlns="http://www.w3.org/2000/svg"
   xmlns:sodipodi="http://sodipodi.sourceforge.net/DTD/sodipodi-0.dtd"
   xmlns:inkscape="http://www.inkscape.org/namespaces/inkscape"
   width="32"
   version="1.1"
   height="32"
   viewBox="0 0 32 32"
   id="svg15"
   sodipodi:docname="folder-blue.svg"
   inkscape:version="1.0.2 (e86c870879, 2021-01-15)">
  <sodipodi:namedview
     pagecolor="#ffffff"
     bordercolor="#666666"
     borderopacity="1"
     objecttolerance="10"
     gridtolerance="10"
     guidetolerance="10"
     inkscape:pageopacity="0"
     inkscape:pageshadow="2"
     inkscape:window-width="1920"
     inkscape:window-height="1007"
     id="namedview17"
     showgrid="false"
     inkscape:zoom="9.8125"
     inkscape:cx="-8.1530754"
     inkscape:cy="4.5332228"
     inkscape:window-x="0"
     inkscape:window-y="0"
     inkscape:window-maximized="1"
     inkscape:current-layer="layer1"
     inkscape:document-rotation="0" />
  <defs
     id="defs5455">
    <linearGradient
       id="linearGradient4172-7-9">
      <stop
         style="stop-color:#4183d7"
         id="stop4174-9-8" />
      <stop
         offset="1"
         style="stop-color:#5b94df"
         id="stop4176-4-6" />
    </linearGradient>
  </defs>
  <metadata
     id="metadata5458">
    <rdf:RDF>
      <cc:Work
         rdf:about="">
        <dc:format>image/svg+xml</dc:format>
        <dc:type
           rdf:resource="http://purl.org/dc/dcmitype/StillImage" />
      </cc:Work>
    </rdf:RDF>
  </metadata>
  <g
     inkscape:label="Capa 1"
     inkscape:groupmode="layer"
     id="layer1"
     transform="translate(-384.57143,-515.798)">
    <path
       style="fill:#80b2ff;fill-opacity:1;stroke-width:0.0895684"
       d="m 400.57301,522.3779 c -0.44016,0 -0.96119,-0.25823 -1.15846,-0.57391 l -0.88505,-1.41859 c -0.19637,-0.31567 -0.7174,-0.57332 -1.1574,-0.5739 l -10.20056,-0.0135 c -0.973,-10e-4 -1.3831,0.46748 -1.39692,1.50207 l -0.006,0.43612 v 1.28323 18.2857 c 0,0.35289 1.16035,1.2832 1.60035,1.2832 h 26.40757 c 0.44002,0 1.60036,-0.93031 1.60036,-1.2832 v -17.64411 c 0,-0.9624 -0.40002,-1.28321 -1.60036,-1.28321 z"
       id="path4-3"
       sodipodi:nodetypes="sccsssccsssssss" />
    <path
       style="fill:#434c5e;fill-opacity:1;stroke-width:0.0882824"
       d="m 413.46046,529.22778 c 0,0.66274 -0.39788,1.20497 -1.30857,1.20497 H 389.0541 c -0.9107,0 -1.25926,-0.54223 -1.25926,-1.20497 v -3.6149 c 0,-0.66274 0.34856,-1.20497 1.25926,-1.20497 h 23.04823 c 0.91068,0 1.35813,0.54223 1.35813,1.20497 z"
       id="path8-6"
       sodipodi:nodetypes="sssssssss" />
    <path
       style="fill:#2a7fff;fill-opacity:1;stroke-width:0.0966694"
       d="m 413.94973,526.4638 h -26.7566 c -0.81091,0 -1.6217,0.73763 -1.6217,1.47526 v 14.38368 c 0,0.97554 0.62711,1.47526 1.6217,1.47526 h 26.7566 c 0.99775,0 1.6217,-0.49972 1.6217,-1.47526 v -14.38368 c 0,-0.73763 -0.81079,-1.47526 -1.6217,-1.47526 z"
       id="path10"
       sodipodi:nodetypes="sssssssss" />
  </g>
</svg>
