<?xml version="1.0" encoding="UTF-8" standalone="no"?>
<svg
   width="32"
   version="1.1"
   height="32"
   viewBox="0 0 32 32"
   id="svg17"
   sodipodi:docname="folder-network.svg"
   inkscape:version="1.1.1 (3bf5ae0d25, 2021-09-20)"
   xmlns:inkscape="http://www.inkscape.org/namespaces/inkscape"
   xmlns:sodipodi="http://sodipodi.sourceforge.net/DTD/sodipodi-0.dtd"
   xmlns:xlink="http://www.w3.org/1999/xlink"
   xmlns="http://www.w3.org/2000/svg"
   xmlns:svg="http://www.w3.org/2000/svg"
   xmlns:rdf="http://www.w3.org/1999/02/22-rdf-syntax-ns#"
   xmlns:cc="http://creativecommons.org/ns#"
   xmlns:dc="http://purl.org/dc/elements/1.1/">
  <sodipodi:namedview
     pagecolor="#ffffff"
     bordercolor="#666666"
     borderopacity="1"
     objecttolerance="10"
     gridtolerance="10"
     guidetolerance="10"
     inkscape:pageopacity="0"
     inkscape:pageshadow="2"
     inkscape:window-width="1920"
     inkscape:window-height="1006"
     id="namedview19"
     showgrid="false"
     inkscape:zoom="9.8125"
     inkscape:cx="-11.515924"
     inkscape:cy="2.343949"
     inkscape:window-x="0"
     inkscape:window-y="0"
     inkscape:window-maximized="1"
     inkscape:current-layer="layer1"
     inkscape:document-rotation="0"
     inkscape:pagecheckerboard="0" />
  <defs
     id="defs5455">
    <linearGradient
       inkscape:collect="always"
       xlink:href="#linearGradient860-3"
       id="linearGradient862"
       x1="113.94677"
       y1="255.36646"
       x2="406.08289"
       y2="255.36646"
       gradientUnits="userSpaceOnUse"
       gradientTransform="matrix(0.10135135,0,0,0.09220346,374.22015,507.65424)" />
    <linearGradient
       inkscape:collect="always"
       id="linearGradient860-3">
      <stop
         style="stop-color:#78acd3;stop-opacity:1"
         offset="0"
         id="stop856-6" />
      <stop
         style="stop-color:#d98cbb;stop-opacity:1"
         offset="1"
         id="stop858-7" />
    </linearGradient>
    <linearGradient
       inkscape:collect="always"
       xlink:href="#linearGradient842-3"
       id="linearGradient844-5"
       x1="386.30627"
       y1="522.45404"
       x2="446.83023"
       y2="522.45404"
       gradientUnits="userSpaceOnUse"
       gradientTransform="matrix(0.49567132,0,0,0.49972085,194.0905,274.04969)" />
    <linearGradient
       inkscape:collect="always"
       id="linearGradient842-3">
      <stop
         style="stop-color:#326e9a;stop-opacity:1"
         offset="0"
         id="stop838-5" />
      <stop
         style="stop-color:#339993;stop-opacity:1"
         offset="1"
         id="stop840-6" />
    </linearGradient>
  </defs>
  <metadata
     id="metadata5458">
    <rdf:RDF>
      <cc:Work
         rdf:about="">
        <dc:format>image/svg+xml</dc:format>
        <dc:type
           rdf:resource="http://purl.org/dc/dcmitype/StillImage" />
      </cc:Work>
    </rdf:RDF>
  </metadata>
  <g
     inkscape:label="Capa 1"
     inkscape:groupmode="layer"
     id="layer1"
     transform="translate(-384.57143,-515.798)">
    <path
       style="fill:url(#linearGradient862);fill-opacity:1;stroke-width:0.089569"
       d="m 400.57301,522.37783 c -0.44016,0 -0.96119,-0.25824 -1.15846,-0.57392 l -0.88505,-1.41859 c -0.19637,-0.31567 -0.7174,-0.57334 -1.1574,-0.57391 l -10.20056,-0.0134 c -0.973,-0.002 -1.3831,0.46748 -1.39693,1.50207 l -0.006,0.43614 v 1.28321 18.28579 c 0,0.35288 1.16036,1.28321 1.60036,1.28321 h 26.40757 c 0.44001,0 1.60036,-0.93033 1.60036,-1.28321 v -17.64418 c 0,-0.96241 -0.40002,-1.28321 -1.60036,-1.28321 z"
       id="path4-3-2"
       sodipodi:nodetypes="sccsssccsssssss" />
    <path
       style="fill:#f2f2f2;fill-opacity:1;stroke-width:0.0882825"
       d="m 413.46046,529.22774 c 0,0.66274 -0.39788,1.20497 -1.30857,1.20497 H 389.0541 c -0.9107,0 -1.25926,-0.54223 -1.25926,-1.20497 v -3.61492 c 0,-0.66274 0.34856,-1.20498 1.25926,-1.20498 h 23.04822 c 0.91069,0 1.35814,0.54224 1.35814,1.20498 z"
       id="path8-6-9"
       sodipodi:nodetypes="sssssssss" />
    <path
       style="fill:url(#linearGradient844-5);fill-opacity:1;stroke-width:0.09667"
       d="m 413.94973,526.46375 h -26.7566 c -0.81091,0 -1.6217,0.73763 -1.6217,1.47526 v 14.38374 c 0,0.97553 0.62711,1.47525 1.6217,1.47525 h 26.7566 c 0.99775,0 1.6217,-0.49972 1.6217,-1.47525 v -14.38374 c 0,-0.73763 -0.8108,-1.47526 -1.6217,-1.47526 z"
       id="path10-1"
       sodipodi:nodetypes="sssssssss" />
    <path
       d="m 413.73736,537.38224 -0.24486,0.24488 c -0.40523,0.40558 -1.06261,0.40558 -1.46819,0 l -0.24453,-0.24488 c -1.75716,-1.75716 -4.60609,-1.75716 -6.36327,0 -0.27004,0.27056 -0.27004,0.70893 0,0.97897 l 0.24486,0.24486 c 0.13519,0.13502 0.35421,0.13502 0.4894,0 0.022,-0.0217 0.16984,-0.17 0.24469,-0.24486 1.21655,-1.21641 3.18894,-1.21641 4.40533,0 0.54077,0.54077 0.54077,1.24411 0,1.78471 l -0.24486,0.24486 c -0.40407,0.40407 -1.05857,0.40491 -1.46381,0.004 h -0.008 c -0.11676,-0.10646 -0.27596,-0.17339 -0.47511,-0.17339 -0.38244,0 -0.69219,0.31027 -0.69219,0.69236 0,0.0473 0.004,0.0936 0.0139,0.13839 0.002,0.005 0.003,0.0103 0.005,0.0157 0.006,0.0268 0.0152,0.0529 0.0243,0.0786 0.0338,0.0811 0.083,0.1575 0.14905,0.22357 0.0157,0.0157 0.0235,0.0357 0.0355,0.0536 0.12304,0.11238 0.28527,0.18253 0.46472,0.18253 0.19139,0 0.34635,0.15479 0.34635,0.34609 0,0.19078 -0.15496,0.34574 -0.34635,0.34574 -0.67056,0 -1.22991,-0.47721 -1.35699,-1.10991 -0.10207,-0.44867 0.0179,-0.93722 0.36738,-1.28669 0.54042,-0.54027 1.41708,-0.54027 1.95767,0 0.1352,0.13554 0.35421,0.13554 0.48975,0 l 0.24436,-0.24436 c 0.27056,-0.27056 0.27056,-0.53554 0,-0.8061 -0.94585,-0.946 -2.47986,-0.946 -3.42621,0 l -0.24454,0.24469 c -0.40558,0.40575 -1.06296,0.40575 -1.46819,0 l -0.24486,-0.24468 c -0.50698,-0.50664 -0.53841,-1.30867 -0.0951,-1.85266 0.0327,-0.0344 0.0613,-0.0711 0.0951,-0.10495 2.02722,-2.02739 5.3145,-2.02739 7.34171,0 0.0338,0.0338 0.21225,0.21023 0.24486,0.24486 0.1352,0.13502 0.35421,0.13502 0.4894,0 l 0.24486,-0.24486 c 0.27004,-0.27056 0.27004,-0.70891 0,-0.97897 -2.44393,-2.44393 -6.33315,-2.56037 -8.91617,-0.352 l -0.003,-0.004 c -0.061,0.0543 -0.14095,0.0884 -0.22949,0.0884 -0.19078,0 -0.34609,-0.15479 -0.34609,-0.3461 0,-0.12708 0.0695,-0.23675 0.17101,-0.29692 2.85542,-2.40574 7.12489,-2.26784 9.81371,0.4213 0.54077,0.54045 0.54077,1.41699 0,1.95759 z m -10.31984,-0.62171 c -0.1913,0 -0.34609,-0.15497 -0.34609,-0.34627 0,-0.19113 0.15479,-0.34609 0.34609,-0.34609 0.1913,0 0.34609,0.15496 0.34609,0.34609 0,0.1913 -0.15479,0.34627 -0.34609,0.34627 z"
       id="path2"
       style="fill:#f2f2f2;fill-opacity:1;stroke-width:0.0216308" />
  </g>
</svg>
