<?xml version="1.0" encoding="UTF-8" standalone="no"?>
<svg
   width="32"
   version="1.1"
   height="32"
   viewBox="0 0 32 32"
   id="svg17"
   sodipodi:docname="folder-templates.svg"
   inkscape:version="1.1.1 (3bf5ae0d25, 2021-09-20)"
   xmlns:inkscape="http://www.inkscape.org/namespaces/inkscape"
   xmlns:sodipodi="http://sodipodi.sourceforge.net/DTD/sodipodi-0.dtd"
   xmlns:xlink="http://www.w3.org/1999/xlink"
   xmlns="http://www.w3.org/2000/svg"
   xmlns:svg="http://www.w3.org/2000/svg"
   xmlns:rdf="http://www.w3.org/1999/02/22-rdf-syntax-ns#"
   xmlns:cc="http://creativecommons.org/ns#"
   xmlns:dc="http://purl.org/dc/elements/1.1/">
  <sodipodi:namedview
     pagecolor="#ffffff"
     bordercolor="#666666"
     borderopacity="1"
     objecttolerance="10"
     gridtolerance="10"
     guidetolerance="10"
     inkscape:pageopacity="0"
     inkscape:pageshadow="2"
     inkscape:window-width="1920"
     inkscape:window-height="1006"
     id="namedview19"
     showgrid="false"
     inkscape:zoom="9.8125"
     inkscape:cx="-11.515924"
     inkscape:cy="2.4458599"
     inkscape:window-x="0"
     inkscape:window-y="0"
     inkscape:window-maximized="1"
     inkscape:current-layer="layer1"
     inkscape:document-rotation="0"
     inkscape:pagecheckerboard="0" />
  <defs
     id="defs5455">
    <linearGradient
       inkscape:collect="always"
       xlink:href="#linearGradient860-3"
       id="linearGradient862"
       x1="113.94677"
       y1="255.36646"
       x2="406.08289"
       y2="255.36646"
       gradientUnits="userSpaceOnUse"
       gradientTransform="matrix(0.10135135,0,0,0.09220346,374.22014,507.65424)" />
    <linearGradient
       inkscape:collect="always"
       id="linearGradient860-3">
      <stop
         style="stop-color:#78acd3;stop-opacity:1"
         offset="0"
         id="stop856-6" />
      <stop
         style="stop-color:#d98cbb;stop-opacity:1"
         offset="1"
         id="stop858" />
    </linearGradient>
    <linearGradient
       inkscape:collect="always"
       xlink:href="#linearGradient842-5"
       id="linearGradient844-7"
       x1="386.30627"
       y1="522.45404"
       x2="446.83023"
       y2="522.45404"
       gradientUnits="userSpaceOnUse"
       gradientTransform="matrix(0.49567132,0,0,0.49972085,194.0905,274.04968)" />
    <linearGradient
       inkscape:collect="always"
       id="linearGradient842-5">
      <stop
         style="stop-color:#326e9a;stop-opacity:1"
         offset="0"
         id="stop838-3" />
      <stop
         style="stop-color:#339993;stop-opacity:1"
         offset="1"
         id="stop840-5" />
    </linearGradient>
  </defs>
  <metadata
     id="metadata5458">
    <rdf:RDF>
      <cc:Work
         rdf:about="">
        <dc:format>image/svg+xml</dc:format>
        <dc:type
           rdf:resource="http://purl.org/dc/dcmitype/StillImage" />
      </cc:Work>
    </rdf:RDF>
  </metadata>
  <g
     inkscape:label="Capa 1"
     inkscape:groupmode="layer"
     id="layer1"
     transform="translate(-384.57143,-515.798)">
    <path
       style="fill:url(#linearGradient862);fill-opacity:1;stroke-width:0.089569"
       d="m 400.57301,522.37782 c -0.44016,0 -0.96119,-0.25824 -1.15846,-0.57392 l -0.88505,-1.41859 c -0.19637,-0.31567 -0.7174,-0.57334 -1.1574,-0.57391 l -10.20056,-0.0134 c -0.973,-10e-4 -1.3831,0.46748 -1.39693,1.50207 l -0.006,0.43614 v 1.28321 18.28579 c 0,0.35288 1.16036,1.28321 1.60036,1.28321 h 26.40757 c 0.44001,0 1.60036,-0.93033 1.60036,-1.28321 v -17.64418 c 0,-0.96241 -0.40002,-1.28321 -1.60036,-1.28321 z"
       id="path4-3"
       sodipodi:nodetypes="sccsssccsssssss" />
    <path
       style="fill:#f2f2f2;fill-opacity:1;stroke-width:0.0882825"
       d="m 413.46046,529.22773 c 0,0.66274 -0.39788,1.20497 -1.30857,1.20497 H 389.0541 c -0.9107,0 -1.25926,-0.54223 -1.25926,-1.20497 v -3.61492 c 0,-0.66274 0.34856,-1.20498 1.25926,-1.20498 h 23.04822 c 0.91069,0 1.35814,0.54224 1.35814,1.20498 z"
       id="path8-6"
       sodipodi:nodetypes="sssssssss" />
    <path
       style="fill:url(#linearGradient844-7);fill-opacity:1;stroke-width:0.09667"
       d="m 413.94973,526.46374 h -26.7566 c -0.81091,0 -1.6217,0.73763 -1.6217,1.47526 v 14.38374 c 0,0.97553 0.62711,1.47525 1.6217,1.47525 h 26.7566 c 0.99775,0 1.6217,-0.49972 1.6217,-1.47525 V 527.939 c 0,-0.73763 -0.8108,-1.47526 -1.6217,-1.47526 z"
       id="path10-62"
       sodipodi:nodetypes="sssssssss" />
    <path
       fill-rule="evenodd"
       clip-rule="evenodd"
       d="m 405.05714,534.90513 c 0,-0.17751 0.14392,-0.32143 0.32143,-0.32143 0.17751,0 0.32143,0.14392 0.32143,0.32143 0,0.17751 -0.14392,0.32143 -0.32143,0.32143 -0.17751,0 -0.32143,-0.14392 -0.32143,-0.32143 z m 1.28572,0 c 0,-0.17751 0.14392,-0.32143 0.32143,-0.32143 0.1775,0 0.32142,0.14392 0.32142,0.32143 0,0.17751 -0.14392,0.32143 -0.32142,0.32143 -0.17751,0 -0.32143,-0.14392 -0.32143,-0.32143 z m 1.28571,0 c 0,-0.17751 0.14392,-0.32143 0.32143,-0.32143 0.17751,0 0.32143,0.14392 0.32143,0.32143 0,0.17751 -0.14392,0.32143 -0.32143,0.32143 -0.17751,0 -0.32143,-0.14392 -0.32143,-0.32143 z m 6.42857,1.76786 v 4.33928 c 0,0.71004 -0.57568,1.28572 -1.28571,1.28572 h -7.71429 c -0.71004,0 -1.28571,-0.57568 -1.28571,-1.28572 v -3.53571 c 0,-0.17751 0.14392,-0.32143 0.32143,-0.32143 0.1775,0 0.32143,0.14392 0.32143,0.32143 v 3.53571 c 0,0.35502 0.28783,0.64286 0.64285,0.64286 h 7.71429 c 0.35501,0 0.64286,-0.28784 0.64286,-0.64286 v -4.17857 c 0,-0.17751 -0.14392,-0.32143 -0.32143,-0.32143 H 404.575 c -0.44385,0 -0.80357,-0.35971 -0.80357,-0.80357 v -1.125 c 0,-0.71003 0.57568,-1.28571 1.28571,-1.28571 h 7.71429 c 0.71003,0 1.28571,0.57568 1.28571,1.28571 v 0.32143 c 0,0.17751 -0.14392,0.32143 -0.32143,0.32143 -0.17751,0 -0.32142,-0.14392 -0.32142,-0.32143 v -0.32143 c 0,-0.35501 -0.28785,-0.64285 -0.64286,-0.64285 h -7.71429 c -0.35502,0 -0.64285,0.28784 -0.64285,0.64285 v 0.96429 c 0,0.17751 0.14391,0.32143 0.32142,0.32143 h 8.51786 c 0.44385,0 0.80357,0.35971 0.80357,0.80357 z"
       id="path2-1"
       style="fill:#f2f2f2;fill-opacity:1;stroke-width:0.0200892" />
    <path
       d="m 410.8413,537.18249 h -3.58278 a 0.48163737,0.48163737 0 0 0 -0.48164,0.48164 v 0.35641 a 0.48163737,0.48163737 0 0 0 0.48164,0.48164 h 3.58278 a 0.48163737,0.48163737 0 0 0 0.48164,-0.48164 v -0.35641 a 0.48163737,0.48163737 0 0 0 -0.48164,-0.48164 z m 0.24082,0.83805 a 0.24081871,0.24081871 0 0 1 -0.24082,0.24082 h -3.58278 a 0.24081871,0.24081871 0 0 1 -0.24082,-0.24082 v -0.35641 a 0.24081871,0.24081871 0 0 1 0.24082,-0.24082 h 3.58278 a 0.24081871,0.24081871 0 0 1 0.24082,0.24082 z"
       id="path6-2"
       style="fill:#f2f2f2;fill-opacity:1;stroke-width:0.0602045" />
    <path
       d="m 408.40121,538.83511 h -1.14389 a 0.48163737,0.48163737 0 0 0 -0.48164,0.48164 v 1.21312 a 0.48163737,0.48163737 0 0 0 0.48164,0.48164 h 1.14389 a 0.48163737,0.48163737 0 0 0 0.48163,-0.48164 v -1.21312 a 0.48163737,0.48163737 0 0 0 -0.48163,-0.48164 z m 0.24082,1.69416 a 0.24081871,0.24081871 0 0 1 -0.24082,0.24082 h -1.14389 a 0.24081871,0.24081871 0 0 1 -0.24082,-0.24082 v -1.21252 a 0.24081871,0.24081871 0 0 1 0.24082,-0.24082 h 1.14389 a 0.24081871,0.24081871 0 0 1 0.24082,0.24082 z"
       id="path8-7"
       style="fill:#f2f2f2;fill-opacity:1;stroke-width:0.0602045" />
    <path
       d="m 410.8413,538.83511 h -1.14389 a 0.48163737,0.48163737 0 0 0 -0.48164,0.48164 v 1.21312 a 0.48163737,0.48163737 0 0 0 0.48164,0.48164 h 1.14389 a 0.48163737,0.48163737 0 0 0 0.48164,-0.48164 v -1.21312 a 0.48163737,0.48163737 0 0 0 -0.48164,-0.48164 z m 0.24082,1.69416 a 0.24081871,0.24081871 0 0 1 -0.24082,0.24082 h -1.14389 a 0.24081871,0.24081871 0 0 1 -0.24082,-0.24082 v -1.21252 a 0.24081871,0.24081871 0 0 1 0.24082,-0.24082 h 1.14389 a 0.24081871,0.24081871 0 0 1 0.24082,0.24082 z"
       id="path10-0"
       style="fill:#f2f2f2;fill-opacity:1;stroke-width:0.0602045" />
  </g>
</svg>
