<?xml version="1.0" encoding="UTF-8" standalone="no"?>
<svg
   width="32"
   version="1.1"
   height="32"
   viewBox="0 0 32 32"
   id="svg15"
   sodipodi:docname="folder-windows.svg"
   inkscape:version="1.1.1 (3bf5ae0d25, 2021-09-20)"
   xmlns:inkscape="http://www.inkscape.org/namespaces/inkscape"
   xmlns:sodipodi="http://sodipodi.sourceforge.net/DTD/sodipodi-0.dtd"
   xmlns:xlink="http://www.w3.org/1999/xlink"
   xmlns="http://www.w3.org/2000/svg"
   xmlns:svg="http://www.w3.org/2000/svg"
   xmlns:rdf="http://www.w3.org/1999/02/22-rdf-syntax-ns#"
   xmlns:cc="http://creativecommons.org/ns#"
   xmlns:dc="http://purl.org/dc/elements/1.1/">
  <sodipodi:namedview
     pagecolor="#ffffff"
     bordercolor="#666666"
     borderopacity="1"
     objecttolerance="10"
     gridtolerance="10"
     guidetolerance="10"
     inkscape:pageopacity="0"
     inkscape:pageshadow="2"
     inkscape:window-width="1920"
     inkscape:window-height="1006"
     id="namedview17"
     showgrid="false"
     inkscape:zoom="9.8125"
     inkscape:cx="-12.942675"
     inkscape:cy="6.522293"
     inkscape:window-x="0"
     inkscape:window-y="0"
     inkscape:window-maximized="1"
     inkscape:current-layer="layer1"
     inkscape:document-rotation="0"
     inkscape:pagecheckerboard="0" />
  <defs
     id="defs5455">
    <linearGradient
       inkscape:collect="always"
       id="linearGradient860">
      <stop
         style="stop-color:#78acd3;stop-opacity:1"
         offset="0"
         id="stop856" />
      <stop
         style="stop-color:#d98cbb;stop-opacity:1"
         offset="1"
         id="stop858" />
    </linearGradient>
    <linearGradient
       inkscape:collect="always"
       id="linearGradient842">
      <stop
         style="stop-color:#326e9a;stop-opacity:1"
         offset="0"
         id="stop838" />
      <stop
         style="stop-color:#339993;stop-opacity:1"
         offset="1"
         id="stop840" />
    </linearGradient>
    <linearGradient
       inkscape:collect="always"
       xlink:href="#linearGradient860"
       id="linearGradient862-3"
       x1="113.94677"
       y1="255.36646"
       x2="406.08289"
       y2="255.36646"
       gradientUnits="userSpaceOnUse"
       gradientTransform="matrix(0.10217938,0,0,0.09220348,374.12741,507.65424)" />
    <linearGradient
       inkscape:collect="always"
       xlink:href="#linearGradient842"
       id="linearGradient844-5"
       x1="386.30627"
       y1="522.45404"
       x2="446.83023"
       y2="522.45404"
       gradientUnits="userSpaceOnUse"
       gradientTransform="matrix(0.49972091,0,0,0.49972091,192.52612,274.04965)" />
  </defs>
  <metadata
     id="metadata5458">
    <rdf:RDF>
      <cc:Work
         rdf:about="">
        <dc:format>image/svg+xml</dc:format>
        <dc:type
           rdf:resource="http://purl.org/dc/dcmitype/StillImage" />
      </cc:Work>
    </rdf:RDF>
  </metadata>
  <g
     inkscape:label="Capa 1"
     inkscape:groupmode="layer"
     id="layer1"
     transform="translate(-384.57143,-515.798)">
    <path
       style="fill:url(#linearGradient862-3);fill-opacity:1;stroke-width:0.0899338"
       d="m 400.69557,522.37783 c -0.44376,0 -0.96904,-0.25825 -1.16792,-0.57392 l -0.89228,-1.4186 c -0.19798,-0.31567 -0.72326,-0.57333 -1.16685,-0.57391 l -10.2839,-0.0134 c -0.98095,-10e-4 -1.3944,0.46748 -1.40834,1.50207 l -0.006,0.43614 v 1.28321 18.28579 c 0,0.35288 1.16984,1.28321 1.61343,1.28321 h 26.62332 c 0.44361,0 1.61343,-0.93033 1.61343,-1.28321 v -17.64418 c 0,-0.96241 -0.40329,-1.28321 -1.61343,-1.28321 z"
       id="path4-3-6"
       sodipodi:nodetypes="sccsssccsssssss" />
    <path
       style="fill:#f2f2f2;fill-opacity:1;stroke-width:0.0886425"
       d="m 413.68832,529.22774 c 0,0.66273 -0.40114,1.20497 -1.31927,1.20497 h -23.28649 c -0.91814,0 -1.26955,-0.54224 -1.26955,-1.20497 v -3.61493 c 0,-0.66274 0.35141,-1.20498 1.26955,-1.20498 h 23.23652 c 0.91813,0 1.36924,0.54224 1.36924,1.20498 z"
       id="path8-6-2"
       sodipodi:nodetypes="sssssssss" />
    <path
       style="fill:url(#linearGradient844-5);fill-opacity:1;stroke-width:0.0970638"
       d="m 414.18158,526.46375 h -26.9752 c -0.81754,0 -1.63495,0.73763 -1.63495,1.47525 v 14.38375 c 0,0.97553 0.63224,1.47525 1.63495,1.47525 h 26.9752 c 1.0059,0 1.63495,-0.49972 1.63495,-1.47525 V 527.939 c 0,-0.73762 -0.81742,-1.47525 -1.63495,-1.47525 z"
       id="path10-9"
       sodipodi:nodetypes="sssssssss" />
    <path
       fill-rule="evenodd"
       clip-rule="evenodd"
       d="m 413.06394,542.28495 h -1.96763 c -0.15507,0 -0.28122,-0.126 -0.28122,-0.28109 0,-0.15536 0.12615,-0.28109 0.28122,-0.28109 h 1.82708 c 0.38814,0 0.70273,-0.31457 0.70273,-0.70272 v -1.82708 c 0,-0.15537 0.12572,-0.28136 0.28108,-0.28136 0.15538,0 0.2811,0.12599 0.2811,0.28136 v 1.96762 c 0,0.62093 -0.50344,1.12436 -1.12436,1.12436 z m -7.58945,-6.18387 c 0.15536,0 0.28115,0.12573 0.28115,0.28108 0,0.15495 -0.12579,0.28081 -0.28115,0.28081 -0.1553,0 -0.28109,-0.12586 -0.28109,-0.28081 0,-0.15535 0.12579,-0.28108 0.28109,-0.28108 z m 8.70336,1.2708 c -0.003,0.0302 -0.008,0.0603 -0.0148,0.0895 -0.003,0.0143 -0.007,0.0277 -0.0107,0.0417 -0.006,0.0244 -0.0126,0.0491 -0.0206,0.073 -0.004,0.0104 -0.007,0.0208 -0.0113,0.0313 -0.0102,0.0274 -0.0203,0.0546 -0.0326,0.0808 -0.003,0.007 -0.007,0.0134 -0.01,0.0203 -0.0136,0.0285 -0.0284,0.0569 -0.0443,0.084 -0.003,0.006 -0.007,0.0111 -0.0101,0.0167 -0.0172,0.028 -0.0355,0.0554 -0.0551,0.082 -0.003,0.003 -0.006,0.008 -0.008,0.0113 -0.0213,0.0278 -0.0435,0.0549 -0.0671,0.0804 -0.001,0.002 -0.004,0.005 -0.006,0.007 -0.0255,0.0277 -0.0527,0.054 -0.081,0.0791 -0.19819,0.17432 -0.45731,0.28109 -0.74197,0.28109 v 0.0143 c -0.0454,-0.009 -0.0925,-0.0143 -0.14055,-0.0143 h -1.96759 c -0.38813,0 -0.7027,0.31457 -0.7027,0.7027 v 1.96762 c 0,0.048 0.006,0.0953 0.0144,0.14055 h -0.0144 c 0,0.28466 -0.10664,0.54379 -0.2811,0.74197 -0.025,0.0283 -0.0514,0.0555 -0.0791,0.081 -0.002,10e-4 -0.004,0.003 -0.007,0.006 -0.0257,0.0235 -0.0529,0.0459 -0.0806,0.067 -0.003,0.003 -0.008,0.006 -0.0112,0.008 -0.0266,0.0195 -0.0539,0.0379 -0.082,0.0552 -0.006,0.004 -0.0111,0.007 -0.0167,0.0102 -0.0271,0.0159 -0.0555,0.0305 -0.0841,0.0442 -0.007,0.003 -0.0134,0.007 -0.0203,0.01 -0.0262,0.0124 -0.0533,0.0225 -0.0808,0.0326 -0.0104,0.004 -0.0208,0.008 -0.0313,0.0113 -0.0239,0.008 -0.0486,0.0143 -0.073,0.0206 -0.014,0.004 -0.0274,0.008 -0.0417,0.0108 -0.0291,0.006 -0.0593,0.0109 -0.0894,0.0148 -0.008,10e-4 -0.0161,0.003 -0.0247,0.004 -0.04,0.005 -0.0808,0.007 -0.12194,0.007 h -2.81072 c -0.62098,-6e-5 -1.12448,-0.50349 -1.12448,-1.12442 v -2.81087 c 0,-0.62101 0.5035,-1.12444 1.12448,-1.12444 h 0.28117 1.82685 c 0.38823,0 0.70273,-0.31458 0.70273,-0.70272 v -1.96762 c 0,-0.38813 -0.3145,-0.70271 -0.70273,-0.70271 h -1.96753 c -0.38814,0 -0.70266,0.31458 -0.70266,0.70271 v 0.70273 c 0,0.15524 -0.12579,0.28109 -0.28117,0.28109 -0.1553,0 -0.28109,-0.12585 -0.28109,-0.28109 v -0.84315 c 2e-5,-0.62105 0.50353,-1.12448 1.1245,-1.12448 h 2.24878 c 0.0411,0 0.0814,0.002 0.12133,0.007 0.009,5e-4 0.0181,0.004 0.0274,0.005 0.0296,0.004 0.0587,0.008 0.0876,0.0145 0.0134,0.003 0.026,0.007 0.0393,0.0102 0.0253,0.006 0.0504,0.0126 0.0749,0.0208 0.01,0.004 0.0202,0.008 0.0305,0.0111 0.0274,0.0102 0.0551,0.0206 0.0817,0.0328 0.007,0.004 0.0143,0.007 0.0215,0.0101 0.028,0.0134 0.0558,0.028 0.0826,0.0438 0.006,0.004 0.0113,0.007 0.017,0.0104 0.028,0.0172 0.0555,0.0354 0.082,0.0551 0.003,0.003 0.008,0.006 0.0113,0.008 0.0278,0.0211 0.0549,0.0435 0.0805,0.067 0.001,10e-4 0.004,0.004 0.007,0.006 0.0278,0.0257 0.0539,0.0527 0.079,0.0811 0.17445,0.19819 0.28116,0.45732 0.28116,0.74195 h 0.0143 c -0.009,0.0453 -0.0143,0.0924 -0.0143,0.14041 v 2.10802 c 0,0.62107 -0.50351,1.1245 -1.12422,1.1245 h -2.10833 c -0.38813,0 -0.70265,0.31465 -0.70265,0.7028 v 2.52978 c 0,0.38815 0.3145,0.70272 0.70265,0.70272 h 2.52994 c 0.38813,0 0.70266,-0.31457 0.70266,-0.70272 v -2.10863 c 0,-0.62091 0.50345,-1.12413 1.12422,-1.12413 h 2.10828 c 0.38816,0 0.70273,-0.31444 0.70273,-0.70258 v -2.52997 c 0,-0.38813 -0.31457,-0.70271 -0.70273,-0.70271 h -2.38911 c -0.15523,0 -0.28123,-0.12571 -0.28123,-0.28109 0,-0.15536 0.126,-0.28109 0.28123,-0.28109 h 2.52963 c 0.62093,0 1.12437,0.50344 1.12437,1.12449 v 2.81075 c 0,0.041 -0.002,0.0819 -0.007,0.12189 -5e-4,0.009 -0.002,0.0164 -0.004,0.0247 z"
       id="path2-3-3"
       style="fill:#f2f2f2;fill-opacity:1;stroke-width:0.0175679" />
  </g>
</svg>
