<?xml version="1.0" encoding="UTF-8" standalone="no"?>
<svg
   width="32"
   version="1.1"
   height="32"
   viewBox="0 0 32 32"
   id="svg17"
   sodipodi:docname="folder-music.svg"
   inkscape:version="1.1.1 (3bf5ae0d25, 2021-09-20)"
   xmlns:inkscape="http://www.inkscape.org/namespaces/inkscape"
   xmlns:sodipodi="http://sodipodi.sourceforge.net/DTD/sodipodi-0.dtd"
   xmlns:xlink="http://www.w3.org/1999/xlink"
   xmlns="http://www.w3.org/2000/svg"
   xmlns:svg="http://www.w3.org/2000/svg"
   xmlns:rdf="http://www.w3.org/1999/02/22-rdf-syntax-ns#"
   xmlns:cc="http://creativecommons.org/ns#"
   xmlns:dc="http://purl.org/dc/elements/1.1/">
  <sodipodi:namedview
     pagecolor="#ffffff"
     bordercolor="#666666"
     borderopacity="1"
     objecttolerance="10"
     gridtolerance="10"
     guidetolerance="10"
     inkscape:pageopacity="0"
     inkscape:pageshadow="2"
     inkscape:window-width="1920"
     inkscape:window-height="1006"
     id="namedview19"
     showgrid="false"
     inkscape:zoom="9.8125"
     inkscape:cx="-8.2547771"
     inkscape:cy="7.2356688"
     inkscape:window-x="0"
     inkscape:window-y="0"
     inkscape:window-maximized="1"
     inkscape:current-layer="layer1"
     inkscape:document-rotation="0"
     inkscape:pagecheckerboard="0" />
  <defs
     id="defs5455">
    <linearGradient
       inkscape:collect="always"
       xlink:href="#linearGradient860-6"
       id="linearGradient862-3"
       x1="113.94677"
       y1="255.36646"
       x2="406.08289"
       y2="255.36646"
       gradientUnits="userSpaceOnUse"
       gradientTransform="matrix(0.10135135,0,0,0.09220346,374.22015,507.65424)" />
    <linearGradient
       inkscape:collect="always"
       id="linearGradient860-6">
      <stop
         style="stop-color:#78acd3;stop-opacity:1"
         offset="0"
         id="stop856-7" />
      <stop
         style="stop-color:#d98cbb;stop-opacity:1"
         offset="1"
         id="stop858-5" />
    </linearGradient>
    <linearGradient
       inkscape:collect="always"
       xlink:href="#linearGradient842-5"
       id="linearGradient844-3"
       x1="386.30627"
       y1="522.45404"
       x2="446.83023"
       y2="522.45404"
       gradientUnits="userSpaceOnUse"
       gradientTransform="matrix(0.49567132,0,0,0.49972085,194.0905,274.04969)" />
    <linearGradient
       inkscape:collect="always"
       id="linearGradient842-5">
      <stop
         style="stop-color:#326e9a;stop-opacity:1"
         offset="0"
         id="stop838-6" />
      <stop
         style="stop-color:#339993;stop-opacity:1"
         offset="1"
         id="stop840-2" />
    </linearGradient>
  </defs>
  <metadata
     id="metadata5458">
    <rdf:RDF>
      <cc:Work
         rdf:about="">
        <dc:format>image/svg+xml</dc:format>
        <dc:type
           rdf:resource="http://purl.org/dc/dcmitype/StillImage" />
      </cc:Work>
    </rdf:RDF>
  </metadata>
  <g
     inkscape:label="Capa 1"
     inkscape:groupmode="layer"
     id="layer1"
     transform="translate(-384.57143,-515.798)">
    <path
       style="fill:url(#linearGradient862-3);fill-opacity:1;stroke-width:0.089569"
       d="m 400.57301,522.37783 c -0.44016,0 -0.96119,-0.25824 -1.15846,-0.57392 l -0.88505,-1.41859 c -0.19637,-0.31567 -0.7174,-0.57334 -1.1574,-0.57391 l -10.20056,-0.0134 c -0.973,-0.002 -1.3831,0.46748 -1.39693,1.50207 l -0.006,0.43614 v 1.28321 18.28579 c 0,0.35288 1.16036,1.28321 1.60036,1.28321 h 26.40757 c 0.44001,0 1.60036,-0.93033 1.60036,-1.28321 v -17.64418 c 0,-0.96241 -0.40002,-1.28321 -1.60036,-1.28321 z"
       id="path4-3-9"
       sodipodi:nodetypes="sccsssccsssssss" />
    <path
       style="fill:#f2f2f2;fill-opacity:1;stroke-width:0.0882825"
       d="m 413.46046,529.22774 c 0,0.66274 -0.39788,1.20497 -1.30857,1.20497 H 389.0541 c -0.9107,0 -1.25926,-0.54223 -1.25926,-1.20497 v -3.61492 c 0,-0.66274 0.34856,-1.20498 1.25926,-1.20498 h 23.04822 c 0.91069,0 1.35814,0.54224 1.35814,1.20498 z"
       id="path8-6-1"
       sodipodi:nodetypes="sssssssss" />
    <path
       style="fill:url(#linearGradient844-3);fill-opacity:1;stroke-width:0.09667"
       d="m 413.94973,526.46375 h -26.7566 c -0.81091,0 -1.6217,0.73763 -1.6217,1.47526 v 14.38374 c 0,0.97553 0.62711,1.47525 1.6217,1.47525 h 26.7566 c 0.99775,0 1.6217,-0.49972 1.6217,-1.47525 v -14.38374 c 0,-0.73763 -0.8108,-1.47526 -1.6217,-1.47526 z"
       id="path10-2"
       sodipodi:nodetypes="sssssssss" />
    <path
       d="m 412.32048,541.73103 c -0.92386,0 -1.67262,-0.75475 -1.67262,-1.68627 0,-0.93142 0.74878,-1.68657 1.67262,-1.68657 0.15411,0 0.27909,0.12557 0.27909,0.28081 0,0.15537 -0.12498,0.28137 -0.27909,0.28137 -0.61577,0 -1.11527,0.50317 -1.11527,1.12439 0,0.62079 0.4995,1.12409 1.11527,1.12409 0.61618,0 1.11539,-0.5033 1.11539,-1.12409 v -1.25436 -0.57276 -1.26527 c 0,-0.15495 0.12485,-0.28097 0.27896,-0.28097 0.15398,0 0.27867,0.126 0.27867,0.28097 v 3.09239 c 0,0.93152 -0.74903,1.68627 -1.67302,1.68627 z m 0.90642,-5.44474 -4.53238,0.91987 c -0.15873,0.0337 -0.27718,0.17417 -0.27718,0.34355 v 3.05725 c 0,0.9315 -0.74905,1.68626 -1.67303,1.68626 -0.92384,0 -1.67288,-0.75476 -1.67288,-1.68628 0,-0.46556 0.18747,-0.88722 0.4901,-1.19246 l 10e-4,10e-4 c 0.0502,-0.051 0.12035,-0.0825 0.19713,-0.0825 0.15411,0 0.27909,0.126 0.27909,0.28123 0,0.0811 -0.0349,0.15387 -0.0899,0.2052 -0.19754,0.20246 -0.31992,0.48053 -0.31992,0.78743 0,0.62091 0.4995,1.12409 1.11526,1.12409 0.6159,0 1.11539,-0.50318 1.11539,-1.12409 v -1.25436 -0.43221 -1.33994 c 0,-0.44277 0.31232,-0.81199 0.7274,-0.89558 l 3.7e-4,-3.7e-4 0.093,-0.0199 c 0.005,-5e-4 0.01,-5e-4 0.0156,-0.002 l 4.46117,-0.96626 c 0.15398,-0.0341 0.27868,-0.18749 0.27868,-0.34286 v -1.26478 c 0,-0.15537 -0.1247,-0.2535 -0.27868,-0.21974 l -4.46117,0.96654 c -0.15412,0.0336 -0.27868,0.1872 -0.27868,0.34244 v 0.65017 c 0,0.15495 -0.12498,0.28095 -0.27909,0.28095 -0.15398,0 -0.27854,-0.126 -0.27854,-0.28095 v -0.6816 c 0,-0.41026 0.3432,-0.81241 0.7666,-0.8986 l 4.60059,-0.93358 c 0.42326,-0.0858 0.7666,0.17705 0.7666,0.58757 v 1.48563 c 0,0.41052 -0.34334,0.81282 -0.7666,0.8986 z m -6.48259,3.19627 c -0.15397,0 -0.27895,-0.12601 -0.27895,-0.28124 0,-0.15537 0.12498,-0.28095 0.27895,-0.28095 0.15412,0 0.27868,0.12558 0.27868,0.28095 0,0.15523 -0.12456,0.28124 -0.27868,0.28124 z"
       id="path2"
       style="fill:#f2f2f2;fill-opacity:1;stroke-width:0.0174969" />
  </g>
</svg>
