<?xml version="1.0" encoding="UTF-8" standalone="no"?>
<svg
   width="32"
   version="1.1"
   height="32"
   viewBox="0 0 32 32"
   id="svg17"
   sodipodi:docname="user-home.svg"
   inkscape:version="1.1.1 (3bf5ae0d25, 2021-09-20)"
   xmlns:inkscape="http://www.inkscape.org/namespaces/inkscape"
   xmlns:sodipodi="http://sodipodi.sourceforge.net/DTD/sodipodi-0.dtd"
   xmlns:xlink="http://www.w3.org/1999/xlink"
   xmlns="http://www.w3.org/2000/svg"
   xmlns:svg="http://www.w3.org/2000/svg"
   xmlns:rdf="http://www.w3.org/1999/02/22-rdf-syntax-ns#"
   xmlns:cc="http://creativecommons.org/ns#"
   xmlns:dc="http://purl.org/dc/elements/1.1/">
  <sodipodi:namedview
     pagecolor="#ffffff"
     bordercolor="#666666"
     borderopacity="1"
     objecttolerance="10"
     gridtolerance="10"
     guidetolerance="10"
     inkscape:pageopacity="0"
     inkscape:pageshadow="2"
     inkscape:window-width="1920"
     inkscape:window-height="1006"
     id="namedview19"
     showgrid="false"
     inkscape:zoom="8"
     inkscape:cx="-27.5"
     inkscape:cy="4.5"
     inkscape:window-x="0"
     inkscape:window-y="0"
     inkscape:window-maximized="1"
     inkscape:current-layer="layer1"
     inkscape:document-rotation="0"
     inkscape:pagecheckerboard="0" />
  <defs
     id="defs5455">
    <linearGradient
       inkscape:collect="always"
       xlink:href="#linearGradient860-6"
       id="linearGradient862-3"
       x1="113.94677"
       y1="255.36646"
       x2="406.08289"
       y2="255.36646"
       gradientUnits="userSpaceOnUse"
       gradientTransform="matrix(0.10135135,0,0,0.09220346,374.22015,507.65424)" />
    <linearGradient
       inkscape:collect="always"
       id="linearGradient860-6">
      <stop
         style="stop-color:#78acd3;stop-opacity:1"
         offset="0"
         id="stop856-7" />
      <stop
         style="stop-color:#d98cbb;stop-opacity:1"
         offset="1"
         id="stop858-5" />
    </linearGradient>
    <linearGradient
       inkscape:collect="always"
       xlink:href="#linearGradient842-5"
       id="linearGradient844-3"
       x1="386.30627"
       y1="522.45404"
       x2="446.83023"
       y2="522.45404"
       gradientUnits="userSpaceOnUse"
       gradientTransform="matrix(0.49567132,0,0,0.49972085,194.0905,274.04969)" />
    <linearGradient
       inkscape:collect="always"
       id="linearGradient842-5">
      <stop
         style="stop-color:#326e9a;stop-opacity:1"
         offset="0"
         id="stop838-6" />
      <stop
         style="stop-color:#339993;stop-opacity:1"
         offset="1"
         id="stop840-2" />
    </linearGradient>
  </defs>
  <metadata
     id="metadata5458">
    <rdf:RDF>
      <cc:Work
         rdf:about="">
        <dc:format>image/svg+xml</dc:format>
        <dc:type
           rdf:resource="http://purl.org/dc/dcmitype/StillImage" />
      </cc:Work>
    </rdf:RDF>
  </metadata>
  <g
     inkscape:label="Capa 1"
     inkscape:groupmode="layer"
     id="layer1"
     transform="translate(-384.57143,-515.798)">
    <path
       style="fill:url(#linearGradient862-3);fill-opacity:1;stroke-width:0.089569"
       d="m 400.57301,522.37783 c -0.44016,0 -0.96119,-0.25824 -1.15846,-0.57392 l -0.88505,-1.41859 c -0.19637,-0.31567 -0.7174,-0.57334 -1.1574,-0.57391 l -10.20056,-0.0134 c -0.973,-0.002 -1.3831,0.46748 -1.39693,1.50207 l -0.006,0.43614 v 1.28321 18.28579 c 0,0.35288 1.16036,1.28321 1.60036,1.28321 h 26.40757 c 0.44001,0 1.60036,-0.93033 1.60036,-1.28321 v -17.64418 c 0,-0.96241 -0.40002,-1.28321 -1.60036,-1.28321 z"
       id="path4-3-9"
       sodipodi:nodetypes="sccsssccsssssss" />
    <path
       style="fill:#f2f2f2;fill-opacity:1;stroke-width:0.0882825"
       d="m 413.46046,529.22774 c 0,0.66274 -0.39788,1.20497 -1.30857,1.20497 H 389.0541 c -0.9107,0 -1.25926,-0.54223 -1.25926,-1.20497 v -3.61492 c 0,-0.66274 0.34856,-1.20498 1.25926,-1.20498 h 23.04822 c 0.91069,0 1.35814,0.54224 1.35814,1.20498 z"
       id="path8-6-1"
       sodipodi:nodetypes="sssssssss" />
    <path
       style="fill:url(#linearGradient844-3);fill-opacity:1;stroke-width:0.09667"
       d="m 413.94973,526.46375 h -26.7566 c -0.81091,0 -1.6217,0.73763 -1.6217,1.47526 v 14.38374 c 0,0.97553 0.62711,1.47525 1.6217,1.47525 h 26.7566 c 0.99775,0 1.6217,-0.49972 1.6217,-1.47525 v -14.38374 c 0,-0.73763 -0.8108,-1.47526 -1.6217,-1.47526 z"
       id="path10-2"
       sodipodi:nodetypes="sssssssss" />
    <path
       d="m 413.99358,537.51545 c 0,0.15534 -0.1248,0.28102 -0.27876,0.28102 -0.15408,0 -0.27889,-0.12568 -0.27889,-0.28102 0,-0.0743 -0.46496,-0.42651 -0.57547,-0.53806 l -0.30243,-0.30492 h 0.009 c -0.15298,-0.19251 -0.24555,-0.43664 -0.24555,-0.70285 v -1.26439 c 0,-0.15534 -0.12524,-0.28117 -0.2789,-0.28117 h -0.55765 c -0.15394,0 -0.27874,0.12585 -0.27874,0.28117 v 0.0965 c 0,0.11638 -0.0934,0.21077 -0.20906,0.21077 -0.0564,0 -0.10726,-0.0229 -0.14485,-0.0595 l -0.92446,-0.93204 c -0.21749,-0.21969 -0.57066,-0.21969 -0.78823,0 l -3.35084,3.37819 c -0.10916,0.1098 -0.16355,0.25346 -0.16355,0.39741 h 0.006 c 0,0.31019 0.23354,0.56214 0.46561,0.56214 0.26582,0 0.64929,0.37736 0.64929,0.8431 v 1.96726 c 0,0.3104 0.24983,0.56208 0.55758,0.56208 h 0.8364 c 0.15374,0 0.27882,-0.1257 0.27882,-0.28106 v -1.82673 c 0,-0.38807 0.31188,-0.70285 0.69683,-0.70285 h 0.83613 c 0.38492,0 0.69688,0.31478 0.69688,0.70285 v 1.82673 c 0,0.15536 0.12494,0.28106 0.27874,0.28106 h 0.83641 c 0.30774,0 0.55765,-0.25168 0.55765,-0.56208 v -1.96726 c 0,-0.15506 0.12466,-0.2813 0.27847,-0.2813 0.15409,0 0.27876,0.12624 0.27876,0.2813 v 1.96726 c 0,0.62081 -0.49899,1.12414 -1.11489,1.12414 h -0.83641 c -0.46183,0 -0.83612,-0.37763 -0.83612,-0.84312 v -1.6862 c 0,-0.15534 -0.1248,-0.28102 -0.27876,-0.28102 h -0.55763 c -0.15401,0 -0.27876,0.12568 -0.27876,0.28102 v 1.6862 c 0,0.46549 -0.37431,0.84312 -0.83613,0.84312 h -0.83641 c -0.61583,0 -1.1149,-0.50333 -1.1149,-1.12414 v -1.96726 c 0,-0.15506 -0.13005,-0.27115 -0.27876,-0.31616 -0.003,-5e-4 -0.005,-0.002 -0.007,-0.004 -0.47748,-0.12678 -0.8296,-0.56401 -0.8296,-1.08522 v 0.0623 c -0.0169,-0.3082 0.0872,-0.62175 0.32074,-0.85722 l 3.35095,-3.37835 c 0.21774,-0.21955 0.50224,-0.32505 0.78762,-0.32505 0.28538,0 0.57168,0.1055 0.78945,0.32505 l 0.49013,0.49428 c 0.12809,-0.15479 0.31782,-0.25551 0.53341,-0.25551 h 0.83601 c 0.38492,0 0.69688,0.31451 0.69688,0.70259 v 1.40504 c 0,0.15135 0.06,0.28803 0.15666,0.38904 l 0.63768,0.64289 c 0.21886,0.22052 0.32082,0.3303 0.32082,0.51393 z m -0.83641,0.84316 c 0.15408,0 0.27876,0.12568 0.27876,0.28104 0,0.15507 -0.12468,0.28076 -0.27876,0.28076 -0.15408,0 -0.27874,-0.12569 -0.27874,-0.28076 0,-0.15536 0.12466,-0.28104 0.27874,-0.28104 z"
       id="path2"
       style="fill:#f2f2f2;fill-opacity:1;stroke-width:0.0174969" />
  </g>
</svg>
