<?xml version="1.0" encoding="UTF-8" standalone="no"?>
<svg
   version="1.1"
   viewBox="0 0 32 32"
   id="svg91"
   sodipodi:docname="user-trash-full.svg"
   inkscape:version="1.1.1 (3bf5ae0d25, 2021-09-20)"
   xmlns:inkscape="http://www.inkscape.org/namespaces/inkscape"
   xmlns:sodipodi="http://sodipodi.sourceforge.net/DTD/sodipodi-0.dtd"
   xmlns:xlink="http://www.w3.org/1999/xlink"
   xmlns="http://www.w3.org/2000/svg"
   xmlns:svg="http://www.w3.org/2000/svg"
   xmlns:rdf="http://www.w3.org/1999/02/22-rdf-syntax-ns#"
   xmlns:cc="http://creativecommons.org/ns#"
   xmlns:dc="http://purl.org/dc/elements/1.1/">
  <metadata
     id="metadata95">
    <rdf:RDF>
      <cc:Work
         rdf:about="">
        <dc:format>image/svg+xml</dc:format>
        <dc:type
           rdf:resource="http://purl.org/dc/dcmitype/StillImage" />
      </cc:Work>
    </rdf:RDF>
  </metadata>
  <sodipodi:namedview
     pagecolor="#ffffff"
     bordercolor="#666666"
     borderopacity="1"
     objecttolerance="10"
     gridtolerance="10"
     guidetolerance="10"
     inkscape:pageopacity="0"
     inkscape:pageshadow="2"
     inkscape:window-width="1920"
     inkscape:window-height="1006"
     id="namedview93"
     showgrid="true"
     inkscape:zoom="9.8125"
     inkscape:cx="10.191083"
     inkscape:cy="20.484076"
     inkscape:window-x="0"
     inkscape:window-y="0"
     inkscape:window-maximized="1"
     inkscape:current-layer="svg91"
     inkscape:document-rotation="0"
     inkscape:pagecheckerboard="0">
    <inkscape:grid
       type="xygrid"
       id="grid1071" />
  </sodipodi:namedview>
  <defs
     id="defs36">
    <linearGradient
       id="u"
       x1="394.57101"
       x2="399.57101"
       y1="517.79797"
       y2="522.79797"
       gradientTransform="translate(-384.571,-515.798)"
       gradientUnits="userSpaceOnUse">
      <stop
         stop-color="#d4ba94"
         offset="0"
         id="stop2" />
      <stop
         stop-color="#bb9d71"
         offset="1"
         id="stop4" />
    </linearGradient>
    <linearGradient
       id="t"
       x1="390.57101"
       x2="410.57101"
       y1="521.79797"
       y2="545.79797"
       gradientTransform="matrix(1 0 0 .91666666 -384.571 -471.31484)"
       gradientUnits="userSpaceOnUse">
      <stop
         stop-color="#bdc3c7"
         offset="0"
         id="stop7" />
      <stop
         stop-color="#8a9696"
         offset="1"
         id="stop9" />
    </linearGradient>
    <linearGradient
       id="ab"
       x1="395.57101"
       x2="395.57101"
       y1="520.79797"
       y2="516.79797"
       gradientTransform="rotate(85.177693,488.15482,66.06004)"
       gradientUnits="userSpaceOnUse">
      <stop
         stop-color="#afb0b3"
         offset="0"
         id="stop12" />
      <stop
         stop-color="#bdc3c7"
         offset="1"
         id="stop14" />
    </linearGradient>
    <radialGradient
       id="n"
       cx="16"
       cy="8.5"
       r="4"
       gradientTransform="matrix(.14711513 1.7438054 -1.4946903 .12609869 38.014756 -11.958567)"
       gradientUnits="userSpaceOnUse">
      <stop
         stop-color="#4f575f"
         stop-opacity=".25"
         offset="0"
         id="stop17" />
      <stop
         stop-color="#9da5ab"
         offset="1"
         id="stop19" />
    </radialGradient>
    <linearGradient
       id="ad"
       x1="412.57101"
       x2="412.57101"
       y1="522.79797"
       y2="520.79797"
       gradientTransform="rotate(85.177693,488.15482,66.06004)"
       gradientUnits="userSpaceOnUse">
      <stop
         stop-color="#9da5ab"
         offset="0"
         id="stop22" />
      <stop
         stop-color="#bdc3c7"
         offset="1"
         id="stop24" />
    </linearGradient>
    <linearGradient
       id="z"
       x1="391.57101"
       x2="394.57101"
       y1="534.79797"
       y2="534.79797"
       gradientTransform="matrix(.66667 0 0 .9 -249.047 -463.31817)"
       gradientUnits="userSpaceOnUse"
       xlink:href="#a" />
    <linearGradient
       id="x"
       x1="391.57101"
       x2="394.57101"
       y1="534.79797"
       y2="534.79797"
       gradientTransform="matrix(.66667 0 0 .89999994 -254.048 -463.31813)"
       gradientUnits="userSpaceOnUse"
       xlink:href="#a" />
    <linearGradient
       id="w"
       x1="391.57101"
       x2="394.57101"
       y1="534.79797"
       y2="534.79797"
       gradientTransform="matrix(.66667 0 0 .9 -243.048 -463.31817)"
       gradientUnits="userSpaceOnUse"
       xlink:href="#a" />
    <linearGradient
       id="v"
       x1="391.57101"
       x2="394.57101"
       y1="534.79797"
       y2="534.79797"
       gradientTransform="matrix(.66667 0 0 .9 -238.047 -463.31817)"
       gradientUnits="userSpaceOnUse"
       xlink:href="#a" />
    <radialGradient
       id="p"
       cx="20.571428"
       cy="8.5"
       r="4"
       gradientTransform="matrix(.31455566 3.7285336 -1.4946903 .12609872 31.90703 -60.564598)"
       gradientUnits="userSpaceOnUse">
      <stop
         stop-color="#4f575f"
         stop-opacity=".25098041"
         offset="0"
         id="stop31" />
      <stop
         stop-color="#8a939a"
         offset="1"
         id="stop33" />
    </radialGradient>
    <linearGradient
       id="b">
      <stop
         stop-color="#fcfcfc"
         offset="0"
         id="stop39-3" />
      <stop
         stop-color="#eff0f1"
         offset="1"
         id="stop41-6" />
    </linearGradient>
    <linearGradient
       inkscape:collect="always"
       xlink:href="#linearGradient1253"
       id="linearGradient1255"
       x1="6"
       y1="32"
       x2="57.898335"
       y2="32"
       gradientUnits="userSpaceOnUse"
       gradientTransform="scale(0.5)" />
    <linearGradient
       inkscape:collect="always"
       id="linearGradient1253">
      <stop
         style="stop-color:#ff8080;stop-opacity:1"
         offset="0"
         id="stop1249" />
      <stop
         style="stop-color:#339993;stop-opacity:1"
         offset="1"
         id="stop1251" />
    </linearGradient>
  </defs>
  <linearGradient
     id="o"
     x1="393.571"
     x2="396.071"
     y1="521.798"
     y2="524.298"
     gradientTransform="translate(-384.571,-514.798)"
     gradientUnits="userSpaceOnUse"
     xlink:href="#m" />
  <linearGradient
     id="m">
    <stop
       stop-color="#fcfcfc"
       offset="0"
       id="stop39" />
    <stop
       stop-color="#eff0f1"
       offset="1"
       id="stop41" />
  </linearGradient>
  <linearGradient
     id="ac"
     x1="399.571"
     x2="400.571"
     y1="521.798"
     y2="523.798"
     gradientTransform="translate(-384.571,-514.798)"
     gradientUnits="userSpaceOnUse"
     xlink:href="#l" />
  <linearGradient
     id="l">
    <stop
       stop-color="#292c2f"
       offset="0"
       id="stop45" />
    <stop
       stop-color="#292c2f"
       stop-opacity="0"
       offset="1"
       id="stop47" />
  </linearGradient>
  <linearGradient
     id="aa"
     x1="409.571"
     x2="405.571"
     y1="521.798"
     y2="525.798"
     gradientTransform="matrix(-1,0,0,1,424.572,-514.798)"
     gradientUnits="userSpaceOnUse"
     xlink:href="#m" />
  <linearGradient
     id="y"
     x1="407.571"
     x2="408.571"
     y1="521.798"
     y2="523.798"
     gradientTransform="translate(-384.571,-514.798)"
     gradientUnits="userSpaceOnUse"
     xlink:href="#l" />
  <linearGradient
     id="a">
    <stop
       stop-color="#4f575f"
       stop-opacity=".4"
       offset="0"
       id="stop52" />
    <stop
       stop-color="#4f575f"
       stop-opacity=".6"
       offset=".5"
       id="stop54" />
    <stop
       stop-color="#4f575f"
       stop-opacity=".4"
       offset="1"
       id="stop56" />
  </linearGradient>
  <path
     d="m 12.730856,23.312551 v -8.125152 c 0,-0.44911 0.362883,-0.8125 0.811128,-0.8125 0.448043,0 0.810926,0.36339 0.810926,0.8125 v 8.125152 c 0,0.448296 -0.362883,0.8125 -0.810926,0.8125 -0.448245,0 -0.811128,-0.364204 -0.811128,-0.8125 z m 5.676379,-2.4375 c -0.448196,0 -0.810926,-0.364204 -0.810926,-0.8125 v -4.875152 c 0,-0.44911 0.36273,-0.8125 0.810926,-0.8125 0.448195,0 0.810925,0.36339 0.810925,0.8125 v 4.875152 c 0,0.448296 -0.36273,0.8125 -0.810925,0.8125 z m 0,3.25 c -0.448196,0 -0.810926,-0.364204 -0.810926,-0.8125 0,-0.44911 0.36273,-0.8125 0.810926,-0.8125 0.448195,0 0.810925,0.36339 0.810925,0.8125 0,0.448296 -0.36273,0.8125 -0.810925,0.8125 z m 6.487355,-8.125152 c -0.448195,0 -0.810926,-0.363391 -0.810926,-0.8125 0,-0.44911 0.362731,-0.8125 0.810926,-0.8125 0.448195,0 0.810977,0.36339 0.810977,0.8125 0,0.449109 -0.362782,0.8125 -0.810977,0.8125 z m 0.810977,-4.87495 H 25.268746 22.056375 21.650531 9.89259 c -1.119777,0 -2.027086,0.90929 -2.027086,2.03125 v 0.405844 3.250558 8.5312 c 0,1.12191 0.907309,2.031199 2.027086,2.031199 h 12.163785 c 1.119778,0 2.027289,-0.909289 2.027289,-2.031199 v -6.906199 c 0,-0.44911 0.362731,-0.8125 0.810926,-0.8125 0.448195,0 0.810977,0.36339 0.810977,0.8125 V 25.75 c 0,1.794812 -1.452446,3.25 -3.243703,3.25 H 9.487558 C 7.696047,29 6.243297,27.544812 6.243297,25.75 V 16.812602 13.562043 12.750356 C 6.243297,10.955188 7.696047,9.5 9.487558,9.5 h 0.810114 12.164192 3.243702 c 0.89568,0 1.621446,-0.727594 1.621446,-1.6254065 C 27.327012,6.977594 26.601246,6.25 25.705567,6.25 h -6.081918 c -0.895731,0 -1.131254,-1.625 -2.02734,-1.625 H 14.35286 c -0.896087,0 -1.131864,1.625 -2.027087,1.625 H 6.243297 C 5.348074,6.25 4.621242,6.977594 4.621242,7.8745935 4.621242,8.323297 4.258359,8.6875 3.811129,8.6875 3.362883,8.6875 3,8.323297 3,7.8745935 3,6.0801875 4.451735,4.625 6.243297,4.625 h 4.460421 C 11.598992,4.625 11.835582,3 12.730804,3 h 6.487305 c 0.895731,0 1.132067,1.625 2.02734,1.625 h 4.460066 c 1.791664,0 3.243653,1.4551875 3.243653,3.249543 5e-5,1.7952185 -1.451938,3.250406 -3.243601,3.250406 z"
     id="path2-3"
     style="fill:url(#linearGradient1255);fill-opacity:1;stroke-width:0.050781" />
</svg>
