<?xml version="1.0" encoding="UTF-8" standalone="no"?>
<svg
   version="1.1"
   id="svg2"
   viewBox="0 0 1365.9041 1358.6472"
   inkscape:version="1.1.1 (3bf5ae0d25, 2021-09-20)"
   sodipodi:docname="highlight.svg"
   width="1365.9041"
   height="1358.6472"
   xmlns:inkscape="http://www.inkscape.org/namespaces/inkscape"
   xmlns:sodipodi="http://sodipodi.sourceforge.net/DTD/sodipodi-0.dtd"
   xmlns="http://www.w3.org/2000/svg"
   xmlns:svg="http://www.w3.org/2000/svg"
   xmlns:rdf="http://www.w3.org/1999/02/22-rdf-syntax-ns#"
   xmlns:cc="http://creativecommons.org/ns#"
   xmlns:dc="http://purl.org/dc/elements/1.1/">
  <sodipodi:namedview
     pagecolor="#ffffff"
     bordercolor="#000000"
     borderopacity="1"
     objecttolerance="10"
     gridtolerance="10"
     guidetolerance="10"
     inkscape:pageopacity="1"
     inkscape:pageshadow="2"
     inkscape:window-width="1920"
     inkscape:window-height="1006"
     id="namedview12"
     showgrid="false"
     inkscape:zoom="0.27498597"
     inkscape:cx="363.65492"
     inkscape:cy="614.57681"
     inkscape:window-x="0"
     inkscape:window-y="0"
     inkscape:window-maximized="1"
     inkscape:current-layer="svg2"
     inkscape:document-rotation="0"
     inkscape:lockguides="false"
     inkscape:pagecheckerboard="0">
    <inkscape:grid
       type="xygrid"
       id="grid3388"
       originx="-200.58794"
       originy="136.72534" />
  </sodipodi:namedview>
  <metadata
     id="metadata18">
    <rdf:RDF>
      <cc:Work
         rdf:about="">
        <dc:format>image/svg+xml</dc:format>
        <dc:type
           rdf:resource="http://purl.org/dc/dcmitype/StillImage" />
      </cc:Work>
    </rdf:RDF>
  </metadata>
  <defs
     id="defs3051">
    <style
       type="text/css"
       id="current-color-scheme" />
    <style
       id="current-color-scheme-3"
       type="text/css" />
  </defs>
  <g
     transform="matrix(2,0,0,2,-953.81654,-845.15578)"
     id="start-here-kde">
    <path
       inkscape:connector-curvature="0"
       style="color:#4d4d4d;opacity:1;fill:#489ab1;fill-opacity:1;stroke:none;stroke-width:15.625"
       d="m 754.81427,632.81556 c -8.65625,0 -15.625,6.96875 -15.625,15.625 0,8.65625 6.96875,15.625 15.625,15.625 8.65625,0 15.625,-6.96875 15.625,-15.625 0,-8.65625 -6.96875,-15.625 -15.625,-15.625 z m 109.375,0 -31.25,31.25 46.875,46.875 -46.875,46.875 31.25,31.25 46.87501,-46.875 31.25006,-31.25 z m -148.4375,93.75 c -12.98438,0 -23.4375,10.45312 -23.4375,23.4375 0,12.98438 10.45312,23.4375 23.4375,23.4375 12.98438,0 23.4375,-10.45312 23.4375,-23.4375 0,-12.98438 -10.45312,-23.4375 -23.4375,-23.4375 z m 70.3125,93.75 c -17.3125,0 -31.25,13.9375 -31.25,31.25 0,17.3125 13.9375,31.25 31.25,31.25 17.3125,0 31.25,-13.9375 31.25,-31.25 0,-17.3125 -13.9375,-31.25 -31.25,-31.25 z"
       id="path3392"
       class="ColorScheme-Text" />
  </g>
</svg>
