<?xml version="1.0" encoding="UTF-8" standalone="no"?>
<svg
   width="22"
   height="22"
   version="1.1"
   id="svg1"
   sodipodi:docname="applications-all-symbolic.svg"
   inkscape:version="1.3.2 (091e20ef0f, 2023-11-25)"
   xmlns:inkscape="http://www.inkscape.org/namespaces/inkscape"
   xmlns:sodipodi="http://sodipodi.sourceforge.net/DTD/sodipodi-0.dtd"
   xmlns="http://www.w3.org/2000/svg"
   xmlns:svg="http://www.w3.org/2000/svg">
  <defs
     id="defs1" />
  <sodipodi:namedview
     id="namedview1"
     pagecolor="#ffffff"
     bordercolor="#999999"
     borderopacity="1"
     inkscape:showpageshadow="2"
     inkscape:pageopacity="0"
     inkscape:pagecheckerboard="0"
     inkscape:deskcolor="#d1d1d1"
     inkscape:zoom="12.245804"
     inkscape:cx="10.860863"
     inkscape:cy="18.006168"
     inkscape:window-width="1920"
     inkscape:window-height="996"
     inkscape:window-x="0"
     inkscape:window-y="0"
     inkscape:window-maximized="1"
     inkscape:current-layer="svg1" />
  <style
     type="text/css"
     id="current-color-scheme">.ColorScheme-Text{color:#31363b;}.ColorScheme-Background{color:#E9E8E8;}.ColorScheme-ViewText{color:#31363b;}.ColorScheme-ViewBackground{color:#ffffff;}.ColorScheme-ViewHover{color:#000000;}.ColorScheme-ViewFocus{color:#5a5a5a;}.ColorScheme-ButtonText{color:#31363b;}.ColorScheme-ButtonBackground{color:#E9E8E8;}.ColorScheme-ButtonHover{color:#1489ff;}.ColorScheme-ButtonFocus { color: #2B74C7; } </style>
  <g
     id="22-22-applications-other-2">
    <path
       style="clip-rule:evenodd;fill:#ffffc1;fill-opacity:0;fill-rule:evenodd;stroke-width:0.688964;stroke-linejoin:round;stroke-miterlimit:1.41421"
       d="M 0,0 V 22 H 22 V 0 Z"
       id="rect817-5"
       inkscape:connector-curvature="0" />
    <circle
       cx="11"
       cy="11"
       r="11"
       style="opacity:0.3;fill:#3b5a87;fill-opacity:1;stroke-width:0.785716"
       id="circle6-6" />
    <path
       style="fill:#d6dbf1;fill-opacity:1;fill-rule:evenodd;stroke-width:0.733334"
       d="M 7.3333326,4.3999999 A 2.9333334,2.9333334 0 0 0 4.4,7.3333325 2.9333334,2.9333334 0 0 0 7.3333326,10.266666 2.9333334,2.9333334 0 0 0 10.266666,7.3333325 2.9333334,2.9333334 0 0 0 7.3333326,4.3999999 Z m 7.3333334,0 A 2.9333334,2.9333334 0 0 0 11.733333,7.3333325 2.9333334,2.9333334 0 0 0 14.666666,10.266666 2.9333334,2.9333334 0 0 0 17.6,7.3333325 2.9333334,2.9333334 0 0 0 14.666666,4.3999999 Z M 7.3333326,11.733333 A 2.9333334,2.9333334 0 0 0 4.4,14.666666 2.9333334,2.9333334 0 0 0 7.3333326,17.6 2.9333334,2.9333334 0 0 0 10.266666,14.666666 2.9333334,2.9333334 0 0 0 7.3333326,11.733333 Z m 7.3333334,0 A 2.9333334,2.9333334 0 0 0 11.733333,14.666666 2.9333334,2.9333334 0 0 0 14.666666,17.6 2.9333334,2.9333334 0 0 0 17.6,14.666666 2.9333334,2.9333334 0 0 0 14.666666,11.733333 Z"
       id="path10-7" />
  </g>
</svg>
