<?xml version="1.0" encoding="UTF-8" standalone="no"?>
<svg
   width="22"
   height="22"
   version="1.1"
   id="svg1"
   sodipodi:docname="applications-system-symbolic.svg"
   inkscape:version="1.4 (unknown)"
   xmlns:inkscape="http://www.inkscape.org/namespaces/inkscape"
   xmlns:sodipodi="http://sodipodi.sourceforge.net/DTD/sodipodi-0.dtd"
   xmlns="http://www.w3.org/2000/svg"
   xmlns:svg="http://www.w3.org/2000/svg">
  <sodipodi:namedview
     id="namedview1"
     pagecolor="#ffffff"
     bordercolor="#000000"
     borderopacity="0.25"
     inkscape:showpageshadow="2"
     inkscape:pageopacity="0.0"
     inkscape:pagecheckerboard="0"
     inkscape:deskcolor="#d1d1d1"
     inkscape:zoom="35.227273"
     inkscape:cx="11"
     inkscape:cy="8.7290323"
     inkscape:window-width="1920"
     inkscape:window-height="998"
     inkscape:window-x="0"
     inkscape:window-y="0"
     inkscape:window-maximized="1"
     inkscape:current-layer="svg1" />
  <defs
     id="defs1">
    <style
       id="current-color-scheme"
       type="text/css">
   .ColorScheme-Text { color:#444444; } .ColorScheme-Highlight { color:#4285f4; } .ColorScheme-NeutralText { color:#ff9800; } .ColorScheme-PositiveText { color:#4caf50; } .ColorScheme-NegativeText { color:#f44336; }
  </style>
  </defs>
  <path
     style="fill:currentColor;stroke-width:1.25"
     class="ColorScheme-Text"
     d="M 8.4999953,1 8.2851483,3.6293947 A 7.8571427,7.8571427 0 0 0 5.9853488,4.9575196 l -2.3999021,-1.1279302 -2.5,4.3408226 2.172852,1.501461 A 7.8571427,7.8571427 0 0 0 3.143552,11 7.8571427,7.8571427 0 0 0 3.2583008,12.328128 l -2.172852,1.501461 2.5,4.340822 2.3852542,-1.127935 A 7.8571427,7.8571427 0 0 0 8.2851503,18.35596 L 8.4999953,21 H 13.5 l 0.214842,-2.629396 a 7.8571427,7.8571427 0 0 0 2.299804,-1.328128 l 2.399907,1.127935 2.5,-4.340822 -2.17286,-1.501461 A 7.8571427,7.8571427 0 0 0 18.856443,11 7.8571427,7.8571427 0 0 0 18.741693,9.671873 l 2.17286,-1.501461 -2.5,-4.3408226 -2.385261,1.1279302 A 7.8571427,7.8571427 0 0 0 13.714842,3.644043 L 13.5,1 Z M 11,8.5 A 2.5000003,2.5000003 0 0 1 13.5,11 2.5000003,2.5000003 0 0 1 11,13.5 2.5000003,2.5000003 0 0 1 8.4999953,11 2.5000003,2.5000003 0 0 1 11,8.5 Z"
     id="path1" />
</svg>
