<?xml version="1.0" encoding="UTF-8" standalone="no"?>
<svg
   sodipodi:docname="panel-background.svg"
   inkscape:version="1.1.1 (3bf5ae0d25, 2021-09-20)"
   version="1.1"
   id="svg2"
   viewBox="0 0 192 80"
   height="80"
   width="192"
   xmlns:inkscape="http://www.inkscape.org/namespaces/inkscape"
   xmlns:sodipodi="http://sodipodi.sourceforge.net/DTD/sodipodi-0.dtd"
   xmlns:xlink="http://www.w3.org/1999/xlink"
   xmlns="http://www.w3.org/2000/svg"
   xmlns:svg="http://www.w3.org/2000/svg"
   xmlns:rdf="http://www.w3.org/1999/02/22-rdf-syntax-ns#"
   xmlns:cc="http://creativecommons.org/ns#"
   xmlns:dc="http://purl.org/dc/elements/1.1/">
  <defs
     id="defs4">
    <style
       id="current-color-scheme"
       type="text/css">
      .ColorScheme-Text {
        color:#31363b;
        stop-color:#31363b;
      }
      .ColorScheme-Background {
        color:#eff0f1;
        stop-color:#eff0f1;
      }
      .ColorScheme-Highlight {
        color:#3daee9;
        stop-color:#3daee9;
      }
      .ColorScheme-ViewText {
        color:#31363b;
        stop-color:#31363b;
      }
      .ColorScheme-ViewBackground {
        color:#fcfcfc;
        stop-color:#fcfcfc;
      }
      .ColorScheme-ViewHover {
        color:#93cee9;
        stop-color:#93cee9;
      }
      .ColorScheme-ViewFocus{
        color:#3daee9;
        stop-color:#3daee9;
      }
      .ColorScheme-ButtonText {
        color:#31363b;
        stop-color:#31363b;
      }
      .ColorScheme-ButtonBackground {
        color:#eff0f1;
        stop-color:#eff0f1;
      }
      .ColorScheme-ButtonHover {
        color:#93cee9;
        stop-color:#93cee9;
      }
      .ColorScheme-ButtonFocus{
        color:#3daee9;
        stop-color:#3daee9;
      }
      </style>
    <linearGradient
       inkscape:collect="always"
       xlink:href="#linearGradient4270"
       id="linearGradient4920"
       gradientUnits="userSpaceOnUse"
       x1="-912.93359"
       y1="-35"
       x2="-905.21936"
       y2="-35"
       gradientTransform="matrix(2.3333371,0,0,1,1213.8197,0)" />
    <linearGradient
       id="linearGradient4270"
       inkscape:collect="always">
      <stop
         id="stop4272"
         offset="0"
         style="stop-color:#000000;stop-opacity:0.66663194" />
      <stop
         id="stop4274"
         offset="1"
         style="stop-color:#000000;stop-opacity:0;" />
    </linearGradient>
    <radialGradient
       inkscape:collect="always"
       xlink:href="#linearGradient4270"
       id="radialGradient1805"
       gradientUnits="userSpaceOnUse"
       gradientTransform="matrix(0,-1.8,1.8,0,-93.599964,1034.9623)"
       cx="77"
       cy="11.99998"
       fx="77"
       fy="11.99998"
       r="10" />
    <linearGradient
       inkscape:collect="always"
       xlink:href="#linearGradient4270"
       id="linearGradient4934"
       gradientUnits="userSpaceOnUse"
       x1="951.79071"
       y1="-35"
       x2="960.36218"
       y2="-35"
       gradientTransform="matrix(2.3333296,0,0,1,-1272.4793,0)" />
    <linearGradient
       inkscape:collect="always"
       xlink:href="#linearGradient4270"
       id="linearGradient4948"
       gradientUnits="userSpaceOnUse"
       x1="-15.571429"
       y1="932.36218"
       x2="-7.8571448"
       y2="932.36218"
       gradientTransform="matrix(2.3333338,0,0,1,17.333342,0)" />
    <linearGradient
       inkscape:collect="always"
       xlink:href="#linearGradient4270"
       id="linearGradient4950"
       gradientUnits="userSpaceOnUse"
       x1="51"
       y1="932.36218"
       x2="69"
       y2="932.36218" />
    <radialGradient
       inkscape:collect="always"
       xlink:href="#linearGradient4270"
       id="radialGradient975"
       gradientUnits="userSpaceOnUse"
       gradientTransform="matrix(0,-1.8,1.8,0,55.400036,150.59998)"
       cx="77"
       cy="11.99998"
       fx="77"
       fy="11.99998"
       r="10" />
    <radialGradient
       inkscape:collect="always"
       xlink:href="#linearGradient4270"
       id="radialGradient983"
       gradientUnits="userSpaceOnUse"
       gradientTransform="matrix(0,-1.8,1.8,0,55.400036,150.59998)"
       cx="77"
       cy="11.99998"
       fx="77"
       fy="11.99998"
       r="10" />
    <radialGradient
       inkscape:collect="always"
       xlink:href="#linearGradient4270"
       id="radialGradient991"
       gradientUnits="userSpaceOnUse"
       gradientTransform="matrix(0,-1.8,1.8,0,55.400036,150.59998)"
       cx="77"
       cy="11.99998"
       fx="77"
       fy="11.99998"
       r="10" />
    <radialGradient
       inkscape:collect="always"
       xlink:href="#linearGradient4270"
       id="radialGradient999"
       gradientUnits="userSpaceOnUse"
       gradientTransform="matrix(0,-1.8,1.8,0,55.400036,150.59998)"
       cx="77"
       cy="11.99998"
       fx="77"
       fy="11.99998"
       r="10" />
    <radialGradient
       inkscape:collect="always"
       xlink:href="#linearGradient4270"
       id="radialGradient972"
       gradientUnits="userSpaceOnUse"
       gradientTransform="matrix(-1.8,0,0,-1.8,66.59998,949.96218)"
       cx="77"
       cy="11.99998"
       fx="77"
       fy="11.99998"
       r="10" />
    <radialGradient
       inkscape:collect="always"
       xlink:href="#linearGradient4270"
       id="radialGradient986"
       gradientUnits="userSpaceOnUse"
       gradientTransform="matrix(0,1.8,-1.8,0,-18.40002,789.76222)"
       cx="77"
       cy="11.99998"
       fx="77"
       fy="11.99998"
       r="10" />
    <radialGradient
       inkscape:collect="always"
       xlink:href="#linearGradient4270"
       id="radialGradient1000"
       gradientUnits="userSpaceOnUse"
       gradientTransform="matrix(1.8,0,0,1.8,-178.59997,874.76223)"
       cx="77"
       cy="11.99998"
       fx="77"
       fy="11.99998"
       r="10" />
  </defs>
  <sodipodi:namedview
     inkscape:document-rotation="0"
     fit-margin-bottom="0"
     fit-margin-right="0"
     fit-margin-left="0"
     fit-margin-top="0"
     showguides="false"
     inkscape:window-maximized="1"
     inkscape:window-y="0"
     inkscape:window-x="0"
     inkscape:window-height="1006"
     inkscape:window-width="1920"
     units="mm"
     borderlayer="false"
     inkscape:showpageshadow="false"
     showgrid="false"
     inkscape:current-layer="layer1"
     inkscape:document-units="px"
     inkscape:cy="45.961941"
     inkscape:cx="78.488853"
     inkscape:zoom="2.8284271"
     inkscape:pageshadow="2"
     inkscape:pageopacity="0"
     borderopacity="1"
     bordercolor="#000000"
     pagecolor="#ffffff"
     id="base"
     inkscape:guide-bbox="true"
     inkscape:pagecheckerboard="0"
     inkscape:lockguides="false">
    <inkscape:grid
       originy="-79.999979"
       originx="72"
       empspacing="2"
       id="grid3336"
       type="xygrid" />
    <sodipodi:guide
       position="85,62.999983"
       orientation="1,0"
       id="guide992"
       inkscape:locked="false" />
    <sodipodi:guide
       position="107,63.999983"
       orientation="1,0"
       id="guide994"
       inkscape:locked="false" />
    <sodipodi:guide
       position="69,37.999983"
       orientation="0,-1"
       id="guide998"
       inkscape:locked="false" />
    <sodipodi:guide
       position="126,59.999983"
       orientation="0,-1"
       id="guide1000"
       inkscape:locked="false" />
  </sodipodi:namedview>
  <metadata
     id="metadata7">
    <rdf:RDF>
      <cc:Work
         rdf:about="">
        <dc:format>image/svg+xml</dc:format>
        <dc:type
           rdf:resource="http://purl.org/dc/dcmitype/StillImage" />
      </cc:Work>
    </rdf:RDF>
  </metadata>
  <g
     transform="translate(72,-892.36218)"
     id="layer1"
     inkscape:groupmode="layer"
     inkscape:label="Layer 1">
    <rect
       y="892.36218"
       x="116"
       height="4"
       width="4"
       id="hint-tile-center"
       style="opacity:0.01;fill:#00ffff;fill-opacity:1;stroke:none;stroke-width:0.8" />
    <g
       transform="matrix(0.375,0,0,2.6666565,18.874996,-1517.2609)"
       style="opacity:1;fill:#2f343f;fill-opacity:1"
       id="top">
      <rect
         class="ColorScheme-Background"
         transform="matrix(0,-1,-1,0,0,0)"
         style="opacity:1;fill:#eff0f1;fill-opacity:1;stroke:none"
         id="rect4152"
         width="6"
         height="32"
         x="-916.36218"
         y="-50.999985" />
    </g>
    <g
       transform="matrix(0.375,0,0,2.6666565,18.874996,-1590.5939)"
       style="opacity:1;fill:#192124;fill-opacity:1"
       id="bottom">
      <rect
         class="ColorScheme-Background"
         y="-50.999985"
         x="948.36218"
         height="32"
         width="6"
         id="rect4148"
         style="opacity:1;fill:#eff0f1;fill-opacity:1;stroke:none"
         transform="rotate(90)" />
    </g>
    <g
       transform="matrix(2.6666669,0,0,0.375,-24.666671,582.7263)"
       style="opacity:1;fill:#2f343f;fill-opacity:1"
       id="left">
      <rect
         class="ColorScheme-Background"
         y="916.36218"
         x="-19.000004"
         height="32"
         width="5.9999995"
         id="rect4144"
         style="opacity:1;fill:#eff0f1;fill-opacity:1;stroke:none"
         transform="scale(-1,1)" />
    </g>
    <g
       transform="matrix(2.6666669,0,0,0.375,-97.999979,582.7263)"
       style="opacity:1;fill:#192124;fill-opacity:1"
       id="right">
      <rect
         class="ColorScheme-Background"
         style="opacity:1;fill:#eff0f1;fill-opacity:1;stroke:none"
         id="rect4140"
         width="5.9999995"
         height="32"
         x="50.999985"
         y="916.36218" />
    </g>
    <g
       transform="matrix(0.375,0,0,0.375,18.875008,582.7263)"
       style="opacity:1"
       id="center">
      <rect
         style="opacity:0.7;fill:none;fill-opacity:1;stroke:none"
         id="rect4401"
         width="32"
         height="32"
         x="19.000004"
         y="916.36218" />
      <rect
         class="ColorScheme-Background"
         y="916.36218"
         x="19.000004"
         height="32"
         width="32"
         id="rect4138"
         style="opacity:1;fill:#eff0f1;fill-opacity:1;stroke:none" />
    </g>
    <rect
       y="910.36218"
       x="30.000015"
       height="1.9999769"
       width="4"
       id="hint-top-margin"
       style="opacity:0.00997853;fill:#008080;fill-opacity:1;stroke:none" />
    <rect
       style="opacity:0.01;fill:#008080;fill-opacity:1;stroke:none"
       id="hint-bottom-margin"
       width="4"
       height="2.0000231"
       x="30.000015"
       y="952.36218" />
    <rect
       transform="rotate(90)"
       style="opacity:0.01;fill:#008080;fill-opacity:1;stroke:none"
       id="hint-right-margin"
       width="3.9999769"
       height="1.9999847"
       x="930.36218"
       y="-54.000038" />
    <rect
       transform="rotate(90)"
       y="-12.000002"
       x="930.36218"
       height="2.0000019"
       width="4"
       id="hint-left-margin"
       style="opacity:0.01;fill:#008080;fill-opacity:1;stroke:none" />
    <g
       style="opacity:1;fill:#0f111a;fill-opacity:1"
       id="topleft"
       transform="matrix(2.6666667,0,0,2.6666565,-24.666661,-1517.261)">
      <path
         sodipodi:nodetypes="ccccc"
         class="ColorScheme-Background"
         inkscape:connector-curvature="0"
         id="rect4159"
         d="m 13,12 h 6 V 6 6 c -5.625002,-7.7e-6 -6.000002,0.3749937 -6,6 z"
         style="color:#eff0f1;opacity:1;fill:#eff0f1;fill-opacity:1;stroke:none"
         transform="translate(0,904.36218)" />
    </g>
    <g
       style="opacity:1;fill:#192124;fill-opacity:1"
       id="topright"
       transform="matrix(2.6666667,0,0,2.6666565,-97.999994,-1517.261)">
      <path
         sodipodi:nodetypes="cccc"
         class="ColorScheme-Background"
         inkscape:connector-curvature="0"
         id="rect4177"
         d="m 51,6 v 6 h 6 c -3e-6,-5.6250063 -0.375003,-6.0000077 -6,-6 z"
         style="color:#eff0f1;opacity:1;fill:#eff0f1;fill-opacity:1;stroke:none"
         transform="translate(0,904.36218)" />
    </g>
    <g
       style="opacity:1;fill:#0f111a;fill-opacity:1"
       id="bottomleft"
       transform="matrix(2.6666667,0,0,2.6666565,-24.666661,-1590.5939)">
      <path
         sodipodi:nodetypes="cccc"
         class="ColorScheme-Background"
         id="path5048"
         d="m 19,954.36218 v -6 h -6 c -2e-6,5.625 0.374998,6 6,6 z"
         style="color:#eff0f1;opacity:1;fill:#eff0f1;fill-opacity:1;stroke:none"
         inkscape:connector-curvature="0" />
    </g>
    <g
       style="opacity:1;fill:#192124;fill-opacity:1"
       id="bottomright"
       transform="matrix(2.6666667,0,0,2.6666565,-97.999994,-1590.5939)">
      <path
         sodipodi:nodetypes="cccc"
         class="ColorScheme-Background"
         inkscape:connector-curvature="0"
         style="color:#eff0f1;opacity:1;fill:#eff0f1;fill-opacity:1;stroke:none"
         d="m 51,954.36218 v -6 h 6 c -3e-6,5.625 -0.375003,6 -6,6 z"
         id="rect4177-6" />
    </g>
    <g
       transform="matrix(0.37500035,0,0,1.3333275,74.874977,-303.44857)"
       id="mask-top"
       style="opacity:1;fill:#191c29;fill-opacity:1">
      <rect
         y="-51"
         x="-922.36218"
         height="32.000015"
         width="11.999931"
         id="rect4265"
         style="opacity:1;fill:#191c29;fill-opacity:1;stroke:none;stroke-width:1.54919"
         transform="matrix(0,-1,-1,0,0,0)" />
    </g>
    <g
       transform="matrix(1.5999977,0,0,1.5999942,45.200028,-546.21187)"
       id="mask-topleft"
       style="opacity:1;fill:#191c29;fill-opacity:1">
      <path
         inkscape:connector-curvature="0"
         id="path4277"
         d="m 23,910.36218 c -9.374998,-8e-5 -9.999999,0.62492 -10,10 h 10 z"
         style="opacity:1;fill:#191c29;fill-opacity:1;stroke-width:2"
         sodipodi:nodetypes="cccc" />
    </g>
    <g
       transform="matrix(2.0000036,0,0,2.0000159,-4.0002045,-910.37667)"
       id="mask-topright"
       style="opacity:1;fill:#191c29;fill-opacity:1">
      <path
         inkscape:connector-curvature="0"
         id="path4287"
         d="m 49.000013,910.36218 v 7.99999 H 57 c 0,-7.49997 -0.499999,-7.99997 -7.999987,-7.99999 z"
         style="opacity:1;fill:#191c29;fill-opacity:1;stroke-width:1.6"
         sodipodi:nodetypes="cccc" />
    </g>
    <g
       transform="matrix(0.37500035,0,0,1.600003,74.874977,-572.62027)"
       id="mask-bottom"
       style="opacity:1;fill:#191c29;fill-opacity:1">
      <rect
         transform="rotate(90)"
         style="opacity:1;fill:#191c29;fill-opacity:1;stroke:none;stroke-width:1.41421"
         id="rect4291"
         width="9.9999723"
         height="32.000015"
         x="944.36224"
         y="-51" />
    </g>
    <g
       transform="matrix(1.3333288,0,0,1.3333268,48.666728,-318.11447)"
       id="mask-bottomleft"
       style="opacity:1;fill:#191c29;fill-opacity:1">
      <path
         inkscape:connector-curvature="0"
         id="path4303"
         d="m 13,942.36218 c -2e-6,11.25 0.750001,12 12,12 v -12 z"
         style="opacity:1;fill:#191c29;fill-opacity:1;stroke-width:2.40001"
         sodipodi:nodetypes="cccc" />
    </g>
    <g
       transform="matrix(1.3333336,0,0,1.3333316,33.999988,-318.11907)"
       id="mask-bottomright"
       style="opacity:1;fill:#191c29;fill-opacity:1">
      <path
         inkscape:connector-curvature="0"
         id="path4313"
         d="m 45,942.36218 v 12 c 11.249998,2e-5 11.999998,-0.74998 12,-12 z"
         style="opacity:1;fill:#191c29;fill-opacity:1;stroke-width:2.40001"
         sodipodi:nodetypes="cccc" />
    </g>
    <g
       transform="matrix(1.3333341,0,0,0.60000604,48.666648,372.93932)"
       id="mask-left"
       style="opacity:1;fill:#191c29;fill-opacity:1">
      <rect
         transform="scale(-1,1)"
         style="opacity:1;fill:#191c29;fill-opacity:1;stroke:none;stroke-width:1.22475"
         id="rect4317"
         width="11.999996"
         height="20.000069"
         x="-25"
         y="922.36218" />
    </g>
    <g
       transform="matrix(1.6000014,0,0,0.37500479,18.799936,582.72198)"
       id="mask-right"
       style="opacity:1;fill:#191c29;fill-opacity:1">
      <rect
         y="916.36218"
         x="47"
         height="32.000023"
         width="9.9999828"
         id="rect4323"
         style="opacity:1;fill:#191c29;fill-opacity:1;stroke:none;stroke-width:1.41421" />
    </g>
    <rect
       y="926.36218"
       x="82.000031"
       height="12.000025"
       width="12.000025"
       id="mask-center"
       style="opacity:1;fill:#191c29;fill-opacity:1;stroke:none;stroke-width:0.375001" />
    <g
       id="shadow-top"
       transform="translate(-70.999963,8.976e-5)">
      <rect
         transform="matrix(0,-1,-1,0,0,0)"
         style="opacity:1;fill:none;fill-opacity:1;stroke:none"
         id="rect4820"
         width="6"
         height="32"
         x="-916.36218"
         y="-50.999985" />
      <rect
         transform="matrix(0,-1,-1,0,0,0)"
         style="opacity:0.35;fill:url(#linearGradient4920);fill-opacity:1;stroke:none;stroke-width:1.52753"
         id="rect4822"
         width="14.000023"
         height="32"
         x="-910.36218"
         y="-50.999985" />
      <rect
         y="-50.999985"
         x="-911.36218"
         height="32"
         width="0.99997741"
         id="rect4824"
         style="opacity:1;fill:none;fill-opacity:1;stroke:none"
         transform="matrix(0,-1,-1,0,0,0)" />
      <rect
         y="-50.999985"
         x="-910.36218"
         height="32"
         width="1.0000226"
         id="rect907"
         style="opacity:0.01;fill:#eff0f1;fill-opacity:1;stroke:none;stroke-width:0.408253"
         transform="matrix(0,-1,-1,0,0,0)" />
    </g>
    <g
       id="shadow-topleft"
       transform="translate(20.000034,19.99999)">
      <path
         style="opacity:0.35;fill:url(#radialGradient1805);fill-opacity:1;fill-rule:evenodd;stroke:none;stroke-width:2.85714px;stroke-linecap:butt;stroke-linejoin:miter;stroke-opacity:1"
         d="m -92,876.36228 v 20 c 4.666667,10e-6 9.333333,10e-6 14,0 v -1 c 0,-2.76999 2.230013,-5 5,-5 h 1 v -14 z"
         id="path4830" />
      <rect
         ry="0.9999752"
         y="890.3623"
         x="71.999992"
         height="6.0000224"
         width="5.9999919"
         id="rect4834"
         style="fill:none;fill-opacity:1"
         transform="scale(-1,1)" />
      <rect
         ry="0"
         y="890.3623"
         x="71.999992"
         height="5.9999752"
         width="2.0000038"
         id="rect4836"
         style="fill:none;fill-opacity:1"
         transform="scale(-1,1)" />
      <rect
         y="894.3623"
         x="72.999992"
         height="2.0000248"
         width="4.9999924"
         id="rect4838"
         style="fill:none;fill-opacity:1"
         transform="scale(-1,1)" />
      <path
         style="opacity:0.01;fill:#eff0f1;fill-opacity:1;fill-rule:evenodd;stroke:none;stroke-width:1.71428px;stroke-linecap:butt;stroke-linejoin:miter;stroke-opacity:1"
         d="m -73,889.36228 c -3.323987,0 -6,2.67601 -6,6 v 1 h 1 v -1 c 0,-2.76999 2.230013,-5 5,-5 h 1 v -1 z"
         id="path898" />
    </g>
    <g
       id="shadow-bottom"
       transform="translate(-70.999963,8.976e-5)">
      <rect
         y="-50.999985"
         x="948.36218"
         height="32"
         width="6"
         id="rect4856"
         style="opacity:1;fill:none;fill-opacity:1;stroke:none"
         transform="rotate(90)" />
      <rect
         y="-50.999985"
         x="954.36218"
         height="32"
         width="13.999977"
         id="rect4858"
         style="opacity:0.35;fill:url(#linearGradient4934);fill-opacity:1;stroke:none;stroke-width:1.52752"
         transform="rotate(90)" />
      <rect
         transform="rotate(90)"
         style="opacity:1;fill:none;fill-opacity:1;stroke:none"
         id="rect4860"
         width="1.0000226"
         height="31.999971"
         x="953.36218"
         y="-50.999985" />
      <rect
         transform="rotate(90)"
         style="opacity:0.01;fill:#eff0f1;fill-opacity:1;stroke:none;stroke-width:0.408244"
         id="rect915"
         width="0.99997741"
         height="32"
         x="954.36218"
         y="-50.999985" />
    </g>
    <g
       id="shadow-left"
       transform="translate(-70.999963,8.976e-5)">
      <rect
         y="916.36218"
         x="-19.000004"
         height="32"
         width="5.9999995"
         id="rect4892"
         style="opacity:1;fill:none;fill-opacity:1;stroke:none"
         transform="scale(-1,1)" />
      <rect
         y="916.36218"
         x="-13.000002"
         height="32"
         width="14.000002"
         id="rect4894"
         style="opacity:0.35;fill:url(#linearGradient4948);fill-opacity:1;stroke:none;stroke-width:1.52753"
         transform="scale(-1,1)" />
      <rect
         transform="scale(-1,1)"
         style="opacity:1;fill:none;fill-opacity:1;stroke:none"
         id="rect4896"
         width="1.0000019"
         height="32.000023"
         x="-14.000002"
         y="916.36218" />
      <rect
         transform="scale(-1,1)"
         style="opacity:0.01;fill:#eff0f1;fill-opacity:1;stroke:none;stroke-width:0.408249"
         id="rect903"
         width="1.0000019"
         height="32"
         x="-13.000002"
         y="916.36218" />
    </g>
    <g
       id="shadow-right"
       transform="translate(-70.999963,8.976e-5)">
      <rect
         style="opacity:1;fill:none;fill-opacity:1;stroke:none"
         id="rect4900"
         width="5.9999995"
         height="32"
         x="50.999985"
         y="916.36218" />
      <rect
         style="opacity:0.35;fill:url(#linearGradient4950);fill-opacity:1;stroke:none"
         id="rect4902"
         width="14.000015"
         height="31.999977"
         x="56.999985"
         y="916.36218" />
      <rect
         y="916.36218"
         x="55.999985"
         height="32.000023"
         width="1"
         id="rect4904"
         style="opacity:1;fill:none;fill-opacity:1;stroke:none" />
      <rect
         y="916.36218"
         x="56.999985"
         height="32"
         width="1.0000153"
         id="rect911"
         style="opacity:0.01;fill:#eff0f1;fill-opacity:1;stroke:none;stroke-width:0.408251" />
    </g>
    <g
       id="shadow-center"
       transform="translate(-70.999963,8.976e-5)">
      <rect
         style="opacity:1;fill:none;fill-opacity:1;stroke:none"
         id="rect4908"
         width="32"
         height="32"
         x="19.000004"
         y="916.36218" />
      <rect
         y="916.36218"
         x="19.000004"
         height="32"
         width="32"
         id="rect4910"
         style="opacity:1;fill:none;fill-opacity:1;stroke:none" />
    </g>
    <rect
       y="896.36218"
       x="-46.999973"
       height="14"
       width="2"
       id="shadow-hint-top-margin"
       style="opacity:0.01;fill:#007aa5;fill-opacity:1;stroke:none;stroke-width:1.08013" />
    <rect
       style="opacity:0.01;fill:#007aa5;fill-opacity:1;stroke:none;stroke-width:1.08012"
       id="shadow-hint-bottom-margin"
       width="2"
       height="13.999977"
       x="-24.99995"
       y="954.36194" />
    <rect
       transform="rotate(90)"
       style="opacity:0.01;fill:#007aa5;fill-opacity:1;stroke:none;stroke-width:1.08014"
       id="shadow-hint-right-margin"
       width="2.0000215"
       height="14"
       x="920.36218"
       y="-6.7733228e-05" />
    <rect
       transform="rotate(90)"
       y="58"
       x="939.36194"
       height="14"
       width="2.0000215"
       id="shadow-hint-left-margin"
       style="opacity:0.01;fill:#007aa5;fill-opacity:1;stroke:none;stroke-width:1.08013" />
    <g
       id="shadow-topright"
       transform="translate(20.000034,19.99999)">
      <path
         style="opacity:0.35;fill:url(#radialGradient1000);fill-opacity:1;fill-rule:evenodd;stroke:none;stroke-width:2.85714px;stroke-linecap:butt;stroke-linejoin:miter;stroke-opacity:1"
         d="m -19.99999,876.36219 h -20 c -6e-6,4.66667 -9e-6,9.33333 0,14 h 1 c 2.769987,0 5,2.23001 5,5 v 1 h 14 z"
         id="path988" />
      <rect
         ry="0.9999752"
         y="33.999992"
         x="-896.36218"
         height="6.0000224"
         width="5.9999919"
         id="rect990"
         style="fill:none;fill-opacity:1"
         transform="matrix(0,-1,-1,0,0,0)" />
      <rect
         ry="0"
         y="33.999992"
         x="-896.36218"
         height="5.9999752"
         width="2.0000038"
         id="rect992"
         style="fill:none;fill-opacity:1"
         transform="matrix(0,-1,-1,0,0,0)" />
      <rect
         y="37.999992"
         x="-895.36218"
         height="2.0000248"
         width="4.9999924"
         id="rect994"
         style="fill:none;fill-opacity:1"
         transform="matrix(0,-1,-1,0,0,0)" />
      <path
         style="opacity:0.01;fill:#eff0f1;fill-opacity:1;fill-rule:evenodd;stroke:none;stroke-width:1.71428px;stroke-linecap:butt;stroke-linejoin:miter;stroke-opacity:1"
         d="m -32.99999,895.36219 c 0,-3.32399 -2.676013,-6 -6,-6 h -1 v 1 h 1 c 2.769987,0 5,2.23001 5,5 v 1 h 1 z"
         id="path996" />
    </g>
    <g
       id="shadow-bottomleft"
       transform="translate(20.000034,19.99999)">
      <path
         style="opacity:0.35;fill:url(#radialGradient972);fill-opacity:1;fill-rule:evenodd;stroke:none;stroke-width:2.85714px;stroke-linecap:butt;stroke-linejoin:miter;stroke-opacity:1"
         d="m -92,948.36222 h 20 c 6e-6,-4.66667 9e-6,-9.33333 0,-14 h -1 c -2.769987,0 -5,-2.23001 -5,-5 v -1 h -14 z"
         id="path960" />
      <rect
         ry="0.9999752"
         y="-78"
         x="928.36218"
         height="6.0000224"
         width="5.9999919"
         id="rect962"
         style="fill:none;fill-opacity:1"
         transform="matrix(0,1,1,0,0,0)" />
      <rect
         ry="0"
         y="-78"
         x="928.36218"
         height="5.9999752"
         width="2.0000038"
         id="rect964"
         style="fill:none;fill-opacity:1"
         transform="matrix(0,1,1,0,0,0)" />
      <rect
         y="-74"
         x="929.36218"
         height="2.0000248"
         width="4.9999924"
         id="rect966"
         style="fill:none;fill-opacity:1"
         transform="matrix(0,1,1,0,0,0)" />
      <path
         style="opacity:0.01;fill:#eff0f1;fill-opacity:1;fill-rule:evenodd;stroke:none;stroke-width:1.71428px;stroke-linecap:butt;stroke-linejoin:miter;stroke-opacity:1"
         d="m -79,929.36222 c 0,3.32399 2.676013,6 6,6 h 1 v -1 h -1 c -2.769987,0 -5,-2.23001 -5,-5 v -1 h -1 z"
         id="path968" />
    </g>
    <g
       id="shadow-bottomright"
       transform="translate(20.000034,19.99999)">
      <path
         style="opacity:0.35;fill:url(#radialGradient986);fill-opacity:1;fill-rule:evenodd;stroke:none;stroke-width:2.85714px;stroke-linecap:butt;stroke-linejoin:miter;stroke-opacity:1"
         d="m -19.999984,948.3622 v -20 c -4.666667,-10e-6 -9.333333,-10e-6 -14,0 v 1 c 0,2.76999 -2.230013,5 -5,5 h -1 v 14 z"
         id="path974" />
      <rect
         ry="0.9999752"
         y="-934.36224"
         x="-39.999992"
         height="6.0000224"
         width="5.9999919"
         id="rect976"
         style="fill:none;fill-opacity:1"
         transform="scale(1,-1)" />
      <rect
         ry="0"
         y="-934.36224"
         x="-39.999992"
         height="5.9999752"
         width="2.0000038"
         id="rect978"
         style="fill:none;fill-opacity:1"
         transform="scale(1,-1)" />
      <rect
         y="-930.36224"
         x="-38.999989"
         height="2.0000248"
         width="4.9999924"
         id="rect980"
         style="fill:none;fill-opacity:1"
         transform="scale(1,-1)" />
      <path
         style="opacity:0.01;fill:#eff0f1;fill-opacity:1;fill-rule:evenodd;stroke:none;stroke-width:1.71428px;stroke-linecap:butt;stroke-linejoin:miter;stroke-opacity:1"
         d="m -38.999984,935.3622 c 3.323987,0 6,-2.67601 6,-6 v -1 h -1 v 1 c 0,2.76999 -2.230013,5 -5,5 h -1 v 1 z"
         id="path982" />
    </g>
    <rect
       y="968.36218"
       x="116"
       height="4"
       width="4"
       id="hint-tile-center-9"
       style="opacity:0.01;fill:#00ffff;fill-opacity:1;stroke:none;stroke-width:0.8" />
  </g>
</svg>
